<svg xmlns="http://www.w3.org/2000/svg" viewBox="0 0 70.31 193.4"><defs><style>.cls-1{fill:#a33b3b;}.cls-2{fill:#661513;}.cls-3{fill:#953133;}.cls-4{fill:#070101;}.cls-5{fill:#fff;}.cls-6{fill:#719b0a;}.cls-7{fill:#86191d;}.cls-8{fill:#b8711b;}.cls-9{fill:#501d04;}.cls-10{fill:#c58869;}.cls-11{fill:#170000;}</style></defs><title>mexico-activity</title><g id="Calque_2" data-name="Calque 2"><g id="ACTIVITY"><path class="cls-1" d="M49.41,190.67c-.17,1-2.77,2.07-6.52,2.52-4.46.54-8.84,0-9.79-1.15a.94.94,0,0,1-.13-.24c-15.73.35-28.41-1.44-29.53-4.39a1.17,1.17,0,0,1-.07-.49,1.41,1.41,0,0,1-.27-.4c-.82-2.18,7.32-4.54,19.52-6a5.35,5.35,0,0,1,.51-.43,5.26,5.26,0,0,1,2.25-1.69,9.3,9.3,0,0,1-2.85-.43,4,4,0,0,1-2.11-.77c-1-.9-5.4-5.55-6.09-6.29l-4.92.89.28.22-1.9.35a1.68,1.68,0,0,1,.87,0c.05.07-.27.17-.72.22a1.8,1.8,0,0,1-.9,0s0-.08.16-.12l-1.15.21a1.55,1.55,0,0,1,.76.05c.06.07-.26.17-.71.22a1.79,1.79,0,0,1-.9,0s0-.07.11-.1l-.94.17a1.66,1.66,0,0,1,.78,0c0,.07-.27.17-.72.22a1.8,1.8,0,0,1-.9,0s0-.07.12-.1l-1.44.26L0,171.55l1.39-.25c-.33,0-.62-.13-.66-.3s.21-.33.57-.34.69.11.73.29,0,.2-.2.27L3,171c-.35,0-.65-.12-.7-.29s.21-.34.57-.35.69.12.74.3-.08.21-.24.27l1.06-.19c-.23,0-.41-.14-.44-.27s.2-.33.56-.35.69.12.74.3a.19.19,0,0,1-.08.18l2.2-.39c0-.3.16-.62.86-.76s2.47-.67,4.16-.9l0,0a15.36,15.36,0,0,1,3.64-.27c-.68-3-1.18-7.45,2.73-8.74l3.87-23.59-.66-.14c-3.26-.59-7.92-.48-8.82-1.13-2.17-1.56,8.43-4.37,16-3.64,4.53.44,4.34.34,4.45,2.32h1l-.44,25.58,5-15.95.67-.07a11.65,11.65,0,0,0-2.16-.58c-3.26-.59-7.92-.48-8.82-1.13-2.17-1.56,6-7.08,13.53-6.35,4.57.44,8.2,1,6.4,2.66,0,0,.23.65.51.72.44,1.4,1.7,16.15,2.07,20.86a.71.71,0,0,1,.42.2,29,29,0,0,1,2,5.8,8.44,8.44,0,0,1,2.73,1.37,6.29,6.29,0,0,1-.53,8s-2.88,3.06-5.17,3a4.93,4.93,0,0,1-.88-.1c-1.58.27-6.12.87-8.35,1a9.55,9.55,0,0,1,1.36.7c.34-.07.51-.09.51-.09l.3.31c14.11-.16,25,1.24,25.88,3.58a.72.72,0,0,1,0,.41,1.81,1.81,0,0,1,.3.48C71.24,186.32,62.45,189.13,49.41,190.67Z"/><ellipse class="cls-2" cx="41.18" cy="6.05" rx="5.76" ry="8.45" transform="translate(23.18 43.57) rotate(-72.73)"/><ellipse class="cls-3" cx="36.84" cy="20.38" rx="15.76" ry="33.75" transform="translate(11.36 53.88) rotate(-81.7)"/><ellipse class="cls-2" cx="36.5" cy="22.69" rx="13.42" ry="33.75" transform="translate(8.78 55.53) rotate(-81.7)"/><path class="cls-4" d="M26,123.43a7.24,7.24,0,0,1-3.93,4.3c-3.26,1.52-7.91,1.25-8.82,2.93-2.16,4,5,4.17,12.56,2.28,4.56-1.14,8.1-1,6.29-5.37A6.46,6.46,0,0,0,26,123.43Z"/><path class="cls-4" d="M41.8,128a7.21,7.21,0,0,1-3.92,4.29c-3.26,1.53-7.92,1.26-8.82,2.93-2.17,4,5,4.18,12.55,2.29,4.57-1.15,8.1-1,6.3-5.37A6.47,6.47,0,0,0,41.8,128Z"/><path class="cls-2" d="M18.45,83.13,22.74,128l11.59-.37V89.29l5,41.29s7.85,2.24,9.72,1.12c.56-4.67,3.17-48,2.42-48.76S18.45,83.13,18.45,83.13Z"/><polygon class="cls-5" points="23.35 42.32 21.58 80.06 46.37 81.49 46.15 41.21 23.35 42.32"/><path class="cls-6" d="M18.18,72.14,49.6,75.41,47.79,86.76s-23.89-.64-25.07-2.09S18.18,72.14,18.18,72.14Z"/><path class="cls-7" d="M23.93,39.82a3.27,3.27,0,0,0-3.51,2.08c-1.11,2.54-6.18,16.55-6.18,16.55s-2.39,5.44-1.72,6a6.24,6.24,0,0,0,5.82,0C20.42,63.07,23.93,39.82,23.93,39.82Z"/><path class="cls-2" d="M40.6,39.38s-6.25,39.19-3.43,43.35S51.25,90.93,52,88.36s2.33-16.77,2.33-18.24-2.09-27.56-4-28.41S41.09,38.4,40.6,39.38Z"/><path class="cls-2" d="M28,38.92S24,38.21,22.49,40s-5.12,13-5.83,20-3.35,28.8,4.86,28.67c5.46-.09,8-9.62,8-11.56S28,38.92,28,38.92Z"/><rect class="cls-8" x="2.23" y="51.82" width="5.23" height="8.25" transform="translate(-47.92 36.73) rotate(-65.04)"/><path class="cls-9" d="M31,65.12a9.91,9.91,0,0,0-4.66-4.53c-3-1.18-6.55.65-7.89,4.07s0,7.16,3.06,8.33a9.8,9.8,0,0,0,6.18,0,15.21,15.21,0,0,0,8.58,10C41,84.66,46.46,81.7,48.43,76.34s-.27-11.09-5-12.8A15.5,15.5,0,0,0,31,65.12Z"/><path class="cls-8" d="M31.12,63.23a9.82,9.82,0,0,0-4.66-4.53c-3-1.18-6.55.65-7.88,4.07s0,7.16,3.05,8.33a9.83,9.83,0,0,0,6.19,0,15.21,15.21,0,0,0,8.58,10c4.73,1.71,10.17-1.24,12.14-6.6s-.27-11.1-5-12.81A15.53,15.53,0,0,0,31.12,63.23Z"/><ellipse class="cls-9" cx="1.38" cy="58.04" rx="0.84" ry="0.65" transform="translate(-56.51 53.58) rotate(-84.23)"/><ellipse class="cls-9" cx="2.99" cy="58.82" rx="0.84" ry="0.65" transform="translate(-55.82 55.88) rotate(-84.23)"/><ellipse class="cls-9" cx="4.68" cy="59.42" rx="0.84" ry="0.65" transform="translate(-54.92 58.1) rotate(-84.23)"/><ellipse class="cls-9" cx="4.34" cy="52.47" rx="0.35" ry="0.84" transform="translate(-47.34 42.37) rotate(-74.22)"/><ellipse class="cls-9" cx="6" cy="53.25" rx="0.35" ry="0.84" transform="translate(-46.87 44.55) rotate(-74.22)"/><ellipse class="cls-9" cx="7.85" cy="54.08" rx="0.35" ry="0.84" transform="translate(-46.33 46.92) rotate(-74.22)"/><circle class="cls-9" cx="34.11" cy="68.23" r="3.88"/><path class="cls-10" d="M37.16,65.12s-3.54-3-5.2-2.94S27.78,63.72,28,64.51s-1.44,3.77-.48,3.74,5.43,0,5.75,1,1,2.21,3.22,1.82S37.16,65.12,37.16,65.12Z"/><path class="cls-7" d="M49.54,62.89s-13,1.67-13,2,.41,5.47-1.23,6.35a173.78,173.78,0,0,0,17.44,2.88c.94-.12,3.29-2.48,4-4.29.94-2.41,2.35-12.81-.53-20.68,0,0-2.88-7.93-5.17-7.7s-3.88,3.53-3.76,8.05S49.54,62.89,49.54,62.89Z"/><path class="cls-6" d="M26.91,39.66s-5,6-4.92,6.46S28,47,28,47c-.15,1.34,1.19,4.07,3.67,3.88s2.74-2.49,4.33-1.25,3.92,2,4.87.75,6.41-5,4.87-6.51-5-5.71-5-5.71Z"/><rect class="cls-9" x="11.34" y="53.27" width="3.83" height="13.05" transform="translate(-46.55 46.58) rotate(-65.04)"/><path class="cls-10" d="M15.86,63.12s-3.33-1-2.79-2.41S7.85,58.21,7.62,59s-.4,2.49.69,3,4.58,3.48,6.6,2.31C16.17,63.58,15.86,63.12,15.86,63.12Z"/><path class="cls-10" d="M44.81,30.54h-.1a11,11,0,1,0-.78,5.4,1.62,1.62,0,0,0,.88.26c1.16,0,2.1-1.27,2.1-2.83S46,30.54,44.81,30.54Z"/><path class="cls-11" d="M22.35,32.61s1.77,5.39,4.53,5c0,0,4.34-.19,5.15-2.15,1.38,1,3.38,2.53,5.38,2.24a4.73,4.73,0,0,0,4.15-4.86C40.13,35.09,39,35,38.37,35c-2.2.1-4.86-2.62-6.12-1.78-1.11-.31-1.34-.41-5.13,1.83C25.69,35.93,22.35,32.61,22.35,32.61Z"/><path class="cls-11" d="M28.69,28.9A1.79,1.79,0,0,1,30.46,30a.66.66,0,0,0,0-.14,1.67,1.67,0,0,0-1.83-1.45,1.67,1.67,0,0,0-1.82,1.45,1.13,1.13,0,0,0,.06.36A1.7,1.7,0,0,1,28.69,28.9Z"/><path class="cls-11" d="M36.91,28.94A1.8,1.8,0,0,1,38.68,30c0-.05,0-.09,0-.14a1.88,1.88,0,0,0-3.66,0,1.13,1.13,0,0,0,.06.36A1.72,1.72,0,0,1,36.91,28.94Z"/><path class="cls-11" d="M43.42,26.45s0,6.7-2.28,9.51a7.69,7.69,0,0,0,2.57,1.65S45.66,32.8,44.79,30A14.76,14.76,0,0,0,43.42,26.45Z"/></g></g></svg>