<svg xmlns="http://www.w3.org/2000/svg" viewBox="0 0 157.85 209.7"><defs><style>.cls-1{fill:#822f2f;}.cls-2{fill:#a32d08;}.cls-3{fill:#deb714;}.cls-4{fill:#597a08;}.cls-5{fill:#a33b3b;}.cls-6{fill:#c4360a;}.cls-7{fill:#ffd217;}.cls-8{fill:#719b0a;}</style></defs><title>mexico-souvenir</title><g id="Calque_2" data-name="Calque 2"><g id="SOUVENIR"><path class="cls-1" d="M157.37,56.07c-.07.62-.16,1.24-.26,1.86-.23,1.56-.52,3.11-.87,4.62-.12.57-.26,1.12-.4,1.68a60.93,60.93,0,0,1-4.94,13c-6.25,12-16.13,20.72-27.31,23.79-.69,6-1.66,14.41-2.77,23.88-3.84,32.86-9.26,78.37-9.94,79.38-12.79,4.12-20.95-2.57-20.95-2.57L102.4,99.83C90.46,95,81.47,83.32,77.86,68.69a60.62,60.62,0,0,1-1.74-16.34c0-.21,0-.43,0-.65,0-1,.09-1.93.17-2.89s.16-1.75.27-2.63q.34-2.86.94-5.62C82.85,15.39,102.41-2.3,123.2.24s35.56,24.51,34.61,50.29C157.75,52.36,157.6,54.2,157.37,56.07Z"/><path class="cls-2" d="M123.59,101c-.69,6-1.66,14.41-2.77,23.88l-21-4,2.58-21.06C86.1,93.24,75.31,73.88,76.13,51.7c10.69,10.15,33.22,20.67,79.71,12.53C151.08,82.84,138.48,96.94,123.59,101Z"/><path class="cls-3" d="M157.11,57.93c-.23,1.56-.52,3.11-.87,4.62-.12.57-.26,1.12-.4,1.68a60.93,60.93,0,0,1-4.94,13,122.17,122.17,0,0,1-37.78,1.05,122.81,122.81,0,0,1-35.26-9.6,60.62,60.62,0,0,1-1.74-16.34c0-.21,0-.43,0-.65,0-1,.09-1.93.17-2.89A120.79,120.79,0,0,0,114.85,60,119.14,119.14,0,0,0,157.11,57.93Z"/><path class="cls-4" d="M157.81,50.53c-.06,1.83-.21,3.67-.44,5.54-.07.62-.16,1.24-.26,1.86-.23,1.56-.52,3.11-.87,4.62a181,181,0,0,1-39.76-.71,179.05,179.05,0,0,1-40.36-9.49c0-.21,0-.43,0-.65,0-1,.09-1.93.17-2.89s.16-1.75.27-2.63q.34-2.86.94-5.62a179.26,179.26,0,0,0,39.92,9.34A180.25,180.25,0,0,0,157.81,50.53Z"/><path class="cls-5" d="M81.24,50.16c.09.63.17,1.24.24,1.87.19,1.57.32,3.14.37,4.69,0,.58.05,1.15.06,1.72a60.86,60.86,0,0,1-1.33,13.85c-2.86,13.25-10.1,24.25-20.07,30.15.92,6,2.2,14.35,3.63,23.77,5,32.72,11.75,78,11.37,79.19-11.26,7.36-20.89,3.06-20.89,3.06L39.76,106.89C27,105.37,15.21,96.48,7.87,83.32a60.65,60.65,0,0,1-6-15.3c-.06-.2-.11-.42-.16-.63-.22-.94-.43-1.88-.6-2.84S.81,62.83.68,62Q.26,59.1.11,56.28C-1.38,30.6,12.81,8.37,33.54,5.34S74.31,19.6,80.19,44.71C80.62,46.49,81,48.3,81.24,50.16Z"/><path class="cls-6" d="M60.51,102.44c.92,6,2.2,14.35,3.63,23.77l-21.31,1.66-3.07-21c-17.46-2.07-33-17.89-38-39.5,13,7,37.49,11.18,80.19-9C82.23,77.65,73.8,94.58,60.51,102.44Z"/><path class="cls-7" d="M81.48,52c.19,1.57.32,3.14.37,4.69,0,.58.05,1.15.06,1.72a60.86,60.86,0,0,1-1.33,13.85,121.73,121.73,0,0,1-36.17,11,122.54,122.54,0,0,1-36.54,0,60.65,60.65,0,0,1-6-15.3c-.06-.2-.11-.42-.16-.63-.22-.94-.43-1.88-.6-2.84a120.33,120.33,0,0,0,40.12.59A119.18,119.18,0,0,0,81.48,52Z"/><path class="cls-8" d="M80.19,44.71c.43,1.78.77,3.59,1,5.45.09.63.17,1.24.24,1.87.19,1.57.32,3.14.37,4.69a182.05,182.05,0,0,1-38.54,9.81A179.29,179.29,0,0,1,1.88,68c-.06-.2-.11-.42-.16-.63-.22-.94-.43-1.88-.6-2.84S.81,62.83.68,62Q.26,59.1.11,56.28a179.86,179.86,0,0,0,41-1.52A180.49,180.49,0,0,0,80.19,44.71Z"/></g></g></svg>