<svg xmlns="http://www.w3.org/2000/svg" viewBox="0 0 210.85 79.67"><defs><style>.cls-1{fill:#c0a54c;}.cls-2{fill:#ad9347;}.cls-3{fill:#9e8443;}.cls-4{fill:#7f5747;}.cls-5{fill:#9b6246;}.cls-6{fill:#edc96e;}.cls-7{fill:#719b0a;}.cls-8{fill:#e51717;}.cls-9{fill:#95bf11;}.cls-10{fill:#f9d56e;}</style></defs><title>mexico-food</title><g id="Calque_2" data-name="Calque 2"><g id="FOOD"><ellipse class="cls-1" cx="105.38" cy="52.18" rx="105.38" ry="27.49"/><ellipse class="cls-2" cx="105.47" cy="48.58" rx="105.38" ry="27.49"/><ellipse class="cls-3" cx="110.79" cy="46" rx="43.01" ry="8.32"/><path class="cls-4" d="M133.3,41.67c-3.73,2.28-12.61,3.88-23,3.88s-19.24-1.6-23-3.88c-1.21.74-1.88,1.55-1.88,2.39,0,3.46,11.12,6.26,24.84,6.26s24.84-2.8,24.84-6.26C135.17,43.22,134.5,42.41,133.3,41.67Z"/><path class="cls-5" d="M153.44,26.62c-6.92,5.09-23.41,8.68-42.65,8.68s-35.73-3.59-42.65-8.68c-2.24,1.65-3.48,3.46-3.48,5.35,0,7.75,20.65,14,46.13,14s46.13-6.28,46.13-14C156.92,30.08,155.68,28.27,153.44,26.62Z"/><path class="cls-6" d="M134.58,26c.34,7.89-14.92,14.29-33.31,14.29S67.37,33.92,68,26C68.23,22.28,134.42,22.46,134.58,26Z"/><path class="cls-7" d="M71.1,22.53s-4.49,1-5.3,2.07-.54,2.59-1.9,3.32,1.9,4,4.2,3,4.06.83,4.06,2.8,5.82,3.11,6.09,1.86,5.42-3.52,5.42-2,1.52,5.9,3.56,2.27,6.74-3,7.56-.63,5.61,4.57,6.42,1.26,6.11-2.2,7.06-.13,6.4,2.11,8.3-.69,7.44-4.46,8.12-2.7,6.77,1.76,6.77-1.24,1.9-4.26,3.93-4,3.39-8.66-.53-6.79-3.43.46-8.57.25-14.46,4.47-25,4.57S71.1,22.53,71.1,22.53Z"/><ellipse class="cls-8" cx="80.81" cy="28.72" rx="6.17" ry="5.52"/><ellipse class="cls-8" cx="102.18" cy="30.62" rx="6.17" ry="5.52"/><path class="cls-9" d="M132.14,20.64s4.49,1,5.3,2.07S138,25.3,139.33,26s-1.89,4-4.19,3-4.06.83-4.06,2.8S125.25,35,125,33.7s-5.41-3.53-5.41-2S118,37.62,116,34s-6.75-3-7.56-.63-5.62,4.58-6.43,1.26-6.11-2.2-7-.12-6.41,2.1-8.3-.7-7.45-4.45-8.13-2.69-6.76,1.76-6.76-1.25-1.9-4.25-3.93-3.94-3.4-8.66.53-6.8,3.42.46,8.57.26S91.41,23.85,102,24,132.14,20.64,132.14,20.64Z"/><path class="cls-10" d="M134.58,19c.34,7.89-14.92,14.29-33.31,14.29S67.37,26.88,68,19C68.23,15.23,134.42,15.41,134.58,19Z"/><path class="cls-6" d="M150.28,30.2c-2.68,8.66-19.51,10.54-36.87,4.44s-29.54-18.17-26-26.53C89.12,4.13,151.5,26.27,150.28,30.2Z"/><path class="cls-7" d="M91.73,5.35S87.1,5,85.94,5.84s-1.5,2.63-3,3,.25,5,2.81,4.65,3.52,2.24,2.77,4.38,4.31,5.3,5,4,6.46-2,5.86-.34-.8,6.9,2.5,3.64,7.51-1,7.37,1.82,3.56,6.82,5.59,3.49,6.6-.35,6.7,2.21,5.24,4.4,8.09,2,8.73-2.37,8.7-.23,5.71,4.15,6.86.89,3.4-4,5.2-3,6.51-8.26,2.09-7.54-3.41-.64-8.18-2.57-15.35.06-25.35-3.33S91.73,5.35,91.73,5.35Z"/><ellipse class="cls-8" cx="98.53" cy="15.28" rx="6.34" ry="6.17" transform="translate(51.45 103.18) rotate(-70.64)"/><ellipse class="cls-8" cx="117.97" cy="24.43" rx="6.34" ry="6.17" transform="translate(55.82 127.63) rotate(-70.64)"/><path class="cls-9" d="M150,23.54s3.84,2.61,4.21,4-.48,3,.53,4.22-3.33,3.76-5.11,1.87-4.15-.45-4.9,1.69-6.67,1.44-6.46,0-3.76-5.61-4.36-3.93-3.68,5.88-4.21,1.28-5.22-5.51-6.9-3.19-7,3.1-6.54-.77-4.93-4.41-6.61-2.47-6.84.16-7.56-3.51-5.33-7.3-6.64-5.61-7.06-.33-5.92-3.59S89.41,8.29,87.37,8s.09-10.52,3.09-7.2,3.05,1.64,8,3.12,11.94,9.64,21.86,13.25S150,23.54,150,23.54Z"/><path class="cls-10" d="M153,22.56C150.28,31.22,133.45,33.1,116.1,27S86.56,8.83,90.11.48C91.8-3.5,154.18,18.63,153,22.56Z"/></g></g></svg>