<svg xmlns="http://www.w3.org/2000/svg" viewBox="0 0 118.35 360.54"><defs><style>.cls-1{fill:#a33b3b;}.cls-2{fill:#ba783c;}.cls-3{fill:#8e592e;}.cls-4{fill:#3d1c04;}.cls-5{fill:#fff9f5;}.cls-6{fill:#c4360a;}.cls-7{fill:#ffd217;}.cls-8{fill:#eac31c;}.cls-9{fill:#8dd600;}</style></defs><title>mexico-child</title><g id="Calque_2" data-name="Calque 2"><g id="CHILD"><path class="cls-1" d="M117.78,354.64l-.23.25-.13.11L71.72,351l1.45.15a25.35,25.35,0,0,1-2,1.7l-.68.49a34.17,34.17,0,0,1-3,1.86c-.28.16-.58.32-.88.47a42,42,0,0,1-4.07,1.87l-1.18.45a45.24,45.24,0,0,1-5.84,1.71c-.65.14-1.31.27-2,.38h0a31.06,31.06,0,0,1-7.95.4,13.16,13.16,0,0,1-5.59-1.6,7.5,7.5,0,0,1-.77-.54l-.11-.09a4.66,4.66,0,0,1-1.52-2.36,3.78,3.78,0,0,1-.1-.57,5.19,5.19,0,0,1,.26-2.2l.19-.54a10,10,0,0,1,1.15-2c.13-.17.26-.35.4-.52a17.34,17.34,0,0,1,1.63-1.76L.6,344.65a.48.48,0,0,1,.09-.11l.27-.25c.18-.14.38-.28.59-.42l.42-1.5c-1.24-.14-2.07-.51-2-.92s1.64-.88,3.35-.84,3,.49,2.84,1-1,.7-2.25.8l-.1.33a28,28,0,0,1,6.44-1.45,39.16,39.16,0,0,1,6.15-.2c.46,0,.91.06,1.36.1l.73.08,3.41.3h0l9,.8h0l3.06.27v0l9,.8-.06,0,.92.08a5.29,5.29,0,0,1,.92-2.46,4.71,4.71,0,0,1,1.67-.71h0c1.94-1.51,6.41-2.78,12.1-3.58h0c.71-.05,1.7-.1,2.7-.14,0-.51-.07-1.54-.09-2.31H60.8v-1.12l-3.48-.08c-4.17.08-14.86-.41-16.48-1.15a16.27,16.27,0,0,1-2.81-3.2q-.48-.62-1-1.32c-.26-.35-.54-.72-.81-1.1l0,0-.55-.76c-.12-.15-.23-.31-.35-.47L34.52,324l-1-1.32c-1.45-2-2.88-4.12-4.08-5.86l-.69-1c-.21-.32-.42-.62-.61-.9l-.87-1.26-.23-.34-.34-.5c-.15-.23-.24-.37-.26-.39h0l.8-.15-.07-.9c-.74-.06-1.29-.26-1.31-.49s.76-.53,1.75-.54,1.8.22,1.82.51-.45.42-1.12.5l0,.72,5.32-1-.06-.71c-.73-.06-1.29-.25-1.3-.49s.75-.53,1.74-.54,1.8.22,1.82.52-.45.41-1.12.49l0,.52,2.89-.53a2.48,2.48,0,0,1-.44-1.14c-.11-1.32,5.77-2.59,6.72-2.61s1.19.35.66.4-2.31.79-2,.77a1,1,0,0,1,.65.27s-.45.42.1,1.25l4.22-.78-.06-.72c-.73-.06-1.28-.25-1.3-.49s.76-.53,1.74-.54h.17V286.89H46.74V280c-1-.28-1.59-.62-1.59-1,0-1,3.7-.87,9.1-.87s10.44-.13,10.44.87c0,.41-.74.79-2,1.09v6.78H61.22V304.3a3.64,3.64,0,0,1,.48,0c1,0,1.81.22,1.83.51s-.45.42-1.13.5l0,.46,2-.36h0v0h0l2,.36,0-.46c-.67-.08-1.14-.27-1.13-.5s.84-.52,1.82-.51a4.46,4.46,0,0,1,1.19.14V286.89H67V280c-1-.28-1.59-.62-1.59-1,0-1,3.7-.87,9.1-.87S85,278,85,279c0,.41-.74.79-2,1.09v6.78H81.72v19.92c.48.1.79.26.78.44s-.32.33-.78.42v.9l3.83.7c.56-.84.11-1.26.11-1.26a1,1,0,0,1,.65-.27c.35,0-1.44-.72-2-.77s-.29-.42.66-.4,6.83,1.29,6.72,2.61a2.56,2.56,0,0,1-.44,1.15l2.72.5,0-.52c-.68-.08-1.15-.28-1.13-.5s.83-.52,1.82-.52,1.76.25,1.74.54-.56.43-1.3.49l-.05.71,5.33,1,.05-.71c-.67-.08-1.15-.27-1.13-.5s.83-.52,1.82-.51,1.77.24,1.75.53-.57.43-1.31.5l-.06.9.8.15h0v0l-.58.87-1.08,1.6-1.28,1.89c-1.18,1.74-2.59,3.81-4,5.86l-.93,1.32-.78,1.11-.34.48-.55.75s0,0,0,0l-.8,1.1c-.33.46-.66.9-1,1.32a16.64,16.64,0,0,1-2.77,3.2c-1.57.72-11.69,1.21-16.1,1.17l-3.68.09a.21.21,0,0,0,0-.06l0,0v1.14h-.06v1.61h0l0,.46a.25.25,0,0,1-.06.16h0c1.12.06,2.21.14,3.3.21h0c6,.85,10.7,2.23,12.43,3.86h0a5.78,5.78,0,0,1,1.65.67c.89,1.22.94,2.92-.56,5.85l6.06.54-.06,0,3.06.27h0l9,.8h0l3.06.27h0l2.5.22.77.05a23.61,23.61,0,0,1,4.68.84C117.77,351.17,119.27,352.9,117.78,354.64ZM61.27,305.3h-.05V306l.1,0Zm6.26,0,0,.65.79.14v-.93A4.44,4.44,0,0,1,67.53,305.3ZM45.47,341.7l0-.08Zm.19-.46,0-.05Zm.34-.46,0,0Zm38.77,1a1.41,1.41,0,0,1,0,.41A1.41,1.41,0,0,0,84.77,341.75ZM84.4,341Zm.24.38,0,.08Z"/><path class="cls-2" d="M68.34,92.4c0,2.11,3.75,4.87,2.41,4.85L64.81,108,60.44,97.25c-1.33,0,.73-2.86.74-5,0,0,.09-11.81.15-12.14.22-1.21.83-.08,1.59-.46a1.55,1.55,0,0,1,.76-.18h.6l1.73,0c1,0,2.33,1.88,2.33,1.88Z"/><path class="cls-3" d="M68.4,82l0,1.58c-2.32.41-5.1.23-7-2.32a5.5,5.5,0,0,1-.77-1.38s1-.11,2.34-.23l1.35-.11h0l1.73,0A2.42,2.42,0,0,1,68.4,82Z"/><path class="cls-4" d="M84.79,43.21c-1.86-11.33-11.92-9.82-19.68-9.72s-16.88,5.57-19.68,7.93S44,63.61,44.83,66.15a5.92,5.92,0,0,0,1.67,2.38,15.82,15.82,0,0,1-1.06-6.2c.43-12,5.28-24.59,17.19-25.49a53.3,53.3,0,0,1,6.82.24C80,39.08,84.38,51,84.78,62.33a15.66,15.66,0,0,1-.72,5.25c.62-.78,1.48-1.44,1.65-2.25C86.66,60.87,86.66,54.54,84.79,43.21Z"/><path class="cls-2" d="M84.78,62.33C84.38,51,80,39.08,69.45,37.08a53.3,53.3,0,0,0-6.82-.24c-11.91.9-16.76,13.48-17.19,25.49-.27,7.81,5.3,14.58,13.16,18.34h0c2.06.48,6.46,1,6.46,1h.1a27.79,27.79,0,0,0,6.47-1h0C79.48,76.91,85.06,70.14,84.78,62.33Z"/><path class="cls-5" d="M59.61,65.89c-.16.61-3.76,1.5-6.52.93-3-.62-4.59-2-4-4.09s3.5-3.14,6.39-2.27S60.16,63.74,59.61,65.89Z"/><circle cx="54.06" cy="63.51" r="2.64"/><path d="M49.45,63.63c.64-2.13,3.5-3.15,6.4-2.28a6.28,6.28,0,0,1,3.74,2.85,5.79,5.79,0,0,0-4.09-3.72c-2.89-.87-5.76.15-6.39,2.27a3.32,3.32,0,0,0,.33,2.58A3.07,3.07,0,0,1,49.45,63.63Z"/><path class="cls-5" d="M68.64,65.68c.18.61,3.78,1.4,6.52.76,2.92-.69,4.51-2.08,3.81-4.19s-3.57-3-6.43-2.1S68,63.55,68.64,65.68Z"/><ellipse cx="74.1" cy="63.16" rx="2.62" ry="2.64" transform="translate(-15.91 26.03) rotate(-18.03)"/><path d="M78.68,63.15c-.69-2.1-3.57-3-6.43-2.1a6.19,6.19,0,0,0-3.64,3,5.76,5.76,0,0,1,4-3.83c2.85-1,5.73,0,6.42,2.1a3.34,3.34,0,0,1-.25,2.58A3.07,3.07,0,0,0,78.68,63.15Z"/><path class="cls-4" d="M59.71,56.88s-.91-2.36-2.33-2.34a66.39,66.39,0,0,0-7.5.74,7.1,7.1,0,0,0-3,2.18C47.25,57.19,59.37,57,59.71,56.88Z"/><path class="cls-4" d="M68.51,56.88s.91-2.36,2.33-2.34a66.8,66.8,0,0,1,7.51.74,7.05,7.05,0,0,1,3,2.18C81,57.19,68.86,57,68.51,56.88Z"/><path class="cls-3" d="M64.05,71.55a6.59,6.59,0,0,1,2,0c.5.19-1.15.68-1.15.68S63.22,71.75,64.05,71.55Z"/><path d="M70.75,75.59a7.48,7.48,0,0,1-1.57.6,16.84,16.84,0,0,1-4,.54,13.87,13.87,0,0,1-4-.46A7.19,7.19,0,0,1,60,75.83a3.15,3.15,0,0,1-.39-.24,7.06,7.06,0,0,0,1.61.34,29.63,29.63,0,0,0,4,.11c1.55,0,2.95-.08,4-.19A14.68,14.68,0,0,0,70.75,75.59Z"/><path class="cls-2" d="M44.16,165.06a42.43,42.43,0,0,1-.59,8.32,9.71,9.71,0,0,0-.21,4.79s-.3,1-.65.92,1.44,2.44,2,2.61S45,183.12,44,183s-6.83-4.35-6.72-8.83,1.54-7.5,1.45-8.67S44.16,165.06,44.16,165.06Z"/><path class="cls-2" d="M84.86,165.06a42.43,42.43,0,0,0,.59,8.32,9.71,9.71,0,0,1,.21,4.79s.3,1,.65.92-1.44,2.44-2,2.61-.29,1.42.66,1.34,6.83-4.35,6.72-8.83-1.54-7.5-1.45-8.67S84.86,165.06,84.86,165.06Z"/><path class="cls-6" d="M83.38,174.13c.54-36.66,1.93-76-1.91-79.27-1.66-1.42-13-2.09-13-2.09s0,.3,0,.75V89H60.8v3.79c-1.87.11-11.79.78-13.28,2.07-3.82,3.27-2.48,41.39-1.93,79.27Z"/><path class="cls-6" d="M51.31,93.76S39,94.46,38.78,108s-2.58,55.83-2.58,55.83l8.75.93.74-54Z"/><path class="cls-6" d="M77.67,93.76S90,94.46,90.21,108s2.57,55.83,2.57,55.83l-8.74.93-.75-54Z"/><rect class="cls-6" x="48.23" y="163.04" width="12.99" height="113.46"/><rect class="cls-6" x="68.27" y="163.04" width="13.46" height="113.46"/><rect class="cls-7" x="46.74" y="249.81" width="15.97" height="26.68"/><path class="cls-8" d="M64.69,276.49c0,3.39-5,3-10.44,3s-9.1.42-9.1-3,4.38-6.13,9.77-6.13S64.69,273.1,64.69,276.49Z"/><rect class="cls-7" x="67.01" y="249.81" width="15.97" height="26.68"/><path class="cls-8" d="M85,276.49c0,3.39-5,3-10.44,3s-9.1.42-9.1-3,4.38-6.13,9.77-6.13S85,273.1,85,276.49Z"/><path class="cls-6" d="M73.17,32c-11.77,4-17.74,5.89-31.92,10.1C40.57,40,40,37.84,39.5,35.75c-.14-.59-.27-1.18-.4-1.77q-.75-3.51-1.15-6.83l-.19-1.83a58.14,58.14,0,0,1-.26-7.47c0-.65,0-1.29.1-1.92a32.61,32.61,0,0,1,1.52-8A21.58,21.58,0,0,1,40,5.78C41.35,3,43.22,1.1,45.59.35s5.16-.24,7.95,1.36a22.13,22.13,0,0,1,2,1.3A33.46,33.46,0,0,1,61.34,8.8c.4.5.79,1,1.18,1.54a57.39,57.39,0,0,1,4.07,6.32c.3.53.6,1.07.88,1.62,1,2,2,4.08,3,6.29.23.55.46,1.11.68,1.68C71.86,28.11,72.54,30,73.17,32Z"/><path class="cls-6" d="M117.55,19.16c.08.28.16.56.23.84,1.49,5.91,0,11.77-3.54,15.28a11,11,0,0,1-4.68,2.82c-.25.08-.51.12-.77.18L18.53,65.4c-.24.09-.48.19-.73.27a10.69,10.69,0,0,1-1.36.31,11.57,11.57,0,0,1-6.15-.68A16.69,16.69,0,0,1,1,55.1l-.27-.83c0-.13-.06-.26-.09-.39L117.42,18.79C117.46,18.91,117.51,19,117.55,19.16Z"/><polygon class="cls-7" points="67.16 50.87 58.12 53.59 59.78 43.23 67.16 50.87"/><path class="cls-7" d="M18.9,65.25,16.44,66a11.57,11.57,0,0,1-6.15-.68l1.23-7.7Z"/><polygon class="cls-7" points="30.98 61.68 21.94 64.39 23.6 54.04 30.98 61.68"/><polygon class="cls-7" points="43.05 58.11 34.01 60.83 35.67 50.47 43.05 58.11"/><polygon class="cls-7" points="55.09 54.44 46.05 57.15 47.71 46.8 55.09 54.44"/><polygon class="cls-7" points="67.07 50.77 58.03 53.49 59.69 43.13 67.07 50.77"/><polygon class="cls-7" points="79.14 47.21 70.1 49.92 71.76 39.57 79.14 47.21"/><polygon class="cls-7" points="91.21 43.64 82.17 46.36 83.83 36 91.21 43.64"/><polygon class="cls-7" points="103.25 39.97 94.21 42.68 95.87 32.33 103.25 39.97"/><path class="cls-7" d="M114.24,35.28a11,11,0,0,1-4.68,2.82c-.25.08-.51.12-.77.18l-2.5.75L108,28.76Z"/><path class="cls-7" d="M117.55,19.16c.08.28.16.56.23.84L1,55.1l-.27-.83c0-.13-.06-.26-.09-.39L117.42,18.79C117.46,18.91,117.51,19,117.55,19.16Z"/><path class="cls-7" d="M70.44,24.57,39.1,34c.13.59.26,1.18.4,1.77l31.62-9.5Z"/><polygon class="cls-7" points="66.59 16.66 37.76 25.32 37.95 27.15 67.47 18.28 66.59 16.66"/><polygon class="cls-7" points="61.34 8.8 37.6 15.93 37.5 17.85 62.52 10.34 61.34 8.8"/><path class="cls-7" d="M53.54,1.71,40,5.78a21.58,21.58,0,0,0-.88,2.16L55.5,3Z"/><path class="cls-9" d="M4,61.51l-.6-7.27-2,.16L2,61.61a3.1,3.1,0,1,0,2-.1Z"/><path class="cls-9" d="M17.56,57.42,17,50.15l-2,.16.6,7.21a3.1,3.1,0,1,0,2-.1Z"/><path class="cls-9" d="M31.16,53.33l-.6-7.27-2,.16.6,7.22a3.09,3.09,0,1,0,2-.11Z"/><path class="cls-9" d="M44.77,49.24,44.17,42l-2,.17.59,7.21a3.1,3.1,0,1,0,2-.11Z"/><path class="cls-9" d="M58.42,45.29,57.82,38l-2,.16.59,7.21a3.11,3.11,0,1,0,2-.1Z"/><path class="cls-9" d="M72,41.2l-.6-7.27-2,.16.6,7.22a3.09,3.09,0,1,0,2-.11Z"/><path class="cls-9" d="M85.47,36.88l-.6-7.27-2,.16L83.49,37a3.11,3.11,0,1,0,2-.1Z"/><path class="cls-9" d="M99,32.68l-.6-7.27-2,.17.6,7.21a3.09,3.09,0,1,0,2-.11Z"/><path class="cls-9" d="M112.58,28.55l-.6-7.27-2,.17.6,7.21a3.09,3.09,0,1,0,2-.11Z"/><path class="cls-7" d="M64.62,98.69,64.56,124l0,5v18.33l-.06,23,0,7.21,0,6.09v3.45L26.48,163.27v0c0-.14.24-1.24.6-3,.29-1.41.66-3.25,1.1-5.41.39-1.91.82-4.08,1.3-6.42,1.2-5.9,2.63-12.92,4.08-19.86.32-1.5.63-3,1-4.49.26-1.26.53-2.51.79-3.75.12-.54.23-1.08.35-1.62.19-.86.37-1.71.55-2.55a.24.24,0,0,1,0-.09c.27-1.29.55-2.54.81-3.74.34-1.57.67-3.06,1-4.46,1.36-6,2.41-10.23,2.81-10.86,1.67-2.6,13-4.26,16.84-3.89C57.68,97.69,60.93,98.69,64.62,98.69Z"/><path class="cls-6" d="M64.5,147.36,33.57,128.52c.32-1.5.63-3,1-4.49.26-1.26.53-2.51.79-3.75.12-.54.23-1.08.35-1.62.19-.86.37-1.71.55-2.55a.24.24,0,0,1,0-.09c.27-1.29.55-2.54.81-3.74.34-1.57.67-3.06,1-4.46L64.56,124Z"/><path class="cls-7" d="M64.51,142.3,34.52,124c.26-1.26.53-2.51.79-3.75.12-.54.23-1.08.35-1.62.19-.86.37-1.71.55-2.55a.24.24,0,0,1,0-.09c.27-1.29.55-2.54.81-3.74L64.54,129Z"/><path class="cls-9" d="M64.52,138.08l-29.21-17.8c.12-.54.23-1.08.35-1.62.19-.86.37-1.71.55-2.55a.24.24,0,0,1,0-.09l.06,0h0l1.77,1.07,0,0,1.76,1.08,0,0,1.74,1,0,0,1.75,1.07,0,0,1.72,1,0,0L47,122.55l0,0,1.74,1.06,0,0,1.74,1.06h0l1.74,1.07h0l1.76,1.08,0,0L55.83,128h0l1.77,1.08h0l1.74,1.07h0l1.76,1.07,0,0,1.74,1.06,0,0,1.56.95.19.12,0,0Z"/><path class="cls-6" d="M36.29,116.05h0l-.16,2.31-.47.29c.19-.86.37-1.71.55-2.55l.08-.06Z"/><polygon class="cls-6" points="37.93 119.43 38.09 117.12 36.16 118.36 36.16 118.36 35.95 120.65 37.93 119.44 37.93 119.43"/><polygon class="cls-6" points="39.71 120.52 39.88 118.2 37.95 119.45 37.95 119.45 37.73 121.74 39.72 120.52 39.71 120.52"/><polygon class="cls-6" points="41.48 121.6 41.65 119.28 39.72 120.53 39.72 120.53 39.5 122.81 41.48 121.6 41.48 121.6"/><polygon class="cls-6" points="43.27 122.69 43.44 120.37 41.51 121.61 41.51 121.62 41.29 123.9 43.27 122.69 43.27 122.69"/><polygon class="cls-6" points="45.03 123.76 45.19 121.44 43.26 122.68 43.26 122.69 43.05 124.97 45.03 123.76 45.03 123.76"/><polygon class="cls-6" points="46.81 124.85 46.98 122.53 45.05 123.77 45.05 123.78 44.83 126.06 46.82 124.85 46.81 124.85"/><polygon class="cls-6" points="48.58 125.92 48.75 123.61 46.82 124.85 46.82 124.85 46.6 127.14 48.59 125.93 48.58 125.92"/><polygon class="cls-6" points="50.36 127.01 50.53 124.69 48.59 125.93 48.6 125.94 48.38 128.22 50.36 127.01 50.36 127.01"/><polygon class="cls-6" points="52.13 128.1 52.3 125.78 50.37 127.02 50.37 127.02 50.15 129.31 52.13 128.1 52.13 128.1"/><polygon class="cls-6" points="53.92 129.19 54.08 126.87 52.15 128.11 52.15 128.11 51.94 130.4 53.92 129.19 53.92 129.19"/><polygon class="cls-6" points="55.69 130.26 55.85 127.94 53.92 129.19 53.92 129.19 53.7 131.48 55.69 130.26 55.69 130.26"/><polygon class="cls-6" points="57.47 131.35 57.64 129.03 55.71 130.28 55.71 130.28 55.49 132.56 57.47 131.35 57.47 131.35"/><polygon class="cls-6" points="59.24 132.42 59.41 130.1 57.48 131.34 57.48 131.35 57.26 133.63 59.25 132.42 59.24 132.42"/><polygon class="cls-6" points="61.03 133.51 61.2 131.19 59.27 132.43 59.27 132.44 59.05 134.72 61.03 133.51 61.03 133.51"/><polygon class="cls-6" points="62.8 134.59 62.97 132.27 61.04 133.51 61.04 133.51 60.82 135.8 62.8 134.59 62.8 134.59"/><polygon class="cls-6" points="64.59 135.68 64.75 133.36 62.82 134.6 62.83 134.6 62.61 136.89 64.59 135.68 64.59 135.68"/><path class="cls-6" d="M64.39,187.05v-3.41l0-6.09,0-7.21-34.95-22c-.48,2.34-.91,4.51-1.3,6.42-.44,2.16-.81,4-1.1,5.41-.36,1.8-.57,2.9-.6,3v0l37.91,23.82Z"/><path class="cls-7" d="M64.42,177.55l0,6.09v3.41l-37.9-23.8c0-.14.24-1.24.6-3,.29-1.41.66-3.25,1.1-5.41Z"/><path class="cls-9" d="M64.39,187.05v-3.41L27.09,160.21c-.36,1.8-.57,2.9-.6,3v0l37.91,23.82Z"/><path class="cls-9" d="M28.35,166.9l.09-4.18-1.13,0-.1,4.15a1.78,1.78,0,1,0,1.14.06Z"/><path class="cls-9" d="M34.8,170.29l.09-4.19-1.13,0-.1,4.15a1.78,1.78,0,0,0,.44,3.49A1.78,1.78,0,0,0,35.92,172,1.76,1.76,0,0,0,34.8,170.29Z"/><path class="cls-9" d="M41.57,174.52l.09-4.19-1.13,0-.1,4.15a1.78,1.78,0,0,0,.44,3.49,1.78,1.78,0,0,0,.7-3.43Z"/><path class="cls-9" d="M48.76,179.07l.1-4.19-1.14,0L47.63,179a1.77,1.77,0,1,0,1.13.06Z"/><path class="cls-9" d="M55.74,183.08l.1-4.18-1.14,0L54.61,183a1.76,1.76,0,1,0,1.13.05Z"/><path class="cls-9" d="M62.4,187.42l.1-4.18-1.14,0-.09,4.15a1.79,1.79,0,1,0,1.13.06Z"/><path class="cls-7" d="M64.43,98.7v88.39l38-23.7v0c0-.15-.23-1.24-.59-3.05l-1.08-5.41c-.38-1.91-.81-4.08-1.28-6.42-1.18-5.91-2.59-12.93-4-19.87-.31-1.51-.62-3-.93-4.49-.26-1.27-.52-2.52-.78-3.76-.12-.54-.23-1.08-.34-1.62-.19-.87-.37-1.72-.55-2.55a.2.2,0,0,0,0-.09c-.27-1.29-.54-2.54-.8-3.74-.33-1.58-.66-3.07-1-4.47-1.34-6-2.37-10.24-2.77-10.87-1.66-2.6-13-4.3-16.84-3.93C71.37,97.72,68.12,98.71,64.43,98.7Z"/><path class="cls-6" d="M64.41,147.37l31-18.75c-.31-1.51-.62-3-.93-4.49-.26-1.27-.52-2.52-.78-3.76-.12-.54-.23-1.08-.34-1.62-.19-.87-.37-1.72-.55-2.55a.2.2,0,0,0,0-.09c-.27-1.29-.54-2.54-.8-3.74-.33-1.58-.66-3.07-1-4.47L64.42,124Z"/><path class="cls-7" d="M64.42,142.31l30-18.18c-.26-1.27-.52-2.52-.78-3.76-.12-.54-.23-1.08-.34-1.62-.19-.87-.37-1.72-.55-2.55a.2.2,0,0,0,0-.09c-.27-1.29-.54-2.54-.8-3.74L64.42,129Z"/><path class="cls-9" d="M64.42,138.09l29.26-17.72c-.12-.54-.23-1.08-.34-1.62-.19-.87-.37-1.72-.55-2.55a.2.2,0,0,0,0-.09l-.06,0h0l-1.77,1.07,0,0-1.76,1.06,0,0-1.75,1.06h0l-1.76,1.07,0,0-1.72,1,0,0L82,122.6l0,0-1.74,1.06,0,0-1.75,1.06h0l-1.75,1.06h0l-1.77,1.08h0L73.13,128l0,0-1.76,1.06,0,0-1.75,1.06h0l-1.76,1.07,0,0L66,132.3l0,0-1.57,1-.19.11,0,0Z"/><path class="cls-6" d="M92.71,116.14h0l.16,2.31.47.29c-.19-.87-.37-1.72-.55-2.55l-.08-.06Z"/><polygon class="cls-6" points="91.06 119.52 90.91 117.2 92.83 118.45 92.83 118.45 93.04 120.73 91.06 119.52 91.06 119.52"/><polygon class="cls-6" points="89.27 120.6 89.11 118.28 91.04 119.53 91.04 119.53 91.25 121.82 89.27 120.6 89.27 120.6"/><polygon class="cls-6" points="87.5 121.67 87.34 119.35 89.27 120.6 89.27 120.61 89.48 122.89 87.5 121.67 87.5 121.67"/><polygon class="cls-6" points="85.71 122.76 85.55 120.44 87.48 121.69 87.48 121.69 87.69 123.97 85.71 122.76 85.71 122.76"/><polygon class="cls-6" points="83.95 123.82 83.79 121.5 85.72 122.75 85.72 122.75 85.93 125.04 83.95 123.82 83.95 123.82"/><polygon class="cls-6" points="82.16 124.91 82 122.59 83.93 123.83 83.93 123.84 84.14 126.12 82.16 124.91 82.16 124.91"/><polygon class="cls-6" points="80.39 125.98 80.23 123.66 82.16 124.91 82.16 124.91 82.37 127.2 80.39 125.98 80.39 125.98"/><polygon class="cls-6" points="78.61 127.05 78.45 124.74 80.38 125.98 80.38 125.99 80.59 128.27 78.61 127.06 78.61 127.05"/><polygon class="cls-6" points="76.84 128.14 76.68 125.82 78.61 127.07 78.6 127.07 78.81 129.36 76.83 128.14 76.84 128.14"/><polygon class="cls-6" points="75.05 129.22 74.89 126.9 76.81 128.15 76.81 128.16 77.03 130.44 75.05 129.22 75.05 129.22"/><polygon class="cls-6" points="73.28 130.29 73.12 127.98 75.04 129.22 75.04 129.23 75.25 131.51 73.27 130.3 73.28 130.29"/><polygon class="cls-6" points="71.48 131.38 71.33 129.06 73.25 130.31 73.25 130.31 73.46 132.6 71.48 131.38 71.48 131.38"/><polygon class="cls-6" points="69.71 132.44 69.55 130.12 71.48 131.37 71.48 131.37 71.69 133.66 69.71 132.44 69.71 132.44"/><polygon class="cls-6" points="67.92 133.53 67.76 131.21 69.69 132.46 69.69 132.46 69.9 134.74 67.92 133.53 67.92 133.53"/><polygon class="cls-6" points="66.15 134.6 65.99 132.28 67.91 133.53 67.91 133.53 68.13 135.82 66.14 134.6 66.15 134.6"/><polygon class="cls-6" points="64.36 135.68 64.2 133.36 66.12 134.61 66.12 134.61 66.33 136.9 64.36 135.68 64.36 135.68"/><path class="cls-6" d="M64.41,187.09l38-23.7v0c0-.15-.23-1.24-.59-3.05l-1.08-5.41c-.38-1.91-.81-4.08-1.28-6.42l-35,21.85v16.75Z"/><path class="cls-7" d="M64.41,177.56v9.5l38-23.69c0-.15-.23-1.24-.59-3.05l-1.08-5.41Z"/><path class="cls-9" d="M64.41,187.09l38-23.7v0c0-.15-.23-1.24-.59-3.05L64.41,183.65v3.44Z"/><path class="cls-9" d="M100.51,167l-.09-4.18,1.14,0,.08,4.16a1.77,1.77,0,0,1,1.31,1.67,1.79,1.79,0,1,1-2.44-1.62Z"/><path class="cls-9" d="M94.05,170.38,94,166.19l1.14,0,.08,4.15a1.79,1.79,0,1,1-1.13.06Z"/><path class="cls-9" d="M87.27,174.59l-.09-4.19,1.14,0,.08,4.15a1.79,1.79,0,1,1-1.13.06Z"/><path class="cls-9" d="M80.06,179.12,80,174.93l1.13,0,.09,4.15a1.79,1.79,0,1,1-1.14.06Z"/><path class="cls-9" d="M73.07,183.12,73,178.93l1.14,0,.08,4.15a1.78,1.78,0,1,1-2.26,1.74A1.76,1.76,0,0,1,73.07,183.12Z"/><path class="cls-9" d="M66.39,187.43l-.08-4.18,1.13,0,.09,4.15a1.78,1.78,0,1,1-2.27,1.74A1.8,1.8,0,0,1,66.39,187.43Z"/></g></g></svg>