<svg xmlns="http://www.w3.org/2000/svg" viewBox="0 0 1000.22 640.21"><defs><style>.cls-1{fill:#e06565;}.cls-2{fill:#5e1b1b;}.cls-3{fill:#6b2222;}.cls-4{fill:#7f2a2a;}.cls-5{fill:#a33b3b;}</style></defs><title>mexico-background</title><g id="Calque_2" data-name="Calque 2"><g id="BACKGROUND"><rect class="cls-1" y="340.24" width="1000.22" height="299.97"/><path class="cls-2" d="M905.61,224.52c-2.22-1.27-4.45-2.52-6.7-3.73,1.71-18.43,5.51-40.59,5-43.56-.83-5.07-30.72,0-31.55-1.69-2.71-5.52-3.32-47-3.32-48.66s-20.76-1.35-26.58,0-2.49,26.69-1.66,37.17c1.35,17-38.52,5.66-38.52,5.66,0-42.46,4.65-81.76-5.19-83.17-6.75-1-26-1.72-37.62-.85-6.13.45,3.07,43.94-4.45,58.08-1.67,3.15-12.89,2.8-17.52,2.53-21-1.24-6.41,18.61-15.11,30.37-8.48.15-160.88-39.66-249.88-37.87-62,1.25-55.66,49.84-160.2,61.8-31.22,3.57-56.12,6.9-76.26,10-1.35-36.19-4.69-75.73-12.79-75.71-10,0-21.65,4.2-23.71-1.64-6-17.07,3.94-46.33-10.18-44.52-3.09.4-10.57.91-11.69-3.68-5-20.57,1.12-83.85-3-84.52C167-.71,154.15.4,149.64,1.8c-6.56,2-3.46,59.24-3.46,121,0,0-26.59,16.45-25.69-8.25.55-15.24,2.77-52.12-1.11-54.09s-17.72-2.46-17.72,0-.41,62.79-2.22,70.81c-.55,2.46-20.49-4.91-21,2.46s7.2,95.89,2.22,100.32-7.2-6.39-18.28-2c-8.55,3.42-7.46,30.29-6.52,42.35C23.23,302.46.08,340.14.08,340.14L1000,343.22S975.28,264.55,905.61,224.52Z"/><path class="cls-3" d="M601.52,297.14c-95.23-6.83-65-68.43-121.49-69.14-90.28-1.14-162.62,32-205.29,22.79-73.41-15.86-108.51,28.14-172,51s-101.49,38-101.49,38l785.59,2.41S765.27,308.9,601.52,297.14Z"/><path class="cls-4" d="M860.75,298.11c-71.54-6.84-48.86-68.43-91.27-69.15-67.83-1.14-122.18,32-154.24,22.8-55.15-15.86-81.52,28.13-129.2,51s-76.25,38-76.25,38L1000,343.22S983.78,309.87,860.75,298.11Z"/><path class="cls-5" d="M162,193.1c-4.12,0-7.47,6.28-7.47,14,0,4.29,2.12,39.69,1.64,44.36-.4,3.91-7.73,5.41-12.83,3.61,1-46.6,1.93-93.15,1.93-95.32a14,14,0,0,0-28.05,0c0,1.93.67,44.25,1.74,88.89-5.38-1.31-11.63-7.63-11.76-13.69-.18-8,2.5-40.07,2.5-44.36,0-7.74-5.1-14-11.4-14s-11.39,6.28-11.39,14c0,3.87,4.48,52.08,4.84,55.33,1.44,13.08,17.65,14.15,27.48,13.58,1,41.34,2.4,82.05,3.85,92.16,3.14,21.94,18.17,7.39,18.3-1.19.05-3.85.85-42,1.7-83.14,8.1.91,21.62,1.45,23.22-4.9,2.3-9.13,3.17-51.46,3.17-55.33C169.47,199.38,166.13,193.1,162,193.1Z"/><path class="cls-5" d="M609.28,361.74c3.14,14.95,18.17,5,18.29-.81.06-2.62.85-28.6,1.71-56.65,8.1.63,21.62,1,23.22-3.33,2.3-6.23,3.17-35.07,3.17-37.71,0-5.27-3.34-9.55-7.47-9.55s-7.47,4.28-7.47,9.55c0,2.92,2.12,27.05,1.64,30.23-.4,2.67-7.73,3.68-12.84,2.46,1-31.75,1.94-63.47,1.94-65,0-5.27-6.28-9.55-14-9.55s-14,4.28-14,9.55C603.42,232.3,607.83,354.85,609.28,361.74Z"/><path class="cls-5" d="M264.65,262.81c3.62,0,6.57,4.28,6.57,9.56,0,2.92-1.87,27-1.45,30.22.36,2.67,6.8,3.69,11.3,2.46-.86-31.75-1.7-63.47-1.7-64.94,0-5.28,5.52-9.56,12.33-9.56S304,234.83,304,240.11c0,1.31-.6,30.14-1.54,60.56,4.74-.89,10.23-5.2,10.35-9.32.16-5.48-2.2-27.31-2.2-30.23a10,10,0,0,1,20.05,0c0,2.64-3.95,35.49-4.26,37.7-1.26,8.91-15.52,9.64-24.17,9.25-.92,28.17-2.11,55.91-3.38,62.79-2.77,14.95-16,5-16.1-.8-.05-2.63-.75-28.61-1.5-56.66-7.12.63-19,1-20.42-3.33-2-6.22-2.79-35.06-2.79-37.7C258.08,267.09,261,262.81,264.65,262.81Z"/><path class="cls-5" d="M840.86,249.51c3.62,0,6.57,4.28,6.57,9.56,0,2.92-1.87,27-1.45,30.22.36,2.67,6.8,3.69,11.3,2.46-.86-31.75-1.7-63.47-1.7-64.94,0-5.28,5.52-9.56,12.33-9.56s12.34,4.28,12.34,9.56c0,1.31-.6,30.14-1.54,60.56,4.74-.89,10.23-5.2,10.35-9.32.16-5.48-2.2-27.31-2.2-30.23a10,10,0,0,1,20,0c0,2.64-3.95,35.49-4.26,37.7-1.26,8.91-15.52,9.64-24.17,9.25-.92,28.17-2.11,55.91-3.38,62.79-2.77,14.95-16,5-16.1-.8,0-2.63-.75-28.61-1.5-56.66-7.12.63-19,1-20.42-3.33-2-6.22-2.79-35.06-2.79-37.7C834.29,253.79,837.23,249.51,840.86,249.51Z"/><path class="cls-5" d="M2.09,337.85c.54,29.33,223.74,53.1,499,53.1s498.45-23.77,499-53.1Z"/><path class="cls-1" d="M740,229.37c3,0,5.45,5.24,5.45,11.72,0,3.58-1.55,33.16-1.2,37.06.29,3.27,5.64,4.52,9.37,3-.71-38.94-1.41-77.83-1.41-79.65,0-6.47,4.58-11.71,10.23-11.71s10.23,5.24,10.23,11.71c0,1.62-.5,37-1.27,74.27,3.92-1.09,8.48-6.37,8.58-11.43.13-6.72-1.83-33.48-1.83-37.07,0-6.47,3.73-11.72,8.32-11.72s8.31,5.25,8.31,11.72c0,3.24-3.27,43.52-3.53,46.24-1,10.92-12.88,11.82-20,11.34-.76,34.54-1.75,68.56-2.81,77-2.29,18.34-13.25,6.18-13.34-1,0-3.23-.63-35.08-1.25-69.48-5.91.77-15.77,1.21-16.93-4.09-1.68-7.63-2.32-43-2.32-46.23C734.56,234.61,737,229.37,740,229.37Z"/><path class="cls-1" d="M244.79,276.5c-2.65,0-4.79,3.57-4.79,8,0,2.44,1.36,22.6,1.05,25.26-.26,2.23-5,3.08-8.24,2.06.62-26.54,1.24-53,1.24-54.27,0-4.41-4-8-9-8s-9,3.58-9,8c0,1.1.44,25.19,1.12,50.6-3.45-.74-7.46-4.34-7.55-7.79-.11-4.57,1.61-22.81,1.61-25.25,0-4.41-3.28-8-7.31-8s-7.32,3.58-7.32,8c0,2.2,2.88,29.65,3.11,31.5.92,7.44,11.32,8.05,17.63,7.73.67,23.53,1.54,46.71,2.47,52.46,2,12.5,11.66,4.21,11.74-.67,0-2.19.55-23.9,1.1-47.34,5.19.53,13.87.83,14.89-2.78,1.48-5.2,2-29.3,2-31.51C249.58,280.07,247.44,276.5,244.79,276.5Z"/></g></g></svg>