<svg xmlns="http://www.w3.org/2000/svg" viewBox="0 0 628.24 314.37"><defs><style>.cls-1{fill:#a33b3b;}.cls-2{fill:#c0a54c;}.cls-3{fill:#ad9347;}.cls-4{fill:#a4861b;}.cls-5{fill:#719b0a;}</style></defs><title>mexico-monument</title><g id="Calque_2" data-name="Calque 2"><g id="MONUMENT"><path class="cls-1" d="M592.32,262.09v8.4H540.15l-.75,9.71-42.55,0v9.56h-50.3v9.65H382.62v15h-137V304.32h-.24v-4.74H181.7v-9.65H131.39v-9.55H88.85l-.75-9.71H35.93v-8.4H0v-14H245.39v-.2h12.73v0H373.57v0H628.24v14Zm-209.61,0h-.09v18h.08v-9.6h0Z"/><polygon class="cls-2" points="181.7 55.85 181.7 92.29 131.4 92.29 131.4 128.37 88.85 128.31 88.1 164.98 35.93 164.97 35.93 196.69 0 196.69 0 249.67 245.63 249.67 245.63 196.69 245.54 196.69 245.54 165 245.54 165 245.54 128.74 245.77 128.74 245.77 92.31 245.77 92.31 245.77 55.85 181.7 55.85"/><polygon class="cls-2" points="446.55 56.59 446.55 93.02 496.85 93.02 496.85 129.11 539.4 129.05 540.15 165.72 592.32 165.71 592.32 197.43 628.25 197.43 628.25 250.41 382.62 250.41 382.62 197.43 382.71 197.43 382.71 165.73 382.7 165.73 382.7 129.48 382.48 129.48 382.48 93.05 382.47 93.05 382.47 56.59 446.55 56.59"/><polygon class="cls-3" points="438.06 82.27 438.06 113.88 481.7 113.88 481.7 145.18 518.61 145.13 519.26 176.94 564.51 176.93 564.51 204.45 595.68 204.45 595.68 250.41 382.6 250.41 382.6 204.45 382.68 204.45 382.68 176.95 382.67 176.95 382.67 145.5 382.48 145.5 382.48 113.89 382.47 113.89 382.47 82.27 438.06 82.27"/><polygon class="cls-3" points="191.11 83.45 191.11 115.06 147.48 115.06 147.48 146.36 110.57 146.31 109.92 178.12 64.66 178.11 64.66 205.63 33.49 205.63 33.49 251.59 246.57 251.59 246.57 205.63 246.5 205.63 246.5 178.13 246.5 178.13 246.5 146.68 246.7 146.68 246.7 115.08 246.7 115.08 246.7 83.45 191.11 83.45"/><rect class="cls-4" x="245.39" y="55.32" width="137.23" height="229.13"/><rect class="cls-2" x="245.63" width="136.99" height="56.25"/><rect class="cls-2" x="256.4" y="72.32" width="115.44" height="18.93"/><rect class="cls-2" x="257.02" y="107.04" width="115.44" height="18.93"/><rect class="cls-2" x="257.63" y="142.92" width="115.44" height="18.93"/><rect class="cls-2" x="257.02" y="178.22" width="115.44" height="18.93"/><rect class="cls-2" x="257.63" y="214.09" width="115.44" height="18.93"/><rect class="cls-2" x="258.12" y="249.64" width="115.44" height="22.1"/><path class="cls-5" d="M228.42,260.85c-2.29,12.49-13.26,4.2-13.35-.68,0-2.19-.62-23.9-1.25-47.33-5.9.52-15.76.82-16.93-2.79-1.68-5.2-2.32-29.3-2.32-31.5,0-4.41,2.44-8,5.45-8s5.45,3.58,5.45,8c0,2.44-1.54,22.6-1.2,25.25.3,2.23,5.64,3.08,9.37,2.06-.71-26.53-1.41-53-1.41-54.27,0-4.41,4.58-8,10.23-8s10.23,3.57,10.23,8C232.69,152.69,229.47,255.09,228.42,260.85Z"/><path class="cls-5" d="M424.84,176.4c-2.65,0-4.79,3.57-4.79,8,0,2.45,1.35,22.6,1.05,25.26-.26,2.23-5,3.08-8.24,2.06.62-26.54,1.24-53,1.24-54.27,0-4.41-4-8-9-8s-9,3.58-9,8c0,1.1.43,25.19,1.12,50.6-3.45-.74-7.46-4.34-7.55-7.79-.11-4.57,1.61-22.81,1.61-25.25,0-4.41-3.28-8-7.32-8s-7.31,3.58-7.31,8c0,2.2,2.88,29.65,3.11,31.5.92,7.44,11.32,8,17.63,7.73.67,23.53,1.54,46.71,2.47,52.46,2,12.5,11.66,4.21,11.74-.67,0-2.19.55-23.9,1.1-47.34,5.19.53,13.87.83,14.89-2.78,1.48-5.2,2-29.3,2-31.51C429.63,180,427.48,176.4,424.84,176.4Z"/><rect class="cls-4" x="295.51" y="8.06" width="34.11" height="52.12"/></g></g></svg>