<svg xmlns="http://www.w3.org/2000/svg" viewBox="0 0 153.24 57.66"><defs><style>.cls-1{fill:#00af85;}.cls-2{fill:#ffd217;}.cls-3{fill:#719b0a;}.cls-4{fill:#210808;}.cls-5{fill:#c4360a;}</style></defs><title>mexico-animal</title><g id="Calque_2" data-name="Calque 2"><g id="ANIMAL"><path class="cls-1" d="M95.4,41.58a57.66,57.66,0,0,1,46.58,5,72.93,72.93,0,0,0-53.6-.89,194.22,194.22,0,0,1-29.17,8c-2.85.57-5.63,1.07-8.3,1.51q-3.09.51-6,.9l-1.13.15c-.75.11-1.48.2-2.2.29a110.5,110.5,0,0,1-15.24,1.09A11.21,11.21,0,0,1,23,56.88q-.59-.21-1.17-.48l-1-.47-.46-.24-.13-.07-.45-.24-.9-.51c-.35-.2-.68-.41-1-.62-1.83-1.14-3.56-2.38-5-3.38l-.34-.24c-4-.66-7.09-3.2-7.59-6.35-1.85-.12-4.7-.78-5-3.7,2,2.18,2.72,2.05,2.72,2.05s-2.18-4.5-.81-7c.9,2.6,1.72,4.45,3.68,4.93,1.45-2.73,7-5.25,10.86-3.84C29.94,41.7,43.18,50,82.61,42.22c17.83-3.54,22.48-27.28,44.37-22.4,17.3,3.86,21.2,2.52,26.26-3.18-.17.3-6.79,11.36-19.1,7.43C115.18,18,99.12,32.29,95.4,41.58Z"/><path class="cls-2" d="M7.12,48.11c0,.28-6.49,1.9-6.83,1.6S5,44.48,5,44.48A7.18,7.18,0,0,0,7.12,48.11Z"/><path class="cls-3" d="M51,54.58a3.31,3.31,0,0,1,0,.44c0,.06,0,.12,0,.19q-3.09.51-6,.9l-1.13.15c-.75.11-1.48.2-2.2.29a110.5,110.5,0,0,1-15.24,1.09A11.21,11.21,0,0,1,23,56.88q-.59-.21-1.17-.48l-1-.47-.46-.24-.13-.07-.45-.24-.9-.51c-.35-.2-.68-.41-1-.62-1.83-1.14-3.56-2.38-5-3.38,1.65-1.94,4.56-3.56,8.23-4.62.52-.15,1.05-.28,1.59-.41l.32-.06a4,4,0,0,1,.6-.13l1.17-.22.54-.08c.6-.09,1.21-.17,1.83-.23a39.77,39.77,0,0,1,4-.2c10.12,0,18.48,3.71,19.64,8.51A5,5,0,0,1,51,54.58Z"/><path class="cls-4" d="M52.33,30.28c-1.83,1.33-7.86,1.29-8.69,1.3.92.17,8.32,1.49,9.2.82C51,36.66,43.39,35,43.39,35s5.15,4.9,8.12,5.77c-2.44,1.16-5.15-.87-7.21-2.4,1.6,1.48,5.45,4.91,5.46,5.42-.86-.18-4.62-3-5.79-4.06,1.1,1.24,4.72,4.45,4.87,4.94-1.1-.1-5.14-4.26-5.48-4.64.43.89,4.06,4.37,4.22,5-1.14-.39-4.33-3.76-4.75-4.46.38.81,4,4.31,4.09,4.65a22.56,22.56,0,0,1-3.7-3.09,26.66,26.66,0,0,0,3.3,3.46,17,17,0,0,1-3.85,3.09,11.27,11.27,0,0,0-1.61-1.24l1.31,1.36s-2.58,2-3.88,1.37c-1-1.08-3.54-4.23-3.54-4.23l1.68,4.34c-.15-.13-1.66-1.45-2.34-.71a24,24,0,0,0-2.7,6.49,6.51,6.51,0,0,0-.2,1.47c-2.15.12-3.85.16-5,.11l-.64-.06c-2.08-1-4-2.23-4.56-3a3.46,3.46,0,0,1-.53-2.18,3.57,3.57,0,0,1,1.47-.41A5.11,5.11,0,0,0,26,49.85a6,6,0,0,0,.86-1.9,8.47,8.47,0,0,0,.31-2.3v0l0-.26A9.65,9.65,0,0,0,27.3,44a.66.66,0,0,0,0-.15,6.68,6.68,0,0,0-.12-2.24s-4-7,2.94-20.14c1.37-2.57,2.45-6.28,5.5-8.41a11.58,11.58,0,0,0-2,5.24c1.08-3.49,5.64-9.66,8.07-12.19-2.78,5.87-1.87,4.85-1.87,4.85C40.37,8.62,45.52,1.71,50.94,0c-2.36,2.07-8.23,9.12-8.73,11.5C45,7.38,45.85,5.31,50.79,2.44c-1,3.69-6.1,9-8.18,10.5-.5.84,7.18-5.34,8.62-7.65.29,1-5.66,7.76-7.22,9,3-1.91,8-8.33,8.16-7.81s2.8,3.71,2,6a17.51,17.51,0,0,1-3.36,5c1-.49,4-3.41,4.31-4.42.34,1.27-2.6,7.75-6.68,9.79h0c.41-.13,5.48-2.22,6.44-3.43C55.25,23.57,54.63,28.42,52.33,30.28Z"/><path class="cls-5" d="M59.21,53.7c-2.85.57-5.63,1.07-8.3,1.51q-3.09.51-6,.9l-1.13.15c-.75.11-1.48.2-2.2.29-4,.5-7.47.81-10.23,1-2.15.12-3.85.16-5,.11l-.64-.06a11.81,11.81,0,0,1-2.73-.7q-.59-.21-1.17-.48l-1-.47-.46-.24-.13-.07-.45-.24-.9-.51c-.05-.11-.09-.23-.14-.34a4.17,4.17,0,0,1,1.88-2.18,3.57,3.57,0,0,1,1.47-.41A5.11,5.11,0,0,0,26,49.85a6,6,0,0,0,.86-1.9,8.47,8.47,0,0,0,.31-2.3v0c0-.11,0-.21,0-.29s0-.19,0-.22,0,0,0,.1a.57.57,0,0,1,0,.15c.11.52.33,1.69.48,3,.08.69.13,1.43.14,2.15,0,1.65-.16,3.22-.87,4a22.3,22.3,0,0,0,2.52-3.27,9.26,9.26,0,0,0,.5-.9,4.44,4.44,0,0,1,0,1.15c-.18,1.55-.87,3.67-1.77,4.33-1.15.86,2.31,1.73,3.37.19,0,.16,0,.34-.05.5S42,54.12,50.81,53.43A29.71,29.71,0,0,1,59.21,53.7Z"/></g></g></svg>