<svg id="Calque_1" data-name="Calque 1" xmlns="http://www.w3.org/2000/svg" viewBox="0 0 331.75 359.83"><defs><style>.cls-1{fill:#fff;}.cls-2{fill:#ef7e75;}.cls-3{fill:#f78db3;}.cls-4{fill:#f7da61;}.cls-5{fill:#509669;}.cls-6{fill:#668fbc;}</style></defs><title>pinata1</title><path class="cls-1" d="M384.49,679.54" transform="translate(-352.32 -317.19)"/><path class="cls-2" d="M502.4,368.51H674.5s8.73,3.89,9.57,13.55V429.5s-1.68,9.24-11.75,15.12H589.61l.29,231.53-30-15.81-34.22,15.81.17-70.53L508.12,578.5l-154.94,5V510.31s-.73-34.47,28.5-45H502.4" transform="translate(-352.32 -317.19)"/><path class="cls-3" d="M353.09,592.28q-.37,42.38-.77,84.75l31.8-16.12L415.93,677q0-36.67,0-73.33l-10.28-11.13-12.27-2.29L381.16,602l-12.6-21.11Z" transform="translate(-352.32 -317.19)"/><path class="cls-3" d="M530.53,602.18c-.66-1-1.62-2.23-2.48-2.07-2.49.46-2.31,11.89-2.24,16.39.21,14.44.31,34.27.37,60.53L558,660.91,589.78,677V591.14L566.65,584,555,602l-11.48-15.11Q537,594.51,530.53,602.18Z" transform="translate(-352.32 -317.19)"/><polygon class="cls-4" points="150.19 68.92 247.75 72.75 253.68 61.15 253.68 50.6 226.05 0 201.94 39.73 179.18 0 150.59 50.6 150.19 68.92"/><polygon class="cls-5" points="0.77 284.98 14.68 299.81 28.58 284.98 41.16 299.81 52.08 284.98 66.32 299.81 78.23 284.98 90.48 299.81 103.72 284.98 115.97 299.81 128.88 284.98 141.13 299.81 154.04 284.98 164.97 299.81 178.21 284.98 191.45 299.81 203.03 284.98 216.61 299.81 228.85 284.98 237.46 296.18 237.46 249.74 229.52 239.2 216.94 253.03 204.69 239.2 191.12 253.36 181.52 239.2 166.62 252.71 154.37 239.2 141.46 253.36 129.21 239.2 116.3 253.03 105.49 239.2 91.81 253.03 78.9 239.2 66.65 252.05 53.08 239.2 41.82 252.38 28.25 239.2 16 253.36 0.77 239.2 0.77 284.98"/><polygon class="cls-3" points="240.33 112.06 248.71 67.67 238.78 67.67 228.54 50.6 215.19 66.12 203.08 50.6 190.35 66.74 178.25 50.6 165.21 66.12 150.59 50.6 148.98 124.46 237.27 128.75 240.33 112.06"/><path class="cls-4" d="M353.09,529.18l238-1.81-1.58-72.68H501.57l-.21,11.15-8.63,9.25-11-11.17-13.65,12.95-10.46-13.38-14,13.38L431.3,463.71l-12.57,13.16-12.56-13.38L393.6,475.58l-9.53-10.86s-27,8-31,37.54Z" transform="translate(-352.32 -317.19)"/><polygon class="cls-2" points="0.77 239.27 14.7 254.09 28.63 239.27 41.23 254.09 52.17 239.27 66.43 254.09 78.36 239.27 90.63 254.09 103.9 239.27 116.17 254.09 129.1 239.27 141.37 254.09 154.3 239.27 165.24 254.09 178.5 239.27 191.77 254.09 203.37 239.27 216.97 254.09 229.24 239.27 237.86 250.47 237.86 204.02 229.9 193.48 217.3 207.32 205.03 193.48 191.44 207.65 181.82 193.48 166.9 206.99 154.63 193.48 141.7 207.65 129.43 193.48 116.5 207.32 105.66 193.48 91.96 207.32 79.03 193.48 66.76 206.33 53.16 193.48 41.89 206.66 28.3 193.48 16.03 207.65 0.77 193.48 0.77 239.27"/><path class="cls-6" d="M501.77,420.46l3-5.45,14.61,16.37,11.76-15.54,10.09,15.54,13.87-15.54,12.6,15.54,13.65-15.87a50.55,50.55,0,0,1,6.68,15.57c.22.91.35,1.56.46,2.14,1.92,9.57,1.16,16.59,1.05,30.6,0,1.88,0,4.93,0,8.74l-9.66-11.76-11.35,14.29-11.76-15.55L543,475.09l-13-15.13-12.18,15.13L505.13,460.8l-12.92,14.29-10.92-11.17L467.7,476.87l-10.42-13.38-14,13.38L431,463.71l-12.51,13.16L406,463.49l-12.52,12.09L384,464.72l116.85-.45Z" transform="translate(-352.32 -317.19)"/><circle class="cls-1" cx="249.13" cy="74.07" r="14.18"/></svg>