<svg id="Calque_1" data-name="Calque 1" xmlns="http://www.w3.org/2000/svg" viewBox="0 0 351.95 381.74"><defs><style>.cls-1{fill:#fb819a;}.cls-2{fill:#f298fe;}.cls-3{fill:#fea787;}.cls-4{fill:#fed80c;}.cls-5{fill:#b3eece;}.cls-6{fill:#fff;}</style></defs><title>pinata2</title><path class="cls-1" d="M505.7,332.54H688.28s9.27,4.13,10.16,14.37v50.34s-1.79,9.8-12.48,16H598.22l.31,245.63-31.86-16.77-36.29,16.77.18-74.82-18.79-28.77-164.38,5.35V483s-.77-36.57,30.24-47.7H505.7" transform="translate(-346.48 -278.1)"/><path class="cls-2" d="M347.3,569.94q-.41,45-.82,89.9l33.74-17.09L414,659.84q0-38.9,0-77.79l-10.91-11.81-13-2.42-13,12.4Q370.4,569,363.71,557.83Z" transform="translate(-346.48 -278.1)"/><path class="cls-2" d="M535.54,580.44c-.7-1.09-1.71-2.37-2.63-2.2-2.64.49-2.45,12.62-2.38,17.39.22,15.32.33,36.36.39,64.21l33.74-17.09,33.74,17.09V568.73l-24.54-7.57-12.35,19.06-12.18-16Z" transform="translate(-346.48 -278.1)"/><polygon class="cls-3" points="159.34 73.11 262.84 77.18 269.13 64.88 269.13 53.68 239.82 0 214.23 42.15 190.09 0 159.76 53.68 159.34 73.11"/><polygon class="cls-4" points="0.82 302.34 15.57 318.06 30.32 302.34 43.67 318.06 55.26 302.34 70.36 318.06 83 302.34 95.99 318.06 110.04 302.34 123.03 318.06 136.73 302.34 149.72 318.06 163.42 302.34 175.01 318.06 189.06 302.34 203.11 318.06 215.4 302.34 229.8 318.06 242.79 302.34 251.92 314.22 251.92 264.95 243.49 253.77 230.15 268.44 217.15 253.77 202.75 268.79 192.57 253.77 176.77 268.09 163.77 253.77 150.08 268.79 137.08 253.77 123.39 268.44 111.91 253.77 97.4 268.44 83.7 253.77 70.71 267.39 56.31 253.77 44.37 267.74 29.97 253.77 16.98 268.79 0.82 253.77 0.82 302.34"/><polygon class="cls-2" points="254.97 118.89 263.86 71.79 253.32 71.79 242.45 53.68 228.29 70.15 215.45 53.68 201.94 70.8 189.1 53.68 175.27 70.15 159.76 53.68 158.05 132.04 251.72 136.59 254.97 118.89"/><path class="cls-3" d="M347.3,503l252.47-1.92L598.09,424H504.82l-.23,11.83-9.15,9.81-11.62-11.85L469.34,447.5l-11.09-14.2-14.88,14.2-13.1-14-13.33,14-13.33-14.2-13.33,12.83-10.12-11.52s-28.64,8.46-32.86,39.82Z" transform="translate(-346.48 -278.1)"/><polygon class="cls-1" points="0.82 253.84 15.6 269.56 30.37 253.84 43.74 269.56 55.35 253.84 70.47 269.56 83.14 253.84 96.15 269.56 110.22 253.84 123.24 269.56 136.96 253.84 149.97 269.56 163.69 253.84 175.3 269.56 189.37 253.84 203.44 269.56 215.75 253.84 230.18 269.56 243.19 253.84 252.34 265.72 252.34 216.45 243.9 205.27 230.53 219.94 217.51 205.27 203.09 220.29 192.89 205.27 177.06 219.59 164.04 205.27 150.32 220.29 137.31 205.27 123.59 219.94 112.09 205.27 97.56 219.94 83.84 205.27 70.82 218.89 56.4 205.27 44.44 219.24 30.02 205.27 17 220.29 0.82 205.27 0.82 253.84"/><path class="cls-5" d="M505,387.65l3.22-5.78,15.51,17.37,12.48-16.49,10.7,16.49,14.71-16.49L575,399.24l14.48-16.83a53.45,53.45,0,0,1,7.08,16.51c.23,1,.37,1.66.5,2.27,2,10.15,1.23,17.6,1.1,32.46,0,2,0,5.24,0,9.28L588,430.45l-12,15.16-12.48-16.5-14.71,16.5L534.9,429.56,522,445.61,508.6,430.45l-13.71,15.16-11.58-11.85L468.88,447.5l-11-14.2L443,447.5l-13.05-14-13.28,14-13.29-14.2-13.28,12.83L380,434.61l124-.48Z" transform="translate(-346.48 -278.1)"/><circle class="cls-6" cx="264.3" cy="78.58" r="15.04"/></svg>