<svg id="Calque_1" data-name="Calque 1" xmlns="http://www.w3.org/2000/svg" viewBox="0 0 315.03 341.69"><defs><style>.cls-1{fill:#ef637a;}.cls-2{fill:#d79ef7;}.cls-3{fill:#f7b679;}.cls-4{fill:#5d6696;}.cls-5{fill:#76bcb0;}.cls-6{fill:#fff;}</style></defs><title>pinata4</title><path class="cls-1" d="M517.17,396.14H680.59s8.29,3.69,9.09,12.86v45.05s-1.59,8.77-11.16,14.36H600l.28,219.85-28.52-15-32.49,15,.17-67L522.6,595.53l-147.13,4.8V530.79s-.69-32.73,27.06-42.7H517.17" transform="translate(-374.65 -347.4)"/><path class="cls-2" d="M375.39,608.62q-.37,40.25-.74,80.48l30.2-15.3,30.2,15.3q0-34.82,0-69.64-4.89-5.28-9.76-10.57l-11.66-2.16L402,617.83q-6-10-12-20.05Z" transform="translate(-374.65 -347.4)"/><path class="cls-2" d="M543.88,618c-.63-1-1.54-2.12-2.36-2-2.36.43-2.19,11.29-2.13,15.56.2,13.71.3,32.55.35,57.48l30.2-15.3,30.2,15.3V607.54l-22-6.78q-5.52,8.54-11,17.07l-10.9-14.36Z" transform="translate(-374.65 -347.4)"/><polygon class="cls-3" points="142.62 65.44 235.26 69.08 240.89 58.07 240.89 48.05 214.66 0 191.76 37.73 170.15 0 143 48.05 142.62 65.44"/><polygon class="cls-4" points="0.73 270.62 13.94 284.69 27.14 270.62 39.08 284.69 49.46 270.62 62.98 284.69 74.29 270.62 85.92 284.69 98.5 270.62 110.13 284.69 122.39 270.62 134.02 284.69 146.28 270.62 156.65 284.69 169.22 270.62 181.8 284.69 192.8 270.62 205.69 284.69 217.32 270.62 225.49 281.25 225.49 237.15 217.95 227.14 206 240.28 194.37 227.14 181.48 240.59 172.37 227.14 158.22 239.97 146.59 227.14 134.33 240.59 122.7 227.14 110.44 240.28 100.17 227.14 87.18 240.28 74.92 227.14 63.29 239.34 50.4 227.14 39.71 239.65 26.82 227.14 15.19 240.59 0.73 227.14 0.73 270.62"/><polygon class="cls-2" points="228.22 106.41 236.18 64.26 226.74 64.26 217.01 48.05 204.34 62.79 192.84 48.05 180.76 63.38 169.26 48.05 156.88 62.79 143 48.05 141.47 118.19 225.31 122.26 228.22 106.41"/><path class="cls-3" d="M375.39,548.7l226-1.72-1.5-69H516.38l-.21,10.59L508,497.34l-10.41-10.6-13,12.29-9.92-12.7L461.37,499l-11.72-12.5L437.72,499l-11.94-12.7L413.85,497.8l-9.05-10.31s-25.63,7.58-29.41,35.65Z" transform="translate(-374.65 -347.4)"/><polygon class="cls-1" points="0.73 227.21 13.96 241.28 27.18 227.21 39.15 241.28 49.54 227.21 63.08 241.28 74.41 227.21 86.06 241.28 98.66 227.21 110.31 241.28 122.59 227.21 134.24 241.28 146.52 227.21 156.91 241.28 169.5 227.21 182.1 241.28 193.12 227.21 206.03 241.28 217.68 227.21 225.87 237.84 225.87 193.74 218.31 183.73 206.34 196.87 194.69 183.73 181.78 197.18 172.65 183.73 158.48 196.55 146.83 183.73 134.55 197.18 122.9 183.73 110.62 196.87 100.33 183.73 87.32 196.87 75.04 183.73 63.39 195.93 50.48 183.73 39.78 196.24 26.87 183.73 15.22 197.18 0.73 183.73 0.73 227.21"/><path class="cls-5" d="M516.57,445.46l2.88-5.17,13.88,15.55,11.17-14.77,9.58,14.77,13.16-14.77,12,14.77,13-15.07a47.73,47.73,0,0,1,6.34,14.78c.21.86.34,1.48.45,2,1.82,9.09,1.1,15.75,1,29.06,0,1.79,0,4.68,0,8.3l-9.17-11.17L580,497.34l-11.17-14.77-13.17,14.77L543.3,483l-11.57,14.37-12-13.57-12.27,13.57-10.37-10.6L484.21,499l-9.89-12.7L461.05,499l-11.68-12.5L437.48,499l-11.89-12.7L413.71,497.8l-9-10.31,111-.43Z" transform="translate(-374.65 -347.4)"/><circle class="cls-6" cx="236.57" cy="70.33" r="13.46"/></svg>