<svg xmlns="http://www.w3.org/2000/svg" viewBox="0 0 241.8 371.41"><defs><style>.cls-1{fill:#d3b8ae;}.cls-2{fill:#c67845;}.cls-3{fill:#e0ab76;}.cls-4{fill:#cc9161;}.cls-5{fill:#e8b989;}.cls-6{fill:#c9874a;}.cls-7{fill:#d19d6f;}.cls-8{fill:#deae7d;}.cls-9{fill:#ebc5a3;}</style></defs><title>Fichier 5</title><g id="Calque_2" data-name="Calque 2"><g id="MONUMENT"><path class="cls-1" d="M241.47,288.33v14.91h0v0c0,2.13-5.93,3.85-13.25,3.85-5.4,0-10-.94-12.1-2.28L216,305l-2.86,2.57-1.93,1.74-3.26,2.94L206,314c-2,1.86-3.53,3.23-4.15,3.82-.93.89-3.37,1.54-6.56,2l.71,0c4.1.18,25,18.73,24.63,22-.25,2.58-37.56,13.41-53.86,18a3.87,3.87,0,0,1-.56.58c-3.86,3.15-32.29,2.94-32.29,2.94h-2.27l.13.06-7.3,7.25v.71H112.05V371H112l-7.86-7.51.35-.18c-6.2-.09-15.82-.41-21.7-1.42l-.28,0-.92-.25a16,16,0,0,1-2.26-.63c-12.54-3.51-57.88-16.38-58.15-19.23-.32-3.3,20.53-21.85,24.63-22l.7,0c-3.18-.47-5.62-1.12-6.55-2-.62-.59-2.11-2-4.15-3.82l-1.91-1.73-3.26-2.94-1.93-1.74L25.83,305l-.15-.13c-2.06,1.34-6.69,2.28-12.1,2.28-7.31,0-13.24-1.72-13.24-3.85v0h0V288.33H0v-2H79.93v1.06l26.17.15h29.6l26.16-.15v-1.06H241.8v2Z"/><path class="cls-2" d="M82.49,32.53s-61,57.81-61.33,69.18,20.53,75.17,24.63,75.8,55.9,8.21,56.53,1.26S99.8,38.23,99.8,38.23Z"/><path class="cls-2" d="M159.31,32.53s61,57.81,61.33,69.18-20.53,75.17-24.63,75.8-55.9,8.21-56.54,1.26S142,38.23,142,38.23Z"/><path class="cls-3" d="M236,290.48s-1.26-3.87-3.29-10.14c-.59-1.8-1.23-3.79-1.93-5.95l-3.47-10.69c-.62-1.93-1.27-3.91-1.93-5.95-.93-2.89-1.9-5.87-2.89-8.92-.63-2-1.27-4-1.92-6-.9-2.77-1.81-5.57-2.71-8.36-.64-2-1.28-4-1.92-6l-2.86-8.87-1.93-6-3.26-10.14c-.68-2.11-1.32-4.1-1.91-5.95-2-6.37-3.53-11.09-4.15-13.13-3.44-11.4-27.55-11.13-34.17-11.13s-13.25-48.21-13.25-48.21l-33.54,7.68-33.54-7.68s-6.62,48.21-13.25,48.21-30.73-.27-34.17,11.13c-.62,2-2.11,6.76-4.15,13.13-.59,1.85-1.23,3.84-1.91,5.95l-3.26,10.14-1.93,6-2.86,8.87c-.64,2-1.28,4-1.92,6-.9,2.79-1.81,5.59-2.71,8.36-.65,2-1.29,4-1.92,6-1,3-2,6-2.89,8.92-.66,2-1.31,4-1.93,5.95L11,274.39c-.7,2.16-1.34,4.15-1.93,5.95-2,6.27-3.29,10.14-3.29,10.14l115.13-2.33Z"/><polygon class="cls-4" points="104.12 27.11 111.98 1.26 118.77 0.94 112.03 40.99 104.12 27.11"/><polygon class="cls-4" points="131.79 27.37 124.2 1.44 117.42 1.05 123.74 41.17 131.79 27.37"/><path class="cls-5" d="M171.22,68.63a15.55,15.55,0,0,0-1.94.12c-.43-13.4-1.33-26.15-3.06-31-3.86-10.84-32.29-10.12-32.29-10.12L118,27.49v.28l-7.62-.16S82,26.88,78.1,37.73C76.35,42.65,75.45,55.67,75,69.25a16.25,16.25,0,0,0-4.44-.62,16.58,16.58,0,1,0,4.21,32.6c0,2.85.11,5.07.18,6.38.44,8.08,7,29.8,41.38,33.1,0,.13,0,.27,0,.4,2,0,4,0,5.91-.05s3.74.09,5.74.05c0-.13,0-.26,0-.39,34.38-3.3,40.94-25,41.38-33.1.07-1.24.13-3.29.18-5.91.55.05,1.12.08,1.69.08a16.58,16.58,0,1,0,0-33.16Z"/><path class="cls-6" d="M111.12,78.3c.22-2.47-18-18.95-22-6C85.2,84.73,110.9,80.77,111.12,78.3Z"/><path class="cls-7" d="M124,203.6h83.93c-.68-2.11-1.32-4.1-1.91-5.95H35.79c-.59,1.85-1.23,3.84-1.91,5.95H124Z"/><path class="cls-7" d="M123.47,219.7h89.64l-1.93-6H30.62l-1.93,6h94.78Z"/><path class="cls-7" d="M123.73,234.52h94.16c-.64-2-1.28-4-1.92-6H25.83c-.64,2-1.28,4-1.92,6h99.82Z"/><path class="cls-7" d="M123.47,248.83h99.05c-.63-2-1.27-4-1.92-6H21.2c-.65,2-1.29,4-1.92,6H123.47Z"/><path class="cls-7" d="M123.73,263.7H227.34c-.62-1.93-1.27-3.91-1.93-5.95h-209c-.66,2-1.31,4-1.93,5.95H123.73Z"/><path class="cls-7" d="M230.81,274.39H11c-.7,2.16-1.34,4.15-1.93,5.95H232.74C232.15,278.54,231.51,276.55,230.81,274.39Z"/><path class="cls-6" d="M130.68,78.3c-.22-2.47,18-18.95,22-6C156.6,84.73,130.9,80.77,130.68,78.3Z"/><path class="cls-6" d="M123.53,88.48c-.92-.75-4.35-.75-5.26,0-2.22,1.83-8.24,8.24-6.41,9.41.91.59,3.79,1,6.45,1.16h5.18c2.66-.21,5.54-.57,6.44-1.16C131.76,96.72,125.75,90.31,123.53,88.48Z"/><polygon class="cls-6" points="137.78 109.81 125.6 104.59 116.2 104.59 104.02 109.81 120.9 109.39 137.78 109.81"/><polygon class="cls-6" points="124.46 118.16 127.34 117.27 124.43 117.15 120.9 117 117.37 117.15 114.46 117.27 117.34 118.16 120.9 119.26 124.46 118.16"/><path class="cls-6" d="M68.37,85.42a9.31,9.31,0,0,1,6.44-8.85A8.84,8.84,0,0,0,73,76.39,9.32,9.32,0,0,0,73,95a9.44,9.44,0,0,0,2.88-.46A9.32,9.32,0,0,1,68.37,85.42Z"/><path class="cls-6" d="M173.42,85.42A9.3,9.3,0,0,0,167,76.57a8.74,8.74,0,0,1,1.78-.18,9.32,9.32,0,1,1-2.87,18.17A9.32,9.32,0,0,0,173.42,85.42Z"/><path class="cls-5" d="M79.85,234.46h0s0-.06,0-.1a13.25,13.25,0,0,0-26.5,0s0,.07,0,.1h0v0h0v-.1a13.25,13.25,0,0,0-26.49-.11,13.24,13.24,0,0,0-26.48.11v.1h0v56.22h53v0H79.85Z"/><rect class="cls-8" y="285.8" width="79.93" height="6.8"/><path class="cls-5" d="M162,234.46h0s0-.06,0-.1a13.25,13.25,0,0,1,26.49,0v.1h0v0h0v-.1a13.24,13.24,0,0,1,26.48-.11,13.25,13.25,0,0,1,26.49.11v.1h0v56.22h-53v0H162Z"/><rect class="cls-8" x="161.86" y="285.8" width="79.93" height="6.8" transform="translate(403.66 578.4) rotate(-180)"/><polygon class="cls-6" points="129.95 252.05 123.09 251.84 123.09 251.7 120.9 251.77 118.71 251.7 118.7 251.84 111.85 252.05 104.89 288.45 117.28 288.45 124.51 288.45 136.91 288.45 129.95 252.05"/><rect class="cls-5" x="112.05" width="12.45" height="41.32"/><rect class="cls-9" x="113.35" y="37.8" width="9.9" height="2.42"/><rect class="cls-9" x="113.39" y="33.92" width="9.9" height="2.42"/><rect class="cls-9" x="113.39" y="29.7" width="9.9" height="2.42"/><rect class="cls-9" x="113.39" y="25.64" width="9.9" height="2.42"/><rect class="cls-9" x="113.39" y="21.42" width="9.9" height="2.42"/><rect class="cls-9" x="113.39" y="17.41" width="9.9" height="2.42"/><rect class="cls-9" x="113.39" y="13.32" width="9.9" height="2.42"/><rect class="cls-9" x="113.39" y="9.31" width="9.9" height="2.42"/><rect class="cls-9" x="113.39" y="5.21" width="9.9" height="2.42"/><rect class="cls-9" x="113.39" y="1.29" width="9.9" height="2.42"/></g></g></svg>