<svg xmlns="http://www.w3.org/2000/svg" viewBox="0 0 55.94 325.49"><defs><style>.cls-1{fill:#d3b8ae;}.cls-2{fill:#ba783c;}.cls-3{fill:#8e592e;}.cls-4{fill:#3d1c04;}.cls-5{fill:#fff9f5;}.cls-6{fill:#b59678;}.cls-7{fill:#a58a6c;}.cls-8{fill:#c6a782;}</style></defs><title>Fichier 1</title><g id="Calque_2" data-name="Calque 2"><g id="CHILD"><path class="cls-1" d="M55.94,282.31S53.37,295.84,53.13,300c-.14,2.67-5.18,3.72-8.76,4.12.43.23.68.47.68.72s-.36.6-1,.87c-3.33-.35-7.61-.59-12.36-.67v2.47h0l0,.48a.29.29,0,0,1-.06.17h0c1.1.06,2.17.14,3.23.22h0c5.09.76,9.19,1.92,11.32,3.32h0s4.65,1.07,5.13,2.16a50,50,0,0,1,3,4.41c1.33,2.56,1.66,5.41-3.14,6.18-8.64,1.37-23.73,1-23.73,1h0c-4.43.05-15,0-21.69-1-2.5-.4-3.61-1.36-3.9-2.55A3.86,3.86,0,0,1,2,319.77c.76-2.53,3.25-5.23,3.6-5.91l0,0c.49-1.1,5.13-2.17,5.13-2.17s0,.06,0,.09c2.11-1.41,6.24-2.59,11.37-3.36h0c.7-.05,1.68-.11,2.65-.15,0-.74-.09-2.55-.11-3.19-4.62.09-8.78.33-12,.69-.69-.28-1.06-.59-1.06-.9s.2-.44.55-.65c-3.58-.34-9.3-1.34-9.46-4.19C2.46,295.84,0,282.32,0,282.32H2.65c0-.39-1.31-1.29-1.41-2.61S6.89,277,7.83,277h.26c-.15-9.89,0-19.87.26-24.82H10.5v-2.83c-1-.3-1.56-.65-1.56-1,0-1,3.63-.91,8.92-.91s10.25-.13,10.25.91c0,.42-.73.82-1.94,1.13v2.79h4.21v-2.9c-1-.3-1.55-.65-1.55-1,0-1,3.62-.91,8.92-.91s10.24-.13,10.24.91c0,.42-.73.82-1.94,1.13v2.86h2.24c.23,4.81.27,14.78,0,24.69,1.35.15,6.49,1.4,6.39,2.7s-1.42,2.24-1.42,2.62ZM6.55,278.2a.91.91,0,0,1,.63.28s-.51.49.21,1.47A4,4,0,0,1,8,282.28h.23c-.05-1.58-.08-3.19-.11-4.79C7.4,277.7,6.26,278.21,6.55,278.2Zm41.67-.56-.12,3.06a2.91,2.91,0,0,1,.37-.75c.72-1,.21-1.47.21-1.47a.94.94,0,0,1,.63-.28C49.54,278.21,48.86,277.88,48.22,277.64Z"/><path class="cls-2" d="M31.69,66.19c0,2.07,3.67,4.78,2.36,4.76L28.22,81.51,23.94,71c-1.31,0,.72-2.8.73-4.88,0,0,.08-11.58.14-11.9.22-1.19.82-.08,1.56-.46a1.63,1.63,0,0,1,.75-.18h.59l1.69,0c1,0,2.29,1.84,2.29,1.84Z"/><path class="cls-3" d="M31.75,56l0,1.54c-2.27.41-5,.24-6.88-2.26a5.29,5.29,0,0,1-.75-1.36s.93-.1,2.29-.22l1.33-.11h0l1.69,0A2.37,2.37,0,0,1,31.75,56Z"/><path class="cls-4" d="M47.82,18C46,6.83,36.13,8.31,28.52,8.41S12,13.87,9.22,16.19,7.8,38,8.63,40.44a5.86,5.86,0,0,0,1.63,2.34,15.47,15.47,0,0,1-1-6.09c.41-11.77,5.18-24.12,16.86-25a52.9,52.9,0,0,1,6.68.24c10.36,2,14.65,13.62,15,24.76a15.28,15.28,0,0,1-.7,5.15c.6-.76,1.45-1.41,1.62-2.2C49.66,35.27,49.65,29.06,47.82,18Z"/><path class="cls-2" d="M47.81,36.69c-.39-11.14-4.68-22.79-15-24.76a52.9,52.9,0,0,0-6.68-.24c-11.68.88-16.45,13.23-16.86,25C9,44.36,14.42,51,22.13,54.69h0c2,.47,6.34,1,6.34,1h.1a27.2,27.2,0,0,0,6.34-1h0C42.62,51,48.08,44.36,47.81,36.69Z"/><path class="cls-5" d="M23.12,40.18c-.15.61-3.68,1.48-6.39.92-2.9-.6-4.5-1.92-3.88-4s3.44-3.08,6.27-2.23S23.67,38.08,23.12,40.18Z"/><circle cx="17.68" cy="37.85" r="2.59"/><path d="M13.16,38c.63-2.09,3.44-3.08,6.27-2.23a6.15,6.15,0,0,1,3.68,2.79,5.71,5.71,0,0,0-4-3.65c-2.83-.85-5.64.15-6.27,2.23a3.29,3.29,0,0,0,.33,2.53A3.06,3.06,0,0,1,13.16,38Z"/><path class="cls-5" d="M32,40c.18.6,3.71,1.38,6.4.74,2.87-.67,4.42-2,3.74-4.1s-3.51-3-6.31-2.06S31.38,37.89,32,40Z"/><ellipse cx="37.33" cy="37.51" rx="2.57" ry="2.59" transform="matrix(0.95, -0.31, 0.31, 0.95, -9.77, 13.39)"/><path d="M41.83,37.5c-.68-2.06-3.5-3-6.3-2.06A6.14,6.14,0,0,0,32,38.33a5.65,5.65,0,0,1,3.89-3.75c2.8-.93,5.62,0,6.31,2.06a3.31,3.31,0,0,1-.25,2.53A3.15,3.15,0,0,0,41.83,37.5Z"/><path class="cls-4" d="M23.22,31.36s-.89-2.32-2.28-2.3a64.13,64.13,0,0,0-7.36.73,7,7,0,0,0-3,2.13C11,31.65,22.89,31.49,23.22,31.36Z"/><path class="cls-4" d="M31.86,31.36s.89-2.32,2.28-2.3a64.13,64.13,0,0,1,7.36.73,7,7,0,0,1,3,2.13C44.08,31.65,32.19,31.49,31.86,31.36Z"/><path class="cls-3" d="M27.48,45.74a6.66,6.66,0,0,1,2-.05c.49.18-1.13.67-1.13.67S26.67,45.94,27.48,45.74Z"/><path d="M34.05,49.71a8.15,8.15,0,0,1-1.54.58,16.12,16.12,0,0,1-3.94.54,13.4,13.4,0,0,1-4-.46,5.54,5.54,0,0,1-1.13-.44,2.73,2.73,0,0,1-.38-.22,7,7,0,0,0,1.58.32,28.44,28.44,0,0,0,3.88.11c1.52,0,2.89-.08,3.89-.19A14.34,14.34,0,0,0,34.05,49.71Z"/><path class="cls-2" d="M8,137.46a41.33,41.33,0,0,1-.58,8.16,9.62,9.62,0,0,0-.21,4.69s-.28,1-.63.91,1.41,2.39,1.92,2.55.29,1.4-.64,1.33-6.7-4.28-6.59-8.67,1.5-7.36,1.42-8.5S8,137.46,8,137.46Z"/><path class="cls-2" d="M47.89,137.46a41.33,41.33,0,0,0,.58,8.16,9.62,9.62,0,0,1,.21,4.69s.29,1,.63.91-1.41,2.39-1.92,2.55-.29,1.4.65,1.33,6.69-4.28,6.59-8.67-1.51-7.36-1.43-8.5S47.89,137.46,47.89,137.46Z"/><path class="cls-6" d="M15,67.52s-12.06.69-12.29,14S0,138,0,138l8.74.16.73-53.93Z"/><path class="cls-6" d="M40.84,67.52s12.06.69,12.29,14,2.81,56.56,2.81,56.56L47.05,138l-.7-53.75Z"/><rect class="cls-7" x="10.5" y="220.59" width="15.66" height="26.17"/><path class="cls-6" d="M28.11,246.76c0,3.32-4.95,2.91-10.25,2.91s-8.92.41-8.92-2.91,4.29-6,9.59-6S28.11,243.43,28.11,246.76Z"/><rect class="cls-7" x="30.38" y="220.59" width="15.66" height="26.17"/><path class="cls-6" d="M48,246.76c0,3.32-5,2.91-10.24,2.91s-8.92.41-8.92-2.91,4.29-6,9.58-6S48,243.43,48,246.76Z"/><path class="cls-7" d="M54.34,23.1c-1.06,6.54-2.76,12.52-3,14.07-.48,3.51-5.13,6.94-5.13,6.94,0-12.09-6.13-18.94-11.35-22.6-.68-.48-1.33-.9-2-1.27l-.57-.32c-.63-.35-1.22-.65-1.76-.91-.18-.07-.35-.15-.51-.23-.41-.18-.78-.34-1.11-.46l-.36-.15-.17-.06L28.16,18l-.57-.19-.07,0S10.28,21,10.75,44.23c0,0-4.64-3.43-5.13-6.94a.36.36,0,0,1,0-.11C5.25,35,2.76,26.37,2,18.28a38.53,38.53,0,0,1-.12-6.67c.29-3.81,1.4-6.88,3.9-8.15C12.48.05,23,0,27.47.17v0S42.56-1.06,51.2,3.34C56,5.79,55.67,14.89,54.34,23.1Z"/><path class="cls-6" d="M40.36,13.62l-5.48,7.89c-.68-.48-1.33-.9-2-1.27l-.57-.32c-.63-.35-1.22-.65-1.76-.91-.18-.07-.35-.15-.51-.23-.41-.18-.78-.34-1.11-.46l-.36-.15-.17-.06L28.16,18l-.57-.19-.07,0S10.28,21,10.75,44.23c0,0-4.64-3.43-5.13-6.94a.36.36,0,0,1,0-.11C5.25,35,2.76,26.37,2,18.28c6.13-4.51,14.76-7.74,20.62-7.78,2.26,0,4.46,0,6.52,0A36.39,36.39,0,0,1,40.36,13.62Z"/><path class="cls-8" d="M54.34,23.1c-1.06,6.54-2.76,12.52-3,14.07-.48,3.51-5.13,6.94-5.13,6.94,0-12.09-6.13-18.94-11.35-22.6A29,29,0,0,0,30.59,19l-.51-.23c-.65-.29-1.21-.51-1.64-.67L28.16,18l-.57-.19c-2.78-4.11-4.74-7-5-7.33l0,0a32.5,32.5,0,0,1,6.55,0,36.39,36.39,0,0,1,11.22,3.1A52.79,52.79,0,0,1,54.34,23.1Z"/><path class="cls-8" d="M44.56,68.6c-1.62-1.39-12.81-2.06-12.81-2.06-.6,2.11-2.05,3.59-3.74,3.59s-2.8-1.46-3.4-3.55c-1.88.12-11.88.76-13.35,2C7.52,71.81,7.81,197.29,8.35,234.44L48.29,234C48.83,198,48.33,71.83,44.56,68.6Z"/><path class="cls-7" d="M28.48,65.47a50.06,50.06,0,0,1-15.82-2.3A4.65,4.65,0,0,0,11.6,66c0,4.53,7.49,8.19,16.72,8.19S45.05,70.57,45.05,66a4.69,4.69,0,0,0-1-2.79A50.2,50.2,0,0,1,28.48,65.47Z"/><path class="cls-7" d="M45.94,108c0,22.87-1.88,41.42-4.2,41.42a.53.53,0,0,1-.23-.06H23.8c2.21-1.18,4-19.25,4-41.36S26,68.05,23.85,66.64H41.47a.58.58,0,0,1,.27-.09C44.06,66.55,45.94,85.1,45.94,108Z"/></g></g></svg>