<svg xmlns="http://www.w3.org/2000/svg" viewBox="0 0 999.84 656.06"><defs><style>.cls-1{fill:#e2c5bb;}.cls-2{fill:#c6a69b;}.cls-3{fill:#d1b6ae;}.cls-4{fill:#ba8b75;}.cls-5{fill:#a37e71;}.cls-6{fill:#d3b8ae;}</style></defs><title>Fichier 7</title><g id="Calque_2" data-name="Calque 2"><g id="BACKGROUND"><rect class="cls-1" y="356.03" width="998.48" height="300.03"/><rect class="cls-2" x="1.35" y="253.23" width="998.48" height="105.18"/><path class="cls-2" d="M999.17,151.79c-30.29-15-59.46-24.3-81.91-24.83a108.27,108.27,0,0,0-23.55,2.55c-16.63,3.38-36.5,9.89-58,18.31-71.38,28-160.19,77.24-204.59,102.76l-.85.48c-16.94,9.62-27.25,12-27.25,12s225.15,26.27,396.1,43.33Z"/><path class="cls-3" d="M939.15,280.69c-25.23,4.35-222.83.72-308.83-29.63l.85-.48c44.4-25.52,133.21-74.73,204.59-102.76,24.62-8.4,46.49-14.91,62.89-18.31-29.37,14.88-31.33,54.28,62.78,37.8C1027.13,155.8,972.17,275,939.15,280.69Z"/><path class="cls-2" d="M.06,296.5c161.86-10.73,384.88-24.43,467.56-24.39-76.12-22.4-192.21-135.11-283-137a145.21,145.21,0,0,0-27.34,2.55c-51,8.93-106.51,29.93-157.26,52.47Z"/><path class="cls-3" d="M231.55,175.49c-111.27,16.48-109-22.92-74.23-37.8C115.88,145,57,166.66.06,190.74v68.11C91.24,256.3,190,251,210.36,248,249.39,242.33,309.22,164,231.55,175.49Z"/><polygon class="cls-4" points="806.27 241.14 510.06 360.55 535.82 0.05 806.27 241.14"/><polygon class="cls-5" points="510.18 360.14 296.22 260.3 536.55 0 510.18 360.14"/><polygon class="cls-4" points="449.25 337.34 269.99 395.97 285.57 218.97 449.25 337.34"/><polygon class="cls-5" points="270.06 395.77 140.57 346.75 286.02 218.95 270.06 395.77"/><polygon class="cls-4" points="930.49 322.12 751.23 394.39 766.82 176.22 930.49 322.12"/><polygon class="cls-5" points="751.3 394.14 621.82 333.72 767.26 176.19 751.3 394.14"/><path class="cls-1" d="M2.71,369.19c91.32-3.47,373.08.32,373.08.32s-8.12-1.48-21.45-7.44c-.22-.09-.44-.2-.66-.3-34.94-15.82-104.83-46.32-161-63.69-16.88-5.22-32.51-9.26-45.6-11.35a107.89,107.89,0,0,0-18.53-1.59C67,286.3,4.32,345.89,2.71,369.19Z"/><path class="cls-6" d="M82.53,372.12c61.23,25.92,157.19-29.9,271.81-10.05-.22-.09-.44-.2-.66-.3-34.94-15.82-104.83-46.32-161-63.69-19.37-5.21-36.58-9.25-49.49-11.35,23.11,9.22,24.66,33.64-49.4,23.43C42.09,303,60.57,362.82,82.53,372.12Z"/><path class="cls-1" d="M506.62,375.46S386.11,464.79,287.7,465.37c-52.82.31-94-88.82-118.58-87.74,39.71-12.44,100-76.73,147.35-77.77a71.88,71.88,0,0,1,14.26,1.42l1.87.37a246.18,246.18,0,0,1,33.2,9.8c42.52,15.33,95.27,42.06,122.54,56.4l1.28.68.51.26C500.38,374.14,506.62,375.46,506.62,375.46Z"/><path class="cls-6" d="M490.13,368.79c-94.83-19.08-174.3,76.6-203.68,28.76-9.84-16-36.47-81.67,3.29-75.27,51,8.2,55.31-10.68,42.86-20.63a246.18,246.18,0,0,1,33.2,9.8c42.52,15.33,95.27,42.06,122.54,56.4l1.28.68Z"/><path class="cls-1" d="M999.51,358.2s-151.89,36.34-276.63,52.38c-61.57,7.92-117.74.56-143.38,1.72,41.85-51.88,157.74-138.31,210-139.47a76.82,76.82,0,0,1,15.73,1.6c1.5.28,3,.6,4.62,1A280.56,280.56,0,0,1,844,285.91c47.7,17.59,107.07,48.46,136.74,64.46.19.1.37.21.55.29l0,0C992.62,356.71,999.51,358.2,999.51,358.2Z"/><path class="cls-6" d="M981.28,350.66c-135,12.2-11.1,28.88-38.92,38.12-78.68,26.13-178.33-15-187.4-23.56-22-20.75-39-71.15,5-63.84,69.37,11.53,60.37-14.39,49.93-26A280.56,280.56,0,0,1,844,285.91c47.7,17.59,107.07,48.46,136.74,64.46C980.92,350.47,981.1,350.58,981.28,350.66Z"/></g></g></svg>