<svg xmlns="http://www.w3.org/2000/svg" viewBox="0 0 66.97 49.02"><defs><style>.cls-1{fill:#bf9171;}.cls-2{fill:#e5d0ca;}.cls-3{fill:#d6bbb4;}</style></defs><title>Fichier 2</title><g id="Calque_2" data-name="Calque 2"><g id="ACTIVITY"><ellipse class="cls-1" cx="36.87" cy="40.72" rx="17.17" ry="4.17"/><ellipse class="cls-1" cx="10.68" cy="47.66" rx="5.58" ry="1.36"/><path class="cls-2" d="M56.64,14.71a12.85,12.85,0,0,0-1.4.08c-3.61-4.48-9.92-7.46-17.12-7.46-8.94,0-16.51,4.58-19.23,10.94-4,.25-6.57-.51-8.1-2.21a8.94,8.94,0,0,1-1.88-5.69C8.62,4.69.1,4.12.1,4.12s-.86,6.68,2.55,7.1c2.14.27,2.07,4.08,2.65,7.61.33,2.1.9,4.1,2.3,5.2C10,26,14.67,26,18,25.78c1.05,5.7,5.85,10.43,12.36,12.56H45.85A18.9,18.9,0,0,0,56.78,29.8C62.42,29.74,67,26.39,67,22.26S62.35,14.71,56.64,14.71Zm1,13.1a13.09,13.09,0,0,0,.77-4.37,13.31,13.31,0,0,0-1.91-6.78h.11c4.24,0,7.68,2.51,7.68,5.61C64.32,25.1,61.42,27.44,57.67,27.81Z"/><path class="cls-3" d="M41.93,2a3.46,3.46,0,0,0-3.36-2,3.47,3.47,0,0,0-3.36,2c-5,1.08-8.81,4.5-9.39,8.7a45.69,45.69,0,0,1,12.31-1.6A44.8,44.8,0,0,1,51.32,11C50.87,6.67,47,3.13,41.93,2Z"/><path class="cls-3" d="M10.79,16.06A24.83,24.83,0,0,0,5.3,18.83c-.58-3.53-.51-7.34-2.65-7.61C-.76,10.8.1,4.12.1,4.12s8.52.57,8.81,6.25A8.94,8.94,0,0,0,10.79,16.06Z"/><path class="cls-2" d="M15.07,35.57H6.26V46.73c0,.66,2,1.2,4.4,1.2s4.36-.53,4.4-1.18h0Z"/><ellipse class="cls-3" cx="10.67" cy="35.63" rx="4.4" ry="1.19"/><rect class="cls-3" x="6.6" y="41.27" width="1.56" height="1.56" transform="translate(31.89 7.1) rotate(45)"/><rect class="cls-3" x="8.79" y="41.27" width="1.56" height="1.56" transform="translate(32.53 5.55) rotate(45)"/><rect class="cls-3" x="11" y="41.28" width="1.56" height="1.56" transform="translate(33.19 3.99) rotate(45)"/><rect class="cls-3" x="13.23" y="41.29" width="1.56" height="1.56" transform="translate(33.85 2.42) rotate(45)"/></g></g></svg>