<svg xmlns="http://www.w3.org/2000/svg" viewBox="0 0 169.18 311.97"><defs><style>.cls-1{fill:#040403;}.cls-2{fill:#e9a66b;}.cls-3{fill:#938353;}</style></defs><title>Fichier 6</title><g id="Calque_2" data-name="Calque 2"><g id="SOUVENIR"><path class="cls-1" d="M75.16,10s-4.65,5.88-10.38,5.88S54.4,13.23,54.4,10s4.65-5.88,10.38-5.88S75.16,10,75.16,10Z"/><path class="cls-1" d="M85.37,9S90,14.89,95.75,14.89,106.13,12.26,106.13,9s-4.65-5.88-10.38-5.88S85.37,9,85.37,9Z"/><path class="cls-2" d="M169.18,242.85c0,61-39.3,69.12-86,69.12S0,303.83,0,242.85,49.38,82.91,84.88,81.57C114.81,80.45,169.18,181.87,169.18,242.85Z"/><path class="cls-3" d="M84.85,92C52.56,93.2,7.65,183.22,7.65,238.69s33.14,62.87,75.64,62.87,78.25-7.41,78.25-62.87S112.08,91,84.85,92ZM83.37,294.76c-39.74,0-70.73-6.93-70.73-58.79s42-136,72.2-137.19c25.46-1,71.71,85.32,71.71,137.19S123.11,294.76,83.37,294.76Z"/><circle class="cls-3" cx="50.74" cy="217.87" r="12.82"/><path class="cls-3" d="M110,246a6.94,6.94,0,0,0,.4-2.26c0-5.13-5.74-9.29-12.82-9.29l-.49,0v-.08c0-5.13-5.74-9.29-12.82-9.29s-12.83,4.16-12.83,9.29c0,0,0,.09,0,.14a17.83,17.83,0,0,0-2.87-.24c-7.08,0-12.82,4.16-12.82,9.29a6.93,6.93,0,0,0,.7,3c-5.47,1.79-8.79,4.11-8.79,6.66,0,5.65,16.36,10.24,36.54,10.24s36.53-4.59,36.53-10.24C120.77,250.42,116.67,247.86,110,246Z"/><circle class="cls-3" cx="117.77" cy="217.29" r="13.41"/><path class="cls-3" d="M97.12,150.12,88,0,72.73.8,69.19,149.71a28,28,0,1,0,27.93.41Z"/><path class="cls-1" d="M108.72,267.38v0H58.81v0h-.07c-.48,0-.87,1.94-.87,4.33s.39,4.33.87,4.33H108.6a.19.19,0,0,0,.1,0c.49,0,.88-1.94.88-4.34S109.2,267.43,108.72,267.38Z"/><rect class="cls-1" x="72.54" y="6.35" width="1.09" height="266.7" transform="translate(1.48 -0.77) rotate(0.61)"/><rect class="cls-1" x="78.13" y="6.78" width="1.09" height="266.7"/><rect class="cls-1" x="84.27" y="7.13" width="1.09" height="266.7" transform="translate(-2.24 1.38) rotate(-0.92)"/><rect class="cls-1" x="89.69" y="7.09" width="1.09" height="266.7" transform="translate(-4.23 2.81) rotate(-1.74)"/></g></g></svg>