<svg xmlns="http://www.w3.org/2000/svg" viewBox="0 0 249.89 261.32"><defs><style>.cls-1{fill:#d3b8ae;}.cls-2{fill:#d39c62;}.cls-3{fill:#efb97d;}.cls-4{fill:#dda866;}.cls-5{fill:#0c0c0c;}</style></defs><title>Fichier 4</title><g id="Calque_2" data-name="Calque 2"><g id="ANINMAL"><path class="cls-1" d="M237.1,210.26c-2.29,0-22.62,9.77-26.51,13.74-1.44,1.47-3.51,3.74-5.54,6-2,6.56-12.85,15.29-21.09,20.79-9.68,6.47-61.64,5.75-78.1-2s-19.37-8.92-37.12-8.92-23.52,13.26-22.85,13.56c3.06,2.31.73,4.32-.2,4.77,1.48.13,2.89.33,3.76,1.21a1.51,1.51,0,0,1,.44.6,3.18,3.18,0,0,1,.26.59c-1.73.3-6.92-.77-7.59-.83s-4.45.53-5.19,1.21-7.9.14-11.91-.08c-3-.17-1.92-1.28-1.79-1.58s-19.56-2.84-22.42-3.43c-1.75-.36-1.34-1.92-.71-3.18,0-1.3,1.35-3.11,1.48-3.36s1.71,0,1.71,0c1.26-.62,9.45.94,9.45.94a68.87,68.87,0,0,0,8.54-.23c5.06-.42,8.86-4.58,11.7-8.74s12.65-8.88,17.08-11.1,31.31-2.08,33.52-1.94,13.6-5.83,15.18-6.52c.28-.12.64-.72,1-1.62-1.48-5.09-4-13.51-4.83-14.17-1.18-.95-1.18-2.85-.71-4.74s7.58-13.92,6.4-14.66-5.92-13.07-5.92-13.07l6.37.17-.44-.21,3,.08c-.79-.42-1.42-.72-1.42-.72l9.68.29s-3.22,27.11-1.93,28.26,1.93,4.31,1.61,4.88,2.08,10.7,2.74,13.52c2.28-.07,7.5-.19,18.62-.37,10.65-.17,21.43.52,28,1.06,4.36-3.53,12-9.31,15.23-9.53a74.54,74.54,0,0,0,10.11-1.68,20.27,20.27,0,0,1,5.93-1.9c.84-.44,1.25-.87,1-1.27-1.18-1.9-10.89-19-10.89-19-2.6-.52-6.78-11.85-6.78-11.85l7.73-2.79L187,186.55l16.65,17.74c4.33-4.64,11.48-16.75,11-17.09s1.26-2.64,1.26-2.64l-4.51-6.63,4.61-.27-.81-.43,9.45,3.56s-.32,3.16,1,4-6.78,16.39-8.39,18.55,2.58,2.73.64,3c-3.78.56-14.2,13.8-12.58,20.41a5.22,5.22,0,0,1,.12,1.38c3.7-3.51,8.46-8,9.76-9.08,2.22-1.84,20.68-9,20.68-9a13.12,13.12,0,0,1,3.55-2.89c2.74-1.74,9.6-1.33,10.51.1C245.32,208.73,239.38,210.26,237.1,210.26ZM98,202.05s6.39,2.64,5.44,3.37c-.74.58-2.06,1.22-.1,4,.52-2.44.8-4.37.59-4.74-.63-1.11-1.58-2.36-.31-3.19s1.8-12,1.88-14.31Z"/><path class="cls-2" d="M101.32,83.81s-4.73,38.36-5.92,40.49-1.18,6.39-.71,10.65,7.58,31.25,6.4,32.91a69.57,69.57,0,0,1-5.92,5.92l11.83-.71-9-40s6.39-5.92,5.44-7.58-2.84-3.55,2.37-15.39S101.32,83.81,101.32,83.81Z"/><path class="cls-2" d="M158.14,85.71s13.73,26.75,18.47,27.46,18.23,6.63,17,10.89-10.89,42.61-10.89,42.61c-2.6,1.19-7.1,8.76-7.1,8.76l8.05.71,3.31-8.28,19.89-47.59L169,83.58Z"/><path class="cls-3" d="M13.18,24.8S5,28.3,3.73,26.91c0,0-1.51.8-1.71,0S-1,17.76,1.76,16.47s22.1-6.8,22-7.44-1.15-3,1.76-3.41c3.92-.49,11-1.67,11.67-.19s2.68.92,3.33.79S48.25,2,50,2.68C49.36,6.85,45,7.05,43.06,7.43A9.48,9.48,0,0,1,44,18.2c-.65.64,6.52,33,23.91,33s20.24-2.49,36.37-19.31,67-18.37,76.53-4.36,22.45,37.69,20.87,52,8.62,43,12.33,44.22c1.9.62-2.21,1.87-.63,6.54s9.49,38.31,8.22,40.18-.94,8.72-.94,8.72l-9.49-1.25,4.74-5.6s-1.9-5-1.26-5.92S204.51,125.29,201.35,124s-12.34-2.49-15.5-8.41-18-25.22-18-25.22-17.39,4.36-34.47,3.73-20.23-.93-20.23-.93S110,122.8,110.27,124s-.32,8.1-1.58,10.59,1.9,38.62,1.9,38.62l-9.49.63s4.43-4.68,4.43-6.54-.64-31.15-1.9-33-.32-4.67.31-7.16-3.16-36.75-4.74-38.31S86.24,73.9,84,74.21s-29.09.62-33.52-4.36S36.27,54.28,33.42,44.93s-6.64-18.68-11.7-19.62A31.3,31.3,0,0,0,13.18,24.8Z"/><path class="cls-4" d="M237.1,114.63c-2.29,0-22.62-21.94-26.51-30.85-1.44-3.3-3.51-8.4-5.54-13.5C203,55.56,192.2,36,184,23.61c-9.68-14.53-61.64-12.91-78.1,4.52s-19.37,20-37.12,20S45.22,18.38,45.89,17.71C49,12.52,46.62,8,45.69,7c2-.4,3.86-1.07,4.46-5.39-1.73-.67-6.92,1.73-7.59,1.86S38.11,2.28,37.37.75,29.47.43,25.46.94c-3,.38-1.92,2.87-1.79,3.53S4.11,10.86,1.25,12.19,1.31,22.1,1.51,23s1.75,0,1.75,0c1.28,1.44,9.64-2.19,9.64-2.19a31.25,31.25,0,0,1,8.72.53c5.16,1,9,10.65,11.94,20.33S46.47,62.34,51,67.5,82.94,72.34,85.2,72s13.88,13.56,15.49,15.17,5.49,37.12,4.85,39.7-1.62,5.49-.33,7.42,1.94,32.28,1.94,34.21-4.52,6.78-4.52,6.78l9.68-.64s-3.22-37.44-1.93-40,1.93-9.68,1.61-11,2.91-31.95,2.91-31.95,3.22.32,20.65,1,35.18-3.88,35.18-3.88,15.17,20,18.4,26.15,12.59,7.42,15.81,8.71,14.2,42.93,13.56,43.9,1.29,6.13,1.29,6.13L215,179.5l9.68,1.29s-.32-7.1,1-9-6.78-36.79-8.39-41.63,2.58-6.14.64-6.78c-3.78-1.26-14.2-31-12.58-45.83a26.1,26.1,0,0,0,.12-3.1c3.7,7.89,8.46,18,9.76,20.39,2.22,4.13,20.68,20.17,20.68,20.17a26,26,0,0,0,3.55,6.51c2.74,3.88,9.6,3,10.51-.23C245.32,118.05,239.38,114.63,237.1,114.63Z"/><path class="cls-5" d="M26.49,7.85c2.37,0,4.29,1.57,4.29,3.52a2.81,2.81,0,0,1-.18,1,3,3,0,0,0,.67-1.89C31.27,8.53,29.35,7,27,7a4.25,4.25,0,0,0-4.11,2.52A4.55,4.55,0,0,1,26.49,7.85Z"/><ellipse class="cls-5" cx="24.43" cy="10.6" rx="0.82" ry="2.72"/></g></g></svg>