<svg xmlns="http://www.w3.org/2000/svg" viewBox="0 0 227.2 55.47"><defs><style>.cls-1{fill:#d3b8ae;}.cls-2{fill:#f7c6a4;}.cls-3{fill:#d8a27d;}.cls-4{fill:#bf9171;}.cls-5{fill:#f5bd95;}.cls-6{fill:#d06422;}.cls-7{fill:#cc6329;}.cls-8{fill:#da6d26;}.cls-9{fill:#ffe59b;}.cls-10{fill:#e98200;}.cls-11{fill:#ffc65c;}.cls-12{fill:#b56123;}.cls-13{fill:#8b3e00;}.cls-14{fill:#fd8000;}</style></defs><title>Fichier 3</title><g id="Calque_2" data-name="Calque 2"><g id="FOOD"><polygon class="cls-1" points="197.44 1.38 29.9 0 0 55.47 227.2 55.47 197.44 1.38"/><polygon class="cls-2" points="225.27 53.49 5.85 53.49 34.73 0 196.53 1.33 225.27 53.49"/><polygon class="cls-3" points="221.64 51.74 9.48 51.74 37.4 1.75 193.85 3 221.64 51.74"/><ellipse class="cls-4" cx="75.53" cy="34.24" rx="39.87" ry="6.96"/><path class="cls-5" d="M92.4,33.2a45.16,45.16,0,0,0,17.48-5.33S101.6,33.27,92.4,33.2Z"/><path class="cls-6" d="M48,32.21a87.06,87.06,0,0,0,18.79,3.33,102.23,102.23,0,0,0,37.25-4.16A115.89,115.89,0,0,1,75.1,35,119.71,119.71,0,0,1,48,32.21Z"/><ellipse class="cls-7" cx="74.52" cy="31.91" rx="24.21" ry="7.53"/><ellipse class="cls-8" cx="75.07" cy="23.69" rx="38.5" ry="11.97"/><path class="cls-9" d="M106.32,25.29c1.58-1.79-1.53-1.71-1.53-1.71,1.78-1.44-.42-1.37-.42-1.37,2.32-1.42-.29-1.42-.29-1.42,1.82-.82-.19-1.13-.19-1.13,1.08-.18.46-2,.46-2-.47-1.88-5.5-2.48-5.5-2.48-1.09-1.36-4.81-.38-4.81-.38a1.54,1.54,0,0,0-2.5-.15c-.38-1.58-2.59-.61-2.59-.61-.63-.93-3.13-.31-3.13-.31.14-1-2.33-.22-2.33-.22.88-1-2.87-.35-2.87-.35-.65-.88-3.32-.08-3.32-.08a1.75,1.75,0,0,0-3-.22c-.18-.57-2.09.27-2.09.27-.49-.91-1.8.05-1.8.05-.32-.93-1.39,0-1.39,0-.42-.86-1.43.11-1.43.11-1.2-1.17-2-.12-2-.12a.91.91,0,0,0-1-.07c-.37-.07-.71,0-.67.28,0,0-2-.59-1.21.58,0,0-2.09-.49-1.14.26,0,0-2-.42-.93.36,0,0-2.28-.4-1.33.39,0,0-2.52-.16-1.83.31,0,0-3.68-1-1.75.88,0,0-3,0-2.2.87,0,0-3.52.42-1.5.95,0,0-2.79,0-1.29.73,0,0-2.63.14-1.74,1,0,0-2.92-.2-.93,1.08,0,0-2.79-.75-1.53.72,0,0-4,.16-2.8,1.44.41.45.15.76,0,1.09-.19.59-.65.59-.53.89.2.5,1.5.52,1.72,1s-.54.58-.32.92,1.14.52,1.93.63c0,0-1,.72,1.48.9,0,0-1.8.63,1.83,1.13,0,0-1.63.48,1.67,1.13,0,0-2.29.69,1.36,1.65,0,0-1.1.78,3.51,1.17,0,0,.16,1.48,4.49.83,0,0,1.92,1.4,6,.45,0,0,2.05.35,2.51-.5,0,0,2.44.56,2.45-.28,0,0,1.89,1.12,2.37-.06,0,0,1.51.82,2.35-.29,0,0,1.34.76,1.45-.42a6.36,6.36,0,0,0,3-.14l.33.36A4.84,4.84,0,0,0,86,33C88,34,88,33,88,33c2.56.65,2.5-.43,2.5-.43,2.36.81,2.16-.61,2.16-.61a2.42,2.42,0,0,0,2.58-.46,3.61,3.61,0,0,0,3-.3c5.13-.39,4.49-2.05,4.49-2.05,4.82-.69,2.52-1.92,2.52-1.92C108.57,25.61,106.32,25.29,106.32,25.29Z"/><path class="cls-10" d="M77.85,20.6s.84,0,.07.27c0,0-2.62.46-3,.59,0,0-.93.07-.25-.23A20.61,20.61,0,0,1,77.85,20.6Z"/><path class="cls-6" d="M60.29,13.33S41.14,18.89,39,25C39,25,37,16.43,60.29,13.33Z"/><path class="cls-11" d="M76,16.85s-.72-.19.19-.25c0,0,2.82,0,3.3,0,0,0,.91.11,0,.25A26.54,26.54,0,0,1,76,16.85Z"/><path class="cls-11" d="M71.58,15s-.71-.19.19-.26c0,0,2.82.06,3.3,0,0,0,.91.11,0,.26A26.54,26.54,0,0,1,71.58,15Z"/><path class="cls-11" d="M85.91,18.31s-.72-.19.19-.26c0,0,2.82.06,3.3,0,0,0,.9.11,0,.26A26.55,26.55,0,0,1,85.91,18.31Z"/><path class="cls-11" d="M90.19,16.49a.4.4,0,0,1-.62,0A6,6,0,0,0,89.13,15s.13-.41.58,0C89.71,15,90.43,16.18,90.19,16.49Z"/><path class="cls-11" d="M59.13,16.16s-.19-.36.56-.13c0,0,1.9.92,2.33,1,0,0,.46.36-.42.18A12.81,12.81,0,0,1,59.13,16.16Z"/><path class="cls-11" d="M51.15,19.87s-.72-.19.19-.26c0,0,2.82.05,3.3,0,0,0,.91.11,0,.26A28.43,28.43,0,0,1,51.15,19.87Z"/><path class="cls-11" d="M86.38,26.78s-.72-.19.19-.26c0,0,2.82.06,3.3,0,0,0,.91.12,0,.26A26.54,26.54,0,0,1,86.38,26.78Z"/><path class="cls-11" d="M96.37,18.24s.78-.14.36.22a22.4,22.4,0,0,0-2,1.15s-.75.25-.47-.16A9,9,0,0,1,96.37,18.24Z"/><path class="cls-11" d="M68.66,21.33s.83,0,.21.25c0,0-2.3.72-2.59.89,0,0-.88.16-.37-.2A14.93,14.93,0,0,1,68.66,21.33Z"/><path class="cls-10" d="M60.89,21.85s.73-.19.43.19a14.38,14.38,0,0,0-1.58,1.27s-.66.3-.52-.12A6,6,0,0,1,60.89,21.85Z"/><path class="cls-10" d="M51.05,21.19s.22-.36.62,0a8.06,8.06,0,0,0,.94,1.38s0,.41-.57.07C52,22.65,50.92,21.51,51.05,21.19Z"/><path class="cls-10" d="M83.5,31.43s.83,0,.07.27c0,0-2.62.46-3,.6,0,0-.94.06-.25-.24A21.9,21.9,0,0,1,83.5,31.43Z"/><path class="cls-10" d="M88.19,27.87s-.79.11-.32-.23A23.78,23.78,0,0,0,90,26.53s.78-.23.45.17A10.32,10.32,0,0,1,88.19,27.87Z"/><path class="cls-10" d="M79.36,16.54s.83,0,.07.27c0,0-2.62.46-3,.6,0,0-.93.06-.24-.24A21.9,21.9,0,0,1,79.36,16.54Z"/><path class="cls-10" d="M95.72,19.17s.83,0,.07.27c0,0-2.62.46-3,.6,0,0-.94.06-.25-.24A21.9,21.9,0,0,1,95.72,19.17Z"/><path class="cls-11" d="M49.8,22.33s.83,0,.21.25c0,0-2.3.72-2.6.89,0,0-.87.16-.36-.2A14.93,14.93,0,0,1,49.8,22.33Z"/><path class="cls-11" d="M60.43,30.09s.83-.05.21.25c0,0-2.3.72-2.59.89,0,0-.88.16-.37-.2A15.21,15.21,0,0,1,60.43,30.09Z"/><path class="cls-11" d="M64.62,31.58s.67.22-.25.25c0,0-2.79-.18-3.28-.14,0,0-.88-.16.06-.26A27.69,27.69,0,0,1,64.62,31.58Z"/><path class="cls-12" d="M60.77,25.42a7.63,7.63,0,0,1,3.09-1.08,5.81,5.81,0,0,1,3.45-.56s2.81.55,2.58.77a2.94,2.94,0,0,1-1.27,1.35s-.23.44-2.36.37a3.46,3.46,0,0,1-1.76.39c-.3-.11-1.61,0-2.35-.08a2,2,0,0,1-1-.51A.82.82,0,0,1,60.77,25.42Z"/><path class="cls-13" d="M61.62,26.42l.33.12,1,.34,1.08.3a16.1,16.1,0,0,1,2.17-.64,16.69,16.69,0,0,0,1.83,0s.65-.39.54-.6Z"/><path class="cls-12" d="M60.77,17.82c-.34-.48,0-1,.85-1.23a5.34,5.34,0,0,1,2-.12l.85-.1c.41-.05.78-.12,1.12-.18a4.5,4.5,0,0,1,2.68.41.55.55,0,0,1,.23.5,1.9,1.9,0,0,1-.85,1.44A11,11,0,0,0,64,17.7,14.8,14.8,0,0,0,60.77,17.82Z"/><path class="cls-12" d="M77.82,22.9l.08.63q.87.11,1.83.27L80.8,24a11.17,11.17,0,0,0,5.31-.33s-.54-1.81-1-2C85.15,21.69,80.08,23.25,77.82,22.9Z"/><path class="cls-12" d="M73.69,30.15s.08.63.4.61l-.32,0c.58.08,1.2.16,1.84.27l1.07.2a11,11,0,0,0,5.3-.34s-.53-1.81-1-2C81,28.94,76,30.5,73.69,30.15Z"/><polygon class="cls-14" points="70.98 28.96 72.94 28.08 78.2 28.52 78.56 30.01 73.43 30.68 70.98 30.68 70.98 28.96"/><path class="cls-14" d="M54,21.91h3.11s-.7,3,0,3.22H54l-1.63-1.29Z"/><polygon class="cls-14" points="95.49 25.25 98.86 24.45 101.36 25.25 101.88 27.51 99.46 28.15 95.49 25.25"/><path class="cls-14" d="M82.27,16l2-.61,4,.61v1.58L86,17.75a38.63,38.63,0,0,0-3.77-.94C81.58,16.78,82.27,16,82.27,16Z"/><path class="cls-14" d="M67.61,17.5l.29,1.36s-7,0-7.32.3l-.29-1.36L63.06,17Z"/></g></g></svg>