<svg id="Calque_1" data-name="Calque 1" xmlns="http://www.w3.org/2000/svg" viewBox="0 0 297.03 252.39"><defs><style>.cls-1{fill:#4a2910;}</style></defs><title>F</title><path class="cls-1" d="M630.92,595.27s-39.8-20.14-51.59-31.94c0,0-36.36-24.56-66.33,0,0,0-37.34,34.89-48.64,33.41,0,0-38.82-2-22.11-48.15,0,0,55-102.19,52.08-114.48,0,0-3.35-52.67-29.18-56.44v0c-8.8-3.12-20.11-4.52-32.3-3.46-26.5,2.3-47,15.25-45.84,28.91s23.64,22.88,50.14,20.58a91.8,91.8,0,0,0,12.42-2l-1.34,3.78s-37.48,39.66-46.5,94.92c0,0-19.49,89.25,59.82,105.81,0,0,21.79,1.31,45.76-28.76,0,0,18.31-39.66,75-14,0,0,51,26.59,65.37,27,0,0,22.59.78,36.35-15.3C684,595.27,657.45,613.94,630.92,595.27Z" transform="translate(-386.95 -373.88)"/></svg>