<svg id="Calque_1" data-name="Calque 1" xmlns="http://www.w3.org/2000/svg" viewBox="0 0 91.63 294.08"><defs><style>.cls-1{fill:#4a2910;}</style></defs><title>H</title><path class="cls-1" d="M543.48,478.57a45.78,45.78,0,0,0-23.34-39.9,45.82,45.82,0,1,0-44.94,0,45.77,45.77,0,0,0,3.87,81.75,45.78,45.78,0,0,0-2.66,82.41,45.79,45.79,0,0,0-24.56,40.57c0,1.23.09,2.43.19,3.64h12a34,34,0,1,1,67.57,0h11.7c.09-1.21.18-2.41.18-3.64a45.78,45.78,0,0,0-24.55-40.57,45.78,45.78,0,0,0-2.67-82.41A45.79,45.79,0,0,0,543.48,478.57Zm-79.65-79.8a34,34,0,1,1,34,34A34,34,0,0,1,463.83,398.77Zm68,163.5a34,34,0,1,1-34-34A34,34,0,0,1,531.8,562.27Zm-34-49.71a34,34,0,1,1,34-34A34,34,0,0,1,497.82,512.56Z" transform="translate(-451.85 -352.96)"/></svg>