<svg id="Calque_1" data-name="Calque 1" xmlns="http://www.w3.org/2000/svg" viewBox="0 0 364.32 41.62"><defs><style>.cls-1{fill:#4a2910;}</style></defs><title>N</title><polygon class="cls-1" points="0 31.38 32.75 0 53.9 21.15 77.78 0 96.88 21.83 119.39 0 139.86 20.47 161.69 0 183.18 21.15 203.99 0 225.82 20.47 248.34 0 268.12 19.79 290.64 0 312.47 21.15 331.57 0 364.32 31.38 355.45 41.62 333.51 20.81 313.61 41.62 290.66 20.81 269.61 41.62 248.19 20.81 226.76 41.62 205.34 20.81 183.18 41.62 162.49 20.81 140.68 41.62 119.64 20.81 97.83 41.62 76.78 20.81 53.83 41.62 33.55 20.81 12.89 41.62 0 31.38"/></svg>