<svg xmlns="http://www.w3.org/2000/svg" viewBox="0 0 145.62 53.59"><defs><style>.cls-1{fill:#caca71;}.cls-2{fill:#f7ede1;}.cls-3{fill:#d8c6b3;}.cls-4{fill:#363d4a;}.cls-5{fill:#4b5366;}.cls-6{fill:#fff1cf;}.cls-7{fill:#efe4ca;}.cls-8{fill:#e5861f;}.cls-9{fill:#f49537;}.cls-10{fill:#187d1f;}.cls-11{fill:#288c29;}.cls-12{fill:#c3794f;}.cls-13{fill:#c7936d;}</style></defs><title>Fichier 2</title><g id="Calque_2" data-name="Calque 2"><g id="FOOD"><polygon class="cls-1" points="126.55 1.34 19.16 0 0 53.59 145.62 53.59 126.55 1.34"/><polygon class="cls-2" points="144.38 51.69 3.75 51.69 22.26 0 125.97 1.29 144.38 51.69"/><polygon class="cls-3" points="142.06 50 6.07 50 23.97 1.69 124.25 2.89 142.06 50"/><path class="cls-4" d="M92.52,32.09C90.07,33.23,84.24,34,77.43,34s-12.64-.8-15.08-1.94c-.79.37-1.23.77-1.23,1.19,0,1.74,7.3,3.14,16.31,3.14S93.75,35,93.75,33.28C93.75,32.86,93.31,32.46,92.52,32.09Z"/><path class="cls-5" d="M105.75,24.54c-4.54,2.55-15.37,4.35-28,4.35s-23.47-1.8-28-4.35c-1.47.83-2.29,1.73-2.29,2.68,0,3.89,13.57,7,30.3,7s30.31-3.14,30.31-7C108,26.27,107.22,25.37,105.75,24.54Z"/><path class="cls-6" d="M108.16,24.29c1.49-1.42-1.44-1.35-1.44-1.35,1.67-1.14-.4-1.09-.4-1.09,2.19-1.12-.27-1.12-.27-1.12,1.72-.65-.18-.9-.18-.9,1-.14.43-1.55.43-1.55-.43-1.49-5.18-2-5.18-2-1-1.08-4.53-.3-4.53-.3a1.64,1.64,0,0,0-2.37-.12c-.36-1.25-2.44-.48-2.44-.48-.59-.74-3-.25-3-.25.13-.77-2.2-.18-2.2-.18.84-.78-2.7-.27-2.7-.27-.62-.7-3.14-.06-3.14-.06A1.82,1.82,0,0,0,78,14.47c-.16-.45-2,.21-2,.21-.46-.71-1.7,0-1.7,0C74,14,73,14.7,73,14.7c-.4-.68-1.35.09-1.35.09-1.13-.93-1.87-.1-1.87-.1a1,1,0,0,0-1,0c-.35-.06-.67,0-.63.22,0,0-1.93-.47-1.14.46,0,0-2-.39-1.08.21,0,0-1.91-.33-.87.28,0,0-2.15-.32-1.26.31,0,0-2.37-.13-1.72.24,0,0-3.48-.8-1.66.71,0,0-2.82,0-2.06.68,0,0-3.33.34-1.42.76,0,0-2.63,0-1.22.58,0,0-2.48.1-1.64.78,0,0-2.75-.15-.88.86,0,0-2.63-.6-1.44.57,0,0-3.75.12-2.64,1.14.39.36.14.6,0,.86-.18.47-.61.47-.5.71.18.4,1.41.41,1.62.81s-.51.46-.3.73a3.69,3.69,0,0,0,1.81.49s-.89.58,1.41.72c0,0-1.71.5,1.72.9,0,0-1.53.38,1.57.89,0,0-2.16.55,1.29,1.31,0,0-1,.62,3.31.93,0,0,.15,1.17,4.23.65,0,0,1.81,1.12,5.7.36,0,0,1.93.28,2.37-.4,0,0,2.3.45,2.31-.22,0,0,1.79.89,2.24-.05,0,0,1.42.66,2.21-.22,0,0,1.27.6,1.37-.34a7,7,0,0,0,2.87-.11l.32.29A5.28,5.28,0,0,0,89,30.44c1.91.73,1.84-.05,1.84-.05,2.41.52,2.36-.34,2.36-.34,2.22.65,2-.49,2-.49a2.59,2.59,0,0,0,2.44-.36,3.93,3.93,0,0,0,2.83-.23c4.85-.31,4.24-1.63,4.24-1.63,4.54-.55,2.37-1.52,2.37-1.52C110.28,24.55,108.16,24.29,108.16,24.29Z"/><path class="cls-7" d="M108.16,25c1.49-1.28-1.44-1.22-1.44-1.22,1.67-1-.4-1-.4-1,2.19-1-.27-1-.27-1,1.72-.59-.18-.82-.18-.82,1-.12.43-1.4.43-1.4-.43-1.35-5.18-1.78-5.18-1.78-1-1-4.53-.27-4.53-.27a1.76,1.76,0,0,0-2.37-.11c-.36-1.13-2.44-.44-2.44-.44-.59-.66-3-.22-3-.22.13-.7-2.2-.16-2.2-.16.84-.71-2.7-.25-2.7-.25-.62-.62-3.14-.05-3.14-.05A1.94,1.94,0,0,0,78,16.15c-.16-.41-2,.19-2,.19-.46-.65-1.7,0-1.7,0-.31-.67-1.31,0-1.31,0-.4-.62-1.35.07-1.35.07a1.37,1.37,0,0,0-1.87-.08,1.12,1.12,0,0,0-1-.05c-.35-.05-.67,0-.63.2,0,0-1.93-.43-1.14.41,0,0-2-.35-1.08.19,0,0-1.91-.3-.87.26,0,0-2.15-.29-1.26.28,0,0-2.37-.12-1.72.22,0,0-3.48-.73-1.66.64,0,0-2.82,0-2.06.61,0,0-3.33.31-1.42.69,0,0-2.63,0-1.22.52,0,0-2.48.1-1.64.71,0,0-2.75-.14-.88.78,0,0-2.63-.54-1.44.51,0,0-3.75.12-2.64,1,.39.32.14.54,0,.78-.18.42-.61.42-.5.64s1.41.37,1.62.73-.51.41-.3.66a4,4,0,0,0,1.81.45s-.89.52,1.41.64c0,0-1.71.46,1.72.82,0,0-1.53.34,1.57.81,0,0-2.16.49,1.29,1.18,0,0-1,.56,3.31.84,0,0,.15,1.06,4.23.59,0,0,1.81,1,5.7.33,0,0,1.93.25,2.37-.36,0,0,2.3.4,2.31-.2,0,0,1.79.8,2.24-.05,0,0,1.42.59,2.21-.2,0,0,1.27.54,1.37-.31a7.85,7.85,0,0,0,2.87-.09l.32.25A5.77,5.77,0,0,0,89,30.6c1.91.65,1.84-.05,1.84-.05,2.41.47,2.36-.31,2.36-.31,2.22.59,2-.44,2-.44a2.82,2.82,0,0,0,2.44-.33,4.27,4.27,0,0,0,2.83-.21c4.85-.28,4.24-1.47,4.24-1.47,4.54-.5,2.37-1.38,2.37-1.38C110.28,25.27,108.16,25,108.16,25Z"/><path class="cls-8" d="M74.92,31.1s.85.76-1.24.67c0,0,.12.83-2.07.57a1.44,1.44,0,0,1-1.29-.11,1,1,0,0,1-1.13,0s0,.68-1,.1c0,0-.07.5-1.09,0,0,0,0,.46-.82-.14A1.9,1.9,0,0,1,64.4,32l-.11-.19a2.49,2.49,0,0,1-1.29-.2c-.16.54-.65.08-.65.08-.46.44-1-.07-1-.07-.31.5-1-.17-1-.17-.09.38-1.06-.08-1.06-.08-.27.36-1.1,0-1.1,0a3,3,0,0,1-2.49-.72c-1.88-.06-1.81-.76-1.81-.76C52,29.31,52.52,29,52.52,29c-1.44-.75-.42-.87-.42-.87-1.32-.58-.59-.66-.59-.66-1.48-.54-.67-.68-.67-.68-1-.29-.54-.54-.54-.54-.31-.12-.69-.28-.75-.46s.26-.2.22-.39-.59-.37-.62-.62.17-.11.3-.36.22-.27.09-.51c-.29-.52.61-.5,1.06-.46l.25,0a.47.47,0,0,1-.08-.34l0-.06c.18-.1.73.19.73.19-.71-.75.49-.42.49-.42-.29-.46.82-.3.82-.3-.56-.45.62-.23.62-.23-.8-.42.71-.32.71-.32-.26-.44,1-.21,1-.21-.63-1,.82-.26.82-.26-.24-.28.8,0,.8,0-.33-.45.59-.07.59-.07-.36-.42.3-.14.41-.1-.29-.4.52,0,.52,0-.25-.61.56-.16.56-.16,0-.16.16-.14.3-.08s.24-.05.43.12c0,0,.42-.42.82.22,0,0,.51-.36.61.07,0,0,.53-.32.58.13,0,0,.64-.33.76.13,0,0,.88-.23.9.05a.72.72,0,0,1,1.23.36s1.19-.15,1.38.31c0,0,1.64,0,1.17.41,0,0,1.11-.14,1,.3,0,0,1.11-.08,1.29.4,0,0,1-.26,1,.5a.62.62,0,0,1,1,.28s1.65-.14,2,.58c0,0,2.06.71,2.08,1.61,0,0,.09.87-.37.87.1,0,.75.33,0,.54,0,0,1.09.22,0,.68,0,0,.93.15,0,.67,0,0,1.31.22.48.91l.12.06C75.86,30.48,76.08,30.76,74.92,31.1Z"/><path class="cls-9" d="M75.56,30.3l.12.06a5.56,5.56,0,0,1-.58,0s.12.82-2.08.57a1.4,1.4,0,0,1-1.28-.12,1,1,0,0,1-1.13,0s0,.68-1,.11c0,0-.08.5-1.09,0,0,0-.06.46-.82-.13a1.93,1.93,0,0,1-1.93-.2l-.11-.2a2.42,2.42,0,0,1-1.29-.19c-.15.53-.65.07-.65.07-.45.44-1-.06-1-.06-.31.5-1-.18-1-.18-.08.39-1-.07-1-.07-.28.35-1.1,0-1.1,0a3.06,3.06,0,0,1-2.5-.72c-1.87-.07-1.8-.76-1.8-.76-1.9-.57-1.37-.84-1.37-.84-1.44-.75-.42-.88-.42-.88-1.32-.58-.59-.66-.59-.66-1.48-.54-.66-.68-.66-.68-1-.28-.54-.54-.54-.54-.32-.11-.69-.28-.75-.45s.25-.2.22-.4-.46-.34-.59-.53a.2.2,0,0,1,0-.08c0-.11.1-.12.21-.23l0-.06c.18-.1.73.19.73.19-.71-.75.49-.42.49-.42-.29-.46.82-.3.82-.3-.56-.45.62-.23.62-.23-.8-.42.71-.32.71-.32-.26-.44,1-.21,1-.21-.63-1,.82-.26.82-.26-.24-.28.8,0,.8,0-.33-.45.59-.07.59-.07-.36-.42.3-.14.41-.1-.29-.4.52,0,.52,0-.25-.61.56-.16.56-.16,0-.16.16-.14.3-.08s.24-.05.43.12c0,0,.42-.42.82.22,0,0,.51-.36.61.07,0,0,.53-.32.58.13,0,0,.64-.33.76.13,0,0,.88-.23.9.05a.72.72,0,0,1,1.23.36s1.19-.15,1.38.31c0,0,1.64,0,1.17.41,0,0,1.11-.14,1,.3,0,0,1.11-.08,1.29.4,0,0,1-.26,1,.5a.62.62,0,0,1,1,.28s1.65-.14,2,.58c0,0,2.06.71,2.08,1.61,0,0,.09.87-.37.87.1,0,.75.33,0,.54,0,0,1.09.22,0,.68,0,0,.93.15,0,.67C75.08,29.39,76.39,29.61,75.56,30.3Z"/><path class="cls-10" d="M88.78,29.94s-.72,1.12,1,1c0,0-.1,1.22,1.75.84a.78.78,0,0,0,1.09-.16.56.56,0,0,0,1,0s0,1,.81.15c0,0,.06.74.92,0,0,0,0,.67.69-.21,0,0,.74.72,1.62-.29l.09-.28c.42.2,1.09-.29,1.09-.29.13.79.55.11.55.11.39.65.85-.1.85-.1.26.73.84-.25.84-.25.08.56.9-.12.9-.12.22.53.92,0,.92,0a2.09,2.09,0,0,0,2.1-1.05c1.59-.09,1.53-1.12,1.53-1.12,1.59-.84,1.15-1.23,1.15-1.23,1.21-1.1.35-1.28.35-1.28,1.11-.85.5-1,.5-1,1.25-.79.56-1,.56-1,.85-.42.46-.79.46-.79.26-.17.58-.41.63-.67s-.22-.3-.18-.58.49-.54.52-.91c0-.22-.14-.16-.25-.52a1,1,0,0,1-.08-.75c.24-.76-.51-.74-.89-.68a1.16,1.16,0,0,0-.21.05,1.14,1.14,0,0,0,.06-.5.36.36,0,0,0,0-.09c-.15-.15-.62.28-.62.28.6-1.1-.41-.62-.41-.62.25-.67-.69-.44-.69-.44.47-.66-.52-.34-.52-.34.67-.61-.6-.46-.6-.46.22-.65-.84-.31-.84-.31.53-1.53-.7-.38-.7-.38.21-.42-.67,0-.67,0,.28-.66-.5-.1-.5-.1.31-.62-.25-.21-.34-.15.24-.59-.44,0-.44,0,.21-.9-.47-.24-.47-.24,0-.23-.14-.2-.26-.12-.08-.07-.2-.07-.36.18,0,0-.35-.62-.69.32,0,0-.43-.53-.52.11,0,0-.44-.47-.48.19,0,0-.54-.49-.65.19,0,0-.74-.34-.75.07,0,0-.69-1.06-1,.53,0,0-1-.22-1.17.45,0,0-1.38,0-1,.61,0,0-.94-.21-.81.44,0,0-.94-.12-1.09.58,0,0-.85-.38-.87.74,0,0-.52-.8-.87.41,0,0-1.39-.21-1.67.85,0,0-1.73,1-1.75,2.36,0,0-.08,1.28.31,1.28-.08.06-.63.48,0,.79,0,0-.92.32,0,1,0,0-.79.22,0,1a.8.8,0,0,0-.4,1.34.44.44,0,0,0-.1.09C88,29,87.8,29.44,88.78,29.94Z"/><path class="cls-11" d="M88.24,28.77a.44.44,0,0,0-.1.09,4,4,0,0,0,.49,0s-.1,1.2,1.75.83a.76.76,0,0,0,1.08-.17s.51.61,1,0c0,0,0,1,.81.16,0,0,.07.74.92,0,0,0,0,.68.69-.19,0,0,.75.72,1.63-.29l.09-.29c.42.22,1.09-.28,1.09-.28.13.77.55.1.55.1.38.64.85-.09.85-.09.26.73.84-.26.84-.26.07.57.89-.11.89-.11.24.52.93,0,.93,0a2.11,2.11,0,0,0,2.11-1.05c1.57-.11,1.51-1.12,1.51-1.12,1.6-.84,1.16-1.23,1.16-1.23,1.21-1.1.35-1.29.35-1.29,1.12-.85.5-1,.5-1,1.25-.79.56-1,.56-1,.85-.41.45-.79.45-.79.27-.16.58-.41.63-.66s-.21-.3-.18-.59.39-.5.5-.78l0-.11c0-.17-.08-.18-.18-.34a.36.36,0,0,0,0-.09c-.15-.15-.62.28-.62.28.6-1.1-.41-.62-.41-.62.25-.67-.69-.44-.69-.44.47-.66-.52-.34-.52-.34.67-.61-.6-.46-.6-.46.22-.65-.84-.31-.84-.31.53-1.53-.7-.38-.7-.38.21-.42-.67,0-.67,0,.28-.66-.5-.1-.5-.1.31-.62-.25-.21-.34-.15.24-.59-.44,0-.44,0,.21-.9-.47-.24-.47-.24,0-.23-.14-.2-.26-.12-.08-.07-.2-.07-.36.18,0,0-.35-.62-.69.32,0,0-.43-.53-.52.11,0,0-.44-.47-.48.19,0,0-.54-.49-.65.19,0,0-.74-.34-.75.07,0,0-.69-1.06-1,.53,0,0-1-.22-1.17.45,0,0-1.38,0-1,.61,0,0-.94-.21-.81.44,0,0-.94-.12-1.09.58,0,0-.85-.38-.87.74,0,0-.52-.8-.87.41,0,0-1.39-.21-1.67.85,0,0-1.73,1-1.75,2.36,0,0-.08,1.28.31,1.28-.08.06-.63.48,0,.79,0,0-.92.32,0,1,0,0-.79.22,0,1A.8.8,0,0,0,88.24,28.77Z"/><path class="cls-12" d="M84.46,28.35c1.57-.24,7-.17,6.53-1.86a2.22,2.22,0,0,0-2.26-1.67,3.36,3.36,0,0,0-1.18.19c-1.26.43-1.81,1-3.74,1.06a1.66,1.66,0,0,0-.33,0C82,26.39,83,28.58,84.46,28.35Z"/><path class="cls-13" d="M84.77,27.53c1.25-.18,5.56-.13,5.18-1.47a1.69,1.69,0,0,0-1.22-1.24,3.36,3.36,0,0,0-1.18.19c-1.26.43-1.81,1-3.74,1.06a1.66,1.66,0,0,0-.33,0C83.21,26.68,83.88,27.67,84.77,27.53Z"/><path class="cls-12" d="M81.54,31c1.58,0,7,.87,6.73-.87a2.24,2.24,0,0,0-2-2,3.45,3.45,0,0,0-1.2,0c-1.31.24-1.93.77-3.85.5a1.94,1.94,0,0,0-.33,0C79.4,28.66,80.05,31,81.54,31Z"/><path class="cls-13" d="M82,30.2c1.25,0,5.51.69,5.33-.69a1.69,1.69,0,0,0-1-1.41,3.45,3.45,0,0,0-1.2,0c-1.31.24-1.93.77-3.85.5a1.94,1.94,0,0,0-.33,0A1.17,1.17,0,0,0,82,30.2Z"/><path class="cls-12" d="M89.31,29.38c1.59,0,7,.87,6.74-.87a2.24,2.24,0,0,0-2-2,3.45,3.45,0,0,0-1.2,0c-1.31.24-1.94.77-3.85.5a1.27,1.27,0,0,0-.33,0C87.18,27.08,87.83,29.38,89.31,29.38Z"/><path class="cls-13" d="M89.74,28.61c1.26,0,5.52.7,5.34-.68a1.69,1.69,0,0,0-1-1.41,3.45,3.45,0,0,0-1.2,0c-1.31.24-1.94.77-3.85.5a1.27,1.27,0,0,0-.33,0A1.16,1.16,0,0,0,89.74,28.61Z"/><path class="cls-12" d="M90.49,31c1.59,0,7,.87,6.74-.87a2.24,2.24,0,0,0-2-2,3.45,3.45,0,0,0-1.2,0c-1.31.24-1.94.77-3.85.5a1.27,1.27,0,0,0-.33,0C88.36,28.73,89,31,90.49,31Z"/><path class="cls-13" d="M90.92,30.26c1.26,0,5.52.7,5.34-.68a1.69,1.69,0,0,0-1-1.41,3.45,3.45,0,0,0-1.2,0c-1.31.24-1.94.77-3.85.5a1.27,1.27,0,0,0-.33,0A1.15,1.15,0,0,0,90.92,30.26Z"/><path class="cls-12" d="M78.7,29.38c1.59,0,7,.87,6.74-.87a2.24,2.24,0,0,0-2-2,3.45,3.45,0,0,0-1.2,0c-1.31.24-1.94.77-3.85.5a1.27,1.27,0,0,0-.33,0C76.57,27.08,77.22,29.38,78.7,29.38Z"/><path class="cls-13" d="M79.13,28.61c1.26,0,5.52.7,5.34-.68a1.69,1.69,0,0,0-1-1.41,3.45,3.45,0,0,0-1.2,0c-1.31.24-1.94.77-3.85.5a1.27,1.27,0,0,0-.33,0A1.16,1.16,0,0,0,79.13,28.61Z"/><path class="cls-12" d="M78.94,32.6c1.59,0,7,.88,6.74-.87a2.24,2.24,0,0,0-2-2,3.45,3.45,0,0,0-1.2,0c-1.31.24-1.94.77-3.85.5a2.12,2.12,0,0,0-.34,0C76.81,30.3,77.45,32.6,78.94,32.6Z"/><path class="cls-13" d="M79.37,31.84c1.26,0,5.52.69,5.34-.69a1.71,1.71,0,0,0-1-1.41,3.45,3.45,0,0,0-1.2,0c-1.31.24-1.94.77-3.85.5a2.12,2.12,0,0,0-.34,0A1.17,1.17,0,0,0,79.37,31.84Z"/><path class="cls-12" d="M85.78,31.69c1.07.12,4.66,1.41,4.52-.35A2.23,2.23,0,0,0,89,29.21a1.59,1.59,0,0,0-.8-.08c-.88.13-1.31.61-2.59.2a.64.64,0,0,0-.22,0C84.37,29.24,84.79,31.58,85.78,31.69Z"/><path class="cls-13" d="M86.08,31c.84.1,3.69,1.12,3.58-.27A2,2,0,0,0,89,29.21a1.59,1.59,0,0,0-.8-.08c-.88.13-1.31.61-2.59.2a.64.64,0,0,0-.22,0C85.14,29.78,85.47,30.9,86.08,31Z"/><path class="cls-12" d="M86.12,29.26c1.06.12,4.65,1.4,4.52-.35a2.25,2.25,0,0,0-1.32-2.13,1.58,1.58,0,0,0-.8-.09c-.88.14-1.31.62-2.58.2a.7.7,0,0,0-.23,0C84.71,26.8,85.12,29.15,86.12,29.26Z"/><path class="cls-13" d="M86.41,28.53c.84.1,3.69,1.11,3.58-.28a1.93,1.93,0,0,0-.67-1.47,1.58,1.58,0,0,0-.8-.09c-.88.14-1.31.62-2.58.2a.7.7,0,0,0-.23,0C85.47,27.35,85.8,28.46,86.41,28.53Z"/><path class="cls-12" d="M79.2,31.22c1.06.12,4.66,1.41,4.52-.34a2.23,2.23,0,0,0-1.31-2.14,1.62,1.62,0,0,0-.81-.08c-.88.13-1.3.62-2.58.2a.64.64,0,0,0-.22,0C77.79,28.77,78.21,31.11,79.2,31.22Z"/><path class="cls-13" d="M79.5,30.49c.84.1,3.68,1.12,3.58-.27a2,2,0,0,0-.67-1.48,1.62,1.62,0,0,0-.81-.08c-.88.13-1.3.62-2.58.2a.64.64,0,0,0-.22,0C78.56,29.31,78.89,30.43,79.5,30.49Z"/><path class="cls-12" d="M75.21,32.39c1.07.12,4.66,1.41,4.52-.34a2.24,2.24,0,0,0-1.31-2.14,1.58,1.58,0,0,0-.8-.08c-.88.13-1.31.62-2.59.2a.6.6,0,0,0-.22,0C73.81,29.94,74.22,32.28,75.21,32.39Z"/><path class="cls-13" d="M75.51,31.67c.84.09,3.69,1.11,3.58-.28a2,2,0,0,0-.67-1.48,1.58,1.58,0,0,0-.8-.08c-.88.13-1.31.62-2.59.2a.6.6,0,0,0-.22,0C74.57,30.48,74.9,31.6,75.51,31.67Z"/><path class="cls-12" d="M76.57,30.87c.74-.38,4-.78,2.42-2.4C77.85,27.33,76.93,27,76.34,27a.78.78,0,0,0-.55.29c-.41.53-.25,1.19-1.38,1.37a.34.34,0,0,0-.17.06C73.59,29.15,75.87,31.21,76.57,30.87Z"/><path class="cls-13" d="M76.12,30c.59-.29,3.18-.61,1.91-1.89A3.73,3.73,0,0,0,76.34,27a.78.78,0,0,0-.55.29c-.41.53-.25,1.19-1.38,1.37a.34.34,0,0,0-.17.06C74.52,29.33,75.69,30.25,76.12,30Z"/><path class="cls-12" d="M84.74,33.25c1.09-.12,5.26.76,4.16-1.79-.78-1.81-1.71-2.63-2.45-2.79a1.08,1.08,0,0,0-.82.11c-.77.45-.92,1.28-2.38,1a.49.49,0,0,0-.24,0C82,30,83.72,33.37,84.74,33.25Z"/><path class="cls-13" d="M84.62,32.09c.86-.09,4.17.6,3.3-1.42a4.37,4.37,0,0,0-1.47-2,1.08,1.08,0,0,0-.82.11c-.77.45-.92,1.28-2.38,1a.49.49,0,0,0-.24,0C83.06,30.61,84,32.17,84.62,32.09Z"/><path class="cls-12" d="M80.45,27.21c.85.14,3.74,1.5,3.61-.28C84,25.68,83.49,25,83,24.76a1,1,0,0,0-.64-.1c-.7.12-1,.6-2.06.16a.83.83,0,0,0-.18-.05C79.29,24.71,79.66,27.08,80.45,27.21Z"/><path class="cls-13" d="M80.68,26.48c.67.11,3,1.19,2.85-.22a2.26,2.26,0,0,0-.56-1.5,1,1,0,0,0-.64-.1c-.7.12-1,.6-2.06.16a.83.83,0,0,0-.18-.05C79.91,25.27,80.19,26.4,80.68,26.48Z"/><path class="cls-12" d="M90.28,26.82c1.07.12,4.66,1.41,4.52-.35a2.23,2.23,0,0,0-1.31-2.13,1.59,1.59,0,0,0-.8-.08c-.88.13-1.31.61-2.59.2a.64.64,0,0,0-.22,0C88.87,24.37,89.29,26.71,90.28,26.82Z"/><path class="cls-13" d="M90.58,26.09c.84.1,3.69,1.12,3.58-.27a2,2,0,0,0-.67-1.48,1.59,1.59,0,0,0-.8-.08c-.88.13-1.31.61-2.59.2a.64.64,0,0,0-.22,0C89.64,24.91,90,26,90.58,26.09Z"/><path class="cls-12" d="M85.05,26.44c1.06.11,4.65,1.4,4.52-.35A2.27,2.27,0,0,0,88.26,24a1.74,1.74,0,0,0-.81-.08c-.88.14-1.3.62-2.58.2a.66.66,0,0,0-.23,0C83.64,24,84.05,26.32,85.05,26.44Z"/><path class="cls-13" d="M85.34,25.71c.85.1,3.69,1.11,3.59-.28A2,2,0,0,0,88.26,24a1.74,1.74,0,0,0-.81-.08c-.88.14-1.3.62-2.58.2a.66.66,0,0,0-.23,0C84.4,24.53,84.74,25.64,85.34,25.71Z"/><path class="cls-12" d="M88.85,31.36c1.07.12,4.66,1.4,4.52-.35a2.25,2.25,0,0,0-1.31-2.14,1.7,1.7,0,0,0-.8-.08c-.88.14-1.31.62-2.59.2a.6.6,0,0,0-.22,0C87.45,28.9,87.86,31.24,88.85,31.36Z"/><path class="cls-13" d="M89.15,30.63c.84.1,3.69,1.11,3.58-.28a2,2,0,0,0-.67-1.48,1.7,1.7,0,0,0-.8-.08c-.88.14-1.31.62-2.59.2a.6.6,0,0,0-.22,0C88.21,29.45,88.54,30.56,89.15,30.63Z"/></g></g></svg>