<svg xmlns="http://www.w3.org/2000/svg" viewBox="0 0 68.32 357.03"><defs><style>.cls-1{fill:#caca71;}.cls-2{fill:#5b2c12;}.cls-3{fill:#8c6348;}.cls-4{fill:#774e37;}.cls-5{fill:#fff9f5;}.cls-6{fill:#2b0606;}.cls-7{fill:red;}.cls-8{fill:#ffc033;}</style></defs><title>Fichier 6</title><g id="Calque_2" data-name="Calque 2"><g id="CHILD"><path class="cls-1" d="M66.67,312.1l0,0-.33,13.93h.14s-2.18,5.72-4.42,7.52c-1.24,1-4.87,1.57-8.24,1.9s-6.77.42-6.77.42h0L44.7,336h-.08l-1.06,0-1.57,0h-.37l-.42,0h-.58l-.65,0h-.72l-.74,0V339h0l0,.52a48.62,48.62,0,0,1,5,.81h0a49.39,49.39,0,0,1,5.9,1.62,2.12,2.12,0,0,1-.48-1.35,2.78,2.78,0,0,1,5.52,0,2.26,2.26,0,0,1-.84,1.73c.56.1.56.23.56.49,1.46.06,6.25.19,5.52,1.09,2,.25,1.77,1.37,1.46,1.59.94.22,1.67.6.83,1.16,1.36.75,2.4,1.21.52,1.62.84.62,1.77,1.12,0,1.5a2.64,2.64,0,0,1-3,2.68c-.93,1.69,0,2.06-4.37,2.15-1.66.94-2.5,1.13-6.66.88-2.71.81-6.66,1.81-9.79,1.18-3.85.53-8.74.5-10.51-.47-3.33.29-6.6.5-8-.68-3.33-.31-10.35-.39-9.12-1.74-4.73,0-6.29-.76-6.5-2.16-2.91-1.34-1.45-2.25.42-2.25-1.74-.29-.73-1.59,1-1.62-1.74-1-.33-1.55,1.34-1.55-1.64-.59.3-1.91,2.8-1.81,0,0-.48-.94,1.55-1a15.78,15.78,0,0,1,2.76-1,2.29,2.29,0,0,1-.88-1.77,2.61,2.61,0,0,1,2.76-2.41,2.6,2.6,0,0,1,2.76,2.41,2.18,2.18,0,0,1-.39,1.25,73.8,73.8,0,0,1,8.5-1.89h0c1-.13,2-.29,3.12-.43,0-.64-.06-1.67-.08-2.47h0v-.26c0-.3,0-.56,0-.71,0,0-5-.07-9.42-.25-.64,0-3.81-.12-7.1-.47s-6.59-.9-7.78-1.85a13.14,13.14,0,0,1-2.95-4.65c-.54-1.25-.92-2.34-1.05-2.74l-.07,0v-.91L1.65,312c.1-.39-1.52-1.42-1.65-2.95s6.56-3,7.64-3,1.34.4.75.46-2.63.91-2.23.89a1.1,1.1,0,0,1,.73.31s-.59.54.25,1.63a4.64,4.64,0,0,1,.67,2.83l3.86,12.21v-1.28h.15A.49.49,0,0,1,12,323c0-.43,0-.86,0-1.29-.14.05-.22.1-.22.14s0,0,.06.07h-.13c-.11-20,1-43.49,1-43.49s4.73.26,8.59.32a6.44,6.44,0,0,1-2.91-1.64l-.19,0c-.08,0-.06-.08,0-.15h0c-.48-.55-1-1.05-.73-1.46-.45-.83.53-1.43,7.94-1.43s8.53.5,8.05,1.37c.25.31,0,.7-.47,1.15.11.1.12.18,0,.21l-.21,0-.14.14a6.36,6.36,0,0,1-.53.5c1.19,0,2.45,0,3.65,0a4.19,4.19,0,0,1-.52-.51l-.14-.15H35c-.11,0-.13-.09-.06-.17-.33-.37-.6-.72-.49-1-.24-.76,1-1.28,8-1.28s8.37.44,8.11,1.22c.15.36-.32.83-.85,1.37.15.1.19.17.09.2a1.24,1.24,0,0,1-.31,0,7.28,7.28,0,0,1-3.17,1.71c3.91.08,8.89.05,8.89.05s1.09,23.2,1,43c0,.36,0,.72,0,1.08.21.05.33.11.33.17a.08.08,0,0,1,0,0V324l3.91-11.86h0a4.55,4.55,0,0,1,.67-2.74c.84-1.09.25-1.63.25-1.63a1,1,0,0,1,.73-.31c.4,0-1.63-.84-2.23-.89s-.33-.49.75-.46,7.76,1.48,7.64,3S66.57,311.7,66.67,312.1ZM30.17,336a.25.25,0,0,0,0,.19V336Zm24.57,13.92a.22.22,0,0,0,.12-.12Zm1.49-28Z"/><path class="cls-2" d="M49.71,268.25c1.41,4.87,2.54,7.79-7.22,7.79s-8.33-3.54-7.22-7.79,3.23-7.78,7.22-7.78S48.48,264,49.71,268.25Z"/><path class="cls-2" d="M32.67,269.1c1.42,4.86,2.55,7.78-7.22,7.78s-8.32-3.53-7.21-7.78,3.23-7.79,7.21-7.79S31.45,264.88,32.67,269.1Z"/><path class="cls-3" d="M49.71,267.24c1.41,4.86,2.54,7.78-7.22,7.78s-8.33-3.53-7.22-7.78,3.23-7.79,7.22-7.79S48.48,263,49.71,267.24Z"/><path class="cls-3" d="M32.67,267.24c1.42,4.86,2.55,7.78-7.22,7.78s-8.32-3.53-7.21-7.78,3.23-7.79,7.21-7.79S31.45,263,32.67,267.24Z"/><path class="cls-3" d="M38.51,70.43c0,2.46,13.63,17.56-4.12,18.19S30.16,72.76,30.18,70.3c0,0,.09-13.74.17-14.13.26-1.41,1-.09,1.84-.54a1.85,1.85,0,0,1,.89-.21h.7l2,0c1.15,0,2.72,2.19,2.72,2.19Z"/><path class="cls-4" d="M38.58,58.29l0,1.83c-2.7.48-5.94.27-8.18-2.69a6.63,6.63,0,0,1-.89-1.61s1.11-.13,2.72-.27l1.58-.12h0l2,0A2.81,2.81,0,0,1,38.58,58.29Z"/><path class="cls-3" d="M56.65,31.3C45-28.16-18.59,30.92,27.17,56.79h0c3.75,1.66,8.1,4.84,16.35-1.12h0C50.32,50.86,57.11,41.6,56.65,31.3Z"/><path class="cls-5" d="M28.34,39.58c-.18.71-4.37,1.75-7.59,1.08-3.44-.71-5.34-2.28-4.6-4.75s4.08-3.66,7.44-2.64S29,37.08,28.34,39.58Z"/><circle cx="21.88" cy="36.81" r="3.07"/><path d="M16.52,37c.75-2.48,4.08-3.66,7.44-2.65a7.26,7.26,0,0,1,4.36,3.32,6.73,6.73,0,0,0-4.76-4.33c-3.37-1-6.7.17-7.44,2.64a3.93,3.93,0,0,0,.38,3A3.7,3.7,0,0,1,16.52,37Z"/><path class="cls-5" d="M38.86,39.33c.2.72,4.39,1.64,7.58.89,3.41-.8,5.25-2.42,4.44-4.87S46.72,31.8,43.4,32.9,38.14,36.85,38.86,39.33Z"/><ellipse cx="45.21" cy="36.4" rx="3.05" ry="3.07" transform="translate(-9.05 15.78) rotate(-18.03)"/><path d="M50.54,36.4c-.81-2.46-4.16-3.55-7.48-2.45a7.21,7.21,0,0,0-4.24,3.43,6.7,6.7,0,0,1,4.61-4.46c3.32-1.1,6.67,0,7.49,2.45a3.91,3.91,0,0,1-.3,3A3.57,3.57,0,0,0,50.54,36.4Z"/><path d="M39.79,28.17s.7-2.82,2-2.8,6.56-.3,7.55,0a29.37,29.37,0,0,1,3.24,1.16,24.36,24.36,0,0,0-3.22-.38C48,26,40.15,28.25,39.79,28.17Z"/><path d="M27.57,28.81s-.94-2.45-2.42-2.44a39.73,39.73,0,0,0-7.77,1.33,32,32,0,0,0-3.18,1.71,28.22,28.22,0,0,1,3.26-.93C18.82,28.06,27.21,29,27.57,28.81Z"/><path class="cls-4" d="M33.51,46.17a7.68,7.68,0,0,1,2.36-.06c.59.22-1.33.79-1.33.79S32.55,46.41,33.51,46.17Z"/><path d="M41.31,50.88a9.42,9.42,0,0,1-1.83.66,19.78,19.78,0,0,1-4.68.6,16.4,16.4,0,0,1-4.69-.51,7.68,7.68,0,0,1-1.34-.49,3.24,3.24,0,0,1-.46-.26,4.93,4.93,0,0,0,.49.16,14,14,0,0,0,1.38.26,33.26,33.26,0,0,0,4.61.16c1.81,0,3.44-.12,4.62-.26A16.82,16.82,0,0,0,41.31,50.88Z"/><path class="cls-6" d="M17.73,49.48s-8.61-9-6.58-19.95c.23-1.23,2.32-1.42,2.14-2.3-1-5,3.13-.63,6.57-3.88,5.9-5.56,4.5-1.27,9.84-1.68s-.11-2.63,6.39-3c2.87-.15,1.64,4,4.79,3.42s2.46-3.56,5.61-3.56,4.09,3.45,6.42,4.14,1.93,1.89,1.93,1.89.74,14.77-5.43,25.68c4.76-1.22,4.76-1.12,4.76-2.89,1.46-.21,6.25-.62,5.52-3.64,2-.84,1.77-4.58,1.46-5.31A2.94,2.94,0,0,0,62,34.57c1.36-2.5,2.4-4.06.52-5.42.84-2.08,1.77-3.75,0-5,0-2.18-.41-9.57-3-8.95-.93-5.62,0-6.87-4.37-7.18-1.66-3.13-2.5-3.75-6.66-2.92-2.71-2.7-6.66-6-9.79-3.95C34.81-.62,29.92-.52,28.15,2.71c-3.33-.94-6.6-1.65-8,2.29C16.8,6,9.78,6.3,11,10.81c-4.73,0-6.29,2.52-6.5,7.2-2.91,4.48-1.45,7.5.42,7.5-1.74,1-.73,5.3,1,5.4-1.74,3.34-.33,5.16,1.34,5.16-1.64,2,.3,6.38,2.8,6.07,0,0-.48,3.11,1.55,3.32C13.22,47,13.16,49.48,17.73,49.48Z"/><ellipse class="cls-2" cx="29.89" cy="271.43" rx="4.81" ry="1.05" transform="translate(-195.7 117.57) rotate(-49.42)"/><ellipse class="cls-2" cx="22.65" cy="270.93" rx="1.05" ry="6.13" transform="translate(-189.33 100.7) rotate(-46.46)"/><ellipse class="cls-2" cx="38.16" cy="271.43" rx="1.05" ry="4.81" transform="translate(-167.39 90.1) rotate(-40.58)"/><ellipse class="cls-2" cx="45.4" cy="270.93" rx="6.13" ry="1.05" transform="translate(-174.15 105.82) rotate(-43.54)"/><path class="cls-3" d="M68.32,159.75c.12,5.1-6.56,10-7.64,10.05s-1.35-1.35-.75-1.53,2.63-3,2.23-3-.73-1.05-.73-1.05.59-1.79-.25-5.43a46.47,46.47,0,0,1-.67-9.14h0l-4.17-42.2c-.1,20.49-1.05,42.19-1.05,42.19l-42.53.49s-.86-23.33-.77-44.52L7.81,149.72a48.17,48.17,0,0,1-.67,9.41c-.84,3.64-.25,5.44-.25,5.44s-.33,1.12-.73,1.05,1.63,2.77,2.23,3,.33,1.61-.75,1.53-7.76-5-7.64-10,1.75-8.53,1.65-9.85L1.8,106v-3l.07-.1c.13-1.33.51-5,1.05-9.14.73-5.7,1.79-12.39,2.95-15.51s4.54-5.07,7.78-6.19a32.62,32.62,0,0,1,7.1-1.56c4.43-.6,9.42-.83,9.42-.83s-.71,2.87,4.19,2.85c4.21,0,4.13-2.85,4.13-2.85s4.35.27,8.53.83h0a32.94,32.94,0,0,1,6.77,1.41c3.37,1.1,7,3,8.24,6.35,2.24,6,4.42,25.08,4.42,25.08h-.14l.33,46.48s0,0,0,.08C66.57,151.22,68.19,154.66,68.32,159.75Z"/><path class="cls-7" d="M56.24,117.13h-.06a.65.65,0,0,1,.06.23c0,1.88-10,3.4-22.22,3.4s-22.21-1.52-22.21-3.4a.65.65,0,0,1,.06-.23h-.13c-.11,66.68,1,145.11,1,145.11s13.82-2.54,13.48.06c-.64,4.89,16.67,4,15.57,0-.51-1.87,13.48-1.51,13.48-1.51S56.34,183.28,56.24,117.13Z"/><path class="cls-7" d="M56.6,84.16c-.77,1.77-10.53,3.18-22.47,3.18s-21.65-1.4-22.46-3.17v29.06h.15c.45,1.82,10.3,3.27,22.39,3.27,12.38,0,22.41-1.52,22.41-3.4a.51.51,0,0,0,0-.13Z"/><path class="cls-8" d="M47,70.52h0c-4.17-.56-8.52-.83-8.52-.83V66.44H30.2v4.09a2.14,2.14,0,0,1,0-.83s-5,.23-9.42.83a32.62,32.62,0,0,0-7.1,1.56c1.79,4.08,10.08,7.15,20,7.15s18.46-3.16,20.11-7.31A32.94,32.94,0,0,0,47,70.52Z"/><path class="cls-8" d="M11.73,93.79V106H1.8v-3l.07-.1c.13-1.33.51-5,1.05-9.14Z"/><ellipse class="cls-8" cx="16.3" cy="54.63" rx="2.76" ry="8.07"/><ellipse class="cls-8" cx="51.69" cy="54.79" rx="2.76" ry="8.07"/></g></g></svg>