<svg xmlns="http://www.w3.org/2000/svg" viewBox="0 0 161.18 144.65"><defs><style>.cls-1{fill:#caca71;}.cls-2{fill:#f4e3d8;}.cls-3{fill:#141311;}.cls-4{fill:#26211d;}.cls-5{fill:#9f5133;}.cls-6{fill:#d38040;}.cls-7{fill:#fff2e9;}</style></defs><title>Fichier 1</title><g id="Calque_2" data-name="Calque 2"><g id="ANIMAL"><ellipse class="cls-1" cx="86.82" cy="141.07" rx="74.36" ry="3.57"/><path class="cls-2" d="M159.84,125,157,127.66s-6.65-4.34-6.82-5.5-3.33-24-6.33-24.68-21-1-23.85-4.17S111.16,85,109.16,80l-.42.24c-13,7.56-34.06-.71-48.84-8.65-4.53-2.44-8.47-4.84-11.42-6.75-2.77-1.79-4.66-3.14-5.34-3.68-3.48-2.72-20.51-19-21.34-23.68-1.34,2.67-12.6,2.42-12.6,2.42S7.77,42.58,6,42C4.92,41.54,1.9,40.31.61,38.7a2.84,2.84,0,0,1-.48-.81,1.59,1.59,0,0,1-.07-.2A2.1,2.1,0,0,1,.79,35.6c3-3,8.09-6.67,8.73-8.42,0,0,3.33-4.92,6.35-5.39l.76-.12,1-.14a5.12,5.12,0,0,0,4.28-2.92c.2-.33.42-.65.64-1a28,28,0,0,1,3.8-4.27s-.15,1.9-.45,3.92S25.15,21.47,24.6,22c2.38.47,7.14,5.07,7.62,5.71s18.57,14.76,27.46,15.4,17.46,5.24,19.05,5.39,26.82,3.81,31.43,4.61,25.45,3.23,32.06,9.84c.8.79-1.9,2.06-3.17,1.27s-3.49-1.91-3.81-.64-1,12.39-4.45,17.31-.22,11.89,11.43,10.63c5.88-.63,5.24,1.59,5.88,2.7s5.39,27.14,6.66,27.78S159.84,125,159.84,125Z"/><path class="cls-3" d="M155.9,126.29s2.49,4.76,3,4.34,1.89-4.92,1.2-5.45-.4-.59-1.73-.43A4.48,4.48,0,0,0,155.9,126.29Z"/><path class="cls-3" d="M51.94,101.32s4.42,4.54,4.82,4.2.62-7.26-2.32-7.49A21.57,21.57,0,0,0,51.94,101.32Z"/><path class="cls-4" d="M107.84,77.88s-2.7-4-6.23-4.22S64.22,67.6,64.05,63.39a61,61,0,0,1,1-10.61l53.22,11.79S119.8,78,107.84,77.88Z"/><path class="cls-4" d="M137.62,62.26a53.87,53.87,0,0,0,3.57,5.26c1.59,1.59,9.77,6.28,15.67,4.07.79-.3-1.69-.5-4.86-3.38S140.3,62.26,139.71,62,137.62,62.26,137.62,62.26Z"/><path class="cls-5" d="M18.33,21.68c-2.81.28-8,5.62-8.31,6.21a15.79,15.79,0,0,1-5.26,7.4,12.65,12.65,0,0,1-4.63,2.6,1.59,1.59,0,0,1-.07-.2A2.1,2.1,0,0,1,.79,35.6c3-3,8.09-6.67,8.73-8.42,0,0,3.33-4.92,6.35-5.39l.76-.12,1-.14C18.71,21.55,19.19,21.6,18.33,21.68Z"/><path class="cls-4" d="M12.5,32.81s-6.58,5.7-7.2,5.44,2.28-3.51,3.34-5.09S12.5,32.81,12.5,32.81Z"/><path class="cls-6" d="M159.84,125l-3.21,2.57s-6.29-4.22-6.46-5.38-3.33-24-6.33-24.68-21-1-23.85-4.17S111.16,85,109.16,80l-.42.24c.18-1.48.35-2.87.49-4.09.94-8.29-1-9-2.37-10.18s-15.17,0-23.69,0S66.58,60.5,65.63,60.73s4,6.87,4.74,8.53c.29.69-4.57,1.53-10.47,2.31-8.41,1.1-18.92,2.06-19.62,2.19-1.18.24,9.24,20.85,10.19,23.7s4.26.23,4.26.23S54,102,52.84,102s-5.21-3.79-7.35-3.79-10-24.64-10-26.3,5-3.79,6.4-4a34,34,0,0,0,6.54-3c2.43-1.39,4.78-3,5.54-4.32C50,60,32.23,45.57,28.67,40.83s-6.4-7.11-7.82-5.92S5.93,37,5.93,37s4.5-5.21,7.11-5,5.21-4,5.92-6.88c.29-1.15-.86-2.41-2.33-3.52l1-.14a5.12,5.12,0,0,0,4.28-2.92c.2-.33.42-.65.64-1l3.35-.35c-.3,2-.74,4.18-1.29,4.66,2.38.47,7.14,5.07,7.62,5.71s18.57,14.76,27.46,15.4,17.46,5.24,19.05,5.39,26.82,3.81,31.43,4.61,25.45,3.23,32.06,9.84c.8.79-1.9,2.06-3.17,1.27s-3.49-1.91-3.81-.64-1,12.39-4.45,17.31-.22,11.89,11.43,10.63c5.88-.63,5.24,1.59,5.88,2.7s5.39,27.14,6.66,27.78S159.84,125,159.84,125Z"/><path class="cls-4" d="M15.33,22.81s4,.39,4.43-1,.19-8.41,4.11-11.63S33.83,1.09,34,0c-.38,0-8.48,6.55-10.53,7.33S16.55,15.29,15.33,22.81Z"/><path class="cls-4" d="M2.68,36.41.61,38.7a2.87,2.87,0,0,1-.55-1Z"/><path class="cls-4" d="M10.46,26.86s.21,3.91.56,3.91,3.26-.69,3.26-1.13S12.24,26.91,10.46,26.86Z"/><path class="cls-7" d="M12.84,29a2.28,2.28,0,0,0-1.74-.84s.37,1.56.51,1.53"/></g></g></svg>