<svg xmlns="http://www.w3.org/2000/svg" viewBox="0 0 491.55 745.6"><defs><style>.cls-1{fill:#caca71;}.cls-2{fill:#7a786d;}.cls-3{fill:#959282;}</style></defs><title>Fichier 5</title><g id="Calque_2" data-name="Calque 2"><g id="MONUMENT"><path class="cls-1" d="M324.44,580.75,274.76,692.27h2.43v2.62h-8.78l-.08.3h2.82v1h-3.1l-13.4,48.17h2v1.23H237.69v-1.23h2.05l-13.4-48.17H222.5v-1h3.56l-.09-.3h-9.2v-2.62h2.09L169.18,580.75H0V573H491.55v7.8Zm-83.76,10.37-.83.35a6.06,6.06,0,0,0,2.31.56l.22,0c5.47-.41,10.57-.69,13.22-.93l.51-.06a31.08,31.08,0,0,0-9.32-1.95A31.73,31.73,0,0,0,240.68,591.12Zm8.75-9.46a33.65,33.65,0,0,1,3.8-.91h-7.15C247.26,581,248.35,581.32,249.43,581.66Zm38.19-.91H275.48c2,2.1,10,11.09,1.47,14.9,1.49.42,2.49.89,2.81,1.43,1.37,2.25-12.57,3-29.31,2.74a1.62,1.62,0,0,1,.14.68,2.56,2.56,0,0,1-.13.79c2.15-.19,5.71,0,9.69-.37,6.81-.54,26.55,5.79,21.54,6-4.6.19-28.48-2.16-32.7-4l-.26.12c.86.17,1.42.47,1.42.8,0,.53-1.43,1-3.2,1s-3.19-.43-3.19-1,.73-.7,1.79-.86a1.67,1.67,0,0,1-.23-.12c-3.86,1.82-28.18,4.22-32.83,4-5-.21,14.73-6.54,21.54-6,4.14.33,7.81.16,9.93.4a2.52,2.52,0,0,1-.14-.82,1.89,1.89,0,0,1,.17-.83c-5.58-.17-11.27-.45-16.68-.81-21.19-1.43-10.25-14.77-7.16-18.11h-14c-4.1,4.37-6.46,9.45-6.46,14.87,0,16.27,21.13,29.46,47.19,29.46s47.2-13.19,47.2-29.46C294.08,590.2,291.72,585.12,287.62,580.75Z"/><path class="cls-2" d="M275,550.77s16.28-51.57-5.87-56.46-49.74-4.44-47.93,5.34,27.13,12.89,34.36,15.11-2.26,18.67-14.92,0-14.92,13.78-4.52,19.56,12.66,15.12,21.25,16.45A67.32,67.32,0,0,0,275,550.77Z"/><path class="cls-3" d="M324.44,549.3,274.76,177.71h2.43V169h-8.78l-.08-1h2.82v-3.4h-3.1L254.65,4.08h2V0H237.69V4.08h2.05l-13.4,160.51H222.5V168h3.56l-.09,1h-9.2v8.75h2.09L169.18,549.3H0v26H491.55v-26ZM199.69,499.75c0-54.21,21.13-98.16,47.19-98.16s47.2,44,47.2,98.16a184.6,184.6,0,0,1-6.46,49.55H246.08c5.25-3.84,8.77-10.94,17.35-15.8s9.3-27.05,3-28.1c6.81-2.45,12.5-5.77,13.36-10.49,1.37-7.51-12.57-10.07-29.31-9.15a16.46,16.46,0,0,0,.14-2.26c0-.92-.05-1.8-.13-2.64,2.15.66,5.71.19,9.69,1.25,6.81,1.81,26.55-19.32,21.54-20-4.6-.64-28.48,7.19-32.7,13.21-.09-.15-.17-.29-.26-.41a3.2,3.2,0,1,0-3.19.2c-.07.12-.15.25-.22.39-3.86-6-28.18-14-32.83-13.39-5,.69,14.73,21.82,21.54,20,4.14-1.1,7.81-.56,9.93-1.33a26.17,26.17,0,0,0-.14,2.72,19.42,19.42,0,0,0,.17,2.77,144.55,144.55,0,0,0-16.68,2.7c-21.19,4.76-10.25,49.2-7.16,60.33h-14A184.6,184.6,0,0,1,199.69,499.75ZM263,506.52a21.13,21.13,0,0,0-4.55,5.21c-13.85,20.78-24.24,2.48-16.32,0C246.09,510.5,254.91,509,263,506.52Z"/></g></g></svg>