<svg xmlns="http://www.w3.org/2000/svg" viewBox="0 0 213.05 220.38"><defs><style>.cls-1{fill:#ebcd93;}.cls-2{fill:#504e00;}.cls-3{fill:#fff;}.cls-4{fill:#fb6800;}.cls-5{fill:#2d0b07;}.cls-6{fill:#8b6f67;}.cls-7{fill:#48ffff;}</style></defs><title>Fichier 3</title><g id="Calque_2" data-name="Calque 2"><g id="SOUVENIR"><path class="cls-1" d="M105.64,48.46s-69.19,3.4-57.73,80.65c0,0,21.22,70.89,57.73,91.27Z"/><path class="cls-2" d="M105.8,64.9H97s-4.89,3.59,0,6.85h8.8Z"/><path class="cls-2" d="M105.8,79.73H97s-4.89,3.59,0,6.85h8.8Z"/><path class="cls-2" d="M105.8,94.57H97s-4.89,3.58,0,6.84h8.8Z"/><path class="cls-2" d="M105.8,197.05H98s-2.64,2.11,0,4.23h7.8Z"/><path class="cls-2" d="M105.8,203.82h-9s0,6.92,9,8.47Z"/><circle class="cls-3" cx="77.68" cy="133.93" r="18.01"/><path class="cls-4" d="M105.8,126s-9.84,17.7-3.94,50.15c0,0-10.9,11.26,3.94,11.53Z"/><circle class="cls-5" cx="60.58" cy="182.07" r="5.42"/><path class="cls-2" d="M51.92,140.85a5.37,5.37,0,0,0-5.17-1.8,5.6,5.6,0,0,0-3.83,3.18s-3.61,21.1,10.65,30.8c0,0-8,10.08-1.14,15.78,0,0,7.79,7.61,16,0a7.67,7.67,0,0,0,1.19-1.47,8.72,8.72,0,0,0,.93-6.18c-3.28-5.92-6.59-12.36-9.82-19.32C57.31,154.52,54.41,147.49,51.92,140.85Z"/><path class="cls-1" d="M105.73,48.42s69.19,3.39,57.73,80.65c0,0-21.22,70.88-57.73,91.26Z"/><path class="cls-2" d="M105.57,64.86h8.8s4.89,3.58,0,6.84h-8.8Z"/><path class="cls-2" d="M105.57,79.69h8.8s4.89,3.58,0,6.84h-8.8Z"/><path class="cls-2" d="M105.57,94.52h8.8s4.89,3.59,0,6.85h-8.8Z"/><path class="cls-2" d="M105.57,197h7.79s2.65,2.12,0,4.23h-7.79Z"/><path class="cls-2" d="M105.57,203.78h9s0,6.91-9,8.47Z"/><circle class="cls-3" cx="133.69" cy="133.89" r="18.01"/><circle class="cls-4" cx="77.11" cy="134.34" r="11.74"/><circle class="cls-4" cx="134.26" cy="134.29" r="11.74"/><path class="cls-4" d="M105.57,126s9.83,17.7,3.93,50.15c0,0,10.91,11.26-3.93,11.53Z"/><path class="cls-2" d="M159.45,140.81a5.38,5.38,0,0,1,5.17-1.81,5.65,5.65,0,0,1,3.83,3.18s3.61,21.11-10.65,30.8c0,0,8,10.08,1.14,15.78,0,0-7.79,7.61-16,0a7.38,7.38,0,0,1-1.19-1.47,8.72,8.72,0,0,1-.93-6.18c3.28-5.92,6.59-12.36,9.81-19.31C154.06,154.48,157,147.45,159.45,140.81Z"/><circle class="cls-5" cx="150.79" cy="182.02" r="5.42"/><path class="cls-6" d="M44.93,100.48s-6.71,4.56-9.44,4.46c0,0-10.34.3-13.94-.87,0,0-8.29-1.72-11.31-3.59,0,0-8.58-4.47-10.24-4.57,0,0,16.57-1.3,24.08-4.32A47.46,47.46,0,0,1,45.45,93.1Q45.18,96.79,44.93,100.48Z"/><path class="cls-6" d="M51.92,75.92s-8.12,0-10.33-1.55c0,0-8.75-5.51-11.09-8.49,0,0-5.92-6-7.39-9.28,0,0-4.64-8.49-6-9.5,0,0,14.49,8.15,22.41,9.82a47.77,47.77,0,0,1,16.9,13.16Z"/><rect class="cls-7" x="51.77" y="71.98" width="7.54" height="3.67" transform="translate(-36.7 78.83) rotate(-56.15)"/><path class="cls-6" d="M72.17,57.05s-7.6-2.85-9.1-5.13c0,0-6.21-8.27-7.34-11.89,0,0-3.38-7.75-3.6-11.3,0,0-1.32-9.58-2.19-11,0,0,10.64,12.77,17.44,17.15A47.65,47.65,0,0,1,78.49,53.2Z"/><rect class="cls-7" x="72.54" y="54.53" width="7.54" height="3.67" transform="translate(-18.54 54.45) rotate(-35.29)"/><path class="cls-6" d="M103.11,44.94s-4.58-6.71-4.49-9.44c0,0-.31-10.33.85-13.94,0,0,1.71-8.29,3.57-11.31,0,0,4.45-8.59,4.55-10.25,0,0,1.33,16.57,4.37,24.07a48,48,0,0,1,.57,9,47.15,47.15,0,0,1-2,12.42Z"/><rect class="cls-7" x="103.11" y="44.93" width="7.54" height="3.67" transform="translate(-0.09 0.2) rotate(-0.11)"/><path class="cls-6" d="M168.12,100.63s6.72,4.57,9.45,4.47c0,0,10.33.29,13.94-.88,0,0,8.29-1.72,11.31-3.59,0,0,8.58-4.46,10.23-4.56,0,0-16.57-1.31-24.08-4.33a48.09,48.09,0,0,0-8.94-.55,47.48,47.48,0,0,0-12.42,2.07Z"/><path class="cls-6" d="M161.13,76.08s8.12,0,10.33-1.55c0,0,8.75-5.52,11.09-8.5,0,0,5.93-6,7.4-9.28,0,0,4.64-8.49,6-9.49,0,0-14.49,8.15-22.41,9.82a47.46,47.46,0,0,0-16.9,13.16Z"/><rect class="cls-7" x="155.68" y="70.2" width="3.67" height="7.54" transform="translate(-14.5 100.28) rotate(-33.85)"/><path class="cls-6" d="M140.88,57.2s7.61-2.84,9.1-5.12c0,0,6.21-8.27,7.34-11.89,0,0,3.39-7.76,3.61-11.31,0,0,1.31-9.58,2.19-11,0,0-10.64,12.78-17.45,17.16a47.49,47.49,0,0,0-11.1,18.31Z"/><rect class="cls-7" x="134.91" y="52.75" width="3.67" height="7.54" transform="translate(11.61 135.48) rotate(-54.71)"/><rect class="cls-7" x="164.46" y="93.09" width="3.67" height="7.54"/><rect class="cls-7" x="44.93" y="92.94" width="3.67" height="7.54"/></g></g></svg>