<svg xmlns="http://www.w3.org/2000/svg" viewBox="0 0 88.25 165.8"><defs><style>.cls-1{fill:#caca71;}.cls-2{fill:#8c6348;}.cls-3{fill:#838282;}.cls-4{fill:#929090;}.cls-5{fill:#330707;}.cls-6{fill:#a8a552;}.cls-7{fill:#757238;}</style></defs><title>Fichier 4</title><g id="Calque_2" data-name="Calque 2"><g id="ACTIVITY"><path class="cls-1" d="M84.4,123c2.71,3-2.13,3.85-2.54,4a5.12,5.12,0,0,1-1.43-.18c-1.75-.36-4.51-1.09-5-1.24a.18.18,0,0,1-.11-.08c-.62.08-1.27.16-1.81.26-1.56.28-13.49,3.4-16.78,3.33-1.45,0-3.29,0-4.9,0l.26.08s-2.22,2.17-2.54,3.27c-.24.8-2.34,2.85-3.64,3.92,1.79.45,3.07.78,3.45.91,1.77.59,0,3.58,0,3.58l0,0c-.35,1-1.59,4.47-1.94,5.32s2.44,5.67,2.44,5.67l7.93-1.17.14.06,2-.5a13.13,13.13,0,0,1-.3-2.64c.07-.88-1.69-4.69-2.72-4.79s-4-.49-4-1.37.52-1.95.59-1.53.37,1.37,1.18,1.31.37-1.93-.51-2.22-1.11-1.37.58-1.2,4.71.48,5,3.42,7,7.65,6.55,9.15c-.33,1.12-1.8,2-3.57,2.4l.17.07s-9.76,2.35-11,2.89-11.1,1.7-12.38,1.71c0,.54.07,1.41.12,2.29,1.26.66,2.91,3,2.39,4.26-.61,1.5-7.18,1.77-9.48,1.71a31.38,31.38,0,0,1-5.69-1c-.31-.5.1-.72.85-.82a5.27,5.27,0,0,1-.45-2c.08-.84-3.07-1.13-1.32-1.75.47-.16,1.48.22,1.48-.36s0-2.18,1.73-2.22c1.59,0,2-.72,2.14-1.26a33,33,0,0,1-9.08-2.33c-1-.54-.61-2.53-.61-2.53s-2.33-1.62-3.68-2.73a1.63,1.63,0,0,1-.54-.45c-.19-.25-7.88,1.34-8,1.64s-1.17,2.5-1.85,2.5-.09-1.94-.09-1.94-2.24,2.2-5,1.55-1.46-1.81.09-2.67,15.09-4.67,17.69-4.44a8.63,8.63,0,0,1,4.29,1.71l.08,0a12.58,12.58,0,0,0,2.24,1.53c-.41-.45,1.22-4.32,2.24-5.31a6,6,0,0,0,1.21-3.19c-4.15-1.4-9.07-3.09-11.73-4l-.06,0-.25-.13-1.64-.57.31-.16c-1.2-.67-2.6-1.54-2.41-1.83.31-.48.48-10.66-2.36-13.72a20.07,20.07,0,0,0-7.14-2.08c-1.66-.06-4.73,0-5-.36a0,0,0,0,1,0,0c-.21-.46,1.52-2.38,5.9-2.3s12.46-.17,13.36.19a.65.65,0,0,1,.35.48,3.3,3.3,0,0,1-1.29,3.12,3.19,3.19,0,0,1,.2.86c.16,1.56,3.82,3.6,3.82,4.73s1.28,5.86.16,7.07a9,9,0,0,0,1.93.81,2.79,2.79,0,0,1,.46-.05c.77,0,4.61.81,9,1.81,2.12-1.58,8.62-6.35,10.42-6.69l.33.1c.95-.7,2.5-1.76,3.13-1.76s18.7-1.68,27.92-2.55c.07-.25.13-.41.13-.41s7.24-3.87,9.46-4.73a1.62,1.62,0,0,1,.62-.17C92,119.13,84.08,122.65,84.4,123Z"/><path class="cls-2" d="M56.93,33.23l3,1.69s-.37,4-.3,6S58,51.47,56.93,51.69s-4,1.1-4,3.09.52,4.41.59,3.45.37-3.09,1.18-2.94.37,4.34-.51,5S53,63.38,54.72,63s4.71-1.1,5-7.72,7-17.28,6.55-20.67a7,7,0,0,0-5.44-6.1C58.33,28.08,56.93,33.23,56.93,33.23Z"/><path class="cls-2" d="M24.8,42.56s-1.93,3.81-4.53,4.31-16.13-8.09-17.69-10-2.82-4.57-.09-6,5,3.5,5,3.5-.59-4.38.09-4.38,1.75,5,1.85,5.64,7.79,4.28,8,3.7a3.26,3.26,0,0,1,1.74-2"/><path class="cls-1" d="M31.56,21.11s0,2.44,2,2.24,4.68-4.68,5.9-4.68,11.18,2.64,12.4,3.86,11,6.51,11,6.51l-5.08,4.88-7.93-2.64S47,41.85,47.42,44.09s2,12.6,2,12.6-10.17-2.64-12.61-1.42-6.5,3.66-6.5,3.66-.21-5.08-1.22-7.32-2.65-11-2.24-12a20.35,20.35,0,0,0-2.24,3.46S19.15,38.39,17.53,39c1.22-2.44,4.06-6.91,4.06-6.91s-.4-4.47.61-5.69S28.71,21.11,31.56,21.11Z"/><path class="cls-2" d="M43.9,86.2s3,5.33,3.93,5.33,33.25,6.9,33.25,6.9l-3.45-7.05a28.6,28.6,0,0,1-4.08-1.1c-1.56-.63-13.49-7.69-16.78-7.53a83.93,83.93,0,0,1-8.63-.32Z"/><path class="cls-3" d="M33.27,71.54s8.94,15.33,11.1,16.25c1.76-1.18,7.76-5.29,7.76-5.29s-2.22-4.89-2.54-7.37S45.41,64.81,45,64.75,33.27,71.54,33.27,71.54Z"/><path class="cls-2" d="M18.54,67.82s-4.31,4.94-4,6.06S15,99,12,105.28c5.74,5.74,6.38,3.35,6.54-.16S22.36,97,22.36,94.44s1.28-13.23.16-15.94C24,76.43,27.46,75,27.46,75Z"/><path class="cls-4" d="M49.39,56.15s1.78,6.75,0,8.08S26.83,76.77,24.91,76.77s-8.26-7.38-8.26-7.38,19-14.92,20.65-15.64C39.55,52.75,48.36,53.5,49.39,56.15Z"/><path class="cls-2" d="M27.9,2.92a32.25,32.25,0,0,0-.65,5.59c.08,1.89-3.07,2.55-1.32,3.94.47.37,1.48-.49,1.48.82s0,4.92,1.73,5c2.65.13,2.13,4.35,2.13,4.35s-.9,3,1.4,3,6.82-4.58,6.82-5.75.33-13.48.33-13.48Z"/><path class="cls-5" d="M26.85,2.19S30.24.15,32.54,0,41.41.49,42,3.88s-1.83,10.23-3,10,1-4.48-.61-5.29-1.77,1.63-2.51.75S33.8,8.18,34,6.93C34.64,1.71,25.7,6.45,26.85,2.19Z"/><path class="cls-6" d="M86,109.29c-.07,0-.29-.1-.62-.38-2.22-2-9.46-10.69-9.46-10.69s-1.07-7-.41-7.54a44.25,44.25,0,0,1,5-2.79c.74-.34,1.31-.54,1.43-.41.41.41,5.25,2.32,2.54,9.1C84.08,97.4,92,105.35,86,109.29Z"/><path class="cls-7" d="M86,109.29c-.07,0-.29-.1-.62-.38a13.18,13.18,0,0,0,1.53-4.09c.41-2.84-4.08-7.7-3.75-8.32,1.06-2,.41-4.77.41-5.58,0-.55-1.9-2.1-3.1-3,.74-.34,1.31-.54,1.43-.41.41.41,5.25,2.32,2.54,9.1C84.08,97.4,92,105.35,86,109.29Z"/><path class="cls-6" d="M19.63,114.1a1.9,1.9,0,0,1-.35,1.1c-.9.8-8.89.24-13.36.42s-6.11-4.16-5.9-5.2a.07.07,0,0,1,0,0c.29-.93,3.36-.68,5-.81,3.4-.28,7.24-4.83,7.24-4.83s4.38,1.53,5.76,2.11C19.17,107.31,19.87,111.9,19.63,114.1Z"/><path class="cls-7" d="M19.63,114.1a1.9,1.9,0,0,1-.35,1.1c-.9.8-8.89.24-13.36.42s-6.11-4.16-5.9-5.2c1.5,1.6,4.52,4.33,7.51,4.19S16.67,114.22,19.63,114.1Z"/></g></g></svg>