<svg xmlns="http://www.w3.org/2000/svg" viewBox="0 0 801.34 600"><defs><style>.cls-1{fill:#c6a69b;}.cls-2{fill:#ba8b75;}.cls-3,.cls-8{fill:#a37e71;}.cls-4{fill:#e2c5bb;}.cls-5{fill:#d3b8ae;}.cls-6{fill:#ffc433;}.cls-7{fill:#fcdb89;}.cls-8{font-size:47px;font-family:OpenSans-ExtraBold, Open Sans ExtraBold;font-weight:800;}</style></defs><title>CP-EGYPT</title><g id="Calque_6" data-name="Calque 6"><rect class="cls-1" width="799.18" height="541.16"/></g><g id="Calque_3" data-name="Calque 3"><polygon class="cls-2" points="685.31 439.62 389.11 559.04 414.86 198.53 685.31 439.62"/><polygon class="cls-3" points="389.22 558.63 175.26 458.79 415.6 198.49 389.22 558.63"/><polygon class="cls-2" points="344.44 524.21 165.19 582.84 180.77 405.84 344.44 524.21"/><polygon class="cls-3" points="165.26 582.64 35.77 533.62 181.22 405.82 165.26 582.64"/><polygon class="cls-2" points="792.36 517.91 613.1 590.18 628.69 372.01 792.36 517.91"/><polygon class="cls-3" points="613.17 589.93 483.69 529.51 629.13 371.98 613.17 589.93"/></g><g id="Calque_5" data-name="Calque 5"><rect class="cls-4" y="526.52" width="799.18" height="73.48"/><path class="cls-4" d="M2.17,541.09c73.09-2.78,298.61.25,298.61.25s-6.5-1.18-17.17-6l-.53-.24c-28-12.66-83.9-37.08-128.86-51-13.51-4.18-26-7.41-36.5-9.09a86,86,0,0,0-14.83-1.26C53.63,474.74,3.46,522.44,2.17,541.09Z"/><path class="cls-5" d="M66.06,543.43c49,20.74,125.81-23.93,217.55-8l-.53-.24c-28-12.66-83.9-37.08-128.86-51-15.51-4.17-29.28-7.4-39.61-9.09,18.5,7.38,19.73,26.93-39.54,18.76C33.69,488.13,48.48,536,66.06,543.43Z"/><path class="cls-4" d="M551.52,545.11c-19.9,12.7-88.22,52.8-176,38.64a242,242,0,0,1-94.15-36.91c31.78-10,80.05-61.41,117.94-62.24a57,57,0,0,1,11.4,1.13l1.5.3a196,196,0,0,1,26.58,7.84c34,12.27,76.25,33.66,98.08,45.14l1,.54.41.22C546.52,544,551.52,545.11,551.52,545.11Z"/><path class="cls-5" d="M538.32,539.77c-75.9-15.27-139.51,61.3-163,23-7.87-12.83-29.18-65.37,2.64-60.25,40.85,6.56,44.27-8.55,34.3-16.51a196,196,0,0,1,26.58,7.84c34,12.27,76.25,33.66,98.08,45.14l1,.54Z"/><path class="cls-4" d="M801.34,527.78S679.76,556.86,579.92,569.7c-49.28,6.34-94.24.45-114.75,1.38,33.49-41.52,126.25-110.7,168.09-111.63a61.18,61.18,0,0,1,12.6,1.28c1.2.22,2.43.48,3.69.77a225,225,0,0,1,27.31,8.42C715,484,762.55,508.7,786.31,521.51l.43.24h0C795.82,526.59,801.34,527.78,801.34,527.78Z"/><path class="cls-5" d="M786.74,521.75c-108.08,9.75-8.88,23.11-31.15,30.5-63,20.91-142.73-12-150-18.86-17.61-16.6-31.22-56.94,4-51.09,55.52,9.22,48.32-11.52,40-20.8a225,225,0,0,1,27.31,8.42C715,484,762.55,508.7,786.31,521.51Z"/></g><g id="Calque_7" data-name="Calque 7"><path class="cls-6" d="M330.86,0A87,87,0,1,0,500.32,0Z"/></g><g id="Calque_2" data-name="Calque 2"><polygon class="cls-7" points="256.31 146.4 206.9 146.4 206.9 181.18 200.49 186.67 206.21 192.16 206.67 226.47 256.31 226.47 256.31 209.09 224.93 209.06 224.8 195.07 246.87 194.95 247 178.01 224.68 178.01 224.68 163.52 256.31 163.77 256.31 146.4"/><path class="cls-7" d="M308.25,173.07H327V159.72s-3.16-12.7-13-13.32H289.16s-11.83,1.49-13.47,12.62V180.8l-6.32,6.2,6.09,5.51.23,21.78s.7,11.12,13.35,11.59h27.29s8.43-1.87,10.65-13.7v-26h-23.3v17h4.8l-.12,2.69s-.23,2.35-2.22,2.46l-9.72.12a2.81,2.81,0,0,1-2.58-2.69v-39s1.06-2.22,2.11-2.1l10.89-.12a2.36,2.36,0,0,1,1.52,1.76Z"/><polygon class="cls-7" points="378.76 189.73 401.96 146.4 380.79 146.4 369.96 168.57 369.89 169.03 369.81 168.57 358.98 146.4 337.82 146.4 361.01 189.73 360.84 199.04 354.75 205.14 361.01 211.06 361.01 225.88 361.04 225.88 378.74 225.88 378.76 225.88 378.76 211.06 385.03 205.14 378.93 199.04 378.76 189.73"/><path class="cls-7" d="M469.09,157.53s-2.73-10.81-13-11.13H419.17v34.72l-6,6,5.89,5.58.09,33.13h17.58V200.06h20.72s9.57-.78,11.62-12.08C469.09,188,469.87,158.78,469.09,157.53Zm-18,22.39c0,3.92-2.57,4.53-2.57,4.53H437.36V164.51h11.48c1.35.15,2.26,2.11,2.26,2.11Z"/><polygon class="cls-7" points="508.79 146.4 535.88 146.4 535.88 163.74 517.89 163.74 517.69 181.53 523.89 187.32 517.69 193.11 517.48 225.88 508.79 225.88 508.79 146.4"/><polygon class="cls-7" points="508.79 146.4 481.7 146.4 481.7 163.74 499.69 163.74 499.9 181.53 493.7 187.32 499.9 193.11 500.11 225.88 508.79 225.88 508.79 146.4"/><polygon class="cls-7" points="601.76 146.4 552.35 146.4 552.35 181.18 545.94 186.67 551.66 192.16 552.12 226.47 601.76 226.47 601.76 209.09 570.38 209.06 570.25 195.07 592.32 194.95 592.45 178.01 570.13 178.01 570.13 163.52 601.76 163.77 601.76 146.4"/><text class="cls-8" transform="translate(226.48 130.99)">BIENVENUE EN</text></g></svg>