<?xml version="1.0" encoding="utf-8"?>
<!-- Generator: Adobe Illustrator 24.0.1, SVG Export Plug-In . SVG Version: 6.00 Build 0)  -->
<svg version="1.1" id="Calque_1" xmlns="http://www.w3.org/2000/svg" xmlns:xlink="http://www.w3.org/1999/xlink" x="0px" y="0px"
	 viewBox="0 0 801.6 599.8" style="enable-background:new 0 0 801.6 599.8;" xml:space="preserve">
<style type="text/css">
	.st0{fill:#E06565;}
	.st1{enable-background:new    ;}
	.st2{fill:#C0AF77;}
	.st3{fill:#A33B3B;}
	.st4{fill:#5E1B1B;}
	.st5{fill:#6B2222;}
	.st6{fill:#7F2A2A;}
	.st7{fill:#C0A54C;}
	.st8{fill:#AD9347;}
	.st9{fill:#A4861B;}
	.st10{fill:#8CA59E;}
	.st11{fill:#FFD217;}
	.st12{fill:#7E9B38;}
	.st13{fill:#210808;}
</style>
<title>CP-MEXICO</title>
<g id="bg">
	<rect class="st0" width="800.7" height="599.8"/>
	<g class="st1">
		<path class="st2" d="M300.5,165.3l2.8,2.7v44.7h-7.6L293,210h-1.3v-18.6l-7.6,13.3l-2.6-2.5l-0.4,1.3l-8.6-15.1v24.4h-17.7
			L252,210h-1.3v-46h18.3l0.2,1.1c0.6,0.8,1.9,2,2.5,2.5l4.3,7.6l2.2-3.9h-0.1l4.3-7.4h17.9V165.3z M299.5,165h-7.1
			c0,0.8,0.1,1.2,0.2,1.4h-0.1l-0.6-0.6V165h-8.7l-7,12.2l-5-8.8c-0.8-0.8-1.7-1.8-2.5-2.5l-0.5-0.8h-16.4v44.2h0.7l2.7,2.7h16.5
			V185c1.7,3,2.5,4.4,4.3,7.4l5,8.8l0.3-0.6l2.7,2.7l8.8-15.2v21.2h0.6l2.8,2.7h6.2v-43.5l-2.8-2.7V165z M298.9,165.9l2.8,2.7v42.7
			h-5.5l-2.7-2.7h-0.3v-22.9l-9.6,16.5l-2.8-2.8c-0.1,0.1-0.1,0.1-0.1,0.2v0.1l-9.7-16.9v28.6h-15.7l-2.7-2.7h-0.4v-43.1h15.5
			l0.4,0.8l2.5,2.3l5.5,9.7l7.4-12.8h7.8v0.4l0.9,0.9l1.1-0.3l-0.1-0.3c-0.1-0.5-0.1-0.7-0.1-0.7h6V165.9z M261.3,170.1l-3.4-3.4
			h-4.4v40.7h4.4l3.4-3.4l-3.4-3.4l3.4-3.4l-3.4-3.4l3.4-3.4l-3.4-3.4l3.4-3.4l-3.4-3.4l3.4-3.4l-3.4-3.4L261.3,170.1z M257,173.5
			l3.4,3.4l-3.4,3.4l3.4,3.4L257,187l3.4,3.4l-3.4,3.4l3.4,3.4l-3.4,3.4l3.4,3.4l-2.8,2.8H254v-39.4h3.6l2.8,2.8L257,173.5z
			 M259.2,170.1l-1.9-1.9H255v37.6h2.3l1.9-1.9l-3.4-3.4l3.4-3.4l-3.4-3.4l3.4-3.4l-3.4-3.4l3.4-3.4l-3.4-3.4l3.4-3.4l-3.4-3.4
			L259.2,170.1z M290.7,166.7h-6.5l-8.6,14.8l-8.5-14.8h-6.8l3.4,3.4l-3.4,3.4l3.4,3.4l-3.4,3.4l3.4,3.4l-3.4,3.4l3.4,3.4l-3.4,3.4
			l3.4,3.4l-3.4,3.4l3.4,3.4l-3.4,3.4h6.8v-33.8l9.9,17.1l2.5-0.7l-1.3-4.6l4.6-1.3l-1.3-4.6l4.6-1.3l-1.3-4.6l4.6-1.3l-1.3-4.6
			L290.7,166.7z M283.9,173c0.4,1.4,0.8,3.1,1.3,4.6l-4.6,1.3c0.4,1.4,1,3.2,1.3,4.6l-4.6,1.5l1.3,4.6c-0.6,0.3-0.8,0.1-1.4,0.3
			l-9.7-16.9l-1,0.2v33.5h-4.8l2.8-2.8l-3.4-3.4l3.4-3.4l-3.4-3.4l3.4-3.4L261,187l3.4-3.4l-3.4-3.4l3.4-3.4l-3.4-3.4l3.4-3.4
			l-2.8-2.8h5l8.9,15.4c2.7-4.8,6.1-10.6,8.9-15.4h2.7c0.5,1.3,0.8,2.9,1.3,4.3L283.9,173z M287.4,171.1l-0.9-2.8h-1.3l-9.5,16.4
			l-9.5-16.4h-2.2l1.9,1.9l-3.4,3.4l3.2,3.2v-3.9l2.5-0.7l9.3,16.2c-0.5-1.4-1-2.9-1.2-4l4.6-1.3c-0.5-1.6-1.1-3.4-1.3-4.6l4.7-1.3
			c-0.6-1.6-1.1-3.5-1.4-4.6L287.4,171.1z M265.5,183.4v-6.3l-3.2,3.2L265.5,183.4z M265.5,183.9l-3.2,3.2l3.2,3.2V183.9z
			 M265.5,197v-6.3l-3.2,3.2L265.5,197z M265.5,203.7v-6.3l-3.2,3.2L265.5,203.7z M265.5,205.8v-1.6l-1.6,1.6H265.5z M297.8,166.7
			h-3.4l0.2,0.6l-4.6,1.3l1.3,4.6l-4.6,1.4l1.4,4.6l-4.7,1.3l1.3,4.6l-4.6,1.3l1.3,4.6l-3.6,1.1l2.9,5.1l13.6-23.7v33.8h3.4V166.7z
			 M297.2,206.8h-2.3v-33.5l-1-0.2l-13.2,23c-0.8-1.5-1.3-2.2-2.1-3.4l3.6-1.1c-0.3-1.4-0.8-3.2-1.3-4.6l4.6-1.4
			c-0.4-1.4-1-3.1-1.3-4.5l4.6-1.5c-0.4-1.3-1-3.1-1.3-4.6l4.6-1.4c-0.4-1.4-1-3.1-1.3-4.5l4.6-1.4c0-0.1-0.1-0.4-0.1-0.4h2V206.8z
			 M280.8,194.1l0.8-1.5l-1.4,0.4L280.8,194.1z M282,187.5c0.2,0.9,0.6,2,0.9,2.9l2.1-3.7L282,187.5z M286.2,184.6l2.2-3.9l-3.1,0.9
			L286.2,184.6z M289.5,178.8l2.4-4l-3.3,0.9L289.5,178.8z M296.3,168.5l-4.3,1.2l1,3.2l0.4-0.8l2.6,0.7v33h0.4V168.5z M292.8,166.3
			c-0.1,0.1-0.1,0.1-0.2,0.1L292.8,166.3z"/>
	</g>
	<g class="st1">
		<path class="st2" d="M346,202.6l2.7,2.7v7.5h-34l-2.7-2.7h-1.3V164H346v1.3l2.7,2.7v7.5h-16.7v5.4h7.3v1.3l2.7,2.8v7.5h-10v8.8
			H346V202.6z M345.2,202.2h-14v-10.6h10v-6.2l-2.7-2.7v-0.7h-7.3v-7.3h16.7v-6.2l-2.7-2.8V165h-33.5v44.2h0.6l2.8,2.7h32.7v-6.2
			l-2.7-2.7V202.2z M344.6,203.1l2.7,2.7v5.5h-32l-2.7-2.8h-0.3v-43h32.2v0.3l2.7,2.7v5.4h-16.7v8.5h7.3v0.4l2.7,2.7v5.4h-10v11.9
			h13.9V203.1z M321.1,170.1l-3.4-3.4h-4.3v40.7h4.3l3.4-3.4l-3.4-3.4l3.4-3.4l-3.4-3.4l3.4-3.4l-3.4-3.4l3.4-3.4l-3.4-3.4l3.4-3.4
			l-3.4-3.4L321.1,170.1z M316.9,173.5l3.4,3.4l-3.4,3.4l3.4,3.4l-3.4,3.4l3.4,3.4l-3.4,3.4l3.4,3.4l-3.4,3.4l3.4,3.4l-2.9,2.8H314
			v-39.5h3.4l2.9,2.8L316.9,173.5z M319,170.1l-1.8-1.9h-2.2v37.7h2.2l1.8-1.9l-3.3-3.4l3.3-3.4l-3.3-3.4l3.3-3.4l-3.3-3.4l3.3-3.4
			l-3.3-3.4l3.3-3.4l-3.3-3.4L319,170.1z M343.4,204h-16.7V187h9.9v-3.4h-9.9v-13.6h16.7v-3.4h-23.3l3.3,3.4l-3.3,3.4l3.3,3.4
			l-3.3,3.4l3.3,3.4l-3.3,3.4l3.3,3.4l-3.3,3.4l3.3,3.4l-3.3,3.4l3.3,3.4l-3.3,3.4h23.3V204z M342.9,206.8h-21.4l2.8-2.8l-3.4-3.4
			l3.4-3.4l-3.4-3.4l3.4-3.4l-3.4-3.4l3.4-3.4l-3.4-3.4l3.4-3.4l-3.4-3.4l3.4-3.4l-2.8-2.8h21.4v2.2h-16.7v14.7h9.9v2.2h-9.9v18.1
			h16.7V206.8z M325.3,176.6v-6.3l-3.2,3.2L325.3,176.6z M325.3,183.4v-6.3l-3.2,3.2L325.3,183.4z M325.3,185.1v-1.3l-3.2,3.2
			l3.2,3.2v-4.7h9.9v-0.4H325.3z M325.3,197v-6.4l-3.2,3.2L325.3,197z M325.3,203.7v-6.4l-3.2,3.2L325.3,203.7z M323.7,168.2
			l1.6,1.7v-1.3h16.6v-0.4H323.7z M341.9,205.5h-16.6v-1.3l-1.6,1.7h18.2V205.5z"/>
	</g>
	<g class="st1">
		<path class="st2" d="M392.7,165.6l2.8,2.7L384.8,190c3.4,6.7,8.1,16.5,11.3,22.8h-8.5l-2.7-2.7h-0.7l-4.7-9.5l-0.4,0.7v-0.1
			l-1.6,3.5l-4.1,8.1h-17l-2.8-2.7h-2.2l11.3-23l-11.4-23h9.8l0.1,1.3l2.5,2.5l4.3,8.7L374,164h19.5L392.7,165.6z M392,165
			l-17.5-0.1l-6.7,13.6l-5-10.2c-0.4-0.4-2.2-2-2.5-2.6l-0.4-0.7h-7.2l11,22.1l-10.9,22.1h1.2l2.7,2.7h16.1l5.5-11.1v0.1l1.3-2.4
			l5.3,10.6h0.4l2.7,2.7h6.7L383.8,190l10.6-21.4l-2.8-2.8L392,165z M390.9,165.9l2.8,2.7L383.1,190l10.6,21.4h-5.6l-2.7-2.8h-0.3
			l-5.6-11.2l-1.8,3.3l-5.3,10.7h-15.5l-2.7-2.8h-0.5l10.6-21.5l-10.7-21.5h6l0.3,0.6l2.5,2.5l5.5,11.2l7.1-14.3H391L390.9,165.9z
			 M380.7,166.7h-5l-8.4,16.9l-8.4-16.9h-3.4l10.1,20.3l-10.1,20.4h7.6l-1.5-4.7l4.6-1.5l-1.4-4.6l4.6-1.4l-1.5-4.6l4.6-1.4
			l-1.4-4.6l4.6-1.4l-1.5-4.6l4.6-1.4l-1.3-4.6l4.6-1.5L380.7,166.7z M381.1,170.8l-4.6,1.5l1.3,4.6l-4.6,1.4l1.5,4.6l-4.6,1.4
			c0.4,1.4,1.1,3.2,1.4,4.6l-4.6,1.4c0.5,1.4,1.1,3.2,1.5,4.6l-4.6,1.4l1.4,4.5l-4.6,1.5l1.5,4.5h-5.9l9.8-19.7l-9.8-19.7h2.1
			l8.8,17.6l8.8-17.6h4.1L381.1,170.8z M359.8,202.1l-1.8,3.8h3L359.8,202.1z M362.9,195.9l-2.9,5.7l4.3-1.3L362.9,195.9z
			 M367.4,194.3l-1.5-4.5l-2.9,5.9L367.4,194.3z M389.2,166.7h-6.9l1.6,5.6l-4.6,1.5l1.4,4.6l-4.6,1.4l1.5,4.6l-4.6,1.4l1.4,4.6
			l-4.6,1.3l1.5,4.6l-4.6,1.5l1.4,4.6l-4.6,1.5l1.1,3.6h4.1l8.4-16.9l8.4,16.9h3.4L379.1,187L389.2,166.7z M378.4,187l9.8,19.7h-2
			l-8.8-17.6l-8.8,17.6h-3.3l-0.8-2.6l4.6-1.4l-1.4-4.6l4.6-1.4l-1.5-4.6l4.6-1.5c-0.4-1.4-1.1-3.2-1.4-4.6l4.6-1.3
			c-0.5-1.4-1-3.2-1.5-4.6l4.6-1.5l-1.4-4.6l4.6-1.4l-1.5-5.5h5.1L378.4,187z M368.1,205.8l1-2.2l-3.4,1l0.3,1.1H368.1z
			 M379.6,168.2h-2.9L366,189.7l4.6-1.4c-0.5-1.5-1.1-3.6-1.5-4.6l4.7-1.4l-1.5-4.7l4.6-1.3l-1.4-4.6l4.6-1.5L379.6,168.2z M371,200
			l1.1-2.2l-3.4,1l1.1,3.4L371,200z M372.9,196.1l2.2-4.3l-3.2,1L372.9,196.1z M378,185.8l-3.1,0.9c0.3,1.1,0.7,2.2,1.1,3.2
			L378,185.8z M378.1,180.7l0.9,3.1l2-4L378.1,180.7z M381.3,174.8l0.8,2.8l1.8-3.7L381.3,174.8z M384.3,168.2l0.9,3.2l1.5-3.2
			H384.3z"/>
	</g>
	<g class="st1">
		<path class="st2" d="M415.7,165.2l2.5,2.7v44.8H402l-2.5-2.8h-1.2v-46h17.4V165.2z M414.9,164.9h-15.8v44.2h0.7l2.5,2.7h15.1
			v-43.5l-2.5-2.7V164.9z M414.3,165.8l2.5,2.8v42.6h-14.3l-2.5-2.7h-0.4v-43.1h14.6V165.8z M408,170.1l-3.2-3.4h-4.1v40.7h4.1
			l3.2-3.4l-3.2-3.4l3.2-3.4l-3.2-3.4l3.2-3.4l-3.2-3.4l3.2-3.4l-3.2-3.4l3.2-3.4l-3.2-3.4L408,170.1z M404.1,173.4l3.1,3.4
			l-3.1,3.4l3.1,3.4l-3.1,3.4l3.1,3.4l-3.1,3.4l3.1,3.4l-3.1,3.4l3.1,3.4l-2.6,2.8h-3.3v-39.4h3.3l2.6,2.8L404.1,173.4z M406,170.1
			l-1.8-1.9h-2v37.6h2l1.8-1.9l-3.1-3.4l3.1-3.4l-3.1-3.4l3.1-3.4l-3.1-3.4l3.1-3.4l-3.1-3.4l3.1-3.4l-3.1-3.4L406,170.1z
			 M413.3,166.6H407l3.2,3.4l-3.2,3.4l3.2,3.4l-3.2,3.4l3.2,3.4L407,187l3.2,3.4l-3.2,3.4l3.2,3.4l-3.2,3.4l3.2,3.4l-3.2,3.4h6.3
			V166.6z M412.7,206.7h-5.5l3.7-2.8l-3.2-3.4l3.2-3.4l-3.2-3.4l3.2-3.4l-3.2-3.4l3.2-3.4l-3.2-3.4l3.2-3.4l-3.2-3.4l3.2-3.4
			l-2.6-2.8h4.4V206.7z M411.9,176.7v-6.4l-2.9,3.2L411.9,176.7z M411.9,183.4V177l-2.9,3.2L411.9,183.4z M411.9,190.2v-6.4L409,187
			L411.9,190.2z M411.9,197v-6.4l-2.9,3.2L411.9,197z M411.9,203.7v-6.4l-2.9,3.2L411.9,203.7z M410.4,168.2l1.5,1.7v-1.7H410.4z
			 M411.9,204.1l-1.5,1.7h1.5V204.1z"/>
	</g>
	<g class="st1">
		<path class="st2" d="M432.7,206.5l-2.2-1.8l0.1-0.1c-6.4-5.2-8.4-11.7-8.4-19.7c0-1.3,0-2.7,0.8-3.8l-0.1,0.4
			c1.3-4.8,3.6-7.7,6.6-11.6l1,0.9l1-0.9l-0.3-1.5c3.9-2.1,8.6-4.6,13.2-4.6l3.4,0.2h-0.1c7.4,2.5,9.7,2.2,15.5,8.5l-0.1-0.1
			c4.9,5,8,10.3,8,17.5c0,3.3-0.5,6.8-2.1,9.7l0.1-0.1c-0.8,1.6-1.6,3.5-2.9,4.7l6.9,8.5h-10.6l-2.8-2.7c-0.1,0-0.5,0.1-0.6-0.1
			c-3.3,1.8-7,2.9-10.8,2.9C442.7,212.8,436.4,210.8,432.7,206.5L432.7,206.5z M423.2,180.9L423.2,180.9L423.2,180.9z M459.4,208.6
			c0.1,0.1,0.4,0.7,0.6,0.5l2.7,2.7h8.3l-6.2-7.7c3.6-2,5.3-10.9,5.3-14.7c0-6.7-3.3-11.8-7.7-16.4h0.1c-8.2-8.8-12.7-5.7-16.7-8.3
			c-5,0.4-9.2,1.7-13.6,4.2l0.4,1.1l-2.1,2.1l-0.9-0.9c-1.5,1.8-5.6,8.7-5.8,10.8v-0.1c-0.5,1.7-0.6,3.4-0.6,5.1
			c0,7.5,3.4,12.7,8.7,17.6h-0.1l1.4,1h-0.1c3.6,4.3,9.5,6.2,15.1,6.2C452.1,211.9,456.1,210.8,459.4,208.6z M433.5,204l-0.2-0.1
			l-0.6,0.7l-2.8-2.8l-0.1,0.1c-4.1-4.3-6-9.5-6-15.4c0-5.6,2.2-10.1,5.9-14.3l0.8,0.8l2.9-2.8l-0.6-0.8c2.9-1.8,6.1-3.1,9.5-3.6
			h-0.1c1.1-0.2,2.2-0.2,3.4-0.2c12,0,24,12.5,24,24.5c0,5.1-1.6,10.6-5.4,14.2l5.7,7.1h-6.9l-2.8-2.8H460l-0.5-0.6
			c-3.4,2-7.3,3.4-11.3,3.4c-10.1,0-9.6-3.8-15.5-6.7L433.5,204z M429.3,187l3.4-3.4l-3.4-3.3l3.4-3.5l-3-2.9
			c-3.1,3.6-4.8,8.4-4.8,13.2c0,4.6,1.4,9.8,4.8,13.2l3-2.9l-3.4-3.4l3.4-3.4L429.3,187z M431.8,197.2l-2,2.1
			c-2.8-3.5-4.3-7.8-4.3-12.3c0-4.4,1.5-8.9,4.3-12.3l2,2.2l-3.4,3.4l3.4,3.3l-3.4,3.4l3.4,3.4l-3.4,3.4L431.8,197.2z M430.7,190.4
			l-3.4-3.4l3.4-3.4l-3.1-3c-0.6,1.3-1.1,4.7-1.1,6.1c0,2.3,0.4,4.5,1.2,6.7L430.7,190.4z M428,179.3l2.7-2.5l-0.7-0.6
			C429.2,177.1,428.6,178.2,428,179.3z M430,197.9l0.7-0.6l-2.5-2.5C428.6,195.8,429.2,197,430,197.9z M446.8,166.6
			c-4.1,0-8.7,0.9-12.2,3.1l0.4,0.5l-3.3,3.3l3.4,3.4l-3.4,3.5l3.4,3.3l-3.4,3.4l3.4,3.4l-3.4,3.4l3.4,3.4l-3.4,3.4l3.4,3.4
			l-0.5,0.4c3.2,2,6.9,3,10.7,3c4.6,0,8.2-1.6,12-3.9l3.2,3.9h4.3l-4.9-6.2c3.2-5,5.7-7.7,5.7-14.2
			C465.7,177.2,457,166.6,446.8,166.6z M463.6,206.8h-2.8l-3.2-3.9l-1.1,0.5l0.4-0.2c0-0.3-0.5,0.4-0.8,0.4h0.1
			c-3.2,2.1-7,3.2-10.9,3.2c-2.4,0-7.9-1-9.7-2.5l0.3-0.3l-3.4-3.4l3.4-3.4l-3.4-3.4l3.4-3.4l-3.4-3.4l3.4-3.4l-3.4-3.3l3.4-3.5
			l-3.3-3.4l3.2-3.3l-0.3-0.3c3-1.6,6.3-2.6,9.7-2.6c7.2,0,16.9,5.5,18.6,13v-0.3c0.1,2.5,1.2,4.7,1.2,7.1c0,2.6-0.4,5.3-1.5,7.6
			v-0.1l-0.1,0.3c-0.9,2.4-2.7,4.5-4.3,6.3L463.6,206.8z M437,177l-3.2,3.3l3.2,3V177z M437,183.8l-3.2,3.2l3.2,3.2V183.8z
			 M437,190.6l-3.2,3.2l3.2,3.2V190.6z M457.4,201.1l-2,1.3h0.1c-3,2.1-6.6,3.1-10.2,3.1c-2.9,0-5.7-0.8-8.3-2v-6.2l-3.2,3.2
			l3.4,3.4l-0.1,0.1c2.6,1.2,5.4,1.8,8.2,1.8c4.8,0,8.1-2.9,12.5-4.1l3.4,4.1h0.5l-3.8-4.8v0.1l-3.4-4.3h-0.6L457.4,201.1z
			 M464.1,187c0-2.6-0.6-5.2-1.5-7.6v0.1c-3.9-6.8-9.1-11.4-17.3-11.4c-2.9,0-5.7,0.7-8.3,1.9l0.2,0.1l-3.3,3.4l3.1,3v-6
			c2.7-1.3,5.7-2,8.7-2c7.8,0,12,3.7,16,9.9c0.1,0.1-0.1,0-0.2-0.1c1.3,1.2,2.4,6.9,2.4,8.8c0,3.9-1.3,7.6-3.6,10.8v-0.1l-2.4,3.3
			c2-1.9,3.4-4.1,4.7-6.6l0.2-0.4l0.1-0.1h-0.1C463.6,191.7,464.1,189.4,464.1,187z M457.8,199.5c1-1.3,2-2.6,2.8-4v0.1
			c1.5-2.6,2.3-5.5,2.3-8.5c0-2.4-0.6-6.2-2.1-8.1l0.1-0.1l-0.1-0.1c-3.3-6.1-8.7-9.4-15.6-9.4c-2.5,0-5,0.7-7.3,1.7v31.8
			c2.5,1.1,5.3,1.7,8.1,1.7c3.7,0,7.1-1.7,10.2-3.7l-4.1-5h2.9L457.8,199.5z M455.2,200.7c-2.9,2.1-6.4,3.2-9.9,3.2
			c-2.3,0-4.6-0.6-6.8-1.4v-31.1c2.2-1,4.7-1.5,7.1-1.5c9.2,0,16.7,8,16.7,17.1c0,4.2-1.5,8.5-4.6,11.4l-2.5-3.2h-4.4L455.2,200.7z
			 M461.1,187.1c0-8.3-4.7-13.2-13-13.2c-2,0-3.9,0.4-5.7,1.2v27.4c1.2,0.2,2.4,0.3,3.6,0.3c2.6,0,5.3-1,7.5-2.3l-5.1-6.4h7.4
			c0.5,1,1.3,1.7,2.2,2.4C459.8,193.4,461.1,190.9,461.1,187.1z M447.1,193.5l5.6,6.9c-2.2,1.3-4.8,1.8-7.4,1.8
			c-0.8,0-1.5-0.1-2.2-0.2v-26.5c1.5-0.4,3-0.9,4.6-0.9c8.1,0,12.9,4.3,12.9,12.5c0,3.5-1.1,5.9-2.9,8.8c-0.6-0.8-1-1.6-1.5-2.4
			H447.1z M459.4,186.2c0-6.9-5-10.7-11.6-10.7c-1.3,0-2.7,0.2-3.9,0.7v25.1c0.7,0.1,1.3,0.1,2,0.1c1.8,0,3.6-0.5,5.3-1.3l-6-7.4
			h11.3l1.2,1.6C458.7,191.7,459.4,189,459.4,186.2z M462.5,194.5L462.5,194.5l0.3-0.6C462.7,194.2,462.6,194.3,462.5,194.5z"/>
	</g>
	<g class="st1">
		<path class="st2" d="M514.2,165.2l2.7,2.7v28.7c0,8.8-7.2,16.1-16,16.1h-6.7c-2.4,0-5-0.7-8-2l-0.4-0.4c-0.9-0.6-1.8-1.4-2.6-2.2
			l-0.8-0.8c-4.3-3.4-7.1-8.2-7.1-13.5v-29.8h18.7v1.3l2.7,2.7v33.3h1.3c4.1,0,7.4-3.4,7.4-7.5v-29.8h8.8V165.2z M513.3,164.9h-6.9
			v28.8c0,4.6-3.8,8.4-8.3,8.4h-2.3v-33.8l-2.7-2.7v-0.7h-16.9v28.8c0,4.8,2.7,9.6,6.7,12.7l0.9,1c0.7,0.8,1.5,1.4,2.5,2l0.4,0.4
			c2.9,1.3,5.4,2,7.6,2h6.7c8.3,0,15.1-7,15.1-15.2v-28.4l-2.7-2.7V164.9z M512.8,165.8l2.7,4.2v26.7c0,8.1-6.5,14.6-14.5,14.6h-6.7
			c-2.2,0-4.7-0.7-7.2-1.9l-0.3-0.4c-1-0.6-1.8-1.3-2.4-2l-1.1-1c-3.9-3-6.4-7.4-6.4-12.3v-28.3h15.7v0.4l2.7,2.7v34.2h2.9
			c4.8,0,8.9-4,8.9-9v-28.3h5.7V165.8z M485.7,170l-3.4-3.4H478v27.1c0,5,2.5,9.2,6.4,11.6l1.3-1.4l-3.4-3.4l3.4-3.4l-3.4-3.4
			l3.4-3.4l-3.4-3.4l3.4-3.4l-3.4-3.4l3.4-3.4l-3.4-3.4L485.7,170z M481.5,173.4l3.4,3.4l-3.4,3.4l3.4,3.4l-3.4,3.4l3.4,3.4
			l-3.4,3.4l3.4,3.4l-3.4,3.4l3.4,3.4l-0.6,0.7c-3.4-2.5-5.7-6.4-5.7-10.9v-26.5h3.6l2.7,2.8L481.5,173.4z M483.6,170l-1.9-1.9h-2.2
			v25.6c0,2.2,0.5,4.2,1.5,6l2.6-2.5l-3.4-3.4l3.4-3.4l-3.4-3.4l3.4-3.4l-3.4-3.4l3.4-3.4l-3.4-3.4L483.6,170z M511.6,166.6h-3.4
			v27.1c0,5.6-4.6,10.2-10.1,10.2h-6.7v-37.2h-6.7l3.4,3.4l-3.4,3.4l3.4,3.4l-3.4,3.4l3.4,3.4l-3.4,3.4l3.4,3.4l-3.4,3.4l3.4,3.4
			l-3.4,3.4l3.4,3.4l-2.1,2.2c1.7,0.8,3.5,1.3,5.5,1.3h6.7c7.4,0,13.5-6.2,13.5-13.7V166.6z M511,193.7c0,7.2-5.8,13-12.9,13h-6.7
			c-1.7,0-3.2-0.3-4.5-0.8l2-2l-3.4-3.4l3.4-3.4l-3.4-3.4l3.4-3.4l-3.4-3.4l3.4-3.4l-3.4-3.4l3.4-3.4l-3.4-3.4l3.4-3.4l-2.7-2.8h4.7
			v37.3h7.3c5.9,0,10.6-4.8,10.6-10.8v-26.5h2.2V193.7z M489.9,176.5v-6.3l-3.2,3.2L489.9,176.5z M489.9,183.3V177l-3.2,3.2
			L489.9,183.3z M489.9,190.1v-6.3l-3.2,3.2L489.9,190.1z M489.9,196.9v-6.3l-3.2,3.2L489.9,196.9z M489.9,203.7v-6.4l-3.2,3.2
			L489.9,203.7z M488.3,168.1l1.6,1.7v-1.7H488.3z M510.1,168.1h-0.4v25.6c0,6.4-5.1,11.7-11.6,11.7h-8.2v-1.3l-1.4,1.4
			c1,0.2,2,0.4,2.9,0.4h6.7c6.7,0,12-5.4,12-12.1V168.1z"/>
		<path class="st2" d="M559.7,202.6l2.7,2.7v7.5h-34l-2.7-2.7h-1.3V164h35.2v1.3l2.7,2.7v7.5h-16.7v5.4h7.3v1.3l2.7,2.8v7.5h-10v8.8
			h13.9V202.6z M558.9,202.2h-14v-10.6h10v-6.2l-2.7-2.7v-0.7h-7.3v-7.3h16.7v-6.2l-2.7-2.8V165h-33.5v44.2h0.6l2.8,2.7h32.7v-6.2
			l-2.7-2.7V202.2z M558.3,203.1l2.7,2.7v5.5h-32l-2.7-2.8h-0.3v-43h32.2v0.3l2.7,2.7v5.4h-16.7v8.5h7.3v0.4l2.7,2.7v5.4h-10v11.9
			h13.9V203.1z M534.8,170.1l-3.4-3.4h-4.3v40.7h4.3l3.4-3.4l-3.4-3.4l3.4-3.4l-3.4-3.4l3.4-3.4l-3.4-3.4l3.4-3.4l-3.4-3.4l3.4-3.4
			l-3.4-3.4L534.8,170.1z M530.6,173.5l3.4,3.4l-3.4,3.4l3.4,3.4l-3.4,3.4l3.4,3.4l-3.4,3.4l3.4,3.4l-3.4,3.4l3.4,3.4l-2.9,2.8h-3.4
			v-39.5h3.4l2.9,2.8L530.6,173.5z M532.7,170.1l-1.8-1.9h-2.2v37.7h2.2l1.8-1.9l-3.3-3.4l3.3-3.4l-3.3-3.4l3.3-3.4l-3.3-3.4
			l3.3-3.4l-3.3-3.4l3.3-3.4l-3.3-3.4L532.7,170.1z M557.1,204h-16.7V187h9.9v-3.4h-9.9v-13.6h16.7v-3.4h-23.3l3.3,3.4l-3.3,3.4
			l3.3,3.4l-3.3,3.4l3.3,3.4l-3.3,3.4l3.3,3.4l-3.3,3.4l3.3,3.4l-3.3,3.4l3.3,3.4l-3.3,3.4h23.3V204z M556.6,206.8h-21.4l2.8-2.8
			l-3.4-3.4l3.4-3.4l-3.4-3.4l3.4-3.4l-3.4-3.4l3.4-3.4l-3.4-3.4l3.4-3.4l-3.4-3.4l3.4-3.4l-2.8-2.8h21.4v2.2h-16.7v14.7h9.9v2.2
			h-9.9v18.1h16.7V206.8z M539,176.6v-6.3l-3.2,3.2L539,176.6z M539,183.4v-6.3l-3.2,3.2L539,183.4z M539,185.1v-1.3l-3.2,3.2
			l3.2,3.2v-4.7h9.9v-0.4H539z M539,197v-6.4l-3.2,3.2L539,197z M539,203.7v-6.4l-3.2,3.2L539,203.7z M537.4,168.2l1.6,1.7v-1.3
			h16.6v-0.4H537.4z M555.6,205.5H539v-1.3l-1.6,1.7h18.2V205.5z"/>
	</g>
</g>
<g id="Calque_8">
	<g class="st1">
		<path class="st3" d="M259.1,122.1h9.4c3.9,0,6.9,0.5,8.8,1.5c1.9,1,2.9,2.6,2.9,4.7c0,2.9-1.8,5.1-5.4,6.6
			c4.5,0.8,6.8,2.9,6.8,6.2c0,2.2-1,4.1-3.1,5.5s-5.6,2.2-10.8,2.2l-9.4,0c-0.2-0.6-0.4-1.1-0.4-1.7c0-0.4,0.1-0.6,0.3-0.8
			s0.5-0.2,0.9-0.2h1.4c0.1-1.7,0.1-5.4,0.1-11.1c0-5.2,0-8.6-0.1-10.2h-2.2c-0.2-0.6-0.4-1.1-0.4-1.6c0-0.4,0.1-0.6,0.3-0.8
			S258.7,122.1,259.1,122.1z M266.7,133.2c0.7,0.1,1.4,0.2,2.4,0.2c1.6,0,2.7-0.3,3.4-0.9s1-1.5,1-2.7c0-1.4-0.4-2.4-1.1-3
			c-0.7-0.6-1.8-1-3.3-1c-0.8,0-1.6,0.1-2.4,0.2C266.7,127.3,266.7,129.6,266.7,133.2z M266.7,136.8v4.6c0,1.5,0.2,2.5,0.5,2.9
			s1.3,0.7,2.9,0.7c1.6,0,2.8-0.3,3.6-0.9c0.7-0.6,1.1-1.6,1.1-3c0-1.5-0.5-2.6-1.4-3.4c-0.9-0.8-2.3-1.2-4.2-1.2
			C268.4,136.6,267.6,136.6,266.7,136.8z"/>
		<path class="st3" d="M285.9,122.1h10.7c0.2,0.5,0.3,1,0.3,1.4c0,0.5-0.1,0.8-0.3,1c-0.2,0.2-0.4,0.3-0.8,0.3h-1.9
			c-0.1,1.7-0.1,4.4-0.1,8.2c0,7,0,11.4,0.1,13.1h2.6c0.2,0.5,0.3,1,0.3,1.4c0,0.5-0.1,0.8-0.3,1c-0.2,0.2-0.4,0.3-0.8,0.3h-10.7
			c-0.2-0.6-0.4-1.1-0.4-1.7c0-0.4,0.1-0.6,0.3-0.8s0.5-0.2,0.9-0.2h1.8c0.1-1.7,0.1-6,0.1-13.1c0-3.8-0.1-6.6-0.1-8.2h-2.6
			c-0.2-0.6-0.4-1.1-0.4-1.6c0-0.4,0.1-0.6,0.3-0.8S285.5,122.1,285.9,122.1z"/>
		<path class="st3" d="M301.6,122.1h17.8c0.8,0,1.4,0.1,1.8,0.4c0.4,0.3,0.5,0.8,0.5,1.6c0,1-0.3,2-1,3c-2.7-1.1-6.2-1.7-10.5-1.7
			h-0.9c-0.1,1.3-0.1,3.9-0.1,7.8h9.8c0.2,0.7,0.3,1.4,0.3,2.1c0,0.4-0.1,0.7-0.2,0.9s-0.5,0.2-0.9,0.2h-9c0,5,0.1,8,0.1,9.1h1.6
			c4.4,0,7.9-0.5,10.4-1.5c0.6,0.9,0.9,1.8,0.9,2.8c0,0.7-0.3,1.2-0.8,1.5c-0.5,0.3-1.6,0.5-3.2,0.5l-17.4,0
			c-0.2-0.6-0.4-1.1-0.4-1.7c0-0.4,0.1-0.6,0.3-0.8s0.5-0.2,0.9-0.2h1.4c0.1-1.7,0.1-6,0.1-13.1c0-3.8,0-6.6-0.1-8.2h-2.2
			c-0.2-0.6-0.4-1.1-0.4-1.6c0-0.4,0.1-0.6,0.3-0.8S301.2,122.1,301.6,122.1z"/>
		<path class="st3" d="M326.7,122.1h8.4c1.7,3.3,3.4,6.4,5,9.3c1.6,2.9,3.3,6.4,5,10.6v-9c0-3.8,0-6.6-0.1-8.2h-2.2
			c-0.2-0.6-0.3-1.1-0.3-1.6c0-0.4,0.1-0.6,0.3-0.8s0.5-0.2,0.9-0.2h8.8c0.2,0.5,0.3,1,0.3,1.4c0,0.5-0.1,0.8-0.3,1
			c-0.2,0.2-0.4,0.3-0.8,0.3H350c-0.1,1.7-0.1,4.4-0.1,8.2v13.1c0,1.2-0.1,2-0.4,2.3c-0.3,0.3-1,0.5-2.3,0.5c-2.4,0-3.8-0.1-4.1-0.3
			c-0.3-0.2-1.6-2.2-3.9-5.9c-2.3-3.8-4.4-8-6.3-12.6c0,9,0,14.3,0.1,15.9h2c0.2,0.5,0.3,1,0.3,1.4c0,0.5-0.1,0.8-0.3,1
			c-0.2,0.2-0.4,0.3-0.8,0.3h-8.7c-0.2-0.6-0.4-1.1-0.4-1.7c0-0.4,0.1-0.6,0.3-0.8s0.5-0.2,0.9-0.2h1.6c0.1-1.7,0.1-6,0.1-13.1
			c0-3.8-0.1-6.6-0.1-8.2h-2c-0.2-0.6-0.4-1.1-0.4-1.6c0-0.4,0.1-0.6,0.3-0.8S326.4,122.1,326.7,122.1z"/>
		<path class="st3" d="M373.5,122.1h8.6c0.2,0.5,0.3,1,0.3,1.4c0,0.5-0.1,0.8-0.3,1c-0.2,0.2-0.4,0.3-0.8,0.3h-0.9
			c-0.8,2.5-2.2,6.7-4.1,12.5s-3.1,9.3-3.8,10.3c-0.6,1-1.9,1.5-3.8,1.5c-2.1,0-3.2-0.1-3.4-0.2c-0.2-0.1-1.4-3.6-3.6-10.3
			s-3.8-11.3-4.8-13.9h-1.6c-0.2-0.6-0.4-1.1-0.4-1.6c0-0.4,0.1-0.6,0.3-0.8s0.5-0.2,0.9-0.2h9.7c0.2,0.5,0.3,1,0.3,1.4
			c0,0.5-0.1,0.8-0.3,1c-0.2,0.2-0.4,0.3-0.8,0.3h-1c0.3,1.4,1.3,4.9,2.9,10.4c1.7,5.5,2.6,8.3,2.9,8.3c0.2,0,1.1-2.7,2.5-8.2
			c1.4-5.5,2.2-9,2.3-10.5h-1.8c-0.2-0.6-0.3-1.1-0.3-1.6c0-0.4,0.1-0.6,0.3-0.8C372.8,122.2,373.1,122.1,373.5,122.1z"/>
		<path class="st3" d="M385.5,122.1h17.8c0.8,0,1.4,0.1,1.8,0.4s0.5,0.8,0.5,1.6c0,1-0.3,2-1,3c-2.7-1.1-6.2-1.7-10.5-1.7h-0.9
			c-0.1,1.3-0.1,3.9-0.1,7.8h9.8c0.2,0.7,0.3,1.4,0.3,2.1c0,0.4-0.1,0.7-0.2,0.9s-0.5,0.2-0.9,0.2h-9c0,5,0.1,8,0.1,9.1h1.6
			c4.4,0,7.9-0.5,10.4-1.5c0.6,0.9,0.9,1.8,0.9,2.8c0,0.7-0.3,1.2-0.8,1.5s-1.6,0.5-3.2,0.5l-17.4,0c-0.2-0.6-0.4-1.1-0.4-1.7
			c0-0.4,0.1-0.6,0.3-0.8s0.5-0.2,0.9-0.2h1.4c0.1-1.7,0.1-6,0.1-13.1c0-3.8,0-6.6-0.1-8.2h-2.2c-0.2-0.6-0.4-1.1-0.4-1.6
			c0-0.4,0.1-0.6,0.3-0.8S385.1,122.1,385.5,122.1z"/>
		<path class="st3" d="M410.6,122.1h8.4c1.7,3.3,3.4,6.4,5,9.3s3.3,6.4,5,10.6v-9c0-3.8,0-6.6-0.1-8.2h-2.2
			c-0.2-0.6-0.3-1.1-0.3-1.6c0-0.4,0.1-0.6,0.3-0.8s0.5-0.2,0.9-0.2h8.8c0.2,0.5,0.3,1,0.3,1.4c0,0.5-0.1,0.8-0.3,1
			s-0.4,0.3-0.8,0.3h-1.7c-0.1,1.7-0.1,4.4-0.1,8.2v13.1c0,1.2-0.1,2-0.4,2.3s-1,0.5-2.3,0.5c-2.4,0-3.8-0.1-4.1-0.3
			s-1.6-2.2-3.9-5.9s-4.4-8-6.3-12.6c0,9,0,14.3,0.1,15.9h2c0.2,0.5,0.3,1,0.3,1.4c0,0.5-0.1,0.8-0.3,1s-0.4,0.3-0.8,0.3h-8.7
			c-0.2-0.6-0.4-1.1-0.4-1.7c0-0.4,0.1-0.6,0.3-0.8s0.5-0.2,0.9-0.2h1.6c0.1-1.7,0.1-6,0.1-13.1c0-3.8-0.1-6.6-0.1-8.2h-2
			c-0.2-0.6-0.4-1.1-0.4-1.6c0-0.4,0.1-0.6,0.3-0.8S410.3,122.1,410.6,122.1z"/>
		<path class="st3" d="M457.7,124.7h-2.2c-0.2-0.6-0.4-1.1-0.4-1.6c0-0.4,0.1-0.6,0.3-0.8s0.5-0.2,0.9-0.2h9c0.2,0.5,0.3,1,0.3,1.4
			c0,0.5-0.1,0.8-0.3,1s-0.4,0.3-0.8,0.3h-1.5c-0.1,1.7-0.1,5.6-0.1,11.7c0,4.9-1,8.3-2.9,10.1s-4.8,2.7-8.7,2.7
			c-3.5,0-5.9-0.6-7.2-1.9s-2-3.7-2-7.1c0-8.5,0-13.6-0.1-15.3h-1.8c-0.2-0.6-0.3-1.1-0.3-1.6c0-0.4,0.1-0.6,0.3-0.8
			s0.5-0.2,0.8-0.2h9.3c0.2,0.5,0.3,1,0.3,1.4c0,0.5-0.1,0.8-0.3,1s-0.4,0.3-0.8,0.3h-1.3c-0.1,1.7-0.1,5.5-0.1,11.3
			c0,3.8,0.4,6.3,1.2,7.5s2,1.8,3.6,1.8c1.7,0,3-0.5,3.7-1.6s1.1-3.2,1.1-6.3C457.8,130.7,457.8,126.5,457.7,124.7z"/>
		<path class="st3" d="M469.4,122.1h17.8c0.8,0,1.4,0.1,1.8,0.4s0.5,0.8,0.5,1.6c0,1-0.3,2-1,3c-2.7-1.1-6.2-1.7-10.5-1.7h-0.9
			c-0.1,1.3-0.1,3.9-0.1,7.8h9.8c0.2,0.7,0.3,1.4,0.3,2.1c0,0.4-0.1,0.7-0.2,0.9s-0.5,0.2-0.9,0.2h-9c0,5,0.1,8,0.1,9.1h1.6
			c4.4,0,7.9-0.5,10.4-1.5c0.6,0.9,0.9,1.8,0.9,2.8c0,0.7-0.3,1.2-0.8,1.5s-1.6,0.5-3.2,0.5l-17.4,0c-0.2-0.6-0.4-1.1-0.4-1.7
			c0-0.4,0.1-0.6,0.3-0.8s0.5-0.2,0.9-0.2h1.4c0.1-1.7,0.1-6,0.1-13.1c0-3.8,0-6.6-0.1-8.2h-2.2c-0.2-0.6-0.4-1.1-0.4-1.6
			c0-0.4,0.1-0.6,0.3-0.8S469,122.1,469.4,122.1z"/>
	</g>
	<g class="st1">
		<path class="st3" d="M514.8,121.7c2.2,0,3.4,0.1,3.7,0.2s1.6,3.6,3.8,10.3s3.9,11.3,4.9,13.9h1.8c0.2,0.5,0.3,1,0.3,1.4
			c0,0.5-0.1,0.8-0.3,1s-0.4,0.3-0.8,0.3h-10c-0.2-0.6-0.3-1.1-0.3-1.7c0-0.4,0.1-0.6,0.3-0.8s0.5-0.2,0.9-0.2h0.9
			c-0.2-0.9-0.7-2.8-1.5-5.6h-8.3c-0.7,2.7-1.2,4.6-1.4,5.6h1.9c0.2,0.5,0.3,1,0.3,1.4c0,0.5-0.1,0.8-0.3,1s-0.4,0.3-0.8,0.3h-8.5
			c-0.2-0.6-0.3-1.1-0.3-1.7c0-0.4,0.1-0.6,0.3-0.8s0.5-0.2,0.8-0.2h1.1c0.9-2.5,2.3-6.6,4.2-12.2s3.1-9.1,3.7-10.3
			S513.1,121.7,514.8,121.7z M511.2,137.2h6.5c-2-6.6-3.1-9.8-3.3-9.8S513,130.6,511.2,137.2z"/>
	</g>
	<g class="st1">
		<path class="st3" d="M548.6,124.7h-2.2c-0.2-0.6-0.4-1.1-0.4-1.6c0-0.4,0.1-0.6,0.3-0.8s0.5-0.2,0.9-0.2h9c0.2,0.5,0.3,1,0.3,1.4
			c0,0.5-0.1,0.8-0.3,1c-0.2,0.2-0.4,0.3-0.8,0.3H554c-0.1,1.7-0.1,5.6-0.1,11.7c0,4.9-1,8.3-2.9,10.1c-1.9,1.8-4.8,2.7-8.7,2.7
			c-3.5,0-5.9-0.6-7.2-1.9c-1.3-1.3-2-3.7-2-7.1c0-8.5,0-13.6-0.1-15.3h-1.8c-0.2-0.6-0.3-1.1-0.3-1.6c0-0.4,0.1-0.6,0.3-0.8
			c0.2-0.2,0.5-0.2,0.8-0.2h9.3c0.2,0.5,0.3,1,0.3,1.4c0,0.5-0.1,0.8-0.3,1c-0.2,0.2-0.4,0.3-0.8,0.3h-1.3
			c-0.1,1.7-0.1,5.5-0.1,11.3c0,3.8,0.4,6.3,1.2,7.5c0.8,1.2,2,1.8,3.6,1.8c1.7,0,3-0.5,3.7-1.6c0.7-1.1,1.1-3.2,1.1-6.3
			C548.8,130.7,548.7,126.5,548.6,124.7z"/>
	</g>
</g>
<g id="shadow">
	<path class="st3" d="M0,406.1c0.4,21.9,179.5,39.7,400.3,39.7s399.9-17.8,400.3-39.7H0z"/>
</g>
<g id="shadow-2">
	<path class="st3" d="M645.2,489.5v7.4h-45.9l-0.7,8.5h-37.5v8.4h-44.3v8.5h-56.3v13.2H340v-8.8h-0.2v-4.2h-56.1V514h-44.3v-8.4H202
		l-0.7-8.5h-45.9v-7.4h-31.6v-12.3h216v-0.2H351l0,0h101.6l0,0h224.2v12.4H645.2z M460.7,489.5L460.7,489.5l-0.1,15.8h0.1v-8.5l0,0
		L460.7,489.5z"/>
</g>
<g id="mountains">
	<path class="st4" d="M725.4,312.4c-1.8-1-3.6-2-5.4-2.9c1.4-14.4,4.4-31.7,4-34c-0.7-4-24.5,0-25.2-1.3c-2.2-4.3-2.7-36.7-2.7-38
		s-16.6-1.1-21.2,0s-2,20.9-1.3,29c1.1,13.3-30.8,4.4-30.8,4.4c0-33.2,3.7-63.9-4.2-65c-10-1-20-1.2-30.1-0.7
		c-4.9,0.4,2.5,34.3-3.5,45.4c-1.3,2.5-10.3,2.2-14,2c-16.8-1-5.1,14.5-12.1,23.7c-6.8,0.1-128.6-31-199.7-29.6
		c-49.5,1-44.5,38.9-128,48.3c-25,2.8-44.9,5.4-60.9,7.8c-1.1-28.3-3.7-59.2-10.2-59.1c-8,0-17.3,3.3-18.9-1.3
		c-4.8-13.3,3.1-36.2-8.1-34.8c-2.5,0.3-8.4,0.7-9.3-2.9c-4-16.1,0.9-65.5-2.4-66c-6.2-1-16.4-0.1-20,1c-5.2,1.6-2.8,46.3-2.8,94.6
		c0,0-21.2,12.9-20.5-6.4c0.4-11.9,2.2-40.7-0.9-42.3s-14.2-1.9-14.2,0s-0.3,49.1-1.8,55.3c-0.5,1.9-16.5-3.9-16.9,1.9
		s5.8,74.9,1.8,78.4s-5.8-5-14.6-1.5c-6.8,2.7-6,23.7-5.2,33.1C27.9,367,12.3,385.5,0,406.1l800.8-1
		C800.8,405.1,781,343.7,725.4,312.4z"/>
	<path class="st5" d="M600.7,361.8c-95.2-6.8-65-68.4-121.5-69.1c-90.3-1.1-162.6,32-205.3,22.8c-53.7-11.6-103.5,26.8-172,51
		C60,381.3,25.2,395.4,0,406.1l786,0.8C786,406.9,764.4,373.5,600.7,361.8z"/>
</g>
<g id="rock">
	<path class="st6" d="M662.3,362c-71.5-6.8-48.8-68.4-91.3-69.1c-67.8-1.1-122.2,32-154.2,22.8c-55.2-15.8-81.5,28.1-129.2,51
		s-76.2,38-76.2,38l590.2,2.4C801.6,407.1,785.3,373.8,662.3,362z"/>
</g>
<g id="cactus">
	<path class="st3" d="M124,329.8c-2.7,0-4.8,4-4.8,9c0,2.8,1.4,25.5,1.1,28.5c-0.3,2.5-5,3.5-8.3,2.3c0.6-30,1.2-59.9,1.2-61.3
		c0-5-4-9-9-9s-9,4-9,9c0,1.2,0.4,28.4,1.1,57.1c-3.5-0.8-7.5-4.9-7.6-8.8c-0.1-5.2,1.6-25.8,1.6-28.5c0-5-3.3-9-7.3-9s-7.3,4-7.3,9
		c0,2.5,2.9,33.5,3.1,35.6c0.9,8.4,11.3,9.1,17.7,8.7c0.7,26.6,1.6,52.8,2.5,59.2c2,14.1,11.7,4.8,11.8-0.8c0-2.5,0.6-27,1.1-53.5
		c5.2,0.6,13.9,0.9,14.9-3.1c1.5-5.9,2-33.1,2-35.6C128.8,333.8,126.7,329.8,124,329.8z"/>
	<path class="st3" d="M673.8,335.3c2.9,0,5.2,3.4,5.2,7.5c0,2.3-1.5,21.4-1.1,23.9c0.3,2.1,5.4,2.9,8.9,1.9
		c-0.7-25.1-1.3-50.1-1.3-51.3c0-4.2,4.4-7.5,9.7-7.5s9.7,3.4,9.7,7.5c0,1-0.5,23.8-1.2,47.8c3.7-0.7,8.1-4.1,8.2-7.4
		c0.1-4.3-1.7-21.5-1.7-23.9c0.2-4.4,3.9-7.7,8.3-7.5c4.1,0.2,7.3,3.5,7.5,7.5c0,2.1-3.1,28-3.4,29.8c-1,7-12.2,7.6-19.1,7.3
		c-0.7,22.2-1.7,44.1-2.7,49.6c-2.2,11.8-12.6,4-12.7-0.6c0-2.1-0.6-22.6-1.2-44.7c-5.6,0.5-15,0.8-16.1-2.6
		c-1.6-4.9-2.2-27.7-2.2-29.8C668.7,338.7,670.9,335.3,673.8,335.3z"/>
	<path class="st0" d="M594.2,319.4c2.4,0,4.3,4.1,4.3,9.2c0,2.8-1.2,26.2-0.9,29.3c0.2,2.6,4.5,3.6,7.4,2.4
		c-0.6-30.7-1.1-61.4-1.1-62.9c0-5.1,3.6-9.2,8.1-9.2s8.1,4.1,8.1,9.2c0,1.3-0.4,29.2-1,58.6c3.1-0.9,6.7-5,6.8-9
		c0.1-5.3-1.4-26.4-1.4-29.2c0-5.1,2.9-9.2,6.6-9.2s6.6,4.1,6.6,9.2c0,2.5-2.6,34.4-2.8,36.5c-0.8,8.6-10.2,9.3-15.8,9
		c-0.6,27.3-1.4,54.1-2.2,60.8c-1.8,14.5-10.5,4.9-10.5-0.8c0-2.5-0.5-27.7-1-54.8c-4.7,0.6-12.5,1-13.4-3.2
		c-1.3-6-1.8-33.9-1.8-36.5C589.9,323.5,591.8,319.4,594.2,319.4z"/>
</g>
<g id="pyramid">
	<polygon class="st7" points="283.7,306.5 283.7,338.6 239.5,338.6 239.5,370.3 202,370.3 201.4,402.6 155.4,402.6 155.4,430.5 
		123.8,430.5 123.8,477.1 340,477.1 340,430.5 339.9,430.5 339.9,402.6 340,402.6 340,370.7 340.1,370.7 340.1,338.6 340.1,338.6 
		340.1,306.5 	"/>
	<polygon class="st7" points="516.9,307.1 516.9,339.2 561.2,339.2 561.2,371 598.6,370.9 599.3,403.2 645.2,403.2 645.2,431.1 
		676.8,431.1 676.8,477.8 460.6,477.8 460.6,431.1 460.7,431.1 460.7,403.2 460.7,403.2 460.7,371.3 460.5,371.3 460.5,339.2 
		460.5,339.2 460.5,307.1 	"/>
	<polygon class="st8" points="509.4,329.8 509.4,357.6 547.8,357.6 547.8,385.1 580.3,385.1 580.9,413.1 620.8,413.1 620.8,437.3 
		648.2,437.3 648.2,477.8 460.6,477.8 460.6,437.3 460.7,437.3 460.7,413.1 460.7,413.1 460.7,385.4 460.5,385.4 460.5,357.6 
		460.5,357.6 460.5,329.8 	"/>
	<polygon class="st8" points="292,330.8 292,358.6 253.6,358.6 253.6,386.2 221.1,386.1 220.6,414.1 180.7,414.1 180.7,438.4 
		153.3,438.4 153.3,478.8 340.9,478.8 340.9,438.4 340.8,438.4 340.8,414.1 340.8,414.1 340.8,386.5 341,386.5 341,358.6 341,358.6 
		341,330.8 	"/>
	<rect x="339.8" y="306" class="st9" width="120.8" height="201.7"/>
	<rect x="340" y="257.3" class="st7" width="120.6" height="49.5"/>
	<rect x="349.5" y="321" class="st7" width="101.6" height="16.7"/>
	<rect x="350" y="351.6" class="st7" width="101.6" height="16.7"/>
	<rect x="350.6" y="383.1" class="st7" width="101.6" height="16.7"/>
	<rect x="350" y="414.2" class="st7" width="101.6" height="16.7"/>
	<rect x="350.6" y="445.8" class="st7" width="101.6" height="16.7"/>
	<rect x="351" y="477.1" class="st7" width="101.6" height="19.5"/>
	<rect x="385.2" y="262.9" class="st9" width="30" height="45.9"/>
</g>
<g id="Calque_9">
	<path class="st10" d="M632.5,89.8c15.5-5,32.5-3.2,46.6,5c-17.1-7.1-36.3-7.4-53.6-0.9c-9.5,3.4-19.3,6.1-29.2,8
		c-2.8,0.6-5.6,1.1-8.3,1.5c-2.1,0.3-4.1,0.6-6,0.9l-1.1,0.2c-0.8,0.1-1.5,0.2-2.2,0.3c-5,0.7-10.1,1.1-15.2,1.1
		c-1.2-0.1-2.3-0.3-3.4-0.8c-0.4-0.1-0.8-0.3-1.2-0.5l-1-0.5l-0.5-0.2l-0.1-0.1l-0.5-0.2c-0.3-0.2-0.6-0.3-0.9-0.5
		c-0.3-0.2-0.7-0.4-1-0.6c-1.8-1.1-3.6-2.4-5-3.4l-0.3-0.2c-4-0.7-7.1-3.2-7.6-6.3c-1.8-0.1-4.7-0.8-5-3.7c2,2.2,2.7,2,2.7,2
		s-2.2-4.5-0.8-7c0.9,2.6,1.7,4.4,3.7,4.9c1.5-2.7,7-5.2,10.9-3.8c13.5,4.9,26.7,13.3,66.2,5.5c17.8-3.5,22.5-27.3,44.4-22.4
		c17.3,3.9,21.2,2.5,26.3-3.2c-0.2,0.3-6.8,11.4-19.1,7.4C652.2,66.2,636.2,80.5,632.5,89.8z"/>
	<path class="st11" d="M544.2,96.3c0,0.3-6.5,1.9-6.8,1.6s4.7-5.2,4.7-5.2C542.4,94.1,543.1,95.4,544.2,96.3z"/>
	<path class="st12" d="M588,102.8c0,0.1,0,0.3,0,0.4c0,0.1,0,0.1,0,0.2c-2.1,0.3-4.1,0.6-6,0.9l-1.1,0.2c-0.8,0.1-1.5,0.2-2.2,0.3
		c-5,0.7-10.1,1.1-15.2,1.1c-1.2-0.1-2.3-0.3-3.4-0.8c-0.4-0.1-0.8-0.3-1.2-0.5l-1-0.5l-0.5-0.2l-0.1-0.1l-0.5-0.2
		c-0.3-0.2-0.6-0.3-0.9-0.5c-0.3-0.2-0.7-0.4-1-0.6c-1.8-1.1-3.6-2.4-5-3.4c1.7-1.9,4.6-3.6,8.2-4.6c0.5-0.2,1-0.3,1.6-0.4l0.3-0.1
		c0.2-0.1,0.4-0.1,0.6-0.1l1.2-0.2l0.5-0.1c0.6-0.1,1.2-0.2,1.8-0.2c1.3-0.1,2.7-0.2,4-0.2c10.1,0,18.5,3.7,19.6,8.5
		C588,102,588,102.4,588,102.8z"/>
	<path class="st13" d="M589.4,78.5c-1.8,1.3-7.9,1.3-8.7,1.3c0.9,0.2,8.3,1.5,9.2,0.8c-1.8,4.3-9.5,2.6-9.5,2.6s5.2,4.9,8.1,5.8
		c-2.4,1.2-5.2-0.9-7.2-2.4c1.6,1.5,5.5,4.9,5.5,5.4c-0.9-0.2-4.6-3-5.8-4.1c1.1,1.2,4.7,4.4,4.9,4.9c-1.1-0.1-5.1-4.3-5.5-4.6
		c0.4,0.9,4.1,4.4,4.2,5c-1.1-0.4-4.3-3.8-4.8-4.5c0.4,0.8,4,4.3,4.1,4.7c-1.3-0.9-2.6-1.9-3.7-3.1c1,1.2,2.1,2.4,3.3,3.5
		c-1.1,1.2-2.4,2.3-3.8,3.1c-0.5-0.5-1-0.9-1.6-1.2l1.3,1.3c0,0-2.6,2-3.9,1.4c-1-1.1-3.5-4.2-3.5-4.2l1.6,4.4
		c-0.2-0.1-1.7-1.4-2.3-0.7c-1.2,2-2.1,4.2-2.7,6.5c-0.1,0.5-0.2,1-0.2,1.5c-2.2,0.1-3.8,0.2-5,0.1l-0.6-0.1c-2.1-1-4-2.2-4.6-3
		c-0.4-0.6-0.6-1.4-0.5-2.2c0.5-0.2,1-0.4,1.5-0.4c1.5-0.1,3-0.8,3.9-2.1c0.4-0.6,0.7-1.2,0.9-1.9c0.2-0.7,0.3-1.5,0.3-2.3l0,0v-0.3
		c0.1-0.5,0.1-0.9,0.1-1.4c0,0,0-0.1,0-0.2c0.1-0.7,0-1.5-0.1-2.2c0,0-4-7,2.9-20.1c1.4-2.6,2.5-6.3,5.5-8.4c-1.1,1.6-1.8,3.4-2,5.2
		c1.1-3.5,5.6-9.7,8.1-12.2c-2.8,5.9-1.9,4.8-1.9,4.8c0.6-2.3,5.7-9.2,11.2-10.9c-2.4,2.1-8.2,9.1-8.7,11.5c2.8-4.1,3.6-6.2,8.6-9.1
		c-1,3.7-6.1,9-8.2,10.5c-0.5,0.8,7.2-5.3,8.6-7.7c0.3,1-5.7,7.8-7.2,9c3-1.9,8-8.3,8.2-7.8s2.8,3.7,2,6c-0.8,1.8-2,3.5-3.4,5
		c1-0.5,4-3.4,4.3-4.4c0.3,1.3-2.6,7.8-6.7,9.8l0,0c0.4-0.1,5.5-2.2,6.4-3.4C592.3,71.8,591.7,76.7,589.4,78.5z"/>
	<path class="st3" d="M596.3,101.9c-2.8,0.6-5.6,1.1-8.3,1.5c-2.1,0.3-4.1,0.6-6,0.9l-1.1,0.2c-0.8,0.1-1.5,0.2-2.2,0.3
		c-4,0.5-7.5,0.8-10.2,1c-2.2,0.1-3.8,0.2-5,0.1l-0.6-0.1c-0.9-0.1-1.9-0.4-2.7-0.7c-0.4-0.1-0.8-0.3-1.2-0.5l-1-0.5l-0.5-0.2
		l-0.1-0.1l-0.5-0.2c-0.3-0.2-0.6-0.3-0.9-0.5c0-0.1-0.1-0.2-0.1-0.3c0.3-0.9,1-1.7,1.9-2.2c0.5-0.2,1-0.4,1.5-0.4
		c1.5-0.1,3-0.8,3.9-2.1c0.4-0.6,0.7-1.2,0.9-1.9c0.2-0.7,0.3-1.5,0.3-2.3l0,0c0-0.1,0-0.2,0-0.3s0-0.2,0-0.2s0,0,0,0.1
		c0,0,0,0.1,0,0.2c0.1,0.5,0.3,1.7,0.5,3c0.1,0.7,0.1,1.4,0.1,2.2c0,1.7-0.2,3.2-0.9,4c0.9-1,1.8-2.1,2.5-3.3
		c0.2-0.3,0.4-0.6,0.5-0.9c0,0.4,0,0.8,0,1.2c-0.2,1.6-0.9,3.7-1.8,4.3c-1.2,0.9,2.3,1.7,3.4,0.2c0,0.2,0,0.3,0,0.5
		s10.4-2.4,19.3-3.1C590.6,101.3,593.5,101.4,596.3,101.9z"/>
</g>
</svg>
