<?xml version="1.0" encoding="utf-8"?>
<!-- Generator: Adobe Illustrator 24.0.1, SVG Export Plug-In . SVG Version: 6.00 Build 0)  -->
<svg version="1.1" id="Calque_1" xmlns="http://www.w3.org/2000/svg" xmlns:xlink="http://www.w3.org/1999/xlink" x="0px" y="0px"
	 viewBox="0 0 800 600" style="enable-background:new 0 0 800 600;" xml:space="preserve">
<style type="text/css">
	.st0{fill:#99CE9E;}
	.st1{fill:#A2E2D6;}
	.st2{fill:#92CCC1;}
	.st3{fill:#56725A;}
	.st4{fill:#6F9E77;}
	.st5{fill:#5E8463;}
	.st6{fill:#354637;}
	.st7{fill:#52915C;}
	.st8{fill:#3C7846;}
	.st9{fill:#6C7C6B;}
</style>
<rect x="0" y="-1.98" class="st0" width="799.07" height="601.97"/>
<rect x="0.29" y="0.69" class="st1" width="799.71" height="599.12"/>
<path class="st2" d="M20.53,151.2c0,0,33.83,14.78,54.74,16.12s29.97,25.63,65.41,24.29s145.61-17.31,155.79-26.27
	c10.18-8.95,60-18.34,59.88-22.62C356.23,138.44,47.48,144.82,20.53,151.2z"/>
<path class="st3" d="M20.23,151.14c0,0,33.56-25.07,54.54-28.41c20.98-3.34,29.37-41.78,65.03-41.78s146.84,18.38,157.32,31.75
	c10.49,13.37,60.83,25.07,60.83,31.75C357.95,151.14,47.5,159.5,20.23,151.14z"/>
<path class="st4" d="M0.92,330.28c0,0,126.46,12.84,164.16,73.77c51.66,83.5,162.32,11.02,195.02,84.58
	c23.2,52.19,67.2,109.77,67.2,109.77L0,599.99L0.92,330.28z"/>
<path class="st5" d="M799.7,410.85l-257.34,0.34c0,0,9.29-49.21,43.36-55.99c34.07-6.79,66.94-128.6,99.11-134.04
	s115.23-102.46,115.23-102.46L799.7,410.85z"/>
<path class="st2" d="M799.7,410.85l0.06,75.64c0,0-3.26,20.53-47.27,33.53c-5.17,1.53-10.46,2.21-15.83,2.29
	c-19.1-9.25-38.26-17.15-50.93-18.2c-32.36-2.67-65.42-62.31-99.69-65.63s-43.61-27.41-43.61-27.41L799.7,410.85z"/>
<g>
	<g>
		<path class="st5" d="M276.78,190.74c0,3.24-1.4,5.7-4.2,7.38c1.53,0.56,2.8,1.53,3.83,2.9c1.03,1.37,1.54,3.31,1.54,5.82
			c0,2.51-0.93,4.49-2.78,5.96c-1.85,1.46-4.51,2.2-7.97,2.2h-11.03c-0.53,0-0.97-0.18-1.31-0.54c-0.34-0.36-0.51-0.83-0.51-1.43
			v-29.9c0-0.34,0.05-0.57,0.16-0.68c0.11-0.11,0.33-0.16,0.68-0.16h10.65C273.13,182.28,276.78,185.1,276.78,190.74z
			 M263.32,189.85v6.12h0.23c2.99,0,4.49-1,4.49-2.99c0-1.09-0.29-1.88-0.86-2.38c-0.58-0.5-1.53-0.75-2.87-0.75H263.32z
			 M263.32,201.49v6.07h0.84c1.34,0,2.32-0.25,2.94-0.75c0.62-0.5,0.93-1.29,0.93-2.38c0-1.09-0.29-1.85-0.86-2.29
			c-0.58-0.44-1.53-0.65-2.87-0.65H263.32z"/>
		<path class="st5" d="M284.67,206.95v-16.63h-3.32c-0.53,0-0.9-0.67-1.12-2.01c-0.09-0.65-0.14-1.32-0.14-2.01
			c0-0.68,0.05-1.35,0.14-2.01c0.22-1.34,0.59-2.01,1.12-2.01h15.7c0.53,0,0.89,0.67,1.07,2.01c0.12,0.65,0.19,1.32,0.19,2.01
			c0,0.69-0.06,1.36-0.19,2.01c-0.19,1.34-0.55,2.01-1.07,2.01h-3.13v16.63h3.27c0.53,0,0.9,0.67,1.12,2.01
			c0.12,0.65,0.19,1.32,0.19,2.01c0,0.69-0.06,1.35-0.19,2.01c-0.22,1.34-0.59,2.01-1.12,2.01h-15.75c-0.53,0-0.89-0.67-1.07-2.01
			c-0.12-0.65-0.19-1.32-0.19-2.01c0-0.68,0.06-1.36,0.19-2.01c0.19-1.34,0.54-2.01,1.07-2.01H284.67z"/>
		<path class="st5" d="M316.82,195.27c0.59,0,0.89,1.09,0.89,3.27c0,0.65-0.07,1.43-0.21,2.31c-0.14,0.89-0.4,1.33-0.77,1.33h-5.93
			v4.67h8.6c0.53,0,0.89,0.69,1.07,2.06c0.09,0.59,0.14,1.22,0.14,1.89c0,0.67-0.09,1.53-0.28,2.59c-0.19,1.06-0.5,1.59-0.93,1.59
			h-15.98c-1.18,0-1.78-0.48-1.78-1.45V183.5c0-0.81,0.36-1.21,1.07-1.21h16.73c0.65,0,0.98,1.38,0.98,4.13
			c0,2.76-0.33,4.13-0.98,4.13h-8.64v4.72H316.82z"/>
		<path class="st5" d="M350.27,213.96c0,0.65-1.46,0.98-4.39,0.98c-2.93,0-4.52-0.23-4.77-0.7l-7.8-14.58v14.53
			c0,0.56-1.44,0.84-4.32,0.84c-2.88,0-4.32-0.28-4.32-0.84v-31.26c0-0.47,1.23-0.7,3.69-0.7c0.97,0,2.09,0.09,3.39,0.26
			c1.29,0.17,2.08,0.49,2.36,0.96l7.48,14.39v-14.67c0-0.59,1.45-0.89,4.35-0.89c2.9,0,4.35,0.3,4.35,0.89V213.96z"/>
		<path class="st5" d="M353.12,182.89c0-0.16,0.68-0.3,2.03-0.44c1.36-0.14,2.47-0.21,3.34-0.21c3.46,0,5.26,0.45,5.42,1.36
			l4.02,20.56l3.78-20.56c0.19-0.9,2.12-1.36,5.79-1.36c0.9,0,2.04,0.06,3.41,0.19c1.37,0.12,2.06,0.26,2.06,0.42l-8.27,30.93
			c-0.12,0.5-1.04,0.83-2.76,0.98c-2.65,0.28-5.05,0.33-7.22,0.16c-2.17-0.17-3.31-0.47-3.43-0.91L353.12,182.89z"/>
		<path class="st5" d="M401.01,195.27c0.59,0,0.89,1.09,0.89,3.27c0,0.65-0.07,1.43-0.21,2.31c-0.14,0.89-0.4,1.33-0.77,1.33h-5.93
			v4.67h8.6c0.53,0,0.89,0.69,1.07,2.06c0.09,0.59,0.14,1.22,0.14,1.89c0,0.67-0.09,1.53-0.28,2.59c-0.19,1.06-0.5,1.59-0.93,1.59
			H387.6c-1.18,0-1.78-0.48-1.78-1.45V183.5c0-0.81,0.36-1.21,1.07-1.21h16.73c0.65,0,0.98,1.38,0.98,4.13
			c0,2.76-0.33,4.13-0.98,4.13h-8.64v4.72H401.01z"/>
		<path class="st5" d="M434.47,213.96c0,0.65-1.46,0.98-4.39,0.98c-2.93,0-4.52-0.23-4.77-0.7l-7.8-14.58v14.53
			c0,0.56-1.44,0.84-4.32,0.84c-2.88,0-4.32-0.28-4.32-0.84v-31.26c0-0.47,1.23-0.7,3.69-0.7c0.97,0,2.09,0.09,3.39,0.26
			c1.29,0.17,2.08,0.49,2.36,0.96l7.48,14.39v-14.67c0-0.59,1.45-0.89,4.35-0.89c2.9,0,4.34,0.3,4.34,0.89V213.96z"/>
		<path class="st5" d="M454.42,183.22c0-0.62,1.69-0.93,5.07-0.93c3.38,0,5.07,0.31,5.07,0.93v21.45c0,3.18-1.14,5.77-3.41,7.78
			c-2.27,2.01-5.41,3.01-9.41,3.01c-4,0-7.26-1.04-9.76-3.11c-2.51-2.07-3.76-4.87-3.76-8.39v-20.7c0-0.62,1.69-0.93,5.07-0.93
			c3.38,0,5.07,0.31,5.07,0.93v21.07c0,0.62,0.33,1.12,0.98,1.5c0.68,0.37,1.4,0.56,2.15,0.56s1.42-0.17,2.03-0.51
			c0.61-0.34,0.91-0.86,0.91-1.54V183.22z"/>
		<path class="st5" d="M483.66,195.27c0.59,0,0.89,1.09,0.89,3.27c0,0.65-0.07,1.43-0.21,2.31c-0.14,0.89-0.4,1.33-0.77,1.33h-5.93
			v4.67h8.6c0.53,0,0.89,0.69,1.07,2.06c0.09,0.59,0.14,1.22,0.14,1.89c0,0.67-0.09,1.53-0.28,2.59c-0.19,1.06-0.5,1.59-0.93,1.59
			h-15.98c-1.18,0-1.78-0.48-1.78-1.45V183.5c0-0.81,0.36-1.21,1.07-1.21h16.73c0.65,0,0.98,1.38,0.98,4.13
			c0,2.76-0.33,4.13-0.98,4.13h-8.64v4.72H483.66z"/>
		<path class="st5" d="M524.26,195.27c0.59,0,0.89,1.09,0.89,3.27c0,0.65-0.07,1.43-0.21,2.31c-0.14,0.89-0.4,1.33-0.77,1.33h-5.93
			v4.67h8.6c0.53,0,0.89,0.69,1.07,2.06c0.09,0.59,0.14,1.22,0.14,1.89c0,0.67-0.09,1.53-0.28,2.59c-0.19,1.06-0.5,1.59-0.93,1.59
			h-15.98c-1.18,0-1.78-0.48-1.78-1.45V183.5c0-0.81,0.36-1.21,1.07-1.21h16.73c0.65,0,0.98,1.38,0.98,4.13
			c0,2.76-0.33,4.13-0.98,4.13h-8.64v4.72H524.26z"/>
		<path class="st5" d="M557.72,213.96c0,0.65-1.46,0.98-4.39,0.98c-2.93,0-4.52-0.23-4.77-0.7l-7.8-14.58v14.53
			c0,0.56-1.44,0.84-4.32,0.84c-2.88,0-4.32-0.28-4.32-0.84v-31.26c0-0.47,1.23-0.7,3.69-0.7c0.97,0,2.09,0.09,3.39,0.26
			c1.29,0.17,2.08,0.49,2.36,0.96l7.48,14.39v-14.67c0-0.59,1.45-0.89,4.35-0.89s4.34,0.3,4.34,0.89V213.96z"/>
	</g>
	<g>
		<path class="st6" d="M240.36,314.15h-56.6v-82.57h56.6v16.52h-40.07v16.52h27.12v16.52h-27.12v16.47h40.07V314.15z M212.67,226.75
			l-6.51-8.58l17.1-15.95l9.44,12.03L212.67,226.75z"/>
		<path class="st6" d="M317.86,305.69c-3.84,3.3-8.14,5.84-12.9,7.6c-4.76,1.76-9.69,2.65-14.8,2.65c-3.92,0-7.69-0.51-11.31-1.53
			c-3.63-1.02-7.02-2.46-10.19-4.32c-3.17-1.86-6.06-4.1-8.67-6.71c-2.61-2.61-4.85-5.5-6.71-8.67c-1.86-3.17-3.3-6.56-4.32-10.19
			c-1.02-3.63-1.53-7.4-1.53-11.31s0.51-7.7,1.53-11.34c1.02-3.65,2.46-7.05,4.32-10.22c1.86-3.17,4.1-6.05,6.71-8.67
			c2.61-2.61,5.5-4.85,8.67-6.71c3.17-1.86,6.56-3.3,10.19-4.32c3.63-1.02,7.4-1.53,11.31-1.53c5.1,0,10.04,0.87,14.8,2.62
			c4.76,1.75,9.06,4.29,12.9,7.63l-8.75,14.39c-2.42-2.61-5.28-4.61-8.58-6.02c-3.3-1.4-6.76-2.1-10.36-2.1
			c-3.65,0-7.06,0.69-10.25,2.07c-3.19,1.38-5.97,3.25-8.35,5.61c-2.38,2.36-4.26,5.14-5.64,8.35c-1.38,3.21-2.07,6.61-2.07,10.22
			c0,3.61,0.69,7,2.07,10.16c1.38,3.17,3.26,5.94,5.64,8.32c2.38,2.38,5.16,4.26,8.35,5.64c3.19,1.38,6.6,2.07,10.25,2.07
			c3.61,0,7.06-0.7,10.36-2.1c3.3-1.4,6.16-3.41,8.58-6.02L317.86,305.69z"/>
		<path class="st6" d="M405.96,273.21c0,3.92-0.51,7.69-1.53,11.31c-1.02,3.63-2.45,7.02-4.29,10.19c-1.84,3.17-4.07,6.06-6.68,8.67
			c-2.61,2.61-5.49,4.85-8.64,6.71c-3.15,1.86-6.55,3.3-10.19,4.32c-3.65,1.02-7.43,1.53-11.34,1.53s-7.69-0.51-11.31-1.53
			s-7.02-2.46-10.19-4.32c-3.17-1.86-6.06-4.1-8.67-6.71c-2.61-2.61-4.85-5.5-6.71-8.67c-1.86-3.17-3.3-6.56-4.32-10.19
			c-1.02-3.63-1.53-7.4-1.53-11.31s0.51-7.7,1.53-11.34c1.02-3.65,2.46-7.04,4.32-10.19c1.86-3.15,4.1-6.03,6.71-8.64
			c2.61-2.61,5.5-4.84,8.67-6.68c3.17-1.84,6.56-3.27,10.19-4.29c3.63-1.02,7.4-1.53,11.31-1.53s7.7,0.51,11.34,1.53
			c3.65,1.02,7.04,2.45,10.19,4.29c3.15,1.84,6.03,4.07,8.64,6.68c2.61,2.61,4.84,5.49,6.68,8.64c1.84,3.15,3.27,6.55,4.29,10.19
			C405.45,265.52,405.96,269.3,405.96,273.21z M389.55,273.21c0-3.61-0.69-7.01-2.07-10.22c-1.38-3.2-3.25-5.99-5.61-8.35
			c-2.36-2.36-5.14-4.23-8.35-5.61c-3.21-1.38-6.61-2.07-10.22-2.07c-3.65,0-7.06,0.69-10.25,2.07c-3.19,1.38-5.97,3.25-8.35,5.61
			c-2.38,2.36-4.26,5.14-5.64,8.35c-1.38,3.21-2.07,6.61-2.07,10.22c0,3.61,0.69,7,2.07,10.16c1.38,3.17,3.26,5.94,5.64,8.32
			c2.38,2.38,5.16,4.26,8.35,5.64c3.19,1.38,6.6,2.07,10.25,2.07c3.61,0,7.01-0.69,10.22-2.07c3.2-1.38,5.99-3.26,8.35-5.64
			c2.36-2.38,4.23-5.15,5.61-8.32C388.86,280.21,389.55,276.82,389.55,273.21z"/>
		<path class="st6" d="M411.94,256.34c0-3.42,0.65-6.62,1.96-9.62c1.3-2.99,3.08-5.61,5.33-7.86c2.25-2.25,4.87-4.02,7.86-5.33
			c2.99-1.3,6.2-1.96,9.62-1.96h37.89v16.52H436.7c-1.15,0-2.23,0.21-3.22,0.63c-1,0.42-1.87,1.01-2.62,1.76
			c-0.75,0.75-1.33,1.62-1.76,2.62c-0.42,1-0.63,2.07-0.63,3.22c0,1.15,0.21,2.24,0.63,3.25c0.42,1.02,1.01,1.9,1.76,2.65
			s1.62,1.33,2.62,1.76c1,0.42,2.07,0.63,3.22,0.63h16.52c3.42,0,6.63,0.64,9.64,1.93c3.01,1.29,5.64,3.05,7.89,5.3
			c2.25,2.25,4.01,4.88,5.3,7.89c1.29,3.01,1.93,6.23,1.93,9.64c0,3.42-0.64,6.62-1.93,9.62c-1.29,2.99-3.05,5.61-5.3,7.86
			c-2.25,2.25-4.88,4.02-7.89,5.33c-3.01,1.31-6.23,1.96-9.64,1.96h-36.68v-16.52h36.68c1.15,0,2.23-0.21,3.22-0.63
			c1-0.42,1.87-1.01,2.62-1.76c0.75-0.75,1.33-1.62,1.76-2.62c0.42-1,0.63-2.07,0.63-3.22c0-1.15-0.21-2.23-0.63-3.22
			c-0.42-1-1.01-1.87-1.76-2.62c-0.75-0.75-1.62-1.33-2.62-1.76c-1-0.42-2.07-0.63-3.22-0.63H436.7c-3.42,0-6.62-0.65-9.62-1.96
			c-2.99-1.3-5.61-3.08-7.86-5.33c-2.25-2.25-4.02-4.87-5.33-7.89C412.6,262.97,411.94,259.76,411.94,256.34z"/>
		<path class="st6" d="M483.97,256.34c0-3.42,0.65-6.62,1.96-9.62c1.3-2.99,3.08-5.61,5.33-7.86c2.25-2.25,4.87-4.02,7.86-5.33
			c2.99-1.3,6.2-1.96,9.62-1.96h37.89v16.52h-37.89c-1.15,0-2.23,0.21-3.22,0.63c-1,0.42-1.87,1.01-2.62,1.76
			c-0.75,0.75-1.33,1.62-1.76,2.62c-0.42,1-0.63,2.07-0.63,3.22c0,1.15,0.21,2.24,0.63,3.25c0.42,1.02,1.01,1.9,1.76,2.65
			s1.62,1.33,2.62,1.76c1,0.42,2.07,0.63,3.22,0.63h16.52c3.42,0,6.63,0.64,9.64,1.93c3.01,1.29,5.64,3.05,7.89,5.3
			s4.01,4.88,5.3,7.89c1.29,3.01,1.93,6.23,1.93,9.64c0,3.42-0.64,6.62-1.93,9.62c-1.29,2.99-3.05,5.61-5.3,7.86
			c-2.25,2.25-4.88,4.02-7.89,5.33c-3.01,1.31-6.23,1.96-9.64,1.96h-36.68v-16.52h36.68c1.15,0,2.23-0.21,3.22-0.63
			c1-0.42,1.87-1.01,2.62-1.76c0.75-0.75,1.33-1.62,1.76-2.62c0.42-1,0.63-2.07,0.63-3.22c0-1.15-0.21-2.23-0.63-3.22
			c-0.42-1-1.01-1.87-1.76-2.62c-0.75-0.75-1.62-1.33-2.62-1.76c-1-0.42-2.07-0.63-3.22-0.63h-16.52c-3.42,0-6.62-0.65-9.62-1.96
			c-2.99-1.3-5.61-3.08-7.86-5.33c-2.25-2.25-4.02-4.87-5.33-7.89C484.62,262.97,483.97,259.76,483.97,256.34z"/>
		<path class="st6" d="M617.43,314.15h-56.6v-82.57h56.6v16.52h-40.07v16.52h27.12v16.52h-27.12v16.47h40.07V314.15z"/>
	</g>
</g>
<g>
	<ellipse class="st2" cx="352.2" cy="418.87" rx="163.2" ry="8.48"/>
	<g>
		<path class="st7" d="M447.17,421.37c1.78-28.65,4.7-59.3,9.14-91.65s9.9-62.56,15.89-90.6c2.91-11.11,11.12-20.06,21.93-23.93
			c0,0,21.28-0.85,33.49,9.65c0,0,18.44,10.8,0,23.83l-33.49-0.28c0,0-13.89,36.19-12.2,69.88c0,0,1.08,89.67,11.88,103.1H447.17z"
			/>
		<g id="Calque_8">
			<path class="st8" d="M494.13,248.4c-7.51,18.72-12.6,38.33-15.13,58.34c-6.32,50.04,4.98,90.91,13.47,113.99
				c-3.93-17.13-6.63-34.51-8.08-52.02C481.12,328.34,484.41,287.71,494.13,248.4z"/>
		</g>
		<path class="st7" d="M319.33,421.37c0,0,60.76-71.97,110.5,0H319.33z"/>
		<g id="Calque_9">
			<path class="st8" d="M419.29,408.33c0.73,0.72,1.13,1.72,1.1,2.75c-0.7,6.05-24.22,9.48-70.56,10.29h79.53
				c-1.02-2.44-2.35-4.75-3.94-6.87C423.65,412.18,421.59,410.11,419.29,408.33z"/>
		</g>
		<g id="Calque_10">
			<path class="st7" d="M262.56,420.97c0,0-22.93-31.41-48.3-31.6c0,0-23.42-0.18-54.65,13.48c0,0,39.52-14.15,55.15-7.81
				c0,0,25.86,11.66,30.25,26.32L262.56,420.97z"/>
			<g id="Calque_11">
				<path class="st8" d="M245.07,421.37h8.67c0,0-27.53-26.86-37.47-27.37C216.26,394,243.54,412.55,245.07,421.37z"/>
			</g>
		</g>
		<g id="eyes">
			<ellipse class="st9" cx="500.98" cy="234.79" rx="4.76" ry="2.86"/>
			<g id="Calque_13">
				<circle cx="503.59" cy="234.56" r="2.03"/>
			</g>
		</g>
	</g>
</g>
</svg>
