<svg xmlns="http://www.w3.org/2000/svg" viewBox="0 0 389.01 37.43"><defs><style>.cls-1{fill:#0f2f49;}.cls-2{fill:#edc977;}.cls-3{fill:#a3a29f;}</style></defs><title>Fichier 1</title><g id="Calque_2" data-name="Calque 2"><g id="SOUVENIR"><path class="cls-1" d="M388.94,28.35a9.88,9.88,0,0,1-7.81,8.15h-.06c-.18,0-.36,0-.54,0l-3.32.12-2.86.1c-.32,0-.66,0-1,0l-8.54.23c-.85,0-1.74,0-2.62.05-.61,0-1.23,0-1.86,0s-1.57,0-2.39.06l-1.46,0q-3,.06-6.23.09h0c-1.45,0-2.92.05-4.44.06-.38,0-.78,0-1.17,0l-6,.06H335.5l-2.69,0h-1.35a7.36,7.36,0,0,0-.81,0h-2.5c-.57,0-1.15,0-1.74,0h-.81s0,0,0,0l-7.08,0c-4.22,0-8.65,0-13.26,0l-7-.06-7.33-.08-4.31-.06-1.74,0c-5.27-.09-10.74-.17-16.4-.3-1.56,0-3.14-.06-4.74-.1-1.34,0-2.7-.05-4.08-.1-5.13-.1-10.38-.23-15.8-.4L234.39,36l-12.55-.42c-2.66-.09-5.35-.2-8.05-.31q-6.82-.24-13.9-.55L194,34.45c-5.18-.22-10.25-.46-15.19-.69l-7.35-.36q-5.67-.27-11.13-.56c-2.2-.11-4.36-.24-6.5-.36l-6.74-.36C126,30.91,107.32,29.65,91,28.38l-7-.55c-1.34-.09-2.69-.21-4-.33q-6-.48-11.54-1c-1.56-.15-3.09-.27-4.59-.41-7.36-.66-14.07-1.31-20.09-1.92-1.34-.16-2.65-.27-3.92-.42l-5.52-.6-3.45-.38-3.25-.37c-3.67-.41-7-.82-9.91-1.2-.41,0-.82-.1-1.21-.15-3.27-.41-6-.79-8.32-1.09-.72-.12-1.4-.21-2-.3s-1.1-.15-1.57-.23l-1.16-.16L.17,18.77c-.07,0-.11,0-.13,0a.06.06,0,0,0,0,0L.84,0h0L1,0,2.35.25l.56.09c.39.06.85.12,1.36.21a2.11,2.11,0,0,1,.35,0l1,.13C6.21.84,6.91.92,7.7,1c.25,0,.51.09.78.11,1,.16,2.13.31,3.36.48.47.05,1,.12,1.47.19L14.83,2c.53.07,1.07.16,1.64.22l1.71.22,3.38.42C27,3.53,33.62,4.3,41.4,5.13l8,.8.23,0c1.92.17,3.93.37,6,.57l3.34.32,6.9.64,7.31.63c1.27.13,2.53.23,3.82.33l4.79.4c1,.1,2.08.17,3.14.25l8.38.66a.68.68,0,0,1,.15,0l8.66.64,4.55.33c1.53.11,3.11.23,4.68.33l9.12.62c3.47.24,7,.46,10.66.68q5.21.33,10.58.63c6.61.41,13.45.78,20.54,1.16l7,.35q12.33.63,25.67,1.2l11.65.48,6.85.27,7.72.29c4.84.17,9.55.33,14.18.47l8.38.26c2.74.08,5.46.14,8.14.23l3,.06,4.9.12c1.32,0,2.62.08,3.92.1h.93c3.2.07,6.33.14,9.4.19.33,0,.66,0,1,0,2.74.06,5.45.11,8.1.14l8.71.13c1.8,0,3.6,0,5.36.05h1.08c2,0,4,.05,5.95.05q12,.11,22.32.08c.93,0,1.86,0,2.79,0,13.51,0,24.83-.2,33.86-.38.6,0,1.19,0,1.77-.05s1.17,0,1.71,0,1.13,0,1.68,0l1.59,0,3-.08,1.41,0c.9,0,1.77,0,2.61-.08l4.57-.16h.22a0,0,0,0,0,0,0C386.38,19.35,389.51,23.68,388.94,28.35Z"/><path class="cls-1" d="M388.94,28.35a9.88,9.88,0,0,1-7.81,8.15h-.06c-.18,0-.36,0-.54,0l-3.32.12c-.89,0-1.86,0-2.86.1-.32,0-.66,0-1,0l-8.54.23c-.85,0-1.74,0-2.62.05-.61,0-1.23,0-1.86,0s-1.59,0-2.39.06l-1.46,0q-3,.06-6.23.09h0c-1.45,0-2.92.05-4.44.06-.38,0-.78,0-1.17,0l-6,.06H335.5l-2.69,0h-1.35a7.36,7.36,0,0,0-.81,0c-1.39,0-2.8,0-4.24,0h-.81s0,0,0,0c-2.31,0-4.65,0-7.08,0-4.22,0-8.65,0-13.26,0l-7-.06-7.33-.08-4.31-.06-1.74,0c-5.27-.09-10.74-.17-16.4-.3-1.56,0-3.14-.06-4.74-.1-1.34,0-2.7-.05-4.08-.1-5.13-.1-10.38-.23-15.8-.4L234.39,36l-12.55-.42-8.05-.31q-6.82-.24-13.9-.55L194,34.45c-5.18-.22-10.25-.46-15.19-.69l-7.35-.36q-5.67-.27-11.13-.56l-6.5-.36-6.74-.36C126,30.91,107.32,29.65,91,28.38l-7-.55c-1.34-.09-2.69-.21-4-.33q-6-.48-11.54-1c-1.56-.15-3.09-.27-4.59-.41-7.36-.66-14.07-1.31-20.09-1.92-1.34-.16-2.65-.27-3.92-.42l-5.52-.6c-1.19-.11-2.32-.26-3.45-.38l-3.25-.37c-3.67-.41-7-.82-9.91-1.2-.41,0-.82-.1-1.21-.15-3.27-.41-6-.79-8.32-1.09-.72-.12-1.4-.21-2-.3s-1.1-.15-1.57-.23l-1.16-.16L.17,18.77c-.07,0-.09,0-.13,0a.06.06,0,0,0,0,0L.84,0h0L1,0,2.35.25l.56.09c.39.06.85.12,1.36.21a2.11,2.11,0,0,1,.35,0l1,.13C6.21.84,6.91.92,7.7,1c.25,0,.51.09.78.11,1,.16,2.13.31,3.36.48.47.05,1,.12,1.47.19L14.83,2c.53.07,1.07.16,1.64.22l1.71.22,3.38.42C27,3.53,33.62,4.3,41.4,5.13l8,.8.23,0c2,.19,3.94.39,6,.57l3.34.32c2.24.23,4.53.43,6.9.64s4.81.44,7.31.63c1.27.13,2.53.23,3.82.33,1.58.15,3.17.26,4.79.4,1,.1,2.08.17,3.14.25,2.72.22,5.53.45,8.38.66a.68.68,0,0,1,.15,0l8.66.64,4.55.33c1.53.11,3.11.23,4.68.33,3,.21,6,.43,9.12.62,3.47.24,7,.46,10.66.68q5.21.33,10.58.63c6.61.41,13.45.78,20.54,1.16l7,.35q12.33.63,25.67,1.2l11.65.48,6.85.27,7.72.29c4.84.17,9.55.33,14.18.47l8.38.26c2.74.08,5.46.14,8.14.23l3,.06,4.9.12c1.32,0,2.62.08,3.92.1h.93c3.2.07,6.33.14,9.4.19.33,0,.66,0,1,0,2.74.06,5.45.11,8.1.14l8.71.13c1.8,0,3.6,0,5.36.05h1.08c2,0,4,.05,5.95.05q12,.11,22.32.08c.93,0,1.86,0,2.79,0,13.51,0,24.83-.2,33.86-.38l1.77-.05c.59,0,1.17,0,1.71,0s1.13,0,1.68,0l1.59,0,3-.08,1.41,0c.92,0,1.79-.07,2.61-.08l4.57-.16h.22a0,0,0,0,0,0,0C386.38,19.35,389.51,23.68,388.94,28.35Z"/><path class="cls-2" d="M388.94,28.35a9.88,9.88,0,0,1-7.81,8.15h-.06c-.18,0-.36,0-.54,0l-3.32.12c-.89,0-1.86,0-2.86.1-.32,0-.66,0-1,0l-8.54.23c-.85,0-1.74,0-2.62.05-.61,0-1.23,0-1.86,0s-1.59,0-2.39.06l-1.46,0q-3,.06-6.23.09h0c-1.45,0-2.92.05-4.44.06-.38,0-.78,0-1.17,0l-6,.06H335.5l-2.69,0h-1.35c-.81,0-1.64,0-2.49,0H325.6s0,0,0,0c-2.31,0-4.65,0-7.08,0-4.22,0-8.65,0-13.26,0l-7-.06-7.33-.08-4.31-.06-1.74,0c-5.27-.09-10.74-.17-16.4-.3-1.56,0-3.14-.06-4.74-.1-1.34,0-2.7-.05-4.08-.1-5.13-.1-10.38-.23-15.8-.4L234.39,36l-12.55-.42-8.05-.31q-6.82-.24-13.9-.55L194,34.45c-5.18-.22-10.25-.46-15.19-.69l-7.35-.36q-5.67-.27-11.13-.56l-6.5-.36-6.74-.36C126,30.91,107.32,29.65,91,28.38c2-4.4,3.5-8.19,3.65-9.69s-.41-4.81-1.27-8.91l8.66.64,4.55.33c1.53.11,3.11.23,4.68.33,3,.21,6,.43,9.12.62,3.47.24,7,.46,10.66.68q5.21.33,10.58.63c6.61.41,13.45.78,20.54,1.16l7,.35q12.33.63,25.67,1.2l11.65.48,6.85.27,7.72.29c4.84.17,9.55.33,14.18.47l8.38.26c2.74.08,5.46.14,8.14.23l3,.06,4.9.12c1.32,0,2.62.08,3.92.1h.93c3.2.07,6.33.14,9.4.19.33,0,.66,0,1,0,2.74.06,5.45.11,8.1.14l8.71.13c1.8,0,3.6,0,5.36.05h1.08l5.95.05q12,.11,22.32.08c.93,0,1.86,0,2.79,0,13.51,0,24.83-.2,33.86-.38l1.77-.05c.59,0,1.17,0,1.71,0s1.13,0,1.68,0l1.59,0,3-.08,1.41,0c.92,0,1.79-.07,2.61-.08l4.57-.16h.24C386.38,19.35,389.51,23.68,388.94,28.35Z"/><path class="cls-1" d="M84.49,34.6l6.29.59s2.88-4.69,3.91-16.5c.94-10.87-.8-16.94-.8-16.94l-6.3-.59s1.74,6.08.8,16.94C87.37,29.92,84.49,34.6,84.49,34.6Z"/><rect class="cls-2" x="4.63" y="5.81" width="10.07" height="10.07" transform="translate(13.25 -3.23) rotate(56.01)"/><rect class="cls-2" x="18.96" y="8.19" width="10.07" height="10.07" transform="translate(20.15 -13.9) rotate(53.07)"/><rect class="cls-2" x="33.48" y="9.97" width="10.07" height="10.07" transform="translate(25.96 -24.38) rotate(51.03)"/><rect class="cls-2" x="76.96" y="13.1" width="10.07" height="10.07" transform="translate(154.03 -25.02) rotate(136.6)"/><rect class="cls-2" x="62.35" y="12.42" width="10.07" height="10.07" transform="translate(129.49 -13.98) rotate(138.64)"/><rect class="cls-2" x="47.88" y="11.36" width="10.07" height="10.07" transform="translate(31.05 -34.51) rotate(49.55)"/><path class="cls-3" d="M388.94,28.35a9.92,9.92,0,0,1-7.83,8.16h0c-.21.05-.43.1-.65.13l.11-.13a15,15,0,0,0,3.6-8,15.33,15.33,0,0,0-2.74-10.75l-.08-.11c.11,0,.19.08.3.1a0,0,0,0,0,0,0C386.38,19.35,389.51,23.68,388.94,28.35Z"/></g></g></svg>