<svg xmlns="http://www.w3.org/2000/svg" viewBox="0 0 45.13 120.88"><defs><style>.cls-1{fill:#ae8bb7;}.cls-2{fill:#cba835;}.cls-3{fill:#fff;}.cls-4{fill:none;stroke:#000;stroke-miterlimit:10;}</style></defs><title>Fichier 3</title><g id="Calque_2" data-name="Calque 2"><g id="ANIMAL"><path class="cls-1" d="M37.3,92.27c2.28,10-1.45,11.32-1.52,11.35-.13.41-.26.83-.4,1.23l.15.09h.18s4.52,1,2.33,6c0,0-.77.76,0,2.68,0,0,1.47,4.66-1.8,7.21,0,0-5.91-1.51-9-4.18,0,0-7.39.4-8.87,0,0,0-6.84,4.14-8.86,4.18,0,0-4-2.43-.39-8.21a3.68,3.68,0,0,0-.86-1.51s-2.49-3.81.78-5.44H9.3a6.07,6.07,0,0,1,.9-.63,7.63,7.63,0,0,1-1-1.48c-.39-.16-3.64-1.79-1.49-11.28C5.65,91.05-7,82.56,5.39,79.2l.14-.13C1.68,78.48,2,77.38,2,77.38c.34-1,3.2-1.15,5.68-1.11.39-1,1.88-2.82,7.44-.76,0,0,.19.45.46,1.2,3.29.31,7.32.77,7.32.77,2.09-.32,4.39-.54,6.4-.7.28-.79.48-1.27.48-1.27,5.5-2,7-.29,7.43.72,4-.21,5,.57,5,.57,1.42,1.34-1.9,2.17-2.37,2.28C52.49,82.59,38.53,91.51,37.3,92.27ZM36,102.9c-.06.2-.1.4-.16.59A3.39,3.39,0,0,0,36,102.9Z"/><path class="cls-2" d="M35.71,31.12s4.52-2,2.33-11.81c0,0-.77-1.5,0-5.23,0,0,1.47-9.1-1.8-14.08,0,0-5.91,3-9,8.17,0,0-7.39-.78-8.87,0,0,0-6.84-8.09-8.86-8.17,0,0-4,4.74-.39,16A10.44,10.44,0,0,1,8.24,19S5.75,26.4,9,29.58Z"/><path class="cls-3" d="M8.29,26.61c0-.31-.41-4.92,2.82-6.36a5.25,5.25,0,0,1,6.7,2.29s3.68,4.76,5.32,4.71c0,0,2.83-.23,6.57-5.33a4.37,4.37,0,0,1,5-2.29,4.29,4.29,0,0,1,2.92,3.49,8.52,8.52,0,0,1,.17,3.07,9.1,9.1,0,0,1-2.44,5.09c.32,1.79.61,3.65.84,5.58a90.57,90.57,0,0,1,.35,17.79c.32.75.64,1.58.93,2.49s.46,1.58.62,2.3a18.52,18.52,0,0,1,4.17,8.32,19.32,19.32,0,0,1-2.48,13.78s4,1.67,2.43,4.48c0,0-1.34,2.17-7.6.63a62.15,62.15,0,0,1-11.71-2s-10.7,2.4-11.5,2c0,0-8.8,1.6-9.4-1.8,0,0-.35-2.15,3.5-3.3a19.7,19.7,0,0,1-2.77-9.53A19.92,19.92,0,0,1,6.84,59.69a17,17,0,0,0,2.35-5.48C9.94,51,9.59,48,9,42.86c-.4-3.42-.61-4.57-.32-6.74a18.27,18.27,0,0,1,1.53-5.29A7.47,7.47,0,0,1,8.29,26.61Z"/><path d="M20.76,23.23s2.9-1.05,4.85,0c0,0,2.81,2.6-2.23,4.18C23.38,27.41,18.91,26.33,20.76,23.23Z"/><path class="cls-4" d="M23.38,27.1s-1.27,3.58,3,3.32"/><path class="cls-4" d="M23,27.1s1.26,3.58-3,3.32"/><path class="cls-3" d="M14.29,15.51s4-2.29,4.47,2.41C18.76,17.92,14.46,19.53,14.29,15.51Z"/><path class="cls-3" d="M30.74,15.28s-4-2.29-4.47,2.41C26.27,17.69,30.57,19.3,30.74,15.28Z"/><circle cx="16.48" cy="18.8" r="0.85"/><circle cx="28.51" cy="18.54" r="0.85"/><path class="cls-2" d="M9.19,33.69s-5.09,3.14,0,32.52c0,0,4.88,15.93-1.62,19.72,0,0,.21,7.92,7.58,2.61,0,0,3.91-18,.76-25.59C15.91,63,7.35,41.71,9.19,33.69Z"/><path class="cls-2" d="M35.77,33.69s5.1,3.14,0,32.52c0,0-4.87,15.93,1.63,19.72,0,0-.22,7.92-7.59,2.61,0,0-3.9-18-.76-25.59C29.05,63,37.62,41.71,35.77,33.69Z"/><path class="cls-2" d="M7.92,55.41S-8.26,74.48,5.63,81.47c0,0-6.84-9.36,2.29-23Z"/><path class="cls-2" d="M37.2,55.72s16.19,19.06,2.3,26.06c0,0,6.84-9.36-2.3-23.05Z"/><path class="cls-3" d="M9.94,2.14S6.08,17.05,12,16.37c0,0-.83-1.81,3.05-5.4C15.08,11,15.86,4.66,9.94,2.14Z"/><path class="cls-3" d="M35.42,2.14S37.78,9.06,35,15a73.16,73.16,0,0,0-6.44-4.56S29.92,4.57,35.42,2.14Z"/></g></g></svg>