<svg xmlns="http://www.w3.org/2000/svg" viewBox="0 0 172.03 58.03"><defs><style>.cls-1{fill:#ae8bb7;}.cls-2{fill:#c6a76a;}.cls-3{fill:#d3b47d;}.cls-4{fill:#0f2f49;}.cls-5{fill:#fdffdc;}.cls-6{fill:#ff734d;}.cls-7{fill:#0a1f2d;}.cls-8{fill:#e5e5ac;}.cls-9{fill:#e5c47a;}.cls-10{fill:#b7ea6e;}.cls-11{fill:#ffb08d;}.cls-12{fill:#f4d99d;}</style></defs><title>Fichier 4</title><g id="Calque_2" data-name="Calque 2"><g id="FOOD"><ellipse class="cls-1" cx="85.56" cy="52.78" rx="85.56" ry="5.25"/><polygon class="cls-2" points="91.12 28.91 85.93 28.91 5.03 28.91 5.03 41.16 85.93 41.16 91.12 41.16 172.03 41.16 172.03 28.91 91.12 28.91"/><circle class="cls-3" cx="45.21" cy="44.1" r="10.68"/><circle class="cls-3" cx="131.84" cy="44.1" r="10.68"/><path class="cls-4" d="M27.07,14.75a15,15,0,0,1-6.73-1.46V28.91H33.79V13.29A15,15,0,0,1,27.07,14.75Z"/><path class="cls-5" d="M33.79,13.28c0,.58-1.51,1.07-3.71,1.31a27.7,27.7,0,0,1-3,.16c-3.71,0-6.72-.66-6.72-1.47s3-1.47,6.72-1.47h.63C31.11,11.89,33.79,12.52,33.79,13.28Z"/><ellipse class="cls-6" cx="27.07" cy="13.22" rx="2.84" ry="0.6"/><path class="cls-7" d="M33.79,13.35V28.91H29.33l-.26-14.22A14.4,14.4,0,0,0,33.79,13.35Z"/><path class="cls-8" d="M33.79,13.24c0,.77-1.37.78-3.54,1.27,1.79-1.2-.54-2.14-2.56-2.69C31.11,11.88,33.79,12.5,33.79,13.24Z"/><path class="cls-4" d="M44.84,14.75a15,15,0,0,1-6.72-1.46V28.91H51.57V13.29A15.11,15.11,0,0,1,44.84,14.75Z"/><path class="cls-5" d="M51.57,13.28c0,.58-1.51,1.07-3.71,1.31a27.84,27.84,0,0,1-3,.16c-3.71,0-6.72-.66-6.72-1.47s3-1.47,6.72-1.47h.62C48.89,11.89,51.57,12.52,51.57,13.28Z"/><ellipse class="cls-9" cx="44.84" cy="13.22" rx="2.84" ry="0.6"/><path class="cls-7" d="M51.57,13.35V28.91H47.11l-.26-14.22A14.4,14.4,0,0,0,51.57,13.35Z"/><path class="cls-8" d="M51.57,13.24c0,.77-1.37.78-3.54,1.27,1.78-1.2-.54-2.14-2.57-2.69C48.89,11.88,51.57,12.5,51.57,13.24Z"/><path class="cls-4" d="M62.13,14.75a15,15,0,0,1-6.72-1.46V28.91H68.86V13.29A15.11,15.11,0,0,1,62.13,14.75Z"/><path class="cls-5" d="M68.86,13.28c0,.58-1.51,1.07-3.71,1.31a27.84,27.84,0,0,1-3,.16c-3.71,0-6.72-.66-6.72-1.47s3-1.47,6.72-1.47h.62C66.18,11.89,68.86,12.52,68.86,13.28Z"/><ellipse class="cls-10" cx="62.13" cy="13.22" rx="2.84" ry="0.6"/><path class="cls-7" d="M68.86,13.35V28.91H64.4l-.26-14.22A14.4,14.4,0,0,0,68.86,13.35Z"/><path class="cls-8" d="M68.86,13.24c0,.77-1.37.78-3.54,1.27,1.78-1.2-.54-2.14-2.57-2.69C66.18,11.88,68.86,12.5,68.86,13.24Z"/><path class="cls-5" d="M109.74,27.43c-.69,1.33-8.2,2-16.23,2.06-9,.07-18.62-.64-20.08-2.06C70.84,24.89,83.92,2.8,90.45.24A3.15,3.15,0,0,1,91.59,0C97.58,0,111.2,24.61,109.74,27.43Z"/><path class="cls-8" d="M109.74,27.43c-.69,1.33-8.2,2-16.23,2.06L90.45.24A3.15,3.15,0,0,1,91.59,0C97.58,0,111.2,24.61,109.74,27.43Z"/><rect class="cls-4" x="85.68" y="10.21" width="11.57" height="19.29"/><path class="cls-5" d="M138.24,25.53v.31c-.07,1.67-.69,3-1.45,3l-5.67,0-10,0c-.58,0-1.08-.73-1.32-1.81a7.43,7.43,0,0,1-.17-1.48,5.8,5.8,0,0,1,.43-2.33c.26-.6.63-1,1-1l5,0,10.58-.05C137.57,22.24,138.23,23.71,138.24,25.53Z"/><path class="cls-8" d="M138.24,25.53v.31c-.07,1.67-.69,3-1.45,3l-5.67,0c1.48-.54,2.8-1.24,3.16-2,.6-1.35-4.56-3.35-8.1-4.54l10.58-.05C137.57,22.24,138.23,23.71,138.24,25.53Z"/><path class="cls-11" d="M138.22,24.85a12.34,12.34,0,0,0-3.59-1c-.43-.07-.91-.13-1.42-.19a34.49,34.49,0,0,0-3.77-.17H129l-1.16,0h0c-1.24.07-2.33.19-3.29.34a24.79,24.79,0,0,0-2.46.49,14,14,0,0,0-2.28.74s-1-2.85.92-4,2.24-1.45,8.23-1.57c6.51-.13,6.85.05,8.63,1.43S138.22,24.85,138.22,24.85Z"/><path class="cls-12" d="M124.52,23.86a24.79,24.79,0,0,0-2.46.49c1.65-1,4-2.74,2.17-3.7C125.94,21.48,125.65,22.88,124.52,23.86Z"/><path class="cls-12" d="M129.44,23.47H129l-1.16,0c1.31-1,2.37-2.17,1-2.91A1.68,1.68,0,0,1,129.44,23.47Z"/><path class="cls-12" d="M134.63,23.83c-.43-.07-.91-.13-1.42-.19,1.28-.91,2.4-2.07,1.33-2.84C135.93,21.63,135.66,22.91,134.63,23.83Z"/><path class="cls-12" d="M134.3,20.65l.24.15Z"/><path class="cls-5" d="M164,25.71V26c-.07,1.67-.69,3-1.45,3l-5.67,0-9.95,0c-.58,0-1.08-.73-1.32-1.81a7.43,7.43,0,0,1-.17-1.48,5.8,5.8,0,0,1,.43-2.33c.26-.6.63-1,1-1l5,0,10.58,0C163.37,22.42,164,23.89,164,25.71Z"/><path class="cls-8" d="M164,25.71V26c-.07,1.67-.69,3-1.45,3l-5.67,0c1.48-.54,2.8-1.24,3.16-2,.6-1.35-4.56-3.35-8.1-4.54l10.58,0C163.37,22.42,164,23.89,164,25.71Z"/><path class="cls-11" d="M164,25a12.34,12.34,0,0,0-3.59-1c-.43-.07-.91-.13-1.42-.19a34.49,34.49,0,0,0-3.77-.17h-.46l-1.16,0h0c-1.24.07-2.33.19-3.29.34a24.79,24.79,0,0,0-2.46.49,14,14,0,0,0-2.28.74s-1-2.85.92-4,2.24-1.45,8.23-1.57c6.51-.13,6.85.05,8.63,1.43S164,25,164,25Z"/><path class="cls-12" d="M150.32,24a24.79,24.79,0,0,0-2.46.49c1.65-1,4-2.74,2.17-3.7C151.74,21.66,151.45,23.06,150.32,24Z"/><path class="cls-12" d="M155.24,23.65h-.46l-1.16,0c1.31-1,2.37-2.17,1-2.91A1.68,1.68,0,0,1,155.24,23.65Z"/><path class="cls-12" d="M160.43,24c-.43-.07-.91-.13-1.42-.19,1.29-.92,2.4-2.07,1.34-2.84C161.74,21.81,161.47,23.09,160.43,24Z"/><path class="cls-12" d="M160.1,20.83l.25.15Z"/></g></g></svg>