<svg xmlns="http://www.w3.org/2000/svg" viewBox="0 0 1006.15 570.78"><defs><style>.cls-1{fill:#99a1ba;}.cls-2{fill:#dadce8;}.cls-3{fill:#caa1d3;}.cls-4{fill:#ae8bb7;}.cls-5{fill:#907592;}.cls-6{fill:#ba86bd;}.cls-7{fill:#ce92c9;}</style></defs><title>Fichier 2</title><g id="Calque_2" data-name="Calque 2"><g id="BACKGROUND"><path class="cls-1" d="M771.68,336.87H236.07S467.09,0,503.88,0C544.4,0,771.68,336.87,771.68,336.87Z"/><path class="cls-2" d="M450.26,71.13c-2.11,9.39-27.44,53-14.78,48s49.75-69.42,49.75-53.32-3.18,68.4,0,61.69,18.23-45,18.65-36.58,6.77,25.21,14.19,28.21-9.54-31.86,0-43.93,32.84,39.59,41.31,43.93-8.47-30.52-9.53-45.28,29.66,40.94,43.44,45.28c3.64,1.15,7.2-5.5,10.48-15.91C558.94,45.56,518.78,0,503.88,0c-9.94,0-34.08,24.61-64,60.52C446.08,63.49,451.15,67.19,450.26,71.13Z"/><rect class="cls-3" x="3.88" y="336.86" width="1000" height="233.92"/><path class="cls-4" d="M1003.88,336.86v23.47c-114.84,7.44-298.74,12.26-506,12.26-200.18,0-378.56-4.49-494-11.5V336.86Z"/><path class="cls-5" d="M813.67,130.41s1.25,13.88-2.81,16.09c0,0,6.72.94-6.83,15.1,5.4-2.24,5.42-5.45,5.4-2.24s-5.44,7.58-4.09,7.56,4.06-4.35,4.06-4.35S818.75,172,785,185.48c-4,2.21,2.67,3.15,6.72,2-2.72,3.26,4-.08,9.43-2.32-1.39,5.38,2.66,4.23,6.71,2,1.33,2.11-14.85,6.69-16.21,8.85s11.73-2,10.77-1.27c-2.7,2.19-1.37,4.31,6.72.95,2.67,3.15-11.61,16.15-45.89,22.24-6.74,1.19,4.76,3.89,12.1.84,2.7-1.12-14.86,8.83,1.31,4.25,0,0-2.71,3.26,0,2.14s12.14-4.5,10.78-3.41c-3.45,2.79,6.74-1.19,13.49-5.6,0,0,6.75-3.33,5.39-1.17s-12.17,8.79-8.13,8.71,4-.07,1.34,1-17.55,8.89-12.17,7.72,8.08-1.22,6.73-.13-4.06,3.28,4-.07,6.73-1.2,4,1-21.59,9-39.1,11.42-18.88,6.77-5.42,6.52,12.1-.23,9.38,4.1,10.78-2.34,12.13-2.37-2.71,2.19,2.68,1,17.55-8.88,14.82-3.48-13.51,7.74-9.47,7.66,18.84-1.42-.05,6.42-39.1,13.56-32.39,14.5,28.94-7.46,22.89-2.56c-5.41,4.37-9.45,4.45-9.45,4.45s4,2.06,9.43-1.25,6.73-1.19,5.38-.1,5.36,2,12.11-1.29,6.75-2.27,5.38,1-33.76,17.73-49.9,18c-5.38.1,2.66,4.22,5.35,3.1,0,0-25.64,12.24-16.22,11s28.87-8.9,25.59-3.69c-1.36,2.17-1.37,3.24,6.72.95s20-5-5.44,7.58c-6.75,3.34-9.45,4.46-14.84,5.63-1.84.4-4,3.28,0,3.2,8.18-.15,18.88-6.76,17.52-4.6-1,1.55-4.81,5.1-1.37,4.3,1.34-.31,8.08-3.62,10.79-4.48,10.78-3.41,14.83-4.55,2.66,4.23,0,0-14.85,6.69-14.85,7.76s4,1,6.72-.12c1.34,1,6.74-2.27,10.79-3.41s2.68,1-1.38,4.3-4.1,8.63,0,5.35c2.71-2.19,4.06-3.29,4.06-2.22s4,3.14,6.74-2.26,1.35-1.1,2.69-.05,4.06-3.28,5.42-5.45,4,1,5.4-3.31,2.75-7.53,2.73-5.39,2.62,10.64,3.95,11.68-.17,23.53-.17,23.53l4-.08.16-22.45s1.34,1,8,5.19,2.72-3.25,4.07-4.35,10.72,6.22,12.07,5.12-5.31-9.52-2.61-10.64,9.38,5.17,12.07,5.12,6.72.94,8.07-.15-6.7-4.15-5.34-5.25,22.81,7.06,25.54,1.66-20.7-5.06-22.77-13.47c-1.3-5.32,11.24,6.44,13.43,3l1.36-2.17s6.72.95,8.08-.15-25.49-10.22-25.47-13.42,14.76,6.14,16.12,4,21.48,5.05,21.52-.4c0-1.07-18.79-5-5.32-7.38,4-.71-14.74-8.28-26.86-7s-22.83-4.92-22.82-6c0-3.2,13.43,2.14,13.45-.25,0-1.07-2.67-2.09,2.7-1.12s9.39,3,12.09,3c5.38-.1-1.32-4.25,0-4.27,3-.06,17.47,1.18,17.49-.33,0-1.07-42.67-12.16-45.62-16.25-5.33-7.39,8.05,2,13.44,1.88,2.69-.05,0-2.14,4-1.14,3.82.94,8.06,2,9.42-.18,0,0-32.2-12.23-34.85-17.52s10.75,1.93,13.44,1.88,1.36-2.16,1.36-2.16,6.7,3.08,9.4,2-10.72-5.14-2.66-4.22,12.08,3,16.13,1.83-5.35-4.17-6.68-6.29,12,1.41,18.84-1.42c2.7-1.12-29.57-2.65-43-9.89s-12.06-7.26-12.06-7.26,5.37,2,8.06,2-1.34-1-1.32-3.18,4,2.06,8,2l4-.08s-6.7-4.15-6.69-5.22,5.36,3.11,9.4,3,0-3.21,4.05-2.21,6.71,2,8,2,0-1.07-2.66-4.23,5.39-.1,10.78-2.34,4-2.22-2.67-2.09-22-.42-24.19-3.83c-1.33-2.11,1.35,0,5.39-1.17s2.7-1.11-4-2.06-18.79-6.06-18.77-8.2,5.37,1,6.72.94,0-4.28,1.37-4.3,6.7,4.15,10.74,4.08-1.33-3.19-1.32-4.26,5.37,2,10.76.87-5.38-1-12.07-5.12-14.18-8.47-16.06-11.46c-1.33-2.11,8.84,2,10.74,1.94q4-.07-8-9.48c-8-6.26-5.31-9.52-1.3-6.39s2.69-.05,0-3.2-5.33-7.39-4-7.41,4.21,1.51,0-4.28C813.58,143.24,815,127.18,813.67,130.41Z"/><path class="cls-5" d="M907.2,148.06s1.24,12.86-2.82,14.91c0,0,6.72.87-6.84,14,5.4-2.08,5.42-5.05,5.4-2.08s-5.44,7-4.1,7,4.07-4,4.07-4,9.34,8.75-24.39,21.25c-4,2,2.66,2.92,6.71,1.86-2.72,3,4-.07,9.43-2.15-1.39,5,2.66,3.91,6.71,1.86,1.33,2-14.85,6.21-16.21,8.22s11.73-1.91,10.77-1.19c-2.71,2-1.38,4,6.72.87,2.67,2.93-11.62,15-45.91,20.64-6.74,1.12,4.76,3.6,12.1.78,2.7-1-14.87,8.19,1.31,3.94,0,0-2.71,3,0,2s12.15-4.18,10.79-3.17c-3.45,2.59,6.74-1.11,13.5-5.19,0,0,6.75-3.1,5.39-1.09s-12.18,8.14-8.14,8.07,4-.07,1.34,1-17.56,8.24-12.17,7.15,8.08-1.13,6.73-.12-4.07,3.05,4-.07,6.74-1.11,4,.92S874,251.7,856.53,254s-18.89,6.28-5.43,6,12.11-.22,9.38,3.8,10.78-2.18,12.13-2.2-2.71,2,2.68.94,17.56-8.24,14.82-3.24-13.51,7.18-9.47,7.11,18.84-1.33,0,5.94-39.12,12.59-32.4,13.46,28.94-6.93,22.89-2.39c-5.42,4.06-9.46,4.14-9.46,4.14s4,1.9,9.43-1.16,6.74-1.12,5.38-.1,5.37,1.88,12.12-1.21,6.74-2.1,5.37.89S860.15,302.48,844,302.77c-5.38.1,2.66,3.92,5.35,2.88,0,0-25.65,11.36-16.22,10.2s28.86-8.26,25.58-3.43c-1.36,2-1.37,3,6.72.87s20-4.62-5.44,7c-6.75,3.1-9.45,4.14-14.84,5.22-1.85.38-4.06,3,0,3,8.18-.15,18.88-6.29,17.52-4.28-1,1.44-4.82,4.72-1.38,4,1.35-.29,8.09-3.37,10.8-4.16,10.78-3.17,14.83-4.23,2.65,3.91,0,0-14.85,6.22-14.85,7.21s4,.92,6.72-.12c1.34,1,6.75-2.11,10.79-3.17s2.68.94-1.38,4-4.1,8,0,4.95c2.71-2,4.06-3,4-2s4,2.9,6.75-2.1,1.35-1,2.69-.05,4.06-3.05,5.42-5.05,4,.91,5.41-3.07,2.75-7,2.73-5,2.61,9.87,3.94,10.83-.18,21.8-.18,21.8l4-.07.18-20.81s1.34,1,8,4.81,2.72-3,4.07-4,10.71,5.76,12.07,4.74-5.31-8.82-2.61-9.86,9.37,4.79,12.07,4.74,6.71.87,8.07-.15-6.7-3.84-5.34-4.86,22.81,6.53,25.54,1.53-20.7-4.68-22.76-12.47c-1.3-4.94,11.23,6,13.43,2.73l1.36-2s6.72.87,8.07-.14-25.47-9.46-25.45-12.43,14.75,5.68,16.11,3.68,21.49,4.66,21.53-.39c0-1-18.79-4.62-5.32-6.84,4-.65-14.74-7.66-26.85-6.45s-22.83-4.55-22.82-5.54c0-3,13.43,2,13.45-.24,0-1-2.67-1.94,2.7-1s9.39,2.8,12.08,2.75c5.38-.09-1.31-3.94,0-4,3-.05,17.47,1.09,17.49-.31,0-1-42.66-11.24-45.61-15-5.32-6.84,8,1.84,13.44,1.74,2.69,0,0-2,4-1.06,3.82.87,8.06,1.84,9.42-.17,0,0-32.19-11.31-34.84-16.22s10.75,1.79,13.44,1.74,1.36-2,1.36-2,6.7,2.85,9.4,1.81-10.72-4.76-2.66-3.92,12.09,2.76,16.13,1.7-5.35-3.87-6.68-5.83,12,1.3,18.85-1.33c2.7-1-29.57-2.44-43-9.14s-12-6.72-12-6.72,5.37,1.89,8.06,1.84-1.34-1-1.32-2.95,4,1.91,8,1.84l4-.07s-6.69-3.85-6.69-4.84,5.36,2.88,9.4,2.81,0-3,4-2.06,6.71,1.86,8.05,1.84,0-1-2.65-3.92,5.38-.09,10.78-2.17,4-2.06-2.68-1.94-22-.37-24.18-3.52c-1.33-2,1.35,0,5.39-1.09s2.7-1-4-1.91-18.78-5.61-18.77-7.59,5.38.89,6.72.87,0-4,1.38-4,6.69,3.84,10.73,3.77-1.32-3-1.31-3.94,5.36,1.89,10.75.8-5.37-.89-12.06-4.74-14.18-7.84-16.06-10.61c-1.32-2,8.85,1.82,10.75,1.79q4-.07-8-8.77c-8-5.81-5.3-8.83-1.29-5.93s2.69,0,0-3-5.32-6.84-4-6.86,4.21,1.4,0-4C907.1,160,908.57,145.06,907.2,148.06Z"/><path class="cls-5" d="M699.45,120.05s1.25,13.88-2.81,16.09c0,0,6.72,1-6.83,15.1,5.4-2.24,5.42-5.45,5.4-2.24s-5.44,7.59-4.09,7.56,4.06-4.35,4.06-4.35,9.35,9.45-24.38,22.91c-4,2.21,2.67,3.15,6.72,2-2.72,3.26,4-.08,9.43-2.32-1.39,5.38,2.66,4.23,6.71,2,1.33,2.11-14.85,6.69-16.21,8.85s11.73-2,10.77-1.27c-2.7,2.19-1.37,4.31,6.72,1,2.67,3.16-11.6,16.15-45.89,22.24-6.74,1.19,4.76,3.89,12.1.84,2.7-1.12-14.86,8.83,1.31,4.25,0,0-2.71,3.26,0,2.14s12.14-4.5,10.78-3.41c-3.45,2.79,6.74-1.19,13.49-5.59,0,0,6.75-3.34,5.39-1.17s-12.17,8.78-8.13,8.7,4-.07,1.34,1-17.55,8.88-12.16,7.71,8.08-1.22,6.72-.13-4.06,3.29,4-.07,6.73-1.2,4,1-21.59,9-39.1,11.42-18.88,6.77-5.42,6.52,12.1-.23,9.38,4.1,10.78-2.34,12.13-2.36-2.71,2.18,2.68,1,17.55-8.88,14.82-3.48-13.51,7.74-9.47,7.66,18.84-1.42-.05,6.42-39.1,13.56-32.39,14.5,28.94-7.46,22.89-2.56c-5.41,4.37-9.45,4.45-9.45,4.45s4,2.06,9.43-1.25,6.73-1.19,5.38-.1,5.37,2,12.12-1.29,6.74-2.27,5.37,1-33.76,17.74-49.9,18c-5.38.1,2.66,4.22,5.36,3.1,0,0-25.65,12.24-16.23,11s28.87-8.9,25.59-3.69c-1.36,2.17-1.37,3.24,6.72.95s20-5-5.44,7.58c-6.75,3.34-9.45,4.46-14.84,5.63-1.84.4-4,3.28,0,3.2,8.19-.15,18.88-6.76,17.52-4.6-1,1.56-4.81,5.1-1.37,4.3,1.34-.31,8.08-3.62,10.79-4.48,10.79-3.4,14.83-4.55,2.66,4.23,0,0-14.85,6.69-14.85,7.76s4,1,6.72-.12c1.34,1,6.75-2.27,10.79-3.41s2.68,1-1.38,4.3-4.09,8.63,0,5.35c2.71-2.19,4.06-3.29,4.06-2.22s4,3.14,6.74-2.26,1.35-1.09,2.69-.05,4.06-3.28,5.42-5.45,4,1,5.4-3.31,2.75-7.53,2.73-5.39,2.62,10.64,4,11.68-.17,23.53-.17,23.53l4-.08.16-22.45s1.34,1,8,5.19,2.71-3.25,4.06-4.35,10.72,6.22,12.07,5.12-5.31-9.52-2.61-10.64,9.38,5.17,12.07,5.12,6.72.94,8.07-.15-6.7-4.15-5.34-5.25,22.81,7.06,25.54,1.66-20.7-5.06-22.77-13.47c-1.3-5.32,11.24,6.45,13.43,3l1.36-2.17s6.72.95,8.08-.15-25.49-10.21-25.47-13.42,14.76,6.14,16.12,4,21.48,5,21.52-.4c0-1.07-18.79-5-5.32-7.38,4-.71-14.74-8.28-26.86-7s-22.83-4.92-22.82-6c0-3.2,13.44,2.14,13.45-.25,0-1.07-2.67-2.08,2.7-1.12s9.4,3,12.09,3c5.38-.1-1.32-4.26,0-4.28,3-.06,17.48,1.18,17.49-.33,0-1.07-42.67-12.16-45.62-16.25-5.33-7.39,8.05,2,13.44,1.88,2.69-.05,0-2.13,4-1.14,3.82.94,8.06,2,9.42-.18,0,0-32.2-12.23-34.85-17.52s10.75,1.94,13.44,1.89,1.36-2.17,1.36-2.17,6.7,3.08,9.4,2-10.72-5.14-2.66-4.22,12.09,3,16.13,1.83-5.35-4.17-6.68-6.29,12,1.42,18.84-1.42c2.7-1.12-29.57-2.65-43-9.89S709.53,214,709.53,214s5.37,2,8.06,2-1.34-1-1.32-3.18,4,2.06,8.05,2l4-.08s-6.7-4.15-6.69-5.22,5.36,3.11,9.4,3,0-3.21,4-2.21,6.71,2,8.06,2,0-1.07-2.66-4.23,5.38-.1,10.77-2.34,4.05-2.21-2.67-2.09-22-.42-24.19-3.82c-1.33-2.12,1.35,0,5.39-1.17s2.7-1.12-4-2.07S707,190.48,707,188.34s5.37,1,6.72.94,0-4.27,1.37-4.3,6.7,4.15,10.74,4.08-1.33-3.19-1.32-4.26,5.37,2,10.76.87-5.38-1-12.07-5.12-14.18-8.47-16.06-11.46c-1.33-2.11,8.84,2,10.74,1.94q4.05-.08-8-9.47c-8-6.27-5.31-9.53-1.3-6.4s2.69,0,0-3.2-5.33-7.39-4-7.41,4.21,1.51,0-4.28C699.36,132.88,700.82,116.82,699.45,120.05Z"/><path class="cls-5" d="M614,160.45s1.23,11.61-2.83,13.47c0,0,6.72.78-6.85,12.64,5.4-1.88,5.42-4.57,5.4-1.88s-5.45,6.35-4.1,6.33,4.07-3.65,4.07-3.65,9.33,7.89-24.41,19.2c-4.06,1.86,2.66,2.64,6.71,1.68-2.72,2.73,4-.07,9.43-2-1.39,4.49,2.66,3.53,6.71,1.67,1.33,1.77-14.85,5.62-16.22,7.43s11.73-1.72,10.77-1.07c-2.71,1.83-1.38,3.6,6.72.78,2.66,2.63-11.63,13.53-45.93,18.67-6.73,1,4.76,3.25,12.1.69,2.7-.94-14.87,7.41,1.31,3.55,0,0-2.72,2.73,0,1.79S589,236,587.65,236.93c-3.45,2.34,6.74-1,13.5-4.7,0,0,6.76-2.8,5.39-1s-12.18,7.36-8.14,7.29,4-.07,1.33.87-17.56,7.46-12.17,6.47,8.08-1,6.73-.11-4.07,2.75,4-.07,6.74-1,4,.82-21.6,7.53-39.11,9.62-18.89,5.69-5.43,5.46,12.1-.21,9.38,3.41,10.78-2,12.12-2-2.71,1.83,2.68.85,17.57-7.46,14.83-2.94-13.52,6.49-9.48,6.42,18.84-1.21-.06,5.37-39.12,11.4-32.41,12.18,29-6.28,22.89-2.18c-5.42,3.67-9.45,3.74-9.45,3.74s4,1.72,9.43-1,6.73-1,5.38-.09,5.36,1.69,12.11-1.1,6.75-1.91,5.38.8-33.79,14.89-49.93,15.16c-5.38.09,2.65,3.53,5.35,2.59,0,0-25.66,10.28-16.23,9.23s28.87-7.49,25.59-3.12c-1.37,1.81-1.38,2.7,6.71.78s20-4.19-5.44,6.35c-6.76,2.8-9.46,3.74-14.85,4.73-1.85.34-4.06,2.75,0,2.68,8.19-.14,18.9-5.69,17.53-3.88-1,1.31-4.82,4.27-1.38,3.61,1.35-.27,8.09-3,10.8-3.77,10.79-2.86,14.83-3.83,2.65,3.54,0,0-14.85,5.62-14.86,6.51s4,.83,6.73-.11c1.33.87,6.74-1.91,10.79-2.87s2.68.85-1.39,3.6-4.11,7.23,0,4.47c2.71-1.83,4.06-2.75,4-1.85s4,2.61,6.75-1.91,1.35-.92,2.69,0,4.06-2.76,5.43-4.57,4,.83,5.41-2.78,2.75-6.3,2.73-4.51,2.6,8.9,3.94,9.77-.21,19.68-.21,19.68l4-.07.19-18.79s1.34.88,8,4.34,2.72-2.73,4.07-3.65,10.71,5.19,12.06,4.27-5.29-8-2.59-8.9,9.37,4.31,12.06,4.26,6.72.78,8.07-.13-6.69-3.47-5.33-4.38,22.8,5.87,25.54,1.35-20.7-4.21-22.75-11.24c-1.3-4.45,11.22,5.37,13.42,2.45l1.37-1.81s6.71.78,8.07-.14-25.47-8.51-25.44-11.19,14.74,5.11,16.11,3.3,21.47,4.2,21.52-.37c0-.89-18.79-4.15-5.32-6.17,4-.59-14.72-6.9-26.84-5.8s-22.82-4.08-22.81-5c0-2.68,13.43,1.77,13.45-.23,0-.89-2.67-1.74,2.7-.94S662.41,292,665.1,292c5.38-.09-1.31-3.56,0-3.58,3-.05,17.47,1,17.49-.3,0-.89-42.65-10.11-45.6-13.53-5.31-6.17,8.06,1.65,13.44,1.56,2.69-.05,0-1.79,4-1,3.82.79,8.06,1.65,9.42-.16,0,0-32.18-10.18-34.82-14.61s10.74,1.61,13.43,1.56,1.37-1.81,1.37-1.81,6.7,2.57,9.4,1.63-10.72-4.29-2.66-3.54,12.08,2.48,16.13,1.52-5.34-3.49-6.67-5.26,12,1.17,18.84-1.21c2.7-.94-29.57-2.18-43-8.21S624,239,624,239s5.36,1.7,8,1.65-1.33-.87-1.31-2.66,4,1.72,8,1.65l4-.07s-6.69-3.46-6.68-4.36,5.35,2.6,9.39,2.53,0-2.69,4-1.86,6.71,1.67,8.05,1.65,0-.89-2.65-3.53,5.38-.09,10.78-2,4.06-1.86-2.67-1.75-22-.32-24.18-3.16c-1.33-1.77,1.35,0,5.39-1s2.7-.94-4-1.72-18.78-5-18.76-6.84,5.37.81,6.72.78,0-3.58,1.38-3.6,6.69,3.47,10.73,3.4-1.32-2.66-1.31-3.56,5.36,1.7,10.75.71-5.37-.8-12.06-4.27-14.16-7.06-16-9.56c-1.33-1.77,8.84,1.64,10.74,1.6q4-.06-8-7.91c-8-5.23-5.29-8-1.29-5.35s2.7,0,0-2.68-5.31-6.17-4-6.19,4.21,1.26,0-3.58C613.89,171.19,615.38,157.74,614,160.45Z"/><path class="cls-5" d="M521.46,161.72s1.22,11.61-2.83,13.47c0,0,6.72.78-6.86,12.64,5.4-1.88,5.43-4.56,5.4-1.88s-5.45,6.35-4.1,6.33,4.07-3.65,4.07-3.65,9.34,7.9-24.41,19.2c-4.05,1.86,2.67,2.64,6.71,1.68-2.72,2.73,4-.07,9.44-1.95-1.4,4.5,2.65,3.53,6.7,1.67,1.33,1.77-14.85,5.62-16.21,7.44s11.73-1.73,10.77-1.08c-2.71,1.83-1.38,3.6,6.72.78,2.66,2.64-11.64,13.53-45.93,18.67-6.74,1,4.75,3.25,12.1.69,2.7-.94-14.88,7.41,1.31,3.56,0,0-2.72,2.73,0,1.79s12.14-3.79,10.79-2.87c-3.46,2.34,6.73-1,13.5-4.7,0,0,6.75-2.8,5.39-1s-12.18,7.36-8.15,7.29,4-.06,1.34.88-17.57,7.45-12.17,6.46,8.08-1,6.72-.11-4.06,2.75,4-.07,6.73-1,4,.83-21.6,7.52-39.1,9.61-18.89,5.69-5.44,5.46,12.11-.21,9.38,3.42,10.78-2,12.13-2-2.71,1.84,2.68.85,17.56-7.46,14.83-2.94-13.52,6.5-9.49,6.43,18.85-1.22-.05,5.37-39.13,11.4-32.41,12.18,28.95-6.29,22.89-2.18c-5.42,3.67-9.46,3.74-9.46,3.74s4,1.72,9.43-1.06,6.74-1,5.38-.09,5.36,1.7,12.12-1.1,6.74-1.91,5.37.8-33.78,14.89-49.93,15.17c-5.38.09,2.66,3.53,5.36,2.59,0,0-25.67,10.28-16.24,9.22s28.88-7.49,25.59-3.12c-1.36,1.81-1.37,2.71,6.72.78s20-4.18-5.45,6.35c-6.75,2.8-9.45,3.74-14.84,4.73-1.85.34-4.07,2.75,0,2.68,8.18-.14,18.89-5.69,17.53-3.87-1,1.3-4.82,4.27-1.39,3.6,1.35-.26,8.1-3,10.8-3.76,10.79-2.87,14.84-3.83,2.66,3.53,0,0-14.86,5.62-14.87,6.51s4,.83,6.73-.11c1.34.87,6.74-1.9,10.79-2.87s2.68.85-1.38,3.6-4.11,7.23-.05,4.48c2.71-1.84,4.07-2.76,4.06-1.86s4,2.61,6.74-1.91,1.36-.91,2.69,0,4.07-2.75,5.43-4.57,4,.83,5.41-2.77,2.75-6.31,2.74-4.52,2.59,8.9,3.93,9.77-.2,19.68-.2,19.68l4-.07.2-18.78s1.33.87,8,4.33,2.72-2.73,4.08-3.65,10.7,5.19,12.06,4.27-5.3-8-2.6-8.9,9.37,4.31,12.06,4.27,6.72.78,8.07-.14-6.69-3.46-5.33-4.38,22.81,5.87,25.54,1.35-20.69-4.2-22.75-11.24c-1.3-4.45,11.23,5.38,13.43,2.46l1.36-1.82s6.72.78,8.07-.13-25.47-8.52-25.44-11.2,14.75,5.12,16.11,3.3,21.48,4.2,21.53-.36c0-.9-18.79-4.16-5.32-6.17,4-.6-14.73-6.91-26.84-5.81s-22.83-4.08-22.82-5c0-2.68,13.43,1.78,13.45-.23,0-.89-2.67-1.74,2.7-.94s9.39,2.53,12.09,2.48c5.38-.09-1.31-3.55,0-3.58,3-.05,17.48,1,17.49-.3,0-.89-42.64-10.11-45.59-13.53-5.32-6.17,8,1.65,13.43,1.56,2.69-.05,0-1.79,4.05-1,3.82.78,8,1.65,9.42-.16,0,0-32.18-10.19-34.83-14.62s10.75,1.61,13.44,1.56,1.36-1.81,1.36-1.81,6.7,2.57,9.4,1.63-10.71-4.29-2.65-3.53S570.19,262,574.23,261s-5.34-3.49-6.67-5.25,12,1.16,18.85-1.22c2.7-.94-29.57-2.18-43-8.21s-12.05-6.06-12.05-6.06,5.37,1.7,8.06,1.65-1.34-.87-1.32-2.66,4,1.72,8.05,1.65l4-.06s-6.69-3.47-6.68-4.36,5.35,2.59,9.39,2.52,0-2.68,4-1.86,6.71,1.68,8.06,1.65,0-.89-2.66-3.53,5.39-.09,10.79-2,4.05-1.86-2.68-1.75-22-.31-24.18-3.16c-1.32-1.77,1.35,0,5.39-1s2.7-.94-4-1.72-18.78-5-18.76-6.83,5.37.8,6.71.78,0-3.58,1.39-3.61,6.69,3.47,10.72,3.4-1.32-2.66-1.31-3.56,5.37,1.7,10.76.71-5.37-.8-12.06-4.26-14.17-7.07-16-9.57c-1.32-1.76,8.85,1.64,10.75,1.61q4-.07-8-7.92c-8-5.23-5.3-8-1.29-5.34s2.69-.05,0-2.69-5.32-6.17-4-6.19,4.2,1.26,0-3.58C521.35,172.46,522.83,159,521.46,161.72Z"/><path class="cls-5" d="M398.44,114.59s1.26,14.66-2.79,17c0,0,6.72,1-6.83,15.94,5.39-2.36,5.42-5.75,5.39-2.36s-5.43,8-4.08,8,4.06-4.59,4.06-4.59,9.35,10-24.36,24.18c-4.06,2.34,2.66,3.34,6.71,2.13-2.71,3.44,4-.08,9.43-2.44-1.38,5.67,2.66,4.47,6.71,2.13,1.33,2.23-14.84,7.06-16.2,9.35s11.73-2.16,10.77-1.34c-2.71,2.31-1.37,4.54,6.72,1,2.67,3.34-11.6,17.06-45.89,23.47-6.73,1.26,4.77,4.11,12.1.89,2.7-1.18-14.85,9.32,1.32,4.5,0,0-2.71,3.44,0,2.25s12.13-4.75,10.78-3.59c-3.45,2.94,6.73-1.26,13.49-5.91,0,0,6.75-3.51,5.39-1.23S379,213.21,383,213.13s4-.08,1.34,1.1-17.55,9.38-12.16,8.14,8.08-1.28,6.73-.13-4.06,3.47,4-.07,6.74-1.26,4,1.05-21.58,9.45-39.09,12-18.87,7.14-5.42,6.88,12.11-.23,9.39,4.34S362.64,244,364,244s-2.7,2.31,2.68,1.08,17.55-9.38,14.82-3.68-13.5,8.17-9.46,8.09,18.84-1.49,0,6.78-39.1,14.3-32.38,15.3,28.94-7.87,22.89-2.7c-5.41,4.62-9.45,4.7-9.45,4.7s4,2.18,9.42-1.31,6.74-1.26,5.39-.11,5.36,2.16,12.11-1.36,6.74-2.39,5.38,1-33.75,18.72-49.9,19c-5.38.1,2.66,4.46,5.36,3.28,0,0-25.64,12.92-16.21,11.61s28.85-9.39,25.58-3.88c-1.36,2.28-1.37,3.41,6.72,1s20-5.24-5.43,8c-6.75,3.52-9.45,4.7-14.84,5.94-1.85.42-4.05,3.46,0,3.38,8.18-.15,18.88-7.13,17.52-4.85-1,1.64-4.81,5.38-1.37,4.54,1.34-.32,8.08-3.82,10.79-4.72,10.78-3.6,14.82-4.8,2.66,4.47,0,0-14.84,7.06-14.85,8.19s4,1.05,6.73-.13c1.33,1.1,6.74-2.39,10.78-3.6s2.68,1.08-1.37,4.55-4.1,9.11,0,5.64c2.71-2.31,4.06-3.46,4.05-2.33s4,3.31,6.74-2.39,1.35-1.16,2.69-.05,4.06-3.47,5.42-5.75,4,1.05,5.4-3.5,2.74-7.95,2.73-5.7,2.62,11.25,4,12.35-.16,24.85-.16,24.85l4-.08.16-23.72s1.33,1.11,8,5.49,2.71-3.44,4.07-4.59,10.72,6.57,12.07,5.41S421.32,324.19,424,323s9.38,5.47,12.07,5.42,6.72,1,8.07-.16-6.69-4.39-5.34-5.54,22.82,7.46,25.55,1.76-20.71-5.35-22.78-14.24c-1.31-5.62,11.24,6.82,13.43,3.13l1.36-2.28s6.72,1,8.07-.16S439,300.14,439,296.75s14.76,6.49,16.12,4.21,21.49,5.34,21.52-.42c0-1.13-18.79-5.28-5.33-7.8,4-.74-14.74-8.75-26.85-7.39s-22.84-5.2-22.83-6.33c0-3.39,13.44,2.26,13.45-.26,0-1.13-2.67-2.21,2.7-1.18s9.4,3.2,12.09,3.15c5.38-.1-1.32-4.49,0-4.52,3,0,17.48,1.27,17.49-.33,0-1.13-42.67-12.87-45.63-17.19-5.33-7.81,8.06,2.1,13.44,2,2.69-.05,0-2.26,4-1.21,3.82,1,8.06,2.1,9.42-.18,0,0-32.2-12.93-34.86-18.53s10.75,2,13.44,2,1.36-2.28,1.36-2.28,6.71,3.26,9.4,2.07-10.72-5.44-2.66-4.46,12.09,3.15,16.13,2-5.35-4.42-6.68-6.65,12,1.5,18.84-1.49c2.7-1.18-29.58-2.82-43-10.47s-12.06-7.67-12.06-7.67,5.37,2.15,8.06,2.1-1.34-1.1-1.32-3.36,4,2.18,8.06,2.1l4-.07s-6.7-4.39-6.69-5.52,5.36,3.28,9.4,3.21,0-3.39,4.05-2.34,6.71,2.13,8,2.1,0-1.13-2.66-4.46,5.38-.11,10.78-2.47,4.05-2.33-2.68-2.21-22-.45-24.18-4c-1.34-2.23,1.34,0,5.38-1.23s2.7-1.18-4-2.18S406,189,406.06,186.72s5.37,1,6.72,1,0-4.52,1.37-4.55,6.7,4.39,10.73,4.31-1.32-3.36-1.31-4.49,5.36,2.16,10.75.92-5.37-1-12.07-5.41-14.18-9-16.06-12.11c-1.34-2.24,8.84,2.08,10.74,2.05q4-.08-8-10c-8-6.62-5.32-10.06-1.31-6.75s2.69-.05,0-3.39-5.34-7.8-4-7.83,4.21,1.6,0-4.52C398.36,128.14,399.81,111.17,398.44,114.59Z"/><path class="cls-5" d="M338.56,114.59s1.25,14.66-2.8,17c0,0,6.72,1-6.83,15.94,5.4-2.37,5.42-5.75,5.4-2.37s-5.44,8-4.09,8,4.06-4.6,4.06-4.6,9.36,10-24.36,24.18c-4.05,2.34,2.67,3.34,6.71,2.13-2.71,3.44,4-.07,9.43-2.44-1.38,5.68,2.66,4.47,6.71,2.13,1.33,2.24-14.84,7.07-16.2,9.35s11.73-2.15,10.77-1.34c-2.7,2.31-1.37,4.55,6.72,1,2.67,3.34-11.6,17.06-45.89,23.47-6.73,1.26,4.77,4.11,12.11.9,2.69-1.18-14.86,9.32,1.31,4.49,0,0-2.71,3.44,0,2.26s12.13-4.75,10.78-3.6c-3.45,2.95,6.74-1.26,13.49-5.9,0,0,6.75-3.52,5.39-1.24s-12.17,9.27-8.13,9.19,4-.07,1.34,1.11-17.55,9.37-12.16,8.14,8.08-1.29,6.73-.13-4.06,3.46,4-.08,6.74-1.26,4,1.05-21.58,9.45-39.09,12.05-18.87,7.13-5.42,6.88,12.11-.24,9.39,4.33S302.76,244,304.1,244s-2.7,2.31,2.68,1.08,17.55-9.37,14.83-3.67-13.51,8.16-9.47,8.08,18.84-1.49-.05,6.78-39.1,14.3-32.38,15.3,28.94-7.86,22.89-2.7c-5.41,4.62-9.45,4.7-9.45,4.7s4,2.18,9.43-1.31,6.73-1.26,5.38-.1,5.36,2.15,12.11-1.36,6.74-2.39,5.38,1-33.75,18.72-49.9,19c-5.38.1,2.67,4.47,5.36,3.28,0,0-25.64,12.92-16.21,11.61s28.86-9.38,25.58-3.88c-1.36,2.28-1.37,3.41,6.72,1s20-5.24-5.43,8c-6.75,3.52-9.45,4.7-14.84,5.93-1.84.42-4.05,3.47,0,3.39,8.19-.16,18.88-7.14,17.52-4.86-1,1.65-4.81,5.38-1.37,4.55,1.34-.33,8.08-3.82,10.79-4.73,10.78-3.59,14.83-4.8,2.66,4.47,0,0-14.84,7.06-14.85,8.19s4,1.05,6.73-.13c1.34,1.1,6.74-2.39,10.78-3.59s2.69,1.07-1.37,4.54-4.1,9.11,0,5.65c2.71-2.31,4.06-3.47,4.05-2.34s4,3.31,6.74-2.39,1.36-1.15,2.69-.05,4.06-3.47,5.42-5.75,4,1.05,5.4-3.49,2.75-8,2.73-5.7,2.62,11.24,4,12.34-.16,24.85-.16,24.85l4-.08.15-23.71s1.33,1.1,8,5.49,2.71-3.44,4.07-4.6,10.72,6.57,12.07,5.42-5.32-10.06-2.62-11.25,9.38,5.47,12.07,5.42,6.72,1,8.07-.16-6.69-4.38-5.34-5.54,22.82,7.47,25.55,1.77-20.71-5.36-22.78-14.24c-1.31-5.63,11.24,6.81,13.43,3.12l1.36-2.28s6.72,1,8.07-.16-25.49-10.8-25.47-14.19,14.76,6.5,16.12,4.21,21.49,5.35,21.53-.41c0-1.13-18.8-5.29-5.34-7.8,4-.75-14.74-8.76-26.85-7.39s-22.84-5.21-22.83-6.34c0-3.39,13.44,2.27,13.45-.26,0-1.13-2.67-2.21,2.7-1.18s9.4,3.21,12.09,3.16c5.38-.11-1.32-4.5,0-4.52,3-.06,17.48,1.26,17.49-.34,0-1.13-42.67-12.86-45.63-17.19-5.33-7.8,8.06,2.1,13.44,2,2.69-.05,0-2.26,4-1.21,3.82,1,8.06,2.11,9.42-.18,0,0-32.2-12.93-34.86-18.52s10.75,2.05,13.44,2,1.36-2.29,1.36-2.29,6.71,3.26,9.41,2.08-10.73-5.44-2.67-4.47,12.09,3.16,16.13,2-5.35-4.41-6.68-6.65,12,1.5,18.84-1.49c2.7-1.18-29.57-2.82-43-10.46s-12.06-7.68-12.06-7.68,5.37,2.16,8.06,2.11-1.34-1.11-1.32-3.37,4,2.19,8.06,2.11l4-.08s-6.7-4.39-6.69-5.52,5.36,3.29,9.4,3.21,0-3.39,4-2.34S381,212,382.33,212s0-1.13-2.67-4.47,5.38-.1,10.78-2.46,4.05-2.34-2.68-2.21-22-.45-24.18-4.05c-1.33-2.24,1.34,0,5.39-1.24s2.69-1.18-4-2.18-18.79-6.41-18.77-8.67,5.37,1,6.72,1,0-4.52,1.37-4.54,6.7,4.38,10.73,4.31-1.32-3.37-1.31-4.5,5.36,2.16,10.75.93-5.37-1-12.07-5.42-14.18-8.95-16.06-12.11c-1.33-2.23,8.84,2.09,10.74,2.05q4.05-.08-8-10c-8-6.62-5.32-10.06-1.3-6.75s2.69-.05,0-3.39-5.33-7.8-4-7.82,4.21,1.6,0-4.52C338.47,128.15,339.92,111.18,338.56,114.59Z"/><path class="cls-5" d="M249.87,132s1.25,13.58-2.8,15.75c0,0,6.71.92-6.84,14.77,5.39-2.19,5.42-5.33,5.39-2.19s-5.43,7.43-4.09,7.4,4.07-4.26,4.07-4.26,9.35,9.25-24.38,22.43c-4.05,2.17,2.67,3.09,6.71,2-2.72,3.19,4-.08,9.43-2.27-1.38,5.26,2.66,4.14,6.71,2,1.33,2.07-14.84,6.55-16.2,8.67s11.72-2,10.77-1.25c-2.71,2.15-1.38,4.22,6.72.93,2.66,3.09-11.62,15.81-45.91,21.77-6.73,1.17,4.76,3.81,12.11.83,2.69-1.1-14.87,8.64,1.31,4.16,0,0-2.72,3.19,0,2.09s12.14-4.41,10.79-3.34c-3.45,2.74,6.73-1.17,13.49-5.48,0,0,6.75-3.26,5.39-1.14s-12.17,8.59-8.13,8.52,4-.08,1.33,1-17.55,8.7-12.16,7.55,8.08-1.2,6.73-.12-4.06,3.21,4-.08,6.74-1.17,4,1-21.59,8.77-39.09,11.19-18.89,6.63-5.43,6.38,12.11-.22,9.38,4,10.78-2.29,12.13-2.32-2.71,2.15,2.68,1,17.55-8.69,14.82-3.41-13.51,7.57-9.47,7.5,18.84-1.4-.05,6.28-39.11,13.28-32.39,14.2,28.94-7.31,22.89-2.51c-5.42,4.28-9.45,4.36-9.45,4.36s4,2,9.42-1.22,6.74-1.18,5.39-.1,5.36,2,12.11-1.27,6.74-2.22,5.37.94-33.76,17.37-49.9,17.67c-5.38.1,2.66,4.14,5.36,3,0,0-25.65,12-16.23,10.76s28.87-8.71,25.59-3.61c-1.36,2.12-1.37,3.17,6.72.92s20-4.86-5.44,7.43c-6.75,3.26-9.45,4.36-14.84,5.51-1.85.39-4.06,3.21,0,3.14,8.18-.15,18.88-6.63,17.52-4.51-1,1.52-4.81,5-1.38,4.21,1.35-.31,8.09-3.55,10.8-4.39,10.78-3.34,14.83-4.46,2.66,4.14,0,0-14.85,6.55-14.86,7.6s4,1,6.73-.12c1.34,1,6.74-2.22,10.79-3.34s2.68,1-1.38,4.21-4.1,8.45,0,5.23c2.71-2.14,4.06-3.21,4-2.17s4,3.07,6.74-2.21,1.36-1.08,2.69-.05,4.06-3.22,5.43-5.34,4,1,5.4-3.24,2.75-7.37,2.73-5.28,2.61,10.42,3.95,11.44-.17,23-.17,23l4-.08.17-22s1.34,1,8,5.09,2.71-3.19,4.07-4.26,10.71,6.08,12.07,5-5.31-9.32-2.61-10.42,9.37,5.06,12.06,5,6.72.92,8.08-.15-6.7-4.06-5.35-5.13,22.82,6.9,25.55,1.62-20.7-4.95-22.77-13.19c-1.3-5.21,11.24,6.31,13.43,2.89l1.36-2.11s6.72.92,8.07-.15-25.48-10-25.45-13.14,14.75,6,16.11,3.89,21.48,4.94,21.52-.4c0-1-18.79-4.88-5.32-7.22,4-.69-14.74-8.1-26.85-6.83s-22.83-4.81-22.83-5.86c0-3.14,13.44,2.09,13.46-.25,0-1-2.68-2,2.7-1.1s9.39,3,12.08,2.92c5.38-.1-1.31-4.16,0-4.19,3-.05,17.48,1.16,17.49-.32,0-1-42.66-11.89-45.61-15.9-5.33-7.23,8.05,1.94,13.43,1.84,2.69,0,0-2.09,4.05-1.12,3.82.93,8.05,1.95,9.42-.17,0,0-32.2-12-34.85-17.15s10.75,1.9,13.44,1.85,1.36-2.12,1.36-2.12,6.7,3,9.4,1.92-10.72-5-2.66-4.14,12.09,2.92,16.13,1.8-5.35-4.09-6.68-6.16,12,1.38,18.84-1.39c2.7-1.1-29.57-2.6-43-9.67s-12.05-7.11-12.05-7.11,5.37,2,8.06,2-1.34-1-1.33-3.12,4,2,8.06,1.95l4-.08s-6.7-4.06-6.69-5.11,5.36,3,9.39,3,0-3.14,4.06-2.17,6.71,2,8.05,1.95,0-1.05-2.66-4.14,5.38-.1,10.78-2.29,4.05-2.17-2.67-2-22-.4-24.19-3.74c-1.33-2.07,1.35,0,5.39-1.14s2.7-1.1-4-2-18.79-5.93-18.77-8,5.37.95,6.72.93,0-4.19,1.38-4.22,6.69,4.07,10.73,4-1.33-3.11-1.32-4.16,5.37,2,10.76.85-5.38-.95-12.07-5S259.46,182.9,257.58,180c-1.33-2.06,8.85,1.93,10.75,1.9q4-.08-8-9.27c-8-6.13-5.31-9.32-1.3-6.26s2.69-.05,0-3.14-5.32-7.22-4-7.25,4.21,1.48,0-4.19C249.78,144.54,251.24,128.81,249.87,132Z"/><path class="cls-5" d="M168.35,117.29s1.25,14.66-2.8,17c0,0,6.72,1-6.83,15.94,5.4-2.37,5.42-5.75,5.4-2.37s-5.43,8-4.09,8,4.07-4.6,4.07-4.6,9.35,10-24.37,24.19c-4,2.33,2.67,3.33,6.71,2.13-2.71,3.43,4-.08,9.43-2.44-1.38,5.67,2.67,4.46,6.72,2.12,1.33,2.24-14.84,7.07-16.2,9.35s11.72-2.15,10.77-1.34c-2.71,2.31-1.38,4.55,6.72,1,2.66,3.34-11.61,17.06-45.89,23.47-6.73,1.26,4.76,4.11,12.1.9,2.7-1.18-14.86,9.32,1.32,4.49,0,0-2.72,3.44,0,2.26s12.14-4.75,10.79-3.6c-3.45,2.95,6.73-1.26,13.49-5.9,0,0,6.74-3.52,5.38-1.23s-12.16,9.26-8.12,9.19,4-.08,1.33,1.1-17.54,9.37-12.16,8.14,8.08-1.29,6.73-.13-4.06,3.46,4-.08,6.73-1.26,4,1-21.59,9.45-39.09,12.05-18.88,7.14-5.42,6.88,12.1-.24,9.38,4.33,10.78-2.46,12.13-2.49-2.71,2.31,2.68,1.08,17.55-9.37,14.82-3.67-13.5,8.16-9.47,8.08,18.84-1.49,0,6.78-39.1,14.3-32.38,15.3,28.93-7.86,22.88-2.7c-5.41,4.63-9.44,4.7-9.44,4.7s4,2.18,9.42-1.31,6.73-1.26,5.38-.1,5.37,2.15,12.12-1.36,6.74-2.39,5.37,1-33.75,18.72-49.89,19c-5.38.1,2.66,4.47,5.36,3.28,0,0-25.64,12.92-16.22,11.61s28.86-9.38,25.59-3.88c-1.36,2.28-1.37,3.41,6.72,1s20-5.23-5.44,8c-6.74,3.52-9.44,4.7-14.83,5.93-1.85.42-4.06,3.47,0,3.39,8.18-.16,18.87-7.14,17.52-4.86-1,1.65-4.81,5.38-1.38,4.55,1.35-.33,8.09-3.82,10.79-4.73,10.79-3.59,14.83-4.8,2.66,4.47,0,0-14.84,7.06-14.84,8.19s4,1.05,6.72-.13c1.34,1.1,6.74-2.39,10.79-3.59s2.68,1.07-1.38,4.54-4.09,9.11,0,5.65c2.7-2.31,4-3.47,4-2.34s4,3.31,6.74-2.39,1.35-1.15,2.69-.05,4.06-3.47,5.42-5.75,4,1.05,5.4-3.49,2.74-8,2.73-5.7,2.61,11.24,4,12.34-.16,24.85-.16,24.85l4-.08.15-23.71s1.34,1.1,8,5.49,2.71-3.44,4.06-4.6,10.72,6.57,12.07,5.42-5.31-10.06-2.61-11.24,9.38,5.46,12.07,5.41,6.72,1,8.07-.16-6.7-4.38-5.35-5.54,22.82,7.47,25.55,1.77-20.71-5.36-22.78-14.24c-1.31-5.63,11.24,6.81,13.44,3.13l1.36-2.29s6.71,1,8.07-.15-25.49-10.81-25.47-14.2,14.76,6.5,16.11,4.21,21.49,5.35,21.53-.41c0-1.13-18.8-5.29-5.33-7.8,4-.74-14.74-8.76-26.86-7.39s-22.83-5.21-22.82-6.34c0-3.39,13.43,2.27,13.45-.26,0-1.13-2.68-2.21,2.7-1.18s9.39,3.21,12.08,3.16c5.38-.11-1.31-4.5,0-4.52,3-.06,17.48,1.26,17.49-.34,0-1.13-42.67-12.86-45.63-17.19-5.33-7.8,8.06,2.1,13.44,2,2.69-.05,0-2.26,4-1.21,3.82,1,8.05,2.11,9.41-.18,0,0-32.2-12.93-34.85-18.52s10.75,2.05,13.44,2,1.36-2.29,1.36-2.29,6.7,3.26,9.4,2.08-10.73-5.44-2.66-4.47,12.08,3.16,16.13,1.95-5.36-4.41-6.69-6.65,12,1.5,18.85-1.49c2.69-1.18-29.58-2.82-43-10.46s-12.06-7.68-12.06-7.68,5.37,2.16,8.06,2.11-1.34-1.11-1.33-3.37,4,2.19,8.06,2.11l4-.08s-6.7-4.39-6.69-5.52S196,215,200,214.93s0-3.39,4.05-2.34,6.71,2.13,8.06,2.11,0-1.13-2.66-4.47,5.38-.1,10.78-2.46,4-2.34-2.68-2.21-22-.45-24.19-4.05c-1.33-2.24,1.35,0,5.39-1.24s2.7-1.18-4-2.18S176,191.68,176,189.42s5.38,1,6.72,1,0-4.52,1.38-4.54,6.69,4.38,10.73,4.31-1.32-3.37-1.32-4.49,5.37,2.15,10.76.92-5.38-1-12.07-5.42-14.19-8.95-16.07-12.11c-1.33-2.23,8.85,2.09,10.75,2q4-.07-8-10c-8-6.62-5.31-10.06-1.3-6.75s2.69,0,0-3.39-5.33-7.8-4-7.82,4.21,1.6,0-4.52C168.26,130.85,169.72,113.88,168.35,117.29Z"/><path class="cls-5" d="M75.94,114.61s1.25,14.65-2.8,17c0,0,6.72,1-6.83,15.94,5.4-2.36,5.42-5.75,5.4-2.36s-5.43,8-4.09,8,4.07-4.59,4.07-4.59,9.35,10-24.37,24.18c-4,2.34,2.67,3.34,6.71,2.13-2.71,3.44,4-.08,9.43-2.44-1.38,5.67,2.67,4.47,6.72,2.13,1.33,2.23-14.85,7.06-16.21,9.35s11.73-2.16,10.77-1.34c-2.7,2.31-1.37,4.54,6.72,1,2.67,3.34-11.6,17.06-45.88,23.47-6.74,1.26,4.76,4.11,12.1.89,2.7-1.18-14.86,9.32,1.32,4.5,0,0-2.72,3.43,0,2.25s12.14-4.75,10.79-3.59c-3.45,2.94,6.73-1.26,13.48-5.91,0,0,6.75-3.51,5.39-1.23s-12.16,9.27-8.13,9.19,4-.08,1.34,1.1-17.55,9.38-12.16,8.14,8.08-1.28,6.73-.13-4.06,3.47,4-.07,6.73-1.26,4,1.05-21.58,9.45-39.08,12S6.52,242.42,20,242.16s12.11-.23,9.39,4.34S40.14,244,41.48,244s-2.7,2.31,2.69,1.07,17.55-9.37,14.82-3.67-13.51,8.17-9.47,8.09,18.84-1.49,0,6.77-39.1,14.31-32.38,15.31S46,263.71,40,268.88c-5.41,4.62-9.45,4.7-9.45,4.7s4,2.18,9.43-1.31,6.73-1.26,5.38-.11,5.37,2.16,12.12-1.36,6.74-2.39,5.37,1-33.75,18.71-49.89,19c-5.38.1,2.66,4.46,5.36,3.28,0,0-25.64,12.91-16.22,11.6s28.86-9.38,25.58-3.88c-1.36,2.29-1.36,3.42,6.72,1s20-5.23-5.43,8c-6.75,3.52-9.44,4.7-14.83,5.94-1.85.42-4.06,3.46,0,3.38,8.18-.15,18.87-7.13,17.51-4.85-1,1.64-4.81,5.38-1.37,4.54,1.35-.32,8.09-3.82,10.79-4.72,10.79-3.6,14.83-4.8,2.66,4.47,0,0-14.84,7.06-14.85,8.19s4,1.05,6.73-.13c1.34,1.1,6.74-2.39,10.78-3.6S49,325.17,45,328.63s-4.09,9.12,0,5.65C47.65,332,49,330.82,49,332s4,3.31,6.74-2.39,1.35-1.16,2.69-.05,4-3.47,5.41-5.76,4,1.06,5.41-3.49,2.74-7.95,2.72-5.7,2.62,11.25,4,12.35-.16,24.85-.16,24.85l4-.08L80,328s1.34,1.11,8,5.49,2.71-3.44,4.06-4.59,10.72,6.57,12.07,5.41-5.31-10.06-2.62-11.24,9.39,5.47,12.08,5.41,6.72,1,8.07-.15-6.7-4.39-5.35-5.54,22.82,7.46,25.55,1.76-20.71-5.35-22.78-14.24c-1.31-5.62,11.24,6.81,13.43,3.13l1.36-2.28s6.72,1,8.08-.16-25.49-10.8-25.47-14.19,14.75,6.49,16.11,4.21,21.49,5.34,21.53-.42c0-1.13-18.8-5.28-5.33-7.8,4-.74-14.74-8.75-26.86-7.39S99.1,280.16,99.1,279c0-3.39,13.44,2.26,13.46-.26,0-1.13-2.68-2.21,2.7-1.18s9.39,3.2,12.08,3.15c5.38-.1-1.31-4.49,0-4.52,3-.05,17.48,1.26,17.49-.33,0-1.13-42.67-12.87-45.63-17.19-5.33-7.81,8.06,2.1,13.44,2,2.69-.06,0-2.26,4-1.21,3.82,1,8,2.1,9.41-.18,0,0-32.2-12.93-34.85-18.53s10.74,2.05,13.44,2,1.36-2.28,1.36-2.28,6.7,3.26,9.4,2.07-10.73-5.44-2.66-4.46,12.08,3.15,16.13,1.95-5.36-4.42-6.69-6.65,12,1.5,18.84-1.49c2.7-1.18-29.57-2.82-43-10.47s-12.06-7.67-12.06-7.67,5.36,2.15,8.06,2.1-1.34-1.1-1.33-3.36,4,2.18,8.06,2.1l4-.07s-6.7-4.39-6.7-5.52,5.36,3.28,9.4,3.21,0-3.39,4.05-2.34,6.71,2.13,8.06,2.1,0-1.13-2.66-4.46,5.38-.11,10.77-2.47,4.05-2.34-2.67-2.21-22-.45-24.19-4.05c-1.33-2.23,1.35,0,5.39-1.23s2.7-1.18-4-2.18S83.54,189,83.55,186.73s5.37,1,6.72,1,0-4.51,1.37-4.54,6.7,4.39,10.74,4.31-1.33-3.36-1.32-4.49,5.37,2.16,10.76.92-5.38-1-12.08-5.41-14.18-9-16.06-12.11c-1.33-2.24,8.85,2.08,10.75,2.05q4-.08-8-10c-8-6.62-5.32-10.06-1.3-6.75s2.69,0,0-3.39-5.33-7.8-4-7.83,4.22,1.6,0-4.52C75.85,128.16,77.31,111.19,75.94,114.61Z"/><path class="cls-6" d="M200.47,155s1.14,12.38-2.59,14.36c0,0,6.18.84-6.28,13.48,5-2,5-4.86,5-2s-5,6.77-3.76,6.75,3.74-3.89,3.74-3.89,8.59,8.44-22.42,20.46c-3.73,2,2.45,2.82,6.17,1.8-2.5,2.91,3.71-.07,8.67-2.07-1.27,4.79,2.45,3.77,6.17,1.79,1.22,1.89-13.65,6-14.9,7.91s10.78-1.82,9.9-1.13c-2.49,1.95-1.26,3.84,6.18.84,2.45,2.82-10.68,14.43-42.2,19.87-6.19,1.06,4.37,3.47,11.12.75,2.48-1-13.66,7.88,1.21,3.79,0,0-2.5,2.91,0,1.91s11.16-4,9.91-3.05c-3.17,2.5,6.19-1.06,12.41-5,0,0,6.2-3,4.95-1s-11.19,7.84-7.48,7.77,3.71-.07,1.23.93-16.14,7.94-11.18,6.89,7.43-1.09,6.18-.11-3.73,2.93,3.71-.07,6.2-1.07,3.71.89-19.85,8-36,10.2-17.36,6.05-5,5.82,11.13-.2,8.63,3.66,9.91-2.09,11.15-2.11-2.49,1.95,2.46.91,16.14-7.94,13.63-3.12-12.42,6.91-8.71,6.84,17.33-1.27,0,5.73-36,12.12-29.78,13,26.6-6.67,21-2.3c-5,3.91-8.69,4-8.69,4s3.7,1.84,8.67-1.11,6.19-1.07,4.94-.1,4.94,1.82,11.14-1.16,6.2-2,4.94.87-31,15.84-45.88,16.11c-5,.1,2.45,3.78,4.93,2.78,0,0-23.58,10.93-14.92,9.82s26.54-7.95,23.52-3.3c-1.25,1.93-1.25,2.89,6.18.84s18.37-4.44-5,6.78c-6.2,3-8.69,4-13.64,5-1.7.36-3.73,2.93,0,2.86,7.52-.14,17.36-6,16.11-4.11-.9,1.39-4.43,4.55-1.27,3.84,1.24-.28,7.44-3.24,9.92-4,9.92-3.05,13.64-4.07,2.45,3.77,0,0-13.65,6-13.66,6.94s3.7.88,6.19-.12c1.23.93,6.2-2,9.91-3s2.47.9-1.26,3.84-3.77,7.7,0,4.77c2.49-1.95,3.73-2.93,3.73-2s3.68,2.8,6.19-2,1.25-1,2.48-.05,3.73-2.93,5-4.86,3.71.89,5-2.95,2.53-6.73,2.51-4.82,2.4,9.5,3.63,10.43-.16,21-.16,21l3.71-.07.16-20s1.23.93,7.38,4.63,2.5-2.91,3.74-3.88,9.85,5.54,11.1,4.56-4.89-8.5-2.4-9.5,8.62,4.62,11.09,4.57,6.18.84,7.42-.13-6.15-3.71-4.91-4.69,21,6.3,23.49,1.48-19-4.51-20.93-12c-1.2-4.75,10.32,5.75,12.34,2.63L253.6,321s6.18.84,7.43-.14-23.43-9.11-23.41-12,13.56,5.47,14.81,3.54,19.76,4.51,19.79-.36c0-1-17.28-4.46-4.89-6.59,3.64-.63-13.55-7.39-24.69-6.23s-21-4.39-21-5.34c0-2.87,12.35,1.9,12.37-.23,0-.95-2.46-1.86,2.48-1s8.63,2.7,11.11,2.66c4.95-.09-1.21-3.8,0-3.82,2.76-.05,16.07,1.05,16.08-.3,0-.95-39.22-10.84-41.94-14.5-4.9-6.59,7.41,1.78,12.35,1.69,2.48-.05,0-1.91,3.72-1,3.52.84,7.41,1.78,8.66-.16,0,0-29.6-10.91-32-15.63s9.88,1.72,12.35,1.68,1.25-1.93,1.25-1.93,6.17,2.75,8.65,1.75-9.86-4.6-2.45-3.78S245.4,262,249.12,261s-4.92-3.73-6.14-5.62,11.05,1.26,17.32-1.27c2.48-1-27.19-2.36-39.5-8.82s-11.08-6.48-11.08-6.48,4.93,1.82,7.4,1.78-1.23-.93-1.21-2.84,3.69,1.84,7.4,1.77l3.72-.07s-6.16-3.7-6.15-4.66,4.92,2.77,8.63,2.71,0-2.87,3.73-2,6.17,1.79,7.41,1.77,0-1-2.45-3.77,5-.09,9.91-2.09,3.73-2-2.46-1.87-20.26-.36-22.23-3.41c-1.22-1.88,1.23,0,5-1s2.48-1-3.69-1.84-17.28-5.41-17.26-7.32,4.94.86,6.18.84,0-3.82,1.26-3.84,6.16,3.7,9.87,3.63-1.22-2.84-1.21-3.79,4.93,1.82,9.89.77-4.94-.86-11.1-4.57-13-7.56-14.76-10.23c-1.22-1.88,8.13,1.76,9.88,1.73q3.72-.06-7.35-8.45c-7.38-5.6-4.88-8.5-1.2-5.71s2.48,0,0-2.86-4.9-6.59-3.66-6.62,3.87,1.35,0-3.82C200.38,166.42,201.73,152.08,200.47,155Z"/><path class="cls-7" d="M125.56,184.14s1.09,10.92-2.51,12.66c0,0,6,.74-6.08,11.88,4.79-1.77,4.82-4.29,4.79-1.77s-4.83,6-3.64,6,3.62-3.43,3.62-3.43,8.29,7.42-21.66,18c-3.6,1.74,2.36,2.48,6,1.57-2.41,2.57,3.58-.06,8.38-1.82-1.24,4.22,2.36,3.32,6,1.57,1.18,1.66-13.18,5.28-14.39,7s10.41-1.62,9.56-1c-2.4,1.73-1.22,3.39,6,.74,2.36,2.48-10.32,12.72-40.77,17.53-6,1,4.22,3.06,10.74.66,2.4-.89-13.2,7,1.16,3.34,0,0-2.41,2.57,0,1.68s10.78-3.55,9.58-2.69c-3.07,2.2,6-.94,12-4.41,0,0,6-2.63,4.79-.93s-10.82,6.92-7.23,6.86,3.58-.07,1.18.82-15.59,7-10.8,6.07,7.17-1,6-.1-3.6,2.58,3.59-.07,6-.94,3.57.78-19.17,7.07-34.72,9-16.76,5.34-4.82,5.13S86.46,279,84,282.42s9.57-1.85,10.76-1.87-2.4,1.72,2.39.8,15.59-7,13.16-2.76-12,6.1-8.42,6,16.73-1.14,0,5-34.74,10.7-28.77,11.44,25.7-5.89,20.32-2c-4.81,3.45-8.39,3.51-8.39,3.51s3.56,1.62,8.37-1,6-1,4.77-.09,4.76,1.6,10.76-1,6-1.78,4.77.76-30,14-44.32,14.23c-4.78.09,2.36,3.32,4.76,2.44,0,0-22.78,9.65-14.42,8.66s25.64-7,22.72-2.92c-1.21,1.7-1.22,2.55,6,.74s17.74-3.93-4.84,6c-6,2.63-8.39,3.51-13.17,4.43-1.65.32-3.61,2.59,0,2.53,7.27-.13,16.77-5.34,15.56-3.64-.87,1.23-4.28,4-1.22,3.39,1.19-.25,7.18-2.86,9.58-3.54,9.58-2.69,13.17-3.59,2.36,3.33,0,0-13.19,5.27-13.19,6.12s3.57.77,6-.11c1.19.82,6-1.79,9.58-2.69s2.38.8-1.23,3.38-3.64,6.8,0,4.21c2.41-1.72,3.61-2.59,3.6-1.75s3.56,2.47,6-1.78,1.2-.86,2.39,0,3.61-2.59,4.82-4.29,3.57.78,4.8-2.61,2.44-5.93,2.42-4.25,2.32,8.37,3.5,9.19-.17,18.5-.17,18.5l3.58-.06.17-17.66s1.18.82,7.12,4.08,2.42-2.57,3.62-3.43,9.51,4.88,10.71,4-4.71-7.49-2.31-8.37,8.32,4.06,10.71,4,6,.73,7.17-.13-5.94-3.26-4.74-4.12,20.25,5.53,22.68,1.28-18.38-4-20.21-10.57c-1.15-4.19,10,5.06,11.92,2.31l1.21-1.7s6,.73,7.17-.13-22.62-8-22.59-10.53,13.09,4.81,14.3,3.11,19.07,3.95,19.11-.34c0-.84-16.68-3.91-4.72-5.8,3.52-.56-13.08-6.5-23.84-5.47s-20.26-3.85-20.25-4.69c0-2.52,11.92,1.67,11.94-.21,0-.84-2.37-1.64,2.4-.88s8.33,2.37,10.72,2.33c4.78-.08-1.16-3.34,0-3.36,2.67-.05,15.52.92,15.53-.27,0-.84-37.86-9.53-40.48-12.75-4.73-5.8,7.15,1.56,11.92,1.47,2.39,0,0-1.68,3.6-.9,3.39.74,7.15,1.56,8.36-.15,0,0-28.58-9.59-30.93-13.75s9.54,1.51,11.93,1.47,1.21-1.7,1.21-1.7,5.95,2.42,8.35,1.54-9.52-4-2.36-3.33,10.73,2.34,14.32,1.43-4.75-3.28-5.93-4.94,10.67,1.1,16.73-1.13c2.4-.89-26.25-2.06-38.14-7.74s-10.7-5.7-10.7-5.7,4.77,1.6,7.16,1.56-1.19-.82-1.18-2.51,3.57,1.62,7.16,1.56l3.58-.06s-5.94-3.26-5.93-4.1,4.75,2.44,8.33,2.37,0-2.52,3.6-1.74,6,1.57,7.15,1.55,0-.84-2.35-3.32,4.77-.08,9.57-1.85,3.6-1.74-2.38-1.64-19.56-.31-21.47-3c-1.17-1.66,1.2,0,4.79-.92s2.4-.88-3.57-1.62-16.67-4.75-16.66-6.43,4.77.75,6,.73,0-3.36,1.22-3.38,5.94,3.26,9.53,3.19-1.17-2.5-1.17-3.34,4.77,1.6,9.55.67-4.77-.75-10.71-4-12.58-6.65-14.25-9c-1.18-1.66,7.85,1.54,9.54,1.51q3.58-.06-7.09-7.44c-7.12-4.92-4.71-7.49-1.15-5s2.39,0,0-2.52-4.72-5.81-3.53-5.83,3.74,1.19,0-3.36C125.46,194.24,126.77,181.6,125.56,184.14Z"/><path class="cls-6" d="M496.82,146.34s1,12.94-2.2,15c0,0,5.31.89-5.38,14.07,4.26-2.08,4.28-5.07,4.26-2.08s-4.28,7.07-3.22,7,3.21-4.06,3.21-4.06,7.4,8.83-19.23,21.34c-3.2,2.06,2.11,3,5.3,1.88-2.13,3,3.19-.06,7.45-2.14-1.08,5,2.11,3.94,5.31,1.88,1.05,2-11.72,6.23-12.79,8.24s9.26-1.89,8.5-1.17c-2.13,2-1.08,4,5.31.89,2.11,2.95-9.15,15-36.23,20.68-5.32,1.11,3.77,3.64,9.56.81,2.13-1-11.73,8.21,1.05,4,0,0-2.14,3,0,2s9.58-4.19,8.51-3.17c-2.72,2.6,5.32-1.1,10.66-5.2,0,0,5.32-3.1,4.25-1.09s-9.6,8.18-6.41,8.11,3.19-.06,1,1-13.85,8.26-9.59,7.17,6.38-1.12,5.31-.1-3.2,3.05,3.19-.07,5.32-1.11,3.18.93-17,8.33-30.87,10.61-14.9,6.28-4.28,6.07,9.57-.2,7.42,3.83,8.52-2.17,9.58-2.19-2.14,2,2.12,1,13.85-8.26,11.71-3.23-10.67,7.19-7.48,7.13,14.89-1.3,0,6S445.16,284,450.46,284.9s22.86-6.92,18.08-2.37c-4.27,4.08-7.46,4.15-7.46,4.15s3.18,1.93,7.45-1.15,5.32-1.11,4.25-.09,4.24,1.91,9.57-1.19,5.32-2.11,4.24.91S460,301.66,447.2,301.92c-4.26.08,2.1,3.94,4.23,2.9,0,0-20.24,11.39-12.8,10.24s22.79-8.26,20.21-3.41c-1.07,2-1.08,3,5.31.89s15.78-4.61-4.29,7.07c-5.32,3.1-7.46,4.14-11.71,5.22-1.46.37-3.2,3.06,0,3,6.47-.13,14.91-6.28,13.84-4.27-.77,1.45-3.8,4.75-1.08,4,1.06-.28,6.38-3.36,8.52-4.16,8.52-3.16,11.71-4.23,2.11,4,0,0-11.72,6.22-11.73,7.22s3.19.93,5.32-.11c1.05,1,5.32-2.11,8.51-3.17s2.12,1-1.08,4-3.23,8.05,0,5c2.13-2,3.2-3.06,3.19-2.06s3.18,2.93,5.33-2.1,1.07-1,2.12-.05,3.21-3.05,4.28-5.07,3.18.93,4.26-3.08,2.16-7,2.15-5,2.08,9.93,3.14,10.91-.11,21.94-.11,21.94l3.19-.07.1-20.94s1.06,1,6.36,4.85,2.14-3,3.2-4,8.48,5.81,9.54,4.79-4.2-8.89-2.07-9.93,7.41,4.84,9.54,4.79,5.31.89,6.37-.13-5.29-3.88-4.22-4.9,18,6.61,20.18,1.58-16.36-4.74-18-12.59c-1-5,8.88,6,10.61,2.77l1.07-2s5.31.89,6.38-.13S529,310.22,529,307.22,540.66,313,541.73,311s17,4.74,17-.34c0-1-14.86-4.69-4.22-6.9,3.13-.65-11.65-7.74-21.22-6.54s-18-4.62-18-5.62c0-3,10.61,2,10.62-.22,0-1-2.11-1.95,2.14-1s7.42,2.84,9.55,2.8c4.25-.09-1.05-4,0-4,2.37-.05,13.8,1.13,13.81-.28,0-1-33.72-11.4-36.06-15.22-4.22-6.89,6.37,1.86,10.62,1.78,2.13-.05,0-2,3.19-1.06,3,.88,6.37,1.86,7.44-.16,0,0-25.45-11.44-27.55-16.39s8.49,1.83,10.62,1.78,1.07-2,1.07-2,5.3,2.88,7.43,1.84-8.48-4.81-2.1-3.95,9.55,2.8,12.74,1.74-4.23-3.91-5.29-5.88,9.5,1.33,14.89-1.3c2.13-1-23.37-2.51-34-9.28s-9.53-6.78-9.53-6.78,4.24,1.9,6.36,1.86-1.06-1-1-3,3.18,1.93,6.37,1.87l3.19-.07s-5.3-3.88-5.29-4.88,4.24,2.91,7.42,2.84,0-3,3.2-2.06,5.31,1.89,6.37,1.87,0-1-2.11-3.95,4.25-.09,8.51-2.17,3.2-2.06-2.11-2-17.41-.42-19.11-3.6c-1.06-2,1.06,0,4.25-1.08s2.13-1-3.18-1.93S502.88,212,502.89,210s4.25.91,5.31.88,0-4,1.08-4,5.3,3.88,8.49,3.82-1-3-1-4,4.25,1.91,8.5.83-4.24-.92-9.54-4.8-11.21-7.91-12.7-10.7c-1.05-2,7,1.85,8.49,1.82q3.19-.07-6.33-8.85c-6.35-5.85-4.21-8.89-1-6s2.13,0,0-3-4.22-6.9-3.16-6.92,3.33,1.42,0-4C496.76,158.31,497.9,143.33,496.82,146.34Z"/><path class="cls-6" d="M348.7,140.83s1.41,13.54-3.26,15.71c0,0,7.74.91-7.89,14.74,6.21-2.2,6.25-5.33,6.21-2.2s-6.27,7.41-4.72,7.39,4.69-4.26,4.69-4.26,10.75,9.21-28.11,22.39c-4.67,2.17,3.07,3.08,7.73,2-3.13,3.19,4.65-.08,10.86-2.27-1.6,5.24,3.06,4.12,7.73,2,1.53,2.06-17.11,6.55-18.68,8.66s13.51-2,12.41-1.26c-3.12,2.14-1.59,4.2,7.74.92,3.06,3.07-13.4,15.78-52.9,21.77-7.75,1.17,5.48,3.78,13.94.8,3.11-1.1-17.13,8.64,1.51,4.15,0,0-3.14,3.18,0,2.08s14-4.41,12.43-3.34c-4,2.73,7.76-1.18,15.55-5.48,0,0,7.78-3.27,6.21-1.15s-14,8.58-9.38,8.5,4.64-.08,1.53,1-20.22,8.69-14,7.54,9.3-1.2,7.74-.13-4.68,3.21,4.65-.08,7.76-1.18,4.64,1-24.88,8.78-45,11.21S268.49,259,284,258.77s13.94-.23,10.8,4,12.42-2.3,14-2.32-3.12,2.14,3.09,1,20.22-8.7,17.07-3.43-15.57,7.57-10.92,7.49,21.7-1.41-.06,6.26S272.88,285,280.62,286,314,278.63,307,283.42c-6.24,4.27-10.89,4.35-10.89,4.35s4.63,2,10.85-1.22,7.76-1.18,6.2-.11,6.18,2,14-1.28,7.77-2.22,6.19.93-38.91,17.36-57.5,17.68c-6.2.11,3,4.12,6.16,3,0,0-29.55,12-18.69,10.76s33.25-8.73,29.47-3.64c-1.57,2.11-1.59,3.16,7.73.91s23-4.87-6.27,7.41c-7.78,3.26-10.89,4.36-17.1,5.51-2.13.39-4.68,3.21,0,3.13,9.43-.16,21.76-6.63,20.19-4.52-1.13,1.52-5.55,5-1.59,4.2,1.55-.3,9.31-3.55,12.43-4.39,12.43-3.34,17.09-4.46,3.06,4.12,0,0-17.11,6.56-17.12,7.6s4.64,1,7.75-.13c1.54,1,7.77-2.22,12.43-3.35s3.08,1-1.6,4.2-4.73,8.43-.05,5.22c3.12-2.14,4.68-3.21,4.67-2.17s4.62,3.05,7.77-2.21,1.56-1.07,3.1-.06,4.68-3.21,6.25-5.32,4.64,1,6.23-3.24,3.17-7.35,3.15-5.27,3,10.38,4.53,11.4S348,359.9,348,359.9l4.65-.08.22-21.91s1.54,1,9.24,5.06,3.13-3.18,4.69-4.25,12.34,6,13.9,5-6.11-9.28-3-10.38,10.8,5,13.89,5,7.74.91,9.3-.16-7.7-4-6.14-5.11,26.26,6.85,29.41,1.58-23.83-4.9-26.2-13.11c-1.5-5.19,12.93,6.27,15.46,2.87l1.57-2.12s7.74.91,9.3-.16S395,312.16,395,309s17,6,18.55,3.85,24.74,4.89,24.79-.43c0-1-21.64-4.84-6.12-7.19,4.56-.69-17-8.06-30.92-6.77s-26.29-4.77-26.27-5.81c0-3.13,15.47,2.07,15.49-.27,0-1-3.08-2,3.11-1.09s10.81,2.94,13.91,2.89c6.2-.11-1.51-4.15,0-4.18,3.47-.06,20.13,1.13,20.15-.34,0-1.05-49.12-11.8-52.51-15.79-6.13-7.2,9.27,1.93,15.47,1.82,3.1-.05,0-2.09,4.66-1.12,4.4.91,9.27,1.92,10.84-.19,0,0-37.06-11.88-40.1-17s12.37,1.87,15.47,1.82,1.57-2.12,1.57-2.12,7.72,3,10.83,1.9-12.35-5-3.06-4.12,13.91,2.89,18.57,1.77-6.15-4.07-7.68-6.13,13.83,1.36,21.7-1.41c3.11-1.1-34.06-2.55-49.48-9.58s-13.87-7.07-13.87-7.07,6.18,2,9.28,1.93-1.54-1-1.52-3.1,4.63,2,9.28,1.92l4.64-.08s-7.7-4-7.69-5.08,6.17,3,10.81,2.94,0-3.13,4.67-2.16,7.73,1.95,9.28,1.92,0-1-3.06-4.12,6.2-.1,12.42-2.3,4.67-2.16-3.08-2-25.38-.37-27.85-3.69c-1.52-2.06,1.55,0,6.21-1.15s3.11-1.1-4.62-2-21.63-5.89-21.61-8,6.19.93,7.73.91.05-4.18,1.6-4.2,7.7,4,12.35,4-1.52-3.11-1.51-4.15,6.18,2,12.39.83-6.19-.94-13.89-5-16.32-8.24-18.48-11.15c-1.53-2.06,10.18,1.91,12.37,1.87q4.65-.07-9.2-9.23c-9.23-6.1-6.1-9.28-1.49-6.23s3.1-.06,0-3.13-6.13-7.2-4.58-7.23,4.85,1.48,0-4.17C348.57,153.35,350.28,137.68,348.7,140.83Z"/><path class="cls-7" d="M283.82,155.6s1,12.94-2.19,15c0,0,5.31.89-5.38,14.07,4.26-2.08,4.27-5.07,4.26-2.08s-4.29,7.07-3.22,7,3.2-4.06,3.2-4.06,7.4,8.82-19.23,21.34c-3.2,2.06,2.11,2.94,5.31,1.88-2.14,3,3.19-.06,7.45-2.15-1.09,5,2.1,3.95,5.3,1.89,1.05,2-11.72,6.22-12.79,8.24s9.26-1.89,8.51-1.17c-2.14,2-1.09,4,5.31.89,2.11,2.95-9.15,15.05-36.23,20.68-5.32,1.11,3.76,3.63,9.56.8,2.13-1-11.73,8.22,1,4,0,0-2.14,3,0,2s9.58-4.18,8.52-3.16c-2.73,2.6,5.31-1.11,10.65-5.2,0,0,5.33-3.11,4.25-1.09s-9.6,8.17-6.41,8.11,3.19-.07,1.06,1-13.86,8.26-9.6,7.17,6.38-1.13,5.31-.11-3.2,3.06,3.19-.06,5.32-1.11,3.18.93-17,8.33-30.86,10.6-14.91,6.29-4.28,6.07,9.56-.19,7.42,3.84,8.51-2.17,9.57-2.19-2.13,2,2.12.95,13.86-8.26,11.71-3.23-10.66,7.2-7.48,7.14,14.89-1.31,0,6-30.88,12.6-25.57,13.49,22.85-6.93,18.07-2.37c-4.27,4.08-7.45,4.14-7.45,4.14s3.17,1.93,7.44-1.15,5.32-1.1,4.25-.08,4.24,1.9,9.57-1.2,5.32-2.1,4.25.91-26.65,16.5-39.4,16.76c-4.25.09,2.1,3.95,4.23,2.91,0,0-20.24,11.38-12.8,10.23s22.79-8.26,20.21-3.4c-1.07,2-1.08,3,5.31.89s15.78-4.61-4.28,7.06c-5.33,3.1-7.46,4.15-11.72,5.23-1.46.37-3.2,3.06,0,3,6.46-.13,14.9-6.29,13.83-4.27-.77,1.45-3.79,4.75-1.08,4,1.06-.29,6.38-3.37,8.52-4.16,8.52-3.17,11.71-4.23,2.11,3.94,0,0-11.72,6.23-11.73,7.22s3.19.94,5.32-.11c1.06,1,5.32-2.1,8.51-3.16s2.13.95-1.08,4-3.22,8,0,5c2.13-2,3.2-3.06,3.2-2.06s3.17,2.92,5.32-2.11,1.07-1,2.13,0,3.2-3.06,4.27-5.07,3.18.93,4.27-3.08,2.16-7,2.15-5,2.07,9.93,3.13,10.9-.1,21.94-.1,21.94l3.19-.06.1-20.95s1.05,1,6.35,4.86,2.14-3,3.21-4.05,8.47,5.81,9.54,4.79-4.21-8.89-2.08-9.93,7.41,4.83,9.54,4.79,5.31.89,6.38-.13-5.3-3.88-4.23-4.9,18,6.61,20.18,1.58-16.36-4.75-18-12.59c-1-5,8.88,6,10.61,2.77l1.07-2s5.31.89,6.38-.13S316,319.47,316,316.48s11.66,5.75,12.73,3.73,17,4.74,17-.35c0-1-14.86-4.68-4.22-6.89,3.13-.65-11.65-7.74-21.22-6.55s-18.05-4.61-18-5.61c0-3,10.62,2,10.63-.22,0-1-2.12-1.95,2.13-1s7.42,2.84,9.55,2.8c4.25-.09-1.05-4,0-4,2.37-.05,13.81,1.12,13.81-.29,0-1-33.72-11.39-36.06-15.21-4.21-6.9,6.37,1.86,10.62,1.77,2.13,0,0-2,3.2-1.06,3,.89,6.36,1.87,7.44-.15,0,0-25.45-11.45-27.56-16.39s8.5,1.82,10.62,1.78,1.07-2,1.07-2,5.3,2.89,7.43,1.84-8.47-4.81-2.1-3.94,9.55,2.8,12.74,1.73-4.23-3.9-5.28-5.87,9.49,1.33,14.88-1.3c2.13-1-23.37-2.52-34-9.28s-9.53-6.79-9.53-6.79,4.24,1.91,6.36,1.87-1-1-1-3,3.17,1.93,6.36,1.86l3.19-.06s-5.29-3.88-5.29-4.88,4.24,2.9,7.43,2.84,0-3,3.19-2.06,5.31,1.88,6.37,1.86,0-1-2.1-3.94,4.25-.09,8.51-2.17,3.19-2.06-2.12-1.95-17.41-.42-19.11-3.6c-1.05-2,1.06,0,4.26-1.08s2.13-1-3.18-1.93-14.85-5.68-14.84-7.68,4.24.91,5.31.89,0-4,1.08-4,5.29,3.88,8.48,3.82-1-3-1-4,4.24,1.91,8.49.82-4.24-.91-9.54-4.79-11.21-7.92-12.7-10.71c-1.05-2,7,1.85,8.49,1.82q3.19-.06-6.33-8.84c-6.35-5.86-4.21-8.89-1-6s2.12-.05,0-3-4.22-6.89-3.15-6.91,3.32,1.42,0-4C283.77,167.57,284.9,152.58,283.82,155.6Z"/><path class="cls-6" d="M673.72,150.9s1,12.95-2.2,15c0,0,5.31.89-5.38,14.07,4.26-2.08,4.28-5.08,4.26-2.08s-4.28,7.06-3.22,7,3.21-4.05,3.21-4.05,7.39,8.82-19.23,21.33c-3.2,2.06,2.11,2.95,5.3,1.89-2.14,3,3.19-.07,7.45-2.15-1.09,5,2.11,3.95,5.31,1.89,1,2-11.72,6.22-12.8,8.24s9.27-1.9,8.51-1.18c-2.13,2-1.08,4,5.31.89,2.11,2.95-9.15,15.06-36.23,20.69-5.32,1.1,3.76,3.63,9.56.8,2.13-1-11.73,8.22,1,4,0,0-2.14,3,0,2s9.59-4.18,8.52-3.17c-2.72,2.6,5.32-1.1,10.65-5.2,0,0,5.33-3.1,4.26-1.08s-9.6,8.17-6.42,8.11,3.19-.07,1.06,1-13.85,8.26-9.6,7.18,6.38-1.13,5.32-.11-3.21,3.06,3.19-.07,5.31-1.1,3.18.94-17,8.32-30.87,10.6-14.91,6.29-4.28,6.07,9.57-.2,7.42,3.84,8.51-2.17,9.58-2.19-2.14,2,2.12.95,13.85-8.26,11.7-3.23-10.66,7.2-7.47,7.13,14.88-1.3,0,6-30.88,12.59-25.57,13.48,22.85-6.92,18.08-2.36c-4.27,4.07-7.46,4.14-7.46,4.14s3.18,1.93,7.44-1.15,5.32-1.11,4.26-.09,4.24,1.91,9.57-1.19,5.32-2.1,4.24.91-26.64,16.5-39.4,16.76c-4.25.09,2.11,3.95,4.24,2.9,0,0-20.25,11.39-12.8,10.24s22.79-8.26,20.21-3.41c-1.08,2-1.08,3,5.3.89s15.78-4.6-4.28,7.07c-5.33,3.1-7.46,4.14-11.71,5.23-1.46.37-3.21,3.05,0,3,6.47-.14,14.91-6.29,13.84-4.27-.77,1.44-3.8,4.74-1.09,4,1.07-.29,6.39-3.37,8.53-4.17,8.51-3.16,11.71-4.22,2.1,4,0,0-11.72,6.22-11.72,7.22s3.18.93,5.31-.11c1.06,1,5.33-2.1,8.52-3.17s2.12,1-1.08,4-3.23,8,0,5c2.14-2,3.21-3.06,3.2-2.06s3.18,2.93,5.33-2.1,1.06-1,2.12,0,3.2-3.06,4.28-5.08,3.18.93,4.26-3.08,2.16-7,2.15-5,2.08,9.93,3.14,10.91-.11,21.94-.11,21.94l3.19-.07.1-20.94s1.06,1,6.35,4.86,2.14-3,3.21-4.06,8.47,5.81,9.54,4.79S692,336,694.09,335s7.42,4.84,9.54,4.79,5.31.89,6.38-.13-5.29-3.88-4.23-4.9,18,6.62,20.19,1.59-16.36-4.75-18-12.6c-1-5,8.89,6,10.62,2.78l1.07-2s5.31.89,6.37-.13-20.14-9.56-20.13-12.55,11.67,5.74,12.74,3.73,17,4.73,17-.35c0-1-14.85-4.68-4.22-6.9,3.13-.65-11.65-7.74-21.22-6.54s-18-4.62-18-5.62c0-3,10.62,2,10.63-.21,0-1-2.11-1.95,2.13-1s7.43,2.84,9.55,2.79c4.25-.09-1-4,0-4,2.38-.05,13.81,1.13,13.82-.28,0-1-33.72-11.39-36.06-15.22-4.22-6.89,6.37,1.87,10.62,1.78,2.12,0,0-2,3.19-1.06,3,.88,6.37,1.86,7.44-.15,0,0-25.45-11.45-27.55-16.39s8.49,1.82,10.62,1.77,1.07-2,1.07-2,5.3,2.88,7.43,1.84-8.48-4.81-2.11-3.95,9.55,2.8,12.75,1.74-4.24-3.9-5.29-5.88,9.5,1.33,14.89-1.3c2.13-1-23.37-2.51-34-9.28s-9.53-6.78-9.53-6.78,4.24,1.91,6.37,1.86-1.06-1-1-3,3.18,1.93,6.37,1.87l3.19-.07s-5.3-3.88-5.29-4.88,4.23,2.91,7.42,2.84,0-3,3.2-2.06,5.3,1.89,6.37,1.87,0-1-2.11-3.95,4.25-.08,8.51-2.17,3.2-2.05-2.11-2-17.42-.41-19.12-3.59c-1-2,1.07,0,4.26-1.09s2.13-1-3.18-1.93-14.85-5.68-14.84-7.67,4.25.91,5.31.89,0-4,1.08-4,5.3,3.88,8.48,3.81-1-3-1-4,4.24,1.91,8.5.83-4.25-.91-9.54-4.79-11.21-7.92-12.7-10.71c-1.06-2,7,1.85,8.49,1.82q3.18-.06-6.33-8.85c-6.35-5.85-4.21-8.88-1-6s2.13,0,0-3-4.22-6.89-3.16-6.92,3.33,1.42,0-4C673.66,162.87,674.8,147.89,673.72,150.9Z"/><path class="cls-7" d="M852,179.67s.93,11.11-2.08,12.88c0,0,5,.76-5.09,12.08,4-1.79,4-4.36,4-1.79s-4,6.07-3,6,3-3.48,3-3.48,7,7.57-18.15,18.33c-3,1.77,2,2.53,5,1.62-2,2.6,3-.06,7-1.85-1,4.3,2,3.38,5,1.61,1,1.69-11,5.35-12.07,7.08s8.74-1.63,8-1c-2,1.75-1,3.45,5,.76,2,2.53-8.64,12.93-34.18,17.79-5,.95,3.55,3.11,9,.68,2-.9-11.07,7.06,1,3.4,0,0-2,2.61,0,1.71s9-3.6,8-2.72c-2.57,2.23,5-.95,10-4.48,0,0,5-2.66,4-.93s-9.06,7-6,7,3-.06,1,.83-13.07,7.11-9.06,6.17,6-1,5-.1-3,2.63,3,0,5-1,3,.79-16.08,7.16-29.12,9.13-14.06,5.41-4,5.21,9-.17,7,3.29,8-1.87,9-1.89-2,1.76,2,.82,13.07-7.1,11-2.78-10.06,6.19-7.06,6.13,14-1.13,0,5.14-29.12,10.83-24.12,11.59,21.56-6,17.05-2c-4,3.5-7,3.56-7,3.56s3,1.65,7-1,5-1,4-.08,4,1.63,9-1,5-1.81,4,.78S817.07,313,805.05,313.26c-4,.08,2,3.39,4,2.49,0,0-19.1,9.79-12.08,8.8s21.5-7.11,19.06-2.94c-1,1.73-1,2.59,5,.76s14.88-4-4,6.07c-5,2.67-7,3.56-11.05,4.5-1.38.32-3,2.62,0,2.56,6.1-.11,14.07-5.4,13.05-3.67-.72,1.24-3.58,4.07-1,3.44,1-.25,6-2.9,8-3.58,8-2.72,11-3.64,2,3.39,0,0-11.05,5.35-11.06,6.2s3,.8,5-.09c1,.83,5-1.81,8-2.73s2,.82-1,3.45-3,6.9,0,4.28c2-1.75,3-2.63,3-1.77s3,2.51,5-1.81,1-.88,2,0,3-2.63,4-4.36,3,.8,4-2.65,2-6,2-4.32,2,8.53,3,9.36-.12,18.84-.12,18.84l3-.06.11-18s1,.84,6,4.16,2-2.6,3-3.48,8,5,9,4.11-4-7.63-2-8.53,7,4.15,9,4.11,5,.76,6-.12-5-3.32-4-4.2,17,5.66,19,1.34-15.43-4.06-17-10.8c-1-4.26,8.37,5.17,10,2.38l1-1.73s5,.76,6-.12-19-8.19-19-10.76,11,4.92,12,3.19,16,4.05,16-.31c0-.86-14-4-4-5.92,3-.56-11-6.63-20-5.6s-17-3.95-17-4.81c0-2.56,10,1.72,10-.19,0-.86-2-1.67,2-.9s7,2.44,9,2.4c4-.08-1-3.41,0-3.43,2.24,0,13,1,13-.25,0-.86-31.79-9.75-34-13-4-5.91,6,1.6,10,1.52,2,0,0-1.71,3-.91s6,1.59,7-.14c0,0-24-9.81-26-14.05s8,1.56,10,1.52,1-1.73,1-1.73,5,2.47,7,1.57-8-4.12-2-3.38,9,2.39,12,1.48-4-3.35-5-5,8.95,1.13,14-1.13c2-.9-22-2.14-32-7.94s-9-5.82-9-5.82,4,1.64,6,1.6-1-.84-1-2.55,3,1.65,6,1.6l3-.06s-5-3.33-5-4.19,4,2.49,7,2.44,0-2.57,3-1.77,5,1.61,6,1.59,0-.86-2-3.38,4-.08,8-1.87,3-1.77-2-1.68-16.42-.34-18-3.07c-1-1.69,1,0,4-.93s2-.9-3-1.66-14-4.86-14-6.58,4,.78,5,.76,0-3.42,1-3.44,5,3.33,8,3.27-1-2.55-1-3.41,4,1.64,8,.7-4-.77-9-4.1-10.57-6.79-12-9.19c-1-1.69,6.59,1.59,8,1.56q3-.06-6-7.59c-6-5-4-7.62-1-5.11s2,0,0-2.57-4-5.92-3-5.94,3.13,1.22,0-3.42C851.9,189.94,853,177.08,852,179.67Z"/><path class="cls-6" d="M934.21,166.68s1,11.75-2.15,13.62c0,0,5.18.8-5.25,12.78,4.15-1.9,4.17-4.61,4.15-1.9s-4.18,6.42-3.14,6.4S931,193.9,931,193.9s7.2,8-18.76,19.38c-3.12,1.87,2.06,2.68,5.17,1.71-2.09,2.76,3.11-.06,7.26-2-1.06,4.54,2,3.58,5.17,1.71,1,1.79-11.43,5.65-12.47,7.48s9-1.72,8.29-1.06c-2.08,1.85-1.06,3.64,5.18.8,2.05,2.68-8.93,13.67-35.33,18.8-5.19,1,3.67,3.3,9.32.72,2.07-.94-11.44,7.47,1,3.61,0,0-2.09,2.75,0,1.81s9.35-3.81,8.3-2.88c-2.65,2.36,5.19-1,10.39-4.73,0,0,5.2-2.82,4.15-1s-9.37,7.43-6.26,7.36,3.11-.06,1,.89-13.51,7.51-9.36,6.52,6.22-1,5.18-.1-3.12,2.78,3.11-.06,5.18-1,3.1.84-16.61,7.57-30.09,9.65-14.54,5.72-4.18,5.51,9.33-.18,7.23,3.48,8.3-2,9.34-2-2.08,1.85,2.06.86,13.51-7.51,11.42-2.94-10.4,6.54-7.29,6.48,14.51-1.19,0,5.44S883.77,291.7,889,292.51s22.27-6.3,17.62-2.16c-4.17,3.7-7.28,3.76-7.28,3.76s3.1,1.75,7.26-1.05,5.19-1,4.14-.08,4.14,1.73,9.33-1.09,5.19-1.91,4.14.83-26,15-38.41,15.24c-4.14.08,2,3.58,4.13,2.63,0,0-19.74,10.35-12.49,9.3s22.22-7.51,19.7-3.1c-1,1.83-1.05,2.74,5.18.8s15.38-4.19-4.18,6.42c-5.2,2.82-7.28,3.77-11.42,4.75-1.43.34-3.13,2.78,0,2.72,6.3-.12,14.53-5.72,13.49-3.89-.75,1.32-3.7,4.32-1.06,3.65,1-.27,6.23-3.07,8.31-3.79,8.3-2.88,11.41-3.84,2.05,3.58,0,0-11.43,5.66-11.43,6.57s3.1.84,5.18-.11c1,.89,5.19-1.91,8.3-2.88s2.07.87-1.06,3.65-3.15,7.3,0,4.52c2.08-1.85,3.12-2.77,3.12-1.87s3.09,2.66,5.19-1.91,1-.93,2.07,0,3.12-2.78,4.17-4.61,3.1.84,4.16-2.8,2.11-6.38,2.09-4.57,2,9,3,9.9-.11,19.92-.11,19.92l3.11-.06.11-19s1,.88,6.19,4.4,2.08-2.75,3.13-3.68,8.25,5.27,9.29,4.34-4.09-8.06-2-9,7.23,4.38,9.3,4.34,5.17.81,6.22-.12-5.16-3.52-4.12-4.44,17.57,6,19.67,1.42-15.95-4.3-17.54-11.43c-1-4.5,8.65,5.47,10.34,2.52l1-1.83s5.17.8,6.21-.13-19.63-8.66-19.61-11.38,11.36,5.21,12.41,3.38,16.55,4.29,16.57-.33c0-.9-14.47-4.24-4.1-6.26,3-.59-11.36-7-20.69-5.93s-17.58-4.18-17.58-5.08c0-2.72,10.35,1.82,10.36-.21,0-.9-2.06-1.77,2.08-.94s7.24,2.57,9.31,2.53c4.14-.08-1-3.6,0-3.62,2.32,0,13.46,1,13.47-.27,0-.9-32.86-10.32-35.14-13.79-4.11-6.26,6.2,1.69,10.35,1.61,2.07,0,0-1.81,3.11-1,2.94.8,6.21,1.69,7.25-.14,0,0-24.8-10.38-26.84-14.87s8.27,1.65,10.35,1.61,1-1.83,1-1.83,5.17,2.61,7.24,1.67-8.26-4.37-2.05-3.58,9.31,2.53,12.42,1.56-4.12-3.54-5.15-5.33,9.26,1.21,14.51-1.19c2.08-.94-22.77-2.27-33.09-8.4s-9.29-6.16-9.29-6.16,4.13,1.73,6.2,1.69-1-.88-1-2.69,3.1,1.75,6.21,1.68l3.11-.06s-5.16-3.52-5.16-4.42,4.13,2.63,7.24,2.57,0-2.71,3.12-1.87,5.17,1.71,6.2,1.69,0-.91-2.05-3.58,4.14-.08,8.3-2,3.12-1.87-2.06-1.77-17-.36-18.63-3.25c-1-1.79,1,0,4.15-1s2.08-.94-3.1-1.75-14.47-5.15-14.46-7,4.14.83,5.18.81,0-3.63,1.05-3.65,5.16,3.52,8.27,3.46-1-2.69-1-3.6,4.13,1.73,8.28.74-4.14-.82-9.3-4.34-10.92-7.18-12.37-9.72c-1-1.79,6.81,1.68,8.27,1.65q3.12-.06-6.16-8c-6.19-5.32-4.1-8.07-1-5.42s2.07,0,0-2.71-4.11-6.26-3.07-6.28,3.24,1.29,0-3.62C934.15,177.54,935.26,163.94,934.21,166.68Z"/><path class="cls-7" d="M429.82,168.82s1,12.14-2.2,14.08c0,0,5.29.83-5.36,13.2,4.24-1.95,4.26-4.76,4.24-1.95s-4.27,6.63-3.21,6.61,3.19-3.81,3.19-3.81,7.36,8.28-19.15,20c-3.19,1.93,2.1,2.77,5.28,1.77-2.14,2.85,3.17-.07,7.41-2-1.08,4.7,2.1,3.7,5.29,1.77,1,1.85-11.68,5.84-12.75,7.73s9.23-1.78,8.48-1.1c-2.13,1.91-1.08,3.76,5.28.83,2.1,2.77-9.12,14.13-36.08,19.43-5.3,1,3.74,3.4,9.52.74,2.12-1-11.69,7.72,1,3.72,0,0-2.13,2.85,0,1.88s9.55-3.93,8.48-3c-2.71,2.44,5.3-1,10.61-4.89,0,0,5.31-2.91,4.24-1s-9.57,7.68-6.39,7.62,3.17-.07,1,.91-13.8,7.76-9.56,6.74,6.36-1.06,5.29-.11-3.19,2.87,3.18-.06,5.29-1,3.17.87-17,7.82-30.74,10-14.85,5.91-4.27,5.7,9.53-.19,7.39,3.59,8.47-2,9.53-2.06-2.12,1.92,2.11.9,13.8-7.76,11.66-3-10.62,6.76-7.44,6.7,14.82-1.23,0,5.61S378.3,298,383.59,298.85s22.75-6.51,18-2.23c-4.26,3.83-7.43,3.89-7.43,3.89s3.16,1.81,7.41-1.08,5.3-1,4.24-.09,4.22,1.79,9.53-1.12,5.3-2,4.22.85S393,314.56,380.32,314.82c-4.23.08,2.1,3.7,4.22,2.72,0,0-20.16,10.69-12.75,9.61s22.7-7.76,20.12-3.21c-1.07,1.89-1.07,2.83,5.29.83s15.71-4.33-4.27,6.64c-5.31,2.91-7.43,3.89-11.67,4.91-1.45.35-3.19,2.87,0,2.8,6.43-.12,14.84-5.9,13.77-4-.76,1.36-3.78,4.45-1.07,3.76,1.05-.27,6.35-3.16,8.48-3.91,8.48-3,11.66-4,2.1,3.7,0,0-11.67,5.85-11.68,6.78s3.17.88,5.29-.1c1.05.91,5.3-2,8.48-3s2.11.9-1.08,3.77-3.21,7.55,0,4.68c2.12-1.92,3.19-2.87,3.18-1.94s3.16,2.75,5.3-2,1.07-1,2.12,0,3.19-2.87,4.26-4.76,3.17.87,4.25-2.89,2.15-6.59,2.14-4.72,2.07,9.32,3.12,10.23-.12,20.59-.12,20.59l3.18-.07.11-19.65s1.05.92,6.32,4.56,2.13-2.85,3.2-3.81,8.43,5.45,9.49,4.49-4.18-8.34-2.06-9.31,7.38,4.53,9.5,4.49,5.28.83,6.35-.13-5.27-3.64-4.21-4.59,18,6.19,20.1,1.47-16.29-4.45-17.93-11.81c-1-4.66,8.85,5.65,10.57,2.6l1.07-1.89s5.29.83,6.35-.13-20.05-9-20-11.77,11.61,5.39,12.68,3.5,16.9,4.43,16.93-.34c0-.93-14.79-4.38-4.2-6.47,3.12-.61-11.59-7.25-21.12-6.13s-18-4.32-18-5.26c0-2.8,10.57,1.89,10.58-.2,0-.94-2.11-1.83,2.12-1s7.39,2.66,9.51,2.62c4.23-.09-1-3.73,0-3.75,2.37,0,13.75,1.06,13.76-.27,0-.93-33.57-10.67-35.9-14.26-4.19-6.46,6.34,1.75,10.57,1.66,2.12,0,0-1.87,3.18-1,3,.82,6.34,1.74,7.41-.15,0,0-25.33-10.73-27.42-15.36s8.45,1.7,10.57,1.66,1.07-1.89,1.07-1.89,5.27,2.7,7.39,1.72-8.43-4.51-2.09-3.7,9.51,2.62,12.69,1.62-4.21-3.66-5.26-5.51,9.45,1.25,14.82-1.23c2.12-1-23.27-2.34-33.81-8.68s-9.49-6.37-9.49-6.37,4.22,1.79,6.34,1.75-1.05-.92-1-2.79,3.16,1.81,6.34,1.75l3.17-.06s-5.27-3.64-5.26-4.58,4.21,2.73,7.39,2.66,0-2.8,3.18-1.93,5.28,1.77,6.34,1.74,0-.93-2.09-3.7,4.23-.08,8.47-2,3.19-1.94-2.1-1.83-17.34-.39-19-3.37c-1-1.85,1.06,0,4.24-1s2.12-1-3.17-1.81-14.78-5.32-14.77-7.19,4.23.85,5.29.83,0-3.74,1.07-3.76,5.28,3.63,8.45,3.57-1-2.78-1-3.72,4.22,1.79,8.46.77-4.22-.85-9.49-4.49-11.16-7.43-12.65-10c-1-1.85,7,1.73,8.46,1.7q3.18-.06-6.3-8.3c-6.32-5.48-4.19-8.33-1-5.59s2.12,0,0-2.81-4.2-6.46-3.14-6.48,3.31,1.33,0-3.75C429.75,180.05,430.89,166,429.82,168.82Z"/><path class="cls-7" d="M578.47,184.38s1.14,11.2-2.63,13c0,0,6.25.76-6.38,12.2,5-1.82,5-4.4,5-1.82s-5.07,6.13-3.82,6.11,3.79-3.52,3.79-3.52,8.69,7.62-22.71,18.52c-3.77,1.8,2.48,2.55,6.25,1.62-2.53,2.63,3.75-.06,8.78-1.88-1.3,4.34,2.47,3.41,6.24,1.62,1.24,1.71-13.82,5.42-15.09,7.17s10.92-1.67,10-1c-2.52,1.77-1.28,3.47,6.26.75,2.47,2.55-10.82,13.06-42.74,18-6.26,1,4.43,3.13,11.26.67,2.51-.91-13.83,7.14,1.22,3.43,0,0-2.53,2.63,0,1.72s11.3-3.65,10-2.76c-3.21,2.26,6.27-1,12.57-4.53,0,0,6.28-2.7,5-.95s-11.33,7.1-7.58,7,3.76-.06,1.25.84-16.34,7.19-11.33,6.24,7.52-1,6.26-.11-3.78,2.66,3.76-.06,6.26-1,3.74.8-20.09,7.25-36.38,9.26-17.58,5.48-5.06,5.26,11.26-.19,8.73,3.31,10-1.9,11.28-1.93-2.52,1.77,2.5.82,16.34-7.19,13.79-2.83-12.57,6.26-8.82,6.2,17.54-1.17-.05,5.18-36.4,11-30.15,11.74,26.93-6.05,21.3-2.09c-5,3.54-8.8,3.6-8.8,3.6s3.74,1.66,8.77-1,6.27-1,5-.09,5,1.64,11.27-1.06,6.28-1.84,5,.78-31.43,14.35-46.45,14.61c-5,.09,2.47,3.41,5,2.5,0,0-23.88,9.91-15.1,8.9s26.86-7.22,23.81-3c-1.27,1.75-1.28,2.62,6.25.76s18.59-4-5.07,6.13c-6.28,2.7-8.79,3.6-13.81,4.55-1.72.33-3.78,2.66,0,2.59,7.62-.13,17.58-5.48,16.31-3.73-.91,1.25-4.48,4.12-1.28,3.47,1.25-.25,7.53-2.93,10-3.62,10-2.77,13.81-3.7,2.48,3.41,0,0-13.83,5.41-13.83,6.28s3.74.8,6.26-.11c1.24.84,6.27-1.84,10-2.77s2.49.82-1.29,3.48-3.82,7,0,4.32c2.52-1.77,3.78-2.66,3.77-1.8s3.73,2.53,6.28-1.83,1.26-.89,2.5,0,3.78-2.66,5-4.41,3.75.8,5-2.67,2.56-6.09,2.55-4.36,2.42,8.58,3.66,9.43-.18,19-.18,19l3.75-.07.18-18.13s1.24.85,7.47,4.19,2.53-2.63,3.79-3.52,10,5,11.22,4.12-4.93-7.68-2.42-8.59,8.72,4.17,11.23,4.12,6.25.76,7.51-.13-6.23-3.34-5-4.23,21.23,5.68,23.77,1.32-19.26-4.06-21.17-10.85c-1.21-4.3,10.45,5.19,12.49,2.37l1.27-1.75s6.25.75,7.51-.13-23.7-8.22-23.67-10.81,13.72,4.94,15,3.19,20,4.06,20-.35c0-.86-17.48-4-4.94-5.95,3.68-.57-13.71-6.67-25-5.61s-21.24-3.95-21.24-4.81c0-2.59,12.5,1.71,12.52-.22,0-.86-2.48-1.68,2.52-.9s8.73,2.43,11.24,2.39c5-.09-1.22-3.43,0-3.45,2.8,0,16.26.94,16.27-.28,0-.87-39.68-9.77-42.43-13.08-4.94-6,7.5,1.6,12.51,1.51,2.5,0,0-1.72,3.76-.93,3.56.76,7.5,1.6,8.76-.15,0,0-29.94-9.83-32.4-14.11s10,1.56,12.5,1.51,1.27-1.75,1.27-1.75,6.23,2.48,8.74,1.58-10-4.14-2.47-3.41,11.25,2.39,15,1.46-5-3.36-6.21-5.07,11.18,1.13,17.53-1.16c2.52-.91-27.51-2.12-40-7.94s-11.21-5.85-11.21-5.85,5,1.64,7.49,1.6-1.24-.84-1.22-2.57,3.74,1.66,7.49,1.6l3.76-.07s-6.23-3.34-6.22-4.21,5,2.51,8.74,2.44,0-2.59,3.77-1.79,6.24,1.62,7.5,1.6,0-.87-2.48-3.41,5-.09,10-1.9,3.77-1.8-2.49-1.69-20.51-.31-22.5-3.06c-1.24-1.7,1.25,0,5-1s2.51-.91-3.74-1.66-17.48-4.88-17.46-6.6,5,.77,6.25.75,0-3.45,1.28-3.47,6.23,3.34,10,3.28-1.22-2.57-1.21-3.43,5,1.64,10,.69-5-.78-11.22-4.12-13.19-6.83-14.93-9.24c-1.24-1.7,8.22,1.58,10,1.55q3.75-.06-7.44-7.64c-7.46-5-4.93-7.68-1.2-5.15s2.5-.05,0-2.59-5-6-3.69-6,3.91,1.22,0-3.45C578.37,194.74,579.75,181.77,578.47,184.38Z"/><path class="cls-7" d="M758.05,161.92s1.15,11.64-2.62,13.5c0,0,6.25.79-6.37,12.68,5-1.89,5-4.58,5-1.89s-5.06,6.37-3.81,6.35,3.79-3.65,3.79-3.65,8.69,7.92-22.71,19.24c-3.77,1.86,2.48,2.65,6.25,1.68-2.53,2.74,3.75-.06,8.78-2-1.3,4.51,2.47,3.55,6.24,1.69,1.23,1.77-13.82,5.63-15.09,7.44s10.92-1.72,10-1.07c-2.51,1.84-1.28,3.61,6.26.79,2.48,2.64-10.82,13.56-42.73,18.7-6.27,1,4.43,3.26,11.26.7,2.51-.95-13.83,7.42,1.22,3.56,0,0-2.53,2.74,0,1.8s11.3-3.79,10-2.87c-3.21,2.34,6.27-1,12.56-4.71,0,0,6.29-2.8,5-1s-11.33,7.38-7.58,7.32,3.76-.07,1.25.87-16.34,7.47-11.33,6.48,7.52-1,6.26-.11-3.78,2.76,3.76-.06,6.26-1,3.75.83-20.1,7.53-36.39,9.61-17.57,5.7-5.06,5.48,11.27-.2,8.74,3.43,10-2,11.28-2-2.52,1.84,2.49.85,16.34-7.47,13.8-2.94-12.58,6.51-8.82,6.44,17.53-1.21,0,5.39-36.4,11.41-30.15,12.19,26.93-6.28,21.3-2.17c-5,3.68-8.8,3.75-8.8,3.75s3.74,1.73,8.78-1.05,6.26-1,5-.09,5,1.7,11.28-1.1,6.27-1.91,5,.81S714.24,301.77,699.22,302c-5,.09,2.47,3.54,5,2.6,0,0-23.87,10.29-15.1,9.24s26.86-7.49,23.81-3.11c-1.27,1.81-1.28,2.71,6.25.78s18.6-4.18-5.06,6.38c-6.29,2.8-8.8,3.74-13.81,4.73-1.72.33-3.78,2.75,0,2.69,7.62-.14,17.58-5.7,16.31-3.88-.91,1.31-4.48,4.28-1.29,3.61,1.26-.26,7.53-3,10.05-3.76,10-2.87,13.8-3.84,2.47,3.54,0,0-13.82,5.63-13.82,6.53s3.74.83,6.26-.11c1.24.87,6.27-1.91,10-2.87s2.5.85-1.28,3.61-3.82,7.24,0,4.49c2.52-1.84,3.78-2.76,3.77-1.87s3.73,2.63,6.28-1.9,1.26-.92,2.5-.05,3.78-2.76,5-4.57,3.75.83,5-2.78,2.56-6.33,2.54-4.53,2.43,8.93,3.67,9.8-.18,19.74-.18,19.74l3.76-.06.17-18.85s1.24.88,7.47,4.36,2.53-2.74,3.79-3.66,10,5.21,11.22,4.29-4.93-8-2.42-8.93,8.72,4.33,11.23,4.29,6.25.78,7.51-.14-6.23-3.48-5-4.4,21.23,5.91,23.77,1.38S799.88,324.4,798,317.34c-1.21-4.47,10.45,5.4,12.5,2.47l1.27-1.82s6.25.79,7.51-.13-23.71-8.55-23.68-11.25,13.72,5.14,15,3.33,20,4.22,20-.36c0-.9-17.49-4.17-5-6.19,3.68-.59-13.71-6.94-25-5.84s-21.24-4.11-21.23-5c0-2.69,12.5,1.79,12.52-.22,0-.9-2.49-1.75,2.51-.94s8.74,2.54,11.24,2.49c5-.09-1.22-3.57,0-3.59,2.8,0,16.26,1,16.27-.29,0-.89-39.69-10.17-42.43-13.6-5-6.2,7.49,1.66,12.5,1.57,2.5,0,0-1.79,3.76-1,3.56.79,7.5,1.66,8.77-.16,0,0-30-10.23-32.42-14.68s10,1.62,12.51,1.58,1.26-1.82,1.26-1.82,6.24,2.58,8.75,1.64-10-4.31-2.47-3.55,11.24,2.5,15,1.53-5-3.5-6.22-5.27,11.18,1.17,17.54-1.21c2.51-.94-27.52-2.2-40-8.26s-11.21-6.09-11.21-6.09,5,1.71,7.49,1.66-1.24-.87-1.22-2.67,3.74,1.73,7.49,1.67l3.76-.07s-6.23-3.48-6.22-4.38,5,2.61,8.74,2.54,0-2.69,3.77-1.86,6.24,1.68,7.49,1.66,0-.9-2.47-3.54,5-.09,10-2,3.78-1.86-2.48-1.75-20.51-.33-22.51-3.19c-1.23-1.77,1.26,0,5-1s2.51-.95-3.74-1.73S765,221,765.05,219.22s5,.81,6.25.79,0-3.59,1.28-3.62,6.23,3.48,10,3.42-1.23-2.67-1.22-3.57,5,1.7,10,.72-5-.81-11.22-4.29-13.19-7.1-14.94-9.6c-1.23-1.78,8.23,1.64,10,1.61q3.76-.06-7.44-7.94c-7.46-5.25-4.93-8-1.2-5.36s2.5,0,0-2.7-5-6.19-3.69-6.21,3.91,1.27,0-3.59C758,172.69,759.33,159.2,758.05,161.92Z"/><path class="cls-7" d="M961.62,215.59s.72,9.37-1.58,10.86c0,0,3.82.64-3.87,10.19,3.07-1.51,3.08-3.67,3.07-1.51s-3.08,5.12-2.32,5.1,2.31-2.93,2.31-2.93,5.32,6.39-13.83,15.44c-2.3,1.5,1.52,2.14,3.82,1.37-1.54,2.2,2.29-.05,5.35-1.55-.78,3.62,1.52,2.85,3.82,1.36.75,1.43-8.43,4.51-9.2,6s6.66-1.37,6.12-.85c-1.54,1.47-.78,2.9,3.81.64,1.52,2.14-6.58,10.9-26,15-3.82.8,2.71,2.63,6.88.58,1.53-.76-8.44,5.95.75,2.87,0,0-1.54,2.2,0,1.45s6.89-3,6.12-2.3c-1.95,1.88,3.83-.8,7.66-3.76,0,0,3.83-2.25,3.06-.79s-6.9,5.92-4.61,5.87,2.29,0,.76.71-10,6-6.9,5.19,4.59-.81,3.82-.07-2.3,2.21,2.29-.05,3.83-.8,2.29.67-12.25,6-22.19,7.68-10.72,4.55-3.08,4.39,6.88-.14,5.34,2.78,6.12-1.57,6.88-1.58-1.53,1.47,1.53.69,10-6,8.41-2.34-7.66,5.21-5.37,5.16,10.7-.94,0,4.34-22.2,9.12-18.39,9.76,16.44-5,13-1.71c-3.07,2.95-5.36,3-5.36,3s2.29,1.39,5.35-.83,3.83-.8,3.06-.07,3,1.38,6.88-.86,3.83-1.52,3,.66S935.11,328,925.94,328.23c-3.05.07,1.52,2.86,3,2.11,0,0-14.56,8.24-9.2,7.41s16.38-6,14.53-2.47c-.77,1.46-.78,2.18,3.81.64s11.35-3.33-3.08,5.12c-3.83,2.25-5.36,3-8.42,3.78-1,.27-2.3,2.22,0,2.17,4.65-.09,10.72-4.55,10-3.09-.56,1.05-2.73,3.44-.78,2.9.77-.21,4.59-2.44,6.13-3,6.12-2.29,8.42-3.06,1.51,2.86,0,0-8.42,4.5-8.43,5.22s2.29.68,3.82-.08c.76.71,3.83-1.52,6.13-2.29s1.52.69-.78,2.91-2.32,5.82,0,3.61c1.54-1.48,2.31-2.22,2.3-1.49s2.29,2.12,3.83-1.53.77-.73,1.53,0,2.3-2.21,3.07-3.67,2.29.67,3.07-2.23,1.55-5.09,1.55-3.64,1.49,7.19,2.25,7.89-.07,15.89-.07,15.89l2.29,0L964,352s.76.71,4.57,3.52,1.54-2.2,2.3-2.94,6.1,4.21,6.87,3.47-3-6.44-1.5-7.19,5.33,3.5,6.86,3.47,3.82.64,4.59-.1-3.81-2.81-3-3.54,13,4.78,14.51,1.14-11.77-3.43-13-9.12c-.74-3.59,6.39,4.37,7.64,2l.77-1.46s3.81.65,4.58-.09-14.49-6.92-14.47-9.09,8.38,4.16,9.15,2.7,12.21,3.43,12.23-.25c0-.72-10.68-3.39-3-5,2.25-.47-8.38-5.61-15.26-4.74s-13-3.35-13-4.07c0-2.17,7.64,1.46,7.65-.16,0-.72-1.53-1.41,1.53-.75s5.34,2.06,6.87,2c3.05-.06-.75-2.87,0-2.88,1.71,0,9.93.81,9.93-.21,0-.72-24.24-8.25-25.92-11-3-5,4.57,1.35,7.63,1.29,1.53,0,0-1.44,2.3-.77s4.58,1.35,5.35-.11c0,0-18.3-8.29-19.82-11.87s6.11,1.32,7.64,1.29.77-1.46.77-1.46,3.81,2.09,5.34,1.33-6.09-3.48-1.51-2.85,6.87,2,9.16,1.25-3-2.82-3.8-4.25,6.83,1,10.7-.94c1.54-.76-16.8-1.82-24.42-6.72s-6.85-4.91-6.85-4.91,3,1.38,4.58,1.35-.76-.71-.76-2.15,2.29,1.39,4.58,1.35l2.29-.05s-3.8-2.81-3.8-3.53,3,2.1,5.34,2,0-2.16,2.3-1.49,3.81,1.37,4.58,1.35,0-.72-1.52-2.86,3.06-.06,6.12-1.56,2.3-1.5-1.52-1.42-12.52-.3-13.74-2.6c-.76-1.43.76,0,3.06-.79s1.53-.75-2.29-1.4S966,263.15,966,261.71s3,.66,3.82.64,0-2.89.78-2.9,3.8,2.81,6.1,2.76-.76-2.15-.75-2.87,3,1.38,6.11.59-3.06-.66-6.86-3.47-8.07-5.73-9.14-7.75c-.76-1.43,5,1.34,6.11,1.32q2.3,0-4.56-6.41c-4.56-4.23-3-6.43-.74-4.31s1.53,0,0-2.17-3-5-2.27-5,2.39,1,0-2.88C961.58,224.25,962.4,213.41,961.62,215.59Z"/></g></g></svg>