<svg xmlns="http://www.w3.org/2000/svg" viewBox="0 0 47.39 66.85"><defs><style>.cls-1{fill:#999;}.cls-2{fill:#131313;}.cls-3{fill:#febf96;}.cls-4{fill:#2b2b2b;}.cls-5{fill:#1e1d1e;}.cls-6{fill:#161616;}</style></defs><title>Fichier 5</title><g id="Calque_2" data-name="Calque 2"><g id="ACTIVITY"><polygon class="cls-1" points="32.12 10.64 27.3 19.72 29.24 19.72 33.42 11.75 32.12 10.64"/><path class="cls-2" d="M35.12,2.74A13.38,13.38,0,0,1,36.25.25c.58-.39,1.84-.43,1.67.64-.08.51-4.5,10.32-4.5,10.32l.85.32-.22.5-3.18-1.39.3-.46.95.46Z"/><path class="cls-3" d="M10.71,43.53s1,3.75,1.66,3.61S17.09,42,16.61,42H12.17Z"/><path class="cls-3" d="M38.68,6.46S37,4.33,36.46,4.55s-1,1.48-1.2,1.91-2.6,3.43-2.35,3.91.81-.18,1.47-.81A14.61,14.61,0,0,1,37.85,8.1Z"/><path class="cls-3" d="M33.83,3.29s1.13-.06,1.28.27-1,3.88-1.43,4-1.95.1-2-.45S33.39,3.28,33.83,3.29Z"/><path class="cls-2" d="M38.8,11.41l-2-2.94s1.06-2.28,2.2-2A15.16,15.16,0,0,1,42.6,8.71Z"/><path class="cls-4" d="M31.27,29.11a7,7,0,0,1,2.56-4.9c2.6-2.37,13.82-10.79,13.55-12s-2-4.16-3.92-4.43S39,10.46,38.76,11s-2.61,4.34-4,4.9-2.43.37-3.44,1.05-4.14,1.41-4.65,0-5.9.07-9.94,1.72S29.06,30.21,31.27,29.11Z"/><polygon class="cls-2" points="4.4 38.95 10.68 44.39 13.07 41.94 8.17 35.02 4.4 38.95"/><path class="cls-4" d="M9.65,21.57s-3.93,7.71-5.92,9.14S-2.4,37.66,5,39.45a20.34,20.34,0,0,0,3.53-4l-.82-1s5.77-4.29,5.77-6.07S9.65,21.57,9.65,21.57Z"/><path class="cls-5" d="M19.49,17.3S12,21.1,9.22,21.1c0,2.08,1.83,7.17,5.13,9.92,0,0,.5,4-.51,6.19a2.52,2.52,0,0,0,1.85,3.7c1-.08,14.88,0,14.88,0s1.92-2.7.85-5S31,29,31.74,28C30.18,26.73,19.49,17.3,19.49,17.3Z"/><path class="cls-5" d="M30.18,11.93a6.7,6.7,0,1,1-13.39,0c0-3.7,3-8.64,6.69-8.64S30.18,8.23,30.18,11.93Z"/><circle class="cls-3" cx="23.48" cy="13.78" r="3.13"/><path class="cls-6" d="M26.62,13.78a3.14,3.14,0,0,1-6.27,0Z"/><path class="cls-2" d="M16.68,56.88s2.49,1.06,2.57,1.81,1.28,5.89,0,6-4.61,1.59-4.68,0S15.8,56.46,16.68,56.88Z"/><path class="cls-5" d="M6.57,65.73s8.18,1,8.61.31,1.86-6.14,0-6.2S6.57,65.73,6.57,65.73Z"/><path class="cls-4" d="M15.31,42.49a38.56,38.56,0,0,0-7.87,7.93C4.28,55,0,60.77,0,61.33s.06,5.27,1.61,5.45,6,0,6.57-.55S20.83,54.83,23.3,54.67V42.49Z"/><path class="cls-2" d="M29.93,56.88s-2.49,1.06-2.57,1.81-1.28,5.89,0,6,4.6,1.59,4.68,0S30.81,56.46,29.93,56.88Z"/><path class="cls-5" d="M40,65.73s-8.18,1-8.62.31-1.86-6.14,0-6.2S40,65.73,40,65.73Z"/><path class="cls-4" d="M30.47,42.49s5.54,3.41,8.7,7.93,7.44,10.35,7.44,10.91S46.55,66.6,45,66.78s-6,0-6.57-.55S25.78,54.83,23.3,54.67V42.49Z"/><path class="cls-2" d="M30.75,40.46l-15.68,0v2.27h7l-2.89,4.75a7.4,7.4,0,0,0,1.18.49c.17,0,2.09-4.11,2.93-4.61l.83,6.35,2.42-.33-1.9-6.65h6.15Z"/></g></g></svg>