<?xml version="1.0" encoding="utf-8"?>
<!-- Generator: Adobe Illustrator 24.0.1, SVG Export Plug-In . SVG Version: 6.00 Build 0)  -->
<svg version="1.1" id="Calque_1" xmlns="http://www.w3.org/2000/svg" xmlns:xlink="http://www.w3.org/1999/xlink" x="0px" y="0px"
	 viewBox="0 0 389 37.4" style="enable-background:new 0 0 389 37.4;" xml:space="preserve">
<style type="text/css">
	.st0{fill:#0F2F49;}
	.st1{fill:#8F1420;}
	.st2{fill:#A3A29F;}
</style>
<title>katana_1</title>
<g id="SOUVENIR">
	<path class="st0" d="M91,9.6l-6.1-0.5C83.8,9,82.8,9,81.7,8.9c-1.6-0.1-3.2-0.2-4.8-0.4c-1.3-0.1-2.6-0.2-3.8-0.3
		c-2.5-0.2-4.9-0.4-7.3-0.6s-4.7-0.4-6.9-0.6l-3.3-0.3c-2.1-0.2-4-0.4-6-0.6h-0.2l-8-0.8C33.6,4.3,27,3.5,21.6,2.9l-3.4-0.4
		l-1.7-0.2c-0.6-0.1-1.1-0.2-1.6-0.2l-1.5-0.2c-0.5-0.1-1-0.1-1.5-0.2c-1.2-0.2-2.3-0.3-3.4-0.5C8.2,1.1,8,1.1,7.7,1
		C6.9,0.9,6.2,0.8,5.6,0.7l-1-0.1c-0.1,0-0.2,0-0.3,0c-0.5-0.1-1-0.2-1.4-0.3L2.3,0.2L1,0H0.9l0,0L0,18.7l0,0c0,0,0.1,0,0.1,0
		l3.3,0.5l1.2,0.2c0.5,0.1,1,0.1,1.6,0.2s1.3,0.2,2,0.3c2.3,0.3,5,0.7,8.3,1.1c0.4,0,0.8,0.1,1.2,0.1c3,0.4,6.2,0.8,9.9,1.2l3.2,0.4
		c1.1,0.1,2.3,0.3,3.5,0.4l5.5,0.6c1.3,0.1,2.6,0.3,3.9,0.4c6,0.6,12.7,1.3,20.1,1.9c1.5,0.1,3,0.3,4.6,0.4c3.7,0.3,7.6,0.7,11.6,1
		c1.3,0.1,2.7,0.2,4,0.3l4.9,0.4L91,9.6z"/>
	<path class="st1" d="M388.9,28.4c-0.6,4.1-3.8,7.3-7.8,8.2h-0.1c-0.2,0-0.4,0-0.5,0l-3.3,0.1c-0.9,0-1.9,0-2.9,0.1
		c-0.3,0-0.7,0-1,0c-2.5,0.1-5.4,0.2-8.5,0.2l-2.6,0c-0.6,0-1.2,0-1.9,0h-2.4h-1.5l-6.2,0.1l0,0h-4.4c-0.4,0-0.8,0-1.2,0
		c-1.9,0-3.9,0-6,0h-3.1h-4c-0.8,0-1.6,0-2.5,0h-0.8c-0.8,0-1.7,0-2.5,0l0,0c-2.3,0-4.6,0-7.1,0c-4.2,0-8.6,0-13.3-0.1l-7-0.1
		c-2.4,0-4.8,0-7.3-0.1l-4.3-0.1h-1.7c-5.3-0.1-10.7-0.2-16.4-0.3c-1.6,0-3.1-0.1-4.7-0.1c-1.3,0-2.7,0-4.1-0.1
		c-5.1-0.1-10.4-0.2-15.8-0.4l-9.4-0.3l-12.6-0.4l-8-0.3c-4.6,0-9.3,0-14-0.2c-1.9-0.1-3.9-0.2-5.9-0.2c-5.2-0.2-10.2-0.5-15.2-0.7
		c-2.5-0.1-4.9-0.2-7.4-0.4c-3.8-0.2-7.5-0.4-11.1-0.6l-6.5-0.3c-2.3-0.1-4.5-0.3-6.7-0.4c-21.1-1.2-39.8-2.5-56.1-3.7
		c2-4.4,3.5-8.2,3.7-9.7s-0.4-4.8-1.3-8.9l8.7,0.6c1.5,0.1,3,0.2,4.6,0.3s3.1,0.2,4.7,0.3c3,0.2,6,0.4,9.1,0.6
		c3.5,0.2,7,0.5,10.7,0.7c3.5,0.2,7,0.4,10.6,0.6c6.6,0.4,13.4,0.8,20.5,1.1l7,0.4c8.2,0.4,16.8,0.8,25.7,1.2l11.6,0.5l6.9,0.3
		l7.7,0.3c4.8,0.2,9.6,0.3,14.2,0.5l8.4,0.3c2.7,0.1,5.4,0.1,8.1,0.2l3,0.1c1.7,0,3.3,0.1,4.9,0.1c1.3,0,2.6,0.1,3.9,0.1h0.9
		c3.2,0.1,6.3,0.1,9.4,0.2c0.3,0,0.6,0,1,0c2.7,0.1,5.5,0.1,8.1,0.1l8.7,0.1c1.8,0,3.6,0,5.4,0h1.1l6,0.1c8,0.1,15.4,0.1,22.3,0.1
		c0.9,0,1.9,0,2.8,0c13.5,0,24.8-0.2,33.9-0.4h1.8c0.6,0,1.2,0,1.7,0h1.7l1.6,0c1,0,2.1,0,3-0.1c0.5,0,1,0,1.4,0l2.6-0.1l4.6-0.1
		c0,0,0.1,0,0.1,0h0.1 M381.7,17.9c4.7,1.5,7.9,5.8,7.3,10.5L381.7,17.9z"/>
	<path class="st0" d="M84.5,34.6l6.3,0.6c0,0,2.9-4.7,3.9-16.5c0.9-10.9-0.8-16.9-0.8-16.9l-6.3-0.6c0,0,1.7,6.1,0.8,16.9
		C87.4,29.9,84.5,34.6,84.5,34.6z"/>
	<rect x="4.6" y="5.8" transform="matrix(0.8291 -0.559 0.559 0.8291 -4.4129 7.2544)" class="st1" width="10.1" height="10.1"/>
	<rect x="19" y="8.2" transform="matrix(0.7994 -0.6008 0.6008 0.7994 -3.1331 17.0711)" class="st1" width="10.1" height="10.1"/>
	<rect x="33.5" y="10" transform="matrix(0.7775 -0.6289 0.6289 0.7775 -0.8636 27.5618)" class="st1" width="10.1" height="10.1"/>
	<rect x="77" y="13.1" transform="matrix(0.7266 -0.6871 0.6871 0.7266 9.9546 61.2975)" class="st1" width="10.1" height="10.1"/>
	<rect x="62.3" y="12.4" transform="matrix(0.7506 -0.6608 0.6608 0.7506 5.278 48.8745)" class="st1" width="10.1" height="10.1"/>
	<rect x="47.9" y="11.4" transform="matrix(0.761 -0.6488 0.6488 0.761 2.0096 38.242)" class="st1" width="10.1" height="10.1"/>
	<path class="st2" d="M388.9,28.4c-0.7,4.1-3.8,7.3-7.8,8.2l0,0c-0.2,0-0.4,0.1-0.6,0.1l0.1-0.1c2-2.2,3.2-5,3.6-8
		c0.5-3.8-0.5-7.6-2.7-10.8l-0.1-0.1c0.1,0,0.2,0.1,0.3,0.1l0,0C386.4,19.4,389.5,23.7,388.9,28.4z"/>
</g>
</svg>
