<svg xmlns="http://www.w3.org/2000/svg" viewBox="0 0 386.33 36.26"><defs><style>.cls-1{fill:#edc977;}.cls-2{fill:#0f2f49;}.cls-3{fill:#a3a29f;}</style></defs><title>katana</title><g id="Calque_2" data-name="Calque 2"><g id="SOUVENIR"><path class="cls-1" d="M386.26,27.19a9.89,9.89,0,0,1-7.81,8.15h-.06c-.18,0-.36,0-.55,0l-3.31.12c-.89,0-1.86,0-2.86.1-.33,0-.66,0-1,0-2.53.08-5.37.15-8.53.23l-2.63,0c-.6,0-1.22,0-1.85,0l-2.4.05-1.45,0-6.23.08h0l-4.44,0c-.38,0-.79,0-1.17,0-1.92,0-3.92,0-6,.05l-3.15,0h-4c-.81,0-1.64,0-2.49,0h-.83c-.82,0-1.67,0-2.54,0a0,0,0,0,0,0,0c-2.31,0-4.65,0-7.08,0-4.22,0-8.65,0-13.26-.06l-7.05-.06c-2.4,0-4.83,0-7.32-.08L283.85,36l-1.74,0c-5.26-.08-10.73-.16-16.39-.3-1.56,0-3.14-.06-4.74-.1q-2,0-4.08-.09c-5.13-.11-10.38-.24-15.8-.41l-9.4-.27-12.55-.42-8-.3q-6.83-.26-13.9-.55c-2-.07-3.91-.16-5.88-.25q-7.77-.33-15.19-.69c-2.49-.11-4.93-.24-7.35-.36-3.79-.17-7.49-.36-11.13-.56l-6.5-.35c-2.28-.13-4.53-.26-6.74-.37-21.15-1.21-39.78-2.47-56.07-3.73,2-4.4,3.5-8.2,3.65-9.69s-.41-4.82-1.27-8.92l8.66.64c1.49.12,3,.22,4.55.33s3.1.23,4.67.33c3,.21,6,.43,9.13.62,3.46.24,7,.47,10.66.68,3.47.22,7,.43,10.58.64,6.61.4,13.45.77,20.54,1.15l7,.35q12.33.63,25.67,1.2l11.65.48,6.85.27,7.72.29c4.83.17,9.55.34,14.17.47l8.39.26c2.74.08,5.45.14,8.13.23l3,.07c1.65.05,3.29.08,4.91.11,1.32,0,2.62.08,3.92.1h.93c3.2.07,6.32.14,9.4.19.33,0,.65,0,1,0,2.73.06,5.45.1,8.1.13l8.71.13c1.8,0,3.6,0,5.36.05h1.07l5.95.06q12,.09,22.33.07c.93,0,1.86,0,2.78,0,13.52,0,24.84-.2,33.87-.38l1.77,0c.58,0,1.17,0,1.71,0l1.67,0,1.59-.05c1.05,0,2.06,0,3-.08.49,0,1,0,1.41,0l2.62-.09,4.56-.15h.19a0,0,0,0,0,.06,0C383.7,18.19,386.83,22.52,386.26,27.19Z"/><path class="cls-2" d="M81.81,33.44l6.3.58S91,29.34,92,17.52C93,6.66,91.21.58,91.21.58L84.91,0s1.74,6.08.8,16.94C84.69,28.76,81.81,33.44,81.81,33.44Z"/><rect class="cls-1" x="1.95" y="4.65" width="10.07" height="10.07" transform="translate(11.11 -1.52) rotate(56.01)"/><rect class="cls-1" x="16.29" y="7.03" width="10.07" height="10.07" transform="translate(18.15 -12.23) rotate(53.07)"/><rect class="cls-1" x="30.81" y="8.81" width="10.07" height="10.07" transform="translate(24.06 -22.73) rotate(51.03)"/><rect class="cls-1" x="74.28" y="11.94" width="10.07" height="10.07" transform="translate(148.61 -25.19) rotate(136.6)"/><rect class="cls-1" x="59.67" y="11.25" width="10.07" height="10.07" transform="translate(124.03 -14.24) rotate(138.64)"/><rect class="cls-1" x="45.2" y="10.19" width="10.07" height="10.07" transform="translate(29.23 -32.88) rotate(49.55)"/><path class="cls-3" d="M386.26,27.19a9.91,9.91,0,0,1-7.83,8.15h0c-.21,0-.43.1-.64.13l.1-.13a15,15,0,0,0,3.6-8,15.33,15.33,0,0,0-2.74-10.75l-.08-.11.3.1a0,0,0,0,0,0,0C383.7,18.19,386.84,22.52,386.26,27.19Z"/></g></g></svg>