<svg xmlns="http://www.w3.org/2000/svg" viewBox="0 0 85.7 312.28"><defs><style>.cls-1{fill:#ae8bb7;}.cls-2{fill:#37317a;}.cls-3{fill:#ffe7d7;}.cls-4{fill:#e5cab7;}.cls-5{fill:#fff9f5;}.cls-6{fill:#0f0f0f;}.cls-7{fill:#e25050;}.cls-8{fill:#ff5955;}.cls-9{fill:#383f7d;}</style></defs><title>Fichier 2</title><g id="Calque_2" data-name="Calque 2"><g id="CHILD"><path class="cls-1" d="M62.73,292c-.92.08-2.63.13-4.11.15-2.38.12-5.51.12-7.11.24a6.94,6.94,0,0,1-2.88,1.44,5,5,0,0,1-.93.05v.57h0l0,.47.52.06.2,0,.55.07.17,0,.67.1.19,0,.71.12.1,0,.69.13.1,0,.6.12h0l1.15.26-1.15-.26a32.57,32.57,0,0,1,8.23-.59c26.19.62,6.62,13.16-2.59,14.52l-.7.1c1.18.27,1.83.64,1.53,1.16-.82,1.45-16.36,1.84-20.79,1-2.12-.4-1.91-1.05-1.33-1.54a33.06,33.06,0,0,1-4.1-.37C12.41,307.4,5.79,293,34.45,295.06c1.15.08,2.09.18,2.91.29l-1.21.21,1.21-.21h0c.65-.11,1.3-.2,1.93-.28l.16,0,.74-.09c0-.9-.09-2.61-.1-3.12a1.06,1.06,0,0,0,0,.47h0l0,1.56a5.2,5.2,0,0,1-.95-.05,8.16,8.16,0,0,1-1-.33h0a5.27,5.27,0,0,1-1.77-1.11c-1.47-.11-4.36-.12-6.71-.22h0s-5,0-6.78-.17S.23,268.44,0,268s5-.34,8.25-.34.34-.44,1.65-.64c3.07-.48,10.9-.54,15.76-.52C26.6,255,28,244,28,244s1.81,0,3.82-.05a5.13,5.13,0,0,1-1.21-.89h-.06s0,0,0-.09l-.06-.07c-1-1.13-2.39-2.07,6.47-2.07h.95a2,2,0,0,1,.63,0s0,0,0,0l.24,0c6,.1,5.93.71,5,1.69.16.12.2.21.06.25a1.57,1.57,0,0,1-.31,0l-.12.12a5.1,5.1,0,0,1-.73.63c1.25,0,2.54,0,3.72,0a4.92,4.92,0,0,1-.66-.62l-.13-.15s-.05,0-.05,0c-.89-1-1.58-1.76,5.17-1.86l.22,0h0a2,2,0,0,1,.63,0h.63c8.6,0,7.77.75,6.54,2,.2.11.27.19.17.22a1.28,1.28,0,0,1-.4,0,6,6,0,0,1-1.33.94h2.65s1.43,11.07,2.36,22.58a126.08,126.08,0,0,1,13.57.52c1.3.2-1.64.64,1.64.64s8.49-.07,8.26.34S64.54,291.83,62.73,292Zm-3.93,5.55c-.3-.12-.61-.24-.93-.35C58.19,297.31,58.5,297.43,58.8,297.55ZM44.08,284.49l-.13-.08,0,0Zm3.63,7.83h0a1.06,1.06,0,0,0,0-.47h0s0-.05,0-.08v.57Zm6.78,3.85-1.05-.25Zm1.06.29-.86-.23Zm.26.08.81.24Zm2,.64c-.3-.11-.61-.22-.93-.32C57.19,297,57.5,297.07,57.8,297.18Zm1.33.5.44.18h0Zm-30.38-.2.05,0,0,0Zm.2-.07.91-.3ZM30.2,297l.77-.23Zm1.93-.55-.76.21Zm1.61-.39.83-.19Zm-1.19.28.78-.19Zm2.39-.54.94-.19Z"/><path class="cls-2" d="M43.43,233.65c1.27,4.36,2.28,7-6.47,7s-7.47-3.17-6.47-7,2.89-7,6.47-7S42.33,229.87,43.43,233.65Z"/><ellipse cx="41.05" cy="237.35" rx="4.31" ry="0.94" transform="translate(-165.92 114.13) rotate(-49.42)"/><ellipse cx="34.56" cy="236.9" rx="0.94" ry="5.49" transform="translate(-160.97 98.75) rotate(-46.46)"/><path class="cls-2" d="M58.7,233.65c1.27,4.36,2.28,7-6.47,7s-7.47-3.17-6.47-7,2.9-7,6.47-7S57.6,229.87,58.7,233.65Z"/><ellipse cx="48.46" cy="237.35" rx="0.94" ry="4.31" transform="translate(-142.74 88.61) rotate(-40.58)"/><ellipse cx="54.95" cy="236.9" rx="5.49" ry="0.94" transform="translate(-148.08 103.04) rotate(-43.54)"/><path class="cls-3" d="M47.7,69.4c0,2.24,4,5.17,2.55,5.15L44,86,39.32,74.55c-1.42,0,.77-3,.79-5.27,0,0,.08-12.52.15-12.87.24-1.29.88-.09,1.68-.49a1.69,1.69,0,0,1,.82-.2h.63l1.83,0c1.05,0,2.48,2,2.48,2Z"/><path class="cls-4" d="M47.76,58.33l0,1.67c-2.45.44-5.4.26-7.44-2.45a5.73,5.73,0,0,1-.81-1.46s1-.12,2.47-.25l1.44-.11h0l1.83,0A2.57,2.57,0,0,1,47.76,58.33Z"/><path class="cls-3" d="M64.23,33.75c-.61-13.5-10.35-24-21.77-23.52S22.27,22.1,22.88,35.6c.43,9.66,7.75,17.69,14.48,21.37h0c.65.35,1.3.67,1.93.94l.16.06c.25.11.51.21.76.3l.23.08.67.22.26.08.62.16.26.06.6.11.23,0,.63.07h.16a6.45,6.45,0,0,0,.76,0h.06l.52,0,.18,0a5.67,5.67,0,0,0,.57-.1l.2,0,.49-.13.17,0c.2-.05.4-.12.6-.19l.22-.08c.21-.07.41-.16.62-.24l.2-.09.55-.25.17-.08c.22-.11.45-.22.67-.35l.19-.1.71-.4.1-.07c.23-.13.46-.28.69-.43l.1-.07.6-.41h0C58.46,51.57,64.65,43.13,64.23,33.75Z"/><path class="cls-5" d="M38.43,41.29c-.16.65-4,1.59-6.91,1-3.14-.65-4.87-2.08-4.19-4.33s3.71-3.33,6.78-2.41S39,39,38.43,41.29Z"/><circle cx="32.55" cy="38.77" r="2.8"/><path d="M27.67,38.89c.67-2.25,3.71-3.33,6.77-2.41a6.71,6.71,0,0,1,4,3,6.16,6.16,0,0,0-4.34-3.94C31,34.63,28,35.71,27.3,38a3.57,3.57,0,0,0,.35,2.73A3.28,3.28,0,0,1,27.67,38.89Z"/><path class="cls-5" d="M48,41.07c.19.65,4,1.49,6.92.8,3.1-.73,4.78-2.2,4-4.43s-3.79-3.23-6.82-2.23S47.36,38.81,48,41.07Z"/><ellipse cx="53.8" cy="38.39" rx="2.78" ry="2.8" transform="translate(-9.24 18.53) rotate(-18.03)"/><path d="M58.66,38.39c-.74-2.23-3.79-3.23-6.81-2.23A6.57,6.57,0,0,0,48,39.28a6.09,6.09,0,0,1,4.21-4.05c3-1,6.07,0,6.81,2.22a3.56,3.56,0,0,1-.27,2.74A3.24,3.24,0,0,0,58.66,38.39Z"/><path d="M48.87,30.89s.64-2.57,1.79-2.54,6-.28,6.88,0l1.07.35c-.32-.15-.59-.3-.59-.3a6.78,6.78,0,0,1,1.25.5c0-.1-.47-.28-.47-.28a15.89,15.89,0,0,1,1.69.79,21.68,21.68,0,0,0-2.93-.35C56.34,28.91,49.19,31,48.87,30.89Z"/><path d="M37.73,31.48s-.86-2.24-2.2-2.22a35.21,35.21,0,0,0-7.08,1.21L27.4,31l.56-.4a7.72,7.72,0,0,0-1.22.71c0-.11.44-.36.44-.36A16,16,0,0,0,25.56,32a24.8,24.8,0,0,1,3-.85C29.76,30.79,37.41,31.61,37.73,31.48Z"/><path class="cls-4" d="M43.15,47.3a6.92,6.92,0,0,1,2.14-.06c.54.2-1.21.72-1.21.72S42.27,47.51,43.15,47.3Z"/><path d="M50.25,51.58a8.28,8.28,0,0,1-1.67.62,17.49,17.49,0,0,1-4.26.57,15,15,0,0,1-4.27-.48,6.91,6.91,0,0,1-1.23-.46,2.24,2.24,0,0,1-.41-.25,7.24,7.24,0,0,0,1.71.37,30.88,30.88,0,0,0,4.19.13c1.65,0,3.13-.09,4.21-.21A13.83,13.83,0,0,0,50.25,51.58Z"/><path d="M37.73,8.92s-3.55-5,.21-7.43c4.43-2.86,20-1.52,20.79,3.35S53.1,10.65,48,11.64,37.73,8.92,37.73,8.92Z"/><path class="cls-6" d="M57.9,9.06a21.2,21.2,0,0,0-4.47-1.55,6.87,6.87,0,0,0-.87-.21c-7.27-1.57-16.9-1.3-20.05.62-20.1,8.5-26.72,57,1.94,50a16.4,16.4,0,0,0,2.91-1,30.4,30.4,0,0,1-8.6-7.17c-2.34-5.89-2.88-13-1.57-13.83C31.89,32.9,41.11,26.14,42,16.41c0,0,3.36-.2,7.23,7.66S55.26,32.41,61,34.65c.56,4.48,2.08,6.16-1.42,13.9A30.74,30.74,0,0,1,52.26,56c2,1.19,3.6,2.38,8.23,2C86.68,55.86,67.11,13.66,57.9,9.06Z"/><path class="cls-7" d="M29.75,67.67v86.16s-15.25.75-19.84-1.65C8.6,151.5,11.55,150,8.26,150s-8.48.22-8.25-1.13S21.16,68.81,23,68.24,29.75,67.67,29.75,67.67Z"/><path class="cls-7" d="M56,67.67v86.16s15.24.75,19.84-1.65c1.3-.68-1.64-2.15,1.64-2.15s8.49.22,8.26-1.13-21.15-80.09-23-80.66S56,67.67,56,67.67Z"/><path class="cls-8" d="M61.24,68.64c-1.68-1.38-7.58-1.12-9.85-1.74s-3.63-4.72-3.63-4.72c5.09,11.7-1.12,26-3.81,31.61-2.7-5.62-8.91-19.91-3.82-31.61,0,0-1.35,4.11-3.63,4.72s-8.16.36-9.85,1.74C22,72.46,28,229.94,28,229.94s7.34.11,8.94.94,14.81,1.06,14,0,8.94-.94,8.94-.94S65.91,72.46,61.24,68.64Z"/><path class="cls-9" d="M47.18,83.31,41.6,91.9s-5.68-12.48-5.68-21.05a12.74,12.74,0,0,1,2.31-7.64h0a8.35,8.35,0,0,1,1-1.12,1.81,1.81,0,0,1,.95-.16l0,5.24v0a12.33,12.33,0,0,0,0,1.61h0a24,24,0,0,0,1.07,5.75,26.17,26.17,0,0,0,1.14,3.08L43.45,79Z"/><path class="cls-2" d="M47.18,83.31,41.6,91.9s-5.68-12.48-5.68-21.05a12.74,12.74,0,0,1,2.31-7.64C35.58,74.35,39,81.8,41.84,81.74c1.25,0,1.6-1.34,1.61-2.79Z"/><path class="cls-9" d="M51.87,71.82c.7-6.31-3-9.5-3.24-9.74a1.81,1.81,0,0,0-1-.16l0,5.24v0a12.33,12.33,0,0,1,0,1.61h0a24,24,0,0,1-1.06,5.75,26.11,26.11,0,0,1-1.15,3.08S38.37,96.53,29.05,97.7c-7.72,1,6.87,1.76,6.87,1.76S49.11,96.53,51.87,71.82Z"/><path class="cls-2" d="M64.91,106c1.13-2.78,2.32-8.6,0-9.46H23.75c-2.32.86-1.13,6.68,0,9.46-1.63.79-1.48,6,.36,7.84-1.5,1.29.31,5.39.31,5.39H64.24s1.81-4.1.3-5.39C66.39,111.94,66.54,106.78,64.91,106Z"/></g></g></svg>