<svg id="Calque_1" data-name="Calque 1" xmlns="http://www.w3.org/2000/svg" viewBox="0 0 336.37 425.25"><defs><style>.cls-1{fill:#91d2cd;}.cls-2{fill:#55b5a5;}.cls-3{fill:#819c9d;}.cls-4{fill:#e9e96d;}.cls-5{fill:#b0ca5e;}.cls-6{fill:#8e8e8e;}.cls-7{fill:#aeb5b6;}</style></defs><title>globebedroom</title><circle class="cls-1" cx="152.08" cy="187.8" r="152.07"/><path class="cls-2" d="M355,395.85a13.63,13.63,0,0,1,3.24,5.52c2.32,7.89-3.95,14.86-4.48,15.44,0,0-3.41,1.7,0,13.65,0,0,1.71,14.68-5.46,32.09,0,0,3.07,25.95-13.66,32.1a37.35,37.35,0,0,0-6.78,6.69,38,38,0,0,0-7.13,15.36,152.28,152.28,0,0,1,18.37-98.17A150.94,150.94,0,0,1,355,395.85Z" transform="translate(-319.08 -306.24)"/><path class="cls-2" d="M329.45,549.68s20.77-41.54,40.55-51.92c0,0,10.88-45.49,13.35-45.49,0,0,13.35-5.94,17.31-13.35,0,0-.21-8.81,1.64-10,0,0,5.32-8.09,0-10.86,0,0-8.78-.7-8.78-20.57,0,0-10.93-10.67-6.75-19.49-.83-7.34,1.48-10.8,2.84-12.29.6-.65,1.18-1.12,6.33-3.9,5.37-2.9,8.05-4.35,10.91-5.65,0,0,5.47-2.47,11.43-4.43,8.64-2.84,67,4.63,145,25.8,3,3.41,6.4,8.95,9.75,16,4.3,9.06,7.43,20.21,2.79,28.57,0,0-7.43,10.68-14.4,8.36,0,0-5.4-2-3.29,10.69,0,0-11.6,1.84-13.19,7.64,0,0-1.32,16.62-8.44,14.77a123.76,123.76,0,0,1-26.9-28.48s-36.51-11.6-46.27-12.4c0,0-6.73,5.28-13.33,5.54,0,0-6.33-.26-8.44-2.9,0,0-7.91,3.17-1.05,12.92,0,0,19.51,21.89,19.51,31.12,0,0,5.54,11.61-2.9,26.64,0,0-5.8,7.91,4.75,22.42,0,0,1.83,12.62.29,17.61,0,0,1.69,12.29-8.37,16.89,0,0-12,1.54-15.43,3.84,0,0-14.59,10.75-24.57,5,0,0-6.91-2.68-13-.77,0,0-7.62,7.5-14.75,5.54,0,0-11.2-2.93-15.39-2,0,0-16.89,1.19-20.16,23C350.43,587.63,336.42,571.43,329.45,549.68Z" transform="translate(-319.08 -306.24)"/><path class="cls-2" d="M449.82,649.59s31.67-45.79,32.09-47.93,19.26-6,12.42-29.1c0,0-17.12-16.69-17.12-20.12,0,0,12-29.53,10.27-36,0,0,1.68-5,10.59-6.72,0,0,6.07-3.9,8.24-7.59,0,0,6.73-4.13,21.06,1.3,0,0,13.89,5.64,26.27-7.82,0,0,6.39-10.76,14.2.1,0,0,6.86-10.52,22.27,1.21,0,0,7.38-3.26,11.72-3,0,0,6.3-7.38,12.81-5.65,0,0,4.34,2.17,4.56,3.69S621.41,654.34,449.82,649.59Z" transform="translate(-319.08 -306.24)"/><path class="cls-3" d="M523.59,351.3l6.19-15.93,11.24-29s3.93-1,3.44,2.21l-3.8,11.06s174.12,81.73,93.48,258.73c0,0-64.24,146.41-226.17,95.47l-4.5,12s-4.08,2.55-4.76-2l16.84-42.51a24,24,0,0,0,3.61,1.23l-4.33,13.35S544.64,710,618.21,572.36c0,0,76.15-151.12-83.46-235.2l-6.16,16.08Z" transform="translate(-319.08 -306.24)"/><path class="cls-4" d="M413.9,345.34s56.43-21.3,103.39-1.57c0,0,.87,10.33,5.52,11.93,0,0,5.89.19-2.31-10.15,0,0,9.8-.37,14.08,4.45,0,0-2.32,9.09,8.38,11.05,0,0,2.14,2.49,1.6,3.92h-6.77s-4.81-5.7-5.35-6.6c0,0-4.81,2.14-4.81,3.75,0,0,4.28,8.73,9.27,7.13,0,0,2.31,3.92,4.45,4.1a5.2,5.2,0,0,0,3.3-4.81s1.59-2.69,5.51,1.1c0,0,5.18,5.92,4,8.71,0,0-5.58-.88-5.87,0,0,0-4,3.52.58,7.19,0,0,3.58-4.25,5.46-4.4,0,0,8.84,3.79,13.62,11.09,0,0,4.11,14.6,3.85,17.12a5.52,5.52,0,0,0-1.85,2.1,8.26,8.26,0,0,0-.58,3.82,19.18,19.18,0,0,0,.08,1.94,6.38,6.38,0,0,1-1.91.49,6.19,6.19,0,0,1-2.51-.27,11.22,11.22,0,0,0-1.72-2.49,11,11,0,0,0-2.81-2.18,7,7,0,0,0-1.75.42,6.43,6.43,0,0,0-2.13,1.39s-6.22-11.69-6.34-11.93-.61-2.32,2.56-1.1c0,0,5.38,2.81,7.08,1.83,0,0,3.42-5.62-8-12.7,0,0-5.35.75-6.11-2.29,0,0-2.58-1.05-3.24.85,0,0-.29,1.34-1,1.72,0,0-1.62-3.15-4.76-2.29,0,0-3.71-2.19-.67-5.71,0,0-7.8-10.85-20.08-10.85a8.08,8.08,0,0,0-3.67,4.24,8.26,8.26,0,0,0,.47,6.53,6.05,6.05,0,0,1,2,3.19c.76,3.4-2.07,6-2.19,6.12s-2.29,6.29,1.24,5.81c0,0,3.8-3.62,9.33.1,0,0,3,4.57,6.85,1.62l4.67-4.38a4.09,4.09,0,0,1,5.8.19s5,6.85,4.76,8.85c0,0,.86,2.67-1.23,4,0,0-4.86,3.05-.1,5.52,0,0,6.76,2.57,2.48,8.76,0,0-3.53-.38-2.29,9.23,0,0-2.35,6.37-6.86.81,0,0-4.37.37-2.11,9.64,0,0-2.65,3.07-5.17-2.63,0,0-1.72-6.88,0-7.81,0,0,5,.53,3.71-3.84,0,0-6.89,0-7-7,0,0,.4-6.22-3.31-6.62,0,0-3,1.72-1.85,5.83,0,0-.8,4-3.58.4,0,0,.27-3.71-4.24-4.11,0,0-10.85,1.06-14.43-4l-17.61-1a8.93,8.93,0,0,1-10.74-.5s-7.55-3.53-13.76,0c0,0-7,8.39-7.21-3.69,0,0,5.37-3.19,1.34-7.55,0,0-13.42-20.84-34.73-10.51,0,0-6.92,10.18,13.42,15.37V410s-9.23-1.34-5,7.72c0,0,2.35,4-3.53,9.23,0,0-7.72,2.69-1.51,11.75,0,0-.67,5.7,14.77,4.44,0,0,6,8.48,4.19,17a7.75,7.75,0,0,0,8.73,5.87s1.17,13.27-2.81,16c0,0,11.43,10.92-2.23,21.85,0,0,1.49,17.89,11.92,22.11,0,0-3.73,10.68-1,12.91,0,0,0,7-6.46,6l-10.18.1-13.66,10.09c-.37.19-4.42,2.31-8.41.21a8.8,8.8,0,0,1-3.83-4.19,8.38,8.38,0,0,0-6.75-2.44,7.36,7.36,0,0,0-3.41,1.48,40.85,40.85,0,0,0-4.62,2.79,42.36,42.36,0,0,0-4,3.21l-21.39,1a29.53,29.53,0,0,1-14.29-8.38c-.12.23-.23.47-.34.72a12.11,12.11,0,0,0-.9,5.65,5.52,5.52,0,0,1-2.13,1.12,6.27,6.27,0,0,1-5-1,9.61,9.61,0,0,0-.24,1.25c-.24,2,.18,3,.26,5.45,0,.43,0,1.11,0,2a9.24,9.24,0,0,0-3.35.73,5.91,5.91,0,0,0-4,4.59s-.17,8.65-1.66,9.81c0,0-8.65-3.49-7.16-24,0,0,3.33-14.14,16.14-20.63,0,0,.33-6,3.16-9.81L361,519s-1.16-5.15,3-6.65,19-15.47,18.46-17.13c0,0-2.54-13.77,1.21-22.6,0,0,3.21-20.06,7.22-19.79a18.66,18.66,0,0,1,20.6-3.21s8.56-7.49,3.21-11.24c0,0-5.35-3.47-3.21-15.51,0,0,2.4-15.78-3-17.92,0,0,5-4-.65-6.58a22.62,22.62,0,0,1-7.09-11.2c-2.6-10.26,3.11-22.26,14.47-29.92a8,8,0,0,0,3-5.44c.18-2.74-1.29-6.12-3.37-6.48A2.36,2.36,0,0,0,413.9,345.34Z" transform="translate(-319.08 -306.24)"/><path class="cls-4" d="M461.34,656.59a18.78,18.78,0,0,0,6.3-5.53,22.27,22.27,0,0,0,2.84-6.17c1.17-3.16,3.83-7.31,10.41-11.37a33.44,33.44,0,0,0,2.1-6.17,10.36,10.36,0,0,1,1.14-3.43,8.08,8.08,0,0,1,3.39-3,16.48,16.48,0,0,0,9.67-3A17.17,17.17,0,0,0,504,606.09a60.71,60.71,0,0,0,2.92-5.7c1.38-3.11,1.67-4.51,3.08-5.89a8.79,8.79,0,0,1,4.89-2.26,37,37,0,0,0,1.24-4.66,18.31,18.31,0,0,0,.43-3.27,15.62,15.62,0,0,0-.21-2.89,17.73,17.73,0,0,1-1.68-4.09,25.93,25.93,0,0,1-.54-3.16c-.33-1.66-1.85-3.85-7.28-6q-7.12-8.17-14.26-16.33A120,120,0,0,0,495,537.45c.56-5.32.42-7.62,2-10.28,2.43-4.18,7.11-6,10.6-6.86,2.65.91,5.2.23,6.4-1.4a3.83,3.83,0,0,0,.65-2.53s-.69-6.71,6.57-4c0,0,13.81,5.06,16.82,4,0,0,10.66-8.42,17.41-.07,0,0,21.68,18.15,22,20.39,0,0,2.57,3.22-3.53,9.64,0,0,4.43,18.09,6.63,18.26,0,0,8.53-3,10.28,10,0,0,.73,11,6.34,12.78a137.83,137.83,0,0,1-29.83,35.75C526.2,658,476.65,657.38,461.34,656.59Z" transform="translate(-319.08 -306.24)"/><path class="cls-4" d="M625.05,500.3s-2.78,55-21.2,75.16c0,0-5.78-2.83,4.07-16.06,0,0-3-3.64-13.06,2.57,0,0-1.09-7.92,2.24-10.28,0,0,6.54-4.71,4.18-17.13,0,0-3.12-6.85-6.59,0,0,0,1.33,11.78,0,12.64,0,0-7.19,7.92-12.25-1.29,0,0,1.92-6.64,6.21-1.92,0,0,1.07-7.5,2.36-16.28,0,0-3.43-2.14-6.64-1.92,0,0,.21-8.36-7.5-5.79,0,0-10.7,1.07-11.13,1.72,0,0-10.13-6.17-9.42-15.09,0,0,8.2-16.85,17.85-.43,0,0,1.93,9.35,5.9.85,0,0,5.71-6.52,10.6.14a46.44,46.44,0,0,0,12.68,1.56s7.08,13.32,9.77,7.37c0,0,5.81-3.69-3-7.51a6.8,6.8,0,0,0,1.55-9.6S618,493.84,625.05,500.3Z" transform="translate(-319.08 -306.24)"/><path class="cls-5" d="M339,579a20,20,0,0,0,1.22-5.27c.08-.9.18-1.8.25-2.71a9.8,9.8,0,0,1,.43-2.79,6.06,6.06,0,0,1,1-1.82,8.52,8.52,0,0,1,3-1.93,8.29,8.29,0,0,1,3-.54c-.14-2-.28-3.51-.42-4.79a8.27,8.27,0,0,1,0-2.45,8.12,8.12,0,0,1,.4-1.48c.75.08,1.51.15,2.29.21,1.38.11,2.72.18,4,.21,0,0,.86-4.57,1.43-8,0,0,11.44,10,16.59,8.58,0,0,16.3-1.15,20.59-.58,0,0,8.58-9.43,12-8a12.08,12.08,0,0,1,3.73,1.72,42.34,42.34,0,0,1,6.28,4.85s5.43,1.15,7.15.29,14.3-9.72,14.3-9.72h12.87a7,7,0,0,0,3.72-3.72c.39-1.16.23-2.11.43-2.13s1.61,2.63.66,5.26a6,6,0,0,1-2.81,3.16l-13.15.29-15.16,10s-9.15,0-10.3-.58c0,0-3.62-7-5.46-7,0,0-4.46-1.18-6.43,1.58,0,0-6,6.82-6.69,7,0,0-20.73.43-22.57,1,0,0-12.07-4.17-13-7.3,0,0-1.7-2.23-2.36.13,0,0,.66,5.52-2.36,5.25,0,0-4.73-.39-4.73.27a23.65,23.65,0,0,1-.39,2.62,4.5,4.5,0,0,1,.53,4.72s-5,1.45-6.17,3.15Z" transform="translate(-319.08 -306.24)"/><path class="cls-5" d="M459.88,657.09s7.52-2.33,9.33-5.18a25.06,25.06,0,0,1,13-18.93s.78-11.41,7-11.93a14.82,14.82,0,0,0,12.71-7.25s6-19.45,9.85-19.71c0,0,7.26-2.07,5.18-11.92,0,0-2.33-4.93-2.07-9.34,0,0-3.11-6-8-4.66,0,0-7.52-12.19-14.26-16.33,0,0,5.19-20.49,5.45-23.86a31.49,31.49,0,0,1,4.66-4.14,15.32,15.32,0,0,1,5-2.71,13.3,13.3,0,0,1,3.25-.49,4.62,4.62,0,0,0,3-1.73,4.41,4.41,0,0,0,.53-1.26c.93-3,.51-4.33,1.47-5.23a2.68,2.68,0,0,1,1.82-.65l-4.26-1.49a10,10,0,0,0-2.88,6.11l-.18,2a18.43,18.43,0,0,1-6.75,1.69s-8.64,6.64-8.85,7.06-5.35,19.82-4.69,25.29c0,0,10.83,14,12.64,14.86s8.35,3.6,8.35,5.72c0,0,1.41,6.78,2.18,9.39,0,0,2,7.72-3.75,10.8a20.52,20.52,0,0,0-8.62,12.56s-2.55,12.87-9.47,13.6c0,0-10.61,1.4-11.29,5.36,0,0-.88,6.83-3.41,9.17,0,0-10.33,6.43-11.11,17.33Z" transform="translate(-319.08 -306.24)"/><path class="cls-5" d="M450.94,414.76h3.19s2.47-5.43,5.75-5.65,8.77,0,8.77,0a14.16,14.16,0,0,0,7.94,4.18,12.64,12.64,0,0,0,5.55-2.9l15,.24s6.84,4.91,9.12,5.27c0,0,8.39.28,10.56,1.18l1.08,3.44s-3.43-2.17-10.84-.72c0,0-9.76-5.37-11.2-5H482.11a13.24,13.24,0,0,1-5.22.8c-2.63-.23-8.49-2.93-8.49-2.93s-7-.75-8.41.07a59.64,59.64,0,0,0-5.11,3.38l-3.94.23Z" transform="translate(-319.08 -306.24)"/><path class="cls-5" d="M511.86,393.69c.22-.5.44-1,.68-1.51.53-1.13,1.08-2.2,1.64-3.2,0,0,1.92-2.49-2.11-6.52,0,0-1.77-7.09,2.57-10.73a27.65,27.65,0,0,1,9.49,2A28.34,28.34,0,0,1,536.05,383l-.45.58a50.62,50.62,0,0,0-19.48-9.64,6.15,6.15,0,0,0-1.81,1.43c-2.43,2.82-1.41,6.86-1.26,7.43,0,0,3.7,3.39,2.37,6.52-.28.66-.61,1.35-1,2.06a24.69,24.69,0,0,1-2.59,3.85Z" transform="translate(-319.08 -306.24)"/><path class="cls-5" d="M557,414.12s3.31-1.84,3.75-1.62,4.19,2.72,4.78,4.71h3.9s-.73-5.15,0-5.81c0,0,.81-2.06,2.36-2.29l-.12,3.15-.6,0h-1l0,5,0,2.13h-4.48c-.12-.4-1.29-4-4.77-5.11A7,7,0,0,0,557,414.12Z" transform="translate(-319.08 -306.24)"/><path class="cls-3" d="M409.66,712.37s-7.59,11.51,6.2,19.12H529.72s12.94-6.23,5.94-18.46Z" transform="translate(-319.08 -306.24)"/><path class="cls-6" d="M470,679.92" transform="translate(-319.08 -306.24)"/><path class="cls-6" d="M470,708" transform="translate(-319.08 -306.24)"/><path class="cls-7" d="M415.13,708s-4.93,2.55-5.88,5.17c0,0,3.25,5.49,5.1,5.49H529.72s6.41-3.35,6.14-5.33c0,0-2.53-3.93-6.14-5.33H470" transform="translate(-319.08 -306.24)"/><polygon class="cls-3" points="150.9 401.62 157.21 401.62 157.19 373.68 150.9 373.68 150.9 401.62"/></svg>