<?xml version="1.0" encoding="utf-8"?>
<!-- Generator: Adobe Illustrator 24.0.1, SVG Export Plug-In . SVG Version: 6.00 Build 0)  -->
<svg version="1.1" id="Calque_1" xmlns="http://www.w3.org/2000/svg" xmlns:xlink="http://www.w3.org/1999/xlink" x="0px" y="0px"
	 viewBox="0 0 290.6 232.1" style="enable-background:new 0 0 290.6 232.1;" xml:space="preserve">
<style type="text/css">
	.st0{fill:#C7E8FF;}
	.st1{fill:#E6F6FF;}
	.st2{fill:#E5E5E5;}
	.st3{fill:#DDBF8A;}
	.st4{fill:#C2B7F7;}
	.st5{fill:#D2C5FF;}
</style>
<rect x="73.2" y="69.4" class="st0" width="131.3" height="90.2"/>
<polygon class="st1" points="166.1,69.4 105.8,159.6 78,159.6 137.6,69.4 "/>
<path class="st2" d="M68.5,64.3v100.4h140.7V64.3H68.5z M73.2,69.4H137v90.2H73.2V69.4z M204.5,159.6h-63.9V69.4h63.9V159.6z"/>
<rect x="53.2" y="53.5" class="st3" width="170.9" height="3.7"/>
<g>
	<path class="st4" d="M70.3,57.1v117.2c0,2.5-3.8,4.5-8.6,4.5c-4.7,0-8.6-2-8.6-4.5V57.1c0,2.5,3.8,4.5,8.6,4.5
		C66.5,61.6,70.3,59.6,70.3,57.1z"/>
	<path class="st5" d="M70.3,57.1v117.2c0,2.5-3.8,4.5-8.6,4.5V61.6C66.5,61.6,70.3,59.6,70.3,57.1z"/>
	<path class="st4" d="M87.4,57.1v117.2c0,2.5-3.8,4.5-8.6,4.5c-4.7,0-8.6-2-8.6-4.5V57.1c0,2.5,3.8,4.5,8.6,4.5
		C83.6,61.6,87.4,59.6,87.4,57.1z"/>
	<path class="st5" d="M87.4,57.1v117.2c0,2.5-3.8,4.5-8.6,4.5V61.6C83.6,61.6,87.4,59.6,87.4,57.1z"/>
	<path class="st4" d="M104.5,57.1v117.2c0,2.5-3.8,4.5-8.6,4.5c-4.7,0-8.6-2-8.6-4.5V57.1c0,2.5,3.8,4.5,8.6,4.5
		C100.7,61.6,104.5,59.6,104.5,57.1z"/>
	<path class="st5" d="M104.5,57.1v117.2c0,2.5-3.8,4.5-8.6,4.5V61.6C100.7,61.6,104.5,59.6,104.5,57.1z"/>
</g>
<g>
	<path class="st4" d="M189.9,57.1v117.2c0,2.5-3.8,4.5-8.6,4.5c-4.7,0-8.6-2-8.6-4.5V57.1c0,2.5,3.8,4.5,8.6,4.5
		C186.1,61.6,189.9,59.6,189.9,57.1z"/>
	<path class="st5" d="M189.9,57.1v117.2c0,2.5-3.8,4.5-8.6,4.5V61.6C186.1,61.6,189.9,59.6,189.9,57.1z"/>
	<path class="st4" d="M207,57.1v117.2c0,2.5-3.8,4.5-8.6,4.5c-4.7,0-8.6-2-8.6-4.5V57.1c0,2.5,3.8,4.5,8.6,4.5
		C203.1,61.6,207,59.6,207,57.1z"/>
	<path class="st5" d="M207,57.1v117.2c0,2.5-3.8,4.5-8.6,4.5V61.6C203.1,61.6,207,59.6,207,57.1z"/>
	<path class="st4" d="M224.1,57.1v117.2c0,2.5-3.8,4.5-8.6,4.5c-4.7,0-8.6-2-8.6-4.5V57.1c0,2.5,3.8,4.5,8.6,4.5
		C220.2,61.6,224.1,59.6,224.1,57.1z"/>
	<path class="st5" d="M224.1,57.1v117.2c0,2.5-3.8,4.5-8.6,4.5V61.6C220.2,61.6,224.1,59.6,224.1,57.1z"/>
</g>
<path class="st2" d="M71,53.9c0-0.4-0.3-0.7-0.7-0.7c-0.4,0-0.7,0.3-0.7,0.7h0v4.9h0c0,0.4,0.3,0.7,0.7,0.7c0.4,0,0.7-0.3,0.7-0.7h0
	L71,53.9L71,53.9z"/>
<path class="st2" d="M53.9,53.9c0-0.4-0.3-0.7-0.7-0.7c-0.4,0-0.7,0.3-0.7,0.7h0v4.9h0c0,0.4,0.3,0.7,0.7,0.7c0.4,0,0.7-0.3,0.7-0.7
	h0L53.9,53.9L53.9,53.9z"/>
<path class="st2" d="M88.1,53.9c0-0.4-0.3-0.7-0.7-0.7c-0.4,0-0.7,0.3-0.7,0.7h0v4.9h0c0,0.4,0.3,0.7,0.7,0.7c0.4,0,0.7-0.3,0.7-0.7
	h0L88.1,53.9L88.1,53.9z"/>
<path class="st2" d="M105.2,53.9c0-0.4-0.3-0.7-0.7-0.7s-0.7,0.3-0.7,0.7h0v4.9h0c0,0.4,0.3,0.7,0.7,0.7s0.7-0.3,0.7-0.7h0
	L105.2,53.9L105.2,53.9z"/>
<path class="st2" d="M190.5,53.9c0-0.4-0.3-0.7-0.7-0.7s-0.7,0.3-0.7,0.7h0v4.9h0c0,0.4,0.3,0.7,0.7,0.7s0.7-0.3,0.7-0.7h0
	L190.5,53.9L190.5,53.9z"/>
<path class="st2" d="M173.5,53.9c0-0.4-0.3-0.7-0.7-0.7s-0.7,0.3-0.7,0.7h0v4.9h0c0,0.4,0.3,0.7,0.7,0.7s0.7-0.3,0.7-0.7h0
	L173.5,53.9L173.5,53.9z"/>
<path class="st2" d="M207.6,53.9c0-0.4-0.3-0.7-0.7-0.7s-0.7,0.3-0.7,0.7h0v4.9h0c0,0.4,0.3,0.7,0.7,0.7s0.7-0.3,0.7-0.7h0
	L207.6,53.9L207.6,53.9z"/>
<path class="st2" d="M224.7,53.9c0-0.4-0.3-0.7-0.7-0.7c-0.4,0-0.7,0.3-0.7,0.7h0v4.9h0c0,0.4,0.3,0.7,0.7,0.7
	c0.4,0,0.7-0.3,0.7-0.7h0L224.7,53.9L224.7,53.9z"/>
</svg>
