<?xml version="1.0" encoding="utf-8"?>
<!-- Generator: Adobe Illustrator 24.0.1, SVG Export Plug-In . SVG Version: 6.00 Build 0)  -->
<svg version="1.1" id="Calque_1" xmlns="http://www.w3.org/2000/svg" xmlns:xlink="http://www.w3.org/1999/xlink" x="0px" y="0px"
	 viewBox="0 0 300 145.9" style="enable-background:new 0 0 300 145.9;" xml:space="preserve">
<style type="text/css">
	.st0{fill:#F7F4E7;}
	.st1{fill:#E5E1D3;}
	.st2{fill:#C2B7F7;}
	.st3{fill:#D2C5FF;}
	.st4{fill:#DDBF8A;}
</style>
<g>
	<g>
		<path class="st0" d="M243,89H69.2c-5.3,0-9.6-4.3-9.6-9.6v0c0-5.3,4.3-9.6,9.6-9.6H243c5.3,0,9.6,4.3,9.6,9.6v0
			C252.6,84.7,248.3,89,243,89z"/>
		<path class="st1" d="M252.6,80.4v2.1c0,3.6-2.9,6.5-6.5,6.5h-180c-3.6,0-6.5-2.9-6.5-6.5v-6.3c0-3.6,2.9-6.5,6.5-6.5h139.1
			c0.8,6.5,3.9,11.9,11.8,11.9C227.6,81.7,241.7,81,252.6,80.4z"/>
	</g>
	<path class="st2" d="M247.6,67c-0.6,1.6-2.1,2.8-3.9,2.8H212c-2.3,0-4.2-1.9-4.2-4.2v-4c0-2.3,1.9-4.2,4.2-4.2h0.4
		c-2.4,4.9-2.5,10.1,4,9.6H247.6z"/>
	<path class="st3" d="M247.9,61.6v4c0,0.5-0.1,1-0.2,1.4c-0.6,1.6-2.1,2.8-3.9,2.8H212c-2.3,0-4.2-1.9-4.2-4.2v-4
		c0-2.3,1.9-4.2,4.2-4.2h31.7C246,57.4,247.9,59.3,247.9,61.6z"/>
	<path class="st3" d="M247.9,61.6v4c0,2.3-1.9,4.2-4.2,4.2H212c-2.3,0-4.2-1.9-4.2-4.2v-4c0-2.3,1.9-4.2,4.2-4.2h31.7
		C246,57.4,247.9,59.3,247.9,61.6z"/>
	<path class="st3" d="M63.4,89c-5.4,0-9.9-3.2-9.9-7V66.8c0-3.9,4.4-7,9.9-7h127.4c5.4,0,9.9,3.2,9.9,7V89H63.4z"/>
	<g>
		<path class="st3" d="M200.6,66.8V89H63.4c-5.4,0-9.9-3.2-9.9-7V66.8c0-3.9,4.4-7,9.9-7h127.4C196.2,59.8,200.6,62.9,200.6,66.8z"
			/>
		<path class="st2" d="M200.6,82.3V89H63.4c-5.4,0-9.9-3.2-9.9-7V66.8c0-3.9,4.4-7,9.9-7h4.4c2,7-3.6,17.6,21.9,20.9
			S162.8,80.4,200.6,82.3z"/>
	</g>
	<polygon class="st4" points="247.9,29 247.9,86.2 56.3,86.2 56.3,57.4 50.7,57.4 50.7,86.2 50.7,91.8 50.7,106.8 56.3,106.8 
		56.3,91.8 247.9,91.8 247.9,106.8 253.4,106.8 253.4,29 	"/>
	<path class="st2" d="M247.9,65.3v0.3c0,2.3-1.9,4.2-4.2,4.2H212c-2.3,0-4.2-1.9-4.2-4.2v-4c0-2.3,1.9-4.2,4.2-4.2h0.9
		c0.1,3.6,1.7,8.1,9.5,8C228.5,65.2,238.7,65.2,247.9,65.3z"/>
</g>
</svg>
