<svg xmlns="http://www.w3.org/2000/svg" viewBox="0 0 3711 187"><defs><style>.cls-1{fill:#f4f4f4;}</style></defs><title>clouds-v2</title><g id="Calque_2" data-name="Calque 2"><g id="Calque_21" data-name="Calque 21"><path class="cls-1" d="M443.88,139H273.12a.12.12,0,0,0-.12-.12h0a25.8,25.8,0,0,1,25.8-25.8H418.2a25.8,25.8,0,0,1,25.8,25.8h0A.12.12,0,0,0,443.88,139Z"/><circle class="cls-1" cx="397.2" cy="103.6" r="22.2"/><circle class="cls-1" cx="361.8" cy="90.4" r="35.4"/><circle class="cls-1" cx="313.8" cy="103" r="22.8"/><path class="cls-1" d="M711.88,87H541.12a.12.12,0,0,0-.12-.12h0a25.8,25.8,0,0,1,25.8-25.8H686.2A25.8,25.8,0,0,1,712,86.88h0A.12.12,0,0,0,711.88,87Z"/><circle class="cls-1" cx="665.2" cy="51.6" r="22.2"/><circle class="cls-1" cx="629.8" cy="38.4" r="35.4"/><circle class="cls-1" cx="581.8" cy="51" r="22.8"/><path class="cls-1" d="M958.88,161H788.12a.12.12,0,0,0-.12-.12h0a25.8,25.8,0,0,1,25.8-25.8H933.2a25.8,25.8,0,0,1,25.8,25.8h0A.12.12,0,0,0,958.88,161Z"/><circle class="cls-1" cx="912.2" cy="125.6" r="22.2"/><circle class="cls-1" cx="876.8" cy="112.4" r="35.4"/><circle class="cls-1" cx="828.8" cy="125" r="22.8"/><path class="cls-1" d="M1191.88,94H1021.12a.12.12,0,0,0-.12-.12h0a25.8,25.8,0,0,1,25.8-25.8h119.4a25.8,25.8,0,0,1,25.8,25.8h0A.12.12,0,0,0,1191.88,94Z"/><circle class="cls-1" cx="1145.2" cy="58.6" r="22.2"/><circle class="cls-1" cx="1109.8" cy="45.4" r="35.4"/><circle class="cls-1" cx="1061.8" cy="58" r="22.8"/><path class="cls-1" d="M170.88,84H.12A.12.12,0,0,0,0,83.88H0a25.8,25.8,0,0,1,25.8-25.8H145.2A25.8,25.8,0,0,1,171,83.88h0A.12.12,0,0,0,170.88,84Z"/><circle class="cls-1" cx="124.2" cy="48.6" r="22.2"/><circle class="cls-1" cx="88.8" cy="35.4" r="35.4"/><circle class="cls-1" cx="40.8" cy="48" r="22.8"/><path class="cls-1" d="M1699.88,152H1529.12a.12.12,0,0,0-.12-.12h0a25.8,25.8,0,0,1,25.8-25.8h119.4a25.8,25.8,0,0,1,25.8,25.8h0A.12.12,0,0,0,1699.88,152Z"/><circle class="cls-1" cx="1653.2" cy="116.6" r="22.2"/><circle class="cls-1" cx="1617.8" cy="103.4" r="35.4"/><circle class="cls-1" cx="1569.8" cy="116" r="22.8"/><path class="cls-1" d="M1967.88,100H1797.12a.12.12,0,0,0-.12-.12h0a25.8,25.8,0,0,1,25.8-25.8h119.4a25.8,25.8,0,0,1,25.8,25.8h0A.12.12,0,0,0,1967.88,100Z"/><circle class="cls-1" cx="1921.2" cy="64.6" r="22.2"/><circle class="cls-1" cx="1885.8" cy="51.4" r="35.4"/><circle class="cls-1" cx="1837.8" cy="64" r="22.8"/><path class="cls-1" d="M2214.88,174H2044.12a.12.12,0,0,0-.12-.12h0a25.8,25.8,0,0,1,25.8-25.8h119.4a25.8,25.8,0,0,1,25.8,25.8h0A.12.12,0,0,0,2214.88,174Z"/><circle class="cls-1" cx="2168.2" cy="138.6" r="22.2"/><circle class="cls-1" cx="2132.8" cy="125.4" r="35.4"/><circle class="cls-1" cx="2084.8" cy="138" r="22.8"/><path class="cls-1" d="M2447.88,107H2277.12a.12.12,0,0,0-.12-.12h0a25.8,25.8,0,0,1,25.8-25.8h119.4a25.8,25.8,0,0,1,25.8,25.8h0A.12.12,0,0,0,2447.88,107Z"/><circle class="cls-1" cx="2401.2" cy="71.6" r="22.2"/><circle class="cls-1" cx="2365.8" cy="58.4" r="35.4"/><circle class="cls-1" cx="2317.8" cy="71" r="22.8"/><path class="cls-1" d="M1426.88,97H1256.12a.12.12,0,0,0-.12-.12h0a25.8,25.8,0,0,1,25.8-25.8h119.4a25.8,25.8,0,0,1,25.8,25.8h0A.12.12,0,0,0,1426.88,97Z"/><circle class="cls-1" cx="1380.2" cy="61.6" r="22.2"/><circle class="cls-1" cx="1344.8" cy="48.4" r="35.4"/><circle class="cls-1" cx="1296.8" cy="61" r="22.8"/><path class="cls-1" d="M2962.88,165H2792.12a.12.12,0,0,0-.12-.12h0a25.8,25.8,0,0,1,25.8-25.8h119.4a25.8,25.8,0,0,1,25.8,25.8h0A.12.12,0,0,0,2962.88,165Z"/><circle class="cls-1" cx="2916.2" cy="129.6" r="22.2"/><circle class="cls-1" cx="2880.8" cy="116.4" r="35.4"/><circle class="cls-1" cx="2832.8" cy="129" r="22.8"/><path class="cls-1" d="M3230.88,113H3060.12a.12.12,0,0,0-.12-.12h0a25.8,25.8,0,0,1,25.8-25.8h119.4a25.8,25.8,0,0,1,25.8,25.8h0A.12.12,0,0,0,3230.88,113Z"/><circle class="cls-1" cx="3184.2" cy="77.6" r="22.2"/><circle class="cls-1" cx="3148.8" cy="64.4" r="35.4"/><circle class="cls-1" cx="3100.8" cy="77" r="22.8"/><path class="cls-1" d="M3477.88,187H3307.12a.12.12,0,0,0-.12-.12h0a25.8,25.8,0,0,1,25.8-25.8h119.4a25.8,25.8,0,0,1,25.8,25.8h0A.12.12,0,0,0,3477.88,187Z"/><circle class="cls-1" cx="3431.2" cy="151.6" r="22.2"/><circle class="cls-1" cx="3395.8" cy="138.4" r="35.4"/><circle class="cls-1" cx="3347.8" cy="151" r="22.8"/><path class="cls-1" d="M3710.88,120H3540.12a.12.12,0,0,0-.12-.12h0a25.8,25.8,0,0,1,25.8-25.8h119.4a25.8,25.8,0,0,1,25.8,25.8h0A.12.12,0,0,0,3710.88,120Z"/><circle class="cls-1" cx="3664.2" cy="84.6" r="22.2"/><circle class="cls-1" cx="3628.8" cy="71.4" r="35.4"/><circle class="cls-1" cx="3580.8" cy="84" r="22.8"/><path class="cls-1" d="M2689.88,110H2519.12a.12.12,0,0,0-.12-.12h0a25.8,25.8,0,0,1,25.8-25.8h119.4a25.8,25.8,0,0,1,25.8,25.8h0A.12.12,0,0,0,2689.88,110Z"/><circle class="cls-1" cx="2643.2" cy="74.6" r="22.2"/><circle class="cls-1" cx="2607.8" cy="61.4" r="35.4"/><circle class="cls-1" cx="2559.8" cy="74" r="22.8"/></g></g></svg>