<svg xmlns="http://www.w3.org/2000/svg" viewBox="0 0 4002 191"><defs><style>.cls-1{fill:#f4f4f4;}</style></defs><title>clouds-v3</title><g id="Calque_2" data-name="Calque 2"><g id="all_background" data-name="all background"><path class="cls-1" d="M510.77,143H314.25a.12.12,0,0,0-.12-.12h0a25.8,25.8,0,0,1,25.8-25.8H485.09a25.8,25.8,0,0,1,25.8,25.8h0A.12.12,0,0,0,510.77,143Z"/><ellipse class="cls-1" cx="457.04" cy="107.6" rx="25.54" ry="22.2"/><ellipse class="cls-1" cx="416.31" cy="94.4" rx="40.73" ry="35.4"/><ellipse class="cls-1" cx="361.08" cy="107" rx="26.24" ry="22.8"/><path class="cls-1" d="M869.78,84H673.26a.12.12,0,0,0-.12-.12h0a25.8,25.8,0,0,1,25.8-25.8H844.1a25.8,25.8,0,0,1,25.8,25.8h0A.12.12,0,0,0,869.78,84Z"/><ellipse class="cls-1" cx="816.05" cy="48.6" rx="25.54" ry="22.2"/><ellipse class="cls-1" cx="775.32" cy="35.4" rx="40.73" ry="35.4"/><ellipse class="cls-1" cx="720.08" cy="48" rx="26.24" ry="22.8"/><path class="cls-1" d="M1202.32,164H1005.8a.12.12,0,0,0-.12-.12h0a25.8,25.8,0,0,1,25.8-25.8h145.16a25.8,25.8,0,0,1,25.8,25.8h0A.12.12,0,0,0,1202.32,164Z"/><ellipse class="cls-1" cx="1148.59" cy="128.6" rx="25.54" ry="22.2"/><ellipse class="cls-1" cx="1107.86" cy="115.4" rx="40.73" ry="35.4"/><ellipse class="cls-1" cx="1052.62" cy="128" rx="26.24" ry="22.8"/><path class="cls-1" d="M1539.46,104H1342.94a.12.12,0,0,0-.12-.12h0a25.8,25.8,0,0,1,25.8-25.8h145.16a25.8,25.8,0,0,1,25.8,25.8h0A.12.12,0,0,0,1539.46,104Z"/><ellipse class="cls-1" cx="1485.73" cy="68.6" rx="25.54" ry="22.2"/><ellipse class="cls-1" cx="1445" cy="55.4" rx="40.73" ry="35.4"/><ellipse class="cls-1" cx="1389.77" cy="68" rx="26.24" ry="22.8"/><path class="cls-1" d="M196.64,88H.12A.12.12,0,0,0,0,87.88H0a25.8,25.8,0,0,1,25.8-25.8H171a25.8,25.8,0,0,1,25.8,25.8h0A.12.12,0,0,0,196.64,88Z"/><ellipse class="cls-1" cx="142.91" cy="52.6" rx="25.54" ry="22.2"/><ellipse class="cls-1" cx="102.18" cy="39.4" rx="40.73" ry="35.4"/><ellipse class="cls-1" cx="46.95" cy="52" rx="26.24" ry="22.8"/><path class="cls-1" d="M1919.18,171H1722.66a.12.12,0,0,0-.12-.12h0a25.8,25.8,0,0,1,25.8-25.8H1893.5a25.8,25.8,0,0,1,25.8,25.8h0A.12.12,0,0,0,1919.18,171Z"/><ellipse class="cls-1" cx="1865.45" cy="135.6" rx="25.54" ry="22.2"/><ellipse class="cls-1" cx="1824.72" cy="122.4" rx="40.73" ry="35.4"/><ellipse class="cls-1" cx="1769.49" cy="135" rx="26.24" ry="22.8"/><path class="cls-1" d="M2244.82,112H2048.3a.12.12,0,0,0-.12-.12V111a25.8,25.8,0,0,1,25.8-25.8h145.16a25.8,25.8,0,0,1,25.8,25.8v.93A.12.12,0,0,0,2244.82,112Z"/><ellipse class="cls-1" cx="2191.09" cy="75.34" rx="25.54" ry="22.99"/><ellipse class="cls-1" cx="2150.36" cy="61.66" rx="40.73" ry="36.66"/><ellipse class="cls-1" cx="2095.12" cy="74.71" rx="26.24" ry="23.61"/><path class="cls-1" d="M2594.62,180H2398.1a.12.12,0,0,0-.12-.12h0a25.8,25.8,0,0,1,25.8-25.8h145.16a25.8,25.8,0,0,1,25.8,25.8h0A.12.12,0,0,0,2594.62,180Z"/><ellipse class="cls-1" cx="2540.89" cy="144.6" rx="25.54" ry="22.2"/><ellipse class="cls-1" cx="2500.16" cy="131.4" rx="40.73" ry="35.4"/><ellipse class="cls-1" cx="2444.93" cy="144" rx="26.24" ry="22.8"/><path class="cls-1" d="M2984.69,124H2788.17a.12.12,0,0,0-.12-.12h0a25.8,25.8,0,0,1,25.8-25.8H2959a25.81,25.81,0,0,1,25.8,25.8h0A.12.12,0,0,0,2984.69,124Z"/><ellipse class="cls-1" cx="2930.96" cy="88.6" rx="25.54" ry="22.2"/><ellipse class="cls-1" cx="2890.23" cy="75.4" rx="40.73" ry="35.4"/><ellipse class="cls-1" cx="2835" cy="88" rx="26.24" ry="22.8"/><path class="cls-1" d="M3394.33,169H3197.81a.12.12,0,0,0-.12-.12h0a25.8,25.8,0,0,1,25.8-25.8h145.16a25.8,25.8,0,0,1,25.8,25.8h0A.12.12,0,0,0,3394.33,169Z"/><ellipse class="cls-1" cx="3340.6" cy="133.6" rx="25.54" ry="22.2"/><ellipse class="cls-1" cx="3299.87" cy="120.4" rx="40.73" ry="35.4"/><ellipse class="cls-1" cx="3244.63" cy="133" rx="26.24" ry="22.8"/><path class="cls-1" d="M3717.66,117H3521.15a.12.12,0,0,0-.13-.12h0a25.8,25.8,0,0,1,25.8-25.8H3692a25.8,25.8,0,0,1,25.8,25.8h0A.12.12,0,0,0,3717.66,117Z"/><ellipse class="cls-1" cx="3663.94" cy="81.6" rx="25.54" ry="22.2"/><ellipse class="cls-1" cx="3623.2" cy="68.4" rx="40.73" ry="35.4"/><ellipse class="cls-1" cx="3567.97" cy="81" rx="26.24" ry="22.8"/><path class="cls-1" d="M4001.88,191H3805.36a.12.12,0,0,0-.12-.12h0a25.8,25.8,0,0,1,25.8-25.8H3976.2a25.8,25.8,0,0,1,25.8,25.8h0A.12.12,0,0,0,4001.88,191Z"/><ellipse class="cls-1" cx="3948.15" cy="155.6" rx="25.54" ry="22.2"/><ellipse class="cls-1" cx="3907.42" cy="142.4" rx="40.73" ry="35.4"/><ellipse class="cls-1" cx="3852.18" cy="155" rx="26.24" ry="22.8"/></g></g></svg>