<svg id="Calque_1" data-name="Calque 1" xmlns="http://www.w3.org/2000/svg" viewBox="0 0 928.56 146.73"><defs><style>.cls-1{fill:#fda38c;}.cls-2{fill:#f9c8c6;}.cls-3{fill:#7e5e83;}.cls-4{fill:#fcefe5;}.cls-5{fill:#e6857f;}.cls-6{fill:#7d5f75;}.cls-7{fill:#9d789a;}</style></defs><title>explorius</title><circle class="cls-1" cx="457.67" cy="64.8" r="52.47"/><path class="cls-2" d="M453,458.06a4.77,4.77,0,0,1,1.12,1.9c.8,2.72-1.37,5.13-1.55,5.33,0,0-1.18.59,0,4.71a24.46,24.46,0,0,1-1.89,11.07s1.07,8.95-4.71,11.08a12.89,12.89,0,0,0-2.34,2.31,13.16,13.16,0,0,0-2.46,5.3A52.32,52.32,0,0,1,453,458.06Z" transform="translate(-35.38 -427.14)"/><path class="cls-2" d="M444.15,511.14s7.17-14.34,14-17.92c0,0,3.75-15.7,4.61-15.7,0,0,4.6-2,6-4.6,0,0-.07-3,.57-3.44,0,0,1.83-2.79,0-3.75,0,0-3-.24-3-7.09,0,0-3.77-3.69-2.33-6.73-.29-2.53.51-3.72,1-4.24a8.34,8.34,0,0,1,2.18-1.35c1.85-1,2.78-1.5,3.77-1.95,0,0,1.88-.85,3.94-1.52,3-1,23.11,1.59,50,8.9a24.73,24.73,0,0,1,3.36,5.53c1.49,3.12,2.57,7,1,9.85,0,0-2.56,3.69-5,2.89,0,0-1.87-.68-1.14,3.69,0,0-4,.63-4.55,2.63,0,0-.45,5.74-2.91,5.1a42.56,42.56,0,0,1-9.28-9.83s-12.6-4-16-4.27a9.55,9.55,0,0,1-4.6,1.91s-2.18-.09-2.91-1c0,0-2.73,1.09-.36,4.45,0,0,6.73,7.56,6.73,10.74,0,0,1.91,4-1,9.19,0,0-2,2.73,1.64,7.74,0,0,.63,4.36.1,6.08,0,0,.58,4.24-2.89,5.83,0,0-4.13.52-5.33,1.32,0,0-5,3.71-8.47,1.72a7.76,7.76,0,0,0-4.51-.26s-2.63,2.58-5.09,1.91c0,0-3.86-1-5.31-.68,0,0-5.83.41-6.95,7.94A41.83,41.83,0,0,1,444.15,511.14Z" transform="translate(-35.38 -427.14)"/><path class="cls-2" d="M485.68,545.61s10.93-15.8,11.08-16.54S503.4,527,501,519c0,0-5.91-5.76-5.91-6.94,0,0,4.14-10.19,3.55-12.41,0,0,.58-1.72,3.65-2.31a10.82,10.82,0,0,0,2.85-2.63s2.32-1.42,7.26.45c0,0,4.8,1.95,9.07-2.69,0,0,2.2-3.72,4.9,0,0,0,2.36-3.63,7.68.42a12.1,12.1,0,0,1,4-1.05s2.18-2.55,4.42-1.95c0,0,1.5.75,1.58,1.27S544.89,547.25,485.68,545.61Z" transform="translate(-35.38 -427.14)"/><path class="cls-3" d="M511.14,442.68l2.13-5.49,3.88-10s1.36-.33,1.19.77L517,431.76S577.11,460,549.28,521c0,0-22.16,50.52-78,32.94l-1.55,4.13s-1.41.88-1.64-.7l5.81-14.67a8.25,8.25,0,0,0,1.24.43l-1.49,4.6S518.4,566.46,543.78,519c0,0,26.28-52.14-28.79-81.16l-2.13,5.55Z" transform="translate(-35.38 -427.14)"/><path class="cls-4" d="M473.29,440.63s19.47-7.35,35.67-.54c0,0,.3,3.56,1.91,4.11,0,0,2,.07-.8-3.5,0,0,3.38-.13,4.86,1.53,0,0-.8,3.14,2.89,3.82,0,0,.74.86.55,1.35H516s-1.66-2-1.85-2.28c0,0-1.66.74-1.66,1.3,0,0,1.48,3,3.2,2.46,0,0,.8,1.35,1.54,1.41a1.79,1.79,0,0,0,1.13-1.66s.55-.93,1.91.38c0,0,1.78,2.05,1.38,3,0,0-1.93-.31-2,0a1.53,1.53,0,0,0,.2,2.48s1.24-1.47,1.89-1.52a12,12,0,0,1,4.7,3.83s1.42,5,1.32,5.9a2,2,0,0,0-.63.73,2.82,2.82,0,0,0-.21,1.32,5.45,5.45,0,0,0,0,.67,2.6,2.6,0,0,1-.66.17,2.24,2.24,0,0,1-.87-.1,4.12,4.12,0,0,0-.6-.86,3.89,3.89,0,0,0-1-.75,2.23,2.23,0,0,0-.61.15,2.18,2.18,0,0,0-.73.48l-2.19-4.12c0-.09-.21-.8.88-.38,0,0,1.86,1,2.45.63,0,0,1.18-1.94-2.78-4.38,0,0-1.85.26-2.11-.79,0,0-.89-.36-1.12.29,0,0-.1.46-.36.59a1.49,1.49,0,0,0-1.64-.78,1.22,1.22,0,0,1-.23-2s-2.7-3.74-6.93-3.74a2.8,2.8,0,0,0-1.27,1.46,2.9,2.9,0,0,0,.16,2.26,2.07,2.07,0,0,1,.68,1.1,2.38,2.38,0,0,1-.76,2.11s-.79,2.17.43,2a2.54,2.54,0,0,1,3.22,0s1,1.57,2.37.56l1.6-1.52a1.42,1.42,0,0,1,2,.07s1.71,2.37,1.64,3.06a1.23,1.23,0,0,1-.43,1.38s-1.67,1.05,0,1.9a1.87,1.87,0,0,1,.86,3s-1.22-.13-.79,3.19c0,0-.82,2.19-2.37.28,0,0-1.51.12-.73,3.32,0,0-.91,1.06-1.78-.9,0,0-.6-2.38,0-2.7,0,0,1.73.18,1.28-1.32a2.39,2.39,0,0,1-2.42-2.42s.13-2.15-1.15-2.29a1.68,1.68,0,0,0-.64,2s-.27,1.37-1.23.14c0,0,.09-1.28-1.46-1.42,0,0-3.75.37-5-1.37l-6.08-.36a3.06,3.06,0,0,1-3.7-.17s-2.61-1.22-4.75,0c0,0-2.43,2.89-2.49-1.27,0,0,1.85-1.1.46-2.61,0,0-4.63-7.19-12-3.62,0,0-2.39,3.51,4.63,5.3v1.85s-3.19-.46-1.74,2.67c0,0,.81,1.39-1.21,3.18,0,0-2.67.93-.53,4,0,0-.23,2,5.1,1.54,0,0,2.08,2.92,1.45,5.87a2.67,2.67,0,0,0,3,2s.4,4.58-1,5.52c0,0,3.94,3.78-.77,7.55,0,0,.51,6.17,4.11,7.62,0,0-1.28,3.69-.34,4.46,0,0,0,2.4-2.23,2.06l-3.51,0L476.46,513a3.22,3.22,0,0,1-2.9.07,3,3,0,0,1-1.32-1.44,2.85,2.85,0,0,0-2.33-.84,2.51,2.51,0,0,0-1.17.51,14.68,14.68,0,0,0-1.6,1,13.24,13.24,0,0,0-1.39,1.11l-7.38.34a10.13,10.13,0,0,1-4.93-2.89l-.12.25A4.2,4.2,0,0,0,453,513a1.77,1.77,0,0,1-.73.38,2.14,2.14,0,0,1-1.72-.35,3.06,3.06,0,0,0-.09.43,12.71,12.71,0,0,0,.09,1.88c0,.15,0,.38,0,.67a3.32,3.32,0,0,0-1.16.26,2,2,0,0,0-1.37,1.58s-.06,3-.57,3.39c0,0-3-1.21-2.47-8.27a11.68,11.68,0,0,1,5.57-7.12,7.23,7.23,0,0,1,1.09-3.38l3.38-1.95s-.4-1.78,1-2.3,6.54-5.34,6.37-5.91c0,0-.88-4.75.41-7.8,0,0,1.11-6.92,2.49-6.83a6.46,6.46,0,0,1,7.11-1.11s2.95-2.58,1.11-3.87c0,0-1.85-1.2-1.11-5.35,0,0,.83-5.45-1-6.19,0,0,1.73-1.36-.23-2.27a7.87,7.87,0,0,1-2.45-3.86c-.89-3.54,1.08-7.69,5-10.33a2.75,2.75,0,0,0,1-1.87c.06-1-.45-2.12-1.16-2.24A.78.78,0,0,0,473.29,440.63Z" transform="translate(-35.38 -427.14)"/><path class="cls-4" d="M489.66,548a6.51,6.51,0,0,0,2.17-1.9,7.72,7.72,0,0,0,1-2.13,8,8,0,0,1,3.59-3.93,10.92,10.92,0,0,0,.73-2.12,3.47,3.47,0,0,1,.39-1.19,2.82,2.82,0,0,1,1.17-1,5.64,5.64,0,0,0,3.34-1,5.94,5.94,0,0,0,2.33-4.09,21,21,0,0,0,1-2,5.9,5.9,0,0,1,1.06-2,3.06,3.06,0,0,1,1.69-.78c.21-.65.34-1.2.43-1.61a6.67,6.67,0,0,0,.14-1.13,5.24,5.24,0,0,0-.07-1,6.19,6.19,0,0,1-.58-1.41,11,11,0,0,1-.19-1.09c-.11-.58-.63-1.33-2.51-2.08l-4.92-5.63a41.14,41.14,0,0,0,.84-5c.19-1.84.14-2.63.68-3.55a5.68,5.68,0,0,1,3.65-2.37,1.93,1.93,0,0,0,2.21-.48,1.28,1.28,0,0,0,.23-.88s-.24-2.31,2.26-1.37c0,0,4.77,1.75,5.81,1.37,0,0,3.68-2.9,6,0,0,0,7.48,6.26,7.59,7,0,0,.88,1.11-1.22,3.32,0,0,1.53,6.24,2.29,6.3,0,0,2.94-1,3.54,3.46,0,0,.26,3.81,2.19,4.41a47.51,47.51,0,0,1-10.29,12.34C512,548.5,494.94,548.3,489.66,548Z" transform="translate(-35.38 -427.14)"/><path class="cls-4" d="M546.15,494.1s-1,19-7.32,25.93c0,0-2-1,1.41-5.54,0,0-1-1.26-4.51.89,0,0-.38-2.74.77-3.55,0,0,2.26-1.63,1.45-5.91,0,0-1.08-2.36-2.28,0,0,0,.46,4.06,0,4.36,0,0-2.48,2.73-4.23-.44,0,0,.67-2.3,2.15-.67,0,0,.37-2.59.81-5.61a4.56,4.56,0,0,0-2.29-.67s.07-2.88-2.59-2a24.6,24.6,0,0,0-3.84.59s-3.49-2.13-3.25-5.21c0,0,2.83-5.81,6.16-.15,0,0,.67,3.23,2,.3,0,0,2-2.25,3.65,0a15.92,15.92,0,0,0,4.38.54s2.44,4.6,3.37,2.54c0,0,2-1.27-1-2.59a2.34,2.34,0,0,0,.54-3.31A3.46,3.46,0,0,1,546.15,494.1Z" transform="translate(-35.38 -427.14)"/><path class="cls-5" d="M447.46,521.26a7.54,7.54,0,0,0,.42-1.82l.09-.94a3.37,3.37,0,0,1,.14-1,2.23,2.23,0,0,1,.36-.63,3,3,0,0,1,1-.66,2.74,2.74,0,0,1,1.05-.19c-.05-.68-.1-1.21-.15-1.65a3,3,0,0,1,0-.85,2.54,2.54,0,0,1,.14-.51l.79.07c.47,0,.93.06,1.38.08,0,0,.29-1.58.49-2.77,0,0,3.95,3.46,5.72,3a68.76,68.76,0,0,1,7.11-.19s3-3.26,4.14-2.77a4.38,4.38,0,0,1,1.29.6,14.14,14.14,0,0,1,2.17,1.67,6.11,6.11,0,0,0,2.46.1c.6-.29,4.94-3.35,4.94-3.35h4.44a2.41,2.41,0,0,0,1.28-1.29c.14-.4.08-.72.15-.73a1.87,1.87,0,0,1,.23,1.81,2.14,2.14,0,0,1-1,1.1l-4.54.09-5.23,3.46a23.57,23.57,0,0,1-3.55-.2s-1.25-2.42-1.89-2.42c0,0-1.54-.41-2.22.54a26.79,26.79,0,0,1-2.31,2.4s-7.15.15-7.78.35c0,0-4.17-1.44-4.48-2.52,0,0-.59-.77-.82.05,0,0,.23,1.9-.81,1.81,0,0-1.63-.14-1.63.09a7.92,7.92,0,0,1-.14.9,1.56,1.56,0,0,1,.18,1.63s-1.72.5-2.13,1.09Z" transform="translate(-35.38 -427.14)"/><path class="cls-5" d="M489.15,548.2s2.6-.81,3.22-1.79a8.64,8.64,0,0,1,4.48-6.53s.26-3.94,2.41-4.12a5.1,5.1,0,0,0,4.38-2.5s2.06-6.71,3.4-6.8c0,0,2.51-.72,1.79-4.11a7.87,7.87,0,0,1-.71-3.23s-1.08-2-2.78-1.61c0,0-2.59-4.2-4.92-5.63,0,0,1.79-7.07,1.88-8.23a10.8,10.8,0,0,1,1.61-1.43,5.3,5.3,0,0,1,1.72-.93,3.79,3.79,0,0,1,1.12-.17,1.62,1.62,0,0,0,1.05-.6,1.48,1.48,0,0,0,.19-.44c.32-1,.17-1.49.5-1.8a1,1,0,0,1,.63-.23l-1.47-.51a3.41,3.41,0,0,0-1,2.11l-.06.68a6.31,6.31,0,0,1-2.33.58s-3,2.29-3.06,2.44-1.84,6.84-1.62,8.72c0,0,3.74,4.82,4.37,5.13s2.88,1.24,2.88,2c0,0,.48,2.34.75,3.25,0,0,.67,2.66-1.3,3.72a7.09,7.09,0,0,0-3,4.34s-.88,4.44-3.27,4.69c0,0-3.66.48-3.89,1.85,0,0-.31,2.35-1.18,3.16,0,0-3.56,2.22-3.83,6Z" transform="translate(-35.38 -427.14)"/><path class="cls-5" d="M486.07,464.58h1.1s.85-1.87,2-1.95,3,0,3,0a4.88,4.88,0,0,0,2.74,1.44,4.29,4.29,0,0,0,1.92-1l5.17.08a15,15,0,0,0,3.14,1.82,19.58,19.58,0,0,1,3.65.41l.37,1.19s-1.18-.75-3.74-.25c0,0-3.37-1.85-3.87-1.74h-4.74a4.63,4.63,0,0,1-1.8.28,14,14,0,0,1-2.93-1,10.09,10.09,0,0,0-2.9,0,19.63,19.63,0,0,0-1.76,1.17l-1.36.07Z" transform="translate(-35.38 -427.14)"/><path class="cls-5" d="M507.09,457.31c.07-.17.15-.34.23-.52q.29-.59.57-1.11s.66-.86-.73-2.24c0,0-.61-2.45.89-3.71a9.7,9.7,0,0,1,3.27.69,9.9,9.9,0,0,1,4.12,3.18l-.16.2a18,18,0,0,0-3.1-2,17.63,17.63,0,0,0-3.62-1.33,2.29,2.29,0,0,0-.63.49,3,3,0,0,0-.43,2.56s1.28,1.18.82,2.25c-.1.23-.21.47-.34.72a8.17,8.17,0,0,1-.9,1.32Z" transform="translate(-35.38 -427.14)"/><path class="cls-5" d="M522.67,464.36s1.15-.64,1.3-.56,1.45.94,1.65,1.63H527s-.26-1.78,0-2c0,0,.27-.71.81-.79l0,1.09h-.54l0,1.72v.73h-1.55A2.71,2.71,0,0,0,524,464.4,2.45,2.45,0,0,0,522.67,464.36Z" transform="translate(-35.38 -427.14)"/><path class="cls-6" d="M471.82,567.27s-2.61,4,2.15,6.6h39.28s4.47-2.15,2-6.37Z" transform="translate(-35.38 -427.14)"/><path class="cls-3" d="M492.64,556.07" transform="translate(-35.38 -427.14)"/><path class="cls-3" d="M492.64,565.76" transform="translate(-35.38 -427.14)"/><path class="cls-7" d="M473.71,565.76s-1.7.88-2,1.78c0,0,1.13,1.9,1.76,1.9h39.81s2.21-1.16,2.12-1.84a5.21,5.21,0,0,0-2.12-1.84H492.64" transform="translate(-35.38 -427.14)"/><rect class="cls-3" x="457.26" y="128.94" width="2.17" height="9.64"/><path class="cls-1" d="M112.33,433.46q-1.35,9.41-2.69,18.8H60.71v37h42.6v18.8H60.71v39H113.1v19H35.38V433.46Z" transform="translate(-35.38 -427.14)"/><path class="cls-1" d="M190.24,494.48l39.33,71.58H201.36q-13.23-27.16-26.48-54.31l-26.29,54.31h-27q19.19-35.31,38.38-70.62l-35.31-62h28.21Q164,456.4,175.27,479.32l23.41-45.86h27Z" transform="translate(-35.38 -427.14)"/><path class="cls-1" d="M323.69,444q14.12,10.56,14.11,31.66,0,22.08-14.2,33.11t-37.8,11H270.25v46.25H244.92V433.46h39.15Q309.58,433.46,323.69,444Zm-19.28,51.14q6.9-5.65,6.91-19.48,0-23.6-27.44-23.6H270.25v48.74h13.63Q297.5,500.81,304.41,495.15Z" transform="translate(-35.38 -427.14)"/><path class="cls-1" d="M383.66,433.46V545.33h53.15l-2.88,20.73h-75.6V433.46Z" transform="translate(-35.38 -427.14)"/><path class="cls-1" d="M621.22,512.9H605.1v53.16H579.77V433.46H619.3q52.58,0,52.58,39,0,13.24-6.53,21.88T645,508.3l34.74,57.76H650.58ZM605.1,494.67h15.74q12.09,0,18.32-5.28t6.24-17q0-10.74-6.43-15.64t-20.24-4.89H605.1Z" transform="translate(-35.38 -427.14)"/><path class="cls-1" d="M722.34,433.46v132.6H697V433.46Z" transform="translate(-35.38 -427.14)"/><path class="cls-1" d="M850.14,522.69a49.32,49.32,0,0,1-5.66,23.89A39.87,39.87,0,0,1,827.6,563q-11.24,5.94-27,5.94-23.8,0-36.46-12.56t-12.67-33.68V433.46h25.33v87.88q0,14,5.85,20.92t17.95,6.91q12.27,0,18.13-6.91t5.85-20.92V433.46h25.52Z" transform="translate(-35.38 -427.14)"/><path class="cls-1" d="M940.72,434.61a62.18,62.18,0,0,1,19.38,12.28l-12.48,14.39a49.3,49.3,0,0,0-14.29-8.63A43.86,43.86,0,0,0,917.88,450q-9.21,0-14.87,4.13a13.51,13.51,0,0,0-5.66,11.61,14.44,14.44,0,0,0,2.2,8.25q2.21,3.26,8,6.14a116.11,116.11,0,0,0,17.08,6.33q19.57,6.15,29.45,15.26t9.88,26.57a37.58,37.58,0,0,1-6,21.11,40.05,40.05,0,0,1-17.37,14.39q-11.32,5.19-26.86,5.18A71.33,71.33,0,0,1,886.51,564a63.22,63.22,0,0,1-20.63-13.34l13-14.58A58.63,58.63,0,0,0,894.85,546a47.91,47.91,0,0,0,18.23,3.36q10.95,0,17.66-5.18t6.71-14.58a17.8,17.8,0,0,0-2.3-9.5c-1.53-2.5-4.16-4.73-7.87-6.72a96.4,96.4,0,0,0-16.12-6.24q-21.1-6.51-30.51-15.73t-9.4-24.18A32.69,32.69,0,0,1,877,448a37.94,37.94,0,0,1,16-12.85,56.37,56.37,0,0,1,23.32-4.61Q930.34,430.58,940.72,434.61Z" transform="translate(-35.38 -427.14)"/></svg>