<?xml version="1.0" encoding="utf-8"?>
<!-- Generator: Adobe Illustrator 24.0.1, SVG Export Plug-In . SVG Version: 6.00 Build 0)  -->
<svg version="1.1" id="Calque_1" xmlns="http://www.w3.org/2000/svg" xmlns:xlink="http://www.w3.org/1999/xlink" x="0px" y="0px"
	 viewBox="0 0 577.83 552.12" style="enable-background:new 0 0 577.83 552.12;" xml:space="preserve">
<style type="text/css">
	.st0{fill:#DCCAFF;}
	.st1{fill:#C49796;}
	.st2{fill:#C4A4F7;}
	.st3{fill:#C5FBFC;}
</style>
<title>home</title>
<g id="Calque_2_1_">
	<g id="Calque_1-2">
		<path class="st0" d="M479.6,313.19c-0.75-0.88-1.46-1.81-2.15-2.74L289.34,88.11l-188.1,222.34c-0.69,0.93-1.4,1.86-2.15,2.74
			c-2.5,2.95-5.29,5.56-8.31,7.77v231.16h145.47V442.1l0,0c0-0.18,0-0.36,0-0.54c0.41-35.02,25.51-63.02,56.07-62.55
			c29.98,0.46,54.18,28.2,54.58,62.55c0,0.18,0,0.36,0,0.54l0,0v110.02h152.94V327.13C492.14,324.6,485.16,319.79,479.6,313.19z"/>
		<path class="st1" d="M349.48,415.43c-0.44-31.69-26.25-57.25-58.04-57.25c-32.07,0-58.06,26-58.06,58.06
			c0,1.2,0.05,2.39,0.12,3.57V551H349.5V415.43H349.48z"/>
		<circle class="st2" cx="324.91" cy="469.86" r="14.56"/>
		<g>
			<rect x="97.96" y="98.6" class="st0" width="57.98" height="145.81"/>
			<rect x="88.7" y="94.53" class="st2" width="76.5" height="26.57"/>
		</g>
		<path class="st2" d="M288.91,13.03L7.04,340.15c0,0,59.07,20.41,77.84,1.39c0.81-0.84,1.57-1.69,2.3-2.57l202.01-225.99
			l201.39,225.99c0.74,0.88,1.5,1.73,2.31,2.57c19.18,19.43,79.15-2.19,79.15-2.19L288.91,13.03z"/>
		<g>
			<path class="st3" d="M278.48,252.34v-43.48c-21.51,4.27-38.29,21.66-41.66,43.48H278.48z"/>
			<path class="st3" d="M237.51,272.23c4.6,20.08,20.68,35.77,40.97,39.8v-39.8H237.51z"/>
		</g>
		<g>
			<path class="st3" d="M340.76,252.34c-3.49-22.54-21.27-40.35-43.8-43.86v43.86H340.76z"/>
			<path class="st3" d="M296.95,272.23v40.18c21.29-3.32,38.35-19.4,43.11-40.18H296.95z"/>
		</g>
	</g>
</g>
</svg>
