<svg xmlns="http://www.w3.org/2000/svg" viewBox="0 0 577.83 552.12"><defs><style>.cls-1{fill:#f6f0ff;}</style></defs><title>home</title><g id="Calque_2" data-name="Calque 2"><g id="Calque_1-2" data-name="Calque 1"><path class="cls-1" d="M564.32,260.22l0,0L327,15.46l-.41-.45-.45-.43-.95-1,0,0A49.27,49.27,0,0,0,288.91.05a49.26,49.26,0,0,0-36.24,13.56l0,0-1,1-.44.43c-.14.15-.27.3-.42.45L13.48,260.2l0,0a49.43,49.43,0,0,0,71.4,68.36c.81-.84,1.57-1.69,2.3-2.57l201.7-208,201.7,208c.74.88,1.5,1.73,2.31,2.57a49.43,49.43,0,0,0,71.4-68.36Z"/><path class="cls-1" d="M479.6,343.64c-.75-.77-1.46-1.58-2.15-2.39l-188.11-194-188.1,194c-.69.81-1.4,1.62-2.15,2.39a46.63,46.63,0,0,1-8.31,6.78v201.7H236.25v-96h0c0-.16,0-.31,0-.47a55.33,55.33,0,0,1,110.65,0c0,.16,0,.31,0,.47h0v96H499.84V355.81A45.73,45.73,0,0,1,479.6,343.64Z"/></g></g></svg>