<svg xmlns="http://www.w3.org/2000/svg" viewBox="0 0 753.7 729.57"><defs><style>.cls-1{fill:#86c2bd;}.cls-2{fill:#d9d965;}.cls-3{fill:#91d2cd;}.cls-4{fill:#e9e96d;}</style></defs><title>icon-map</title><g id="Calque_2" data-name="Calque 2"><g id="Calque_1-2" data-name="Calque 1"><polygon class="cls-1" points="376.98 0.3 376.98 452.02 189.12 728 188.72 728.59 188.72 271.36 375.05 0.3 376.98 0.3"/><path class="cls-2" d="M189.54,362.78c-3.56-9.57-2.39-57,0-62.7s8.7,1.41,14.54,2.4C229.87,306.82,207.49,411,189.54,362.78Z"/><path class="cls-2" d="M375.5,81.92V318.44c-3,20.59-4.89,51.12-7.14,56.6C337.53,450.1,282.19,534.38,256,539.8s40.82-111.25,22.13-111.25-19.81-22.18-21.73-59.72,98.84-91.48,98.84-121.33-59,49.51-72,54.93-1.66-28.92,3.94-34.34-10.6-26.2,11.83-34.35,36.84-61.57,33.11-77.85-28.79,34-36.27,58.39-10.24-12.59-10.24-12.59,18.57-79.3,41-84.72C340.61,113.57,360.39,89.8,375.5,81.92Z"/><path class="cls-2" d="M377,429.76V452L189.12,728h-.45V664.8h.05c1.72-.19,3.31-.32,4.75-.39C217.15,663.29,311.16,485.68,377,429.76Z"/><polygon class="cls-3" points="188.66 728.51 188.66 271.28 2.34 0.22 0.41 0.22 0.41 451.94 188.66 728.51"/><path class="cls-4" d="M68.71,203.44c0,7.66-17.37,25.63-16,42.86S96.75,317,96.75,323.68,46.44,277.12,57.83,329c3.76,17.13,52.44,50.31,51.78,54.13S38.91,352,40.23,367.35,102,464,110.13,478.62c7.88,14.13,43,48.47,43,48.47S121,484.06,120,472.6c-5.17-55.63,41.8-70.6,28-85s-62.75-34.79-68.86-42.86c-39.4-52.06,40,.21,35.41-9.36s16.49-6.27,16.75-10.08c2.54-37.19,36.38,33.72,32.24-6.12-1.19-11.4-27-75.14-27.63-56S94.41,287,105,262.09,148,242.93,125.63,241,39.19,118.42,39.19,132.77,54.21,194.42,68.71,203.44Z"/><path class="cls-4" d="M189.26,665.83l-3.2.13C154.27,667.45,27.77,444.32,0,427.32c.14,12.5.41,24.62.41,24.62L189.26,729.57Z"/><polygon class="cls-1" points="753.7 0.46 753.7 452.17 565.85 728.16 565.45 728.75 565.45 271.51 751.77 0.46 753.7 0.46"/><path class="cls-2" d="M753.7,429.92v22.25l-187.85,276h-.45V665h.05q2.58-.29,4.74-.39C593.88,663.45,687.88,485.84,753.7,429.92Z"/><polygon class="cls-3" points="565.47 728.29 565.47 271.06 379.15 0 377.22 0 377.22 451.71 565.47 728.29"/><path class="cls-4" d="M566.07,665.61l-3.2.13c-31.79,1.49-157.82-219-185.59-236,.14,12.5-.06,22-.06,22L566.07,729.35Z"/><path class="cls-4" d="M565.59,323.47,564.74,443c-3.74-.46-43.87-68.86-47.29-67.44-13.08,5.43-24.61-5.07-32.09,3.06s-26.3-62.54-33.78-81.55-41.45-41.83-39.69-22.8c8.45,91.48-18.69,32.56-29.91,27.14-2.6-1.26-4.5,1.71-6,7.1v-228c8.25-4.67,15.12-11.17,19-20.64,11.22-27.13,87.77,120.26,128.68,222.73C528.18,293.78,554.85,321.8,565.59,323.47Z"/><path class="cls-4" d="M560.34,530.82c-4.86-.36-16.4-16.17-17.39-32-1.55-24.84,7-26,7-14.68,0,8.9,6.77,20.61,10.39,32.36a50.67,50.67,0,0,1,2,9.42C562.77,529.46,561.9,530.93,560.34,530.82Z"/><path class="cls-4" d="M565.24,544.57V641c-19.41-12.41-35-60.52-25.16-87.55C546.13,536.74,555.69,553.63,565.24,544.57Z"/><path class="cls-2" d="M643.14,268.46C634.82,254.84,613,330.22,613,368.22c0,28.54-31.35,66.55-48.28,74.81l.85-119.56C601.14,328.83,637.73,196,649.25,196,664.21,196,672.78,317,643.14,268.46Z"/><path class="cls-2" d="M641.63,338.75s-13,56.42-2.59,52.66c0,0,2.69-24.56,6.92-35.49s16-28,9.88-33.48S638.71,327,641.63,338.75Z"/><path class="cls-2" d="M619.85,545.05c-5.46,0-33.44,73.92-54.78,94.49V544c23.08-22.25,20.84-56.15,34.81-62.68s47.83-62.09,66.38-23.19S630.15,545.05,619.85,545.05Z"/></g></g></svg>