<svg xmlns="http://www.w3.org/2000/svg" viewBox="0 0 494.19 312.56"><defs><style>.cls-1{fill:#91d2cd;}.cls-2{fill:#e9e96d;}.cls-3{fill:#ffbc97;}</style></defs><title>map-icon</title><g id="Calque_2" data-name="Calque 2"><g id="Calque_1-2" data-name="Calque 1"><polygon id="sea" class="cls-1" points="494.19 312.56 0 312.56 61.8 96.94 431.12 95.12 494.19 312.56"/><path class="cls-2" d="M49.31,237.66s40.82-35,24.53-31.94c-23.27,4.39-14.23-11.76-8.08-15.07S98.5,174.1,85.17,173.44s-9.3-12.83-7.25-17.47-3.55-12.33-13.81-11.67,11.28-14.56,20.51-13.9,10.79-1.69,13.87,8.24,9.09,15.37,21.4,7.43,21.72,2.87,21.72,7.5,1.58,32.28-12.94,23.78c-19.24-11.27-21.88,1.59-22.91,9.53S71.22,186,73,195.26s12.41.2,13.44,4.83,14.15,1.82,14.15,12.41-13.48,53.86-25.78,55.19S43.15,244.28,49.31,237.66Z"/><path class="cls-2" d="M151.1,136.84s-2.83,12.32,5,16.88-.71,19.16,7.77,18.71,29-6.85,24.74-15.52S201.28,129.54,151.1,136.84Z"/><path class="cls-2" d="M234.94,177.41S212.38,186,218.53,188s42,2.65,41,7.95-24.62,11.92-34.88,19.2-37.94,20.53-8.2,19.86,34.87,8,31.79,17.22-26.66,32.44,2.06,23.84,37.94-35.76,32.81-38.41,24.62,6.62,24.62,2-13.33-19.2-4.1-19.2S337.5,231,341.6,235s24.62-15.22,24.62-15.22,45.12,7.94,46.15-.67-21.56-41.05-18.49-41.05S418.31,198.6,422.41,194s.2-37.08-14.16-37.08-67.69-6.62-74.87-8.61S321.13,137,307.8,137s1.79,15.89-14.62,17.21-2.86-8.6-17.21-7.94-30.77,9.93-28.72,12.58S278,147.61,278,153.57s-41,8.61-42,12.58S234.94,177.41,234.94,177.41Z"/><path class="cls-2" d="M384.68,236.34s33.84,20.52,32.82,15.23S394.94,234.35,384.68,236.34Z"/><path class="cls-2" d="M441.09,249.58s-39,10.6-39,16.55S449.29,288,461.6,280,481.09,243.62,441.09,249.58Z"/><path class="cls-2" d="M218,165.09s-7.22,14,0,12.57S224.7,170.48,218,165.09Z"/><path class="cls-2" d="M209.68,168.32s-7.22,6.11-3.89,5.75S211.91,175.86,209.68,168.32Z"/><path class="cls-2" d="M0,312.56S66.71,300.8,94.43,300.8s46.68-8.18,51.06-6.64,99.21,5.62,118.18,5.62,230.52,12.78,230.52,12.78Z"/><path class="cls-3" d="M244.67,0a59.62,59.62,0,0,0-52.19,88.44l49.61,127.75L295.32,91.07A59.62,59.62,0,0,0,244.67,0Zm-1.83,89.31a25.58,25.58,0,1,1,25.57-25.57A25.57,25.57,0,0,1,242.84,89.31Z"/></g></g></svg>