<svg xmlns="http://www.w3.org/2000/svg" viewBox="0 0 3835.4 647.23"><defs><style>.cls-1{fill:#429191;}.cls-2{fill:#2b666d;}.cls-3{fill:#a6d6cf;}.cls-4{fill:#194043;}</style></defs><title>mountains-v2</title><g id="Calque_2" data-name="Calque 2"><g id="Calque_21" data-name="Calque 21"><polygon class="cls-1" points="748.31 534.64 644.37 330.63 545.66 537.23 748.31 534.64"/><polygon class="cls-2" points="644.25 336.23 630.25 386.23 628.25 423.23 600.25 465.23 589.25 445.23 644.25 330.23 644.25 336.23"/><polygon class="cls-1" points="427.11 479.78 208.04 49.8 0 485.23 427.11 479.78"/><path class="cls-2" d="M207.75,50.19v76.34l36.79,61.62s-31.27,67.14-31.27,79.1S251,315.08,251,315.08l23.92,63.46-34,48.75,172.91,24.83Z"/><polygon class="cls-1" points="680.19 602.11 514.31 276.51 356.78 606.23 680.19 602.11"/><path class="cls-2" d="M514.25,285.23s-4,89-5,94-13,39-13,39l18,47s-22,34-28,36-54.74,18.51-54.74,18.51l-24.57-18.51,107.31-225Z"/><polygon class="cls-1" points="970.25 607.18 789.96 253.31 618.74 611.66 970.25 607.18"/><polygon class="cls-2" points="789.31 262.85 802.6 342.58 830 400.71 816.72 453.87 802.6 501.21 774.36 591.73 884.82 574.29 933.82 536.09 872.89 416.09 789.31 253.71 789.31 262.85"/><polygon class="cls-1" points="1057.31 549.64 953.37 345.63 854.66 552.23 1057.31 549.64"/><polygon class="cls-2" points="953.25 351.23 939.25 401.23 937.25 438.23 900.25 502.23 885.25 488.23 953.25 345.23 953.25 351.23"/><polygon class="cls-1" points="1278.25 512.6 1136.55 234.48 1001.99 516.12 1278.25 512.6"/><polygon class="cls-2" points="1134.88 250.39 1148.26 319.94 1148.26 367.2 1175.01 392.17 1216.92 456.38 1258.83 473.32 1221.8 401.8 1136.67 234.34 1134.88 250.39"/><polygon class="cls-1" points="2213.31 530.64 2109.37 326.63 2010.66 533.23 2213.31 530.64"/><polygon class="cls-2" points="2109.25 332.23 2095.25 382.23 2093.25 419.23 2051.25 478.23 2044.25 461.23 2109.25 326.23 2109.25 332.23"/><polygon class="cls-1" points="2559.11 516.78 2340.04 86.8 2132 522.23 2559.11 516.78"/><path class="cls-2" d="M2339.75,87.19v76.34l36.79,61.62s-31.27,67.14-31.27,79.1S2383,352.08,2383,352.08l23.92,63.46-39.65,98.69,178.53-25.11Z"/><polygon class="cls-1" points="2082.25 534.88 1859.88 98.43 1648.72 540.41 2082.25 534.88"/><path class="cls-2" d="M1859.81,110.11s-5.37,119.31-6.71,126-17.42,52.28-17.42,52.28l24.13,63s-29.49,45.58-37.54,48.26-100,75.57-100,75.57l-30-25L1859.81,98.05Z"/><polygon class="cls-1" points="1742.41 536.53 1593.75 244.75 1452.58 540.23 1742.41 536.53"/><polygon class="cls-2" points="1593.22 252.61 1604.17 318.35 1626.77 366.29 1615.82 410.12 1604.17 449.15 1580.89 523.79 1671.97 509.41 1712.37 477.91 1662.14 378.97 1593.22 245.08 1593.22 252.61"/><polygon class="cls-1" points="1564.25 479.6 1422.55 201.48 1287.99 483.12 1564.25 479.6"/><polygon class="cls-2" points="1426.25 218.23 1442.25 285.94 1442.25 333.2 1469 358.17 1510.91 422.38 1552.82 439.32 1515.79 367.8 1422.25 201.23 1426.25 218.23"/><polygon class="cls-1" points="3463.31 508.64 3359.37 304.63 3260.66 511.23 3463.31 508.64"/><polygon class="cls-2" points="3359.25 310.23 3345.25 360.23 3343.25 397.23 3315.25 439.23 3304.25 419.23 3359.25 304.23 3359.25 310.23"/><polygon class="cls-1" points="3834.25 513.23 3620.04 82.8 3412 518.23 3834.25 513.23"/><path class="cls-2" d="M3619.75,83.19v76.34l36.79,61.62s-31.27,67.14-31.27,79.1S3663,348.08,3663,348.08l23.92,63.46-31.65,96.69,170.53-23.11Z"/><polygon class="cls-1" points="3433.72 592.95 3131.88 0.52 2845.25 600.46 3433.72 592.95"/><path class="cls-2" d="M3131.78,16.38s-7.28,161.94-9.1,171-23.66,71-23.66,71l32.76,85.52s-40,61.86-51,65.5-99.6,33.68-99.6,33.68l-44.7-33.68L3131.78,0Z"/><polygon class="cls-1" points="3058.23 516.14 2872.83 152.23 2696.76 520.75 3058.23 516.14"/><polygon class="cls-2" points="2872.16 162.03 2885.83 244.03 2914.01 303.81 2900.34 358.47 2885.83 407.15 2856.79 500.25 2970.38 482.31 3047.25 486.23 2958.11 319.63 2872.16 152.64 2872.16 162.03"/><polygon class="cls-1" points="2815.92 478.43 2703.28 257.34 2596.31 481.23 2815.92 478.43"/><polygon class="cls-2" points="2701.96 269.99 2712.59 325.28 2712.59 362.85 2733.86 382.7 2767.17 433.74 2800.49 447.2 2771.05 390.35 2703.38 257.23 2701.96 269.99"/><path class="cls-3" d="M110.2,508.54c47,3.49,61.81,29.63,73.11,27.89s75.78-2.83,120.36,8.49,118.59-36.81,143.55-29.84,102.24,43.13,127.2,37c19.3-4.71,56.53-23.87,86.72-27.9-16.8-4.16-31.17-7.36-39.89-8-29-2.11-132-31.7-156-29.58s-89-70.44-143-73.26-163,33.81-199,28.88-122,44.38-122,44.38l.11,144.8h.06V528.15S63.24,505.06,110.2,508.54Z"/><path class="cls-3" d="M892.75,529.77l.25,0s28,34.44,47,33,46-33,62-33,65,67.41,87,65.94,46-29.3,65-33,59-48.35,83-47.62c21.39.65,39.15,4.83,43.45,13v.13c8-3.07,65.37-31,108.92-27.6,47,3.71,61.81,31.55,73.11,29.69s90.36-34.71,134.94-22.64S1828.46,553.5,1853.42,547c12.74-3.32,52.91-14,93.53-23.37-19.7-5.26-36.82-9.51-46.7-10.27-29-2.24-132-33.59-156-31.35s-89-74.64-143-77.63c-52.08-2.88-302.3,72-320,77.33V481s-63,8.45-96,16.91-106,19-131,18.31-90-48.6-121-52.83c-13.62-1.85-38.44,14.37-65,33.16C882.09,508.8,891.11,526.42,892.75,529.77Z"/><path class="cls-3" d="M2163.25,521.42S2200,559.25,2219,557.66s126.93,37.26,148.92,35.67,123.94-88,147.93-87.18c17.78.58,32.81,2.92,39.8,8.6l.71-.3c7.83-3.15,64.25-25.09,107.86-21.49,47,3.89,61.81,33,73.11,31.09s90.36-36.34,134.94-23.71,231.21,48,256.17,41.2c12.45-3.39,51.06-14.12,90.7-23.78-18.28-4.85-34-8.67-43.36-9.39-29-2.24-131.89-33.59-155.87-31.35S2931,402.38,2877,399.39,2556.25,477,2556.25,477v1.66c-14.35,1.65-64,7.68-92,15.28-33,9-106,20.15-131,19.41s-90-51.5-121-56c-18.91-2.73-59.41,31.48-96.25,58.59,17.07,2.26,32.89,4.49,43.34,6Z"/><path class="cls-3" d="M2559.81,646.22h.44v-.48l-.43.06C2559.82,646,2559.81,646.1,2559.81,646.22Z"/><path class="cls-3" d="M3437.74,516.07l.51-.07S3475,555,3494,553.34s126.93,38.39,148.92,36.76,123.94-90.66,147.93-89.85,43,4.9,44,16.34c.22,2.41.36,9.52.45,19.23V471.05S3772.3,480,3739.32,489s-105.91,20.15-130.89,19.41-89.93-51.5-120.91-56c-18.53-2.68-57.81,30.17-94,57,17.65,2.46,33.73,4.85,43.56,6.33A1.4,1.4,0,0,1,3437.74,516.07Z"/><path class="cls-4" d="M3835.25,645.23s.34-73,0-109.41c-.09-9.71-.23-16.82-.45-19.23-1-11.44-20-15.52-44-16.34s-125.94,88.21-147.93,89.85S3513,551.71,3494,553.34,3438.25,516,3438.25,516l-.51.07a1.4,1.4,0,0,0-.7-.34c-9.83-1.48-25.91-3.87-43.56-6.33-28-3.91-60-8-77.23-9.06-16.31-1-57.23,7.69-97.13,17.42-39.64,9.66-78.25,20.39-90.7,23.78-25,6.8-211.59-28.57-256.17-41.2s-123.65,21.77-134.94,23.71-26.16-27.2-73.11-31.09c-43.61-3.6-100,18.34-107.86,21.49l-.71.3c-7-5.68-22-8-39.8-8.6-24-.8-125.94,85.6-147.93,87.18S2238,556.08,2219,557.66s-55.73-36.24-55.73-36.24l-3.91.55c-10.45-1.5-26.27-3.73-43.34-6-27.41-3.64-58-7.37-74.75-8.32-15.92-.91-55.32,6.95-94.3,16-40.62,9.4-80.79,20.05-93.53,23.37-25,6.49-211.59-27.29-256.17-39.35s-123.65,20.79-134.94,22.64-26.16-26-73.11-29.69c-43.55-3.44-101,24.53-108.92,27.6v-.13c-4.3-8.17-22.06-12.35-43.45-13-24-.73-64,44-83,47.62s-43,31.51-65,33-71-65.94-87-65.94-43,31.51-62,33-47-33-47-33l-.25,0c-1.64-3.35-10.66-21-24.52-33.22-8.89-7.86-19.77-13.51-32-11.75-33.29,4.79-120.07,50.1-151,40.52-7-2.18-15.27-2.3-24.14-1.11-30.19,4-67.42,23.19-86.72,27.9-25,6.1-102.23-30.06-127.2-37s-99,41.17-143.55,29.84-109.07-10.24-120.36-8.49S157.15,512,110.2,508.54,1.42,528.15,1.42,528.15V646.23l5.64-.73H1280.8v-.27l1279,2s0-.36,0-1c0-.12,0-.25,0-.41l.43-.06.82-.12Z"/></g></g></svg>