<svg xmlns="http://www.w3.org/2000/svg" viewBox="0 0 4271.02 647.23"><defs><style>.cls-1{fill:#429191;}.cls-2{fill:#2b666d;}.cls-3{fill:#a6d6cf;}.cls-4{fill:#194043;}</style></defs><title>mountains-v3</title><g id="Calque_2" data-name="Calque 2"><g id="all_background" data-name="all background"><polygon class="cls-1" points="861.86 479.78 643 50.23 436 486.23 861.86 479.78"/><path class="cls-2" d="M643,50.23l-.49,76.3,36.79,61.62S648,255.29,648,267.25s37.71,47.83,37.71,47.83l23.92,63.46-34,48.75L856,465.23Z"/><polygon class="cls-1" points="1114.94 602.11 949.06 276.51 791.53 606.23 1114.94 602.11"/><path class="cls-2" d="M949,285.23s-4,89-5,94-13,39-13,39l18,47s-22,34-28,36-54.74,18.51-54.74,18.51L841.7,501.23l107.3-225Z"/><polygon class="cls-1" points="1405 607.18 1225 253.23 1053.49 611.66 1405 607.18"/><polygon class="cls-2" points="1225 253.23 1237.35 342.58 1264.75 400.71 1251.47 453.87 1237.35 501.21 1209.11 591.73 1319.57 574.29 1368.57 536.09 1307.64 416.09 1225 253.23"/><polygon class="cls-1" points="1492.06 549.64 1388.12 345.63 1289.41 552.23 1492.06 549.64"/><polygon class="cls-2" points="1388 351.23 1374 401.23 1372 438.23 1335 502.23 1320 488.23 1388 345.23 1388 351.23"/><polygon class="cls-1" points="1713 512.6 1571.3 234.48 1436.74 516.12 1713 512.6"/><polygon class="cls-2" points="1569.64 250.39 1583.01 319.94 1583.01 367.2 1628 408.23 1657 469.23 1704 492.23 1656.55 401.8 1571.42 234.34 1569.64 250.39"/><polygon class="cls-1" points="2648.06 530.64 2544 326.23 2445.41 533.23 2648.06 530.64"/><polygon class="cls-2" points="2544 332.23 2530 382.23 2528 419.23 2486 478.23 2479 461.23 2544 326.23 2544 332.23"/><polygon class="cls-1" points="2993.86 516.78 2774.79 86.8 2566.75 522.23 2993.86 516.78"/><path class="cls-2" d="M2774.51,87.19v76.34l36.79,61.62S2780,292.29,2780,304.25s37.71,47.83,37.71,47.83l23.92,63.46L2802,514.23l178.53-25.11Z"/><polygon class="cls-1" points="2517 534.88 2293 98.23 2083.47 540.41 2517 534.88"/><path class="cls-2" d="M2293,110.11s-5.36,119.31-6.7,126-17.43,52.28-17.43,52.28l24.13,63s-29.49,45.58-37.53,48.26-100,75.57-100,75.57l-30-25L2293,98.05Z"/><polygon class="cls-1" points="1999 479.6 1857.3 201.48 1722.74 483.12 1999 479.6"/><polygon class="cls-2" points="1861 218.23 1877 285.94 1877 333.2 1903.75 358.17 1945.66 422.38 1987.57 439.32 1950.54 367.8 1857 201.23 1861 218.23"/><polygon class="cls-1" points="3934.06 508.64 3830 304.23 3731.41 511.23 3934.06 508.64"/><polygon class="cls-2" points="3830 310.23 3816 360.23 3814 397.23 3786 439.23 3775 419.23 3830 304.23 3830 310.23"/><polygon class="cls-1" points="4269 513.23 4055 83.23 3846.75 518.23 4269 513.23"/><path class="cls-2" d="M4055,83.23l-.49,76.3,36.79,61.62S4060,288.29,4060,300.25s37.71,47.83,37.71,47.83l23.92,63.46L4090,508.23l170.53-23.11Z"/><polygon class="cls-1" points="3868.47 592.95 3566.64 0.52 3280 600.46 3868.47 592.95"/><path class="cls-2" d="M3566.53,16.38s-7.28,161.94-9.1,171-23.65,71-23.65,71l32.75,85.52s-40,61.86-51,65.5-99.6,33.68-99.6,33.68l-44.7-33.68L3566.53,0Z"/><polygon class="cls-1" points="3492.99 516.14 3308 152.23 3131.51 520.75 3492.99 516.14"/><polygon class="cls-2" points="3306.91 162.03 3320.58 244.03 3348.76 303.81 3335.1 358.47 3320.58 407.15 3291.54 500.25 3405.13 482.31 3482 486.23 3392.87 319.63 3374 281.23 3308 152.23 3306.91 162.03"/><polygon class="cls-1" points="3211.67 481.43 3099.03 260.34 2992.07 484.23 3211.67 481.43"/><polygon class="cls-2" points="3097.71 272.99 3108.34 328.28 3108.34 365.85 3129.61 385.7 3162.92 436.74 3196.24 450.2 3166.8 393.35 3099.13 260.23 3097.71 272.99"/><path class="cls-3" d="M545,508.54c47,3.49,61.82,29.63,73.11,27.89s75.79-2.83,120.37,8.49S857,508.11,882,515.08s102.24,43.13,127.21,37c19.29-4.71,56.53-23.87,86.71-27.9-16.8-4.16-31.17-7.36-39.89-8-29-2.11-132-31.7-156-29.58s-89-70.44-143-73.26-163,33.81-199,28.88-122,44.38-122,44.38l.11,144.8h.06V528.15S498,505.06,545,508.54Z"/><path class="cls-3" d="M1327.5,529.77l.25,0s28,34.44,47,33,46-33,62-33,65,67.41,87,65.94,46-29.3,65-33,59-48.35,83-47.62c21.39.65,39.15,4.83,43.45,13v.13c8-3.07,65.37-31,108.92-27.6,47,3.71,61.82,31.55,73.11,29.69s90.36-34.71,134.94-22.64S2263.21,553.5,2288.18,547c12.73-3.32,52.91-14,93.52-23.37-19.7-5.26-36.82-9.51-46.7-10.27-29-2.24-132-33.59-156-31.35s-89-74.64-143-77.63c-52.08-2.88-302.29,72-320,77.33,0,0-63,7.73-96,16.19s-106,19-131,18.31-90-48.6-121-52.83c-13.62-1.85-38.44,14.37-65,33.16C1316.84,508.8,1325.86,526.42,1327.5,529.77Z"/><path class="cls-3" d="M2598,521.42s36.74,37.83,55.73,36.24,126.93,37.26,148.92,35.67,123.94-88,147.93-87.18c17.78.58,32.81,2.92,39.81,8.6l.7-.3c7.83-3.15,64.25-25.09,107.86-21.49,47,3.89,61.82,33,73.11,31.09s90.36-36.34,134.94-23.71,231.21,48,256.18,41.2c12.44-3.39,51.06-14.12,90.69-23.78-18.28-4.85-34-8.67-43.35-9.39-29-2.24-131.9-33.59-155.88-31.35s-88.93-74.64-142.89-77.63S2991,477,2991,477s-64,9.34-92,16.94c-33,9-106,20.15-131,19.41s-90-51.5-121-56c-18.91-2.73-59.41,31.48-96.25,58.59,17.07,2.26,32.9,4.49,43.34,6Z"/><path class="cls-3" d="M2994.56,646.22h.44v-.48l-.43.06C2994.57,646,2994.57,646.1,2994.56,646.22Z"/><path class="cls-3" d="M3872.5,516.07l.5-.07s36.74,39,55.73,37.34,126.93,38.39,148.92,36.76,123.94-90.66,147.93-89.85,43,4.9,44,16.34c.21,2.41.35,9.52.44,19.23l-7-55.59s-55.95-.23-88.92,8.73-105.92,20.15-130.9,19.41-89.93-51.5-120.91-56c-18.53-2.68-57.8,30.17-94,57,17.65,2.46,33.73,4.85,43.56,6.33A1.47,1.47,0,0,1,3872.5,516.07Z"/><polygon class="cls-1" points="441 514.23 227 84.23 18.75 519.23 441 514.23"/><path class="cls-2" d="M227,84.23l-.49,76.3,36.79,61.62S232,289.29,232,301.25s37.71,47.83,37.71,47.83l23.92,63.46L262,509.23l170.53-23.11Z"/><path class="cls-3" d="M44.5,517.07,45,517s36.74,39,55.73,37.34,126.93,38.39,148.92,36.76S439,527.23,443,526.23c2.17-.54-7-40-7-40S379.05,481,346.08,490s-105.92,20.15-130.9,19.41-89.93-51.5-120.91-56c-18.53-2.68-57.8,30.17-94,57,17.65,2.46,33.73,4.85,43.56,6.33A1.47,1.47,0,0,1,44.5,517.07Z"/><path class="cls-4" d="M4271,510.23c-1-11.44-14-19.18-38-20s-133.36,98.23-155.35,99.87-129.93-38.39-148.92-36.76S3873,516,3873,516l-.5.07a1.47,1.47,0,0,0-.71-.34c-9.83-1.48-25.91-3.87-43.56-6.33-28-3.91-60-8-77.23-9.06-16.31-1-57.23,7.69-97.13,17.42-39.63,9.66-78.25,20.39-90.69,23.78-25,6.8-211.6-28.57-256.18-41.2S3145.91,496.85,3099,493c-43.61-3.6-130.59,13.77-148.37,13.19-24-.8-125.94,85.6-147.93,87.18s-129.93-37.25-148.92-35.67S2599,521.23,2599,521.23s-31.18-3-48.25-5.25c-27.4-3.64-58-7.37-74.75-8.32-15.92-.91-55.31,6.95-94.3,16-40.61,9.4-80.79,20.05-93.52,23.37-25,6.49-211.6-27.29-256.18-39.35s-123.65,20.79-134.94,22.64-26.15-26-73.11-29.69c-43.55-3.44-131,15.62-152.37,14.47-24-1.28-64,44-83,47.62s-43,31.51-65,33-71-65.94-87-65.94-43,31.51-62,33-47-33-47-33-10.91-20.93-24.77-33.18c-8.89-7.86-19.77-13.51-32-11.75-33.29,4.79-120.07,50.1-151,40.52-7-2.18-15.27-2.3-24.14-1.11-30.18,4-67.42,23.19-86.71,27.9-25,6.1-102.24-30.06-127.21-37s-99,41.17-143.54,29.84-109.08-10.24-120.37-8.49S591.91,512,545,508.54c-37.4-2.77-84.21,11.3-101.73,17.15-.07-.28-.14-.44-.22-.46-14-3-67-8-82-3-22.77,7.59-89.36,67.23-111.35,68.87s-129.93-38.39-148.92-36.76S45,517,45,517l-.5.07a1.47,1.47,0,0,0-.71-.34C34,515.25,17.88,512.86.23,510.4L0,647.23l442-1,0-.73H1715.56v-.27l1279,2v-1c0-.12,0-.25,0-.41l.43-.06.82-.12,1274.18-.4S4271.21,512.64,4271,510.23Z"/></g></g></svg>