<?xml version="1.0" encoding="utf-8"?>
<!-- Generator: Adobe Illustrator 24.0.1, SVG Export Plug-In . SVG Version: 6.00 Build 0)  -->
<svg version="1.1" id="Calque_1" xmlns="http://www.w3.org/2000/svg" xmlns:xlink="http://www.w3.org/1999/xlink" x="0px" y="0px"
	 viewBox="0 0 1281.05 962.17" style="enable-background:new 0 0 1281.05 962.17;" xml:space="preserve">
<style type="text/css">
	.st0{fill:#91D2CD;}
	.st1{fill:#E9E96D;}
	.st2{fill:#FFBC97;}
	.st3{fill:#6B6B6A;}
</style>
<title>map-full</title>
<g id="Calque_2_1_">
	<g id="Calque_2-2">
		<rect id="sea" class="st0" width="1281.05" height="961.61"/>
		<g id="map">
			<path class="st1" d="M1268.77,311.29c-2.34,4.68-11.56,8-23-5.36c-4.62-5.4-27.71,29.15-30.58,42.05s-15.77,4.3-21.5,12.42
				s-12.43,32.5-11.47,39.66s-15.77,11.47-21.34,3.38c-13.54-19.68,13.76-51.7,20.85-57.53s-21.68-7.93-27.52-7.09
				s12.51,13.76-6.67,16.26s-63.37,8.34-57.12,25.85s10,32.94,10.43,45c-0.07,2.31-0.96,4.51-2.51,6.22l0,0
				c-1.43,1.74-3.04,3.31-4.82,4.69l0,0c-4.8,3.62-9.89,6.83-15.22,9.61c-7.64,4.17-14.9,7.66-17.46,9.88
				c-6.25,5.42,7.5,17.52,2.92,19.6s-11.76-8.28-13.76-14.12s-18.35,1.26-23.77,5.42s10,20.85,15.85,28.77s-28.35,34.61-47.95,35.44
				s-5.84,13.34,0,16.68s3.75,13.76-2.92,19.6s-17.93-2.92-21.68-3.76s-0.83,22.1-5.84,22.1s-0.83-26.27-0.83-32.1
				S947.38,551,945.3,551s-1.25-18.35-1.25-20c0-1-7.25-2.37-12.83-2.47c-3.5-0.07-6.35,0.35-6.35,1.63
				c0,3.2-15.28,18.23-19.51,22.08l-0.5,0.44c-0.16,0.14-0.32,0.27-0.5,0.38c-3.28,2.22-7.43-0.62-7.43,2.95
				c0,3.75-0.83,20.43-6.67,22.93s-8.34-9.17-13.34-20.43s1.25-22.09-2.08-23.76c-4.68-2.27-9.19-4.88-13.49-7.8
				c-0.41-0.29-0.8-0.59-1.18-0.89c-0.66-0.51-1.27-1-1.8-1.52l0,0c-1.12-0.89-1.92-2.12-2.27-3.51
				c-0.41-4.59-19.17-3.34-27.51-3.34s-7.09,3.76-20.43-8.34s-17.93-6.25-17.93-3.75s20.43,19.6,28.35,20s1.67,14.17,2.09,19.17
				s-37.95,16.68-42.95,17.52s-23.35-42.11-29.18-52.12c-0.8-1.56-1.89-2.94-3.22-4.08c-3.26-2.4-4.29,3.24-4.29,3.24l8.87,18.3
				c7.83,16.15,18.2,37.52,19.48,40.08c2.09,4.16,5,2.5,15.43,2.5s12.51,1.25,12.51,11.25c0,8.87-16.72,18.4-25.44,22.78
				c-1.12,0.56-2.11,1-2.91,1.41c-4.41,2.07-5.27,16.41-5.59,30.77c-0.2,8.72-0.19,17.45-0.67,23.43
				c-1.25,15.84-13.76,5.42-13.76,29.18c0,7.51-12.09,5.42-13.76,20.85s-35,20.85-47.11,20.85s-3.75-40.45-8.76-46.7
				s-8.43-59-13-61.18c-4-1.88-8.83-23.15-9-34.66c-0.06-1.58,0.04-3.16,0.31-4.72c1.65-8.22-23.09-2.56-30.19,5.41
				c-0.45,0.49-0.85,1.03-1.18,1.61c-4.87,8.76-29.42-6.24-44.81-12.86S567,545.88,568.12,529.9s25.53-30.78,27.08-38.19
				s16-12.66,31-13.25s20.27-5.26,31.18-4.09s18.9,20.46,26.69,20.46s13.25-9,21.63-7.6c1.21,0.2,2.59,0.44,4.09,0.71
				c8.89,1.62,22.14,4.19,31,3.19h0.1c10.21-1.25,7.27-16.54-1.46-17.71s-18.71-11.5-18.71-16s3.9-2.92,9.16-3.7
				s17.73-2.34,23.38-0.2s12.28-7.4,7.4-9.74s-4.67-13.44-9.74-13s-27.08,3.7-28.83,16.17s-7.21,9.16-12.86,9.35
				s-7,11.11-9.94,12.08s-4.09-5.65-8.77-12.66s-3.31-12.67-6.62-14s-12.86,0-9.36,3.7s7.6,13.25,2.73,13.44S667.1,450.8,662,449
				s-4.49-8.57-6.82-9s-16.57-0.2-17,3.51s-11.69,7.6-14.61,8s-3.51,17.53-10.13,18.31s-18.71-16.56-18.71-21.24
				s20.85-9.35,25.14-10.32s-5.65-11.5-5.85-13.64s5.07-0.59,5.85-2.73c5.39-14.84,13-19.29,20.07-25.91s31.37-5.85,39.36-5.85
				s7-6.23,11.3-6.62s8-5.85,8.57-13.06s11.5-17.15,26.69-18.51s-8.38-7.4-22-6.82s-0.59-20.07,5.65-26.11s-3.71-13.64-8.19-12.47
				s-5.06,15.4-11.1,19.68s-5.65,25.92-5.65,38.39s-5.46,8.76-11.89,9.93s-7.6-8-7.79-16.95s-9.16,1.37-15,2.53
				s-2.33-32.14,4.49-33.9s23.38-37.41,31-49.29s12.66-10.13,20.26-12.47s17.73,4.28,19.48,8.18s23.77,13.44,26.7,17.15
				s3.31,12.47-4.48,23.57c-4.78,6.81,6.46-1.6,17.36-10.11c6.9-5.39,13.66-10.83,16.15-12.49c6.43-4.29,32.15-7.79,39.94-8
				s21.63-6.23,31.18-7.6s15-24.74,21.23-26.49s36-20.46,40-21.05s11.49-19.68,17.73-22.4s24-9.16,29.22-9.75s15.78-15.58,21.24-16
				s11.3,6.62,19.29,9.35s9.74,21,12.47,29.61s27.85,12.97,35.65,12.97s17.53,9.36,18.89,18.71s8.77,13.83,11.11,8.38
				s18.9-8.38,24.36-10.52s11.49-8.77,23.18-9s8.19,6,9.16,11.3s10.52,9.16,23.58,9.36s8.18,0.58,12.47,4.67s38.38,3.12,49.68,3.7
				s41.31,24.75,45,27.87S1271.11,306.61,1268.77,311.29z"/>
			<path class="st1" d="M621.05,403.64c0,0-7.88,1-14.54-0.74s7.89-8.13,11.34-10.6c1.8-1.28-0.89-4.51-3.88-8.25
				c-2.74-3.43-5.73-7.29-5.73-10.47c0-6.66,5.17-12.08,9.61-11.83s-1.23,7.88,1.23,15.52c0.18,0.58,0.41,1.16,0.67,1.71
				c2.94,6.49,9.51,9.94,10.42,16.52C631.15,402.65,621.05,403.64,621.05,403.64z"/>
			<path class="st1" d="M605.53,387.62c0,0,3.45-5.42-2-5.66s-6.41,4.43-9.36,5.91s-6.65,14.54-3,14s15-3,14.54-6.16
				C605.43,393.02,605.37,390.32,605.53,387.62z"/>
			<path class="st1" d="M1108.46,428.63c-3.53,0.74-13.72-41.78-13.72-41.78c1.06-3.57,2.14-5.28,3.22-5.66
				c0.62-0.19,1.29-0.01,1.73,0.46c3.41,2.92,6.49,16.88,8.17,24C1110.32,416.11,1112,427.88,1108.46,428.63z"/>
			<path class="st1" d="M1111.43,460.17c-1.91,4.13-25.11,30.19-31.47,30.19s-9.22,13-9.54,16.85s-5.4-9.53-3.5-16.85
				s20.67-16.21,31.79-21.61s2.86-18.76,3.18-28.93s13.67-1.59,13.67-1.59C1132.41,446.18,1113.34,456,1111.43,460.17z"/>
			<path class="st1" d="M1038.05,517.2c0,0-6.33,7.79-1,11.2s9.25-3.41,9.25-3.41L1038.05,517.2z"/>
			<path class="st1" d="M1029.77,554.7c-1.92,11.56,14.13,12.18,15.1,21.44s16.56,12.66,15.1,5.84s-10.71-14.61-16.07-20.46
				S1030.75,548.86,1029.77,554.7z"/>
			<path class="st1" d="M1003,599.52c6.93-1.51,11.69-19,17-12.67c5.31,6.33,14.13,14.61,6.82,22.89s-7.31,15.1-20,8.28
				S991.78,602,1003,599.52z"/>
			<path class="st1" d="M948.92,591.72c0,0-3.9,7.8,4.38,12.67s12.67,20.94,19,21.91s15.1,2.44,12.18-4.87s0-13.15-13.16-15.58
				S954.28,591.72,948.92,591.72z"/>
			<path class="st1" d="M1002.5,628.25c-5.35,0.29-17.54,1-13.64,4.87s17.53,8.28,21.92,3.9S1020.52,627.28,1002.5,628.25z"/>
			<path class="st1" d="M1097.48,632.64c0,0-0.49-5.36-5.85-10.23s-2-10.23,6.33-10.23s19.49,4.87,27.77,6.82s26.79,17,8.77,17.53
				S1103.32,642.87,1097.48,632.64z"/>
			<path class="st1" d="M782.81,662.76c0,0,3.22,0.71,3.58-5.73s3.94-8.59,6.09-6.8s6.08,18.26,3.22,27.56s-7.52,29.72-15,21.84
				s-14-5.73-7.52-17.9S776,663.12,782.81,662.76z"/>
			<path class="st1" d="M1026.48,682.59c0,0-16.37,3.12-10.92,24.57s8.19,24.17,19.11,20.66s43.67-9.36,47.57-7
				s7.79,12.09,12.47,12.09s1.17,17.54,10.14,17.54s29.24,3.51,37-16s13.26-27.29,4.68-38.21s-29.65-34.26-28.85-40.94
				c1.17-9.75-8.58-12.87-10.14-8.58s2.34,22.23-3.51,22.62s-12.09-7.8-14.43-15.21s-10.91-4.68-17.54-2.73
				c-5.25,1.54,3.12,8.19-2.34,9.36s-8.19-6.63-12.87-4.68s-16.37,6.63-16.37,9.75S1034.67,681,1026.48,682.59z"/>
			<path class="st1" d="M1213.24,756.5c-8.85,1.89-7.59,17.71-17.71,19s-13.92,23.41-9.49,22.14s47.45-14.55,37.33-27.84
				S1222.1,754.6,1213.24,756.5z"/>
			<path class="st1" d="M1222.1,740.68c0,0-1.26,14.55,6.33,13.92s13.92-17.72,4.43-17.08S1222.1,740.68,1222.1,740.68z"/>
			<path class="st1" d="M553.27,306.08c1.76,5.73,2.37-2.84,7.11-2.84s25.12,4.74,18.49,10.42s-10,14.7-18,13.27
				s-15.64-7.58-15.64-14.21s0.74-9.3,3.46-9.3S552.42,303.29,553.27,306.08z"/>
			<path class="st1" d="M424.27,148.6c0,0-20.27-3.8-20.27,18.4s2.54,33.58,12.67,34.21s19,6.33,19,34.21s1.9,67.77,19.64,81.08
				s26,27.23,33.57,23.43s3.17-42.44,11.4-45.6l8.24-3.17c0,0,34.2-26.61,34.2-56.38s-3.16-47.51,7-55.11s19.64-38.64,7-43.7
				s-58.28-7.61-62.08-1.9s-19,17.73-27.23,12.66s-4.36-11.4-15.21-11.4C426.81,135.3,437.57,148,424.27,148.6z"/>
			<path class="st1" d="M360.47,524.52c0,0-10.9,3.3-14.53,4.62s-3.31,6.94,5.28,5.62s18.17-7.93,16.19-11.9
				S362.78,521.54,360.47,524.52z"/>
			<path class="st1" d="M378.64,537.73c0,0-15.53,5.61-8.26,5.94s8.26,5,13.87,4.3s9.25-6.94,7.6-7.27S378.64,537.73,378.64,537.73z
				"/>
			<path class="st1" d="M82.87,588.28c0,0-6.49,3.81-4.2,7.24S88.21,602,89.73,599s-0.38-5.72,0-8.39S86.3,584.85,82.87,588.28z"/>
			<path class="st1" d="M74.86,577.6c1.89,0.23,7,4,0.29,6.71c-4.67,1.87-4.11,0.94-4.86-1.31S67.44,576.7,74.86,577.6z"/>
			<path class="st1" d="M63.33,573.1c0,0-5.93,2.2-2.71,5s3.18,4.95,4.91,2.43s4.57-5.47,2-5.65S64.5,573.57,63.33,573.1z"/>
			<path class="st1" d="M52.26,569.46c-0.09,0.1-2.61,3.13-0.93,3.46s2,1.3,2.66,1.68s4.25,0.32,3.22-2.62S54.51,567,52.26,569.46z"
				/>
			<path class="st1" d="M466.7,608.28C446.09,602,461.31,591,449.13,591s-27.16-4.45-28.8-11.48s1.88-8.66-13.58-8.66
				S344,574.33,343.06,564s-6.09-16.39-11-17.56c-0.97-0.25-1.74-0.98-2.05-1.93c-1.45-3.61,0.34-10.82-4.27-11.19
				c-5.86-0.46-6.8,8.9-14.52,8.9s-16.07-26.22-9.68-40.93c0.9-2.12,2.44-3.9,4.41-5.09c10.41-6.46,31.68,2,31.41,8
				c-0.32,7,5.12,14.71,8,14.71s1-19.19,3.52-23.35s16.95-16.95,17.59-28.14s13.33-5.53,14.39-11.19
				c2.88-15.35,12.47-11.2,13.75-17.27s-3.84-18.23,17.27-25.27s30.38-22.7,14.39-32.29s-9.27-34.54-13.43-32.94
				S409,360,402.92,360.29s-10.56-4.48-16.31-13.75s-12.79-14.07-17.91-13.75s-2.56,22.7-4.16,22.7s-5.69,5.51,0,11.79
				s4.57,11.43-1.14,14.28s-5.14,22.28-10.28,21.13s4.57-17.13-10.28-17.13s-38.84-4-38.84-30.84s22.27-21.14,25.7-26.28
				s2.86-17.13-2.85-22.84s-9.17-16-16-16.57c-14.28-1.14-1.71,13.14-10.28,13.14s-56,4.57-63.4-6.28s-22.84-17.71-30.84-16
				s-29.7,12.57-39.41,12.57s-64.54-25.7-74.82-18.28S60.7,298.17,63,303.31c2.3,5.14,12,14.28,4,14.85s-12,15.42-5.72,15.42
				s26.28,13.14,14.85,13.14S59.56,357,67.56,364.43s30.27,15.42,34.27,8s28-30.27,47.4-14.85s52.55,61.12,52.55,72
				s1.14,37.7,17.14,53.69c2.41,2.38,4.96,4.61,7.65,6.68c15.29,11.9,34,19.87,40.32,34.44c7.43,17.14,13.14,28,26.28,28
				c7.53,0,19,0.19,27.53,1.85c6.34,1.25,11.06,3.31,11.31,6.72c0.57,8-4.82,20.63,15.58,21.17c0,0,18.14-1.51,18.14,4.53
				s-15.87,33.26-15.12,42.33s18.9,36.29,28,36.29s7.56,77.1,7.56,98.27s7.56,37.79,15.88,40.82s25.7,6.8,18.9,3
				s-12.1-5.29-12.1-25.7s2.27-29.48,11.34-30.24s7-15.74,10.71-16.91s26.46-17.56,26.69-24.12s6.09-23.18,13.58-26.22
				s21.55-16.86,22.72-28.8s10.53-10.07,10.53-17.8S487.3,614.6,466.7,608.28z M319,416.54c4.3-0.71,11.23,0,18.39-0.48
				s4.54,12.42,6.69,15.29s5.73,6.45,8.12,11.46s-5.73,4.78-9.32,5s-0.95-12.66-2.15-14.33s-2.86,3.34-7.4,3.58s-1.43,12.9-5,16
				s-4.53-20.76-4.33-26.25s-10.27-1.67-10.27-4.54S319,416.54,319,416.54z"/>
			<path class="st1" d="M30.84,962.17c0,0,37.62-30.55,75.34-29.2c17.81,0.64,36.36-8.2,44.11-8.2c8.73,0,40.44-4.48,77.73-7.09
				c12.43-0.88,25.45,2.56,38.49,1c14.69-1.8,29.19-9.52,42.95-11.32c37.62-4.93,68.15-5.59,73.75-14.61
				c5.15-8.29,12.92-19,19.65-29.37c9.5-14.69,27.42-15.19,28.13-10.71c0.26,1.61-2.07,5.25-4.64,6.2c-5.78,2.13-9.16,11.59-7,18.74
				c3.62,11.82-4.82,21.81,8.62,23.15c7.12,0.71,25.05,9.59,47.25,7.38c12.82-1.27,49.55-7.8,74.91-6.93
				c44.57,1.52,67.79,6.6,99.81,7.68s104.1-9.6,151.31-2.79c44.9,6.48,86.6,16,116.46,13.36s-14.9-1.16,29.86-2.67
				c29.61-1,85.19-6.66,93.73-11.11c15.31-8,53.59-0.77,64.59-3.74c9.59-2.6,40-10.89,40-8.53c0,7.31-8.16,20.46,0,23.38
				s0,16.07,6.54,16.07s27.76,0,27.76,5.84s8.16,21.91,8.16,21.91L30.84,962.17z"/>
		</g>
		<g id="countries">
			<path class="st2" d="M957,506.73c-0.91,0.55-0.37-1.1-0.91,0.55s-2.56,0.91-3.29,2.19s-2.56,0.55-2.38,2.38
				c0.18,1.83,0.36,3.83-0.55,4.2s1.46,2.92,0.18,3.84s0.19,5.85-1.64,4.93s-2.74-0.91-2.74,0.92s-1.1,5.48-2.2,4.57
				s-1.09-5.3-2.19-4.76s-4.2,1.1-4.2,0.55s-2.28-3.77-1.31-4.21s4.22-2.9,2.46-2.81s-5.71,0.17-6.24-0.88s-0.61-2.2-1.23-2.37
				s-0.62-1.15-1.49-0.88s-1.24,0.7-0.44,1.4s1.23,3,0.08,3.08s-0.44,0.7,0.27,1.5s0.09,2.37,0.7,3c0.77,1.05,1.2,2.31,1.23,3.61
				c0.01,0.34,0.05,0.67,0.1,1c-3.5-0.07-6.35,0.35-6.35,1.63c0,3.2-15.28,18.23-19.51,22.08c-0.43,0.09-0.79,0.37-1,0.75v0.07
				c-3.28,2.22-7.43-0.62-7.43,2.95c0,3.75-0.83,20.43-6.67,22.93s-8.34-9.17-13.34-20.43s1.25-22.09-2.08-23.76
				c-4.68-2.27-9.19-4.88-13.49-7.8c1.4,0,2.74,0,2.69-0.34s-2.58-0.27-3.87-0.55c-0.22-0.03-0.43-0.12-0.62-0.24
				c-0.44-0.38-0.83-0.81-1.18-1.28l0,0c-0.67-0.87-1.22-1.84-0.9-2.11c0.6-0.58,1.11-1.26,1.5-2c0.26-0.53,3.25-1.67,3.95-1
				s1.23-0.62,2.55,0s2.55-0.09,1.59-1s-3.52-3.07-3.26-4.31s-2.72,0.53-2.2-2.11c1.19-5.91,5.1-6.68,6-6.06s3.87,1,4.75,0
				s3.52-3.87,3.52-5.37s2.37-0.79,2.55-1.49s2.55-2.29,2.55-3.69s0.26-2.9,1.23-2.9s0.53-1-0.35-1s-4.52-2.11-4.58-2.73
				c-0.08-1.05,0-3.69,0-4.39s2.29-1.5,1.85-2s-4.57-0.87-5-3.07s0.26-2.2,0.26-2.2c1.12-2.23,15.94-2.05,17.06,1.67
				s12.33-3.3,12,0.79s-5,5.64-3.93,8.62s5.14,3.52,3.86,4.8s-5.48,0.37-5.48,1.65s5.67,0.18,5.48,3.47s-3.65,7.67-2.19,7.67
				s3.66,3.66,6,3.29s7.86-1.27,9.87,0.55s7.5,4,7.68,2s2.37-5.11,3.11-4.75s0.18,3.11,2,3.11s10.78,1.83,8.22,0.55
				s-3.29-2.74-1.1-3.29s3.29-3.66,4.39-3.84s3.66-0.73,4.75-2.19s2.38-0.55,3.84-0.74s2.93,3.29,5.12,3.29
				S957.92,506.18,957,506.73z"/>
			<path class="st2" d="M320.25,553.62c0.17,0.2,0.32,0.39,0.45,0.57c-8.53-1.66-20-1.85-27.53-1.85c-13.14,0-18.85-10.85-26.28-28
				c-6.31-14.57-25-22.54-40.32-34.44c1.83-0.69,3.61-1.53,5.31-2.5c0,0,7.34,0.66,8.26,3s7-1,10.4-1.32s15.88-21.12,19.55-21.12
				s3.06,5.6,6.73,5.6s3.06,6.92,8.25,7.9s4-3.62,7.65-3.62s6.72,13.16,10.7,15.16c1.35,0.58,2.3,1.81,2.53,3.26
				c-1.97,1.19-3.51,2.97-4.41,5.09c-6.39,14.71,1.95,40.93,9.68,40.93s8.66-9.36,14.52-8.9c4.61,0.37,2.82,7.58,4.27,11.19
				c-1.49,1.81-7.87,2.82-11.9,2.82C313.52,547.36,317.19,550,320.25,553.62z"/>
			<path class="st2" d="M741,509.34l8.87,18.3l0.55,1.93l-38.21,3.92l-2.44-45.55c8.89,1.62,22.14,4.19,31,3.19h0.1
				c2.23,1.57,4.66,3.26,7,4.82c7.06,4.79,5.23,10.12,1,8.16c-2-0.94-3,0.38-3.5,2C742,503.7,741,509.34,741,509.34z"/>
			<path class="st2" d="M771.85,604.25c-1.12,0.56-2.11,1-2.91,1.41c-4.41,2.07-5.27,16.41-5.59,30.77l-7-1.13l-0.2-2.45L744,626.78
				c-1-0.16-10.9,0.3-10.79-5.67c0-1.59,2.79-6.86,3.58-7.93s1.38-4.61-3.45-9.67c-3.6-3.78,0.31-10.2,5.59-8.41
				c1.63,0.44,3.32,0.56,5,0.37c1.67-0.13,2.31,2.37,3.13,2.52s1.62-1.79,2.76-1.88s3.59,2.59,5.36,2.45s2.14-2,5-3.06
				s3.88,0.7,5.26,1.36s1.73-1.57,2.33-1.85s0.12-0.78,1.63-0.79s1.92,4,3.52,5.14C774.22,600.24,773,603.12,771.85,604.25z"/>
			<path class="st2" d="M619.75,379c-0.45,0.22-0.95,0.33-1.46,0.32c-2.76,0-0.64,3.62-2.55,3.83c-0.65,0.18-1.25,0.49-1.77,0.92
				c-2.74-3.43-5.73-7.29-5.73-10.47c0-6.66,5.17-12.08,9.61-11.83s-1.23,7.88,1.23,15.52C619.26,377.87,619.49,378.45,619.75,379z"
				/>
			<path class="st2" d="M1111.43,460.17c-1.91,4.13-25.11,30.19-31.47,30.19s-9.22,13-9.54,16.85s-5.4-9.53-3.5-16.85
				s20.67-16.21,31.79-21.61s2.86-18.76,3.18-28.93s13.67-1.59,13.67-1.59C1132.41,446.18,1113.34,456,1111.43,460.17z"/>
			<path class="st3" d="M1107.86,405.64c2.46,10.47,4.13,22.24,0.6,23s-13.72-41.78-13.72-41.78c1.06-3.57,2.14-5.28,3.22-5.66
				c-2.68-0.78-3.85-1.55-2-2c2.43-0.54,4,0.73,5.29,2.8l-1.61-0.37C1103.1,384.57,1106.18,398.53,1107.86,405.64z"/>
			<path class="st3" d="M1268.77,311.29c-2.34,4.68-11.56,8-23-5.36c-4.62-5.4-27.71,29.15-30.58,42.05s-15.77,4.3-21.5,12.42
				s-12.43,32.5-11.47,39.66s-15.77,11.47-21.34,3.38c-13.54-19.68,13.76-51.7,20.85-57.53s-21.68-7.93-27.52-7.09
				s12.51,13.76-6.67,16.26s-63.37,8.34-57.12,25.85s10,32.94,10.43,45c-0.07,2.31-0.96,4.51-2.51,6.22c0-5.38-10-10.74-13.82-5.37
				s-18.42-0.76-23-0.76s-4.6-22.26-10-22.26s-19.19,6.9-19.19,17.65s-8.44,12.28-14.58,11.52s-6.91,4.6-20.73,5.37
				s-10-7.68-26.1-6.14s-6.14-6.14-6.14-6.14s-12.28-0.77-12.28,9.21s-19.19-8.45-33-4.61s-9.21-6.14-13.82-6.14
				s-19.19-18.42-19.19-23S875.7,390,869.56,390s-4.56-24.6-31.48-25.36c-8.47-0.25-1.53,13.81-8.44,13.05s-26.1-29.94-36.08-29.94
				S779,353.12,779,359.26s-3.07,6.14-6.14,6.14S760.55,377.69,759,380s-8.45-0.77-6.91-17.66s-13.05-26.1-13.05-33
				s28.4,3.83,28.4-7.68c0-3.28-1.12-10.16-2.72-18.33c6.9-5.39,13.66-10.83,16.15-12.49c6.43-4.29,32.15-7.79,39.94-8
				s21.63-6.23,31.18-7.6s15-24.74,21.23-26.49s36-20.46,40-21.05s11.49-19.68,17.73-22.4s24-9.16,29.22-9.75s15.78-15.58,21.24-16
				s11.3,6.62,19.29,9.35s9.74,21,12.47,29.61s27.83,12.89,35.63,12.89s17.53,9.36,18.89,18.71c1.36,9.35,8.77,13.83,11.11,8.38
				s18.9-8.38,24.36-10.52s11.49-8.77,23.18-9s8.19,6,9.16,11.3s10.52,9.16,23.58,9.36s8.18,0.58,12.47,4.67s38.38,3.12,49.68,3.7
				s41.31,24.75,45,27.87S1271.11,306.61,1268.77,311.29z"/>
		</g>
	</g>
</g>
</svg>
