<svg xmlns="http://www.w3.org/2000/svg" viewBox="0 0 1281.05 962.17"><defs><style>.cls-1{fill:#91d2cd;}.cls-2{fill:#e9e96d;}.cls-3{fill:#ffbc97;}</style></defs><title>map-full</title><g id="Calque_2" data-name="Calque 2"><g id="Calque_2-2" data-name="Calque 2"><rect id="sea" class="cls-1" width="1281.05" height="961.61"/><g id="map"><path class="cls-2" d="M1268.77,311.29c-2.34,4.68-11.56,8-23-5.36-4.62-5.4-27.71,29.15-30.58,42.05s-15.77,4.3-21.5,12.42-12.43,32.5-11.47,39.66-15.77,11.47-21.34,3.38c-13.54-19.68,13.76-51.7,20.85-57.53s-21.68-7.93-27.52-7.09,12.51,13.76-6.67,16.26-63.37,8.34-57.12,25.85,10,32.94,10.43,45a9.73,9.73,0,0,1-2.51,6.22h0a30.42,30.42,0,0,1-4.82,4.69l0,0a108.26,108.26,0,0,1-15.22,9.61c-7.64,4.17-14.9,7.66-17.46,9.88-6.25,5.42,7.5,17.52,2.92,19.6S1052,467.65,1050,461.81s-18.35,1.26-23.77,5.42,10,20.85,15.85,28.77-28.35,34.61-47.95,35.44-5.84,13.34,0,16.68,3.75,13.76-2.92,19.6-17.93-2.92-21.68-3.76-.83,22.1-5.84,22.1-.83-26.27-.83-32.1S947.38,551,945.3,551s-1.25-18.35-1.25-20c0-1-7.25-2.37-12.83-2.47-3.5-.07-6.35.35-6.35,1.63,0,3.2-15.28,18.23-19.51,22.08l-.5.44a4.4,4.4,0,0,1-.5.38c-3.28,2.22-7.43-.62-7.43,2.95,0,3.75-.83,20.43-6.67,22.93s-8.34-9.17-13.34-20.43,1.25-22.09-2.08-23.76a107.8,107.8,0,0,1-13.49-7.8c-.41-.29-.8-.59-1.18-.89-.66-.51-1.27-1-1.8-1.52l0,0a6.46,6.46,0,0,1-2.27-3.51c-.41-4.59-19.17-3.34-27.51-3.34s-7.09,3.76-20.43-8.34-17.93-6.25-17.93-3.75,20.43,19.6,28.35,20,1.67,14.17,2.09,19.17-37.95,16.68-42.95,17.52-23.35-42.11-29.18-52.12a13.51,13.51,0,0,0-3.22-4.08c-3.26-2.4-4.29,3.24-4.29,3.24l8.87,18.3c7.83,16.15,18.2,37.52,19.48,40.08,2.09,4.16,5,2.5,15.43,2.5s12.51,1.25,12.51,11.25c0,8.87-16.72,18.4-25.44,22.78-1.12.56-2.11,1-2.91,1.41-4.41,2.07-5.27,16.41-5.59,30.77-.2,8.72-.19,17.45-.67,23.43-1.25,15.84-13.76,5.42-13.76,29.18,0,7.51-12.09,5.42-13.76,20.85s-35,20.85-47.11,20.85-3.75-40.45-8.76-46.7-8.43-59-13-61.18c-4-1.88-8.83-23.15-9-34.66a23,23,0,0,1,.31-4.72c1.65-8.22-23.09-2.56-30.19,5.41a8.81,8.81,0,0,0-1.18,1.61c-4.87,8.76-29.42-6.24-44.81-12.86S567,545.88,568.12,529.9s25.53-30.78,27.08-38.19,16-12.66,31-13.25,20.27-5.26,31.18-4.09,18.9,20.46,26.69,20.46,13.25-9,21.63-7.6c1.21.2,2.59.44,4.09.71,8.89,1.62,22.14,4.19,31,3.19l.1,0c10.21-1.25,7.27-16.54-1.46-17.71s-18.71-11.5-18.71-16,3.9-2.92,9.16-3.7,17.73-2.34,23.38-.2,12.28-7.4,7.4-9.74-4.67-13.44-9.74-13-27.08,3.7-28.83,16.17-7.21,9.16-12.86,9.35-7,11.11-9.94,12.08-4.09-5.65-8.77-12.66-3.31-12.67-6.62-14-12.86,0-9.36,3.7,7.6,13.25,2.73,13.44S667.1,450.8,662,449s-4.49-8.57-6.82-9-16.57-.2-17,3.51-11.69,7.6-14.61,8-3.51,17.53-10.13,18.31-18.71-16.56-18.71-21.24,20.85-9.35,25.14-10.32-5.65-11.5-5.85-13.64,5.07-.59,5.85-2.73c5.39-14.84,13-19.29,20.07-25.91s31.37-5.85,39.36-5.85,7-6.23,11.3-6.62,8-5.85,8.57-13.06,11.5-17.15,26.69-18.51-8.38-7.4-22-6.82-.59-20.07,5.65-26.11-3.71-13.64-8.19-12.47-5.06,15.4-11.1,19.68-5.65,25.92-5.65,38.39-5.46,8.76-11.89,9.93-7.6-8-7.79-16.95-9.16,1.37-15,2.53-2.33-32.14,4.49-33.9,23.38-37.41,31-49.29,12.66-10.13,20.26-12.47,17.73,4.28,19.48,8.18,23.77,13.44,26.7,17.15,3.31,12.47-4.48,23.57c-4.78,6.81,6.46-1.6,17.36-10.11,6.9-5.39,13.66-10.83,16.15-12.49,6.43-4.29,32.15-7.79,39.94-8s21.63-6.23,31.18-7.6,15-24.74,21.23-26.49,36-20.46,40-21.05,11.49-19.68,17.73-22.4,24-9.16,29.22-9.75,15.78-15.58,21.24-16,11.3,6.62,19.29,9.35,9.74,21,12.47,29.61S1041,231.4,1048.8,231.4s17.53,9.36,18.89,18.71,8.77,13.83,11.11,8.38,18.9-8.38,24.36-10.52,11.49-8.77,23.18-9,8.19,6,9.16,11.3,10.52,9.16,23.58,9.36,8.18.58,12.47,4.67,38.38,3.12,49.68,3.7,41.31,24.75,45,27.87S1271.11,306.61,1268.77,311.29Z"/><path class="cls-2" d="M621.05,403.64s-7.88,1-14.54-.74,7.89-8.13,11.34-10.6c1.8-1.28-.89-4.51-3.88-8.25-2.74-3.43-5.73-7.29-5.73-10.47,0-6.66,5.17-12.08,9.61-11.83s-1.23,7.88,1.23,15.52a13.49,13.49,0,0,0,.67,1.71c2.94,6.49,9.51,9.94,10.42,16.52C631.15,402.65,621.05,403.64,621.05,403.64Z"/><path class="cls-2" d="M605.53,387.62s3.45-5.42-2-5.66-6.41,4.43-9.36,5.91-6.65,14.54-3,14,15-3,14.54-6.16A50.2,50.2,0,0,1,605.53,387.62Z"/><path class="cls-2" d="M1108.46,428.63c-3.53.74-13.72-41.78-13.72-41.78,1.06-3.57,2.14-5.28,3.22-5.66a1.69,1.69,0,0,1,1.73.46c3.41,2.92,6.49,16.88,8.17,24C1110.32,416.11,1112,427.88,1108.46,428.63Z"/><path class="cls-2" d="M1111.43,460.17c-1.91,4.13-25.11,30.19-31.47,30.19s-9.22,13-9.54,16.85-5.4-9.53-3.5-16.85,20.67-16.21,31.79-21.61,2.86-18.76,3.18-28.93,13.67-1.59,13.67-1.59C1132.41,446.18,1113.34,456,1111.43,460.17Z"/><path class="cls-2" d="M1038.05,517.2s-6.33,7.79-1,11.2,9.25-3.41,9.25-3.41Z"/><path class="cls-2" d="M1029.77,554.7c-1.92,11.56,14.13,12.18,15.1,21.44s16.56,12.66,15.1,5.84-10.71-14.61-16.07-20.46S1030.75,548.86,1029.77,554.7Z"/><path class="cls-2" d="M1003,599.52c6.93-1.51,11.69-19,17-12.67s14.13,14.61,6.82,22.89-7.31,15.1-20,8.28S991.78,602,1003,599.52Z"/><path class="cls-2" d="M948.92,591.72s-3.9,7.8,4.38,12.67,12.67,20.94,19,21.91,15.1,2.44,12.18-4.87,0-13.15-13.16-15.58S954.28,591.72,948.92,591.72Z"/><path class="cls-2" d="M1002.5,628.25c-5.35.29-17.54,1-13.64,4.87s17.53,8.28,21.92,3.9S1020.52,627.28,1002.5,628.25Z"/><path class="cls-2" d="M1097.48,632.64s-.49-5.36-5.85-10.23-2-10.23,6.33-10.23,19.49,4.87,27.77,6.82,26.79,17,8.77,17.53S1103.32,642.87,1097.48,632.64Z"/><path class="cls-2" d="M782.81,662.76s3.22.71,3.58-5.73,3.94-8.59,6.09-6.8,6.08,18.26,3.22,27.56-7.52,29.72-15,21.84-14-5.73-7.52-17.9S776,663.12,782.81,662.76Z"/><path class="cls-2" d="M1026.48,682.59s-16.37,3.12-10.92,24.57,8.19,24.17,19.11,20.66,43.67-9.36,47.57-7,7.79,12.09,12.47,12.09,1.17,17.54,10.14,17.54,29.24,3.51,37-16,13.26-27.29,4.68-38.21-29.65-34.26-28.85-40.94c1.17-9.75-8.58-12.87-10.14-8.58s2.34,22.23-3.51,22.62-12.09-7.8-14.43-15.21-10.91-4.68-17.54-2.73c-5.25,1.54,3.12,8.19-2.34,9.36s-8.19-6.63-12.87-4.68-16.37,6.63-16.37,9.75S1034.67,681,1026.48,682.59Z"/><path class="cls-2" d="M1213.24,756.5c-8.85,1.89-7.59,17.71-17.71,19s-13.92,23.41-9.49,22.14,47.45-14.55,37.33-27.84S1222.1,754.6,1213.24,756.5Z"/><path class="cls-2" d="M1222.1,740.68s-1.26,14.55,6.33,13.92,13.92-17.72,4.43-17.08S1222.1,740.68,1222.1,740.68Z"/><path class="cls-2" d="M553.27,306.08c1.76,5.73,2.37-2.84,7.11-2.84s25.12,4.74,18.49,10.42-10,14.7-18,13.27-15.64-7.58-15.64-14.21.74-9.3,3.46-9.3S552.42,303.29,553.27,306.08Z"/><path class="cls-2" d="M424.27,148.6S404,144.8,404,167s2.54,33.58,12.67,34.21,19,6.33,19,34.21,1.9,67.77,19.64,81.08,26,27.23,33.57,23.43,3.17-42.44,11.4-45.6l8.24-3.17s34.2-26.61,34.2-56.38-3.16-47.51,7-55.11,19.64-38.64,7-43.7-58.28-7.61-62.08-1.9-19,17.73-27.23,12.66-4.36-11.4-15.21-11.4C426.81,135.3,437.57,148,424.27,148.6Z"/><path class="cls-2" d="M360.47,524.52s-10.9,3.3-14.53,4.62-3.31,6.94,5.28,5.62,18.17-7.93,16.19-11.9S362.78,521.54,360.47,524.52Z"/><path class="cls-2" d="M378.64,537.73s-15.53,5.61-8.26,5.94,8.26,5,13.87,4.3,9.25-6.94,7.6-7.27S378.64,537.73,378.64,537.73Z"/><path class="cls-2" d="M82.87,588.28s-6.49,3.81-4.2,7.24S88.21,602,89.73,599s-.38-5.72,0-8.39S86.3,584.85,82.87,588.28Z"/><path class="cls-2" d="M74.86,577.6c1.89.23,7,4,.29,6.71-4.67,1.87-4.11.94-4.86-1.31S67.44,576.7,74.86,577.6Z"/><path class="cls-2" d="M63.33,573.1s-5.93,2.2-2.71,5,3.18,4.95,4.91,2.43,4.57-5.47,2-5.65S64.5,573.57,63.33,573.1Z"/><path class="cls-2" d="M52.26,569.46c-.09.1-2.61,3.13-.93,3.46s2,1.3,2.66,1.68,4.25.32,3.22-2.62S54.51,567,52.26,569.46Z"/><path class="cls-2" d="M466.7,608.28C446.09,602,461.31,591,449.13,591s-27.16-4.45-28.8-11.48,1.88-8.66-13.58-8.66S344,574.33,343.06,564s-6.09-16.39-11-17.56a2.91,2.91,0,0,1-2.05-1.93c-1.45-3.61.34-10.82-4.27-11.19-5.86-.46-6.8,8.9-14.52,8.9s-16.07-26.22-9.68-40.93a11,11,0,0,1,4.41-5.09c10.41-6.46,31.68,2,31.41,8-.32,7,5.12,14.71,8,14.71s1-19.19,3.52-23.35,16.95-16.95,17.59-28.14,13.33-5.53,14.39-11.19c2.88-15.35,12.47-11.2,13.75-17.27s-3.84-18.23,17.27-25.27,30.38-22.7,14.39-32.29-9.27-34.54-13.43-32.94S409,360,402.92,360.29s-10.56-4.48-16.31-13.75-12.79-14.07-17.91-13.75-2.56,22.7-4.16,22.7-5.69,5.51,0,11.79,4.57,11.43-1.14,14.28-5.14,22.28-10.28,21.13,4.57-17.13-10.28-17.13-38.84-4-38.84-30.84,22.27-21.14,25.7-26.28,2.86-17.13-2.85-22.84-9.17-16-16-16.57c-14.28-1.14-1.71,13.14-10.28,13.14s-56,4.57-63.4-6.28-22.84-17.71-30.84-16-29.7,12.57-39.41,12.57-64.54-25.7-74.82-18.28S60.7,298.17,63,303.31s12,14.28,4,14.85-12,15.42-5.72,15.42,26.28,13.14,14.85,13.14S59.56,357,67.56,364.43s30.27,15.42,34.27,8,28-30.27,47.4-14.85,52.55,61.12,52.55,72,1.14,37.7,17.14,53.69a81.3,81.3,0,0,0,7.65,6.68c15.29,11.9,34,19.87,40.32,34.44,7.43,17.14,13.14,28,26.28,28,7.53,0,19,.19,27.53,1.85,6.34,1.25,11.06,3.31,11.31,6.72.57,8-4.82,20.63,15.58,21.17,0,0,18.14-1.51,18.14,4.53s-15.87,33.26-15.12,42.33,18.9,36.29,28,36.29,7.56,77.1,7.56,98.27,7.56,37.79,15.88,40.82,25.7,6.8,18.9,3-12.1-5.29-12.1-25.7,2.27-29.48,11.34-30.24,7-15.74,10.71-16.91,26.46-17.56,26.69-24.12,6.09-23.18,13.58-26.22,21.55-16.86,22.72-28.8,10.53-10.07,10.53-17.8S487.3,614.6,466.7,608.28ZM319,416.54c4.3-.71,11.23,0,18.39-.48s4.54,12.42,6.69,15.29,5.73,6.45,8.12,11.46-5.73,4.78-9.32,5-.95-12.66-2.15-14.33-2.86,3.34-7.4,3.58-1.43,12.9-5,16S323.8,432.3,324,426.81s-10.27-1.67-10.27-4.54S319,416.54,319,416.54Z"/><path class="cls-2" d="M30.84,962.17s37.62-30.55,75.34-29.2c17.81.64,36.36-8.2,44.11-8.2,8.73,0,40.44-4.48,77.73-7.09,12.43-.88,25.45,2.56,38.49,1,14.69-1.8,29.19-9.52,42.95-11.32,37.62-4.93,68.15-5.59,73.75-14.61,5.15-8.29,12.92-19,19.65-29.37,9.5-14.69,27.42-15.19,28.13-10.71.26,1.61-2.07,5.25-4.64,6.2-5.78,2.13-9.16,11.59-7,18.74,3.62,11.82-4.82,21.81,8.62,23.15,7.12.71,25.05,9.59,47.25,7.38,12.82-1.27,49.55-7.8,74.91-6.93,44.57,1.52,67.79,6.6,99.81,7.68s104.1-9.6,151.31-2.79c44.9,6.48,86.6,16,116.46,13.36s-14.9-1.16,29.86-2.67c29.61-1,85.19-6.66,93.73-11.11,15.31-8,53.59-.77,64.59-3.74,9.59-2.6,40-10.89,40-8.53,0,7.31-8.16,20.46,0,23.38s0,16.07,6.54,16.07,27.76,0,27.76,5.84,8.16,21.91,8.16,21.91Z"/></g><g id="countries"><path class="cls-3" d="M957,506.73c-.91.55-.37-1.1-.91.55s-2.56.91-3.29,2.19-2.56.55-2.38,2.38.36,3.83-.55,4.2,1.46,2.92.18,3.84.19,5.85-1.64,4.93-2.74-.91-2.74.92-1.1,5.48-2.2,4.57-1.09-5.3-2.19-4.76-4.2,1.1-4.2.55-2.28-3.77-1.31-4.21,4.22-2.9,2.46-2.81-5.71.17-6.24-.88-.61-2.2-1.23-2.37-.62-1.15-1.49-.88-1.24.7-.44,1.4,1.23,3,.08,3.08-.44.7.27,1.5.09,2.37.7,3a6.3,6.3,0,0,1,1.23,3.61,7.78,7.78,0,0,0,.1,1c-3.5-.07-6.35.35-6.35,1.63,0,3.2-15.28,18.23-19.51,22.08a1.5,1.5,0,0,0-1,.75l0,.07c-3.28,2.22-7.43-.62-7.43,2.95,0,3.75-.83,20.43-6.67,22.93s-8.34-9.17-13.34-20.43,1.25-22.09-2.08-23.76a107.8,107.8,0,0,1-13.49-7.8c1.4,0,2.74,0,2.69-.34s-2.58-.27-3.87-.55a1.57,1.57,0,0,1-.62-.24,8.16,8.16,0,0,1-1.18-1.28l0,0c-.67-.87-1.22-1.84-.9-2.11a8.09,8.09,0,0,0,1.5-2c.26-.53,3.25-1.67,3.95-1s1.23-.62,2.55,0,2.55-.09,1.59-1-3.52-3.07-3.26-4.31-2.72.53-2.2-2.11c1.19-5.91,5.1-6.68,6-6.06s3.87,1,4.75,0,3.52-3.87,3.52-5.37,2.37-.79,2.55-1.49,2.55-2.29,2.55-3.69.26-2.9,1.23-2.9.53-1-.35-1-4.52-2.11-4.58-2.73c-.08-1.05,0-3.69,0-4.39s2.29-1.5,1.85-2-4.57-.87-5-3.07.26-2.2.26-2.2c1.12-2.23,15.94-2.05,17.06,1.67s12.33-3.3,12,.79-5,5.64-3.93,8.62,5.14,3.52,3.86,4.8-5.48.37-5.48,1.65,5.67.18,5.48,3.47-3.65,7.67-2.19,7.67,3.66,3.66,6,3.29,7.86-1.27,9.87.55,7.5,4,7.68,2,2.37-5.11,3.11-4.75.18,3.11,2,3.11,10.78,1.83,8.22.55-3.29-2.74-1.1-3.29,3.29-3.66,4.39-3.84,3.66-.73,4.75-2.19,2.38-.55,3.84-.74,2.93,3.29,5.12,3.29S957.92,506.18,957,506.73Z"/><path class="cls-3" d="M320.25,553.62q.25.3.45.57c-8.53-1.66-20-1.85-27.53-1.85-13.14,0-18.85-10.85-26.28-28-6.31-14.57-25-22.54-40.32-34.44a37.14,37.14,0,0,0,5.31-2.5s7.34.66,8.26,3,7-1,10.4-1.32,15.88-21.12,19.55-21.12,3.06,5.6,6.73,5.6,3.06,6.92,8.25,7.9,4-3.62,7.65-3.62S299.44,491,303.42,493a4.28,4.28,0,0,1,2.53,3.26,11,11,0,0,0-4.41,5.09c-6.39,14.71,1.95,40.93,9.68,40.93s8.66-9.36,14.52-8.9c4.61.37,2.82,7.58,4.27,11.19-1.49,1.81-7.87,2.82-11.9,2.82C313.52,547.36,317.19,550,320.25,553.62Z"/><path class="cls-3" d="M741,509.34l8.87,18.3.55,1.93-38.21,3.92-2.44-45.55c8.89,1.62,22.14,4.19,31,3.19l.1,0c2.23,1.57,4.66,3.26,7,4.82,7.06,4.79,5.23,10.12,1,8.16-2-.94-3,.38-3.5,2C742,503.7,741,509.34,741,509.34Z"/><path class="cls-3" d="M771.85,604.25c-1.12.56-2.11,1-2.91,1.41-4.41,2.07-5.27,16.41-5.59,30.77l-7-1.13-.2-2.45L744,626.78c-1-.16-10.9.3-10.79-5.67,0-1.59,2.79-6.86,3.58-7.93s1.38-4.61-3.45-9.67c-3.6-3.78.31-10.2,5.59-8.41a13.44,13.44,0,0,0,5,.37c1.67-.13,2.31,2.37,3.13,2.52s1.62-1.79,2.76-1.88,3.59,2.59,5.36,2.45,2.14-2,5-3.06,3.88.7,5.26,1.36,1.73-1.57,2.33-1.85.12-.78,1.63-.79,1.92,4,3.52,5.14C774.22,600.24,773,603.12,771.85,604.25Z"/><path class="cls-3" d="M619.75,379a3.09,3.09,0,0,1-1.46.32c-2.76,0-.64,3.62-2.55,3.83a4.78,4.78,0,0,0-1.77.92c-2.74-3.43-5.73-7.29-5.73-10.47,0-6.66,5.17-12.08,9.61-11.83s-1.23,7.88,1.23,15.52A13.49,13.49,0,0,0,619.75,379Z"/><path class="cls-3" d="M1111.43,460.17c-1.91,4.13-25.11,30.19-31.47,30.19s-9.22,13-9.54,16.85-5.4-9.53-3.5-16.85,20.67-16.21,31.79-21.61,2.86-18.76,3.18-28.93,13.67-1.59,13.67-1.59C1132.41,446.18,1113.34,456,1111.43,460.17Z"/><path class="cls-3" d="M1107.86,405.64c2.46,10.47,4.13,22.24.6,23s-13.72-41.78-13.72-41.78c1.06-3.57,2.14-5.28,3.22-5.66-2.68-.78-3.85-1.55-2-2,2.43-.54,4,.73,5.29,2.8l-1.61-.37C1103.1,384.57,1106.18,398.53,1107.86,405.64Z"/><path class="cls-3" d="M1268.77,311.29c-2.34,4.68-11.56,8-23-5.36-4.62-5.4-27.71,29.15-30.58,42.05s-15.77,4.3-21.5,12.42-12.43,32.5-11.47,39.66-15.77,11.47-21.34,3.38c-13.54-19.68,13.76-51.7,20.85-57.53s-21.68-7.93-27.52-7.09,12.51,13.76-6.67,16.26-63.37,8.34-57.12,25.85,10,32.94,10.43,45a9.73,9.73,0,0,1-2.51,6.22c0-5.38-10-10.74-13.82-5.37s-18.42-.76-23-.76-4.6-22.26-10-22.26-19.19,6.9-19.19,17.65-8.44,12.28-14.58,11.52-6.91,4.6-20.73,5.37-10-7.68-26.1-6.14-6.14-6.14-6.14-6.14-12.28-.77-12.28,9.21-19.19-8.45-33-4.61-9.21-6.14-13.82-6.14-19.19-18.42-19.19-23S875.7,390,869.56,390,865,365.4,838.08,364.64c-8.47-.25-1.53,13.81-8.44,13.05s-26.1-29.94-36.08-29.94S779,353.12,779,359.26s-3.07,6.14-6.14,6.14S760.55,377.69,759,380s-8.45-.77-6.91-17.66-13.05-26.1-13.05-33,28.4,3.83,28.4-7.68c0-3.28-1.12-10.16-2.72-18.33,6.9-5.39,13.66-10.83,16.15-12.49,6.43-4.29,32.15-7.79,39.94-8s21.63-6.23,31.18-7.6,15-24.74,21.23-26.49,36-20.46,40-21.05,11.49-19.68,17.73-22.4,24-9.16,29.22-9.75,15.78-15.58,21.24-16,11.3,6.62,19.29,9.35,9.74,21,12.47,29.61S1041,231.4,1048.8,231.4s17.53,9.36,18.89,18.71,8.77,13.83,11.11,8.38,18.9-8.38,24.36-10.52,11.49-8.77,23.18-9,8.19,6,9.16,11.3,10.52,9.16,23.58,9.36,8.18.58,12.47,4.67,38.38,3.12,49.68,3.7,41.31,24.75,45,27.87S1271.11,306.61,1268.77,311.29Z"/></g></g></g></svg>