<?xml version="1.0" encoding="utf-8"?>
<!-- Generator: Adobe Illustrator 24.0.1, SVG Export Plug-In . SVG Version: 6.00 Build 0)  -->
<svg version="1.1" xmlns="http://www.w3.org/2000/svg" xmlns:xlink="http://www.w3.org/1999/xlink" x="0px" y="0px"
	 viewBox="0 0 1280 960" style="enable-background:new 0 0 1280 960;" xml:space="preserve">
<style type="text/css">
	.st0{fill:#91D2CD;}
	.st1{fill:#E9E96D;}
	.st2{fill:#FFBC97;}
</style>
<g id="Calque_2">
	<rect id="sea" x="-1.45" y="-1.64" class="st0" width="1281.05" height="961.61"/>
	<g id="map">
		<path class="st1" d="M1267.32,309.65c-2.34,4.68-11.56,8.02-23.03-5.36c-4.62-5.4-27.71,29.15-30.58,42.05
			c-2.87,12.9-15.77,4.3-21.5,12.42c-5.74,8.13-12.43,32.5-11.47,39.66c0.95,7.17-15.77,11.47-21.34,3.38
			c-13.54-19.68,13.76-51.7,20.85-57.53c7.09-5.84-21.68-7.93-27.52-7.09c-5.83,0.83,12.51,13.76-6.67,16.26
			c-19.18,2.5-63.37,8.34-57.12,25.85c6.26,17.51,10.01,32.94,10.43,45.03c0.07,2.06-0.87,4.15-2.51,6.22c0,0,0,0,0,0.01
			c-1.25,1.58-2.9,3.15-4.82,4.69c-0.01,0-0.02,0.02-0.02,0.02c-4.27,3.41-9.84,6.68-15.22,9.61c-7.64,4.17-14.9,7.66-17.46,9.88
			c-6.25,5.42,7.5,17.52,2.92,19.6c-4.59,2.08-11.68-8.34-13.76-14.18c-2.09-5.83-18.35,1.26-23.77,5.42
			c-5.42,4.17,10.01,20.85,15.85,28.77c5.83,7.92-28.35,34.61-47.95,35.44c-19.6,0.84-5.84,13.34,0,16.68
			c5.84,3.34,3.75,13.76-2.92,19.6c-6.67,5.83-17.93-2.92-21.68-3.76c-3.75-0.83-0.83,22.1-5.84,22.1c-5,0-0.83-26.27-0.83-32.1
			c0-5.84-15.43-2.92-17.51-2.92c-2.09,0-1.25-18.35-1.25-20.01c0-1.03-7.25-2.37-12.83-2.47c-3.5-0.07-6.35,0.35-6.35,1.63
			c0,3.2-15.28,18.23-19.51,22.08c-0.19,0.17-0.36,0.31-0.5,0.44c-0.16,0.14-0.33,0.27-0.5,0.38c-3.28,2.22-7.43-0.62-7.43,2.95
			c0,3.75-0.83,20.43-6.67,22.93c-5.83,2.5-8.34-9.17-13.34-20.43c-5-11.25,1.25-22.09-2.08-23.76c-2.08-1.04-8.7-4.35-13.49-7.8
			c-0.41-0.29-0.8-0.59-1.18-0.89c-0.66-0.51-1.27-1.02-1.8-1.52c-0.01-0.01-0.02-0.03-0.03-0.04c-1.31-1.25-2.17-2.46-2.27-3.51
			c-0.41-4.59-19.17-3.34-27.51-3.34c-8.34,0-7.09,3.76-20.43-8.34c-13.34-12.09-17.93-6.25-17.93-3.75s20.43,19.6,28.35,20.02
			c7.92,0.41,1.67,14.17,2.09,19.17c0.41,5.01-37.95,16.68-42.95,17.52c-5,0.83-23.35-42.11-29.18-52.12
			c-1.26-2.16-2.33-3.43-3.22-4.08c-3.26-2.4-4.29,3.24-4.29,3.24s3.93,8.11,8.87,18.3c7.83,16.15,18.2,37.52,19.48,40.08
			c2.09,4.16,5.01,2.5,15.43,2.5c10.42,0,12.51,1.25,12.51,11.25c0,10.01-21.27,20.85-28.35,24.19c-7.09,3.33-5.01,38.35-6.26,54.2
			c-1.25,15.84-13.76,5.42-13.76,29.18c0,7.51-12.09,5.42-13.76,20.85c-1.66,15.43-35.02,20.85-47.11,20.85
			c-12.09,0-3.75-40.45-8.76-46.7c-5-6.25-8.43-58.99-13.05-61.18c-3.97-1.88-8.83-23.15-9-34.66c-0.03-1.88,0.06-3.49,0.31-4.72
			c1.65-8.22-23.09-2.56-30.19,5.41c-0.48,0.53-0.88,1.07-1.18,1.61c-4.87,8.76-29.42-6.24-44.81-12.86
			c-15.39-6.63-14.42-31.76-13.25-47.74c1.17-15.98,25.53-30.78,27.08-38.19c1.56-7.4,15.98-12.66,30.98-13.25
			c15.01-0.58,20.27-5.26,31.18-4.09c10.91,1.17,18.9,20.46,26.69,20.46c7.8,0,13.25-8.96,21.63-7.6c1.21,0.2,2.59,0.44,4.09,0.71
			c8.89,1.62,22.14,4.19,30.98,3.19c0.03,0,0.07-0.01,0.1-0.02c10.21-1.25,7.27-16.54-1.46-17.71c-8.77-1.17-18.71-11.5-18.71-15.98
			c0-4.48,3.9-2.92,9.16-3.7c5.26-0.78,17.73-2.34,23.38-0.2c5.65,2.15,12.28-7.4,7.4-9.74c-4.87-2.34-4.67-13.44-9.74-13.05
			c-5.06,0.39-27.08,3.7-28.83,16.17c-1.76,12.47-7.21,9.16-12.86,9.35c-5.65,0.2-7.02,11.11-9.94,12.08
			c-2.92,0.98-4.09-5.65-8.77-12.66c-4.67-7.02-3.31-12.67-6.62-14.03c-3.32-1.37-12.86,0-9.36,3.7c3.51,3.7,7.6,13.25,2.73,13.44
			c-4.87,0.2-10.13-7.98-15.19-9.74c-5.07-1.75-4.49-8.57-6.82-8.96c-2.34-0.39-16.57-0.2-16.96,3.51
			c-0.39,3.7-11.69,7.6-14.61,7.99c-2.92,0.38-3.51,17.53-10.13,18.31c-6.63,0.78-18.71-16.56-18.71-21.24
			c0-4.67,20.85-9.35,25.14-10.32c4.29-0.98-5.65-11.5-5.85-13.64c-0.19-2.15,5.07-0.59,5.85-2.73
			c5.39-14.84,13.05-19.29,20.07-25.91c7.01-6.63,31.37-5.85,39.36-5.85c7.98,0,7.01-6.23,11.3-6.62c4.28-0.39,7.99-5.85,8.57-13.06
			c0.58-7.21,11.5-17.15,26.69-18.51c15.2-1.36-8.38-7.4-22.01-6.82c-13.64,0.59-0.59-20.07,5.65-26.11
			c6.23-6.04-3.71-13.64-8.19-12.47c-4.48,1.17-5.06,15.4-11.1,19.68c-6.04,4.29-5.65,25.92-5.65,38.39
			c0,12.47-5.46,8.76-11.89,9.93c-6.43,1.17-7.6-7.99-7.79-16.95c-0.2-8.96-9.16,1.37-15.01,2.53c-5.84,1.17-2.33-32.14,4.49-33.9
			c6.82-1.75,23.38-37.41,30.98-49.29c7.59-11.89,12.66-10.13,20.26-12.47c7.6-2.34,17.73,4.28,19.48,8.18
			c1.76,3.9,23.77,13.44,26.7,17.15c2.92,3.7,3.31,12.47-4.48,23.57c-4.78,6.81,6.46-1.6,17.36-10.11
			c6.9-5.39,13.66-10.83,16.15-12.49c6.43-4.29,32.15-7.79,39.94-7.99c7.79-0.19,21.63-6.23,31.18-7.6
			c9.54-1.36,15-24.74,21.23-26.49c6.24-1.76,36.05-20.46,39.95-21.05c3.89-0.58,11.49-19.68,17.73-22.4
			c6.23-2.73,23.96-9.16,29.22-9.75c5.26-0.58,15.78-15.58,21.24-15.97c5.46-0.39,11.3,6.62,19.29,9.35
			c7.99,2.73,9.74,21.04,12.47,29.61c2.73,8.58,27.86,12.86,35.66,12.86c7.79,0,17.53,9.36,18.89,18.71
			c1.37,9.35,8.77,13.83,11.11,8.38c2.34-5.46,18.9-8.38,24.36-10.52c5.45-2.15,11.49-8.77,23.18-8.97
			c11.69-0.19,8.19,6.04,9.16,11.3s10.52,9.16,23.58,9.36c13.05,0.19,8.18,0.58,12.47,4.67c4.28,4.09,38.38,3.12,49.68,3.7
			c11.3,0.59,41.31,24.75,45.01,27.87C1268.49,297.37,1269.66,304.97,1267.32,309.65z"/>
		<path class="st1" d="M619.6,402c0,0-7.88,0.98-14.54-0.74c-6.65-1.73,7.89-8.13,11.34-10.6c1.8-1.28-0.89-4.51-3.88-8.25
			c-2.74-3.43-5.73-7.29-5.73-10.47c0-6.66,5.17-12.08,9.61-11.83c4.43,0.25-1.23,7.88,1.23,15.52c0.19,0.6,0.41,1.16,0.67,1.71
			c2.94,6.49,9.51,9.94,10.42,16.52C629.7,401.01,619.6,402,619.6,402z"/>
		<path class="st1" d="M604.08,385.98c0,0,3.45-5.42-1.97-5.67c-5.42-0.25-6.41,4.43-9.36,5.91c-2.96,1.48-6.65,14.54-2.96,14.04
			c3.7-0.49,15.03-2.96,14.54-6.16C603.83,390.91,604.08,385.98,604.08,385.98z"/>
		<path class="st1" d="M1107.01,426.99c-3.53,0.74-13.72-41.78-13.72-41.78c1.06-3.57,2.14-5.28,3.22-5.66
			c0.58-0.21,1.16-0.03,1.73,0.46c3.41,2.92,6.49,16.88,8.17,23.99C1108.87,414.47,1110.54,426.24,1107.01,426.99z"/>
		<path class="st2" d="M1109.98,458.53c-1.91,4.13-25.11,30.19-31.47,30.19s-9.22,13.04-9.54,16.85c-0.32,3.82-5.4-9.53-3.5-16.85
			c1.91-7.31,20.67-16.21,31.79-21.61c11.13-5.41,2.86-18.76,3.18-28.93c0.32-10.17,13.67-1.59,13.67-1.59
			C1130.96,444.54,1111.89,454.39,1109.98,458.53z"/>
		<path class="st1" d="M1036.6,515.56c0,0-6.33,7.79-0.97,11.2c5.36,3.41,9.25-3.41,9.25-3.41L1036.6,515.56z"/>
		<path class="st1" d="M1028.32,553.06c-1.93,11.55,14.13,12.18,15.1,21.43c0.97,9.25,16.56,12.66,15.1,5.84
			c-1.46-6.82-10.72-14.61-16.07-20.46C1037.09,554.04,1029.29,547.22,1028.32,553.06z"/>
		<path class="st1" d="M1001.53,597.87c6.93-1.51,11.69-19,17.05-12.66s14.13,14.61,6.82,22.89s-7.31,15.1-19.97,8.28
			S990.33,600.31,1001.53,597.87z"/>
		<path class="st1" d="M947.47,590.08c0,0-3.9,7.79,4.38,12.66c8.28,4.87,12.66,20.94,19,21.92c6.33,0.97,15.1,2.44,12.18-4.87
			c-2.92-7.31,0-13.15-13.15-15.59C956.72,601.77,952.82,590.08,947.47,590.08z"/>
		<path class="st1" d="M1001.04,626.61c-5.35,0.29-17.53,0.97-13.64,4.87c3.9,3.9,17.53,8.28,21.92,3.9
			C1013.71,631,1019.07,625.64,1001.04,626.61z"/>
		<path class="st1" d="M1096.02,631c0,0-0.49-5.36-5.84-10.23c-5.36-4.87-1.95-10.23,6.33-10.23c8.28,0,19.48,4.87,27.76,6.82
			c8.28,1.95,26.79,17.05,8.77,17.53C1115.02,635.38,1101.87,641.22,1096.02,631z"/>
		<path class="st1" d="M781.36,661.12c0,0,3.22,0.72,3.58-5.73c0.36-6.44,3.94-8.59,6.09-6.8c2.15,1.79,6.09,18.26,3.22,27.57
			s-7.52,29.71-15.04,21.84c-7.52-7.88-13.96-5.73-7.52-17.9C778.13,667.92,774.55,661.47,781.36,661.12z"/>
		<path class="st1" d="M1025.03,680.95c0,0-16.38,3.12-10.92,24.56s8.19,24.17,19.11,20.66c10.92-3.51,43.67-9.36,47.57-7.02
			c3.9,2.34,7.8,12.09,12.48,12.09c4.68,0,1.17,17.55,10.14,17.55c8.97,0,29.24,3.51,37.04-15.99c7.8-19.49,13.26-27.29,4.68-38.21
			c-8.58-10.92-29.65-34.26-28.85-40.94c1.17-9.75-8.58-12.87-10.14-8.58s2.34,22.22-3.51,22.61s-12.09-7.8-14.43-15.21
			c-2.34-7.41-10.92-4.68-17.55-2.73c-5.25,1.54,3.12,8.19-2.34,9.36c-5.46,1.17-8.19-6.63-12.87-4.68
			c-4.68,1.95-16.38,6.63-16.38,9.75S1033.22,679.39,1025.03,680.95z"/>
		<path class="st1" d="M1211.79,754.86c-8.86,1.9-7.59,17.71-17.71,18.98c-10.12,1.27-13.92,23.41-9.49,22.14
			s47.45-14.55,37.33-27.84S1220.65,752.96,1211.79,754.86z"/>
		<path class="st1" d="M1220.65,739.04c0,0-1.27,14.55,6.33,13.92s13.92-17.71,4.43-17.08
			C1221.91,736.51,1220.65,739.04,1220.65,739.04z"/>
		<path class="st1" d="M551.82,304.44c1.75,5.73,2.37-2.84,7.11-2.84s25.12,4.74,18.48,10.43c-6.64,5.69-9.95,14.69-18.01,13.27
			c-8.06-1.42-15.64-7.58-15.64-14.22c0-6.64,0.74-9.29,3.46-9.29C549.95,301.78,550.97,301.65,551.82,304.44z"/>
		<path class="st1" d="M422.82,146.96c0,0-20.27-3.8-20.27,18.37s2.53,33.57,12.67,34.21c10.14,0.63,19,6.33,19,34.21
			s1.9,67.78,19.64,81.08c17.74,13.3,25.97,27.24,33.57,23.44c7.6-3.8,3.17-42.44,11.4-45.61s8.23-3.17,8.23-3.17
			s34.21-26.6,34.21-56.38s-3.17-47.51,6.97-55.11c10.14-7.6,19.64-38.64,6.97-43.71c-12.67-5.07-58.28-7.6-62.08-1.9
			c-3.8,5.7-19,17.74-27.24,12.67c-8.23-5.07-4.36-11.4-15.2-11.4C425.35,133.66,436.12,146.33,422.82,146.96z"/>
		<path class="st1" d="M359.02,522.87c0,0-10.9,3.3-14.53,4.62c-3.63,1.32-3.3,6.94,5.28,5.62c8.59-1.32,18.17-7.93,16.19-11.89
			S361.33,519.9,359.02,522.87z"/>
		<path class="st1" d="M377.18,536.09c0,0-15.52,5.62-8.26,5.95s8.26,4.95,13.87,4.29s9.25-6.94,7.6-7.27
			C388.74,538.73,377.18,536.09,377.18,536.09z"/>
		<path class="st1" d="M81.41,586.64c0,0-6.48,3.81-4.19,7.25c2.29,3.43,9.53,6.48,11.06,3.43c1.53-3.05-0.38-5.72,0-8.39
			C88.66,586.26,84.85,583.2,81.41,586.64z"/>
		<path class="st1" d="M73.41,575.96c1.89,0.23,7.02,4.02,0.29,6.71c-4.67,1.87-4.11,0.93-4.86-1.31
			C68.09,579.12,65.99,575.06,73.41,575.96z"/>
		<path class="st1" d="M61.88,571.46c0,0-5.93,2.2-2.71,5c3.22,2.8,3.18,4.95,4.9,2.43c1.73-2.52,4.58-5.46,1.96-5.65
			C63.42,573.05,63.05,571.93,61.88,571.46z"/>
		<path class="st1" d="M50.81,567.82c-0.09,0.1-2.62,3.13-0.93,3.46c1.68,0.33,1.96,1.31,2.66,1.68c0.7,0.37,4.25,0.33,3.22-2.62
			C54.73,567.4,53.05,565.34,50.81,567.82z"/>
		<path class="st1" d="M465.25,606.64c-20.61-6.32-5.39-17.32-17.57-17.32c-12.17,0-27.16-4.45-28.8-11.48
			c-1.64-7.02,1.88-8.66-13.58-8.66c-15.45,0-62.75,3.51-63.69-6.79c-0.93-10.31-6.09-16.39-11-17.56
			c-1.04-0.25-1.66-0.96-2.05-1.93c-1.45-3.61,0.34-10.82-4.27-11.19c-5.86-0.46-6.8,8.9-14.52,8.9c-7.73,0-16.07-26.22-9.68-40.93
			c0.98-2.26,2.52-3.92,4.41-5.09c10.41-6.46,31.68,2.01,31.41,7.97c-0.32,7.03,5.12,14.71,7.99,14.71c2.88,0,0.96-19.19,3.52-23.35
			s16.95-16.95,17.59-28.14s13.33-5.53,14.39-11.19c2.88-15.35,12.47-11.2,13.75-17.27c1.28-6.08-3.84-18.23,17.27-25.27
			c21.11-7.03,30.38-22.7,14.39-32.29c-15.99-9.6-9.27-34.54-13.43-32.94c-4.16,1.6-3.84,11.51-9.91,11.83
			c-6.08,0.32-10.56-4.48-16.31-13.75c-5.76-9.28-12.79-14.07-17.91-13.75s-2.56,22.7-4.16,22.7c-1.6,0-5.69,5.51,0.02,11.79
			c5.71,6.29,4.57,11.43-1.14,14.28c-5.71,2.86-5.14,22.28-10.28,21.13c-5.14-1.14,4.57-17.13-10.28-17.13
			c-14.85,0-38.84-4-38.84-30.84c0-26.85,22.27-21.14,25.7-26.28s2.86-17.13-2.85-22.84c-5.72-5.71-9.17-16.02-16-16.57
			c-14.28-1.14-1.71,13.14-10.28,13.14s-55.97,4.57-63.4-6.28c-7.42-10.86-22.84-17.71-30.84-16c-8,1.72-29.7,12.57-39.41,12.57
			c-9.71,0-64.54-25.7-74.82-18.28c-10.28,7.43-31.42,23.99-29.13,29.13c2.28,5.14,11.99,14.28,4,14.85c-8,0.57-12,15.42-5.72,15.42
			c6.29,0,26.28,13.14,14.85,13.14c-11.42,0-16.56,10.28-8.56,17.71c7.99,7.42,30.27,15.42,34.27,7.99
			c4-7.42,27.98-30.27,47.4-14.85c19.42,15.42,52.55,61.12,52.55,71.97c0,10.85,1.14,37.7,17.14,53.69
			c2.39,2.39,4.96,4.59,7.65,6.68c15.29,11.9,34.01,19.87,40.32,34.44c7.43,17.14,13.14,27.99,26.28,27.99
			c7.53,0,19,0.19,27.53,1.85c6.34,1.25,11.06,3.31,11.31,6.72c0.57,7.99-4.82,20.63,15.58,21.17c0,0,18.14-1.51,18.14,4.53
			c0,6.05-15.87,33.26-15.12,42.33c0.76,9.08,18.9,36.29,27.97,36.29c9.08,0,7.56,77.1,7.56,98.27c0,21.16,7.56,37.79,15.88,40.82
			c8.31,3.02,25.7,6.8,18.9,3.02c-6.81-3.78-12.1-5.29-12.1-25.7c0-20.41,2.27-29.48,11.34-30.24c9.07-0.75,6.96-15.74,10.71-16.91
			s26.46-17.56,26.69-24.12c0.24-6.55,6.09-23.18,13.58-26.22c7.5-3.05,21.55-16.86,22.72-28.8c1.17-11.94,10.53-10.07,10.53-17.8
			C502.94,628.18,485.85,612.96,465.25,606.64z M317.57,414.9c4.3-0.71,11.23,0,18.39-0.48c7.16-0.47,4.54,12.42,6.69,15.29
			c2.15,2.87,5.73,6.45,8.12,11.46c2.39,5.02-5.73,4.78-9.32,5.02c-3.58,0.24-0.95-12.66-2.15-14.33c-1.19-1.67-2.86,3.34-7.4,3.58
			c-4.54,0.24-1.43,12.9-5.02,16c-3.58,3.11-4.53-20.78-4.29-26.27c0.23-5.49-10.27-1.67-10.27-4.54
			C312.32,417.77,317.57,414.9,317.57,414.9z"/>
		<path class="st1" d="M29.38,960.53c0,0,37.62-30.55,75.34-29.2c17.81,0.64,36.36-8.2,44.11-8.2c8.73,0,40.44-4.48,77.73-7.1
			c12.43-0.87,25.46,2.56,38.49,0.97c14.69-1.79,29.19-9.51,42.95-11.32c37.62-4.93,68.15-5.59,73.75-14.61
			c5.14-8.28,12.91-18.97,19.65-29.37c9.5-14.69,27.42-15.19,28.13-10.7c0.25,1.6-2.07,5.25-4.65,6.2
			c-5.78,2.13-9.16,11.59-6.96,18.74c3.63,11.81-4.82,21.81,8.62,23.15c7.12,0.71,25.05,9.59,47.25,7.39
			c12.83-1.27,49.55-7.8,74.91-6.94c44.57,1.52,67.79,6.61,99.81,7.68c32.02,1.08,104.1-9.6,151.31-2.79
			c44.9,6.48,86.6,16.03,116.46,13.36s-14.9-1.16,29.86-2.67c29.61-1,85.19-6.66,93.73-11.1c15.31-7.97,53.59-0.77,64.59-3.74
			c9.6-2.6,39.98-10.89,39.98-8.52c0,7.3-8.17,20.45,0,23.37c8.17,2.92,0,16.07,6.53,16.07s27.76,0,27.76,5.84
			s8.17,21.91,8.17,21.91L29.38,960.53z"/>
	</g>
	<g id="countries">
		<path class="st2" d="M955.56,505.09c-0.91,0.55-0.37-1.1-0.91,0.55c-0.55,1.64-2.56,0.91-3.29,2.19
			c-0.74,1.28-2.56,0.55-2.38,2.38c0.18,1.82,0.36,3.83-0.55,4.2c-0.91,0.37,1.46,2.92,0.18,3.84c-1.28,0.91,0.19,5.85-1.64,4.93
			c-1.83-0.91-2.74-0.91-2.74,0.92s-1.1,5.48-2.2,4.57c-1.09-0.92-1.09-5.3-2.19-4.76c-1.1,0.55-4.2,1.1-4.2,0.55
			c0-0.55-2.28-3.77-1.31-4.21c0.97-0.44,4.22-2.9,2.46-2.81c-1.75,0.09-5.71,0.17-6.24-0.88c-0.53-1.06-0.61-2.2-1.23-2.37
			c-0.62-0.18-0.62-1.15-1.49-0.88c-0.88,0.26-1.24,0.7-0.44,1.4c0.79,0.71,1.23,2.99,0.08,3.08c-1.14,0.09-0.44,0.7,0.27,1.5
			c0.7,0.79,0.09,2.37,0.7,2.98c0.62,0.62,1.23,2.38,1.23,3.61c0,0.27,0.04,0.63,0.1,1.04c-3.5-0.07-6.35,0.35-6.35,1.63
			c0,3.2-15.28,18.23-19.51,22.08c-0.46,0.16-0.82,0.39-0.97,0.75c-0.01,0.02-0.02,0.05-0.03,0.07c-3.28,2.22-7.43-0.62-7.43,2.95
			c0,3.75-0.83,20.43-6.67,22.93c-5.83,2.5-8.34-9.17-13.34-20.43c-5-11.25,1.25-22.09-2.08-23.76c-2.08-1.04-8.7-4.35-13.49-7.8
			c1.4,0,2.74-0.04,2.69-0.34c-0.07-0.44-2.58-0.27-3.87-0.55c-0.27-0.06-0.48-0.13-0.62-0.24c-0.3-0.24-0.76-0.73-1.18-1.28
			c-0.01-0.01-0.02-0.03-0.03-0.04c-0.67-0.87-1.22-1.84-0.9-2.11c0.53-0.44,1.23-1.49,1.5-2.02c0.26-0.53,3.25-1.67,3.95-0.97
			c0.71,0.7,1.23-0.62,2.55,0s2.55-0.09,1.59-0.97c-0.97-0.88-3.52-3.07-3.26-4.31c0.27-1.23-2.72,0.53-2.2-2.11
			c1.19-5.91,5.1-6.68,5.98-6.06c0.88,0.61,3.87,1.05,4.75,0c0.88-1.06,3.52-3.87,3.52-5.37c0-1.49,2.37-0.79,2.55-1.49
			c0.17-0.7,2.55-2.29,2.55-3.69c0-1.41,0.26-2.9,1.23-2.9c0.97,0,0.53-0.97-0.35-0.97s-4.52-2.11-4.58-2.73
			c-0.08-1.05,0-3.69,0-4.39c0-0.71,2.29-1.5,1.85-2.03c-0.44-0.52-4.57-0.87-5.01-3.07c-0.44-2.2,0.26-2.2,0.26-2.2
			c1.12-2.23,15.94-2.05,17.06,1.67c1.12,3.72,12.33-3.3,11.96,0.79c-0.37,4.09-5.04,5.64-3.93,8.62c1.12,2.97,5.14,3.52,3.86,4.8
			c-1.28,1.28-5.48,0.37-5.48,1.65c0,1.27,5.67,0.18,5.48,3.47c-0.18,3.29-3.65,7.67-2.19,7.67s3.66,3.66,6.03,3.29
			c2.38-0.36,7.86-1.27,9.87,0.55c2.01,1.83,7.5,4.02,7.68,2.01c0.18-2.01,2.37-5.11,3.11-4.75c0.73,0.37,0.18,3.11,2.01,3.11
			c1.82,0,10.78,1.83,8.22,0.55c-2.56-1.28-3.29-2.74-1.1-3.29c2.2-0.55,3.29-3.66,4.39-3.84c1.1-0.18,3.66-0.73,4.75-2.19
			c1.1-1.47,2.38-0.55,3.84-0.74c1.46-0.18,2.93,3.29,5.12,3.29S956.47,504.54,955.56,505.09z"/>
		<path class="st2" d="M318.8,551.98c0.17,0.2,0.32,0.39,0.45,0.57c-8.53-1.66-20-1.85-27.53-1.85c-13.14,0-18.85-10.85-26.28-27.99
			c-6.31-14.57-25.03-22.54-40.32-34.44c2.77-1.01,5.31-2.5,5.31-2.5s7.34,0.66,8.26,2.97c0.92,2.3,7.03-0.99,10.4-1.32
			c3.36-0.33,15.88-21.12,19.55-21.12c3.67,0,3.06,5.6,6.73,5.6s3.06,6.92,8.25,7.9c5.2,0.99,3.98-3.62,7.65-3.62
			c3.67,0,6.72,13.18,10.7,15.15c1.57,0.78,2.28,1.88,2.53,3.26c-1.89,1.17-3.43,2.83-4.41,5.09c-6.39,14.71,1.95,40.93,9.68,40.93
			c7.72,0,8.66-9.36,14.52-8.9c4.61,0.37,2.82,7.58,4.27,11.19c-1.49,1.81-7.87,2.82-11.9,2.82
			C312.07,545.72,315.74,548.36,318.8,551.98z"/>
		<path class="st2" d="M739.55,507.7c0,0,3.93,8.11,8.87,18.3l0.55,1.93l-38.21,3.92l-2.44-45.55c8.89,1.62,22.14,4.19,30.98,3.19
			c0.03,0,0.07-0.01,0.1-0.02c2.23,1.57,4.66,3.26,6.96,4.82c7.06,4.79,5.23,10.12,0.98,8.16c-2.04-0.94-3.03,0.38-3.5,2.01
			C740.58,502.06,739.55,507.7,739.55,507.7z"/>
		<path class="st2" d="M664.33,566.08c-1.24,0-1.33,4.75-1.33,6.51s-1.41,0.44-1.94,1.32c-0.53,0.89,0,3.53-1.6,3.53
			c-1.57,0-2.8,8.07-3.67,9.12c-0.03-1.88,0.06-3.49,0.31-4.72c1.65-8.22-23.09-2.56-30.19,5.41c-1-0.24,0.39-12.01,1.35-12.23
			c0.98-0.22,0.89-3.31,1.77-4.31c0.89-0.99,0.71-4.41-0.09-5.51c-0.79-1.1-0.53-4.81,0.54-5.29c1.94-0.89,1.59-4.09,1.59-4.09
			c0.09-0.88,0.79-1.1,2.03-1.87c1.24-0.77,3.28,0.77,4.96,0.77s2.12,2.54,2.92,2.76c0.79,0.22,1.76-1.66,2.91-1.66
			c1.15,0,3.37,2.87,5.14,2.87c1.76,0,2.3-1.87,5.21-2.65c2.92-0.77,3.81,1,5.14,1.77c1.32,0.77,1.85-1.43,2.47-1.66
			c0.62-0.22,0.18-0.77,1.68-0.66c1.51,0.11,1.6,4.19,3.1,5.41C668.13,562.11,665.57,566.08,664.33,566.08z"/>
		<path class="st2" d="M618.3,377.34c-0.38,0.2-0.86,0.32-1.46,0.32c-2.76,0-0.64,3.62-2.55,3.83c-0.62,0.07-1.18,0.55-1.77,0.92
			c-2.74-3.43-5.73-7.29-5.73-10.47c0-6.66,5.17-12.08,9.61-11.83c4.43,0.25-1.23,7.88,1.23,15.52
			C617.82,376.23,618.04,376.79,618.3,377.34z"/>
		<path class="st2" d="M1109.98,458.53c-1.91,4.13-25.11,30.19-31.47,30.19s-9.22,13.04-9.54,16.85c-0.32,3.82-5.4-9.53-3.5-16.85
			c1.91-7.31,20.67-16.21,31.79-21.61c11.13-5.41,2.86-18.76,3.18-28.93c0.32-10.17,13.67-1.59,13.67-1.59
			C1130.96,444.54,1111.89,454.39,1109.98,458.53z"/>
		<path class="st2" d="M1106.41,404c2.46,10.47,4.13,22.24,0.6,22.99c-3.53,0.74-13.72-41.78-13.72-41.78
			c1.06-3.57,2.14-5.28,3.22-5.66c-2.68-0.78-3.85-1.55-1.95-1.97c2.43-0.54,4.01,0.73,5.29,2.8c-0.57-0.13-1.11-0.25-1.61-0.37
			C1101.65,382.93,1104.73,396.89,1106.41,404z"/>
		<path class="st2" d="M1267.32,309.65c-2.34,4.68-11.56,8.02-23.03-5.36c-4.62-5.4-27.71,29.15-30.58,42.05
			c-2.87,12.9-15.77,4.3-21.5,12.42c-5.74,8.13-12.43,32.5-11.47,39.66c0.95,7.17-15.77,11.47-21.34,3.38
			c-13.54-19.68,13.76-51.7,20.85-57.53c7.09-5.84-21.68-7.93-27.52-7.09c-5.83,0.83,12.51,13.76-6.67,16.26
			c-19.18,2.5-63.37,8.34-57.12,25.85c6.26,17.51,10.01,32.94,10.43,45.03c0.07,2.06-0.87,4.15-2.51,6.22
			c-0.01-5.38-9.98-10.74-13.82-5.37c-3.84,5.38-18.42-0.76-23.03-0.76c-4.6,0-4.6-22.26-9.98-22.26c-5.37,0-19.19,6.9-19.19,17.65
			s-8.44,12.28-14.58,11.52c-6.14-0.77-6.91,4.6-20.73,5.37c-13.81,0.77-9.98-7.68-26.1-6.14c-16.12,1.53-6.14-6.14-6.14-6.14
			s-12.28-0.77-12.28,9.21s-19.19-8.45-33.01-4.61c-13.82,3.84-9.21-6.14-13.82-6.14c-4.6,0-19.19-18.42-19.19-23.03
			c0-4.6-10.74-11.51-16.88-11.51c-6.15,0-4.61-24.57-31.48-25.33c-8.47-0.25-1.53,13.81-8.44,13.05
			c-6.91-0.77-26.1-29.94-36.08-29.94c-9.98,0-14.59,5.37-14.59,11.51s-3.07,6.14-6.14,6.14s-12.28,12.29-13.81,14.59
			c-1.54,2.3-8.45-0.77-6.91-17.66c1.53-16.88-13.05-26.1-13.05-33c0-6.91,28.4,3.83,28.4-7.68c0-3.28-1.12-10.16-2.72-18.33
			c6.9-5.39,13.66-10.83,16.15-12.49c6.43-4.29,32.15-7.79,39.94-7.99c7.79-0.19,21.63-6.23,31.18-7.6
			c9.54-1.36,15-24.74,21.23-26.49c6.24-1.76,36.05-20.46,39.95-21.05c3.89-0.58,11.49-19.68,17.73-22.4
			c6.23-2.73,23.96-9.16,29.22-9.75c5.26-0.58,15.78-15.58,21.24-15.97c5.46-0.39,11.3,6.62,19.29,9.35
			c7.99,2.73,9.74,21.04,12.47,29.61c2.73,8.58,27.86,12.86,35.66,12.86c7.79,0,17.53,9.36,18.89,18.71
			c1.37,9.35,8.77,13.83,11.11,8.38c2.34-5.46,18.9-8.38,24.36-10.52c5.45-2.15,11.49-8.77,23.18-8.97
			c11.69-0.19,8.19,6.04,9.16,11.3s10.52,9.16,23.58,9.36c13.05,0.19,8.18,0.58,12.47,4.67c4.28,4.09,38.38,3.12,49.68,3.7
			c11.3,0.59,41.31,24.75,45.01,27.87C1268.49,297.37,1269.66,304.97,1267.32,309.65z"/>
	</g>
</g>
<g id="Calque_3">
</g>
</svg>
