<svg xmlns="http://www.w3.org/2000/svg" xmlns:xlink="http://www.w3.org/1999/xlink" viewBox="0 0 1400 1400"><defs><style>.cls-1{fill:#fff;}.cls-2{fill:url(#linear-gradient);}.cls-3{fill:url(#linear-gradient-2);}.cls-4{fill:url(#linear-gradient-3);}.cls-5{fill:url(#linear-gradient-4);}.cls-6{fill:url(#linear-gradient-5);}.cls-7{fill:url(#linear-gradient-6);}.cls-8{fill:url(#linear-gradient-7);}.cls-9{fill:url(#linear-gradient-8);}.cls-10{fill:url(#linear-gradient-9);}.cls-11{fill:url(#linear-gradient-10);}.cls-12{fill:url(#linear-gradient-11);}.cls-13{fill:url(#linear-gradient-12);}.cls-14{fill:url(#linear-gradient-13);}.cls-15{fill:url(#linear-gradient-14);}.cls-16{fill:url(#linear-gradient-15);}.cls-17{fill:url(#linear-gradient-16);}.cls-18{fill:url(#linear-gradient-17);}.cls-19{fill:url(#linear-gradient-18);}.cls-20{fill:url(#linear-gradient-19);}.cls-21{fill:url(#linear-gradient-20);}.cls-22{fill:url(#linear-gradient-21);}.cls-23{fill:url(#linear-gradient-22);}.cls-24{fill:url(#linear-gradient-23);}.cls-25{fill:url(#linear-gradient-24);}.cls-26{fill:url(#linear-gradient-25);}.cls-27{fill:url(#linear-gradient-26);}.cls-28{fill:url(#linear-gradient-27);}.cls-29{fill:url(#linear-gradient-28);}.cls-30{fill:url(#linear-gradient-29);}.cls-31{fill:url(#linear-gradient-30);}.cls-32{fill:url(#linear-gradient-31);}.cls-33{fill:url(#linear-gradient-32);}.cls-34{fill:url(#linear-gradient-33);}.cls-35{fill:url(#linear-gradient-34);}.cls-36{fill:url(#linear-gradient-35);}.cls-37{fill:url(#linear-gradient-36);}.cls-38{fill:url(#linear-gradient-37);}.cls-39{fill:url(#linear-gradient-38);}.cls-40{fill:url(#linear-gradient-39);}.cls-41{fill:url(#linear-gradient-40);}.cls-42{fill:url(#linear-gradient-41);}.cls-43{fill:url(#linear-gradient-42);}.cls-44{fill:url(#linear-gradient-43);}.cls-45{fill:url(#linear-gradient-44);}.cls-46{fill:url(#linear-gradient-45);}.cls-47{fill:url(#linear-gradient-46);}.cls-48{fill:url(#linear-gradient-47);}.cls-49{fill:url(#linear-gradient-48);}.cls-50{fill:url(#linear-gradient-49);}.cls-51{fill:url(#linear-gradient-50);}.cls-52{fill:url(#linear-gradient-51);}.cls-53{fill:url(#linear-gradient-52);}.cls-54{fill:url(#linear-gradient-53);}.cls-55{fill:url(#linear-gradient-54);}.cls-56{fill:url(#linear-gradient-55);}.cls-57{fill:url(#linear-gradient-56);}.cls-58{fill:url(#linear-gradient-57);}.cls-59{fill:url(#linear-gradient-58);}.cls-60{fill:url(#linear-gradient-59);}.cls-61{fill:url(#linear-gradient-60);}.cls-62{fill:url(#linear-gradient-61);}.cls-63{fill:url(#linear-gradient-62);}.cls-64{fill:url(#linear-gradient-63);}.cls-65{fill:url(#linear-gradient-64);}.cls-66{fill:url(#linear-gradient-65);}.cls-67{fill:url(#linear-gradient-66);}.cls-68{fill:url(#linear-gradient-67);}.cls-69{fill:url(#linear-gradient-68);}.cls-70{fill:url(#linear-gradient-69);}.cls-71{fill:url(#linear-gradient-70);}.cls-72{fill:url(#linear-gradient-71);}.cls-73{fill:url(#linear-gradient-72);}.cls-74{fill:url(#linear-gradient-73);}.cls-75{fill:url(#linear-gradient-74);}.cls-76{fill:url(#linear-gradient-75);}.cls-77{fill:url(#linear-gradient-76);}.cls-78{fill:url(#linear-gradient-77);}.cls-79{fill:url(#linear-gradient-78);}.cls-80{fill:url(#linear-gradient-79);}.cls-81{fill:url(#linear-gradient-80);}.cls-82{fill:url(#linear-gradient-81);}.cls-83{fill:url(#linear-gradient-82);}.cls-84{fill:url(#linear-gradient-83);}.cls-85{fill:url(#linear-gradient-84);}.cls-86{fill:url(#linear-gradient-85);}.cls-87{font-size:119.36px;fill:#4c1699;font-family:Montserrat-Bold, Montserrat;font-weight:700;}.cls-88{letter-spacing:-0.01em;}</style><linearGradient id="linear-gradient" x1="423.8" y1="186.67" x2="568.7" y2="317.86" gradientUnits="userSpaceOnUse"><stop offset="0" stop-color="#008dff"/><stop offset="1" stop-color="#19cea5"/></linearGradient><linearGradient id="linear-gradient-2" x1="144.55" y1="837.82" x2="363.47" y2="618.91" gradientTransform="translate(413.22 313.7)" gradientUnits="userSpaceOnUse"><stop offset="0" stop-color="#c22aff"/><stop offset="1" stop-color="#7b15ff"/></linearGradient><linearGradient id="linear-gradient-3" x1="928.82" y1="398.53" x2="1023.01" y2="304.35" gradientTransform="translate(-64.75 -86.36)" xlink:href="#linear-gradient-2"/><linearGradient id="linear-gradient-4" x1="204.74" y1="121.34" x2="298.92" y2="27.16" gradientTransform="translate(-48.67 506.82)" xlink:href="#linear-gradient-2"/><linearGradient id="linear-gradient-5" x1="605.04" y1="373.67" x2="842.09" y2="136.62" gradientTransform="translate(-58.92 120.27)" gradientUnits="userSpaceOnUse"><stop offset="0" stop-color="#fdf52c"/><stop offset="1" stop-color="#ffd61f"/></linearGradient><linearGradient id="linear-gradient-6" x1="587.02" y1="631.42" x2="809.05" y2="832.44" gradientTransform="matrix(1, 0, 0, -1, 342.03, 1566.31)" xlink:href="#linear-gradient-5"/><linearGradient id="linear-gradient-7" x1="328.84" y1="363.73" x2="528.29" y2="363.73" gradientUnits="userSpaceOnUse"><stop offset="0" stop-color="#ff7000"/><stop offset="1" stop-color="#ffd555"/></linearGradient><linearGradient id="linear-gradient-8" x1="407.26" y1="363.73" x2="449.87" y2="363.73" gradientTransform="translate(382.72 -196.51) rotate(45)" xlink:href="#linear-gradient-7"/><linearGradient id="linear-gradient-9" x1="702.82" y1="959.64" x2="974.69" y2="959.64" gradientUnits="userSpaceOnUse"><stop offset="0" stop-color="#ff7fad"/><stop offset="1" stop-color="#ba00e9"/></linearGradient><linearGradient id="linear-gradient-10" x1="384.79" y1="470.59" x2="656.65" y2="470.59" gradientTransform="matrix(1, 0, 0, 1, 0, 0)" xlink:href="#linear-gradient-2"/><linearGradient id="linear-gradient-11" x1="653" y1="229.15" x2="855.58" y2="229.15" xlink:href="#linear-gradient-9"/><linearGradient id="linear-gradient-12" x1="732.65" y1="229.15" x2="775.93" y2="229.15" gradientTransform="translate(382.96 -466.25) rotate(45)" xlink:href="#linear-gradient-9"/><linearGradient id="linear-gradient-13" x1="405.79" y1="1113.3" x2="512.92" y2="1113.3" gradientTransform="matrix(1, 0, 0, 1, 0, 0)" xlink:href="#linear-gradient-2"/><linearGradient id="linear-gradient-14" x1="478.9" y1="230.77" x2="527.91" y2="230.77" gradientTransform="matrix(1, 0, 0, 1, 0, 0)" xlink:href="#linear-gradient-2"/><linearGradient id="linear-gradient-15" x1="1162.97" y1="521.8" x2="1211.98" y2="521.8" xlink:href="#linear-gradient-7"/><linearGradient id="linear-gradient-16" x1="646.16" y1="1212.98" x2="773" y2="1212.98" xlink:href="#linear-gradient-7"/><linearGradient id="linear-gradient-17" x1="558.31" y1="162.82" x2="674.42" y2="162.82" xlink:href="#linear-gradient-7"/><linearGradient id="linear-gradient-18" x1="819.61" y1="179.77" x2="863.01" y2="179.77" xlink:href="#linear-gradient-7"/><linearGradient id="linear-gradient-19" x1="216.78" y1="820" x2="260.18" y2="820" xlink:href="#linear-gradient-7"/><linearGradient id="linear-gradient-20" x1="815.83" y1="324.22" x2="922.97" y2="324.22" xlink:href="#linear-gradient"/><linearGradient id="linear-gradient-21" x1="181.98" y1="313.39" x2="404.01" y2="514.41" xlink:href="#linear-gradient"/><linearGradient id="linear-gradient-22" x1="896.06" y1="745.43" x2="1118.08" y2="946.45" xlink:href="#linear-gradient"/><linearGradient id="linear-gradient-23" x1="616.16" y1="286.15" x2="805.07" y2="457.2" gradientTransform="matrix(-1, 0, 0, 1, 1713.24, 0)" xlink:href="#linear-gradient-7"/><linearGradient id="linear-gradient-24" x1="1081.63" y1="995.65" x2="1174.11" y2="1079.38" gradientTransform="matrix(-1, 0, 0, 1, 1713.24, 0)" xlink:href="#linear-gradient"/><linearGradient id="linear-gradient-25" x1="127.92" y1="379.23" x2="400.95" y2="106.2" gradientTransform="translate(66.76 448.57)" xlink:href="#linear-gradient-7"/><linearGradient id="linear-gradient-26" x1="932.37" y1="824.33" x2="1014.75" y2="741.96" gradientTransform="translate(241.2 -211.14)" xlink:href="#linear-gradient-2"/><linearGradient id="linear-gradient-27" x1="963.84" y1="472.89" x2="1191.44" y2="472.89" gradientTransform="translate(650.01 -623.5) rotate(45)" xlink:href="#linear-gradient"/><linearGradient id="linear-gradient-28" x1="409.85" y1="954.88" x2="597.89" y2="954.88" gradientTransform="translate(822.78 -76.61) rotate(45)" xlink:href="#linear-gradient-5"/><linearGradient id="linear-gradient-29" x1="625.98" y1="1082.86" x2="707.65" y2="1082.86" gradientTransform="translate(961 -154.35) rotate(45)" xlink:href="#linear-gradient"/><linearGradient id="linear-gradient-30" x1="746.17" y1="1124.86" x2="991.17" y2="1124.86" xlink:href="#linear-gradient-7"/><linearGradient id="linear-gradient-31" x1="842.5" y1="1124.86" x2="894.84" y2="1124.86" gradientTransform="translate(1049.82 -284.78) rotate(45)" xlink:href="#linear-gradient-7"/><linearGradient id="linear-gradient-32" x1="689.18" y1="438.65" x2="902.47" y2="438.65" xlink:href="#linear-gradient"/><linearGradient id="linear-gradient-33" x1="773.05" y1="438.65" x2="818.61" y2="438.65" gradientTransform="translate(543.26 -434.26) rotate(45)" xlink:href="#linear-gradient"/><linearGradient id="linear-gradient-34" x1="1129.06" y1="836.83" x2="1281.18" y2="836.83" gradientTransform="matrix(1, 0, 0, 1, 0, 0)" xlink:href="#linear-gradient-5"/><linearGradient id="linear-gradient-35" x1="1188.87" y1="836.83" x2="1221.37" y2="836.83" gradientTransform="translate(944.7 -607.04) rotate(45)" xlink:href="#linear-gradient-5"/><linearGradient id="linear-gradient-36" x1="987.16" y1="1065.97" x2="1071.22" y2="1065.97" gradientTransform="matrix(1, 0, 0, 1, 0, 0)" xlink:href="#linear-gradient-5"/><linearGradient id="linear-gradient-37" x1="1020.21" y1="1065.97" x2="1038.17" y2="1065.97" gradientTransform="translate(1055.2 -415.53) rotate(45)" xlink:href="#linear-gradient-5"/><linearGradient id="linear-gradient-38" x1="568.9" y1="944.84" x2="718.73" y2="944.84" xlink:href="#linear-gradient-7"/><linearGradient id="linear-gradient-39" x1="627.81" y1="944.84" x2="659.82" y2="944.84" gradientTransform="translate(856.67 -178.51) rotate(45)" xlink:href="#linear-gradient-7"/><linearGradient id="linear-gradient-40" x1="328.38" y1="1094.55" x2="600.25" y2="1094.55" gradientTransform="translate(-750.49 510.29) rotate(-45)" xlink:href="#linear-gradient"/><linearGradient id="linear-gradient-41" x1="360.89" y1="999.12" x2="567.74" y2="999.12" gradientTransform="translate(-750.49 510.29) rotate(-45)" xlink:href="#linear-gradient"/><linearGradient id="linear-gradient-42" x1="400.44" y1="966.58" x2="528.19" y2="966.58" gradientTransform="translate(-750.49 510.29) rotate(-45)" xlink:href="#linear-gradient"/><linearGradient id="linear-gradient-43" x1="360.89" y1="1189.98" x2="567.74" y2="1189.98" gradientTransform="translate(-750.49 510.29) rotate(-45)" xlink:href="#linear-gradient"/><linearGradient id="linear-gradient-44" x1="400.44" y1="1222.53" x2="528.19" y2="1222.53" gradientTransform="translate(-750.49 510.29) rotate(-45)" xlink:href="#linear-gradient"/><linearGradient id="linear-gradient-45" x1="330.61" y1="1062.74" x2="598.03" y2="1062.74" gradientTransform="translate(-750.49 510.29) rotate(-45)" xlink:href="#linear-gradient"/><linearGradient id="linear-gradient-46" x1="340.6" y1="1030.93" x2="588.04" y2="1030.93" gradientTransform="translate(-750.49 510.29) rotate(-45)" xlink:href="#linear-gradient"/><linearGradient id="linear-gradient-47" x1="330.61" y1="1126.36" x2="598.03" y2="1126.36" gradientTransform="translate(-750.49 510.29) rotate(-45)" xlink:href="#linear-gradient"/><linearGradient id="linear-gradient-48" x1="340.6" y1="1158.17" x2="588.04" y2="1158.17" gradientTransform="translate(-750.49 510.29) rotate(-45)" xlink:href="#linear-gradient"/><linearGradient id="linear-gradient-49" x1="787.45" y1="1556.24" x2="955.86" y2="1556.24" gradientTransform="translate(-750.49 510.29) rotate(-45)" xlink:href="#linear-gradient-5"/><linearGradient id="linear-gradient-50" x1="807.59" y1="1497.12" x2="935.72" y2="1497.12" gradientTransform="translate(-750.49 510.29) rotate(-45)" xlink:href="#linear-gradient-5"/><linearGradient id="linear-gradient-51" x1="832.09" y1="1476.96" x2="911.22" y2="1476.96" gradientTransform="translate(-750.49 510.29) rotate(-45)" xlink:href="#linear-gradient-5"/><linearGradient id="linear-gradient-52" x1="807.59" y1="1615.35" x2="935.72" y2="1615.35" gradientTransform="translate(-750.49 510.29) rotate(-45)" xlink:href="#linear-gradient-5"/><linearGradient id="linear-gradient-53" x1="832.09" y1="1635.51" x2="911.22" y2="1635.51" gradientTransform="translate(-750.49 510.29) rotate(-45)" xlink:href="#linear-gradient-5"/><linearGradient id="linear-gradient-54" x1="788.83" y1="1536.53" x2="954.48" y2="1536.53" gradientTransform="translate(-750.49 510.29) rotate(-45)" xlink:href="#linear-gradient-5"/><linearGradient id="linear-gradient-55" x1="795.02" y1="1516.83" x2="948.29" y2="1516.83" gradientTransform="translate(-750.49 510.29) rotate(-45)" xlink:href="#linear-gradient-5"/><linearGradient id="linear-gradient-56" x1="788.83" y1="1575.94" x2="954.48" y2="1575.94" gradientTransform="translate(-750.49 510.29) rotate(-45)" xlink:href="#linear-gradient-5"/><linearGradient id="linear-gradient-57" x1="795.02" y1="1595.65" x2="948.29" y2="1595.65" gradientTransform="translate(-750.49 510.29) rotate(-45)" xlink:href="#linear-gradient-5"/><linearGradient id="linear-gradient-58" x1="600.48" y1="764.89" x2="797.76" y2="764.89" gradientTransform="translate(-750.49 510.29) rotate(-45)" xlink:href="#linear-gradient-5"/><linearGradient id="linear-gradient-59" x1="624.07" y1="695.64" x2="774.17" y2="695.64" gradientTransform="translate(-750.49 510.29) rotate(-45)" xlink:href="#linear-gradient-5"/><linearGradient id="linear-gradient-60" x1="652.77" y1="672.02" x2="745.47" y2="672.02" gradientTransform="translate(-750.49 510.29) rotate(-45)" xlink:href="#linear-gradient-5"/><linearGradient id="linear-gradient-61" x1="624.07" y1="834.14" x2="774.17" y2="834.14" gradientTransform="translate(-750.49 510.29) rotate(-45)" xlink:href="#linear-gradient-5"/><linearGradient id="linear-gradient-62" x1="652.77" y1="857.76" x2="745.47" y2="857.76" gradientTransform="translate(-750.49 510.29) rotate(-45)" xlink:href="#linear-gradient-5"/><linearGradient id="linear-gradient-63" x1="602.09" y1="741.81" x2="796.15" y2="741.81" gradientTransform="translate(-750.49 510.29) rotate(-45)" xlink:href="#linear-gradient-5"/><linearGradient id="linear-gradient-64" x1="609.34" y1="718.72" x2="788.9" y2="718.72" gradientTransform="translate(-750.49 510.29) rotate(-45)" xlink:href="#linear-gradient-5"/><linearGradient id="linear-gradient-65" x1="602.09" y1="787.97" x2="796.15" y2="787.97" gradientTransform="translate(-750.49 510.29) rotate(-45)" xlink:href="#linear-gradient-5"/><linearGradient id="linear-gradient-66" x1="609.34" y1="811.06" x2="788.9" y2="811.06" gradientTransform="translate(-750.49 510.29) rotate(-45)" xlink:href="#linear-gradient-5"/><linearGradient id="linear-gradient-67" x1="1104.16" y1="1390.4" x2="1355.31" y2="1390.4" gradientTransform="translate(-750.49 510.29) rotate(-45)" xlink:href="#linear-gradient-7"/><linearGradient id="linear-gradient-68" x1="1134.19" y1="1302.25" x2="1325.28" y2="1302.25" gradientTransform="translate(-750.49 510.29) rotate(-45)" xlink:href="#linear-gradient-7"/><linearGradient id="linear-gradient-69" x1="1170.73" y1="1272.18" x2="1288.74" y2="1272.18" gradientTransform="translate(-750.49 510.29) rotate(-45)" xlink:href="#linear-gradient-7"/><linearGradient id="linear-gradient-70" x1="1134.19" y1="1478.56" x2="1325.28" y2="1478.56" gradientTransform="translate(-750.49 510.29) rotate(-45)" xlink:href="#linear-gradient-7"/><linearGradient id="linear-gradient-71" x1="1170.73" y1="1508.62" x2="1288.74" y2="1508.62" gradientTransform="translate(-750.49 510.29) rotate(-45)" xlink:href="#linear-gradient-7"/><linearGradient id="linear-gradient-72" x1="1106.21" y1="1361.02" x2="1353.26" y2="1361.02" gradientTransform="translate(-750.49 510.29) rotate(-45)" xlink:href="#linear-gradient-7"/><linearGradient id="linear-gradient-73" x1="1115.45" y1="1331.63" x2="1344.02" y2="1331.63" gradientTransform="translate(-750.49 510.29) rotate(-45)" xlink:href="#linear-gradient-7"/><linearGradient id="linear-gradient-74" x1="1106.21" y1="1419.79" x2="1353.26" y2="1419.79" gradientTransform="translate(-750.49 510.29) rotate(-45)" xlink:href="#linear-gradient-7"/><linearGradient id="linear-gradient-75" x1="1115.45" y1="1449.18" x2="1344.02" y2="1449.18" gradientTransform="translate(-750.49 510.29) rotate(-45)" xlink:href="#linear-gradient-7"/><linearGradient id="linear-gradient-76" x1="1023.63" y1="878.31" x2="1147.52" y2="878.31" gradientTransform="translate(-750.49 510.29) rotate(-45)" xlink:href="#linear-gradient-9"/><linearGradient id="linear-gradient-77" x1="1038.44" y1="834.82" x2="1132.71" y2="834.82" gradientTransform="translate(-750.49 510.29) rotate(-45)" xlink:href="#linear-gradient-9"/><linearGradient id="linear-gradient-78" x1="1056.47" y1="819.99" x2="1114.68" y2="819.99" gradientTransform="translate(-750.49 510.29) rotate(-45)" xlink:href="#linear-gradient-9"/><linearGradient id="linear-gradient-79" x1="1038.44" y1="921.8" x2="1132.71" y2="921.8" gradientTransform="translate(-750.49 510.29) rotate(-45)" xlink:href="#linear-gradient-9"/><linearGradient id="linear-gradient-80" x1="1056.47" y1="936.63" x2="1114.68" y2="936.63" gradientTransform="translate(-750.49 510.29) rotate(-45)" xlink:href="#linear-gradient-9"/><linearGradient id="linear-gradient-81" x1="1024.64" y1="863.82" x2="1146.51" y2="863.82" gradientTransform="translate(-750.49 510.29) rotate(-45)" xlink:href="#linear-gradient-9"/><linearGradient id="linear-gradient-82" x1="1029.2" y1="849.32" x2="1141.95" y2="849.32" gradientTransform="translate(-750.49 510.29) rotate(-45)" xlink:href="#linear-gradient-9"/><linearGradient id="linear-gradient-83" x1="1024.64" y1="892.81" x2="1146.51" y2="892.81" gradientTransform="translate(-750.49 510.29) rotate(-45)" xlink:href="#linear-gradient-9"/><linearGradient id="linear-gradient-84" x1="1029.2" y1="907.31" x2="1141.95" y2="907.31" gradientTransform="translate(-750.49 510.29) rotate(-45)" xlink:href="#linear-gradient-9"/><linearGradient id="linear-gradient-85" x1="126.34" y1="731.82" x2="255.85" y2="731.82" xlink:href="#linear-gradient"/></defs><title>popup-img-explication</title><g id="Calque_2" data-name="Calque 2"><g id="Layer_1" data-name="Layer 1"><rect class="cls-1" width="1400" height="1400"/><path class="cls-2" d="M630.1,382.61h0c-107.06,0-193.85-86.78-193.85-193.84h0c107.06,0,193.85,86.79,193.85,193.84Z"/><rect class="cls-3" x="557.77" y="932.6" width="218.91" height="218.91" transform="translate(-541.42 777.01) rotate(-45)"/><rect class="cls-4" x="864.06" y="217.98" width="94.18" height="94.18" transform="translate(79.44 721.92) rotate(-45)"/><rect class="cls-5" x="156.06" y="533.98" width="94.18" height="94.18" transform="translate(-351.38 313.85) rotate(-45)"/><rect class="cls-6" x="546.11" y="256.9" width="237.05" height="237.05" transform="translate(-70.79 579.93) rotate(-45)"/><path class="cls-7" d="M1245.16,634.64h0a0,0,0,0,1,0,0v0a297,297,0,0,1-297,297h0a0,0,0,0,1,0,0v0A297,297,0,0,1,1245.16,634.64Z" transform="translate(2193.29 1566.31) rotate(180)"/><path class="cls-8" d="M428.57,463.45l-99.73-99.72L428.57,264l99.72,99.73Zm-60-99.72,60,60,60-60-60-60Z"/><rect class="cls-9" x="413.5" y="348.66" width="30.13" height="30.13" transform="translate(-131.67 409.58) rotate(-45)"/><circle class="cls-10" cx="838.75" cy="959.64" r="135.93"/><circle class="cls-11" cx="520.72" cy="470.59" r="135.93"/><path class="cls-12" d="M754.29,330.44,653,229.15,754.29,127.86,855.58,229.15Zm-61-101.29,61,61,61-61-61-61Z"/><rect class="cls-13" x="738.99" y="213.85" width="30.6" height="30.6" transform="translate(58.89 600.48) rotate(-45)"/><path class="cls-14" d="M459.36,1166.87a53.57,53.57,0,1,1,53.56-53.57A53.63,53.63,0,0,1,459.36,1166.87Zm0-89.41a35.85,35.85,0,1,0,35.84,35.84A35.89,35.89,0,0,0,459.36,1077.46Z"/><path class="cls-15" d="M503.41,255.27a24.5,24.5,0,1,1,24.5-24.5A24.53,24.53,0,0,1,503.41,255.27Zm0-40.89a16.4,16.4,0,1,0,16.39,16.39A16.41,16.41,0,0,0,503.41,214.38Z"/><path class="cls-16" d="M1187.47,546.3A24.5,24.5,0,1,1,1212,521.8,24.53,24.53,0,0,1,1187.47,546.3Zm0-40.9a16.4,16.4,0,1,0,16.4,16.4A16.41,16.41,0,0,0,1187.47,505.4Z"/><path class="cls-17" d="M709.58,1276.4A63.42,63.42,0,1,1,773,1213,63.49,63.49,0,0,1,709.58,1276.4Zm0-105.86A42.44,42.44,0,1,0,752,1213,42.49,42.49,0,0,0,709.58,1170.54Z"/><path class="cls-18" d="M616.36,220.88a58.06,58.06,0,1,1,58.06-58.06A58.12,58.12,0,0,1,616.36,220.88Zm0-96.91a38.85,38.85,0,1,0,38.85,38.85A38.89,38.89,0,0,0,616.36,124Z"/><path class="cls-19" d="M841.31,201.47a21.7,21.7,0,1,1,21.7-21.7A21.73,21.73,0,0,1,841.31,201.47Zm0-36.22a14.52,14.52,0,1,0,14.52,14.52A14.54,14.54,0,0,0,841.31,165.25Z"/><path class="cls-20" d="M238.48,841.7a21.7,21.7,0,1,1,21.7-21.7A21.72,21.72,0,0,1,238.48,841.7Zm0-36.22A14.52,14.52,0,1,0,253,820,14.53,14.53,0,0,0,238.48,805.48Z"/><path class="cls-21" d="M869.4,377.79A53.57,53.57,0,1,1,923,324.22,53.63,53.63,0,0,1,869.4,377.79Zm0-89.42a35.85,35.85,0,1,0,35.84,35.85A35.89,35.89,0,0,0,869.4,288.37Z"/><path class="cls-22" d="M201.05,316.61h0a297,297,0,0,1,297,297v0a0,0,0,0,1,0,0h0a297,297,0,0,1-297-297v0A0,0,0,0,1,201.05,316.61Z"/><path class="cls-23" d="M915.13,748.65h0a297,297,0,0,1,297,297v0a0,0,0,0,1,0,0h0a297,297,0,0,1-297-297v0A0,0,0,0,1,915.13,748.65Z"/><path class="cls-24" d="M828.12,541.63h0c139.58,0,252.74-113.16,252.74-252.74h0c-139.59,0-252.74,113.16-252.74,252.74Z"/><path class="cls-25" d="M499.94,1120.72h0A123.74,123.74,0,0,0,623.67,997h0a123.73,123.73,0,0,0-123.73,123.73Z"/><rect class="cls-26" x="194.68" y="554.77" width="273.03" height="273.03" transform="translate(-391.81 436.66) rotate(-45)"/><rect class="cls-27" x="1173.56" y="530.81" width="82.38" height="82.38" transform="translate(-48.67 1026.49) rotate(-45)"/><rect class="cls-28" x="997.17" y="392.42" width="160.94" height="160.94" transform="translate(-18.75 900.51) rotate(-45)"/><rect class="cls-29" x="437.38" y="888.39" width="132.97" height="132.97" transform="translate(-527.62 635.96) rotate(-45)"/><rect class="cls-30" x="637.94" y="1053.98" width="57.75" height="57.75" transform="translate(-570.39 788.67) rotate(-45)"/><path class="cls-31" d="M868.67,1247.36l-122.5-122.5,122.5-122.5,122.5,122.5Zm-73.73-122.5,73.73,73.73,73.73-73.73-73.73-73.73Z"/><rect class="cls-32" x="850.16" y="1106.36" width="37.01" height="37.01" transform="translate(-540.97 943.7) rotate(-45)"/><path class="cls-33" d="M795.83,545.29,689.18,438.65,795.83,332,902.47,438.65ZM731.64,438.65l64.19,64.18L860,438.65l-64.18-64.19Z"/><rect class="cls-34" x="779.72" y="422.54" width="32.22" height="32.22" transform="translate(-77.08 691.21) rotate(-45)"/><path class="cls-35" d="M1205.12,912.89l-76.06-76.06,76.06-76.06,76.06,76.06Zm-45.78-76.06,45.78,45.78,45.78-45.78-45.78-45.78Z"/><rect class="cls-36" x="1193.63" y="825.34" width="22.98" height="22.98" transform="translate(-238.76 1097.24) rotate(-45)"/><path class="cls-37" d="M1029.19,1108l-42-42,42-42,42,42Zm-25.3-42,25.3,25.3,25.3-25.3-25.3-25.3Z"/><rect class="cls-38" x="1022.84" y="1059.62" width="12.7" height="12.7" transform="translate(-452.31 1039.96) rotate(-45)"/><path class="cls-39" d="M643.82,1019.75,568.9,944.84l74.92-74.91,74.91,74.91Zm-45.09-74.91,45.09,45.09,45.08-45.09-45.08-45.08Z"/><rect class="cls-40" x="632.5" y="933.53" width="22.63" height="22.63" transform="translate(-479.54 731.98) rotate(-45)"/><path class="cls-41" d="M255.66,1052q2.58,2.58,5.25,5l192-192q-2.4-2.67-5-5.25t-5.24-5l-192,192Q253.09,1049.47,255.66,1052Z"/><path class="cls-42" d="M216.28,966.69,362.55,820.42a137,137,0,0,0-20.36-.09l-126,126A137,137,0,0,0,216.28,966.69Z"/><path class="cls-43" d="M312.09,825.9a136,136,0,0,0-90.33,90.33Z"/><path class="cls-44" d="M341,1091.42a136.87,136.87,0,0,0,20.35.1l126-126a136.87,136.87,0,0,0-.09-20.35Z"/><path class="cls-45" d="M391.48,1086a136.12,136.12,0,0,0,90.33-90.33Z"/><path class="cls-46" d="M232.09,1020.41a136.19,136.19,0,0,0,7.76,12.68L429,844a136.19,136.19,0,0,0-12.68-7.76Z"/><path class="cls-47" d="M219.64,987.87a136.42,136.42,0,0,0,4.79,15.66l175-175a136.42,136.42,0,0,0-15.66-4.79Z"/><path class="cls-48" d="M274.62,1067.85a134.18,134.18,0,0,0,12.68,7.77L471.48,891.44a134.18,134.18,0,0,0-7.77-12.68Z"/><path class="cls-49" d="M304.18,1083.28a136.42,136.42,0,0,0,15.66,4.79L483.93,924a136.42,136.42,0,0,0-4.79-15.66Z"/><path class="cls-50" d="M906.73,1053.89c1.06,1.07,2.15,2.09,3.25,3.09l118.91-118.92c-1-1.1-2-2.19-3.08-3.25s-2.15-2.09-3.25-3.08L903.65,1050.64Q905.14,1052.3,906.73,1053.89Z"/><path class="cls-51" d="M882.34,1001l90.6-90.6a84.25,84.25,0,0,0-12.61-.06l-78.05,78A82.94,82.94,0,0,0,882.34,1001Z"/><path class="cls-52" d="M941.68,913.81a84.27,84.27,0,0,0-55.95,56Z"/><path class="cls-53" d="M959.6,1078.29a85.61,85.61,0,0,0,12.61.06l78-78.06a84.25,84.25,0,0,0,0-12.61Z"/><path class="cls-54" d="M990.86,1074.9a84.35,84.35,0,0,0,56-56Z"/><path class="cls-55" d="M892.13,1034.3a81.72,81.72,0,0,0,4.81,7.85L1014.07,925a83.93,83.93,0,0,0-7.86-4.81Z"/><path class="cls-56" d="M884.42,1014.14a83.34,83.34,0,0,0,3,9.7L995.76,915.46a85.31,85.31,0,0,0-9.7-3Z"/><path class="cls-57" d="M918.47,1063.69a83.93,83.93,0,0,0,7.86,4.81l114.09-114.09a82,82,0,0,0-4.82-7.86Z"/><path class="cls-58" d="M936.78,1073.24a83.39,83.39,0,0,0,9.7,3l101.65-101.65a84.59,84.59,0,0,0-3-9.7Z"/><path class="cls-59" d="M215,626.54q1.86,1.88,3.81,3.61l139.3-139.3c-1.16-1.29-2.37-2.56-3.61-3.81s-2.52-2.45-3.81-3.61l-139.3,139.3Q213.09,624.68,215,626.54Z"/><path class="cls-60" d="M186.38,564.6,292.52,458.46a99.75,99.75,0,0,0-14.77-.06l-91.44,91.43A99.75,99.75,0,0,0,186.38,564.6Z"/><path class="cls-61" d="M255.9,462.44A98.75,98.75,0,0,0,190.35,528Z"/><path class="cls-62" d="M276.9,655.12a99.75,99.75,0,0,0,14.77.07l91.43-91.44A99.75,99.75,0,0,0,383,549Z"/><path class="cls-63" d="M313.51,651.15a98.75,98.75,0,0,0,65.55-65.55Z"/><path class="cls-64" d="M197.85,603.58a97.49,97.49,0,0,0,5.64,9.21L340.71,475.57a99.61,99.61,0,0,0-9.21-5.64Z"/><path class="cls-65" d="M188.82,580a97.89,97.89,0,0,0,3.47,11.37l127-127a99.1,99.1,0,0,0-11.36-3.47Z"/><path class="cls-66" d="M228.71,638a97.49,97.49,0,0,0,9.21,5.64L371.57,510a99.61,99.61,0,0,0-5.64-9.21Z"/><path class="cls-67" d="M250.16,649.21a97.89,97.89,0,0,0,11.37,3.47L380.6,533.61a99.1,99.1,0,0,0-3.47-11.36Z"/><path class="cls-68" d="M1013.41,712.69q2.39,2.37,4.85,4.59L1195.6,540q-2.22-2.48-4.6-4.85c-1.58-1.58-3.2-3.12-4.85-4.6L1008.82,707.84C1010.3,709.49,1011.83,711.1,1013.41,712.69Z"/><path class="cls-69" d="M977,633.84l135.12-135.12a126.85,126.85,0,0,0-18.8-.09L977,615A127,127,0,0,0,977,633.84Z"/><path class="cls-70" d="M1065.54,503.78a125.68,125.68,0,0,0-83.45,83.44Z"/><path class="cls-71" d="M1092.26,749.07a127,127,0,0,0,18.81.08l116.4-116.4a125.51,125.51,0,0,0-.09-18.8Z"/><path class="cls-72" d="M1138.88,744a125.72,125.72,0,0,0,83.45-83.45Z"/><path class="cls-73" d="M991.64,683.46a123.35,123.35,0,0,0,7.17,11.72l174.68-174.69a126.6,126.6,0,0,0-11.71-7.17Z"/><path class="cls-74" d="M980.14,653.4a124.24,124.24,0,0,0,4.42,14.47l161.63-161.62a124.3,124.3,0,0,0-14.47-4.43Z"/><path class="cls-75" d="M1030.92,727.29a123.45,123.45,0,0,0,11.72,7.18l170.14-170.15a126.6,126.6,0,0,0-7.17-11.71Z"/><path class="cls-76" d="M1058.23,741.54A124.24,124.24,0,0,0,1072.7,746l151.58-151.58a125.44,125.44,0,0,0-4.42-14.46Z"/><path class="cls-77" d="M594.37,407.53c.78.78,1.58,1.54,2.39,2.27l87.48-87.48c-.73-.81-1.49-1.61-2.27-2.39s-1.58-1.54-2.39-2.27L592.1,405.14C592.83,406,593.59,406.75,594.37,407.53Z"/><path class="cls-78" d="M576.42,368.64,643.08,302a62.49,62.49,0,0,0-9.28,0l-57.42,57.42A62.49,62.49,0,0,0,576.42,368.64Z"/><path class="cls-79" d="M620.08,304.48a62,62,0,0,0-41.16,41.16Z"/><path class="cls-80" d="M633.27,425.48a62.35,62.35,0,0,0,9.27,0L700,368.1a62.35,62.35,0,0,0,0-9.27Z"/><path class="cls-81" d="M656.26,423a62,62,0,0,0,41.17-41.16Z"/><path class="cls-82" d="M583.63,393.12a62.91,62.91,0,0,0,3.53,5.78l86.18-86.18a62.91,62.91,0,0,0-5.78-3.53Z"/><path class="cls-83" d="M578,378.29a60.4,60.4,0,0,0,2.19,7.13l79.73-79.73a63.05,63.05,0,0,0-7.14-2.18Z"/><path class="cls-84" d="M603,414.74a62.53,62.53,0,0,0,5.78,3.54l83.93-83.93a62.53,62.53,0,0,0-3.54-5.78Z"/><path class="cls-85" d="M616.48,421.77a62.28,62.28,0,0,0,7.13,2.18l74.78-74.78a62.28,62.28,0,0,0-2.18-7.13Z"/><rect class="cls-1" x="306.76" y="484.24" width="800" height="450.7"/><path class="cls-86" d="M191.1,796.58a64.76,64.76,0,1,1,64.75-64.76A64.83,64.83,0,0,1,191.1,796.58Zm0-108.09a43.33,43.33,0,1,0,43.33,43.33A43.38,43.38,0,0,0,191.1,688.49Z"/><text class="cls-87" transform="translate(362.55 748.65)"><tspan class="cls-88">E</tspan><tspan x="79.25" y="0">xplication</tspan></text></g></g></svg>