<?xml version="1.0" encoding="utf-8"?>
<!-- Generator: Adobe Illustrator 24.0.1, SVG Export Plug-In . SVG Version: 6.00 Build 0)  -->
<svg version="1.1" id="Calque_1" xmlns="http://www.w3.org/2000/svg" xmlns:xlink="http://www.w3.org/1999/xlink" x="0px" y="0px"
	 viewBox="0 0 2052.31 1542.46" style="enable-background:new 0 0 2052.31 1542.46;" xml:space="preserve">
<style type="text/css">
	.st0{fill:#4F0930;}
	.st1{fill:#FFE5AA;}
	.st2{fill:#E9C4F0;}
</style>
<title>portal</title>
<g id="Calque_2_1_">
	<g id="Calque_1-2">
		<path class="st0" d="M0,0v1542.46h2052.31V0H0z M1026.84,844.87c-37,0-67-30.04-67-67.08s29.99-67.08,67-67.08
			c37,0,67,30.04,67,67.08S1063.84,844.87,1026.84,844.87z"/>
		<path class="st1" d="M1116.54,724.76c0,0-4.51,5.77-21.65-19.99c-12.32-18.51-37.37-6.39-43.65-2.95
			c-9.95-2.98-20.39-3.89-30.71-2.68c-4.57-24.71,39.36-9.47,34.73-21.06c0,0,0.89,7.27-29.45,1.17
			c-21.63-4.34-30.8,21.5-32.91,28.61c-9.17,4.96-17.23,11.76-23.67,19.97c-20.64-14.25,21.15-34.51,9.68-39.43
			c0,0,5.77,4.51-19.99,21.65c-18.43,12.27-6.49,37.16-3,43.57c-2.94,9.97-3.8,20.45-2.54,30.77c-24.84,4.69-9.55-39.34-21.16-34.71
			c0,0,7.27-0.89,1.17,29.45c-4.41,21.96,22.31,31.09,28.93,33c4.97,9.03,11.72,16.95,19.84,23.3
			c-14.25,21.31-34.69-20.92-39.63-9.4c0,0,4.51-5.77,21.65,19.99c12.6,18.93,38.55,5.82,44.06,2.74
			c9.81,2.83,20.08,3.65,30.21,2.43c5.21,25.37-39.29,9.86-34.63,21.53c0,0-0.9-7.27,29.45-1.17c22.47,4.51,31.51-23.58,33.12-29.36
			c8.89-4.91,16.71-11.54,23.01-19.52c21.7,14.26-20.78,34.79-9.23,39.74c0,0-5.77-4.51,19.99-21.65
			c19.02-12.66,5.7-38.78,2.69-44.13c2.86-9.78,3.73-20.03,2.56-30.16c25.25-5.08,9.79,39.3,21.45,34.64c0,0-7.27,0.89-1.17-29.45
			c4.44-22.1-22.64-31.2-29.04-33.04c-4.9-9.04-11.59-17-19.65-23.38C1091.25,694.2,1111.61,736.25,1116.54,724.76z M1046.15,839.49
			c-35.53,9.26-71.83-12.03-81.09-47.56c-9.26-35.53,12.03-71.83,47.56-81.09s71.83,12.03,81.09,47.56
			C1102.96,793.93,1081.67,830.23,1046.15,839.49z"/>
		<path class="st2" d="M1103.73,739.35c-8.33-27.89-40.39-28.54-44.68-28.5c-5.69-2.78-11.73-4.78-17.96-5.94
			c3.91-9.84,46.97,10.72,44.93-4.51c0,0-1.94,10.62-29.31-4.16c-25.24-13.63-48.06,7.74-51.6,11.3
			c-6.05,2.08-11.79,4.98-17.06,8.62c-4.09-9.72,40.79-25.62,28.59-34.93c0,0,6.13,8.88-23.67,17.78
			c-27.77,8.29-28.53,40.11-28.5,44.62c-2.77,5.72-4.74,11.79-5.87,18.04c-10.01-3.73,10.68-47.01-4.59-44.95
			c0,0,10.62,1.94-4.16,29.31c-14.29,26.47,9.91,50.28,11.69,51.98c2.27,6.38,5.45,12.4,9.44,17.86c-0.39-0.43-0.74-0.85-1.06-1.26
			c-9.71,4.64-25.72-40.79-35.09-28.52c0,0,8.88-6.13,17.78,23.67c8.93,29.91,45.16,28.49,45.16,28.49l-0.56-0.41
			c6.68,3.25,13.84,5.42,21.21,6.43c-1.14-0.03-2.19-0.09-3.12-0.2c-3.58,10.15-47.04-10.66-44.98,4.64c0,0,1.94-10.62,29.31,4.16
			c27.47,14.83,52.08-11.79,52.08-11.79s-0.42,0.07-1.17,0.18c7.29-2.45,14.12-6.08,20.24-10.73c-0.91,0.87-1.76,1.64-2.56,2.27
			c4.64,9.71-40.79,25.72-28.52,35.09c0,0-6.13-8.88,23.67-17.78c29.91-8.93,28.5-45.16,28.5-45.16l-0.49,0.68
			c3.2-6.47,5.38-13.4,6.47-20.54c-0.03,0.84-0.09,1.62-0.17,2.33c10.15,3.58-10.66,47.04,4.64,44.98c0,0-10.62-1.94,4.16-29.31
			c14.46-26.77-10.46-50.82-11.74-52.03c-2.09-5.99-4.98-11.67-8.59-16.89l0.27,0.33c9.71-4.64,25.72,40.79,35.09,28.52
			C1121.52,763.02,1112.64,769.16,1103.73,739.35z M1027.57,836.84c-34.12,0-61.79-27.66-61.79-61.79
			c0-34.12,27.66-61.79,61.79-61.79c34.12,0,61.79,27.66,61.79,61.79C1089.36,809.18,1061.7,836.84,1027.57,836.84L1027.57,836.84z"
			/>
	</g>
</g>
</svg>
