<svg xmlns="http://www.w3.org/2000/svg" viewBox="0 0 139.43 138.57"><defs><style>.cls-1{fill:#ffc9dc;}.cls-2{fill:#fff;}</style></defs><title>sakura</title><g id="Calque_2" data-name="Calque 2"><path class="cls-1" d="M531.54,242.63s8.87-1.27,10.13,1.52a55,55,0,0,1,2.15,5.65c.26,1.3,3,11.68-9.21,27.76,0,0-16.48,17.13-31.66,13.36,0,0-19.84-6.22-15.82-31.39,0,0,5.06-24,26.85-29.45,0,0,9.73-.51,12.58.78l4.54,1.56A61.1,61.1,0,0,1,531.54,242.63Z" transform="translate(-427.86 -229.98)"/><path class="cls-1" d="M557.68,313.46s4,8,1.76,10.1a54.88,54.88,0,0,1-4.68,3.81c-1.15.66-10.14,6.52-29.25,0,0,0-21.45-10.22-22.68-25.81,0,0-.36-20.8,24.78-24.94,0,0,24.37-2.78,36.43,16.18,0,0,3.56,9.06,3.23,12.18l0,4.8A61.14,61.14,0,0,1,557.68,313.46Z" transform="translate(-427.86 -229.98)"/><path class="cls-1" d="M498.74,360.65s-6.34,6.32-9,4.85a53.68,53.68,0,0,1-5.11-3.24c-1-.88-9.38-7.55-9.27-27.74,0,0,2.92-23.58,17.32-29.67,0,0,19.62-6.91,31.49,15.64,0,0,10.34,22.24-3.84,39.67,0,0-7.47,6.25-10.53,6.92l-4.57,1.47A61.06,61.06,0,0,1,498.74,360.65Z" transform="translate(-427.86 -229.98)"/><path class="cls-1" d="M435.35,319.63s-8-4-7.46-7a53.48,53.48,0,0,1,1.46-5.87c.52-1.21,4.2-11.29,23.39-17.56,0,0,23.29-4.69,33.62,7.06,0,0,12.76,16.42-4.88,34.81,0,0-17.84,16.84-38.85,8.9,0,0-8.29-5.12-9.9-7.81l-2.84-3.87A60.32,60.32,0,0,1,435.35,319.63Z" transform="translate(-427.86 -229.98)"/><path class="cls-1" d="M454.24,246.53s1.27-8.87,4.3-9.3a56,56,0,0,1,6-.47c1.32.12,12,.42,24.05,16.64,0,0,11.8,20.63,3.93,34.14,0,0-11.56,17.29-34.58,6.36,0,0-21.61-11.6-20.71-34,0,0,2.23-9.48,4.28-11.85l2.77-3.92A60.68,60.68,0,0,1,454.24,246.53Z" transform="translate(-427.86 -229.98)"/></g><g id="Calque_3" data-name="Calque 3"><circle class="cls-2" cx="67.67" cy="65.89" r="8.35"/><g id="Calque_4" data-name="Calque 4"><polygon class="cls-2" points="65.04 58.6 63.68 43.19 65.04 43.19 66.24 58.6 65.04 58.6"/><circle class="cls-2" cx="64.21" cy="41.01" r="2.41"/><polygon class="cls-2" points="69.32 57.9 77.95 38.46 79.58 39.36 70.77 58.7 69.32 57.9"/><circle class="cls-2" cx="80.03" cy="36.19" r="3.31"/><polygon class="cls-2" points="73.58 60.87 87.55 54.22 88.02 55.49 74 62 73.58 60.87"/><circle class="cls-2" cx="89.78" cy="53.95" r="2.41"/><polygon class="cls-2" points="75.74 64.64 96.96 65.93 96.69 67.77 75.49 66.28 75.74 64.64"/><circle class="cls-2" cx="99.82" cy="67.09" r="3.31"/><polygon class="cls-2" points="74.44 69.67 85.55 80.43 84.53 81.32 73.53 70.46 74.44 69.67"/><circle class="cls-2" cx="86.58" cy="82.43" r="2.41"/><polygon class="cls-2" points="71.66 73.01 77.86 93.35 76.05 93.73 70.04 73.35 71.66 73.01"/><circle class="cls-2" cx="77.78" cy="96.43" r="3.31"/><polygon class="cls-2" points="66.49 73.55 60.29 87.72 59.1 87.07 65.44 72.97 66.49 73.55"/><circle class="cls-2" cx="58.78" cy="89.38" r="2.41"/><polygon class="cls-2" points="62.39 72.11 45.5 85.03 44.51 83.46 61.51 70.71 62.39 72.11"/><circle class="cls-2" cx="42.59" cy="86.03" r="3.31"/><polygon class="cls-2" points="60.09 67.46 44.63 66.6 44.83 65.26 60.26 66.27 60.09 67.46"/><circle class="cls-2" cx="42.55" cy="65.77" r="2.41"/><polygon class="cls-2" points="60 63.11 41.99 51.81 43.11 50.32 61 61.8 60 63.11"/><circle class="cls-2" cx="40.04" cy="49.42" r="3.31"/></g></g></svg>