<svg xmlns="http://www.w3.org/2000/svg" xmlns:xlink="http://www.w3.org/1999/xlink" viewBox="0 0 1679.17 2182.92"><defs><style>.cls-1,.cls-3{mask:url(#mask);}.cls-1{filter:url(#luminosity-noclip-3);}.cls-2,.cls-4{mix-blend-mode:multiply;}.cls-2{fill:url(#linear-gradient);}.cls-3{filter:url(#luminosity-noclip-4);}.cls-4{fill:url(#linear-gradient-2);}.cls-5{fill:#fff;}.cls-6{fill:url(#pink);}.cls-7{opacity:0.8;}.cls-8{mask:url(#mask-3);}.cls-9{fill:url(#linear-gradient-3);}.cls-10{mask:url(#mask-4);}.cls-11{fill:url(#linear-gradient-4);}.cls-12{fill:#fda38c;}.cls-13{fill:#f9c8c6;}.cls-14{fill:#7e5e83;}.cls-15{fill:#fcefe5;}.cls-16{fill:#e6857f;}.cls-17{fill:#7d5f75;}.cls-18{fill:#9d789a;}.cls-19{font-size:150px;font-family:FiraSans-Regular, Fira Sans;}.cls-20{letter-spacing:-0.01em;}.cls-21{letter-spacing:0em;}.cls-22{filter:url(#luminosity-noclip);}</style><filter id="luminosity-noclip" x="112.22" y="-9283.46" width="1454.72" height="32766" filterUnits="userSpaceOnUse" color-interpolation-filters="sRGB"><feFlood flood-color="#fff" result="bg"/><feBlend in="SourceGraphic" in2="bg"/></filter><mask id="mask" x="112.22" y="-9283.46" width="1454.72" height="32766" maskUnits="userSpaceOnUse"><g class="cls-22"/></mask><linearGradient id="linear-gradient" x1="839.58" y1="1581.45" x2="839.58" y2="214.68" gradientTransform="matrix(-1, 0, 0, 1, 1679.17, 0)" gradientUnits="userSpaceOnUse"><stop offset="0"/><stop offset="0.23" stop-color="#030303"/><stop offset="0.36" stop-color="#0b0b0b"/><stop offset="0.47" stop-color="#191919"/><stop offset="0.57" stop-color="#2e2e2e"/><stop offset="0.67" stop-color="#484848"/><stop offset="0.75" stop-color="#686868"/><stop offset="0.83" stop-color="#8f8f8f"/><stop offset="0.91" stop-color="#bbb"/><stop offset="0.98" stop-color="#ededed"/><stop offset="1" stop-color="#fff"/></linearGradient><linearGradient id="linear-gradient-2" x1="839.58" y1="1581.45" x2="839.58" y2="453.53" gradientUnits="userSpaceOnUse"><stop offset="0"/><stop offset="0.13" stop-color="#040404"/><stop offset="0.25" stop-color="#101010"/><stop offset="0.38" stop-color="#242424"/><stop offset="0.5" stop-color="#404040"/><stop offset="0.63" stop-color="#636363"/><stop offset="0.75" stop-color="#8f8f8f"/><stop offset="0.88" stop-color="#c3c3c3"/><stop offset="1" stop-color="#fefefe"/><stop offset="1" stop-color="#fff"/></linearGradient><linearGradient id="pink" x1="839.58" y1="2070.64" x2="839.58" y2="112.22" gradientTransform="matrix(-1, 0, 0, 1, 1679.17, 0)" gradientUnits="userSpaceOnUse"><stop offset="0" stop-color="#fff"/><stop offset="0.51" stop-color="#fbc7ba"/><stop offset="1" stop-color="#f48590"/></linearGradient><filter id="luminosity-noclip-3" x="112.22" y="214.68" width="1454.72" height="1366.76" filterUnits="userSpaceOnUse" color-interpolation-filters="sRGB"><feFlood flood-color="#fff" result="bg"/><feBlend in="SourceGraphic" in2="bg"/></filter><mask id="mask-3" x="112.22" y="214.68" width="1454.72" height="1366.76" maskUnits="userSpaceOnUse"><g class="cls-1"><path class="cls-2" d="M247,347a133.92,133.92,0,0,1,39.19-11.66A192.74,192.74,0,0,1,465,214.68c91,0,167.32,63.14,187.46,148a159,159,0,0,1,99.22,67,120,120,0,0,1,135.85,45.43,119.31,119.31,0,0,1,72-24c3.51,0,7,.16,10.41.46C985.52,360.93,1064.5,292,1159.6,292a192,192,0,0,1,144.72,65.57,164.38,164.38,0,0,1,56.52-10,166.11,166.11,0,0,1,28.22,2.42A192.56,192.56,0,0,1,1567,231.23V1581.45H112.22V292A191.89,191.89,0,0,1,247,347Z"/></g></mask><linearGradient id="linear-gradient-3" x1="839.58" y1="1581.45" x2="839.58" y2="214.68" gradientTransform="matrix(-1, 0, 0, 1, 1679.17, 0)" gradientUnits="userSpaceOnUse"><stop offset="0" stop-color="#fff"/><stop offset="0.86" stop-color="#fff"/><stop offset="1" stop-color="#fff"/></linearGradient><filter id="luminosity-noclip-4" x="112.22" y="453.53" width="1454.72" height="1127.91" filterUnits="userSpaceOnUse" color-interpolation-filters="sRGB"><feFlood flood-color="#fff" result="bg"/><feBlend in="SourceGraphic" in2="bg"/></filter><mask id="mask-4" x="112.22" y="453.53" width="1454.72" height="1127.91" maskUnits="userSpaceOnUse"><g class="cls-3"><path class="cls-4" d="M1388,684.91a152.31,152.31,0,0,0-190.2-2.12c.06-1.89.1-3.78.1-5.69,0-105.28-85.35-190.63-190.64-190.63a190.46,190.46,0,0,0-161.1,88.7,144.29,144.29,0,0,0-180.63,48.35,151.32,151.32,0,0,0-182.65,52.36,137.25,137.25,0,0,0-121.72,8.85c0-.94,0-1.87,0-2.81,0-126.13-102.25-228.39-228.39-228.39-7,0-13.82.33-20.62.94v1127H1567V551.23A186.57,186.57,0,0,0,1388,684.91Z"/></g></mask><linearGradient id="linear-gradient-4" x1="839.58" y1="1581.45" x2="839.58" y2="453.53" gradientUnits="userSpaceOnUse"><stop offset="0" stop-color="#fff"/><stop offset="0.99" stop-color="#fff"/><stop offset="1" stop-color="#fff"/></linearGradient></defs><title>stamp-postcard_1</title><g id="Calque_2" data-name="Calque 2"><g id="BACKGROUND"><path class="cls-5" d="M1679.17,2127.22h0V2070.7h0a55.7,55.7,0,1,1,0-111.39h0v-56.53h0a55.7,55.7,0,1,1,0-111.39h0v-56.53h0a55.7,55.7,0,1,1,0-111.39h0V1567h0a55.7,55.7,0,1,1,0-111.39h0V1399h0a55.7,55.7,0,1,1,0-111.39h0v-56.53h0a55.7,55.7,0,1,1,0-111.39h0V1063.2h0a55.7,55.7,0,1,1,0-111.39h0V895.28h0a55.7,55.7,0,1,1,0-111.39h0V727.36h0a55.7,55.7,0,1,1,0-111.39h0V559.45h0a55.7,55.7,0,1,1,0-111.39h0V391.53h0a55.7,55.7,0,1,1,0-111.39h0V223.61h0a55.7,55.7,0,1,1,0-111.39h0V55.7h0A55.7,55.7,0,0,1,1623.47,0H1567a55.7,55.7,0,0,1-55.7,55.7A55.69,55.69,0,0,1,1455.56,0H1399a55.7,55.7,0,0,1-55.7,55.7A55.7,55.7,0,0,1,1287.64,0h-56.53a55.69,55.69,0,0,1-55.69,55.7A55.7,55.7,0,0,1,1119.72,0H1063.2a55.7,55.7,0,0,1-55.7,55.7A55.69,55.69,0,0,1,951.81,0H895.28a55.7,55.7,0,0,1-55.7,55.7A55.69,55.69,0,0,1,783.89,0H727.36a55.69,55.69,0,0,1-55.69,55.7A55.7,55.7,0,0,1,616,0H559.45a55.7,55.7,0,0,1-55.7,55.7A55.69,55.69,0,0,1,448.06,0H391.53a55.7,55.7,0,0,1-55.7,55.7A55.69,55.69,0,0,1,280.14,0H223.61a55.69,55.69,0,0,1-55.69,55.7A55.7,55.7,0,0,1,112.22,0H55.7A55.7,55.7,0,0,1,0,55.7v56.52a55.7,55.7,0,0,1,55.7,55.7A55.69,55.69,0,0,1,0,223.61v56.53a55.69,55.69,0,0,1,55.7,55.69A55.7,55.7,0,0,1,0,391.53v56.53a55.69,55.69,0,0,1,55.7,55.69A55.7,55.7,0,0,1,0,559.45V616a55.7,55.7,0,0,1,55.7,55.7A55.69,55.69,0,0,1,0,727.36v56.53a55.69,55.69,0,0,1,55.7,55.69A55.7,55.7,0,0,1,0,895.28v56.53a55.69,55.69,0,0,1,55.7,55.69A55.7,55.7,0,0,1,0,1063.2v56.52a55.7,55.7,0,0,1,55.7,55.7A55.69,55.69,0,0,1,0,1231.11v56.53a55.7,55.7,0,0,1,55.7,55.7A55.7,55.7,0,0,1,0,1399v56.53a55.69,55.69,0,0,1,55.7,55.69A55.7,55.7,0,0,1,0,1567v56.52a55.7,55.7,0,0,1,55.7,55.7A55.69,55.69,0,0,1,0,1734.86v56.53a55.7,55.7,0,0,1,55.7,55.7A55.69,55.69,0,0,1,0,1902.78v56.53A55.69,55.69,0,0,1,55.7,2015,55.7,55.7,0,0,1,0,2070.7v56.52a55.7,55.7,0,0,1,55.7,55.7h56.52a55.7,55.7,0,1,1,111.39,0h56.53a55.7,55.7,0,1,1,111.39,0h56.53a55.7,55.7,0,1,1,111.39,0H616a55.7,55.7,0,1,1,111.39,0h56.53a55.7,55.7,0,1,1,111.39,0h56.53a55.7,55.7,0,1,1,111.39,0h56.52a55.7,55.7,0,1,1,111.39,0h56.53a55.7,55.7,0,1,1,111.39,0h56.53a55.7,55.7,0,1,1,111.39,0h56.52A55.7,55.7,0,0,1,1679.17,2127.22Z"/><rect class="cls-6" x="112.22" y="112.22" width="1454.72" height="1958.42"/><g class="cls-7"><g class="cls-8"><path class="cls-9" d="M247,347a133.92,133.92,0,0,1,39.19-11.66A192.74,192.74,0,0,1,465,214.68c91,0,167.32,63.14,187.46,148a159,159,0,0,1,99.22,67,120,120,0,0,1,135.85,45.43,119.31,119.31,0,0,1,72-24c3.51,0,7,.16,10.41.46C985.52,360.93,1064.5,292,1159.6,292a192,192,0,0,1,144.72,65.57,164.38,164.38,0,0,1,56.52-10,166.11,166.11,0,0,1,28.22,2.42A192.56,192.56,0,0,1,1567,231.23V1581.45H112.22V292A191.89,191.89,0,0,1,247,347Z"/></g><g class="cls-10"><path class="cls-11" d="M1388,684.91a152.31,152.31,0,0,0-190.2-2.12c.06-1.89.1-3.78.1-5.69,0-105.28-85.35-190.63-190.64-190.63a190.46,190.46,0,0,0-161.1,88.7,144.29,144.29,0,0,0-180.63,48.35,151.32,151.32,0,0,0-182.65,52.36,137.25,137.25,0,0,0-121.72,8.85c0-.94,0-1.87,0-2.81,0-126.13-102.25-228.39-228.39-228.39-7,0-13.82.33-20.62.94v1127H1567V551.23A186.57,186.57,0,0,0,1388,684.91Z"/></g></g><circle class="cls-12" cx="806.35" cy="1083.11" r="339.18"/><path class="cls-13" d="M547.35,864.1a30.51,30.51,0,0,1,7.22,12.32c5.17,17.59-8.81,33.15-10,34.43,0,0-7.62,3.8,0,30.45,0,0,3.81,32.75-12.18,71.58,0,0,6.85,57.87-30.46,71.58a82.87,82.87,0,0,0-15.14,14.94,84.69,84.69,0,0,0-15.89,34.26A338.58,338.58,0,0,1,547.35,864.1Z"/><path class="cls-13" d="M490.28,1207.21s46.32-92.65,90.43-115.81c0,0,24.27-101.46,29.78-101.46,0,0,29.78-13.24,38.6-29.78,0,0-.45-19.64,3.67-22.21,0,0,11.85-18,0-24.23,0,0-19.58-1.54-19.58-45.87,0,0-24.38-23.8-15-43.48-1.87-16.36,3.28-24.07,6.33-27.4,1.32-1.45,2.63-2.49,14.12-8.71,12-6.46,17.94-9.7,24.33-12.59,0,0,12.18-5.51,25.5-9.88,19.25-6.34,149.35,10.33,323.37,57.54,6.7,7.61,14.27,20,21.75,35.74,9.58,20.2,16.58,45.07,6.22,63.71,0,0-16.58,23.83-32.12,18.65,0,0-12-4.4-7.34,23.84,0,0-25.88,4.11-29.41,17.05,0,0-2.94,37.06-18.82,32.94,0,0-34.12-24.7-60-63.52,0,0-81.45-25.88-103.21-27.65,0,0-15,11.76-29.72,12.35,0,0-14.12-.59-18.82-6.47,0,0-17.65,7.06-2.36,28.83,0,0,43.53,48.82,43.53,69.4,0,0,12.35,25.89-6.47,59.41,0,0-12.94,17.65,10.59,50,0,0,4.07,28.16.64,39.29,0,0,3.77,27.4-18.66,37.68,0,0-26.71,3.42-34.42,8.56,0,0-32.53,24-54.79,11.13,0,0-15.41-6-29.11-1.72,0,0-17,16.73-32.92,12.36,0,0-25-6.55-34.31-4.37,0,0-37.68,2.66-45,51.31C537.05,1291.85,505.82,1255.73,490.28,1207.21Z"/><path class="cls-13" d="M758.74,1430s70.63-102.13,71.59-106.9,42.95-13.37,27.68-64.91c0,0-38.18-37.22-38.18-44.86,0,0,26.72-65.87,22.91-80.18,0,0,3.76-11.11,23.61-15,0,0,13.56-8.71,18.4-16.94,0,0,15-9.2,47,2.9,0,0,31,12.59,58.58-17.43,0,0,14.25-24,31.68.21,0,0,15.29-23.45,49.66,2.7,0,0,16.47-7.27,26.15-6.78,0,0,14-16.47,28.57-12.59,0,0,9.68,4.84,10.17,8.23S1141.45,1440.65,758.74,1430Z"/><path class="cls-14" d="M923.29,764.75l13.79-35.55,25.08-64.64s8.76-2.19,7.66,4.93l-8.47,24.65s388.36,182.29,208.51,577.08c0,0-143.29,326.55-504.45,213l-10,26.7s-9.1,5.69-10.61-4.55l37.54-94.82s6.67,2.76,8.05,2.76L680.69,1444s289.54,120.78,453.62-186.22c0,0,169.86-337.06-186.13-524.61l-13.75,35.87Z"/><path class="cls-15" d="M678.64,751.45S804.49,704,909.22,748c0,0,1.95,23,12.31,26.61,0,0,13.14.42-5.15-22.65,0,0,21.87-.81,31.41,9.92,0,0-5.17,20.28,18.69,24.65,0,0,4.77,5.57,3.58,8.75H955S944.21,782.51,943,780.52c0,0-10.73,4.77-10.73,8.35,0,0,9.54,19.48,20.67,15.9,0,0,5.17,8.75,9.94,9.15,0,0,7.54-2.79,7.35-10.74,0,0,3.54-6,12.3,2.46,0,0,11.55,13.22,8.93,19.44,0,0-12.44-2-13.09,0,0,0-8.84,7.85,1.31,16,0,0,8-9.5,12.17-9.82,0,0,19.71,8.46,30.37,24.73,0,0,9.17,32.56,8.58,38.19a12.25,12.25,0,0,0-4.12,4.68c-1.25,2.53-1.27,5-1.3,8.52a36.69,36.69,0,0,0,.2,4.32,14.08,14.08,0,0,1-4.26,1.1,14.28,14.28,0,0,1-5.61-.6,24,24,0,0,0-10.09-10.41,14.24,14.24,0,0,0-8.68,4s-13.86-26.07-14.13-26.62-1.36-5.17,5.72-2.45c0,0,12,6.27,15.79,4.09,0,0,7.63-12.53-18-28.32,0,0-11.93,1.67-13.63-5.13,0,0-5.73-2.33-7.22,1.91,0,0-.64,3-2.34,3.83,0,0-3.61-7-10.61-5.1,0,0-8.28-4.88-1.49-12.74,0,0-17.41-24.21-44.8-24.21a18.17,18.17,0,0,0-8.19,9.46,18.51,18.51,0,0,0,1,14.58,13.43,13.43,0,0,1,4.38,7.1c1.7,7.59-4.61,13.42-4.89,13.67,0,0-5.09,14,2.76,13,0,0,8.5-8.07,20.81.21,0,0,6.8,10.2,15.29,3.61l10.41-9.77s6.15-5.94,13,.43c0,0,11,15.29,10.62,19.75,0,0,1.91,5.94-2.76,8.92,0,0-10.83,6.79-.22,12.31,0,0,15.08,5.74,5.52,19.54,0,0-7.85-.85-5.09,20.6,0,0-5.26,14.19-15.3,1.78,0,0-9.74.83-4.72,21.51,0,0-5.91,6.85-11.52-5.85,0,0-3.84-15.36,0-17.43,0,0,11.22,1.18,8.27-8.56,0,0-15.36,0-15.65-15.66,0,0,.88-13.88-7.39-14.76,0,0-6.79,3.84-4.13,13,0,0-1.77,8.86-8,.89,0,0,.59-8.27-9.45-9.16,0,0-24.22,2.36-32.19-8.86l-39.27-2.31s-11.6,8.61-24-1.12c0,0-16.84-7.86-30.69,0,0,0-15.72,18.71-16.1-8.24,0,0,12-7.11,3-16.84,0,0-29.94-46.47-77.48-23.42,0,0-15.42,22.68,30,34.26v12s-20.59-3-11.23,17.22c0,0,5.24,9-7.86,20.58,0,0-17.22,6-3.37,26.2,0,0-1.5,12.73,32.93,9.92,0,0,13.48,18.9,9.36,38,0,0,3,14.6,19.46,13.1,0,0,2.61,29.61-6.26,35.7,0,0,25.49,24.38-5,48.75,0,0,3.32,39.89,26.59,49.3,0,0-8.31,23.82-2.22,28.81,0,0,0,15.51-14.4,13.29l-22.71.22-30.47,22.5c-.81.43-9.86,5.15-18.75.46a19.43,19.43,0,0,1-8.54-9.34c-.8-.8-6.85-6.64-15.07-5.43a16.5,16.5,0,0,0-7.6,3.29,93.43,93.43,0,0,0-19.29,13.38l-47.71,2.24a66,66,0,0,1-31.86-18.7c-.26.51-.52,1-.76,1.6a27.08,27.08,0,0,0-2,12.63,12.4,12.4,0,0,1-4.76,2.48c-5.61,1.46-10.31-1.72-11.13-2.3a23.29,23.29,0,0,0-.53,2.8c-.55,4.37.4,6.77.58,12.14,0,1,0,2.48,0,4.35a20.81,20.81,0,0,0-7.47,1.63c-3.85,1.53-7.93,4.49-8.86,10.25,0,0-.37,19.29-3.71,21.88,0,0-19.29-7.79-15.95-53.42,0,0,7.42-31.54,36-46,0,0,.74-13.35,7-21.89l21.89-12.61s-2.6-11.5,6.67-14.84,42.3-34.5,41.19-38.21c0,0-5.66-30.72,2.69-50.41,0,0,7.16-44.74,16.11-44.14,0,0,18.49-19.09,45.93-7.16,0,0,19.09-16.71,7.16-25.06,0,0-11.93-7.75-7.16-34.6,0,0,5.37-35.2-6.56-40,0,0,11.22-8.81-1.46-14.67-5.7-5.09-12.87-13.35-15.82-25-5.8-22.87,6.94-49.65,32.29-66.73,1.26-1,6.29-5.31,6.74-12.13.4-6.1-2.9-13.66-7.53-14.46A5.21,5.21,0,0,0,678.64,751.45Z"/><path class="cls-15" d="M784.44,1445.65a41.81,41.81,0,0,0,14-12.32c3.91-5.52,5-10.2,6.34-13.77,2.62-7,8.54-16.3,23.23-25.36a74.72,74.72,0,0,0,4.68-13.76c.68-2.92,1-5.1,2.54-7.66a18,18,0,0,1,7.56-6.65,36.69,36.69,0,0,0,21.56-6.65c13-9.31,14.83-24,15.08-26.46A127.63,127.63,0,0,0,886,1320.3c3.07-6.92,3.71-10,6.87-13.13a19.78,19.78,0,0,1,10.9-5,84.31,84.31,0,0,0,2.77-10.39,41,41,0,0,0,1-7.3A34.34,34.34,0,0,0,907,1278a38.17,38.17,0,0,1-3.74-9.13,56.78,56.78,0,0,1-1.21-7c-.73-3.71-4.12-8.6-16.23-13.4Q869.94,1230.23,854,1212a269.16,269.16,0,0,0,5.39-32.08c1.24-11.87,1-17,4.4-22.93,5.42-9.33,15.85-13.37,23.64-15.3,5.92,2,11.61.52,14.28-3.12a8.49,8.49,0,0,0,1.44-5.65s-1.52-15,14.65-8.85c0,0,30.82,11.29,37.53,8.85,0,0,23.78-18.78,38.82-.15,0,0,48.35,40.47,49.07,45.49,0,0,5.73,7.16-7.88,21.49,0,0,9.89,40.34,14.8,40.73,0,0,19-6.66,22.92,22.36,0,0,1.64,24.63,14.14,28.51a306.82,306.82,0,0,1-66.53,79.73C929.09,1448.75,818.58,1447.42,784.44,1445.65Z"/><path class="cls-15" d="M1149.58,1097.08s-6.21,122.74-47.28,167.63c0,0-12.89-6.32,9.08-35.82,0,0-6.69-8.12-29.14,5.73,0,0-2.43-17.67,5-22.92,0,0,14.59-10.51,9.34-38.21,0,0-7-15.28-14.71,0,0,0,3,26.27,0,28.18,0,0-16,17.67-27.32-2.86,0,0,4.29-14.83,13.85-4.3,0,0,2.39-16.72,5.26-36.3,0,0-7.65-4.78-14.81-4.3,0,0,.48-18.62-16.71-12.89,0,0-23.88,2.39-24.84,3.82,0,0-22.59-13.76-21-33.66,0,0,18.28-37.57,39.81-1,0,0,4.32,20.85,13.16,1.9,0,0,12.74-14.54,23.64.31a103.64,103.64,0,0,0,28.28,3.48s15.8,29.7,21.8,16.43c0,0,13-8.22-6.63-16.75,0,0,12-8.37,3.47-21.4C1119.81,1094.2,1133.86,1082.66,1149.58,1097.08Z"/><path class="cls-16" d="M511.65,1272.63a44.5,44.5,0,0,0,2.74-11.75c.17-2,.39-4,.55-6.05.26-3.17.32-4.48.95-6.22a13.59,13.59,0,0,1,2.34-4.07,18.88,18.88,0,0,1,13.46-5.51c-.32-4.41-.61-7.83-.94-10.67a18.87,18.87,0,0,1,.06-5.48,17,17,0,0,1,.88-3.3c1.66.18,3.36.34,5.1.47,3.08.25,6.06.4,8.93.48,0,0,1.92-10.2,3.19-17.86,0,0,25.52,22.33,37,19.14,0,0,36.36-2.55,45.92-1.28,0,0,19.14-21,26.79-17.86,0,0,2.83.47,8.33,3.84a93.76,93.76,0,0,1,14,10.83s12.12,2.56,15.95.64,31.89-21.69,31.89-21.69h28.7c3.13-1.54,6.86-4.09,8.29-8.29.89-2.59.52-4.7,1-4.74.76-.08,3.61,5.86,1.49,11.72A13.41,13.41,0,0,1,762,1202l-29.34.63L698.81,1225s-20.41,0-23-1.28c0,0-8.09-15.64-12.19-15.64,0,0-9.95-2.63-14.34,3.52,0,0-13.46,15.21-14.92,15.51,0,0-46.24,1-50.34,2.23,0,0-26.93-9.31-29-16.28,0,0-3.81-5-5.27.29,0,0,1.46,12.29-5.27,11.71,0,0-10.53-.88-10.53.58a51.85,51.85,0,0,1-.88,5.86s4.1,5,1.17,10.53c0,0-11.12,3.22-13.75,7Z"/><path class="cls-16" d="M781.18,1446.78s16.77-5.21,20.81-11.57c0,0,1.74-27.18,28.91-42.21,0,0,1.74-25.44,15.62-26.6,0,0,17.34,1.16,28.33-16.19,0,0,13.3-43.37,22-43.94,0,0,16.19-4.63,11.57-26.6,0,0-5.21-11-4.63-20.82,0,0-6.94-13.3-17.92-10.41,0,0-16.77-27.17-31.81-36.43,0,0,11.57-45.68,12.15-53.19a69.43,69.43,0,0,1,10.4-9.25c3.6-2.61,6.58-4.72,11.11-6a28.23,28.23,0,0,1,7.24-1.1c1.94-.35,5-1.25,6.81-3.86a9.35,9.35,0,0,0,1.18-2.81c2.07-6.66,1.14-9.65,3.28-11.66a6,6,0,0,1,4.06-1.47l-9.51-3.31a22.2,22.2,0,0,0-6.43,13.63c-.13,1.47-.26,2.93-.4,4.39a40.58,40.58,0,0,1-15,3.76s-19.29,14.81-19.76,15.75-11.93,44.21-10.45,56.41c0,0,24.15,31.13,28.2,33.16s18.61,8,18.61,12.74c0,0,3.15,15.12,4.88,21,0,0,4.34,17.2-8.38,24.09,0,0-15.43,9.32-19.22,28,0,0-5.69,28.71-21.13,30.33,0,0-23.65,3.12-25.18,12,0,0-2,15.23-7.6,20.45,0,0-23,14.33-24.77,38.67Z"/><path class="cls-16" d="M761.25,906.28h7.11s5.5-12.1,12.82-12.61,19.55,0,19.55,0,7.17,8,17.71,9.34a28,28,0,0,0,12.4-6.49l33.43.54s15.25,11,20.33,11.77c0,0,18.72.62,23.56,2.64l2.42,7.65s-7.66-4.83-24.19-1.61c0,0-21.76-12-25-11.22H830.77a29.48,29.48,0,0,1-11.64,1.77c-5.87-.5-18.94-6.54-18.94-6.54s-15.58-1.67-18.77.17c0,0-10.22,6.2-11.39,7.54l-8.78.5Z"/><path class="cls-16" d="M897.12,859.28c.48-1.1,1-2.22,1.51-3.35,1.19-2.54,2.42-4.93,3.66-7.15,0,0,4.28-5.56-4.7-14.54,0,0-4-15.82,5.72-23.94a62.07,62.07,0,0,1,21.18,4.47,63.29,63.29,0,0,1,26.59,20.56l-1,1.3A112.36,112.36,0,0,0,930,823.75a113.79,113.79,0,0,0-23.39-8.64,14.26,14.26,0,0,0-4,3.21c-5.43,6.28-3.14,15.3-2.8,16.56,0,0,8.24,7.57,5.28,14.55-.62,1.46-1.35,3-2.22,4.59a53.73,53.73,0,0,1-5.76,8.59Z"/><path class="cls-16" d="M997.86,904.85s7.38-4.1,8.37-3.61,9.35,6.07,10.67,10.5h8.7s-1.64-11.49,0-13c0,0,1.8-4.6,5.25-5.09l-.26,7-1.35-.05q-1.1,0-2.13,0l-.12,11.09-.08,4.75h-10c-.28-.9-2.87-8.9-10.64-11.4A15.65,15.65,0,0,0,997.86,904.85Z"/><path class="cls-17" d="M669.17,1570.08s-16.93,25.67,13.84,42.64H937s28.86-13.89,13.26-41.19Z"/><path class="cls-18" d="M681.36,1560.3s-11,5.69-13.1,11.54c0,0,7.25,12.23,11.36,12.23H937s14.3-7.47,13.71-11.88c0,0-5.66-8.77-13.71-11.89H803.72"/><polygon class="cls-14" points="803.72 1560.01 817.79 1560.01 817.76 1497.69 803.72 1497.69 803.72 1560.01"/></g><g id="COPYSPACE"><rect class="cls-5" x="100.22" y="1751.94" width="1478.72" height="329.49"/><text class="cls-19" transform="translate(536.1 1958.8)">Exp<tspan class="cls-20" x="242.1" y="0">l</tspan><tspan class="cls-21" x="284.55" y="0">orius</tspan></text></g></g></svg>