<svg xmlns="http://www.w3.org/2000/svg" xmlns:xlink="http://www.w3.org/1999/xlink" viewBox="0 0 1679.17 2182.92"><defs><style>.cls-1,.cls-3{mask:url(#mask);}.cls-1{filter:url(#luminosity-noclip-3);}.cls-2,.cls-4{mix-blend-mode:multiply;}.cls-2{fill:url(#linear-gradient);}.cls-3{filter:url(#luminosity-noclip-4);}.cls-4{fill:url(#linear-gradient-2);}.cls-5{fill:#fff;}.cls-6{fill:url(#pink);}.cls-7{opacity:0.8;}.cls-8{mask:url(#mask-3);}.cls-9{fill:url(#linear-gradient-3);}.cls-10{mask:url(#mask-4);}.cls-11{fill:url(#linear-gradient-4);}.cls-12{fill:#fda38c;}.cls-13{fill:#f9c8c6;}.cls-14{fill:#7e5e83;}.cls-15{fill:#fcefe5;}.cls-16{fill:#e6857f;}.cls-17{fill:#7d5f75;}.cls-18{fill:#9d789a;}.cls-19{font-size:131px;font-family:FiraSans-Regular, Fira Sans;}.cls-20{letter-spacing:-0.01em;}.cls-21{filter:url(#luminosity-noclip);}</style><filter id="luminosity-noclip" x="112.22" y="-9283.46" width="1454.72" height="32766" filterUnits="userSpaceOnUse" color-interpolation-filters="sRGB"><feFlood flood-color="#fff" result="bg"/><feBlend in="SourceGraphic" in2="bg"/></filter><mask id="mask" x="112.22" y="-9283.46" width="1454.72" height="32766" maskUnits="userSpaceOnUse"><g class="cls-21"/></mask><linearGradient id="linear-gradient" x1="839.58" y1="1581.45" x2="839.58" y2="214.68" gradientTransform="matrix(-1, 0, 0, 1, 1679.17, 0)" gradientUnits="userSpaceOnUse"><stop offset="0"/><stop offset="0.23" stop-color="#030303"/><stop offset="0.36" stop-color="#0b0b0b"/><stop offset="0.47" stop-color="#191919"/><stop offset="0.57" stop-color="#2e2e2e"/><stop offset="0.67" stop-color="#484848"/><stop offset="0.75" stop-color="#686868"/><stop offset="0.83" stop-color="#8f8f8f"/><stop offset="0.91" stop-color="#bbb"/><stop offset="0.98" stop-color="#ededed"/><stop offset="1" stop-color="#fff"/></linearGradient><linearGradient id="linear-gradient-2" x1="839.58" y1="1581.45" x2="839.58" y2="453.53" gradientUnits="userSpaceOnUse"><stop offset="0"/><stop offset="0.13" stop-color="#040404"/><stop offset="0.25" stop-color="#101010"/><stop offset="0.38" stop-color="#242424"/><stop offset="0.5" stop-color="#404040"/><stop offset="0.63" stop-color="#636363"/><stop offset="0.75" stop-color="#8f8f8f"/><stop offset="0.88" stop-color="#c3c3c3"/><stop offset="1" stop-color="#fefefe"/><stop offset="1" stop-color="#fff"/></linearGradient><linearGradient id="pink" x1="839.58" y1="2070.64" x2="839.58" y2="112.22" gradientTransform="matrix(-1, 0, 0, 1, 1679.17, 0)" gradientUnits="userSpaceOnUse"><stop offset="0" stop-color="#fff"/><stop offset="0.51" stop-color="#fbc7ba"/><stop offset="1" stop-color="#f48590"/></linearGradient><filter id="luminosity-noclip-3" x="112.22" y="214.68" width="1454.72" height="1366.76" filterUnits="userSpaceOnUse" color-interpolation-filters="sRGB"><feFlood flood-color="#fff" result="bg"/><feBlend in="SourceGraphic" in2="bg"/></filter><mask id="mask-3" x="112.22" y="214.68" width="1454.72" height="1366.76" maskUnits="userSpaceOnUse"><g class="cls-1"><path class="cls-2" d="M247,347a133.92,133.92,0,0,1,39.19-11.66A192.74,192.74,0,0,1,465,214.68c91,0,167.32,63.14,187.46,148a159,159,0,0,1,99.22,67,120,120,0,0,1,135.85,45.43,119.31,119.31,0,0,1,72-24c3.51,0,7,.16,10.41.46C985.52,360.93,1064.5,292,1159.6,292a192,192,0,0,1,144.72,65.57,164.38,164.38,0,0,1,56.52-10,166.11,166.11,0,0,1,28.22,2.42A192.56,192.56,0,0,1,1567,231.23V1581.45H112.22V292A191.89,191.89,0,0,1,247,347Z"/></g></mask><linearGradient id="linear-gradient-3" x1="839.58" y1="1581.45" x2="839.58" y2="214.68" gradientTransform="matrix(-1, 0, 0, 1, 1679.17, 0)" gradientUnits="userSpaceOnUse"><stop offset="0" stop-color="#fff"/><stop offset="0.86" stop-color="#fff"/><stop offset="1" stop-color="#fff"/></linearGradient><filter id="luminosity-noclip-4" x="112.22" y="453.53" width="1454.72" height="1127.91" filterUnits="userSpaceOnUse" color-interpolation-filters="sRGB"><feFlood flood-color="#fff" result="bg"/><feBlend in="SourceGraphic" in2="bg"/></filter><mask id="mask-4" x="112.22" y="453.53" width="1454.72" height="1127.91" maskUnits="userSpaceOnUse"><g class="cls-3"><path class="cls-4" d="M1388,684.91a152.31,152.31,0,0,0-190.2-2.12c.06-1.89.1-3.78.1-5.69,0-105.28-85.35-190.63-190.64-190.63a190.46,190.46,0,0,0-161.1,88.7,144.29,144.29,0,0,0-180.63,48.35,151.32,151.32,0,0,0-182.65,52.36,137.25,137.25,0,0,0-121.72,8.85c0-.94,0-1.87,0-2.81,0-126.13-102.25-228.39-228.39-228.39-7,0-13.82.33-20.62.94v1127H1567V551.23A186.57,186.57,0,0,0,1388,684.91Z"/></g></mask><linearGradient id="linear-gradient-4" x1="839.58" y1="1581.45" x2="839.58" y2="453.53" gradientUnits="userSpaceOnUse"><stop offset="0" stop-color="#fff"/><stop offset="0.99" stop-color="#fff"/><stop offset="1" stop-color="#fff"/></linearGradient></defs><title>stamp-postcard</title><g id="Calque_2" data-name="Calque 2"><g id="BACKGROUND"><path class="cls-5" d="M1679.17,2127.22h0V2070.7h0a55.7,55.7,0,1,1,0-111.39h0v-56.53h0a55.7,55.7,0,1,1,0-111.39h0v-56.53h0a55.7,55.7,0,1,1,0-111.39h0V1567h0a55.7,55.7,0,1,1,0-111.39h0V1399h0a55.7,55.7,0,1,1,0-111.39h0v-56.53h0a55.7,55.7,0,1,1,0-111.39h0V1063.2h0a55.7,55.7,0,1,1,0-111.39h0V895.28h0a55.7,55.7,0,1,1,0-111.39h0V727.36h0a55.7,55.7,0,1,1,0-111.39h0V559.45h0a55.7,55.7,0,1,1,0-111.39h0V391.53h0a55.7,55.7,0,1,1,0-111.39h0V223.61h0a55.7,55.7,0,1,1,0-111.39h0V55.7h0A55.7,55.7,0,0,1,1623.47,0H1567a55.7,55.7,0,0,1-55.7,55.7A55.69,55.69,0,0,1,1455.56,0H1399a55.7,55.7,0,0,1-55.7,55.7A55.7,55.7,0,0,1,1287.64,0h-56.53a55.69,55.69,0,0,1-55.69,55.7A55.7,55.7,0,0,1,1119.72,0H1063.2a55.7,55.7,0,0,1-55.7,55.7A55.69,55.69,0,0,1,951.81,0H895.28a55.7,55.7,0,0,1-55.7,55.7A55.69,55.69,0,0,1,783.89,0H727.36a55.69,55.69,0,0,1-55.69,55.7A55.7,55.7,0,0,1,616,0H559.45a55.7,55.7,0,0,1-55.7,55.7A55.69,55.69,0,0,1,448.06,0H391.53a55.7,55.7,0,0,1-55.7,55.7A55.69,55.69,0,0,1,280.14,0H223.61a55.69,55.69,0,0,1-55.69,55.7A55.7,55.7,0,0,1,112.22,0H55.7A55.7,55.7,0,0,1,0,55.7v56.52a55.7,55.7,0,0,1,55.7,55.7A55.69,55.69,0,0,1,0,223.61v56.53a55.69,55.69,0,0,1,55.7,55.69A55.7,55.7,0,0,1,0,391.53v56.53a55.69,55.69,0,0,1,55.7,55.69A55.7,55.7,0,0,1,0,559.45V616a55.7,55.7,0,0,1,55.7,55.7A55.69,55.69,0,0,1,0,727.36v56.53a55.69,55.69,0,0,1,55.7,55.69A55.7,55.7,0,0,1,0,895.28v56.53a55.69,55.69,0,0,1,55.7,55.69A55.7,55.7,0,0,1,0,1063.2v56.52a55.7,55.7,0,0,1,55.7,55.7A55.69,55.69,0,0,1,0,1231.11v56.53a55.7,55.7,0,0,1,55.7,55.7A55.7,55.7,0,0,1,0,1399v56.53a55.69,55.69,0,0,1,55.7,55.69A55.7,55.7,0,0,1,0,1567v56.52a55.7,55.7,0,0,1,55.7,55.7A55.69,55.69,0,0,1,0,1734.86v56.53a55.7,55.7,0,0,1,55.7,55.7A55.69,55.69,0,0,1,0,1902.78v56.53A55.69,55.69,0,0,1,55.7,2015,55.7,55.7,0,0,1,0,2070.7v56.52a55.7,55.7,0,0,1,55.7,55.7h56.52a55.7,55.7,0,1,1,111.39,0h56.53a55.7,55.7,0,1,1,111.39,0h56.53a55.7,55.7,0,1,1,111.39,0H616a55.7,55.7,0,1,1,111.39,0h56.53a55.7,55.7,0,1,1,111.39,0h56.53a55.7,55.7,0,1,1,111.39,0h56.52a55.7,55.7,0,1,1,111.39,0h56.53a55.7,55.7,0,1,1,111.39,0h56.53a55.7,55.7,0,1,1,111.39,0h56.52A55.7,55.7,0,0,1,1679.17,2127.22Z"/><rect class="cls-6" x="112.22" y="112.22" width="1454.72" height="1958.42"/><g class="cls-7"><g class="cls-8"><path class="cls-9" d="M247,347a133.92,133.92,0,0,1,39.19-11.66A192.74,192.74,0,0,1,465,214.68c91,0,167.32,63.14,187.46,148a159,159,0,0,1,99.22,67,120,120,0,0,1,135.85,45.43,119.31,119.31,0,0,1,72-24c3.51,0,7,.16,10.41.46C985.52,360.93,1064.5,292,1159.6,292a192,192,0,0,1,144.72,65.57,164.38,164.38,0,0,1,56.52-10,166.11,166.11,0,0,1,28.22,2.42A192.56,192.56,0,0,1,1567,231.23V1581.45H112.22V292A191.89,191.89,0,0,1,247,347Z"/></g><g class="cls-10"><path class="cls-11" d="M1388,684.91a152.31,152.31,0,0,0-190.2-2.12c.06-1.89.1-3.78.1-5.69,0-105.28-85.35-190.63-190.64-190.63a190.46,190.46,0,0,0-161.1,88.7,144.29,144.29,0,0,0-180.63,48.35,151.32,151.32,0,0,0-182.65,52.36,137.25,137.25,0,0,0-121.72,8.85c0-.94,0-1.87,0-2.81,0-126.13-102.25-228.39-228.39-228.39-7,0-13.82.33-20.62.94v1127H1567V551.23A186.57,186.57,0,0,0,1388,684.91Z"/></g></g><circle class="cls-12" cx="814.15" cy="1095.14" r="265.53"/><path class="cls-13" d="M611.39,923.68a23.88,23.88,0,0,1,5.66,9.64c4,13.77-6.9,25.95-7.83,26.95,0,0-6,3,0,23.85,0,0,3,25.63-9.54,56,0,0,5.37,45.31-23.84,56a64.85,64.85,0,0,0-11.85,11.7,66.18,66.18,0,0,0-12.44,26.82,265.11,265.11,0,0,1,59.84-211Z"/><path class="cls-13" d="M566.71,1192.28s36.26-72.52,70.8-90.65c0,0,19-79.44,23.31-79.44,0,0,23.31-10.36,30.22-23.31,0,0-.36-15.37,2.87-17.39,0,0,9.28-14.12,0-19,0,0-15.33-1.21-15.33-35.91,0,0-19.08-18.63-11.78-34-1.46-12.81,2.57-18.84,5-21.46,1-1.13,2.06-1.94,11-6.81,9.36-5.06,14-7.59,19.05-9.86,0,0,9.54-4.31,20-7.74,15.07-5,116.92,8.09,253.15,45.06,5.25,6,11.17,15.63,17,28,7.5,15.82,13,35.28,4.87,49.88,0,0-13,18.65-25.14,14.6,0,0-9.43-3.45-5.75,18.66,0,0-20.26,3.22-23,13.35,0,0-2.3,29-14.74,25.79,0,0-26.71-19.34-47-49.73,0,0-63.76-20.26-80.8-21.65,0,0-11.75,9.21-23.27,9.67,0,0-11-.46-14.73-5.06,0,0-13.82,5.52-1.84,22.56,0,0,34.07,38.22,34.07,54.34,0,0,9.67,20.26-5.06,46.51,0,0-10.13,13.81,8.28,39.14,0,0,3.19,22,.51,30.76,0,0,3,21.45-14.61,29.49,0,0-20.91,2.68-26.94,6.7,0,0-25.47,18.77-42.9,8.72,0,0-12.07-4.69-22.79-1.34,0,0-13.31,13.09-25.77,9.67,0,0-19.54-5.13-26.86-3.42,0,0-29.5,2.08-35.21,40.17C603.33,1258.55,578.88,1230.27,566.71,1192.28Z"/><path class="cls-13" d="M776.88,1366.73s55.3-80,56-83.69,33.63-10.46,21.67-50.81c0,0-29.89-29.14-29.89-35.12,0,0,20.93-51.57,17.94-62.77,0,0,2.94-8.7,18.48-11.73,0,0,10.62-6.83,14.41-13.27,0,0,11.75-7.2,36.76,2.27,0,0,24.26,9.86,45.87-13.64,0,0,11.15-18.79,24.8.16,0,0,12-18.36,38.88,2.11,0,0,12.89-5.68,20.47-5.3,0,0,11-12.89,22.36-9.86,0,0,7.58,3.79,8,6.44S1076.49,1375,776.88,1366.73Z"/><path class="cls-14" d="M905.7,845.9l10.79-27.83,19.64-50.6s6.85-1.72,6,3.85l-6.63,19.31s304,142.7,163.23,451.77c0,0-112.18,255.64-394.91,166.7L696,1430s-7.13,4.46-8.31-3.56L717,1352.22s5.22,2.16,6.3,2.16l-7.56,23.3s226.67,94.54,355.12-145.79c0,0,133-263.87-145.71-410.69l-10.77,28.07Z"/><path class="cls-15" d="M714.17,835.49s98.53-37.19,180.51-2.74c0,0,1.53,18,9.64,20.83,0,0,10.29.33-4-17.73,0,0,17.12-.63,24.59,7.77,0,0-4,15.87,14.63,19.3,0,0,3.73,4.35,2.8,6.84H930.48s-8.4-10-9.33-11.51c0,0-8.41,3.73-8.41,6.53,0,0,7.47,15.26,16.19,12.45,0,0,4,6.85,7.78,7.16,0,0,5.9-2.18,5.75-8.4,0,0,2.77-4.7,9.63,1.92,0,0,9,10.35,7,15.22,0,0-9.74-1.54-10.25,0,0,0-6.92,6.15,1,12.56,0,0,6.24-7.43,9.53-7.69,0,0,15.43,6.62,23.77,19.37,0,0,7.18,25.49,6.72,29.89a9.67,9.67,0,0,0-3.23,3.66c-1,2-1,3.93-1,6.67a29.62,29.62,0,0,0,.15,3.39,11.13,11.13,0,0,1-3.33.86,11,11,0,0,1-4.4-.48,18.81,18.81,0,0,0-7.9-8.14,11,11,0,0,0-6.79,3.16S952.52,936,952.31,935.53s-1.07-4,4.48-1.91c0,0,9.38,4.9,12.36,3.19,0,0,6-9.8-14.07-22.17,0,0-9.34,1.31-10.67-4,0,0-4.49-1.83-5.65,1.5,0,0-.5,2.33-1.83,3,0,0-2.83-5.49-8.31-4,0,0-6.48-3.82-1.17-10,0,0-13.63-18.95-35.07-18.95a14.19,14.19,0,0,0-6.41,7.4,14.49,14.49,0,0,0,.82,11.42,10.37,10.37,0,0,1,3.43,5.56c1.34,5.94-3.61,10.5-3.83,10.69,0,0-4,11,2.17,10.14,0,0,6.65-6.31,16.29.17,0,0,5.32,8,12,2.82l8.14-7.64a7.16,7.16,0,0,1,10.14.33s8.65,12,8.31,15.46c0,0,1.5,4.65-2.16,7,0,0-8.48,5.32-.16,9.64,0,0,11.8,4.49,4.32,15.3,0,0-6.15-.67-4,16.12,0,0-4.11,11.11-12,1.4,0,0-7.63.65-3.69,16.84,0,0-4.63,5.36-9-4.58,0,0-3-12,0-13.65,0,0,8.78.93,6.47-6.7,0,0-12,0-12.25-12.25,0,0,.69-10.87-5.78-11.56,0,0-5.32,3-3.24,10.17,0,0-1.39,6.93-6.24.69,0,0,.46-6.47-7.4-7.17,0,0-19,1.85-25.2-6.93l-30.74-1.81a15.6,15.6,0,0,1-18.76-.88s-13.18-6.15-24,0c0,0-12.31,14.65-12.6-6.45,0,0,9.37-5.56,2.34-13.18,0,0-23.44-36.39-60.65-18.34,0,0-12.08,17.76,23.44,26.83v9.38s-16.11-2.34-8.79,13.48c0,0,4.1,7-6.15,16.11,0,0-13.48,4.69-2.64,20.51,0,0-1.17,10,25.79,7.77,0,0,10.54,14.8,7.32,29.74,0,0,2.34,11.43,15.24,10.25,0,0,2,23.18-4.9,28,0,0,19.95,19.09-3.91,38.17,0,0,2.6,31.22,20.82,38.6,0,0-6.51,18.64-1.74,22.55,0,0,0,12.14-11.27,10.4l-17.78.17-23.85,17.62c-.63.34-7.72,4-14.68.36a15.15,15.15,0,0,1-6.68-7.31c-.63-.63-5.37-5.2-11.8-4.25a12.81,12.81,0,0,0-6,2.57,72.85,72.85,0,0,0-8.06,4.88,71.58,71.58,0,0,0-7,5.59l-37.36,1.76a51.73,51.73,0,0,1-24.94-14.64c-.2.4-.4.82-.59,1.25a21.1,21.1,0,0,0-1.57,9.89,9.74,9.74,0,0,1-3.73,1.94,10.94,10.94,0,0,1-8.71-1.8,18.71,18.71,0,0,0-.41,2.19c-.43,3.42.31,5.3.45,9.51,0,.75,0,1.94,0,3.4a16.53,16.53,0,0,0-5.85,1.27c-3,1.2-6.2,3.53-6.93,8,0,0-.29,15.1-2.91,17.13,0,0-15.1-6.1-12.48-41.82,0,0,5.8-24.69,28.17-36,0,0,.58-10.45,5.52-17.13l17.13-9.88s-2-9,5.23-11.62,33.11-27,32.24-29.91c0,0-4.43-24,2.11-39.46,0,0,5.6-35,12.61-34.56,0,0,14.48-14.94,36-5.6,0,0,15-13.08,5.61-19.62,0,0-9.34-6.07-5.61-27.09,0,0,4.2-27.55-5.14-31.29,0,0,8.78-6.89-1.14-11.48-4.46-4-10.07-10.45-12.38-19.57-4.55-17.9,5.43-38.87,25.27-52.24,1-.79,4.93-4.16,5.28-9.5.31-4.77-2.27-10.69-5.9-11.31A4.13,4.13,0,0,0,714.17,835.49Z"/><path class="cls-15" d="M797,1379a32.77,32.77,0,0,0,11-9.64c3.06-4.32,3.92-8,5-10.78,2-5.53,6.69-12.77,18.19-19.86a58.24,58.24,0,0,0,3.66-10.77c.53-2.29.77-4,2-6a14.11,14.11,0,0,1,5.92-5.21,28.74,28.74,0,0,0,16.88-5.21c10.21-7.28,11.6-18.83,11.8-20.71a100.5,100.5,0,0,0,5.11-10c2.4-5.42,2.9-7.87,5.38-10.28a15.51,15.51,0,0,1,8.53-4,65.2,65.2,0,0,0,2.17-8.13,33.15,33.15,0,0,0,.74-5.72,26.19,26.19,0,0,0-.36-5,29.82,29.82,0,0,1-2.92-7.14,45.92,45.92,0,0,1-1-5.51c-.56-2.9-3.22-6.73-12.7-10.48l-24.9-28.52a207.32,207.32,0,0,0,4.21-25.12c1-9.29.75-13.3,3.45-18,4.25-7.3,12.41-10.46,18.51-12,4.63,1.6,9.09.41,11.18-2.44a6.7,6.7,0,0,0,1.13-4.43s-1.2-11.7,11.46-6.93c0,0,24.13,8.84,29.39,6.93,0,0,18.61-14.69,30.39-.11,0,0,37.85,31.68,38.41,35.61,0,0,4.49,5.61-6.17,16.82,0,0,7.75,31.58,11.59,31.89,0,0,14.9-5.22,17.94,17.51,0,0,1.29,19.28,11.07,22.31A240,240,0,0,1,982,1320.58C910.24,1381.38,823.72,1380.34,797,1379Z"/><path class="cls-15" d="M1082.85,1106.07s-4.86,96.09-37,131.23c0,0-10.1-5,7.1-28,0,0-5.23-6.35-22.8,4.49,0,0-1.91-13.84,3.9-18,0,0,11.43-8.22,7.31-29.91,0,0-5.46-12-11.51,0,0,0,2.32,20.56,0,22.06,0,0-12.55,13.83-21.39-2.24,0,0,3.36-11.61,10.84-3.37,0,0,1.87-13.08,4.12-28.41,0,0-6-3.74-11.59-3.37,0,0,.37-14.58-13.09-10.09,0,0-18.69,1.87-19.44,3,0,0-17.69-10.77-16.45-26.35,0,0,14.31-29.42,31.16-.74,0,0,3.38,16.32,10.31,1.48,0,0,10-11.38,18.5.25a81.36,81.36,0,0,0,22.14,2.72s12.37,23.25,17.07,12.86c0,0,10.14-6.43-5.19-13.11,0,0,9.4-6.56,2.72-16.76C1059.55,1103.81,1070.54,1094.78,1082.85,1106.07Z"/><path class="cls-16" d="M583.44,1243.5a34.64,34.64,0,0,0,2.15-9.2c.13-1.58.3-3.15.43-4.73a17.4,17.4,0,0,1,.74-4.87,10.68,10.68,0,0,1,1.83-3.19,14.72,14.72,0,0,1,10.54-4.31c-.25-3.46-.48-6.14-.73-8.36a14.53,14.53,0,0,1,0-4.29,14,14,0,0,1,.69-2.58c1.3.14,2.63.26,4,.37,2.41.19,4.74.31,7,.38,0,0,1.5-8,2.49-14,0,0,20,17.48,29,15,0,0,28.46-2,35.95-1,0,0,15-16.48,21-14,0,0,2.21.37,6.52,3a73.4,73.4,0,0,1,11,8.48s9.49,2,12.48.5,25-17,25-17H775.9c2.45-1.21,5.37-3.21,6.49-6.49.7-2,.41-3.68.75-3.71.59-.06,2.83,4.59,1.17,9.17a10.49,10.49,0,0,1-4.91,5.53l-23,.49L730,1206.21s-16,0-18-1c0,0-6.34-12.24-9.54-12.24,0,0-7.79-2.06-11.23,2.75,0,0-10.54,11.91-11.68,12.14,0,0-36.2.75-39.41,1.75,0,0-21.08-7.29-22.68-12.74,0,0-3-3.9-4.12.22,0,0,1.14,9.63-4.13,9.17,0,0-8.25-.69-8.25.46a41.29,41.29,0,0,1-.68,4.58s3.2,3.89.91,8.25c0,0-8.7,2.52-10.76,5.49Q586.93,1234.28,583.44,1243.5Z"/><path class="cls-16" d="M794.44,1379.83s13.13-4.07,16.3-9a43.75,43.75,0,0,1,22.63-33s1.36-19.91,12.23-20.82c0,0,13.58.91,22.18-12.67,0,0,10.41-34,17.2-34.41,0,0,12.67-3.62,9-20.82,0,0-4.07-8.6-3.62-16.3,0,0-5.43-10.41-14-8.14,0,0-13.13-21.28-24.9-28.52,0,0,9-35.76,9.51-41.65a54.31,54.31,0,0,1,8.14-7.24c2.82-2,5.15-3.69,8.7-4.72a22.25,22.25,0,0,1,5.67-.86,8,8,0,0,0,5.33-3,7.4,7.4,0,0,0,.92-2.2c1.62-5.21.89-7.56,2.57-9.13a4.7,4.7,0,0,1,3.17-1.15l-7.43-2.59a17.22,17.22,0,0,0-5,10.67c-.1,1.15-.21,2.29-.31,3.43a31.8,31.8,0,0,1-11.78,3s-15.1,11.6-15.46,12.33-9.35,34.61-8.19,44.16c0,0,18.91,24.37,22.08,26s14.57,6.27,14.57,10c0,0,2.46,11.84,3.82,16.41,0,0,3.4,13.47-6.56,18.86,0,0-12.08,7.29-15.05,21.92,0,0-4.45,22.48-16.54,23.75,0,0-18.52,2.44-19.71,9.36,0,0-1.53,11.92-6,16,0,0-18,11.23-19.38,30.28Z"/><path class="cls-16" d="M778.85,956.7h5.56s4.31-9.48,10-9.87,15.31,0,15.31,0,5.61,6.28,13.87,7.31a22,22,0,0,0,9.7-5.08l26.18.42s11.93,8.59,15.91,9.22c0,0,14.66.48,18.44,2.06l1.9,6s-6-3.79-18.94-1.27c0,0-17-9.37-19.56-8.79h-24a22.91,22.91,0,0,1-9.12,1.39c-4.59-.39-14.82-5.11-14.82-5.11s-12.2-1.31-14.69.13c0,0-8,4.85-8.92,5.9l-6.87.39Z"/><path class="cls-16" d="M885.22,919.91c.37-.86.76-1.74,1.17-2.63.94-2,1.9-3.85,2.87-5.6,0,0,3.35-4.35-3.68-11.38,0,0-3.09-12.38,4.48-18.74a48.51,48.51,0,0,1,16.58,3.5,49.45,49.45,0,0,1,20.81,16.1l-.78,1a88.37,88.37,0,0,0-34-16.84,11,11,0,0,0-3.15,2.51c-4.25,4.91-2.46,12-2.2,13,0,0,6.46,5.92,4.14,11.38-.49,1.15-1.06,2.35-1.74,3.6a42.53,42.53,0,0,1-4.51,6.72Z"/><path class="cls-16" d="M964.08,955.58s5.78-3.21,6.55-2.83S978,957.51,979,961h6.81s-1.28-9,0-10.15c0,0,1.41-3.6,4.11-4l-.2,5.49-1.06,0H987l-.1,8.69-.06,3.72H979c-.21-.71-2.24-7-8.32-8.93A12.18,12.18,0,0,0,964.08,955.58Z"/><path class="cls-17" d="M706.76,1476.36s-13.26,20.1,10.83,33.38h198.8s22.59-10.87,10.38-32.24Z"/><path class="cls-18" d="M716.3,1468.71s-8.59,4.45-10.25,9c0,0,5.67,9.57,8.89,9.57H916.39s11.19-5.84,10.73-9.3c0,0-4.43-6.86-10.73-9.3H812.1"/><polygon class="cls-14" points="812.1 1468.48 823.11 1468.48 823.08 1419.69 812.1 1419.69 812.1 1468.48"/></g><g id="COPYSPACE"><rect class="cls-5" x="100.22" y="1751.94" width="1478.72" height="329.49"/><text class="cls-19" transform="translate(539.64 1951.8)">Exp<tspan class="cls-20" x="211.43" y="0">l</tspan><tspan x="248.5" y="0">orius</tspan></text></g></g></svg>