<svg xmlns="http://www.w3.org/2000/svg" viewBox="0 0 71.88 95.83"><defs><style>.cls-1{fill:#82af7d;}.cls-2{fill:#b58b69;}.cls-3{fill:#c1966f;}.cls-4{fill:#b87f40;}.cls-5{fill:#b78e72;}.cls-6{fill:#423c3c;}</style></defs><title>activity-india</title><g id="Calque_2" data-name="Calque 2"><g id="ACTIVITY"><ellipse class="cls-1" cx="35.32" cy="89.27" rx="35.04" ry="6.55"/><polygon class="cls-2" points="36.01 74.94 36.01 81.48 12.84 84.2 7.47 78.2 36.01 74.94"/><path class="cls-2" d="M36.71,84s14,3.43,14,1.21c0-.52-7-4.69-7.64-5.56s-2.78-3.73-4.78-3-7,3.3-8.6,3.47-9.47,2.61-9.47,2.61a24.76,24.76,0,0,0-10-5C4.53,76.61-5.37,90.25,8.79,90.25S36.71,84,36.71,84Z"/><path class="cls-3" d="M26.4,39.42c-1.72,0-2.77,1.72-11.89,9.78s-8.72,11.1-10,14.53S.46,79.46.28,80.91s-1.72,11,4.84,7.66c2.35-1.19-.65-6.07-.65-6.07s2.84,2.24,3,2S6.31,78.66,5.12,78.4c0-2.51,7.8-16.13,7.8-16.13L22.83,55c.27,1.19,3.31,7.5-.26,13.86S36,71.77,36,71.77l.7-34.2S28.12,39.42,26.4,39.42Z"/><path class="cls-4" d="M36,71l0,6.76a27.6,27.6,0,0,1-6.42,1.43c-2.26,0-14.12.25-15.94,0s-4-.17-3.38-1.31,4.38-2.25,5.13-2.73a9.6,9.6,0,0,1,4.46-2.43c1.13-.31.31-1.94,1-2.51s.76.25,2.83.32S36,71,36,71Z"/><polygon class="cls-2" points="35.87 74.94 35.87 81.48 59.04 84.2 64.41 78.2 35.87 74.94"/><path class="cls-5" d="M35.18,84s-14,3.43-14,1.21c0-.52,7-4.69,7.65-5.56s2.78-3.73,4.77-3,7,3.3,8.61,3.47,9.47,2.61,9.47,2.61a24.67,24.67,0,0,1,10-5c5.73-1.22,15.64,12.42,1.47,12.42S35.18,84,35.18,84Z"/><path class="cls-3" d="M45.48,39.42c1.72,0,2.78,1.72,11.9,9.78s8.72,11.1,10,14.53,4,15.73,4.18,17.18,1.72,11-4.84,7.66c-2.35-1.19.66-6.07.66-6.07s-2.85,2.24-3,2,1.16-5.82,2.35-6.08c0-2.51-7.8-16.13-7.8-16.13L49.05,55c-.26,1.19-3.3,7.5.27,13.86s-13.45,2.9-13.45,2.9l-.69-34.2S43.77,39.42,45.48,39.42Z"/><path class="cls-4" d="M35.86,71v6.76a27.72,27.72,0,0,0,6.43,1.43c2.26,0,14.12.25,15.94,0s4-.17,3.38-1.31-4.39-2.25-5.14-2.73A9.48,9.48,0,0,0,52,72.67c-1.13-.31-.31-1.94-1-2.51s-.75.25-2.82.32S35.86,71,35.86,71Z"/><path class="cls-3" d="M25.21,19.74a2.29,2.29,0,0,0-2.08,2.85c.53,2.58,1.64,3.37,3.36,3.32S25.21,19.74,25.21,19.74Z"/><path class="cls-3" d="M46.81,19.74a2.3,2.3,0,0,1,2.09,2.85c-.54,2.58-1.64,3.37-3.37,3.32S46.81,19.74,46.81,19.74Z"/><path class="cls-6" d="M41.12,7.54c.3-1,1.47-7.43-4.71-7.54h0c-6.18.11-5,6.51-4.71,7.54,0,0-8.21,4.44-6.44,12.2s2.44,13.6,2.67,14.49a8.29,8.29,0,0,0,8.5,5.48,8.3,8.3,0,0,0,8.51-5.48c.22-.89.89-6.73,2.66-14.49S41.12,7.54,41.12,7.54Z"/><path class="cls-3" d="M36,15.46s-8.23-1.31-8.4-.7-2.27,4.1-1,5.76,1.83,6.91,3.58,6,4.49-3.67,5.78-1.92Z"/><path class="cls-3" d="M36,15.46s8.23-1.31,8.4-.7,2.28,4.1,1,5.76-1.83,6.91-3.58,6S37.31,22.88,36,24.63Z"/><path class="cls-6" d="M31.25,22a2.44,2.44,0,0,1-2.52-1.48,1.09,1.09,0,0,0,0,.26c0,1,1.14,1.74,2.55,1.74s2.54-.78,2.54-1.74a1.09,1.09,0,0,0,0-.26A2.44,2.44,0,0,1,31.25,22Z"/><path class="cls-6" d="M40.91,22a2.45,2.45,0,0,1-2.52-1.48,1.09,1.09,0,0,0,0,.26c0,1,1.14,1.74,2.55,1.74s2.55-.78,2.55-1.74a1.09,1.09,0,0,0,0-.26A2.44,2.44,0,0,1,40.91,22Z"/></g></g></svg>