<svg xmlns="http://www.w3.org/2000/svg" viewBox="0 0 63.8 294.76"><defs><style>.cls-1{fill:#82af7d;}.cls-2{fill:#5b2c12;}.cls-3{fill:#8c6348;}.cls-4{fill:#e239da;}.cls-5{fill:#2b0606;}.cls-6{fill:#774e37;}.cls-7{fill:#fff9f5;}.cls-8{fill:#ff7f00;}.cls-9{fill:#f73ee6;}.cls-10{fill:#ffd110;}.cls-11{fill:#bf0d0d;}</style></defs><title>child-india</title><g id="Calque_2" data-name="Calque 2"><g id="CHILD"><path class="cls-1" d="M63.8,234.46c-3.46,1-6.8,6.23-9.67,12.47.62.39,1,.81,1,1.23-.1,1.51-1.4,2.53-1.33,2.92,0,0,0,0,0,0l-.27,13.81h1.35s-3,5.62-4.79,7.39c-.7.69-2.34,1.18-4.2,1.52a7.74,7.74,0,0,1-3,.66c-1.3.14-2.86.24-4.41.31-1.31.06-2.61.09-3.71.1H34c-.56,0-1,0-1.42,0a4.94,4.94,0,0,1-.89-.06h0l-.62,0v1.38a40.43,40.43,0,0,1,7.68,2c1.28.54,1.85.94,1.93,1.25,6,1.06,12.57,2.71,12.57,4.88,0,3.28-8.82,8.64-13.31,9.46-1.09.2-2.41.37-3.86.5l-.76.06c-6.28.5-14.6.41-17.32-.2-8.71-1.35-14.75-6.17-15-9.82-.09-1.55,3.8-2.89,8.31-3.93a4.86,4.86,0,0,1,1.58-1.4,23.34,23.34,0,0,1,5.37-2.15c-.45-.15-.65-.48-.41-1.12a1.68,1.68,0,0,1,1-.73c-.28-.06-.45-.19-.47-.42l-1.53-.07h0s-10.06-.29-12.1-2.3C3,270.53,0,264.91,0,264.91H1.51L1.38,251c.08-.4-1.23-1.41-1.33-2.92s5.29-2.95,6.16-3,1.08.4.6.46-2.12.89-1.79.87a.84.84,0,0,1,.59.31s-.48.54.19,1.62a5.33,5.33,0,0,1,.54,2.78L9.9,264.91h0c-.1-1.55-.17-3.23-.23-5h0c-.08-.22-.15-.44-.22-.68A9.43,9.43,0,0,1,9.15,258c0-.06,0-.12,0-.19a26.48,26.48,0,0,1,.31-8.32c.07-.39.12-.61.12-.61h0c0-14.9.8-30.86.8-30.86s4.19.23,7.37.26a5.33,5.33,0,0,1-2.83-1.78h-.15c-.07,0,0-.09,0-.16h0c-.38-.54-.83-1.05-.58-1.44-.36-.83.42-1.42,6.4-1.42s6.88.49,6.49,1.36c.2.3,0,.68-.38,1.13.09.1.1.18,0,.21a.4.4,0,0,1-.16,0l-.12.15a5.52,5.52,0,0,1-.9.91c1.25,0,2.62,0,3.88,0a4.5,4.5,0,0,1-.88-.93l-.11-.15h-.09c-.09,0-.1-.09,0-.17-.27-.37-.48-.71-.39-1-.2-.76.82-1.28,6.45-1.28s6.74.44,6.54,1.21c.12.36-.26.82-.69,1.36.12.09.16.16.07.2a.85.85,0,0,1-.25,0,5.62,5.62,0,0,1-3,1.81c3.21.09,7.62.05,7.62.05s.25,5.29.47,12.6C53.35,231.79,61.55,233.06,63.8,234.46Zm-24.18,46,.13.05Z"/><g id="CHILD-2" data-name="CHILD"><path class="cls-2" d="M40.13,214.27c1.14,3.92,2,6.27-5.82,6.27s-6.72-2.85-5.82-6.27,2.6-6.28,5.82-6.28S39.14,210.87,40.13,214.27Z"/><path class="cls-2" d="M26.39,215c1.14,3.92,2.05,6.28-5.82,6.28s-6.71-2.86-5.82-6.28,2.61-6.28,5.82-6.28S25.41,211.55,26.39,215Z"/><path class="cls-3" d="M40.13,213.45c1.14,3.92,2,6.28-5.82,6.28s-6.72-2.86-5.82-6.28,2.6-6.28,5.82-6.28S39.14,210.05,40.13,213.45Z"/><path class="cls-3" d="M26.39,213.45c1.14,3.92,2.05,6.28-5.82,6.28s-6.71-2.86-5.82-6.28,2.61-6.28,5.82-6.28S25.41,210.05,26.39,213.45Z"/><path class="cls-4" d="M45.43,60.79s8.76,95.44,18.37,103.28c-5.06,8.57-40.29,15.3-38.25,11.47S36.24,62.32,36.24,62.32Z"/><path class="cls-5" d="M38.78,44.83c-2.25,2.58-8.51,7.15-13.3,7S14.61,45.66,13,42.65c-6.58-11.83,8.18-3.44,13-3.27S46.13,36.4,38.78,44.83Z"/><path class="cls-5" d="M27.78,52.92c-.23,1.68-2.63,2.74-5.36,2.36s-4.27-2.05-4.51-3.73c-.74-5.37,2.64-2.74,5.36-2.36S28,51.24,27.78,52.92Z"/><path class="cls-3" d="M31.1,54.76c0,2,11,14.16-3.32,14.66s-3.41-12.79-3.4-14.77c0,0,.08-11.08.14-11.39.21-1.14.78-.08,1.49-.43a1.48,1.48,0,0,1,.72-.18h.56l1.62,0c.92,0,2.19,1.76,2.19,1.76Z"/><path class="cls-6" d="M31.15,45l0,1.47c-2.17.39-4.78.23-6.59-2.17A5.26,5.26,0,0,1,23.81,43l2.2-.22,1.27-.1h0l1.62,0A2.26,2.26,0,0,1,31.15,45Z"/><path class="cls-3" d="M45.73,23.2C36.32-24.74-14.94,22.9,22,43.76h0c3,1.34,6.54,3.9,13.19-.9h0C40.62,39,46.1,31.51,45.73,23.2Z"/><path class="cls-7" d="M22.9,29.88c-.15.58-3.52,1.41-6.12.87-2.77-.57-4.31-1.83-3.71-3.83s3.29-3,6-2.13S23.42,27.86,22.9,29.88Z"/><circle cx="17.69" cy="27.65" r="2.47"/><path d="M13.37,27.76c.6-2,3.29-3,6-2.13a5.87,5.87,0,0,1,3.52,2.67A5.44,5.44,0,0,0,19,24.81c-2.71-.82-5.4.13-6,2.13a3.12,3.12,0,0,0,.32,2.41A2.86,2.86,0,0,1,13.37,27.76Z"/><path class="cls-7" d="M31.38,29.68c.16.58,3.55,1.32,6.12.72,2.74-.65,4.23-1.95,3.57-3.93s-3.35-2.86-6-2S30.8,27.68,31.38,29.68Z"/><ellipse cx="36.5" cy="27.32" rx="2.46" ry="2.47" transform="translate(-6.66 12.64) rotate(-18.03)"/><path d="M40.8,27.32c-.65-2-3.35-2.86-6-2a5.86,5.86,0,0,0-3.42,2.77,5.42,5.42,0,0,1,3.72-3.6c2.68-.88,5.38,0,6,2a3.08,3.08,0,0,1-.24,2.42A2.78,2.78,0,0,0,40.8,27.32Z"/><path d="M32.13,20.68s.57-2.28,1.59-2.25,5.29-.25,6.09,0l.94.31-.52-.27a6.21,6.21,0,0,1,1.11.44c0-.09-.42-.24-.42-.24a15.11,15.11,0,0,1,1.5.69,20.9,20.9,0,0,0-2.59-.3C38.74,18.92,32.42,20.75,32.13,20.68Z"/><path d="M22.28,21.2s-.76-2-2-2a31.19,31.19,0,0,0-6.27,1.07l-.93.48.5-.36a6.55,6.55,0,0,0-1.08.63c0-.1.39-.32.39-.32a17.1,17.1,0,0,0-1.44.95,22.62,22.62,0,0,1,2.63-.75C15.22,20.59,22,21.31,22.28,21.2Z"/><path class="cls-6" d="M27.07,35.2a6.09,6.09,0,0,1,1.9-.05c.48.17-1.07.64-1.07.64S26.29,35.39,27.07,35.2Z"/><path d="M33.36,39a7.37,7.37,0,0,1-1.48.57,15.33,15.33,0,0,1-3.77.52,12.68,12.68,0,0,1-3.79-.45A4.7,4.7,0,0,1,22.88,39a6.71,6.71,0,0,0,1.51.31,29.91,29.91,0,0,0,3.71.09c1.45,0,2.77-.07,3.72-.17A12.45,12.45,0,0,0,33.36,39Z"/><path class="cls-5" d="M31.15,45.07l.51-.2.16-.08.48-.21.15-.07.58-.3.17-.09.6-.35.09-.05.59-.38.1-.06.51-.35h0C40.21,39.31,45.3,32.5,45.44,24.84c-.94-.07-2-.14-3.24-.31a4.3,4.3,0,0,1-1-.31c-1.58-.47-7.46-5.15-7.71-8.75.69,6.21,7,8.84,7,8.84C30.2,23.15,31,14.57,28.56,10.9,27,8.58,20,24.08,17.09,25a15,15,0,0,1-2.29.52,7.56,7.56,0,0,0,2.86-2.77,7.12,7.12,0,0,1-5,3,23.1,23.1,0,0,1-3,.06c.6,8.13,6.79,14.86,12.49,18h0a17,17,0,0,0,1.67.81l.13.06.64.25S2.84,38.05,3.06,28.14,9.32,5.1,18,1.42c2.72-1.66,11-1.9,17.32-.54a7,7,0,0,1,.76.18A19,19,0,0,1,40,2.4c4.5,2.25,13.3,16.81,13.32,25.74C53.28,39,31.15,45.07,31.15,45.07Z"/><polygon class="cls-3" points="6.33 118.78 1.38 119.09 1.51 81.05 11.3 66.48 6.33 118.78"/><polygon class="cls-3" points="48.84 118.66 53.79 118.95 53.52 80.91 43.67 66.38 48.84 118.66"/><path class="cls-8" d="M43,56.08c-1.52-1.3-11.94-1.91-11.94-1.91s.06,5.43-3.34,5.47c-4,0-3.38-5.47-3.38-5.47s-10.94.61-12.45,1.91c-4.2,3.6-1.59,152.76-1.59,152.76s11.14-1.63,10.87,0c-.52,3.15,13.44,2.59,12.55,0-.41-1.21,10.87-1,10.87-1S47.24,59.68,43,56.08Z"/><path class="cls-8" d="M16.89,54.83s-10.06.8-12.1,6.26C3,65.92,0,81.21,0,81.21H18Z"/><path class="cls-8" d="M38,54.83s10.06.8,12.1,6.26c1.8,4.83,4.79,20.12,4.79,20.12h-18Z"/><path class="cls-9" d="M45.88,57c-3.16,71.35-33.16,67.92-36.34,67.92,0,0,0-.6-.12-1.66a194.58,194.58,0,0,1-.31-22.65c0-.17,0-.34,0-.51.07-1.14.16-2.25.28-3.33.07-.63.14-1.25.22-1.85,15.3-5.37,20.93-34,21.9-39.68.12-.64.17-1,.17-1a2,2,0,0,1,.89-.16c.38,0,.86,0,1.42,0l.74,0c1.1,0,2.4.13,3.71.28a28.79,28.79,0,0,1,4.41.84C44.41,55.61,45.56,56.2,45.88,57Z"/><path class="cls-5" d="M24.73,55.35c1.68,1.81-1.84,4.24-4.1,2.7-1.58-1.09-2.21-1.15-2.21-3.32,0-2.37,2.16-.72,3.76-1.78C25.22,51,24,54.61,24.73,55.35Z"/><path class="cls-5" d="M24.2,59.53c-.17,1.24-1,1.95-2.61,1.73S19,61.29,19,58.62c0-2.32,1.59-2.06,3.17-1.84A2.27,2.27,0,0,1,24.2,59.53Z"/><path class="cls-5" d="M22.41,60.8c-1.37,0-2.59.55-2.74,1.64-.1.68.73,2.92-.1,4,1.69-.59,1.32-1.1,1.32-1.1A2.72,2.72,0,0,1,19,68c2,.31,2.42.15,2.89-.56a2.25,2.25,0,0,0,.45-1s.25,1.28-.19,1.54C24.78,68.2,28.07,60.9,22.41,60.8Z"/><ellipse class="cls-2" cx="24.15" cy="216.83" rx="3.87" ry="0.84" transform="translate(-156.24 94.12) rotate(-49.42)"/><ellipse class="cls-2" cx="18.31" cy="216.42" rx="0.84" ry="4.94" transform="translate(-151.18 80.6) rotate(-46.46)"/><ellipse class="cls-2" cx="30.81" cy="216.83" rx="0.84" ry="3.87" transform="translate(-133.64 72.19) rotate(-40.58)"/><ellipse class="cls-2" cx="36.65" cy="216.42" rx="4.94" ry="0.84" transform="translate(-139.01 84.8) rotate(-43.54)"/><path class="cls-10" d="M34.77,54c-1.93,9.73-7.54,26.82-12.58,33.39s-8.35,8.08-12.76,9.3c.07-.63.14-1.25.22-1.85,15.3-5.37,20.93-34,21.9-39.68.12-.64.17-1,.17-1a2,2,0,0,1,.89-.16c.38,0,.86,0,1.42,0Z"/><path class="cls-10" d="M45.88,57c-3.16,71.35-33.16,67.92-36.34,67.92,0,0,0-.6-.12-1.66,8.55,0,17.82-5.73,22.59-13.84C39.86,96,42.75,71.74,42.89,55.16,44.41,55.61,45.56,56.2,45.88,57Z"/><path class="cls-3" d="M6.34,118.66a38.73,38.73,0,0,1-.54,7.62,9,9,0,0,0-.19,4.38s-.27.9-.59.85,1.31,2.23,1.79,2.39.27,1.3-.6,1.23S0,131.14.05,127s1.41-6.87,1.33-7.94S6.34,118.66,6.34,118.66Z"/><path class="cls-3" d="M48.84,118.4a38.69,38.69,0,0,0,.54,7.62,9,9,0,0,1,.2,4.39s.27.9.59.84-1.32,2.24-1.8,2.39-.26,1.3.61,1.24,6.26-4,6.15-8.1-1.4-6.87-1.33-7.94S48.84,118.4,48.84,118.4Z"/><circle class="cls-11" cx="27.53" cy="20.46" r="1.23"/></g></g></g></svg>