<svg xmlns="http://www.w3.org/2000/svg" xmlns:xlink="http://www.w3.org/1999/xlink" viewBox="0 0 1154.84 1171.64"><defs><style>.cls-1{fill:url(#linear-gradient);}.cls-2{fill:url(#linear-gradient-2);}.cls-3{fill:url(#linear-gradient-3);}.cls-4{fill:url(#linear-gradient-4);}.cls-5{fill:url(#linear-gradient-5);}.cls-6{fill:url(#linear-gradient-6);}.cls-7{fill:url(#linear-gradient-7);}.cls-8{fill:url(#linear-gradient-8);}.cls-9{fill:url(#linear-gradient-9);}.cls-10{fill:url(#linear-gradient-10);}.cls-11{fill:url(#linear-gradient-11);}.cls-12{fill:url(#linear-gradient-12);}.cls-13{fill:url(#linear-gradient-13);}.cls-14{fill:url(#linear-gradient-14);}.cls-15{fill:url(#linear-gradient-15);}.cls-16{fill:url(#linear-gradient-16);}.cls-17{fill:url(#linear-gradient-17);}.cls-18{fill:url(#linear-gradient-18);}.cls-19{fill:url(#linear-gradient-19);}.cls-20{fill:url(#linear-gradient-20);}.cls-21{fill:url(#linear-gradient-21);}.cls-22{fill:url(#linear-gradient-22);}.cls-23{fill:url(#linear-gradient-23);}.cls-24{fill:url(#linear-gradient-24);}.cls-25{fill:url(#linear-gradient-25);}.cls-26{fill:url(#linear-gradient-26);}.cls-27{fill:url(#linear-gradient-27);}.cls-28{fill:url(#linear-gradient-28);}.cls-29{fill:url(#linear-gradient-29);}.cls-30{fill:url(#linear-gradient-30);}.cls-31{fill:url(#linear-gradient-31);}.cls-32{fill:url(#linear-gradient-32);}.cls-33{fill:url(#linear-gradient-33);}.cls-34{fill:url(#linear-gradient-34);}.cls-35{fill:url(#linear-gradient-35);}.cls-36{fill:url(#linear-gradient-36);}.cls-37{fill:url(#linear-gradient-37);}.cls-38{fill:url(#linear-gradient-38);}.cls-39{fill:url(#linear-gradient-39);}.cls-40{fill:url(#linear-gradient-40);}.cls-41{fill:url(#linear-gradient-41);}.cls-42{fill:url(#linear-gradient-42);}.cls-43{fill:url(#linear-gradient-43);}.cls-44{fill:url(#linear-gradient-44);}.cls-45{fill:url(#linear-gradient-45);}.cls-46{fill:url(#linear-gradient-46);}.cls-47{fill:url(#linear-gradient-47);}.cls-48{fill:url(#linear-gradient-48);}.cls-49{fill:url(#linear-gradient-49);}.cls-50{fill:url(#linear-gradient-50);}.cls-51{fill:url(#linear-gradient-51);}.cls-52{fill:url(#linear-gradient-52);}.cls-53{fill:url(#linear-gradient-53);}.cls-54{fill:url(#linear-gradient-54);}.cls-55{fill:url(#linear-gradient-55);}.cls-56{fill:url(#linear-gradient-56);}.cls-57{fill:url(#linear-gradient-57);}.cls-58{fill:url(#linear-gradient-58);}.cls-59{fill:url(#linear-gradient-59);}.cls-60{fill:url(#linear-gradient-60);}.cls-61{fill:url(#linear-gradient-61);}.cls-62{fill:url(#linear-gradient-62);}.cls-63{fill:url(#linear-gradient-63);}.cls-64{fill:url(#linear-gradient-64);}.cls-65{fill:url(#linear-gradient-65);}.cls-66{fill:url(#linear-gradient-66);}.cls-67{fill:url(#linear-gradient-67);}.cls-68{fill:url(#linear-gradient-68);}.cls-69{fill:url(#linear-gradient-69);}.cls-70{fill:url(#linear-gradient-70);}.cls-71{fill:url(#linear-gradient-71);}.cls-72{fill:url(#linear-gradient-72);}.cls-73{fill:url(#linear-gradient-73);}.cls-74{fill:url(#linear-gradient-74);}.cls-75{fill:url(#linear-gradient-75);}.cls-76{fill:url(#linear-gradient-76);}.cls-77{fill:url(#linear-gradient-77);}.cls-78{fill:url(#linear-gradient-78);}.cls-79{fill:url(#linear-gradient-79);}.cls-80{fill:url(#linear-gradient-80);}.cls-81{fill:url(#linear-gradient-81);}.cls-82{fill:url(#linear-gradient-82);}.cls-83{fill:url(#linear-gradient-83);}.cls-84{fill:url(#linear-gradient-84);}.cls-85{fill:#fff;}.cls-86{fill:url(#linear-gradient-85);}.cls-87{font-size:200.38px;fill:#4c1699;font-family:Montserrat-Bold, Montserrat;font-weight:700;}.cls-88{letter-spacing:-0.01em;}.cls-89{letter-spacing:-0.01em;}.cls-90{letter-spacing:-0.02em;}</style><linearGradient id="linear-gradient" x1="297.46" y1="81.91" x2="442.36" y2="213.1" gradientUnits="userSpaceOnUse"><stop offset="0" stop-color="#008dff"/><stop offset="1" stop-color="#19cea5"/></linearGradient><linearGradient id="linear-gradient-2" x1="18.21" y1="733.07" x2="237.13" y2="514.15" gradientTransform="translate(413.22 313.7)" gradientUnits="userSpaceOnUse"><stop offset="0" stop-color="#c22aff"/><stop offset="1" stop-color="#7b15ff"/></linearGradient><linearGradient id="linear-gradient-3" x1="802.48" y1="293.77" x2="896.66" y2="199.59" gradientTransform="translate(-64.75 -86.36)" xlink:href="#linear-gradient-2"/><linearGradient id="linear-gradient-4" x1="78.4" y1="16.58" x2="172.58" y2="-77.6" gradientTransform="translate(-48.67 506.82)" xlink:href="#linear-gradient-2"/><linearGradient id="linear-gradient-5" x1="478.7" y1="268.91" x2="715.75" y2="31.86" gradientTransform="translate(-58.93 120.27)" gradientUnits="userSpaceOnUse"><stop offset="0" stop-color="#fdf52c"/><stop offset="1" stop-color="#ffd61f"/></linearGradient><linearGradient id="linear-gradient-6" x1="460.68" y1="526.66" x2="682.71" y2="727.68" gradientTransform="matrix(1, 0, 0, -1, 342.03, 1356.79)" xlink:href="#linear-gradient-5"/><linearGradient id="linear-gradient-7" x1="202.5" y1="258.97" x2="401.95" y2="258.97" gradientUnits="userSpaceOnUse"><stop offset="0" stop-color="#ff7000"/><stop offset="1" stop-color="#ffd555"/></linearGradient><linearGradient id="linear-gradient-8" x1="280.92" y1="258.97" x2="323.53" y2="258.97" gradientTransform="translate(271.64 -137.86) rotate(45)" xlink:href="#linear-gradient-7"/><linearGradient id="linear-gradient-9" x1="576.48" y1="854.88" x2="848.35" y2="854.88" gradientUnits="userSpaceOnUse"><stop offset="0" stop-color="#ff7fad"/><stop offset="1" stop-color="#ba00e9"/></linearGradient><linearGradient id="linear-gradient-10" x1="258.45" y1="365.83" x2="530.31" y2="365.83" gradientTransform="matrix(1, 0, 0, 1, 0, 0)" xlink:href="#linear-gradient-2"/><linearGradient id="linear-gradient-11" x1="526.66" y1="124.4" x2="729.24" y2="124.4" xlink:href="#linear-gradient-9"/><linearGradient id="linear-gradient-12" x1="606.31" y1="124.4" x2="649.59" y2="124.4" gradientTransform="translate(271.88 -407.59) rotate(45)" xlink:href="#linear-gradient-9"/><linearGradient id="linear-gradient-13" x1="279.45" y1="1008.54" x2="386.58" y2="1008.54" gradientTransform="matrix(1, 0, 0, 1, 0, 0)" xlink:href="#linear-gradient-2"/><linearGradient id="linear-gradient-14" x1="352.56" y1="126.01" x2="401.57" y2="126.01" gradientTransform="matrix(1, 0, 0, 1, 0, 0)" xlink:href="#linear-gradient-2"/><linearGradient id="linear-gradient-15" x1="1036.63" y1="417.04" x2="1085.63" y2="417.04" xlink:href="#linear-gradient-7"/><linearGradient id="linear-gradient-16" x1="519.82" y1="1108.22" x2="646.66" y2="1108.22" xlink:href="#linear-gradient-7"/><linearGradient id="linear-gradient-17" x1="431.96" y1="58.06" x2="548.08" y2="58.06" xlink:href="#linear-gradient-7"/><linearGradient id="linear-gradient-18" x1="693.27" y1="75.01" x2="736.67" y2="75.01" xlink:href="#linear-gradient-7"/><linearGradient id="linear-gradient-19" x1="90.44" y1="715.24" x2="133.84" y2="715.24" xlink:href="#linear-gradient-7"/><linearGradient id="linear-gradient-20" x1="689.49" y1="219.46" x2="796.63" y2="219.46" xlink:href="#linear-gradient"/><linearGradient id="linear-gradient-21" x1="55.64" y1="208.63" x2="277.67" y2="409.65" xlink:href="#linear-gradient"/><linearGradient id="linear-gradient-22" x1="769.72" y1="640.67" x2="991.74" y2="841.7" xlink:href="#linear-gradient"/><linearGradient id="linear-gradient-23" x1="489.82" y1="181.39" x2="678.73" y2="352.44" gradientTransform="matrix(-1, 0, 0, 1, 1460.56, 0)" xlink:href="#linear-gradient-7"/><linearGradient id="linear-gradient-24" x1="955.29" y1="890.89" x2="1047.77" y2="974.63" gradientTransform="matrix(-1, 0, 0, 1, 1460.56, 0)" xlink:href="#linear-gradient"/><linearGradient id="linear-gradient-25" x1="1.58" y1="274.47" x2="274.61" y2="1.44" gradientTransform="translate(66.76 448.57)" xlink:href="#linear-gradient-7"/><linearGradient id="linear-gradient-26" x1="806.03" y1="719.58" x2="888.4" y2="637.2" gradientTransform="translate(241.2 -211.14)" xlink:href="#linear-gradient-2"/><linearGradient id="linear-gradient-27" x1="837.5" y1="368.13" x2="1065.1" y2="368.13" gradientTransform="translate(538.94 -564.85) rotate(45)" xlink:href="#linear-gradient"/><linearGradient id="linear-gradient-28" x1="283.5" y1="850.12" x2="471.55" y2="850.12" gradientTransform="translate(711.7 -17.96) rotate(45)" xlink:href="#linear-gradient-5"/><linearGradient id="linear-gradient-29" x1="499.64" y1="978.1" x2="581.31" y2="978.1" gradientTransform="translate(849.92 -95.7) rotate(45)" xlink:href="#linear-gradient"/><linearGradient id="linear-gradient-30" x1="619.83" y1="1020.1" x2="864.83" y2="1020.1" xlink:href="#linear-gradient-7"/><linearGradient id="linear-gradient-31" x1="716.16" y1="1020.1" x2="768.5" y2="1020.1" gradientTransform="translate(938.74 -226.12) rotate(45)" xlink:href="#linear-gradient-7"/><linearGradient id="linear-gradient-32" x1="562.84" y1="333.89" x2="776.13" y2="333.89" xlink:href="#linear-gradient"/><linearGradient id="linear-gradient-33" x1="646.7" y1="333.89" x2="692.27" y2="333.89" gradientTransform="translate(432.18 -375.61) rotate(45)" xlink:href="#linear-gradient"/><linearGradient id="linear-gradient-34" x1="1002.71" y1="732.07" x2="1154.84" y2="732.07" gradientTransform="matrix(1, 0, 0, 1, 0, 0)" xlink:href="#linear-gradient-5"/><linearGradient id="linear-gradient-35" x1="1062.53" y1="732.07" x2="1095.03" y2="732.07" gradientTransform="translate(833.62 -548.39) rotate(45)" xlink:href="#linear-gradient-5"/><linearGradient id="linear-gradient-36" x1="860.82" y1="961.21" x2="944.88" y2="961.21" gradientTransform="matrix(1, 0, 0, 1, 0, 0)" xlink:href="#linear-gradient-5"/><linearGradient id="linear-gradient-37" x1="893.87" y1="961.21" x2="911.83" y2="961.21" gradientTransform="translate(944.12 -356.88) rotate(45)" xlink:href="#linear-gradient-5"/><linearGradient id="linear-gradient-38" x1="442.56" y1="840.08" x2="592.39" y2="840.08" xlink:href="#linear-gradient-7"/><linearGradient id="linear-gradient-39" x1="501.47" y1="840.08" x2="533.48" y2="840.08" gradientTransform="translate(745.59 -119.86) rotate(45)" xlink:href="#linear-gradient-7"/><linearGradient id="linear-gradient-40" x1="202.04" y1="989.79" x2="473.91" y2="989.79" gradientTransform="translate(-713.42 390.27) rotate(-45)" xlink:href="#linear-gradient"/><linearGradient id="linear-gradient-41" x1="234.55" y1="894.36" x2="441.4" y2="894.36" gradientTransform="translate(-713.42 390.27) rotate(-45)" xlink:href="#linear-gradient"/><linearGradient id="linear-gradient-42" x1="274.1" y1="861.82" x2="401.85" y2="861.82" gradientTransform="translate(-713.42 390.27) rotate(-45)" xlink:href="#linear-gradient"/><linearGradient id="linear-gradient-43" x1="234.55" y1="1085.23" x2="441.4" y2="1085.23" gradientTransform="translate(-713.42 390.27) rotate(-45)" xlink:href="#linear-gradient"/><linearGradient id="linear-gradient-44" x1="274.1" y1="1117.77" x2="401.85" y2="1117.77" gradientTransform="translate(-713.42 390.27) rotate(-45)" xlink:href="#linear-gradient"/><linearGradient id="linear-gradient-45" x1="204.27" y1="957.98" x2="471.69" y2="957.98" gradientTransform="translate(-713.42 390.27) rotate(-45)" xlink:href="#linear-gradient"/><linearGradient id="linear-gradient-46" x1="214.26" y1="926.17" x2="461.69" y2="926.17" gradientTransform="translate(-713.42 390.27) rotate(-45)" xlink:href="#linear-gradient"/><linearGradient id="linear-gradient-47" x1="204.27" y1="1021.6" x2="471.69" y2="1021.6" gradientTransform="translate(-713.42 390.27) rotate(-45)" xlink:href="#linear-gradient"/><linearGradient id="linear-gradient-48" x1="214.26" y1="1053.42" x2="461.69" y2="1053.42" gradientTransform="translate(-713.42 390.27) rotate(-45)" xlink:href="#linear-gradient"/><linearGradient id="linear-gradient-49" x1="661.11" y1="1451.48" x2="829.52" y2="1451.48" gradientTransform="translate(-713.42 390.27) rotate(-45)" xlink:href="#linear-gradient-5"/><linearGradient id="linear-gradient-50" x1="681.25" y1="1392.36" x2="809.38" y2="1392.36" gradientTransform="translate(-713.42 390.27) rotate(-45)" xlink:href="#linear-gradient-5"/><linearGradient id="linear-gradient-51" x1="705.75" y1="1372.21" x2="784.88" y2="1372.21" gradientTransform="translate(-713.42 390.27) rotate(-45)" xlink:href="#linear-gradient-5"/><linearGradient id="linear-gradient-52" x1="681.25" y1="1510.59" x2="809.38" y2="1510.59" gradientTransform="translate(-713.42 390.27) rotate(-45)" xlink:href="#linear-gradient-5"/><linearGradient id="linear-gradient-53" x1="705.75" y1="1530.75" x2="784.88" y2="1530.75" gradientTransform="translate(-713.42 390.27) rotate(-45)" xlink:href="#linear-gradient-5"/><linearGradient id="linear-gradient-54" x1="662.49" y1="1431.77" x2="828.14" y2="1431.77" gradientTransform="translate(-713.42 390.27) rotate(-45)" xlink:href="#linear-gradient-5"/><linearGradient id="linear-gradient-55" x1="668.68" y1="1412.07" x2="821.95" y2="1412.07" gradientTransform="translate(-713.42 390.27) rotate(-45)" xlink:href="#linear-gradient-5"/><linearGradient id="linear-gradient-56" x1="662.49" y1="1471.18" x2="828.14" y2="1471.18" gradientTransform="translate(-713.42 390.27) rotate(-45)" xlink:href="#linear-gradient-5"/><linearGradient id="linear-gradient-57" x1="668.68" y1="1490.89" x2="821.95" y2="1490.89" gradientTransform="translate(-713.42 390.27) rotate(-45)" xlink:href="#linear-gradient-5"/><linearGradient id="linear-gradient-58" x1="474.14" y1="660.13" x2="671.42" y2="660.13" gradientTransform="translate(-713.42 390.27) rotate(-45)" xlink:href="#linear-gradient-5"/><linearGradient id="linear-gradient-59" x1="497.73" y1="590.88" x2="647.83" y2="590.88" gradientTransform="translate(-713.42 390.27) rotate(-45)" xlink:href="#linear-gradient-5"/><linearGradient id="linear-gradient-60" x1="526.43" y1="567.27" x2="619.13" y2="567.27" gradientTransform="translate(-713.42 390.27) rotate(-45)" xlink:href="#linear-gradient-5"/><linearGradient id="linear-gradient-61" x1="497.73" y1="729.38" x2="647.83" y2="729.38" gradientTransform="translate(-713.42 390.27) rotate(-45)" xlink:href="#linear-gradient-5"/><linearGradient id="linear-gradient-62" x1="526.43" y1="753" x2="619.13" y2="753" gradientTransform="translate(-713.42 390.27) rotate(-45)" xlink:href="#linear-gradient-5"/><linearGradient id="linear-gradient-63" x1="475.75" y1="637.05" x2="669.81" y2="637.05" gradientTransform="translate(-713.42 390.27) rotate(-45)" xlink:href="#linear-gradient-5"/><linearGradient id="linear-gradient-64" x1="483" y1="613.96" x2="662.56" y2="613.96" gradientTransform="translate(-713.42 390.27) rotate(-45)" xlink:href="#linear-gradient-5"/><linearGradient id="linear-gradient-65" x1="475.75" y1="683.22" x2="669.81" y2="683.22" gradientTransform="translate(-713.42 390.27) rotate(-45)" xlink:href="#linear-gradient-5"/><linearGradient id="linear-gradient-66" x1="483" y1="706.3" x2="662.56" y2="706.3" gradientTransform="translate(-713.42 390.27) rotate(-45)" xlink:href="#linear-gradient-5"/><linearGradient id="linear-gradient-67" x1="977.82" y1="1285.65" x2="1228.97" y2="1285.65" gradientTransform="translate(-713.42 390.27) rotate(-45)" xlink:href="#linear-gradient-7"/><linearGradient id="linear-gradient-68" x1="1007.85" y1="1197.49" x2="1198.94" y2="1197.49" gradientTransform="translate(-713.42 390.27) rotate(-45)" xlink:href="#linear-gradient-7"/><linearGradient id="linear-gradient-69" x1="1044.39" y1="1167.43" x2="1162.4" y2="1167.43" gradientTransform="translate(-713.42 390.27) rotate(-45)" xlink:href="#linear-gradient-7"/><linearGradient id="linear-gradient-70" x1="1007.85" y1="1373.8" x2="1198.94" y2="1373.8" gradientTransform="translate(-713.42 390.27) rotate(-45)" xlink:href="#linear-gradient-7"/><linearGradient id="linear-gradient-71" x1="1044.39" y1="1403.87" x2="1162.4" y2="1403.87" gradientTransform="translate(-713.42 390.27) rotate(-45)" xlink:href="#linear-gradient-7"/><linearGradient id="linear-gradient-72" x1="979.87" y1="1256.26" x2="1226.92" y2="1256.26" gradientTransform="translate(-713.42 390.27) rotate(-45)" xlink:href="#linear-gradient-7"/><linearGradient id="linear-gradient-73" x1="989.11" y1="1226.87" x2="1217.68" y2="1226.87" gradientTransform="translate(-713.42 390.27) rotate(-45)" xlink:href="#linear-gradient-7"/><linearGradient id="linear-gradient-74" x1="979.87" y1="1315.03" x2="1226.92" y2="1315.03" gradientTransform="translate(-713.42 390.27) rotate(-45)" xlink:href="#linear-gradient-7"/><linearGradient id="linear-gradient-75" x1="989.11" y1="1344.42" x2="1217.68" y2="1344.42" gradientTransform="translate(-713.42 390.27) rotate(-45)" xlink:href="#linear-gradient-7"/><linearGradient id="linear-gradient-76" x1="897.29" y1="773.55" x2="1021.18" y2="773.55" gradientTransform="translate(-713.42 390.27) rotate(-45)" xlink:href="#linear-gradient-9"/><linearGradient id="linear-gradient-77" x1="912.1" y1="730.07" x2="1006.37" y2="730.07" gradientTransform="translate(-713.42 390.27) rotate(-45)" xlink:href="#linear-gradient-9"/><linearGradient id="linear-gradient-78" x1="930.12" y1="715.24" x2="988.34" y2="715.24" gradientTransform="translate(-713.42 390.27) rotate(-45)" xlink:href="#linear-gradient-9"/><linearGradient id="linear-gradient-79" x1="912.1" y1="817.04" x2="1006.37" y2="817.04" gradientTransform="translate(-713.42 390.27) rotate(-45)" xlink:href="#linear-gradient-9"/><linearGradient id="linear-gradient-80" x1="930.12" y1="831.87" x2="988.34" y2="831.87" gradientTransform="translate(-713.42 390.27) rotate(-45)" xlink:href="#linear-gradient-9"/><linearGradient id="linear-gradient-81" x1="898.3" y1="759.06" x2="1020.17" y2="759.06" gradientTransform="translate(-713.42 390.27) rotate(-45)" xlink:href="#linear-gradient-9"/><linearGradient id="linear-gradient-82" x1="902.86" y1="744.56" x2="1015.61" y2="744.56" gradientTransform="translate(-713.42 390.27) rotate(-45)" xlink:href="#linear-gradient-9"/><linearGradient id="linear-gradient-83" x1="898.3" y1="788.05" x2="1020.17" y2="788.05" gradientTransform="translate(-713.42 390.27) rotate(-45)" xlink:href="#linear-gradient-9"/><linearGradient id="linear-gradient-84" x1="902.86" y1="802.55" x2="1015.61" y2="802.55" gradientTransform="translate(-713.42 390.27) rotate(-45)" xlink:href="#linear-gradient-9"/><linearGradient id="linear-gradient-85" x1="0" y1="627.06" x2="129.51" y2="627.06" xlink:href="#linear-gradient"/></defs><title>congrats-message</title><g id="Calque_2" data-name="Calque 2"><g id="Layer_1" data-name="Layer 1"><path class="cls-1" d="M503.76,277.86h0C396.7,277.86,309.91,191.07,309.91,84h0C417,84,503.76,170.8,503.76,277.86Z"/><rect class="cls-2" x="431.43" y="827.84" width="218.91" height="218.91" transform="translate(-504.35 656.99) rotate(-45)"/><rect class="cls-3" x="737.72" y="113.22" width="94.18" height="94.18" transform="translate(116.51 601.9) rotate(-45)"/><rect class="cls-4" x="29.72" y="429.22" width="94.18" height="94.18" transform="translate(-314.31 193.83) rotate(-45)"/><rect class="cls-5" x="419.77" y="152.14" width="237.05" height="237.05" transform="translate(-33.72 459.91) rotate(-45)"/><path class="cls-6" d="M1118.82,529.88h0a0,0,0,0,1,0,0v0a297,297,0,0,1-297,297h0a0,0,0,0,1,0,0v0A297,297,0,0,1,1118.82,529.88Z" transform="translate(1940.61 1356.79) rotate(180)"/><path class="cls-7" d="M302.22,358.69,202.5,259l99.72-99.73L402,259ZM242.2,259l60,60,60-60-60-60Z"/><rect class="cls-8" x="287.16" y="243.9" width="30.13" height="30.13" transform="translate(-94.6 289.56) rotate(-45)"/><circle class="cls-9" cx="712.41" cy="854.88" r="135.93"/><circle class="cls-10" cx="394.38" cy="365.83" r="135.93"/><path class="cls-11" d="M628,225.68,526.66,124.39,628,23.11,729.24,124.39ZM567,124.39l61,61,61-61-61-61Z"/><rect class="cls-12" x="612.65" y="109.09" width="30.6" height="30.6" transform="translate(95.96 480.46) rotate(-45)"/><path class="cls-13" d="M333,1062.11a53.57,53.57,0,1,1,53.57-53.57A53.63,53.63,0,0,1,333,1062.11Zm0-89.41a35.85,35.85,0,1,0,35.85,35.84A35.88,35.88,0,0,0,333,972.7Z"/><path class="cls-14" d="M377.06,150.51A24.5,24.5,0,1,1,401.57,126,24.53,24.53,0,0,1,377.06,150.51Zm0-40.89A16.4,16.4,0,1,0,393.46,126,16.41,16.41,0,0,0,377.06,109.62Z"/><path class="cls-15" d="M1061.13,441.54a24.5,24.5,0,1,1,24.5-24.5A24.53,24.53,0,0,1,1061.13,441.54Zm0-40.89a16.4,16.4,0,1,0,16.4,16.39A16.41,16.41,0,0,0,1061.13,400.65Z"/><path class="cls-16" d="M583.24,1171.64a63.42,63.42,0,1,1,63.42-63.42A63.49,63.49,0,0,1,583.24,1171.64Zm0-105.86a42.44,42.44,0,1,0,42.44,42.44A42.49,42.49,0,0,0,583.24,1065.78Z"/><path class="cls-17" d="M490,116.12a58.06,58.06,0,1,1,58.06-58.06A58.13,58.13,0,0,1,490,116.12Zm0-96.91a38.85,38.85,0,1,0,38.85,38.85A38.9,38.9,0,0,0,490,19.21Z"/><path class="cls-18" d="M715,96.71A21.7,21.7,0,1,1,736.67,75,21.73,21.73,0,0,1,715,96.71Zm0-36.22A14.52,14.52,0,1,0,729.49,75,14.54,14.54,0,0,0,715,60.49Z"/><path class="cls-19" d="M112.14,736.94a21.7,21.7,0,1,1,21.7-21.7A21.72,21.72,0,0,1,112.14,736.94Zm0-36.22a14.52,14.52,0,1,0,14.52,14.52A14.53,14.53,0,0,0,112.14,700.72Z"/><path class="cls-20" d="M743.06,273a53.57,53.57,0,1,1,53.57-53.57A53.63,53.63,0,0,1,743.06,273Zm0-89.42a35.85,35.85,0,1,0,35.84,35.85A35.89,35.89,0,0,0,743.06,183.61Z"/><path class="cls-21" d="M74.71,211.85h0a297,297,0,0,1,297,297v0a0,0,0,0,1,0,0h0a297,297,0,0,1-297-297v0A0,0,0,0,1,74.71,211.85Z"/><path class="cls-22" d="M788.79,643.89h0a297,297,0,0,1,297,297v0a0,0,0,0,1,0,0h0a297,297,0,0,1-297-297v0A0,0,0,0,1,788.79,643.89Z"/><path class="cls-23" d="M701.78,436.87h0c139.58,0,252.74-113.15,252.74-252.74h0c-139.59,0-252.74,113.16-252.74,252.74Z"/><path class="cls-24" d="M373.6,1016h0A123.74,123.74,0,0,0,497.33,892.23h0A123.74,123.74,0,0,0,373.6,1016Z"/><rect class="cls-25" x="68.34" y="450.01" width="273.03" height="273.03" transform="translate(-354.74 316.64) rotate(-45)"/><rect class="cls-26" x="1047.22" y="426.05" width="82.38" height="82.38" transform="translate(-11.6 906.47) rotate(-45)"/><rect class="cls-27" x="870.83" y="287.66" width="160.94" height="160.94" transform="translate(18.32 780.49) rotate(-45)"/><rect class="cls-28" x="311.04" y="783.63" width="132.97" height="132.97" transform="translate(-490.55 515.95) rotate(-45)"/><rect class="cls-29" x="511.6" y="949.22" width="57.75" height="57.75" transform="translate(-533.32 668.65) rotate(-45)"/><path class="cls-30" d="M742.33,1142.6l-122.5-122.5,122.5-122.5,122.5,122.5ZM668.6,1020.1l73.73,73.73,73.73-73.73-73.73-73.73Z"/><rect class="cls-31" x="723.82" y="1001.6" width="37.01" height="37.01" transform="translate(-503.9 823.68) rotate(-45)"/><path class="cls-32" d="M669.49,440.53,562.84,333.89,669.49,227.24,776.13,333.89ZM605.3,333.89l64.19,64.18,64.18-64.18L669.49,269.7Z"/><rect class="cls-33" x="653.38" y="317.78" width="32.22" height="32.22" transform="translate(-40.01 571.19) rotate(-45)"/><path class="cls-34" d="M1078.78,808.14l-76.07-76.07L1078.78,656l76.06,76.06ZM1033,732.07l45.78,45.78,45.78-45.78-45.78-45.78Z"/><rect class="cls-35" x="1067.29" y="720.58" width="22.98" height="22.98" transform="translate(-201.69 977.23) rotate(-45)"/><path class="cls-36" d="M902.85,1003.24l-42-42,42-42,42,42Zm-25.3-42,25.3,25.3,25.3-25.3-25.3-25.3Z"/><rect class="cls-37" x="896.5" y="954.86" width="12.7" height="12.7" transform="translate(-415.24 919.94) rotate(-45)"/><path class="cls-38" d="M517.47,915l-74.91-74.92,74.91-74.91,74.92,74.91Zm-45.08-74.92,45.08,45.09,45.09-45.09L517.47,795Z"/><rect class="cls-39" x="506.16" y="828.77" width="22.63" height="22.63" transform="translate(-442.46 611.96) rotate(-45)"/><path class="cls-40" d="M129.32,947.28q2.58,2.58,5.25,5l192-192q-2.4-2.67-5-5.24t-5.24-5l-192,192Q126.75,944.71,129.32,947.28Z"/><path class="cls-41" d="M89.94,861.93,236.21,715.66a137,137,0,0,0-20.36-.09l-126,126A136.87,136.87,0,0,0,89.94,861.93Z"/><path class="cls-42" d="M185.75,721.14a136.06,136.06,0,0,0-90.33,90.33Z"/><path class="cls-43" d="M214.68,986.67a136.87,136.87,0,0,0,20.35.09l126-126a136.87,136.87,0,0,0-.1-20.35Z"/><path class="cls-44" d="M265.14,981.19a136.12,136.12,0,0,0,90.33-90.33Z"/><path class="cls-45" d="M105.75,915.65a136.19,136.19,0,0,0,7.76,12.68l189.1-189.09a134.18,134.18,0,0,0-12.68-7.77Z"/><path class="cls-46" d="M93.3,883.11a136.42,136.42,0,0,0,4.79,15.66l175-175A136.42,136.42,0,0,0,257.39,719Z"/><path class="cls-47" d="M148.28,963.09A134.18,134.18,0,0,0,161,970.86L345.14,786.68A134.18,134.18,0,0,0,337.37,774Z"/><path class="cls-48" d="M177.84,978.52a136.42,136.42,0,0,0,15.66,4.79L357.59,819.22a136.42,136.42,0,0,0-4.79-15.66Z"/><path class="cls-49" d="M780.39,949.13c1.06,1.07,2.15,2.09,3.25,3.09L902.55,833.3q-1.49-1.65-3.08-3.25c-1.06-1.06-2.15-2.09-3.25-3.08L777.31,945.88Q778.8,947.55,780.39,949.13Z"/><path class="cls-50" d="M756,896.26l90.61-90.6A85.61,85.61,0,0,0,834,805.6l-78,78A84.25,84.25,0,0,0,756,896.26Z"/><path class="cls-51" d="M815.34,809.05a84.3,84.3,0,0,0-56,56Z"/><path class="cls-52" d="M833.26,973.53a85.61,85.61,0,0,0,12.61.06l78-78.06a84.12,84.12,0,0,0,0-12.6Z"/><path class="cls-53" d="M864.52,970.14a84.35,84.35,0,0,0,56-56Z"/><path class="cls-54" d="M765.79,929.54a81.72,81.72,0,0,0,4.81,7.85L887.73,820.26a83.93,83.93,0,0,0-7.86-4.81Z"/><path class="cls-55" d="M758.08,909.38a81.45,81.45,0,0,0,3,9.7L869.42,810.7a85.31,85.31,0,0,0-9.7-3Z"/><path class="cls-56" d="M792.13,958.93a83.93,83.93,0,0,0,7.86,4.81L914.07,849.65a79.9,79.9,0,0,0-4.81-7.86Z"/><path class="cls-57" d="M810.44,968.48a83.39,83.39,0,0,0,9.7,3L921.79,869.81a84.14,84.14,0,0,0-3-9.71Z"/><path class="cls-58" d="M88.62,521.78q1.86,1.88,3.81,3.61l139.3-139.3c-1.16-1.29-2.37-2.56-3.61-3.81s-2.52-2.44-3.81-3.61L85,518Q86.75,519.92,88.62,521.78Z"/><path class="cls-59" d="M60,459.84,166.18,353.7a99.75,99.75,0,0,0-14.77-.06L60,445.07A99.75,99.75,0,0,0,60,459.84Z"/><path class="cls-60" d="M129.56,357.68A98.75,98.75,0,0,0,64,423.23Z"/><path class="cls-61" d="M150.56,550.36a99.75,99.75,0,0,0,14.77.07L256.76,459a99.75,99.75,0,0,0-.06-14.77Z"/><path class="cls-62" d="M187.17,546.39a98.75,98.75,0,0,0,65.55-65.55Z"/><path class="cls-63" d="M71.51,498.83a98.63,98.63,0,0,0,5.64,9.2L214.37,370.81a97.38,97.38,0,0,0-9.21-5.63Z"/><path class="cls-64" d="M62.48,475.21A97.89,97.89,0,0,0,66,486.58l127-127a99.15,99.15,0,0,0-11.36-3.48Z"/><path class="cls-65" d="M102.37,533.25a97.49,97.49,0,0,0,9.21,5.64L245.23,405.24a98.15,98.15,0,0,0-5.64-9.2Z"/><path class="cls-66" d="M123.82,544.45a97.89,97.89,0,0,0,11.37,3.47L254.26,428.85a97.79,97.79,0,0,0-3.48-11.36Z"/><path class="cls-67" d="M887.07,607.93q2.38,2.37,4.85,4.6l177.34-177.34c-1.48-1.65-3-3.26-4.6-4.85s-3.2-3.11-4.85-4.6L882.48,603.08C884,604.73,885.49,606.34,887.07,607.93Z"/><path class="cls-68" d="M850.69,529.08,985.81,394a126.85,126.85,0,0,0-18.8-.09L850.61,510.28A126.86,126.86,0,0,0,850.69,529.08Z"/><path class="cls-69" d="M939.2,399a125.67,125.67,0,0,0-83.45,83.45Z"/><path class="cls-70" d="M965.92,644.31a127,127,0,0,0,18.81.09L1101.13,528a125.51,125.51,0,0,0-.09-18.8Z"/><path class="cls-71" d="M1012.54,639.25A125.72,125.72,0,0,0,1096,555.8Z"/><path class="cls-72" d="M865.3,578.7a121.32,121.32,0,0,0,7.17,11.72l174.68-174.68a124.58,124.58,0,0,0-11.71-7.18Z"/><path class="cls-73" d="M853.8,548.64a123.66,123.66,0,0,0,4.42,14.47l161.62-161.62a125.49,125.49,0,0,0-14.46-4.43Z"/><path class="cls-74" d="M904.58,622.53a123.45,123.45,0,0,0,11.72,7.18l170.14-170.14a125.44,125.44,0,0,0-7.17-11.72Z"/><path class="cls-75" d="M931.89,636.78a126.26,126.26,0,0,0,14.47,4.43l151.58-151.58a125.6,125.6,0,0,0-4.42-14.47Z"/><path class="cls-76" d="M468,302.77c.78.79,1.58,1.54,2.39,2.27l87.48-87.48c-.73-.81-1.49-1.61-2.27-2.39s-1.58-1.54-2.39-2.27l-87.48,87.48C466.49,301.19,467.25,302,468,302.77Z"/><path class="cls-77" d="M450.08,263.88l66.66-66.66a62.49,62.49,0,0,0-9.28,0L450,254.6A62.49,62.49,0,0,0,450.08,263.88Z"/><path class="cls-78" d="M493.74,199.72a62,62,0,0,0-41.16,41.16Z"/><path class="cls-79" d="M506.92,320.72a62.49,62.49,0,0,0,9.28,0l57.42-57.42a62.35,62.35,0,0,0,0-9.27Z"/><path class="cls-80" d="M529.92,318.23a62,62,0,0,0,41.16-41.17Z"/><path class="cls-81" d="M457.29,288.36a62.91,62.91,0,0,0,3.53,5.78L547,208a60.89,60.89,0,0,0-5.78-3.54Z"/><path class="cls-82" d="M451.61,273.53a63.05,63.05,0,0,0,2.18,7.14l79.73-79.73a62.33,62.33,0,0,0-7.13-2.19Z"/><path class="cls-83" d="M476.67,310a62.53,62.53,0,0,0,5.78,3.54l83.93-83.93a62.53,62.53,0,0,0-3.54-5.78Z"/><path class="cls-84" d="M490.14,317a62.28,62.28,0,0,0,7.13,2.18l74.78-74.77a61.83,61.83,0,0,0-2.18-7.14Z"/><rect class="cls-85" x="180.42" y="379.49" width="800" height="450.7"/><path class="cls-86" d="M64.76,691.82a64.76,64.76,0,1,1,64.75-64.76A64.83,64.83,0,0,1,64.76,691.82Zm0-108.09a43.34,43.34,0,1,0,43.33,43.33A43.38,43.38,0,0,0,64.76,583.73Z"/><text class="cls-87" transform="translate(219.14 663.34)">B<tspan class="cls-88" x="153.29" y="0">r</tspan><tspan class="cls-89" x="238.25" y="0">a</tspan><tspan class="cls-90" x="359.88" y="0">v</tspan><tspan x="476.69" y="0">o !</tspan></text></g></g></svg>