<svg xmlns="http://www.w3.org/2000/svg" viewBox="0 0 249.25 397"><defs><style>.cls-1{fill:#82af7d;}.cls-2{fill:#564d4c;}.cls-3{fill:#605757;}.cls-4{fill:#fff;}.cls-5{fill:#776e6e;}.cls-6{fill:#483f3d;}.cls-7{fill:#1a0f10;}.cls-8{fill:#020202;}</style></defs><title>elephant-india</title><g id="Calque_2" data-name="Calque 2"><g id="ANIMAL"><path class="cls-1" d="M234,389.51c-3.78.09-46.59,5-46.59,5a191.5,191.5,0,0,1-33.83-.17A164.48,164.48,0,0,1,123.94,397a143,143,0,0,1-24.1-2.16c-8.16,1.09-21.09,1.88-39.15.27,0,0-42.4-5.53-46.17-5.68,0,0-19.44-14.41,22.05-29.05,0,0,6-1.78,13.15-4.14-2.51-5.65-3.33-14.79,7.42-26,7-11.26,5.52-11.73-1.69-19.35,0,0-1.17-12.26,11.62-14,0,0-12.65-13.84-8.32-16.14,0,0,16.43-8.34,22.37-11.19,0,0,14.73-1.35,20.1.31,0,0,11.53,1.05,12.69.17,0,0,7.18-.44,11.16-.18,4-.26,11.17.18,11.17.18,1.15.88,12.68-.17,12.68-.17,5.37-1.66,20.1-.31,20.1-.31,5.95,2.85,23,8,23,8,7,13.51-11,15.73-11,15.73,12.79,1.7,13.7,17.53,13.7,17.53-8.12,8.59-4.71,13.59,1.5,23.13,6.95,9,6.44,16.5,4.44,21.51,7.29,2.59,13.56,4.59,13.56,4.59C254.59,375.39,234,389.51,234,389.51Z"/><g id="ANIMAL-2" data-name="ANIMAL"><path class="cls-2" d="M46,149.78S74.08,242.09,63.12,269c0,0-11.36,15.73,2.54,20,0,0,10.81,8.57,18.19,1.66l2.63-108.89Z"/><path class="cls-2" d="M205.19,149.78S177.09,242.09,188.05,269c0,0,11.37,15.73-2.54,20,0,0-10.81,8.57-18.19,1.66L164.7,181.81Z"/><path class="cls-3" d="M48,87.28S25.43,132.42,64.37,193.59c0,0,11.86,47.32,3.79,94.6,0,0-18.49,15.59-12.71,22.73,0,0,15.43,3.69,21.89,10.9,0,0,16,3.41,21.85-.79,0,0,12.53-2.65,13.79-.42,0,0,11.24,1.6,14.23-.18,0,0-5.29-22.8-17.45-30.79,0,0-5.37-148.26-.41-151.51S48,87.28,48,87.28Z"/><path class="cls-3" d="M202.27,87.28s22.53,45.14-16.41,106.31c0,0-11.87,47.32-3.79,94.6,0,0,18.48,15.59,12.7,22.73,0,0-15.42,3.69-21.88,10.9,0,0-16,3.41-21.85-.79,0,0-12.53-2.65-13.79-.42,0,0-11.25,1.6-14.24-.18,0,0,5.29-22.8,17.46-30.79,0,0,5.37-148.26.41-151.51S202.27,87.28,202.27,87.28Z"/><path class="cls-4" d="M77.6,130.65l13.73,14.54s-6.11-1.46-6.87,29.07c0,0-1.34,32.56-17,32.85,0,0,5.53-16,3.78-29.36C71.2,177.75,73.24,132.39,77.6,130.65Z"/><path class="cls-4" d="M174.59,130.65l-15.3,9a49.86,49.86,0,0,1,4.72,8.62,52.37,52.37,0,0,1,3.72,26s1.34,32.56,17,32.85c0,0-5.53-16-3.78-29.36C181,177.75,179,132.39,174.59,130.65Z"/><path class="cls-2" d="M125.89,37.23s13.1-16.17,13-22.9c0,0,16.71-14.46,54-8,0,0,46.53,12.42,50.64,12.64,0,0,22.35,35.67-21.48,74.18,0,0-36.61,27.1-38.8,37.14,0,0-15.05-28.68-20.14-30.88S125.89,37.23,125.89,37.23Z"/><path class="cls-2" d="M123.16,33.44S109.52,17.72,109.34,11c0,0-17.19-13.88-54.21-6.21,0,0-46.09,14-50.18,14.35,0,0-21.14,36.4,24,73.41,0,0,37.51,25.85,40,35.81Q78.52,113,88,96.8,107,64.47,123.16,33.44Z"/><path class="cls-5" d="M184.08,67.06c-.42,2.86-1,5.61-1.54,8.36a92.36,92.36,0,0,1-6.7,20.51h0c-.17.34-.32.66-.45.93-1.52,3.14-3,5.68-4.12,7.53a70.11,70.11,0,0,0,3.4,12.75c1.7,4.56,4.16,9.35,4.16,16.39v1.05s-35.58-6.82-40.82,97h-25.2s-.34-88.15-38.18-98a52.1,52.1,0,0,1,6.08-28.69l-2.8-7L75.8,92.7q-3.87-9.56-7.79-19a57.77,57.77,0,0,1-1.25-7.1c-1.34-11.27-1.39-33.51,15-50.16C97.16.78,117.22.36,123.88,0c2-.1,37.72-.2,51.85,23.58A63.16,63.16,0,0,1,178.41,30c1.84,4.77,4.81,12.46,5.91,21.18A57.34,57.34,0,0,1,184.08,67.06Z"/><path class="cls-6" d="M98.67,79.58C93.51,89.43,83.81,94.77,75.8,92.7q-3.87-9.56-7.79-19a57.77,57.77,0,0,1-1.25-7.1,29.45,29.45,0,0,1,1.39-3c5.78-11,17.3-16.44,25.73-12S104.45,68.53,98.67,79.58Z"/><path class="cls-6" d="M184.08,67.06c-.42,2.86-1,5.61-1.54,8.36a92.36,92.36,0,0,1-6.7,20.51h0c-7.93,1.77-17.38-3.55-22.44-13.22-5.78-11.06-3.64-23.59,4.79-28s19.95,1,25.73,12Z"/><path class="cls-2" d="M141.35,238.64c0,7.49-7.54,13.56-16.84,13.56s-16.84-6.07-16.84-13.56,9.18-10.59,16.84-8.76C133.55,228.05,141.35,231.15,141.35,238.64Z"/><circle class="cls-7" cx="118.37" cy="242.87" r="4.23"/><circle class="cls-7" cx="132.5" cy="242.87" r="4.23"/><ellipse class="cls-5" cx="83.19" cy="73.11" rx="7.3" ry="5.79" transform="translate(-12.21 129.36) rotate(-71.83)"/><circle class="cls-8" cx="83.66" cy="71.67" r="5.79"/><ellipse class="cls-5" cx="167.27" cy="73.13" rx="5.79" ry="7.3" transform="translate(-14.46 55.79) rotate(-18.17)"/><circle class="cls-8" cx="166.8" cy="71.69" r="5.79"/></g></g></g></svg>