<svg xmlns="http://www.w3.org/2000/svg" viewBox="0 0 145.62 53.59"><defs><style>.cls-1{fill:#82af7d;}.cls-2{fill:#f7c6a4;}.cls-3{fill:#d8a27d;}.cls-4{fill:#ba8867;}.cls-5{fill:#b5cccb;}.cls-6{fill:#cce5e5;}.cls-7{fill:#ffc87a;}.cls-8{fill:#ffe5aa;}.cls-9{fill:#549f3f;}.cls-10{fill:#c3794f;}.cls-11{fill:#c7936d;}</style></defs><title>food-india</title><g id="Calque_2" data-name="Calque 2"><g id="FOOD"><polygon class="cls-1" points="126.55 1.34 19.16 0 0 53.59 145.62 53.59 126.55 1.34"/><polygon class="cls-2" points="144.38 51.69 3.75 51.69 22.26 0 125.97 1.29 144.38 51.69"/><polygon class="cls-3" points="142.06 50 6.07 50 23.97 1.69 124.25 2.89 142.06 50"/><ellipse class="cls-4" cx="77.13" cy="25.84" rx="30.04" ry="5.82"/><path class="cls-5" d="M91.66,24.87c-2.44,1.14-8.28,1.94-15.08,1.94S63.94,26,61.49,24.87c-.79.36-1.23.77-1.23,1.19,0,1.74,7.3,3.14,16.32,3.14s16.31-1.4,16.31-3.14C92.89,25.64,92.46,25.23,91.66,24.87Z"/><path class="cls-6" d="M104.89,17.32c-4.54,2.55-15.37,4.35-28,4.35s-23.48-1.8-28-4.35c-1.47.83-2.28,1.73-2.28,2.68,0,3.89,13.56,7,30.3,7s30.3-3.14,30.3-7C107.18,19.05,106.36,18.15,104.89,17.32Z"/><ellipse class="cls-7" cx="78.22" cy="18.42" rx="26.54" ry="7.33"/><ellipse class="cls-8" cx="78.22" cy="17.83" rx="26.54" ry="6.75"/><ellipse class="cls-7" cx="74.34" cy="18.67" rx="25.19" ry="6.58"/><ellipse class="cls-8" cx="74.34" cy="17.91" rx="25.19" ry="5.82"/><ellipse class="cls-7" cx="74.98" cy="14.92" rx="20.85" ry="6.69"/><ellipse class="cls-8" cx="74.98" cy="14.41" rx="20.85" ry="6.18"/><ellipse class="cls-7" cx="77.13" cy="9.8" rx="16.87" ry="6.09"/><ellipse class="cls-8" cx="77.13" cy="8.59" rx="16.87" ry="4.88"/><path class="cls-9" d="M70.78,11.09s.28-1.65,1.13-1.65,1.69,0,.28.82S71.91,11.18,70.78,11.09Z"/><path class="cls-9" d="M83.33,7.57s-.56,1.09-1.38.89-1.65-.41-.13-.65S82.25,7.23,83.33,7.57Z"/><path class="cls-9" d="M71.56,22.19s-1.08,1-2,.48-1.74-1.11.1-.8S70.44,21.38,71.56,22.19Z"/><path class="cls-9" d="M87.57,21.65s.07-1.24.7-1.31,1.26-.13.28.59S88.41,21.63,87.57,21.65Z"/><path class="cls-9" d="M101.88,16.18s-.61,1.57-1.76,1.41-2.3-.31-.27-.86S100.36,15.88,101.88,16.18Z"/><path class="cls-9" d="M81.36,17.26s-.6,1.57-1.75,1.42-2.31-.31-.28-.87S79.84,17,81.36,17.26Z"/><path class="cls-10" d="M80.61,16.89c-1.43.17-6.16,1.16-6.2.34,0-.59.66-1,1.51-1.13A5.59,5.59,0,0,1,77,16a15.81,15.81,0,0,0,3.55-.19,1.87,1.87,0,0,1,.3,0C82.21,15.6,82,16.73,80.61,16.89Z"/><path class="cls-11" d="M80.11,16.58c-1.13.14-4.88.92-4.91.27,0-.34.28-.59.72-.75A5.59,5.59,0,0,1,77,16a15.81,15.81,0,0,0,3.55-.19,1.87,1.87,0,0,1,.3,0C81.24,15.94,80.93,16.49,80.11,16.58Z"/><path class="cls-10" d="M93.35,16.06c.54-.29,2.68-.82,2-1.65A1.41,1.41,0,0,0,94,13.77a.87.87,0,0,0-.4.22c-.36.36-.39.74-1.14.95L92.3,15C91.81,15.29,92.85,16.33,93.35,16.06Z"/><path class="cls-11" d="M93.23,15.6c.42-.23,2.12-.65,1.57-1.31a1.27,1.27,0,0,0-.85-.52.87.87,0,0,0-.4.22c-.36.36-.39.74-1.14.95L92.3,15C92.36,15.32,92.92,15.77,93.23,15.6Z"/><path class="cls-10" d="M82.25,11.54c.77-.1,3.43-.07,3.22-.85a1.06,1.06,0,0,0-1.08-.79,1.85,1.85,0,0,0-.58.09,4.44,4.44,0,0,1-1.84.49l-.17,0C81.08,10.63,81.53,11.65,82.25,11.54Z"/><path class="cls-11" d="M82.41,11.16c.61-.08,2.72-.05,2.55-.68a.77.77,0,0,0-.57-.58,1.85,1.85,0,0,0-.58.09,4.44,4.44,0,0,1-1.84.49l-.17,0C81.66,10.76,82,11.23,82.41,11.16Z"/><path class="cls-10" d="M84.12,6.65c.44.08,1.89.56,1.91.09a.6.6,0,0,0-.45-.62,1.33,1.33,0,0,0-.34,0A2.59,2.59,0,0,1,84.15,6l-.09,0C83.64,5.94,83.7,6.58,84.12,6.65Z"/><path class="cls-11" d="M84.27,6.47c.35.06,1.51.45,1.52.07a.46.46,0,0,0-.21-.42,1.33,1.33,0,0,0-.34,0A2.59,2.59,0,0,1,84.15,6l-.09,0C83.93,6.12,84,6.43,84.27,6.47Z"/><path class="cls-10" d="M75.81,25.28c1.57-.24,7-.17,6.54-1.86a2.23,2.23,0,0,0-2.27-1.67,3.36,3.36,0,0,0-1.18.19c-1.26.42-1.8,1-3.74,1.06a1.15,1.15,0,0,0-.33,0C73.36,23.32,74.34,25.51,75.81,25.28Z"/><path class="cls-11" d="M76.13,24.46c1.24-.18,5.55-.13,5.17-1.47a1.69,1.69,0,0,0-1.22-1.24,3.36,3.36,0,0,0-1.18.19c-1.26.42-1.8,1-3.74,1.06a1.15,1.15,0,0,0-.33,0C74.56,23.61,75.23,24.6,76.13,24.46Z"/><path class="cls-10" d="M75.21,8.29c-2.34.22-10.09,1.89-10.09,0,0-1.34,1.17-2.1,2.55-2.4a7.06,7.06,0,0,1,1.77-.15c2,.07,3,.55,5.77,0a2.25,2.25,0,0,1,.49-.06C77.92,5.54,77.41,8.09,75.21,8.29Z"/><path class="cls-11" d="M74.43,7.53c-1.85.18-8,1.5-8,0a1.79,1.79,0,0,1,1.23-1.64,7.06,7.06,0,0,1,1.77-.15c2,.07,3,.55,5.77,0a2.25,2.25,0,0,1,.49-.06C76.32,6.19,75.77,7.41,74.43,7.53Z"/></g></g></svg>