<svg xmlns="http://www.w3.org/2000/svg" viewBox="0 0 406.59 394"><defs><style>.cls-1{fill:#82af7d;}.cls-2{fill:#efc867;}.cls-3{fill:#f9ece1;}.cls-4{fill:#b26928;}</style></defs><title>monument-india</title><g id="Calque_2" data-name="Calque 2"><g id="MONUMENT"><path class="cls-1" d="M406.59,335.8v-3.95H362.22v0H334.86V332H312.34v-.17H267.83V332H247.1v-.17H157.5V332H136.76v-.17H92.25V332H69.74v-.17H41.55V332H0V336H8c.16,1.2.52,4,1,7.42H2.11v1.16h7c.4,3.26.85,7,1.25,10.61H4.75v1.11H10.5c.37,3.49.67,6.76.81,9.17H7.63v1.16h3.74c.07,1.76,0,2.86-.23,2.93h-4v.55c-.11.09-1.65,1.6,5,2.62a87.73,87.73,0,0,0,12.51.71c2.23-.08,3.92-.21,5.14-.34,6.11-.65,7.68-1.88,8.09-2.55H38v-.95H33.6l.13-3h2.58v-1.16H33.78l.42-9.17h5.68v-1.11H34.26l.3-6.55H80.13v3.51H95.44V357H88.55v1.39s-4.48,5.4,27.29,5.4c0,0,27.81.25,27.3-5.4V357h-8v-5h13.24v7h9.1v4.73h-9.86v1.49s-55.52,9.39,27.9,16.38c7.24.29,16.88.54,28.24.5-11.43.05-21.09-.21-28.24-.5.35.09,7.59,2,21,2.36a15.93,15.93,0,0,0,1.69,3.65c.81,1.3,1.79,5.15,2.89,6.34a27.87,27.87,0,0,0,3.15-2.65c1.7-1.7,2.72-5.77,3.26-7.36,13-.45,19.79-2.25,20.32-2.4h-.08c23.08-1.28,39.68-4.55,42.36-8.36,3.11-4.43-14-7.57-16.59-8v-1.43h-5v-4.73h9.1v-7h13.24v5h-7.71v1.39h-.27s-4.48,5.4,27.3,5.4c0,0,27.8.25,27.29-5.4H317V357h-6.43V352.1h15.31v-3.51h45.36c.25,2.11.5,4.28.73,6.4h-5v1.11h5.11c.37,3.5.68,6.77.81,9.17h-3v1.15H373c.06,1.69,0,2.73-.24,2.8h-4v1h.11c-.1.09-1.65,1.6,5,2.62a86.26,86.26,0,0,0,12.52.71c2.23-.08,3.92-.21,5.13-.34,8.13-.86,8.24-2.76,8.23-3h-.11v-.95h-4.36l0-.88.08,0v-1.64h0l0-.3h3.23v-1.15h-3.18l.42-9.17h6.33V355h-6.28l.49-10.62h8.16v-1.15h-8.11l.34-7.42Z"/><g id="MONUMENT-2" data-name="MONUMENT"><path class="cls-2" d="M8.2,129.93c-.1-.51-1.5-8.63,4.5-14.14A15.52,15.52,0,0,1,24.05,112a13.63,13.63,0,0,1,4.66,1.84c7.37,4.63,7.47,14.87,7.46,16.13Z"/><path class="cls-2" d="M99.35,192.11S95.29,163,124.11,163c0,0,25.21-1.35,24.75,29.16Z"/><path class="cls-2" d="M257.45,192.11S253.38,163,282.2,163c0,0,25.22-1.35,24.75,29.16Z"/><path class="cls-2" d="M152.92,154.92s-50.35-50.63,25.3-88.32a100.78,100.78,0,0,1,46.18-.11C245.94,73.11,261.51,91,264,112c2.82,23.89-12.71,40.81-15,43.27Z"/><path class="cls-2" d="M197.23,54.14q.5-9.55,1.55-20c.73-7,1.62-27.78,2.62-34.18,1,4.53,2,9.29,2.85,14.29,1.59,9.37,2.52,32.19,3,40.31Z"/><path class="cls-2" d="M370.52,128.29c-.1-.5-1.5-8.62,4.51-14.13a15.45,15.45,0,0,1,11.35-3.83,13.87,13.87,0,0,1,4.65,1.83c7.37,4.63,7.47,14.88,7.47,16.13Z"/><path class="cls-3" d="M9,317.28S13.1,135,11.85,132.89H8.2v-5.33h28v5.08h-4l1.42,184.64Z"/><path class="cls-3" d="M371.17,318s4.15-182.32,2.9-184.39h-3.66v-5.34h28v5.09h-3.95L395.86,318Z"/><polygon class="cls-3" points="47.65 334.15 47.65 244.86 91.72 244.86 91.72 225.97 105.6 225.97 105.6 197.46 141.6 197.46 141.6 226.35 153.61 226.35 153.61 188.46 161.86 188.46 161.86 155.23 203.88 155.23 203.88 334.15 47.65 334.15"/><polygon class="cls-3" points="358.64 334.15 358.64 244.86 314.56 244.86 314.56 225.97 300.69 225.97 300.69 197.46 264.69 197.46 264.69 226.35 252.68 226.35 252.68 188.46 244.42 188.46 244.42 155.23 202.41 155.23 202.41 334.15 358.64 334.15"/><path class="cls-3" d="M178.22,66.6c.37-.59,8.85-13.61,24.46-13.15,14.76.44,22.43,12.56,23,13.44a98.89,98.89,0,0,0-47.42-.29Z"/><rect class="cls-4" x="1.75" y="313.85" width="40.24" height="21.32"/><rect class="cls-4" x="3.67" y="267.62" width="36.4" height="6.23"/><rect class="cls-4" x="6.06" y="204.4" width="31.85" height="5.99"/><rect class="cls-4" x="8.67" y="148.7" width="26.01" height="6.22"/><rect class="cls-4" x="364.56" y="313.85" width="40.24" height="21.32"/><rect class="cls-4" x="366.47" y="267.62" width="36.4" height="6.23"/><rect class="cls-4" x="368.87" y="204.4" width="31.85" height="5.99"/><rect class="cls-4" x="371.47" y="148.7" width="26.01" height="6.22"/><rect class="cls-4" x="99.35" y="192.11" width="49.5" height="7.46"/><polyline class="cls-4" points="248.94 162.95 152.93 162.95 152.93 154.92 248.94 155.23"/><rect class="cls-4" x="257.69" y="192.11" width="48.82" height="7.46"/><path class="cls-2" d="M12.14,147v-8.83a1.85,1.85,0,0,1,3.49,0V147Z"/><path class="cls-2" d="M28,147v-8.83a1.86,1.86,0,0,1,3.5,0V147Z"/><path class="cls-2" d="M18.66,147v-8.56s3.25-3.62,6.27,0V147Z"/><path class="cls-2" d="M375.23,147.12v-8.84a1.86,1.86,0,0,1,3.49,0v8.84Z"/><path class="cls-2" d="M391.05,147.12v-8.84a1.86,1.86,0,0,1,3.49,0v8.84Z"/><path class="cls-2" d="M381.75,147.12v-8.56s3.24-3.63,6.27,0v8.56Z"/><polyline class="cls-2" points="56.73 255.8 82.29 255.8 82.29 335.04 56.73 335.04"/><polyline class="cls-2" points="143.07 335.04 102.71 335.04 102.71 237.46 143.07 237.46"/><rect class="cls-2" x="161.88" y="205.97" width="42.21" height="129.07"/><polyline class="cls-2" points="348.28 255.8 322.72 255.8 322.72 335.04 348.28 335.04"/><polyline class="cls-2" points="261.93 335.04 302.3 335.04 302.3 237.46 261.93 237.46"/><rect class="cls-2" x="200.92" y="205.97" width="42.21" height="129.07"/><path class="cls-4" d="M59.84,271.78s9.38-18.41,19.94,0v20.14H59.84"/><path class="cls-4" d="M109.83,326.47V299.12s13.81-20,24.91,0v27.35Z"/><path class="cls-4" d="M109.83,281.72V254.38s13.81-20,24.91,0v27.34Z"/><path class="cls-4" d="M345.08,271.1s-9.39-18.41-19.95,0v20.14h19.95"/><path class="cls-4" d="M295.08,325.79V298.45s-13.81-20-24.91,0v27.34Z"/><path class="cls-4" d="M295.08,281V253.7s-13.81-20-24.91,0V281Z"/><path class="cls-4" d="M177.58,334.27V265.69s6.1-24.51,28.95-20.89c0,0,17.78-.56,23.88,18.8v70.67Z"/></g></g></g></svg>