<svg xmlns="http://www.w3.org/2000/svg" viewBox="0 0 136.13 211.57"><defs><style>.cls-1{fill:#5d5e5d;}.cls-2{fill:#aaa;}.cls-3{fill:#969696;}.cls-4{fill:#878787;}.cls-5{fill:#707070;}.cls-6{fill:#7b7b7b;}</style></defs><title>souvenir-india</title><g id="Calque_2" data-name="Calque 2"><g id="SOUVENIR"><path class="cls-1" d="M15.8,163.56S2.86,168.85,2.13,175.88s-17.5,35.69,56.62,35.69c6.36,0,8.35-15,8.35-15l-4.16-43.36L32.53,151Z"/><path class="cls-2" d="M40.73,171.55s-9.26-4.12-11.78-3.91-6.14,0-6.19-1.38.51-4.54,2.47-4.49,3.17,3.12,4.27,2.69,3.29-2.59,5.75-1.74,11.17,6.5,11.17,6.5Z"/><path class="cls-3" d="M68.42,70.61V75.8c0,.46,0,1,0,1.46v2.2l-.21,62.11L40,136.38s11.9-56.7,14.93-60a.56.56,0,0,1,.2-.14c1.29-.31,3.15-2.1,4.72-3.87s3-3.73,3-3.73Z"/><path class="cls-4" d="M68.4,77.26c0,.8,0,1.6,0,2.2h0c-3-.09-10.29-2.12-13.47-3a.56.56,0,0,1,.2-.14c1.29-.31,3.15-2.1,4.72-3.87,1.52,1.1,8.26,1.63,8.57,1.65h0s0,.76,0,1.75C68.41,76.26,68.4,76.76,68.4,77.26Z"/><path class="cls-3" d="M48,142.92s-30.88,53.25,20.14,53.63V147.29Z"/><path class="cls-4" d="M49.27,136.38s16.58,3.15,18.91,2.82V149s-20.67-2.67-21.61-4.71S49.27,136.38,49.27,136.38Z"/><path class="cls-2" d="M49.49,133.23s18.24-.79,18.29-3.36.4-37.17.4-37.17-1-.51-1.6.83-3.28,15.29-3.69,17c-.34,1.45.86,10.62-6.38,14.5-1.48.3-3.33.7-5.41,1C38.27,127.93,49.49,133.23,49.49,133.23Z"/><path class="cls-4" d="M59,73.31l-2.5,51.74-3.74.76C52.68,141.6,40.34,156,38.75,158s-23.64,5.64-23.64,5.64,3.72-3.13,7-6.43c3-3.07,5.62-6.29,4.44-7.27-2.44-2,2.28-4.63-.29-8s.13-23.18,1.74-34.13,4.23-25.67,15.37-27.69a42.35,42.35,0,0,0,7.08-1.9C56.43,76,59,73.31,59,73.31Z"/><path class="cls-5" d="M59,73.31l-2.5,51.74-3.74.76C52.68,141.6,40.34,156,38.75,158s-23.64,5.64-23.64,5.64,3.72-3.13,7-6.43c1.33.05,2.79.07,4.37,0,9.87-.26,12.38-9.64,17.94-17.5s1.17-17,1.17-17h5.52c-1.36-6-.89-34.25-.66-44.52C56.43,76,59,73.31,59,73.31Z"/><path class="cls-1" d="M120.33,163.56s12.94,5.29,13.68,12.32,17.5,35.69-56.63,35.69c-6.36,0-8.35-15-8.35-15l4.16-43.36L103.6,151Z"/><path class="cls-2" d="M95.4,171.55s9.26-4.12,11.78-3.91,6.14,0,6.19-1.38-.5-4.54-2.47-4.49-3.17,3.12-4.26,2.69-3.3-2.59-5.76-1.74-11.17,6.5-11.17,6.5Z"/><path class="cls-3" d="M67.71,70.61v8.85L68,141.57l28.19-5.19s-11.9-56.7-14.93-60a.56.56,0,0,0-.2-.14c-1.28-.31-3.14-2.1-4.72-3.87s-3.05-3.73-3.05-3.73Z"/><path class="cls-4" d="M67.73,77.26c0,.8,0,1.6,0,2.2h0c3-.09,10.29-2.12,13.47-3a.56.56,0,0,0-.2-.14c-1.28-.31-3.14-2.1-4.72-3.87C74.77,73.5,68,74,67.72,74.05h0s0,.76,0,1.75Z"/><path class="cls-3" d="M88.09,142.92S119,196.17,68,196.55V147.29Z"/><path class="cls-4" d="M86.86,136.38S70.29,139.53,68,139.2V149s20.67-2.67,21.61-4.71S86.86,136.38,86.86,136.38Z"/><path class="cls-2" d="M86.64,133.23s-18.23-.79-18.28-3.36S68,92.7,68,92.7s1-.51,1.6.83,3.29,15.29,3.69,17c.34,1.45-.85,10.62,6.38,14.5,1.48.3,3.33.7,5.41,1C97.86,127.93,86.64,133.23,86.64,133.23Z"/><path class="cls-4" d="M77.12,73.31l2.5,51.74,3.74.76c.09,15.79,12.43,30.17,14,32.17S121,163.62,121,163.62s-3.72-3.13-7-6.43c-3-3.07-5.62-6.29-4.44-7.27,2.45-2-2.27-4.63.29-8s-.12-23.18-1.74-34.13-4.23-25.67-15.36-27.69a41.82,41.82,0,0,1-7.08-1.9C79.7,76,77.12,73.31,77.12,73.31Z"/><path class="cls-5" d="M77.12,73.31l2.5,51.74,3.74.76c.09,15.79,12.43,30.17,14,32.17S121,163.62,121,163.62s-3.72-3.13-7-6.43c-1.33.05-2.79.07-4.37,0-9.87-.26-12.37-9.64-17.94-17.5s-1.16-17-1.16-17H85.06c1.36-6,.89-34.25.67-44.52C79.7,76,77.12,73.31,77.12,73.31Z"/><path class="cls-2" d="M85.73,48.14C85.73,61.33,78.06,72,68.6,72S51.48,61.33,51.48,48.14c-2.35-8-2.83-20.8,1.73-25.09,2.73-2.57,6.06-7.74,14.9-7.75C86.54,15.29,89.4,33.5,85.73,48.14Z"/><path class="cls-3" d="M59.84,48.25a8.75,8.75,0,0,1-4.25-1,4.83,4.83,0,0,0,8.5,0A8.69,8.69,0,0,1,59.84,48.25Z"/><path class="cls-3" d="M75.84,48.25a8.72,8.72,0,0,1-4.25-1,4.83,4.83,0,0,0,8.5,0A8.72,8.72,0,0,1,75.84,48.25Z"/><path class="cls-3" d="M63.43,58.26s2.17-.23,2.31-.72,2.73.72,2.73.72a14.26,14.26,0,0,1,2.67-1.57c.44,0,.7.72,2.17.79-.21.55-1.58.75-2.32.78s-1.67,1.56-2.31,1.52S67,58.33,66.3,58.52,63.69,58.85,63.43,58.26Z"/><path class="cls-3" d="M65.43,59.48a3.29,3.29,0,0,0,3.17,2.08c2.36-.13,3.71-1.49,3.71-2.08a22.18,22.18,0,0,1-3.71.57A11,11,0,0,1,65.43,59.48Z"/><path class="cls-3" d="M64.64,53.79S64,55.2,65.79,55c.95.35,1.34.85,2.58.77a3.85,3.85,0,0,0,2.33-1.28c.26.29,1.67.48,1.61-.7.25.85.6,1.57,0,1.8A1.31,1.31,0,0,1,70.64,55a2.49,2.49,0,0,1-2,1.46A4.33,4.33,0,0,1,66,55.58C65.05,55.59,63.22,55.54,64.64,53.79Z"/><circle class="cls-3" cx="68.11" cy="42.69" r="1.28"/><ellipse class="cls-2" cx="87.75" cy="47.55" rx="3.06" ry="9.24"/><path class="cls-3" d="M89.4,58.78h0c0,4-1.83,7.23-4.09,7.23s-4.09-3.24-4.09-7.24a11.14,11.14,0,0,1,.8-4.3,4.56,4.56,0,0,1,2.64-2.85l.31-.07.34,0C87.57,51.54,89.4,54.78,89.4,58.78Z"/><ellipse class="cls-2" cx="50.34" cy="49.02" rx="3.06" ry="9.24"/><ellipse class="cls-3" cx="54.1" cy="60.44" rx="4.21" ry="7.47"/><circle class="cls-6" cx="49.98" cy="38.45" r="2.35"/><circle class="cls-6" cx="54.59" cy="37.96" r="2.35"/><circle class="cls-6" cx="59.01" cy="37.77" r="2.35"/><circle class="cls-6" cx="63.41" cy="37.46" r="2.35"/><circle class="cls-6" cx="67.88" cy="37.63" r="2.35"/><circle class="cls-6" cx="72.39" cy="37.32" r="2.35"/><circle class="cls-6" cx="77.09" cy="37.32" r="2.35"/><circle class="cls-6" cx="86.54" cy="37.49" r="2.35"/><circle class="cls-6" cx="81.78" cy="37.46" r="2.35"/><circle class="cls-6" cx="49.6" cy="30.06" r="2.35"/><circle class="cls-6" cx="54.2" cy="29.57" r="2.35"/><circle class="cls-6" cx="58.62" cy="29.38" r="2.35"/><circle class="cls-6" cx="63.03" cy="29.07" r="2.35"/><circle class="cls-6" cx="67.5" cy="29.24" r="2.35"/><circle class="cls-6" cx="72.01" cy="28.93" r="2.35"/><circle class="cls-6" cx="76.71" cy="28.93" r="2.35"/><circle class="cls-6" cx="86.16" cy="29.1" r="2.35"/><circle class="cls-6" cx="81.4" cy="29.07" r="2.35"/><circle class="cls-6" cx="51.94" cy="26.18" r="2.35"/><circle class="cls-6" cx="56.55" cy="25.69" r="2.35"/><circle class="cls-6" cx="65.37" cy="25.19" r="2.35"/><circle class="cls-6" cx="60.99" cy="25.69" r="2.35"/><circle class="cls-6" cx="69.84" cy="25.36" r="2.35"/><circle class="cls-6" cx="74.35" cy="25.05" r="2.35"/><circle class="cls-6" cx="79.05" cy="25.05" r="2.35"/><circle class="cls-6" cx="83.74" cy="25.19" r="2.35"/><circle class="cls-6" cx="54.14" cy="22.56" r="2.35"/><circle class="cls-6" cx="58.75" cy="22.07" r="2.35"/><circle class="cls-6" cx="63.17" cy="21.88" r="2.35"/><circle class="cls-6" cx="67.58" cy="21.57" r="2.35"/><circle class="cls-6" cx="72.04" cy="21.74" r="2.35"/><circle class="cls-6" cx="76.56" cy="21.43" r="2.35"/><circle class="cls-6" cx="81.26" cy="21.43" r="2.35"/><circle class="cls-6" cx="56.27" cy="18.78" r="2.35"/><circle class="cls-6" cx="60.88" cy="18.29" r="2.35"/><circle class="cls-6" cx="65.3" cy="18.1" r="2.35"/><circle class="cls-6" cx="69.7" cy="17.79" r="2.35"/><circle class="cls-6" cx="74.17" cy="17.96" r="2.35"/><circle class="cls-6" cx="78.68" cy="17.65" r="2.35"/><circle class="cls-6" cx="63.17" cy="14.21" r="2.35"/><circle class="cls-6" cx="67.7" cy="14.21" r="2.35"/><circle class="cls-6" cx="72.39" cy="14.21" r="2.35"/><circle class="cls-6" cx="63.33" cy="6.32" r="2.35"/><circle class="cls-6" cx="67.86" cy="6.32" r="2.35"/><circle class="cls-6" cx="72.55" cy="6.32" r="2.35"/><circle class="cls-6" cx="65.68" cy="2.35" r="2.35"/><circle class="cls-6" cx="70.29" cy="2.62" r="2.35"/><circle class="cls-6" cx="60.83" cy="10.22" r="2.35"/><circle class="cls-6" cx="65.36" cy="10.22" r="2.35"/><circle class="cls-6" cx="70.05" cy="10.22" r="2.35"/><circle class="cls-6" cx="74.41" cy="10.02" r="2.35"/><circle class="cls-6" cx="51.76" cy="34.26" r="2.35"/><circle class="cls-6" cx="56.37" cy="33.76" r="2.35"/><circle class="cls-6" cx="60.79" cy="33.58" r="2.35"/><circle class="cls-6" cx="65.2" cy="33.27" r="2.35"/><circle class="cls-6" cx="69.66" cy="33.43" r="2.35"/><circle class="cls-6" cx="74.17" cy="33.12" r="2.35"/><circle class="cls-6" cx="78.87" cy="33.12" r="2.35"/><circle class="cls-6" cx="88.33" cy="33.29" r="2.35"/><circle class="cls-6" cx="47.63" cy="34.69" r="2.35"/><circle class="cls-6" cx="83.56" cy="33.27" r="2.35"/><path class="cls-2" d="M89.4,59.79c0,4.55-2.09,8.23-4.65,8.23s-4.66-3.69-4.66-8.24A12.88,12.88,0,0,1,81,54.89l3-3.25,1.06-1.14c0,.08-.33.46-.71,1.07-1.34,2.13-3.94,7-2.57,11,1.27,3.69,4.76,5.45,6.71-.06C88.85,61.5,89.15,60.6,89.4,59.79Z"/><path class="cls-2" d="M49.89,61.24c0,4.54,2.09,8.23,4.65,8.23s4.66-3.69,4.66-8.25a12.88,12.88,0,0,0-.91-4.89l-3-3.25-1.06-1.14c.06.08.34.46.71,1.07,1.34,2.14,3.94,7,2.58,11-1.27,3.69-4.77,5.46-6.71-.06C50.44,62.94,50.14,62,49.89,61.24Z"/><path class="cls-3" d="M50.42,49.84s.5,1.08,0,1.12-1.69-2.62-.46-3.32c2-1.11,3.79,2.67.72,7.2.78-2.43,1.26-6.62.38-6.35S50.42,49.84,50.42,49.84Z"/><path class="cls-3" d="M87.89,47.71s-.51,1.09,0,1.12,1.69-2.61.45-3.31c-2-1.11-3.79,2.66-.71,7.2-.79-2.44-1.27-6.63-.39-6.36S87.89,47.71,87.89,47.71Z"/></g></g></svg>