<svg xmlns="http://www.w3.org/2000/svg" viewBox="0 0 70.8 155.6"><defs><style>.cls-1{fill:#75a079;}.cls-2{fill:#648c69;}.cls-3{fill:#4c564c;}.cls-4{fill:#839496;}</style></defs><title>activity-scotland</title><g id="Calque_2" data-name="Calque 2"><g id="ACTIVITY"><ellipse class="cls-1" cx="65.45" cy="133.78" rx="5.35" ry="1.59"/><path class="cls-1" d="M67.73,127.84v0c.32-.72-.51-1.84-1.87-2.51s-2.72-.63-3,.08v0h0L39.33,143.78a89.41,89.41,0,0,0-13.51-1c-14.06,0-25.45,2.86-25.45,6.39s11.39,6.4,25.45,6.4,25.44-2.87,25.44-6.4a2,2,0,0,0,0-.34l16.52-21Z"/><path class="cls-2" d="M61.12,125.63h6.43L66.3,6.09h0V6C66.25,2.77,64.79.16,63,.18s-3.17,2.66-3.13,5.9v.08h0Z"/><path class="cls-3" d="M65.65,6.5h0a.19.19,0,0,0,0-.07c.64-3.18-.24-6-2-6.39S60,2,59.38,5.16a.22.22,0,0,1,0,.08h0l-27,134.42h0c-.45,3,.43,5.55,2.06,5.87s3.44-1.71,4.17-4.62h0Z"/><path class="cls-4" d="M36.13,151.87v-.07h0c.84.16,2.28-3.71,3.21-8.64s1-9,.15-9.21h0l0-.07L3.82,127.18v.09c-.86.25-2.19,4-3.07,8.62s-1,8.61-.28,9.15l0,.12Z"/><path class="cls-3" d="M36.62,134.68,6.19,129,3.31,144.3,33.73,150Zm-4.84,13.13-3.67-.68,2.22-11.8L34,136Zm-9-13.89,4.89.92-2.22,11.79-4.89-.92ZM18,145.22l-5.07-.95,2.22-11.8,5.06.95ZM8.15,131.16l4.37.82-2.22,11.8L5.93,143Z"/><polygon class="cls-3" points="61.65 126.7 69.38 126.71 65.5 134.44 61.65 126.7"/><circle class="cls-4" cx="65.42" cy="124.85" r="4.22"/></g></g></svg>