<svg xmlns="http://www.w3.org/2000/svg" viewBox="0 0 133.29 221.83"><defs><style>.cls-1{fill:#84b287;}.cls-2{fill:#9f5320;}.cls-3{fill:#62391d;}.cls-4{fill:#b25d24;}.cls-5{fill:#754423;}.cls-6{fill:#c66626;}.cls-7{fill:#93572e;}.cls-8{fill:#d8cec7;}</style></defs><title>animal-scotland</title><g id="Calque_2" data-name="Calque 2"><g id="ANIMAL"><path class="cls-1" d="M113.9,206.81s5.77.13,19.39,0c-3.38.83-12.37,1.47-19.91,2.86,13.91,1.53,33.94,5.47-3.85,12.2,0,0,16.13-7.87-8.68-8-9,2.66-32.29,2.62-34.39,2.61h0s-23.73,0-33.43-2.61c-24.57.12-8.5,8-8.5,8C-13.91,215,7.46,211,21.38,209.56,13.78,207.93,4,207.2.53,206.3c13.6.26,19.37.18,19.37.18a43.76,43.76,0,0,1-18.69-6.32c6.46,1,18.35,3.42,22.09,3.33-6.8-2.8-2-5.88-2-5.88,6.09,3.24,10.16,4.9,12.21,5.09l0,0a4.12,4.12,0,0,1,1.16-2.18c-8.54-5.76-6.51-13.15-6.51-13.15v-5.91H28v-5.52s3.52-.27,9.61-.41v-1.39a199.05,199.05,0,0,1,26.14,0c0,.19,0,.4,0,.61v2.93c0,.6,0,1,0,1h0v10.93c.73,0,1.48,0,2.24,0,1.26,0,2.5,0,3.7.09v-11h0v-4.54a199.05,199.05,0,0,1,26.14,0c0,.42-.06.91-.07,1.41,3.19.08,6.61.2,10.23.4a40.62,40.62,0,0,0,0,5.51h-.13v3.74s3.6,8.95-6.11,15.43a3.77,3.77,0,0,1,1,2.33c2.06-.16,6.31-1.8,12.77-5,0,0,4.43,3.1-2.66,5.86,3.72.12,15.87-2.25,22.43-3.17A48,48,0,0,1,113.9,206.81Z"/><path class="cls-2" d="M65.48,56.87c-43.21,1.38-37.85,76.8-37.85,76.8v43.86H62.48V105.11a29.52,29.52,0,0,0,3,.16,30,30,0,0,0,5-.42v72.4h34.85V141.94S114.29,55.3,65.48,56.87Z"/><path class="cls-3" d="M62.54,177.92c-20.74,4.34-35,0-35,0V156.57h35S62.31,170,62.54,177.92Z"/><path class="cls-3" d="M105.42,177.79c-20.74,4.33-35,0-35,0V156.44h35S105.19,169.85,105.42,177.79Z"/><path class="cls-4" d="M69.16,85.52v.14a19.86,19.86,0,0,0-7.87.09H37.21v98.82h26V125a19.59,19.59,0,0,0,5.94-.22v59.56h26V85.52Z"/><path class="cls-5" d="M63.26,184.89c-15.47,3.57-26.14,0-26.14,0V167.33H63.26S63.09,178.36,63.26,184.89Z"/><path class="cls-5" d="M95.26,184.78c-15.47,3.57-26.14,0-26.14,0V167.22H95.26S95.08,178.25,95.26,184.78Z"/><path class="cls-6" d="M100.69,62.67c0,24.73-12,49.49-34.91,49.49-19.58,0-33.84-24.76-33.84-49.49s14.59-32,33.57-32S100.69,37.94,100.69,62.67Z"/><path class="cls-7" d="M132.73,82.13S125.06,63,113.37,58.19c0,0,5.77-.5,19.38.15-5.23-5-24-8.18-29.87-23.32C97.26,20.5,68.28,20.7,65.93,20.74h0S34.66,20.74,29.22,36,5.1,55.06,0,60.16c13.59-1,19.37-.68,19.37-.68C7.82,64.58.68,84,.68,84,7.14,80.21,19,70.69,22.77,71c-6.8,10.88-2,22.77-2,22.77,6.12-12.57,10.19-19,12.23-19.71a38.74,38.74,0,0,0,4.42,17.33c5.78-14.27,10.54-18.35,10.54-18.35,0,9.18,3.39,19.71,3.39,19.71,1.36-9.17,7.48-20.73,7.48-20.73.61,4.59,6.73,18,7.94,20.61v.47l.1-.24.11.23v-.46c1.14-2.66,6.89-16.22,7.37-20.82,0,0,6.43,11.38,8,20.52,0,0,3.1-10.63,2.85-19.8,0,0,4.87,4,11,18.06a38.82,38.82,0,0,0,3.94-17.45c2,.62,6.31,7,12.77,19.37,0,0,4.43-12-2.67-22.71C114,69.39,126.17,78.57,132.73,82.13Z"/><path class="cls-7" d="M81,110.2c0-4.87-3-8.83-6.8-8.83a5.92,5.92,0,0,0-4.33,2H63.71a5.91,5.91,0,0,0-4.35-2c-3.76,0-6.81,4-6.81,8.84A10,10,0,0,0,55.07,117l22.9.53A9.73,9.73,0,0,0,81,110.2Z"/><circle class="cls-5" cx="59.47" cy="109.99" r="3.4"/><circle class="cls-5" cx="74.47" cy="109.68" r="3.4"/><path class="cls-8" d="M24,0S6.42,33.22,36.12,30.73c12.4-1,1.94,22-9.56,18.81S-20.44,30.65,24,0Z"/><path class="cls-8" d="M109,0s17.58,33.22-12.13,30.73c-12.4-1-1.94,22,9.57,18.81S153.42,30.65,109,0Z"/></g></g></svg>