<svg xmlns="http://www.w3.org/2000/svg" viewBox="0 0 1008.44 334.23"><defs><style>.cls-1{fill:#99ce9e;}.cls-2{fill:#b3e2ce;}.cls-3{fill:#56725a;}.cls-4{fill:#9dc4b2;}.cls-5{fill:#84b287;}.cls-6{fill:#6f9e77;}.cls-7{fill:#5e8463;}</style></defs><title>background-scotland</title><g id="Calque_2" data-name="Calque 2"><g id="BACKGROUND"><rect class="cls-1" x="1.48" y="217.35" width="1006.95" height="116.88"/><path class="cls-2" d="M1005.74,131.85V238s-3.83,9.37-55.48,15.29a171.59,171.59,0,0,1-18.57,1.05c-34.92.24-73-7.78-110-4C724.63,260.22,662.77,238,662.77,238H1.32V131.85Z"/><path class="cls-3" d="M138,164.23s58-28.22,94.21-32,50.72-47,112.32-47S598.16,105.9,616.27,121s105.08,28.22,105.08,35.74S185.11,173.64,138,164.23Z"/><path class="cls-4" d="M138,151.72s58,18.07,94.21,20.48,50.72,30.13,112.32,30.13,253.63-13.26,271.74-22.9,105.08-18.07,105.08-22.89S185.11,145.69,138,151.72Z"/><path class="cls-5" d="M1.38,318.08s192.12-4.9,251.31-25.92c81.11-28.81,248.93-4.39,300.76-29.72,36.78-18,90.47-12.51,103.12-22.61C102.13,226.77,2.48,224.26,2.48,224.26Z"/><path class="cls-6" d="M2,103.07S194,112,252.46,148.74c80.16,50.4,248.8,8.08,299.81,52.36,36.18,31.41,90.06,22,102.37,39.61C99.74,262.56,0,266.76,0,266.76Z"/><path class="cls-7" d="M1007.49,203.37l-303.73.23s11-34.25,51.18-39,79-89.52,117-93.31S997.64,0,1006.77,0C1007.49,16.14,1007.49,203.37,1007.49,203.37Z"/><path class="cls-4" d="M1007.48,201.64v35.7s-3.85,9.74-55.79,15.9A166.46,166.46,0,0,1,933,254.33c-22.55-4.39-45.16-8.13-60.12-8.63-38.2-1.27-77.21-29.56-117.66-31.14s-51.47-13-51.47-13Z"/></g></g></svg>