<svg xmlns="http://www.w3.org/2000/svg" viewBox="0 0 56.3 278.19"><defs><style>.cls-1{fill:#84b287;}.cls-2{fill:#ffded7;}.cls-3{fill:#e5b9b0;}.cls-4{fill:#cc5a0d;}.cls-5{fill:#fff9f5;}.cls-6{fill:#0a5e34;}.cls-7{fill:#f7f77c;}.cls-8{fill:#094224;}.cls-9{fill:#d16f2c;}.cls-10{fill:#0e6839;}.cls-11{fill:#fffed2;}.cls-12{fill:#17874a;}</style></defs><title>child-scotland</title><g id="Calque_2" data-name="Calque 2"><g id="CHILD"><path class="cls-1" d="M37.22,277.52c-13,1.24-25.69.71-28.41-1.17-.61-.43-.65-.89-.19-1.36-.7,0-1.16-.11-1.16-.19a3.94,3.94,0,0,1,1.64-.21l.42-.25a3.35,3.35,0,0,1-.47-.18,4,4,0,0,1-1.41-.57.45.45,0,0,1,0-.74l.17,0c-2.66-1.44-2.62-3.1.15-3.84a1.68,1.68,0,0,0,.27.93,4.62,4.62,0,0,1,.9-2.59,4.53,4.53,0,0,1,1.42-.52h0c1.67-1.13,5.49-2.07,10.36-2.67h0c.61,0,1.46-.07,2.31-.11,0-.47-.07-1.54-.09-2.1-.33.13-.57.21-.61.22a11.7,11.7,0,0,1-2.22-.58,5,5,0,0,1,.6-.13c-1.75,0-4.24-.1-6.24-.19v0s-10.52-.16-10.72-3.14c-.18-2.66-1.79-10.32-2.14-11.95a6.09,6.09,0,0,1-.75,0c-.42-.13-.58-.78,0-.88.21,0,1.34,0,2.7,0-.32-.35-1-.9-1.08-1.63-.1-1,4.93-1.93,5.75-1.94h.31l-.19-1.22,0-.09-.3-1.94v-.09l-.26-1.66,0-.08-.24-1.56V235l0-.23H15.2v-7.12H14.14v-5.74c-.67-.21-1.07-.46-1.07-.73,0-.75,2.48-.66,6.1-.66s7-.09,7,.66c0,.29-.45.55-1.2.77v12.83H27.6V221.87c-.59-.2-.94-.44-.94-.69,0-.75,2.48-.66,6.09-.66s7-.09,7,.66c0,.3-.5.58-1.32.81v5.66H37.37v7.13h7l0,.22v.08l-.25,1.56v.08l-.26,1.66v.09l-.31,1.94v.09l-.19,1.21h.21c.81,0,5.84,1,5.75,1.94-.07.73-.76,1.28-1.09,1.63,1.36,0,2.49,0,2.7,0,.59.1.42.75,0,.88a6.47,6.47,0,0,1-.78,0c-.35,1.64-2,9.3-2.14,11.95s-9,3.09-10.5,3.13c-1.89.09-4.22.14-5.91.18l.61.13a11.91,11.91,0,0,1-2.22.58l-.68-.24v1.6h0l0,.35a.16.16,0,0,1-.05.11h0l2.82.16h0c5.17.63,9.17,1.66,10.64,2.88h0a5.49,5.49,0,0,1,1.42.49,2.25,2.25,0,0,1,.53,1.34,3.83,3.83,0,0,1,2.53.87h0a4.44,4.44,0,0,1,1.49.55c3.51.3,6.08.83,7.14,1.56C58.5,273.76,50.19,276.29,37.22,277.52Zm5.2-27.45.07-1.27h-.16Zm-33,0,.09-1.24H9.37Zm33.2-4.3v.09l-.19,1.2h.14l.08-1.31h0v-.28Zm-33,22.15,0-.06Zm.16-.35,0,0Zm.3-.34h0ZM7.29,242.58a.86.86,0,0,1,.56.2s-.45.35.18,1.05a2.35,2.35,0,0,1,.51,1.48h.67v.4L9.28,247h.28l-.19-1.2,0-.09-.22-1.39v-.09l-.27-1.74v-.08l-.07-.4C8.19,242.16,7,242.59,7.29,242.58Zm36.58,1.25c.62-.7.18-1.05.18-1.05a.85.85,0,0,1,.55-.2c.25,0-.77-.37-1.38-.52l-.06.38v.08l-.27,1.74,0,.09-.15,1h.64A2.42,2.42,0,0,1,43.87,243.83Zm-.59,24.1a.76.76,0,0,1,0,.3A.76.76,0,0,0,43.28,267.93Zm-.31-.57Zm.2.28s0,0,0,.06S43.18,267.66,43.17,267.64Z"/><path class="cls-2" d="M28.56,64.52c0,1.81,3.21,4.18,2.07,4.16l-5.09,9.21-3.73-9.21c-1.15,0,.62-2.45.63-4.25,0,0,.07-10.11.13-10.39.19-1,.71-.07,1.35-.4a1.39,1.39,0,0,1,.66-.15h.51l1.48,0c.84,0,2,1.6,2,1.6Z"/><path class="cls-3" d="M28.61,55.59l0,1.35c-2,.35-4.37.2-6-2a4.87,4.87,0,0,1-.66-1.18s.82-.09,2-.19l1.16-.1h0l1.48,0A2.06,2.06,0,0,1,28.61,55.59Z"/><path class="cls-4" d="M42.64,22.44C41,12.74,32.44,14,25.8,14.12S11.35,18.88,9,20.9s-1.24,19-.51,21.16a5,5,0,0,0,1.42,2A13.41,13.41,0,0,1,9,38.79c.36-10.27,4.52-21,14.71-21.81a46.57,46.57,0,0,1,5.83.21c9,1.72,12.78,11.88,13.12,21.6a13.28,13.28,0,0,1-.62,4.5c.53-.66,1.27-1.24,1.42-1.93C44.24,37.55,44.24,32.13,42.64,22.44Z"/><path class="cls-2" d="M42.63,38.79c-.34-9.72-4.08-19.88-13.12-21.6a44.58,44.58,0,0,0-5.83-.2C13.49,17.75,9.33,28.52,9,38.79c-.24,6.69,4.53,12.49,11.26,15.7h0c1.76.41,5.53.88,5.53.88h.09a23.09,23.09,0,0,0,5.52-.87h0C38.1,51.28,42.87,45.48,42.63,38.79Z"/><path class="cls-5" d="M21.09,41.84c-.14.53-3.21,1.29-5.58.8-2.53-.53-3.93-1.68-3.38-3.5s3-2.69,5.47-1.94S21.56,40,21.09,41.84Z"/><circle cx="16.34" cy="39.8" r="2.26"/><path d="M12.4,39.91c.55-1.82,3-2.69,5.47-1.95a5.37,5.37,0,0,1,3.21,2.44,5,5,0,0,0-3.51-3.19c-2.47-.74-4.92.13-5.47,1.95a2.86,2.86,0,0,0,.29,2.2A2.65,2.65,0,0,1,12.4,39.91Z"/><path class="cls-5" d="M28.82,41.66c.15.52,3.23,1.2,5.58.65s3.86-1.78,3.26-3.58-3.06-2.61-5.5-1.8S28.3,39.84,28.82,41.66Z"/><ellipse cx="33.49" cy="39.5" rx="2.25" ry="2.26" transform="translate(-10.58 12.3) rotate(-18.03)"/><path d="M37.41,39.5c-.59-1.8-3.06-2.61-5.5-1.8a5.38,5.38,0,0,0-3.12,2.52A4.92,4.92,0,0,1,32.19,37c2.44-.81,4.9,0,5.5,1.8a2.84,2.84,0,0,1-.22,2.2A2.65,2.65,0,0,0,37.41,39.5Z"/><path class="cls-4" d="M21.18,34.14s-.78-2-2-2a57.84,57.84,0,0,0-6.43.64,6.11,6.11,0,0,0-2.58,1.86C10.52,34.4,20.89,34.26,21.18,34.14Z"/><path class="cls-4" d="M28.71,34.14s.78-2,2-2a57.84,57.84,0,0,1,6.43.64,6.11,6.11,0,0,1,2.58,1.86C39.37,34.4,29,34.26,28.71,34.14Z"/><path class="cls-3" d="M24.89,46.69a5.63,5.63,0,0,1,1.73,0c.44.16-1,.58-1,.58S24.19,46.86,24.89,46.69Z"/><path d="M30.63,50.15a7.24,7.24,0,0,1-1.35.53,12.93,12.93,0,0,1-3.44.49,11.58,11.58,0,0,1-3.46-.42,4.5,4.5,0,0,1-1.31-.6,6.46,6.46,0,0,0,1.38.26,29.2,29.2,0,0,0,3.38.07c1.32,0,2.52-.06,3.39-.14S30.63,50.15,30.63,50.15Z"/><path class="cls-2" d="M7.87,126.7a36.52,36.52,0,0,1-.5,7.12,8.48,8.48,0,0,0-.19,4.1s-.25.84-.55.78,1.23,2.09,1.68,2.23.25,1.22-.56,1.16S1.9,138.36,2,134.53s1.31-6.42,1.24-7.42S7.87,126.7,7.87,126.7Z"/><path class="cls-2" d="M42.7,126.7a36.52,36.52,0,0,0,.5,7.12,8.48,8.48,0,0,1,.19,4.1s.25.84.55.78-1.23,2.09-1.68,2.23-.25,1.22.56,1.16,5.85-3.73,5.75-7.56-1.31-6.42-1.24-7.42S42.7,126.7,42.7,126.7Z"/><path class="cls-6" d="M14,65.69s-10.52.6-10.72,12.2-2.21,47.78-2.21,47.78l7.48.79.64-46.17Z"/><path class="cls-6" d="M36.55,65.69s10.52.6,10.72,12.2,2.21,47.78,2.21,47.78l-7.49.79-.63-46.17Z"/><path class="cls-7" d="M8.54,128S1,128.41.38,128s-.42-2.93,0-3.42,8.16,0,8.16,0Z"/><path class="cls-7" d="M42,128s7.58.38,8.16,0,.42-2.93,0-3.42-8.16,0-8.16,0Z"/><rect class="cls-2" x="14.54" y="142.17" width="9.77" height="78.78"/><rect class="cls-2" x="26.94" y="142.17" width="9.77" height="78.78"/><rect class="cls-8" x="13.48" y="196.85" width="10.7" height="25.2"/><path class="cls-6" d="M25.51,222.05c0,2.9-3.39,2.54-7,2.54s-6.1.36-6.1-2.54,2.93-5.25,6.55-5.25S25.51,219.15,25.51,222.05Z"/><rect class="cls-8" x="27.06" y="196.85" width="10.7" height="25.2"/><path class="cls-6" d="M39.09,222.05c0,2.9-3.38,2.54-7,2.54S26,225,26,222.05s2.93-5.25,6.54-5.25S39.09,219.15,39.09,222.05Z"/><path class="cls-9" d="M7.79,35.59s2.45.17,3.18.29a56,56,0,0,0,12.78.46c.38,0,2.83-.48,3.61-5.25.51,1.69-.29,4.82-.07,4.61,1.8-1.75,3.53-1.92,3.15-8.1-.5-8.18,7.73-6.35,4.08,8.17.22,0,4-1.12,4.34-2.89,0,.52-.65,2.81-1.91,3.47,7.13.78,9.36.06,9.81-5.53,1.52-19-9-16.61-9-16.61a5,5,0,0,1-4.15-.82c-5.55-4-16.12-2.61-19.57-.57C5.21,18,3,31.1,7.28,35.61c0-4.87,1-5.86,1-5.86C7.61,31.55,7.79,35.59,7.79,35.59Z"/><path class="cls-10" d="M55.13,24.59c-1.06,2.85-3.63,4.9-7.14,6.06a21.24,21.24,0,0,1-2.09.57c-2.16-4.36-8.65-8.92-17-11.47-6.76-2.05-13.22-2.34-17.68-1.11A18.89,18.89,0,0,1,9,15.21a10,10,0,0,1-.81-8c2.72-7.34,15.43-9.38,28.4-4.56S57.84,17.26,55.13,24.59Z"/><path class="cls-6" d="M48.07,30.43a2,2,0,0,1-.08.22,5.26,5.26,0,0,1-1.49,2.16,7.57,7.57,0,0,0-.6-1.59c-2.16-4.36-8.65-8.92-17-11.47-6.76-2.05-13.22-2.34-17.68-1.11A10.34,10.34,0,0,0,7,20.79a5.3,5.3,0,0,1,0-2.85,5.44,5.44,0,0,1,2-2.73c3.87-3,12.42-3.46,21.5-.7C41.8,18,49.69,25.09,48.07,30.43Z"/><path class="cls-7" d="M16.76,13.21c0-.47-1.11-.86-2.49-.86l-.45,0,.33-.31c1-1,1.49-2,1.15-2.37s-1.39.18-2.36,1.15c-.11.11-.22.22-.31.33,0-.14,0-.29,0-.45,0-1.37-.38-2.49-.86-2.49s-.86,1.12-.86,2.49c0,.16,0,.31,0,.45l-.31-.33c-1-1-2-1.49-2.37-1.15s.18,1.4,1.15,2.37l.33.31-.45,0c-1.38,0-2.49.39-2.49.86s1.11.86,2.49.86h.45c-.11.09-.22.2-.33.31-1,1-1.49,2-1.15,2.37s1.39-.19,2.37-1.16l.31-.33c0,.15,0,.3,0,.45,0,1.38.39,2.5.86,2.5s.86-1.12.86-2.5c0-.15,0-.3,0-.45.09.11.2.22.31.33,1,1,2,1.49,2.36,1.16s-.18-1.4-1.15-2.37c-.11-.11-.22-.22-.33-.31h.45C15.65,14.07,16.76,13.69,16.76,13.21Z"/><path class="cls-10" d="M39.79,66.63c-1.41-1.22-11.15-1.79-11.15-1.79s-1.5,2.56-3.31,2.56a2.93,2.93,0,0,1-2.9-2.57s-10.4.7-11.69,1.8c-3.26,2.8-2.12,28.9-1.64,61.3H41.43C41.9,96.57,43.09,69.45,39.79,66.63Z"/><path class="cls-7" d="M38.31,80.52c0-.32-.76-.58-1.69-.58h-.31a2.19,2.19,0,0,0,.23-.21c.66-.66,1-1.38.78-1.6s-1,.12-1.61.78l-.21.22c0-.1,0-.2,0-.3,0-.94-.26-1.69-.58-1.69s-.58.75-.58,1.69c0,.1,0,.2,0,.3l-.21-.22c-.66-.66-1.38-1-1.61-.78s.13.94.79,1.6a2.13,2.13,0,0,0,.22.21h-.31c-.93,0-1.68.26-1.68.58s.75.59,1.68.59h.31a2.13,2.13,0,0,0-.22.21c-.66.66-1,1.37-.79,1.6s1-.12,1.61-.78l.21-.22c0,.1,0,.2,0,.3,0,.93.26,1.69.58,1.69s.58-.76.58-1.69c0-.1,0-.2,0-.3l.21.22c.66.66,1.38,1,1.61.78s-.12-.94-.78-1.6a2.19,2.19,0,0,0-.23-.21h.31C37.55,81.11,38.31,80.85,38.31,80.52Z"/><path class="cls-7" d="M19.62,64.51c0-.24,2-2.43,2.22-2.26s3.91,5.67,3.7,5.92S19.62,64.74,19.62,64.51Z"/><path class="cls-7" d="M25.05,79.56c-.21.28-3.18-.07-3.12-.53s3.3-11.78,3.63-11.77S25.26,79.28,25.05,79.56Z"/><path class="cls-11" d="M22.1,79.19c-.27.22-3.08-.79-2.93-1.23s5.91-10.71,6.22-10.63S22.37,79,22.1,79.19Z"/><path class="cls-7" d="M31,78.33c-.05.34-2.83,1.45-3,1s-2.68-11.94-2.39-12.09S31,78,31,78.33Z"/><path class="cls-11" d="M28.18,79.4c-.14.32-3.09.77-3.16.31s.11-12.23.43-12.31S28.31,79.08,28.18,79.4Z"/><path class="cls-7" d="M31.47,64.51c0-.24-2-2.43-2.23-2.26s-3.91,5.67-3.7,5.92S31.46,64.74,31.47,64.51Z"/><polygon class="cls-6" points="43.7 169.07 40.79 169.07 39.89 169.07 27.66 169.06 25.89 169.06 25.89 169.09 23.83 169.09 19.85 169.1 18.56 169.1 17.66 169.1 10.85 169.1 9.95 169.11 6.97 169.11 7 168.23 7.02 167.9 7.26 161.84 7.27 161.51 7.54 155.06 7.55 154.72 7.85 147.15 7.87 146.82 8.17 139.25 8.19 138.91 8.46 132.15 8.47 131.82 8.69 126.38 8.71 126.04 8.91 121 8.92 120.67 8.99 119.02 24.79 119.02 24.79 118.98 41.68 118.98 41.75 120.67 41.76 121 41.97 126.04 41.98 126.38 42.2 131.82 42.22 132.15 42.48 138.91 42.5 139.25 42.8 146.82 42.82 147.15 43.13 154.72 43.14 155.06 43.4 161.51 43.41 161.84 43.66 167.9 43.67 168.23 43.7 169.07"/><polygon class="cls-8" points="14.72 119.02 12.63 169.1 8.8 169.11 10.9 119.02 14.72 119.02"/><polygon class="cls-7" points="13.57 119.02 10.85 169.1 9.95 169.11 12.66 119.02 13.57 119.02"/><polygon class="cls-8" points="20.95 119.02 19.85 169.1 16.02 169.1 17.13 119.02 20.95 119.02"/><polygon class="cls-8" points="35.86 119.02 37.95 169.1 41.78 169.11 39.69 119.02 35.86 119.02"/><polygon class="cls-8" points="33.45 119.02 34.56 169.1 30.74 169.1 29.63 119.02 33.45 119.02"/><polygon class="cls-8" points="26.86 118.98 27.66 169.06 25.89 169.06 25.89 169.09 23.83 169.09 23.04 119.02 26.86 118.98"/><polygon class="cls-7" points="19.56 119.02 18.56 169.1 17.66 169.1 18.66 119.02 19.56 119.02"/><polygon class="cls-7" points="40.79 169.07 39.89 169.07 37.16 119.02 38.08 119.02 40.79 169.07"/><polygon class="cls-7" points="31.18 119.02 32.17 169.1 33.08 169.1 32.08 119.02 31.18 119.02"/><polygon class="cls-7" points="26.56 169.06 25.89 169.06 25.89 169.09 25.66 169.09 24.46 119.02 24.79 119.02 24.79 118.98 25.36 118.98 26.56 169.06"/><polygon class="cls-12" points="41.76 121 8.91 121 8.92 120.67 41.75 120.67 41.76 121"/><polygon class="cls-12" points="41.98 126.38 8.69 126.38 8.71 126.04 41.97 126.04 41.98 126.38"/><polygon class="cls-12" points="42.22 132.15 8.46 132.15 8.47 131.82 42.2 131.82 42.22 132.15"/><polygon class="cls-12" points="42.5 139.25 8.17 139.25 8.19 138.91 42.48 138.91 42.5 139.25"/><polygon class="cls-12" points="42.82 147.15 7.85 147.15 7.87 146.82 42.8 146.82 42.82 147.15"/><polygon class="cls-12" points="43.14 155.06 7.54 155.06 7.55 154.72 43.13 154.72 43.14 155.06"/><polygon class="cls-12" points="43.41 161.84 7.26 161.84 7.27 161.51 43.4 161.51 43.41 161.84"/><polygon class="cls-12" points="43.67 168.23 7 168.23 7.02 167.9 43.66 167.9 43.67 168.23"/><rect class="cls-7" x="8.54" y="114.48" width="33.47" height="6.88"/><path class="cls-6" d="M30.35,118c0-.51-1.21-.93-2.71-.93l-.49,0,.36-.34c1-1.06,1.62-2.21,1.25-2.58s-1.52.2-2.58,1.26q-.18.18-.33.36c0-.16,0-.33,0-.5,0-1.49-.42-2.71-.93-2.71s-.94,1.22-.94,2.71c0,.17,0,.34,0,.5l-.34-.36c-1.06-1.06-2.21-1.62-2.57-1.26s.19,1.52,1.25,2.58l.36.34-.49,0c-1.5,0-2.71.42-2.71.93s1.21.94,2.71.94l.49,0-.36.34c-1.06,1.06-1.62,2.21-1.25,2.58s1.51-.2,2.57-1.26l.34-.36c0,.16,0,.33,0,.49,0,1.5.42,2.71.94,2.71s.93-1.21.93-2.71c0-.16,0-.33,0-.49q.15.18.33.36c1.06,1.06,2.22,1.62,2.58,1.26s-.2-1.52-1.25-2.58l-.36-.34.49,0C29.14,118.91,30.35,118.49,30.35,118Z"/></g></g></svg>