<svg xmlns="http://www.w3.org/2000/svg" viewBox="0 0 100.67 95.45"><defs><style>.cls-1{fill:#415643;}.cls-2{fill:#aaa8a6;}.cls-3{fill:#e5dfda;}.cls-4{fill:#f1e8e2;}.cls-5{fill:#f2eae7;}.cls-6{fill:#cac4bf;}.cls-7{fill:#a2afb6;}.cls-8{fill:#cec5bf;}.cls-9{fill:#cbc5be;}.cls-10{fill:#aaa7a5;}</style></defs><title>monument-scotland</title><g id="Calque_2" data-name="Calque 2"><g id="MONUMENT"><ellipse class="cls-1" cx="50.34" cy="86.71" rx="50.34" ry="8.75"/><rect class="cls-2" x="14.74" y="3.07" width="1.01" height="7.27"/><polygon class="cls-3" points="50.55 66.47 50.55 8.8 48.9 8.8 48.9 6.07 45.5 6.07 45.5 8.8 42.39 8.8 42.39 6.07 38.99 6.07 38.99 8.8 38.99 11.57 38.99 12.3 39.13 12.3 40.88 14.82 40.89 14.82 40.89 66.47 50.55 66.47"/><polygon class="cls-4" points="46.51 24.32 46.54 24.32 46.54 24.28 46.55 24.27 46.54 24.27 46.54 21.42 46.52 21.42 46.52 19.15 43.64 19.15 43.64 21.42 41.29 21.42 41.29 19.11 38.41 19.11 38.41 21.42 35.94 21.42 35.94 19.15 33.06 19.15 33.06 21.42 30.42 21.42 30.42 19.15 27.55 19.15 27.55 21.42 27.55 23.72 27.55 24.32 27.66 24.32 29.14 26.42 29.16 26.42 29.16 69.27 45.14 69.27 45.14 26.4 46.51 24.32"/><polygon class="cls-2" points="12.38 14.04 17.89 14.04 24.99 29.17 22 31.32 5.28 30.29 12.38 14.04"/><rect class="cls-4" x="22.21" y="39.02" width="28.32" height="47.6"/><polygon class="cls-3" points="26.77 33.22 26.8 33.22 26.8 33.17 26.81 33.16 26.8 33.16 26.8 29.71 26.78 29.71 26.78 26.99 23.31 26.99 23.31 29.71 20.48 29.71 20.48 26.94 17.01 26.94 17.01 29.71 14.02 29.71 14.02 26.99 10.55 26.99 10.55 29.71 7.37 29.71 7.37 26.99 3.9 26.99 3.9 29.71 3.9 32.49 3.9 33.22 4.05 33.22 5.83 35.74 5.84 35.74 5.84 87.39 25.11 87.39 25.11 35.72 26.77 33.22"/><polygon class="cls-5" points="15.13 9.02 12.38 14.04 18.04 14.04 15.13 9.02"/><rect class="cls-2" x="24.57" y="30.73" width="25.98" height="9.56"/><rect class="cls-3" x="44.52" y="35.95" width="6.01" height="9.57"/><rect class="cls-3" x="27.54" y="36.05" width="11.49" height="9.57"/><polygon class="cls-6" points="50.59 27.62 44.26 35.91 50.59 35.91 50.59 27.62"/><path class="cls-7" d="M35.58,56.21a2.3,2.3,0,1,0-4.59,0v4.93h4.59V56.21Z"/><path class="cls-7" d="M17.62,54.42A2.39,2.39,0,0,0,15.32,52,2.39,2.39,0,0,0,13,54.42v4.93h4.59V54.42Z"/><path class="cls-7" d="M17.72,39.93a2.39,2.39,0,0,0-2.3-2.47,2.39,2.39,0,0,0-2.3,2.47v4.94h4.6V39.93Z"/><path class="cls-7" d="M36.5,39.59c0-1.23-1.4-2.23-3.12-2.23s-3.12,1-3.12,2.23V44H36.5V39.59Z"/><path class="cls-7" d="M46.44,56.1a2.3,2.3,0,1,0-4.59,0V61h4.59V56.1Z"/><path class="cls-7" d="M37.71,75.67A3.43,3.43,0,0,0,34.59,72a3.44,3.44,0,0,0-3.13,3.68V83h6.25V75.67Z"/><path class="cls-7" d="M18.66,73.89a3.44,3.44,0,0,0-3.12-3.69,3.44,3.44,0,0,0-3.13,3.69v7.36h6.25V73.89Z"/><path class="cls-7" d="M50.5,44V37.36h0c-1.72,0-3.12,1-3.12,2.23V44Z"/><path class="cls-7" d="M50.55,25.51v-8.4h0a3,3,0,0,0-3.12,2.8v5.6Z"/><path class="cls-8" d="M50.5,86.71V70.46h0c-4.54,0-8.22,2.42-8.22,5.42a.34.34,0,0,0,0,.1V86.71Z"/><polygon class="cls-9" points="33.19 27.79 27.26 36.09 39.44 36.09 33.19 27.79"/><path class="cls-10" d="M50.5,86.71V73.48h0c-3,0-5.42,2-5.42,4.41v8.82Z"/><polygon class="cls-7" points="9.26 1.96 15.71 4.2 15.85 0 9.26 1.96"/><rect class="cls-2" x="85.09" y="3.07" width="1.01" height="7.27" transform="translate(171.18 13.41) rotate(-180)"/><polygon class="cls-3" points="50.28 66.47 50.28 8.8 51.94 8.8 51.94 6.07 55.33 6.07 55.33 8.8 58.45 8.8 58.45 6.07 61.84 6.07 61.84 8.8 61.84 11.57 61.84 12.3 61.7 12.3 59.96 14.82 59.94 14.82 59.94 66.47 50.28 66.47"/><polygon class="cls-4" points="54.32 24.32 54.3 24.32 54.3 24.28 54.29 24.27 54.3 24.27 54.3 21.42 54.31 21.42 54.31 19.15 57.19 19.15 57.19 21.42 59.54 21.42 59.54 19.11 62.42 19.11 62.42 21.42 64.89 21.42 64.89 19.15 67.77 19.15 67.77 21.42 70.41 21.42 70.41 19.15 73.29 19.15 73.29 21.42 73.29 23.72 73.29 24.32 73.17 24.32 71.69 26.42 71.68 26.42 71.68 69.27 55.69 69.27 55.69 26.4 54.32 24.32"/><polygon class="cls-2" points="88.45 14.04 82.94 14.04 75.85 29.17 78.83 31.32 95.55 30.29 88.45 14.04"/><rect class="cls-4" x="50.3" y="39.02" width="28.32" height="47.6" transform="translate(128.93 125.64) rotate(-180)"/><polygon class="cls-3" points="74.07 33.22 74.04 33.22 74.04 33.17 74.03 33.16 74.04 33.16 74.04 29.71 74.06 29.71 74.06 26.99 77.53 26.99 77.53 29.71 80.36 29.71 80.36 26.94 83.83 26.94 83.83 29.71 86.81 29.71 86.81 26.99 90.28 26.99 90.28 29.71 93.46 29.71 93.46 26.99 96.93 26.99 96.93 29.71 96.93 32.49 96.93 33.22 96.79 33.22 95.01 35.74 94.99 35.74 94.99 87.39 75.72 87.39 75.72 35.72 74.07 33.22"/><polygon class="cls-5" points="85.7 9.02 88.45 14.04 82.8 14.04 85.7 9.02"/><rect class="cls-2" x="50.29" y="30.73" width="25.98" height="9.56" transform="translate(126.55 71.03) rotate(-180)"/><rect class="cls-3" x="50.3" y="35.95" width="6.01" height="9.57" transform="translate(106.62 81.46) rotate(-180)"/><rect class="cls-3" x="61.81" y="36.05" width="11.49" height="9.57" transform="translate(135.1 81.66) rotate(-180)"/><polygon class="cls-6" points="50.24 27.62 56.58 35.91 50.24 35.91 50.24 27.62"/><path class="cls-7" d="M65.25,56.21a2.31,2.31,0,1,1,4.6,0v4.93H65.26V56.21Z"/><path class="cls-7" d="M83.22,54.42a2.3,2.3,0,1,1,4.59,0v4.93H83.22V54.42Z"/><path class="cls-7" d="M83.12,39.93a2.3,2.3,0,1,1,4.59,0v4.94H83.12V39.93Z"/><path class="cls-7" d="M64.33,39.59c0-1.23,1.4-2.23,3.12-2.23s3.12,1,3.12,2.23V44H64.33V39.59Z"/><path class="cls-7" d="M54.39,56.1a2.31,2.31,0,1,1,4.6,0V61h-4.6V56.1Z"/><path class="cls-7" d="M63.12,75.67a3.17,3.17,0,1,1,6.25,0V83H63.12V75.67Z"/><path class="cls-7" d="M82.17,73.89a3.17,3.17,0,1,1,6.25,0v7.36H82.17V73.89Z"/><path class="cls-7" d="M50.34,44V37.36h0c1.72,0,3.12,1,3.12,2.23V44Z"/><path class="cls-7" d="M50.28,25.51v-8.4h0a3,3,0,0,1,3.12,2.8v5.6Z"/><path class="cls-8" d="M50.34,86.71V70.46h0c4.53,0,8.21,2.42,8.21,5.42V86.71Z"/><polygon class="cls-9" points="67.65 27.79 73.57 36.09 61.39 36.09 67.65 27.79"/><path class="cls-10" d="M50.34,86.71V73.48h0c3,0,5.42,2,5.42,4.41v8.82Z"/><polygon class="cls-7" points="91.57 1.96 85.12 4.2 84.99 0 91.57 1.96"/></g></g></svg>