<svg xmlns="http://www.w3.org/2000/svg" viewBox="0 0 266.79 126.74"><defs><style>.cls-1{fill:#555547;}.cls-2{fill:#bfaa8b;}.cls-3{fill:#a99277;}.cls-4{fill:#ccb793;}.cls-5{fill:#a89176;}.cls-6{fill:#78664e;}.cls-7{fill:#a99275;}.cls-8{fill:#b6a48d;}.cls-9{fill:#b9a691;}.cls-10{fill:#464748;}.cls-11{fill:#a79174;}</style></defs><title>scotland-monument_1</title><g id="Calque_2" data-name="Calque 2"><g id="MONUMENT"><polygon class="cls-1" points="231.75 32.38 219.48 54.09 177.75 53.89 179.42 26.5 196.39 26.37 201.53 32.33 231.75 32.38"/><polygon class="cls-2" points="189.08 38.81 206.79 38.34 206.79 76.66 186.77 73.15 189.08 38.81"/><polygon class="cls-3" points="152.56 30.26 153.33 74.5 43.16 73.53 43.16 29.27 152.56 30.26"/><polygon class="cls-4" points="83.94 26.98 66.5 27.18 66.69 73.25 84.92 73.64 83.94 26.98"/><polygon class="cls-4" points="113.44 0.28 113.75 8.59 119.58 8.63 119.58 0.15 113.44 0.28"/><polygon class="cls-4" points="42.67 0 42.67 8.62 49.34 8.69 49.41 0.07 42.67 0"/><polygon class="cls-4" points="231.75 32.38 219.38 53.79 219.28 83.34 244.41 83.44 244.51 53.79 231.75 32.38"/><polygon class="cls-5" points="266.79 113.53 266.69 103.97 259.58 103.97 258.04 78.27 248.57 78.15 248.57 83.6 243.48 83.48 221.27 54.03 205.57 53.91 205.81 87.68 210.78 87.89 212.22 104.85 237.97 104.77 238.31 113.22 213.43 113.13 213.43 126.41 266.69 126.41 266.69 113.53 266.79 113.53"/><path class="cls-4" d="M201.71,73.27l-.35,14.91,6.84.1s0,16.32,3.49,16.47l2.23.09-.1-31.57Z"/><polygon class="cls-4" points="254.33 77.07 254.42 107.31 264.08 107.22 264 76.89 254.33 77.07"/><polygon class="cls-1" points="40.14 9.01 17.69 34.24 152.58 33.72 172.41 11.48 172.48 8.6 40.14 9.01"/><polygon class="cls-4" points="169.99 0.75 169.78 14.42 152.85 33.73 152.75 74.2 193.21 73.53 192.94 33.61 175.47 14.25 175.47 0.27 169.99 0.75"/><polyline class="cls-4" points="86.42 6.03 86.26 18.34 90.26 17.86 97.93 9.23 97.45 5.71"/><polygon class="cls-6" points="18.24 73.32 18.24 34.37 44.05 34.15 44.66 73.62 134.8 74.3 134.99 88.06 36.1 87.93 35.54 100.25 28.15 100.63 28.15 126.2 6.17 126.2 6.17 107.44 2.76 106.69 2.95 72.97 18.24 73.32"/><polygon class="cls-5" points="5.95 84.21 6.15 101.07 37.15 100.68 37.34 84.02 30.56 84.02 30.56 87.51 26.3 87.51 26.3 83.44 15.06 83.63 15.06 87.31 11.19 87.31 11.19 84.02 5.95 84.21"/><polygon class="cls-7" points="6.29 69.69 6 81.39 0.15 81.09 0 69.25 6.29 69.69"/><polygon class="cls-8" points="22.66 95.87 22.89 107.61 28.83 107.37 28.6 95.87 22.66 95.87"/><polygon class="cls-8" points="113.71 100.43 113.82 126.74 126.41 126.74 126.41 108.21 113.71 100.43"/><polygon class="cls-8" points="155.28 100.53 155.18 126.54 169 126.64 169 108.11 155.28 100.53"/><polygon class="cls-8" points="206.98 108.42 207.08 126.44 213.84 126.03 213.43 113.33 206.98 108.42"/><polygon class="cls-9" points="134.48 74.25 134.45 88.48 202.57 88.16 202.22 73.29 162.38 73.17 162.14 68.2 144.61 68.36 144.59 74.28 134.48 74.25"/><polygon class="cls-5" points="28.18 100.88 28.14 126.61 114.14 126.72 114.34 100.47 28.18 100.88"/><rect class="cls-5" x="126.2" y="100.39" width="28.97" height="26.14"/><rect class="cls-5" x="168.28" y="107.52" width="38.8" height="18.92"/><rect class="cls-10" x="21.49" y="31.87" width="6.51" height="17.4"/><rect class="cls-10" x="37.59" y="31.64" width="6.51" height="17.4"/><rect class="cls-10" x="90.86" y="31.64" width="6.51" height="17.4"/><rect class="cls-10" x="105.98" y="31.64" width="6.51" height="17.4"/><rect class="cls-10" x="120.1" y="31.39" width="6.51" height="17.4"/><rect class="cls-10" x="135.46" y="31.64" width="6.51" height="17.4"/><rect class="cls-10" x="37.59" y="53.92" width="5.08" height="13.59"/><rect class="cls-10" x="22.44" y="54.04" width="5.08" height="13.59"/><rect class="cls-10" x="91.69" y="53.33" width="5.08" height="13.59"/><rect class="cls-10" x="106.36" y="53.33" width="5.08" height="13.59"/><rect class="cls-10" x="121.16" y="53.33" width="5.08" height="13.59"/><rect class="cls-10" x="136.08" y="53.45" width="5.08" height="13.59"/><rect class="cls-10" x="164.13" y="33.56" width="5.08" height="13.59"/><rect class="cls-10" x="179.52" y="33.44" width="5.08" height="13.59"/><rect class="cls-10" x="164.13" y="53.21" width="5.08" height="13.59"/><rect class="cls-10" x="179.28" y="53.56" width="5.08" height="13.59"/><rect class="cls-10" x="212.19" y="56.05" width="2.54" height="6.79"/><rect class="cls-10" x="226.52" y="56.01" width="2.54" height="6.79"/><rect class="cls-10" x="235.34" y="56.05" width="2.54" height="6.79"/><path class="cls-10" d="M6.3,69.73a3.16,3.16,0,0,0-6.3,0Z"/><path class="cls-10" d="M28.77,95.7a3.16,3.16,0,0,0-6.3,0Z"/><path class="cls-10" d="M264,76.63a4.9,4.9,0,0,0-9.77,0Z"/><polygon class="cls-11" points="29.2 31.79 20.83 31.79 24.7 26.01 29.2 31.79"/><polygon class="cls-11" points="98.14 31.51 89.77 31.51 93.64 25.73 98.14 31.51"/><polygon class="cls-11" points="113.49 31.6 105.13 31.6 108.99 25.82 113.49 31.6"/><polygon class="cls-11" points="127.82 31.51 119.45 31.51 123.32 25.73 127.82 31.51"/><polygon class="cls-11" points="142.71 31.6 134.34 31.6 138.21 25.82 142.71 31.6"/><polygon class="cls-11" points="43.17 29.93 40.12 26.01 36.25 31.79 43.15 31.79 43.17 29.93"/></g></g></svg>