<svg xmlns="http://www.w3.org/2000/svg" viewBox="0 0 249.6 249.6"><defs><style>.cls-1{fill:#9dc4b2;}.cls-2{fill:#5e8463;}</style></defs><title>scotland-small-hill</title><g id="Calque_2" data-name="Calque 2"><g id="BACKGROUND"><path class="cls-1" d="M241.83,233.05c-3.83,4.48-41.2,12.11-62.38,15.48a91.34,91.34,0,0,1-13.52,1.07c-16.31-4.27-32.69-7.91-43.51-8.39-18.46-.83-37.19-13.35-56.31-22C56.6,214.85,47,211.47,37.26,211,8,209.44,0,198.34,0,198.34s235.86-2,248.67,4.36C246.42,210.49,237.72,221,241.83,233.05Z"/><path class="cls-2" d="M248.67,202.7C211.54,208.06,0,200.32,0,200.32s7.93-33.26,37-37.85,57.18-86.94,84.67-90.62,61.66-87.46,97.61-69.27S249.72,154.43,248.67,202.7Z"/></g></g></svg>