<svg xmlns="http://www.w3.org/2000/svg" viewBox="0 0 998.72 372.6"><defs><style>.cls-1{fill:#99ce9e;}.cls-2{fill:#84b287;}.cls-3{fill:#6f9e77;}</style></defs><title>scotland-foreground</title><g id="Calque_2" data-name="Calque 2"><g id="BACKGROUND"><path class="cls-1" d="M998.72,80.22c-44.14,10.59-119.89,27.31-208.25,40.65-74.38,11.22-157.67,20-238.54,20.77C323.29,143.74,77.57,143.79,0,135.8V372.6H998.72Z"/><path class="cls-2" d="M552.25,183C323.6,184.94,77.89,185,.32,177.57V312.08c90.49-9.5,211-37.95,248.07-55.61,81.1-38.66,248.93-5.89,300.76-39.88,36.78-24.11,90.47-16.78,103.12-30.33Q599.91,184.61,552.25,183Z"/><path class="cls-3" d="M548,134.28C497,74.87,328.32,131.65,248.15,64,191.19,16,35.94-7.16.32,2V219.89c81.81,1.45,264.84-12.1,650-32.45C638,163.78,584.15,176.44,548,134.28Z"/></g></g></svg>