<svg id="loch_ness_2" data-name="loch ness 2" xmlns="http://www.w3.org/2000/svg" viewBox="0 0 535.65 190.86"><defs><style>.cls-1{fill:#52915c;}.cls-2{fill:#3c7846;}.cls-3{fill:#6c7c6b;}</style></defs><title>lochness</title><path class="cls-1" d="M648.7,609.48c1.65-26.52,4.35-54.89,8.46-84.83s9.16-57.91,14.71-83.86a32.21,32.21,0,0,1,20.3-22.15s19.7-.79,31,8.93c0,0,17.07,10,0,22.06l-31-.26s-12.86,33.5-11.29,64.68c0,0,1,83,11,95.43Z" transform="translate(-195.1 -418.62)"/><g id="Calque_8" data-name="Calque 8"><path class="cls-2" d="M692.17,449.37a218.54,218.54,0,0,0-14,54c-5.85,46.32,4.61,84.15,12.47,105.51a341.85,341.85,0,0,1-7.48-48.15A346.93,346.93,0,0,1,692.17,449.37Z" transform="translate(-195.1 -418.62)"/></g><path class="cls-1" d="M447.05,609.48s95.84-113.53,174.31,0Z" transform="translate(-195.1 -418.62)"/><g id="Calque_9" data-name="Calque 9"><path class="cls-2" d="M604.72,588.91a5.82,5.82,0,0,1,1.73,4.34q-1.65,14.32-111.31,16.23H620.59a49.93,49.93,0,0,0-6.22-10.83A50.91,50.91,0,0,0,604.72,588.91Z" transform="translate(-195.1 -418.62)"/></g><g id="Calque_10" data-name="Calque 10"><path class="cls-1" d="M357.49,608.85S321.32,559.31,281.3,559c0,0-36.94-.29-86.2,21.26,0,0,62.34-22.32,87-12.32,0,0,40.79,18.39,47.72,41.52Z" transform="translate(-195.1 -418.62)"/><g id="Calque_11" data-name="Calque 11"><path class="cls-2" d="M329.9,609.48h13.67s-43.43-42.37-59.11-43.18C284.46,566.3,327.49,595.56,329.9,609.48Z" transform="translate(-195.1 -418.62)"/></g></g><g id="eyes"><ellipse class="cls-3" cx="503.41" cy="18.16" rx="4.41" ry="2.65"/><g id="Calque_13" data-name="Calque 13"><circle cx="505.83" cy="17.94" r="1.88"/></g></g></svg>