<svg xmlns="http://www.w3.org/2000/svg" viewBox="0 0 187.15 253.92"><defs><style>.cls-1{fill:#60320c;}.cls-2{fill:#703a12;}.cls-3{fill:#1d1d1b;}.cls-4{fill:#f0e2b5;}</style></defs><title>souvenir-scotland</title><g id="Calque_2" data-name="Calque 2"><g id="SOUVENIR"><path class="cls-1" d="M146.09,175.79s-1.43,6.83-13.76,4.84c0,0-12.32,4.45-16.79,10.34,0,0-14.29,19.12-28,22.34,0,0-24.83,4.46-43-1.08,0,0-32.63-9.43-44.45-31.6a33,33,0,0,1,5.93-12.22,25,25,0,0,1,11-8.16s2.51-.18,6.07-.36c7-.35,18.12-.69,22.08.36,0,0,10-6.2,11.14-7.59,0,0,3-2.65,18.5,5.54,0,0,8.35,2,19.13-4.7,0,0,11.84-1.67,17.75.45l14.67.25,3.55.06S147.34,160.07,146.09,175.79Z"/><path class="cls-2" d="M129.31,166.34s-1.08,6.33-10.41,4.49c0,0-9.34,4.13-12.72,9.59,0,0-10.81,17.72-21.23,20.7,0,0-18.79,4.14-32.59-1,0,0-24.7-8.74-33.65-29.29A34.35,34.35,0,0,1,23,159.89c7-.35,18.12-.69,22.08.36,0,0,10-6.2,11.14-7.59,0,0,3-2.65,18.5,5.54,0,0,8.35,2,19.13-4.7,0,0,11.84-1.67,17.75.45l14.67.25A19.19,19.19,0,0,1,129.31,166.34Z"/><path class="cls-3" d="M143.52,183.64l1.56-1,4.17,7.22s4,1,3.35,5.89l26.33,48.77s7.73-1.9,8.22,0a14.58,14.58,0,0,1-16,9.21s-2-1.73,3-6.5l-24.05-50.16s-4.66-1.3-3-6.52Z"/><path class="cls-3" d="M63.28,181s4.67-1.47,5-2.85L56.84,132.67l-.66.28-2.73-13.06-3.22-16.8-2-10.23H46.65L41.19,68.92l1.19-.36c-.39-1.67-.79-3.35-1.18-5L39.8,64l-.86-5.19,1.53-.58-1.53-4.71S32.78,54.93,32.68,55s1.25,5.1,1.25,5.1l1.26-.29,1.57,4.93L35.52,65l1.8,4.8.78-.32q3,12.09,6,24.17l-1.43.41,10.45,40-1.06.28Z"/><path class="cls-3" d="M77.33,171.3s4.76-1.16,5.19-2.52L74.07,122.7l-.68.24-1.87-13.21-2.1-17L68.08,82.41l-1.57-.11L62.63,58.06l1-.2c-.24-1.7-.47-3.41-.71-5.11L61.57,53l-.52-5.24,1.36-.41-1-4.87s-6.23,1-6.33,1.13.91,5.16.91,5.16l1.27-.2,1,5-1,.21.88,4.8,1.39-.26L63.92,83l-1.45.31,7.8,40.58-1.07.22Z"/><path class="cls-3" d="M95.24,164.79a19.7,19.7,0,0,0,3.17.25,18.24,18.24,0,0,0,2.18-.12q-2.25-38.4-4.51-76.81l-1.56.11q-.37-6.27-.74-12.53l-.44-19.1L92.89,44,91.25,44q-.78-13.38-1.57-26.76l1.12-.11c-.07-1.85-.13-3.7-.2-5.55l-1.53,0V5.7l1.78-.06c0-1.88-.07-3.76-.11-5.64-1,.06-2.44.12-4.23.11-2.39,0-3.05-.11-3.63.3-.12.09.44,5.85.44,5.85l1.43-.09.53,5.67L84.16,12l.46,5.27,1.55,0q1,13.44,2.09,26.88l-1.71.08,4,44.26-1.1,0Q92.37,126.66,95.24,164.79Z"/><path class="cls-4" d="M56.84,155.44S62,154,62.68,154l1.59,6.1s1.47.61,1.59,1.59c0,0-4.83,2.57-7.78,2a3.31,3.31,0,0,1,.67-2Z"/><path class="cls-4" d="M73,145.61s5.26-.69,6-.58l.73,6.26s1.37.81,1.35,1.79c0,0-5.14,1.88-8,.87a3.35,3.35,0,0,1,.94-1.9Z"/><path class="cls-4" d="M47.52,115.63s5.18-1.12,5.91-1.07l1.24,6.18s1.43.7,1.49,1.68c0,0-5,2.29-7.88,1.51a3.31,3.31,0,0,1,.79-2Z"/><path class="cls-4" d="M65.65,104.64s5.26-.7,6-.61l.75,6.27s1.37.8,1.36,1.78c0,0-5.13,1.9-8,.9a3.28,3.28,0,0,1,.94-1.9Z"/><path class="cls-4" d="M91.16,112.14s5.73-.35,6.5-.19l.33,6.82s1.41,1,1.33,2c0,0-5.69,1.65-8.68.35a3.58,3.58,0,0,1,1.16-2Z"/><path class="cls-4" d="M94.35,159.82s5.72-.35,6.5-.19l.32,6.82s1.42,1,1.33,2c0,0-5.68,1.65-8.67.35a3.54,3.54,0,0,1,1.15-2Z"/><path class="cls-4" d="M88.07,67.7s5.72-.35,6.5-.19l.32,6.82s1.42,1,1.33,2c0,0-5.68,1.65-8.67.36a3.59,3.59,0,0,1,1.15-2Z"/><path class="cls-4" d="M136.41,181s7.93.63,9.46-4.93a6.9,6.9,0,0,1-.4,8.12S140.24,189.06,136.41,181Z"/></g></g></svg>