<svg xmlns="http://www.w3.org/2000/svg" viewBox="0 0 51.1 80.88"><defs><style>.cls-1{fill:#297063;}.cls-2{fill:#e75600;}.cls-3{fill:#fff2f2;}.cls-4{fill:#ffcaca;}.cls-5{fill:#938af9;}.cls-6{fill:#ffe4ba;}.cls-7{fill:#e7af55;}.cls-8{fill:#d67777;}.cls-9{fill:#070707;}</style></defs><title>matriochka4</title><g id="Calque_2" data-name="Calque 2"><g id="Calque_1-2" data-name="Calque 1"><path class="cls-1" d="M51.09,55.33a25.48,25.48,0,0,1-9.17,19.6,23,23,0,0,1-1.87,1.42l-.16.11c-.51.35-1,.68-1.58,1A25.55,25.55,0,0,1,1.25,63.25,25.56,25.56,0,0,1,7,37.79a25.54,25.54,0,0,1,44.1,17.54Z"/><circle class="cls-2" cx="25.54" cy="18.25" r="18.25"/><path class="cls-3" d="M37.08,18.24a11.54,11.54,0,0,1-23.08,0,11.69,11.69,0,0,1,.14-1.79,11.54,11.54,0,0,1,22.55-1.19A11.28,11.28,0,0,1,37.08,18.24Z"/><path class="cls-2" d="M51.09,55.33c0,.35,0,.69,0,1s0,.63,0,.94c0,.07,0,.13,0,.19,0,.29,0,.57-.09.85,0,0,0,.06,0,.09,0,.32-.08.64-.13,1-.1.64-.22,1.28-.38,1.9a.36.36,0,0,0,0,.1c-.15.63-.33,1.24-.53,1.85-5.44-.58-12.25-1.8-16.6-4.39-6.87-4.1-7.63-14.42-7.69-17.66-.07,3.25-.83,13.56-7.69,17.66-4.34,2.6-11.16,3.82-16.6,4.39A25.56,25.56,0,0,1,7,37.78a25.55,25.55,0,0,1,37.12,0A25.23,25.23,0,0,1,48,43.16c.1.18.2.36.29.55s.19.37.28.55c.32.66.61,1.34.87,2l.21.57c.06.16.12.33.17.49s.14.43.2.66.12.39.17.58c.11.39.21.78.29,1.19,0,.2.09.4.13.6s.13.71.19,1.07l.09.64c0,.21.05.43.07.64.05.43.07.86.1,1.3,0,.17,0,.35,0,.52S51.09,55.06,51.09,55.33Z"/><circle class="cls-4" cx="33.34" cy="21.22" r="2.97"/><circle class="cls-4" cx="17.85" cy="21.22" r="2.97"/><path class="cls-2" d="M11.4,66.57S7.79,64,10.11,62.9,11.4,66.57,11.4,66.57Z"/><path class="cls-2" d="M11.4,66.57s.58-4.37,2.65-2.84S11.4,66.57,11.4,66.57Z"/><path class="cls-2" d="M11.4,66.57s4.15-1.51,3.74,1S11.4,66.57,11.4,66.57Z"/><path class="cls-2" d="M11.4,66.57s3.26,3,.81,3.8S11.4,66.57,11.4,66.57Z"/><path class="cls-2" d="M11.4,66.57s-1.13,4.26-3,2.48S11.4,66.57,11.4,66.57Z"/><path class="cls-2" d="M11.4,66.57s-4.3,1-3.58-1.5S11.4,66.57,11.4,66.57Z"/><circle class="cls-5" cx="11.4" cy="66.57" r="0.32"/><path class="cls-2" d="M23.64,59.89S20,57.35,22.35,56.22,23.64,59.89,23.64,59.89Z"/><path class="cls-2" d="M23.64,59.89s.58-4.37,2.65-2.84S23.64,59.89,23.64,59.89Z"/><path class="cls-2" d="M23.64,59.89s4.15-1.51,3.74,1S23.64,59.89,23.64,59.89Z"/><path class="cls-2" d="M23.64,59.89s3.26,3,.81,3.8S23.64,59.89,23.64,59.89Z"/><path class="cls-2" d="M23.64,59.89s-1.13,4.26-3,2.48S23.64,59.89,23.64,59.89Z"/><path class="cls-2" d="M23.64,59.89s-4.3,1-3.58-1.5S23.64,59.89,23.64,59.89Z"/><circle class="cls-5" cx="23.64" cy="59.89" r="0.32"/><path class="cls-2" d="M21.76,73.32s-3.61-2.54-1.29-3.67S21.76,73.32,21.76,73.32Z"/><path class="cls-2" d="M21.76,73.32s.58-4.37,2.65-2.84S21.76,73.32,21.76,73.32Z"/><path class="cls-2" d="M21.76,73.32s4.15-1.51,3.74,1S21.76,73.32,21.76,73.32Z"/><path class="cls-2" d="M21.76,73.32s3.26,3,.81,3.8S21.76,73.32,21.76,73.32Z"/><path class="cls-2" d="M21.76,73.32s-1.13,4.26-3,2.48S21.76,73.32,21.76,73.32Z"/><path class="cls-2" d="M21.76,73.32s-4.3,1-3.58-1.5S21.76,73.32,21.76,73.32Z"/><circle class="cls-5" cx="21.76" cy="73.32" r="0.32"/><path class="cls-2" d="M31.39,66.86s-3.61-2.54-1.29-3.67S31.39,66.86,31.39,66.86Z"/><path class="cls-2" d="M31.39,66.86S32,62.49,34,64,31.39,66.86,31.39,66.86Z"/><path class="cls-2" d="M31.39,66.86s4.15-1.51,3.74,1S31.39,66.86,31.39,66.86Z"/><path class="cls-2" d="M31.39,66.86s3.26,3,.81,3.8S31.39,66.86,31.39,66.86Z"/><path class="cls-2" d="M31.39,66.86s-1.13,4.26-3,2.48S31.39,66.86,31.39,66.86Z"/><path class="cls-2" d="M31.39,66.86s-4.3,1-3.58-1.5S31.39,66.86,31.39,66.86Z"/><circle class="cls-5" cx="31.39" cy="66.86" r="0.32"/><path class="cls-2" d="M43.93,60.79v0l0,.2h0c0,.2-.06.32-.06.32h0l-.25-.18A6.34,6.34,0,0,1,42,59.38a1.1,1.1,0,0,1,.14-1.44,1.6,1.6,0,0,1,.43-.28c.9-.44,1.3,0,1.44.75A6.75,6.75,0,0,1,43.93,60.79Z"/><path class="cls-2" d="M43.84,61.32s.58-4.37,2.65-2.84S43.84,61.32,43.84,61.32Z"/><path class="cls-2" d="M43.84,61.32s4.15-1.51,3.74,1S43.84,61.32,43.84,61.32Z"/><path class="cls-2" d="M43.84,61.32s3.26,3,.81,3.8S43.84,61.32,43.84,61.32Z"/><path class="cls-2" d="M43.84,61.32v0l0,.06a1.67,1.67,0,0,1-.07.24l-.05.14h0c0,.16-.12.33-.2.52C43,63.45,42.09,65,40.83,63.8c-.92-.88-.2-1.5.77-1.89a10.9,10.9,0,0,1,1.78-.51h0l.1,0,.28,0Z"/><path class="cls-2" d="M43.84,61.32h0l-.28.05-.1,0,.1,0a.09.09,0,0,1,0-.05.26.26,0,0,1,.07-.19A6.34,6.34,0,0,1,42,59.38a8.76,8.76,0,0,1,1.67,1.69l.2.25Z"/><path class="cls-5" d="M44.16,61.32a.28.28,0,0,1-.09.22h0a.33.33,0,0,1-.23.1l-.09,0s0,0,0,0a.3.3,0,0,1-.21-.25h0a.09.09,0,0,1,0,0,.26.26,0,0,1,.07-.19.12.12,0,0,1,.06-.06.27.27,0,0,1,.2-.07h.07a.3.3,0,0,1,.24.22h0A.25.25,0,0,0,44.16,61.32Z"/><path class="cls-2" d="M38.82,75.24s-3.61-2.54-1.29-3.67S38.82,75.24,38.82,75.24Z"/><path class="cls-2" d="M38.82,75.24s.58-4.37,2.65-2.84S38.82,75.24,38.82,75.24Z"/><path class="cls-2" d="M41.92,74.93a23,23,0,0,1-1.87,1.42c-.32-.25-.62-.51-.83-.71l-.09-.1-.07-.07-.1-.1a.88.88,0,0,1-.1-.1l0,0,.08,0,.22-.07.13,0,.06,0A4.63,4.63,0,0,1,41.92,74.93Z"/><path class="cls-2" d="M39.89,76.46c-.51.35-1,.68-1.58,1a10.67,10.67,0,0,1,.33-1.65l0-.11a1.13,1.13,0,0,0,0-.15c0-.1.06-.18.08-.23l0-.06a0,0,0,0,0,0,0l0,0,.16.16,0,0h0a.46.46,0,0,0,.07.07l.09.1A5.9,5.9,0,0,1,39.89,76.46Z"/><path class="cls-2" d="M38.82,75.24s-1.13,4.26-3,2.48S38.82,75.24,38.82,75.24Z"/><path class="cls-2" d="M38.82,75.24s-4.3,1-3.58-1.5S38.82,75.24,38.82,75.24Z"/><circle class="cls-5" cx="38.82" cy="75.24" r="0.32"/><path class="cls-6" d="M25.92,7.37S27,16,14.14,16.45a11.54,11.54,0,0,1,22.55-1.19C32.3,14.38,26.92,12.29,25.92,7.37Z"/><path class="cls-7" d="M14,14.94s-2.52-1.78-.9-2.56S14,14.94,14,14.94Z"/><path class="cls-7" d="M14,14.94s.41-3.06,1.86-2S14,14.94,14,14.94Z"/><path class="cls-7" d="M14,14.94s2.9-1,2.62.73S14,14.94,14,14.94Z"/><path class="cls-7" d="M14,14.94s2.28,2.08.57,2.66S14,14.94,14,14.94Z"/><path class="cls-7" d="M14,14.94s-.79,3-2.09,1.73S14,14.94,14,14.94Z"/><path class="cls-7" d="M14,14.94s-3,.68-2.51-1S14,14.94,14,14.94Z"/><circle class="cls-5" cx="14.03" cy="14.94" r="0.23"/><path class="cls-7" d="M16,11.34s-2.52-1.78-.9-2.56S16,11.34,16,11.34Z"/><path class="cls-7" d="M16,11.34s.41-3.06,1.86-2S16,11.34,16,11.34Z"/><path class="cls-7" d="M16,11.34s2.9-1.05,2.62.73S16,11.34,16,11.34Z"/><path class="cls-7" d="M16,11.34s2.28,2.08.57,2.66S16,11.34,16,11.34Z"/><path class="cls-7" d="M16,11.34s-.79,3-2.09,1.73S16,11.34,16,11.34Z"/><path class="cls-7" d="M16,11.34S13,12,13.5,10.29,16,11.34,16,11.34Z"/><circle class="cls-5" cx="16.01" cy="11.34" r="0.23"/><path class="cls-7" d="M18.59,8.3s-2.52-1.78-.9-2.56S18.59,8.3,18.59,8.3Z"/><path class="cls-7" d="M18.59,8.3s.41-3.06,1.86-2S18.59,8.3,18.59,8.3Z"/><path class="cls-7" d="M18.59,8.3s2.9-1.05,2.62.73S18.59,8.3,18.59,8.3Z"/><path class="cls-7" d="M18.59,8.3s2.28,2.08.57,2.66S18.59,8.3,18.59,8.3Z"/><path class="cls-7" d="M18.59,8.3s-.79,3-2.09,1.73S18.59,8.3,18.59,8.3Z"/><path class="cls-7" d="M18.59,8.3s-3,.68-2.51-1.05S18.59,8.3,18.59,8.3Z"/><circle class="cls-5" cx="18.59" cy="8.3" r="0.23"/><path class="cls-7" d="M22,6.22s-2.52-1.78-.9-2.56S22,6.22,22,6.22Z"/><path class="cls-7" d="M22,6.22s.41-3.06,1.86-2S22,6.22,22,6.22Z"/><path class="cls-7" d="M22,6.22s2.9-1,2.62.73S22,6.22,22,6.22Z"/><path class="cls-7" d="M22,6.22s2.28,2.08.57,2.66S22,6.22,22,6.22Z"/><path class="cls-7" d="M22,6.22S21.2,9.2,19.9,8,22,6.22,22,6.22Z"/><path class="cls-7" d="M22,6.22s-3,.68-2.51-1S22,6.22,22,6.22Z"/><circle class="cls-5" cx="21.99" cy="6.22" r="0.23"/><path class="cls-7" d="M26.62,5.87s-2.52-1.78-.9-2.56S26.62,5.87,26.62,5.87Z"/><path class="cls-7" d="M26.62,5.87s.41-3.06,1.86-2S26.62,5.87,26.62,5.87Z"/><path class="cls-7" d="M26.62,5.87s2.9-1,2.62.73S26.62,5.87,26.62,5.87Z"/><path class="cls-7" d="M26.62,5.87S28.9,8,27.19,8.53,26.62,5.87,26.62,5.87Z"/><path class="cls-7" d="M26.62,5.87s-.79,3-2.09,1.73S26.62,5.87,26.62,5.87Z"/><path class="cls-7" d="M26.62,5.87s-3,.68-2.51-1S26.62,5.87,26.62,5.87Z"/><circle class="cls-5" cx="26.62" cy="5.87" r="0.23"/><path class="cls-7" d="M30.62,6.54S28.1,4.76,29.72,4,30.62,6.54,30.62,6.54Z"/><path class="cls-7" d="M30.62,6.54s.41-3.06,1.86-2S30.62,6.54,30.62,6.54Z"/><path class="cls-7" d="M30.62,6.54s2.9-1,2.62.73S30.62,6.54,30.62,6.54Z"/><path class="cls-7" d="M30.62,6.54s2.28,2.08.57,2.66S30.62,6.54,30.62,6.54Z"/><path class="cls-7" d="M30.62,6.54s-.79,3-2.09,1.73S30.62,6.54,30.62,6.54Z"/><path class="cls-7" d="M30.62,6.54s-3,.68-2.51-1S30.62,6.54,30.62,6.54Z"/><circle class="cls-5" cx="30.62" cy="6.54" r="0.23"/><path class="cls-7" d="M34.22,9.33s-2.52-1.78-.9-2.56S34.22,9.33,34.22,9.33Z"/><path class="cls-7" d="M34.22,9.33s.41-3.06,1.86-2S34.22,9.33,34.22,9.33Z"/><path class="cls-7" d="M34.22,9.33s2.9-1.05,2.62.73S34.22,9.33,34.22,9.33Z"/><path class="cls-7" d="M34.22,9.33s2.28,2.08.57,2.66S34.22,9.33,34.22,9.33Z"/><path class="cls-7" d="M34.22,9.33s-.79,3-2.09,1.73S34.22,9.33,34.22,9.33Z"/><path class="cls-7" d="M34.22,9.33s-3,.68-2.51-1.05S34.22,9.33,34.22,9.33Z"/><circle class="cls-5" cx="34.22" cy="9.33" r="0.23"/><path class="cls-7" d="M36.68,12.73s-2.52-1.78-.9-2.56S36.68,12.73,36.68,12.73Z"/><path class="cls-7" d="M36.68,12.73s.41-3.06,1.86-2S36.68,12.73,36.68,12.73Z"/><path class="cls-7" d="M36.68,12.73s2.9-1.05,2.62.73S36.68,12.73,36.68,12.73Z"/><path class="cls-7" d="M36.68,12.73s2.28,2.08.57,2.66S36.68,12.73,36.68,12.73Z"/><path class="cls-7" d="M36.68,12.73s-.79,3-2.09,1.73S36.68,12.73,36.68,12.73Z"/><path class="cls-7" d="M36.68,12.73s-3,.68-2.51-1.05S36.68,12.73,36.68,12.73Z"/><circle class="cls-5" cx="36.68" cy="12.73" r="0.23"/><path class="cls-5" d="M46.89,58.88c-.67-.08-1.35-.18-2-.32L44,58.39c-.62-.13-1.25-.29-1.88-.47-6.88-2-13.87-6.74-16-17.82a34.68,34.68,0,0,1-.51-3.62c0,.33,0,.66,0,1,0-.33,0-.66,0-1-.12,1.28-.29,2.48-.51,3.62C21.89,56.11,8.68,59,.27,59.14a25.37,25.37,0,0,0,1,4.09c5.44-.58,12.25-1.8,16.6-4.39,5.39-3.22,7-10.26,7.5-14.72.05-.25.14-1.29.21-2.37.07,1.07.17,2.12.21,2.37.48,4.45,2.11,11.49,7.5,14.72A29.69,29.69,0,0,0,41.6,61.9c.62.14,1.25.28,1.88.4h.05l1.39.25.4.07,2,.3c.85.12,1.68.21,2.48.3a25.12,25.12,0,0,0,1-4.09A35,35,0,0,1,46.89,58.88Z"/><path class="cls-8" d="M28.43,24.7a2.59,2.59,0,0,1-1.49-.84c-.76-.7-1.31-.32-1.47-.17-.17-.15-.72-.53-1.47.17a2.59,2.59,0,0,1-1.49.84,8,8,0,0,0,5.92,0Z"/><circle class="cls-9" cx="21.49" cy="17.6" r="0.67"/><path class="cls-9" d="M21.49,16.45a1.3,1.3,0,0,0-1.5,1c0,.05,0,.09,0,.14a.45.45,0,0,1-.42.05.47.47,0,0,1-.25-.41s0,0,0,0a.49.49,0,0,0,.19.66.47.47,0,0,0,.52-.11h0a.45.45,0,0,1-.39.3.46.46,0,0,1-.41-.25v0a.48.48,0,0,0,.48.5.47.47,0,0,0,.41-.35h0a1.3,1.3,0,0,1,1.49-1,1.46,1.46,0,0,1,1.17.69s0,0,0,0A1.28,1.28,0,0,0,21.49,16.45Z"/><circle class="cls-9" cx="29.68" cy="17.6" r="0.67"/><path class="cls-9" d="M29.68,16.45a1.3,1.3,0,0,1,1.5,1c0,.05,0,.09,0,.14a.45.45,0,0,0,.42.05.47.47,0,0,0,.25-.41s0,0,0,0a.49.49,0,0,1-.19.66.47.47,0,0,1-.52-.11h0a.45.45,0,0,0,.39.3.46.46,0,0,0,.41-.25v0a.48.48,0,0,1-.48.5.47.47,0,0,1-.41-.35h0a1.3,1.3,0,0,0-1.49-1,1.46,1.46,0,0,0-1.17.69s0,0,0,0A1.28,1.28,0,0,1,29.68,16.45Z"/></g></g></svg>