<svg xmlns="http://www.w3.org/2000/svg" viewBox="0 0 33.33 52.73"><defs><style>.cls-1{fill:#7fdb69;}.cls-2{fill:#2fafe7;}.cls-3{fill:#fff2f2;}.cls-4{fill:#ffcaca;}.cls-5{fill:#ad5af9;}.cls-6{fill:#824707;}.cls-7{fill:#e785c9;}.cls-8{fill:#d65858;}.cls-9{fill:#070707;}</style></defs><title>matriochka5</title><g id="Calque_2" data-name="Calque 2"><g id="Calque_1-2" data-name="Calque 1"><path class="cls-1" d="M33.33,36.07a16.61,16.61,0,0,1-6,12.78c-.39.33-.8.64-1.22.93l-.1.07c-.33.23-.68.45-1,.65a16.65,16.65,0,1,1,8.33-14.43Z"/><circle class="cls-2" cx="16.67" cy="11.9" r="11.9"/><path class="cls-3" d="M24.2,11.9A7.5,7.5,0,1,1,24,10,7.84,7.84,0,0,1,24.2,11.9Z"/><path class="cls-2" d="M33.33,36.07c0,.23,0,.45,0,.67l0,.61s0,.08,0,.12,0,.37-.06.56a.13.13,0,0,1,0,.06q0,.31-.09.63c-.07.42-.15.83-.25,1.24a.19.19,0,0,1,0,.07,11.85,11.85,0,0,1-.35,1.2c-3.55-.38-8-1.17-10.82-2.86-4.48-2.67-5-9.4-5-11.51-.05,2.12-.54,8.84-5,11.51C8.81,40.06,4.37,40.86.82,41.23A16.65,16.65,0,0,1,31.29,28.14l.19.36.18.36q.32.64.57,1.32c.05.12.09.25.14.37s.08.21.11.32.09.28.13.43.08.25.11.38.14.51.19.77.06.26.08.39.09.46.12.7l.06.42c0,.14,0,.28,0,.42s.05.56.06.85c0,.11,0,.23,0,.34A2.74,2.74,0,0,1,33.33,36.07Z"/><circle class="cls-4" cx="21.76" cy="13.84" r="1.94"/><circle class="cls-4" cx="11.66" cy="13.84" r="1.94"/><path class="cls-2" d="M7.46,43.4S5.11,41.74,6.62,41,7.46,43.4,7.46,43.4Z"/><path class="cls-2" d="M7.46,43.4s.38-2.85,1.73-1.85S7.46,43.4,7.46,43.4Z"/><path class="cls-2" d="M7.46,43.4s2.7-1,2.44.68S7.46,43.4,7.46,43.4Z"/><path class="cls-2" d="M7.46,43.4s2.12,1.94.53,2.48S7.46,43.4,7.46,43.4Z"/><path class="cls-2" d="M7.46,43.4S6.72,46.18,5.51,45,7.46,43.4,7.46,43.4Z"/><path class="cls-2" d="M7.46,43.4s-2.81.63-2.34-1S7.46,43.4,7.46,43.4Z"/><circle class="cls-5" cx="7.46" cy="43.4" r="0.21"/><path class="cls-2" d="M15.44,39.05s-2.35-1.66-.84-2.39S15.44,39.05,15.44,39.05Z"/><path class="cls-2" d="M15.44,39.05s.38-2.85,1.73-1.85S15.44,39.05,15.44,39.05Z"/><path class="cls-2" d="M15.44,39.05s2.7-1,2.44.68S15.44,39.05,15.44,39.05Z"/><path class="cls-2" d="M15.44,39.05S17.56,41,16,41.53,15.44,39.05,15.44,39.05Z"/><path class="cls-2" d="M15.44,39.05s-.74,2.78-1.95,1.62S15.44,39.05,15.44,39.05Z"/><path class="cls-2" d="M15.44,39.05s-2.81.63-2.34-1S15.44,39.05,15.44,39.05Z"/><circle class="cls-5" cx="15.44" cy="39.05" r="0.21"/><path class="cls-2" d="M14.21,47.81s-2.35-1.66-.84-2.39S14.21,47.81,14.21,47.81Z"/><path class="cls-2" d="M14.21,47.81S14.59,45,15.94,46,14.21,47.81,14.21,47.81Z"/><path class="cls-2" d="M14.21,47.81s2.7-1,2.44.68S14.21,47.81,14.21,47.81Z"/><path class="cls-2" d="M14.21,47.81s2.12,1.94.53,2.48S14.21,47.81,14.21,47.81Z"/><path class="cls-2" d="M14.21,47.81s-.74,2.78-2,1.62S14.21,47.81,14.21,47.81Z"/><path class="cls-2" d="M14.21,47.81s-2.81.63-2.34-1S14.21,47.81,14.21,47.81Z"/><circle class="cls-5" cx="14.21" cy="47.81" r="0.21"/><path class="cls-2" d="M20.49,43.59s-2.35-1.66-.84-2.39S20.49,43.59,20.49,43.59Z"/><path class="cls-2" d="M20.49,43.59s.38-2.85,1.73-1.85S20.49,43.59,20.49,43.59Z"/><path class="cls-2" d="M20.49,43.59s2.7-1,2.44.68S20.49,43.59,20.49,43.59Z"/><path class="cls-2" d="M20.49,43.59s2.12,1.94.53,2.48S20.49,43.59,20.49,43.59Z"/><path class="cls-2" d="M20.49,43.59s-.74,2.78-1.95,1.62S20.49,43.59,20.49,43.59Z"/><path class="cls-2" d="M20.49,43.59s-2.81.63-2.34-1S20.49,43.59,20.49,43.59Z"/><circle class="cls-5" cx="20.49" cy="43.59" r="0.21"/><path class="cls-2" d="M28.67,39.63h0s0,.09,0,.13h0c0,.13,0,.21,0,.21h0l-.16-.12a4,4,0,0,1-1.05-1.14.72.72,0,0,1,.09-.94,1.23,1.23,0,0,1,.28-.18c.59-.29.85,0,.94.49A5.24,5.24,0,0,1,28.67,39.63Z"/><path class="cls-2" d="M28.61,40s.38-2.85,1.73-1.85S28.61,40,28.61,40Z"/><path class="cls-2" d="M28.61,40s2.7-1,2.44.68S28.61,40,28.61,40Z"/><path class="cls-2" d="M28.61,40s2.12,1.94.53,2.48S28.61,40,28.61,40Z"/><path class="cls-2" d="M28.61,40h0a.08.08,0,0,1,0,0,.86.86,0,0,1-.05.15l0,.09h0c0,.1-.08.22-.13.34-.3.74-.91,1.76-1.73,1-.6-.57-.13-1,.5-1.23A6.6,6.6,0,0,1,28.32,40h.08l.18,0Z"/><path class="cls-2" d="M28.61,40h0l-.18,0h0v0a.17.17,0,0,1,.05-.12,4,4,0,0,1-1.05-1.14,6.2,6.2,0,0,1,1.09,1.1l.12.16Z"/><path class="cls-5" d="M28.82,40a.2.2,0,0,1-.06.15h0a.2.2,0,0,1-.15.06h-.07A.21.21,0,0,1,28.4,40h0v0a.17.17,0,0,1,.05-.12l0,0a.19.19,0,0,1,.13,0h0a.19.19,0,0,1,.16.14h0S28.82,40,28.82,40Z"/><path class="cls-2" d="M25.33,49.06S23,47.4,24.49,46.67,25.33,49.06,25.33,49.06Z"/><path class="cls-2" d="M25.33,49.06s.38-2.85,1.73-1.85S25.33,49.06,25.33,49.06Z"/><path class="cls-2" d="M27.35,48.85c-.39.33-.8.64-1.22.93-.21-.16-.4-.33-.54-.46l-.06-.06-.05,0-.07-.07a.45.45,0,0,1-.07-.07l0,0h.05l.15,0,.09,0h0A3.16,3.16,0,0,1,27.35,48.85Z"/><path class="cls-2" d="M26,49.85c-.33.23-.68.45-1,.65a6.83,6.83,0,0,1,.22-1.08.64.64,0,0,1,0-.07l0-.1c0-.07,0-.12.05-.15a.08.08,0,0,0,0,0h0l0,0a.88.88,0,0,1,.1.1l0,0h0l.05,0,.06.06A5.35,5.35,0,0,1,26,49.85Z"/><path class="cls-2" d="M25.33,49.06s-.74,2.78-1.95,1.62S25.33,49.06,25.33,49.06Z"/><path class="cls-2" d="M25.33,49.06s-2.81.63-2.34-1S25.33,49.06,25.33,49.06Z"/><circle class="cls-5" cx="25.33" cy="49.06" r="0.21"/><path class="cls-6" d="M16.92,4.81s.71,5.61-7.68,5.92A7.52,7.52,0,0,1,23.94,10C21.08,9.38,17.58,8,16.92,4.81Z"/><path class="cls-7" d="M9.17,9.74S7.53,8.58,8.58,8.07,9.17,9.74,9.17,9.74Z"/><path class="cls-7" d="M9.17,9.74s.27-2,1.21-1.29S9.17,9.74,9.17,9.74Z"/><path class="cls-7" d="M9.17,9.74s1.89-.69,1.71.47S9.17,9.74,9.17,9.74Z"/><path class="cls-7" d="M9.17,9.74s1.48,1.36.37,1.73S9.17,9.74,9.17,9.74Z"/><path class="cls-7" d="M9.17,9.74s-.52,1.94-1.36,1.13S9.17,9.74,9.17,9.74Z"/><path class="cls-7" d="M9.17,9.74s-2,.44-1.63-.68S9.17,9.74,9.17,9.74Z"/><circle class="cls-5" cx="9.17" cy="9.74" r="0.15"/><path class="cls-7" d="M10.46,7.4S8.82,6.24,9.87,5.73,10.46,7.4,10.46,7.4Z"/><path class="cls-7" d="M10.46,7.4s.27-2,1.21-1.29S10.46,7.4,10.46,7.4Z"/><path class="cls-7" d="M10.46,7.4s1.89-.69,1.71.47S10.46,7.4,10.46,7.4Z"/><path class="cls-7" d="M10.46,7.4s1.48,1.36.37,1.73S10.46,7.4,10.46,7.4Z"/><path class="cls-7" d="M10.46,7.4S9.94,9.34,9.1,8.53,10.46,7.4,10.46,7.4Z"/><path class="cls-7" d="M10.46,7.4s-2,.44-1.63-.68S10.46,7.4,10.46,7.4Z"/><circle class="cls-5" cx="10.46" cy="7.4" r="0.15"/><path class="cls-7" d="M12.15,5.41s-1.64-1.16-.59-1.67S12.15,5.41,12.15,5.41Z"/><path class="cls-7" d="M12.15,5.41s.27-2,1.21-1.29S12.15,5.41,12.15,5.41Z"/><path class="cls-7" d="M12.15,5.41s1.89-.69,1.71.47S12.15,5.41,12.15,5.41Z"/><path class="cls-7" d="M12.15,5.41s1.48,1.36.37,1.73S12.15,5.41,12.15,5.41Z"/><path class="cls-7" d="M12.15,5.41s-.52,1.94-1.36,1.13S12.15,5.41,12.15,5.41Z"/><path class="cls-7" d="M12.15,5.41s-2,.44-1.63-.68S12.15,5.41,12.15,5.41Z"/><circle class="cls-5" cx="12.15" cy="5.41" r="0.15"/><path class="cls-7" d="M14.36,4.06s-1.64-1.16-.59-1.67S14.36,4.06,14.36,4.06Z"/><path class="cls-7" d="M14.36,4.06s.27-2,1.21-1.29S14.36,4.06,14.36,4.06Z"/><path class="cls-7" d="M14.36,4.06s1.89-.69,1.71.47S14.36,4.06,14.36,4.06Z"/><path class="cls-7" d="M14.36,4.06s1.48,1.36.37,1.73S14.36,4.06,14.36,4.06Z"/><path class="cls-7" d="M14.36,4.06S13.84,6,13,5.19,14.36,4.06,14.36,4.06Z"/><path class="cls-7" d="M14.36,4.06s-2,.44-1.63-.68S14.36,4.06,14.36,4.06Z"/><circle class="cls-5" cx="14.36" cy="4.06" r="0.15"/><path class="cls-7" d="M17.38,3.83s-1.64-1.16-.59-1.67S17.38,3.83,17.38,3.83Z"/><path class="cls-7" d="M17.38,3.83s.27-2,1.21-1.29S17.38,3.83,17.38,3.83Z"/><path class="cls-7" d="M17.38,3.83s1.89-.69,1.71.47S17.38,3.83,17.38,3.83Z"/><path class="cls-7" d="M17.38,3.83s1.48,1.36.37,1.73S17.38,3.83,17.38,3.83Z"/><path class="cls-7" d="M17.38,3.83S16.86,5.77,16,5,17.38,3.83,17.38,3.83Z"/><path class="cls-7" d="M17.38,3.83s-2,.44-1.63-.68S17.38,3.83,17.38,3.83Z"/><circle class="cls-5" cx="17.38" cy="3.83" r="0.15"/><path class="cls-7" d="M20,4.27S18.35,3.11,19.4,2.6,20,4.27,20,4.27Z"/><path class="cls-7" d="M20,4.27s.27-2,1.21-1.29S20,4.27,20,4.27Z"/><path class="cls-7" d="M20,4.27s1.89-.69,1.71.47S20,4.27,20,4.27Z"/><path class="cls-7" d="M20,4.27s1.48,1.36.37,1.73S20,4.27,20,4.27Z"/><path class="cls-7" d="M20,4.27s-.52,1.94-1.36,1.13S20,4.27,20,4.27Z"/><path class="cls-7" d="M20,4.27s-2,.44-1.63-.68S20,4.27,20,4.27Z"/><circle class="cls-5" cx="19.99" cy="4.27" r="0.15"/><path class="cls-7" d="M22.33,6.09s-1.64-1.16-.59-1.67S22.33,6.09,22.33,6.09Z"/><path class="cls-7" d="M22.33,6.09s.27-2,1.21-1.29S22.33,6.09,22.33,6.09Z"/><path class="cls-7" d="M22.33,6.09s1.89-.69,1.71.47S22.33,6.09,22.33,6.09Z"/><path class="cls-7" d="M22.33,6.09s1.48,1.36.37,1.73S22.33,6.09,22.33,6.09Z"/><path class="cls-7" d="M22.33,6.09S21.81,8,21,7.22,22.33,6.09,22.33,6.09Z"/><path class="cls-7" d="M22.33,6.09s-2,.44-1.63-.68S22.33,6.09,22.33,6.09Z"/><circle class="cls-5" cx="22.33" cy="6.09" r="0.15"/><path class="cls-7" d="M23.93,8.31s-1.64-1.16-.59-1.67S23.93,8.31,23.93,8.31Z"/><path class="cls-7" d="M23.93,8.31s.27-2,1.21-1.29S23.93,8.31,23.93,8.31Z"/><path class="cls-7" d="M23.93,8.31s1.89-.69,1.71.47S23.93,8.31,23.93,8.31Z"/><path class="cls-7" d="M23.93,8.31s1.48,1.36.37,1.73S23.93,8.31,23.93,8.31Z"/><path class="cls-7" d="M23.93,8.31s-.52,1.94-1.36,1.13S23.93,8.31,23.93,8.31Z"/><path class="cls-7" d="M23.93,8.31s-2,.44-1.63-.68S23.93,8.31,23.93,8.31Z"/><circle class="cls-5" cx="23.93" cy="8.31" r="0.15"/><path class="cls-5" d="M30.59,38.39c-.44,0-.88-.12-1.33-.21l-.56-.11c-.41-.09-.81-.19-1.22-.3-4.49-1.28-9-4.4-10.45-11.62a20.65,20.65,0,0,1-.33-2.36c0,.21,0,.43,0,.64,0-.21,0-.43,0-.64-.08.83-.19,1.62-.33,2.36C14.31,36.59,5.7,38.46.22,38.56a16.63,16.63,0,0,0,.63,2.66c3.55-.38,8-1.17,10.82-2.86,3.51-2.1,4.57-6.69,4.89-9.59,0-.16.09-.84.14-1.54.05.7.11,1.38.14,1.54.32,2.9,1.38,7.49,4.89,9.59a19.16,19.16,0,0,0,5.44,2l1.23.26h0l.9.16.26,0,1.34.2c.56.08,1.1.14,1.62.2a15.85,15.85,0,0,0,.63-2.66C32.37,38.55,31.5,38.5,30.59,38.39Z"/><path class="cls-8" d="M18.56,16.11a1.69,1.69,0,0,1-1-.55c-.49-.45-.85-.21-1-.11-.11-.1-.47-.34-1,.11a1.69,1.69,0,0,1-1,.55,5.66,5.66,0,0,0,1.93.37A5.66,5.66,0,0,0,18.56,16.11Z"/><circle class="cls-9" cx="14.03" cy="11.48" r="0.44"/><path class="cls-9" d="M14,10.73a.85.85,0,0,0-1,.67s0,.06,0,.09a.31.31,0,0,1-.28,0,.29.29,0,0,1-.16-.27h0a.3.3,0,0,0,.47.36h0a.28.28,0,0,1-.25.19.29.29,0,0,1-.26-.16h0a.33.33,0,0,0,.31.33.3.3,0,0,0,.27-.23h0a.86.86,0,0,1,1-.65,1,1,0,0,1,.76.45,0,0,0,0,1,0,0A.86.86,0,0,0,14,10.73Z"/><circle class="cls-9" cx="19.37" cy="11.48" r="0.44"/><path class="cls-9" d="M19.37,10.73a.85.85,0,0,1,1,.67s0,.06,0,.09a.31.31,0,0,0,.28,0,.29.29,0,0,0,.16-.27h0a.3.3,0,0,1-.47.36h0a.28.28,0,0,0,.25.19.29.29,0,0,0,.26-.16h0a.33.33,0,0,1-.31.33.3.3,0,0,1-.27-.23h0a.86.86,0,0,0-1-.65,1,1,0,0,0-.76.45,0,0,0,0,0,0,0A.86.86,0,0,1,19.37,10.73Z"/></g></g></svg>