<svg xmlns="http://www.w3.org/2000/svg" viewBox="0 0 108.09 171.07"><defs><style>.cls-1{fill:#273470;}.cls-2{fill:#a796e7;}.cls-3{fill:#fff2f2;}.cls-4{fill:#ffcaca;}.cls-5{fill:#a8f9a9;}.cls-6{fill:#ffab57;}.cls-7{fill:#5682e7;}.cls-8{fill:#d65858;}.cls-9{fill:#070707;}</style></defs><title>matriochka1</title><g id="Calque_2" data-name="Calque 2"><g id="Calque_1-2" data-name="Calque 1"><path class="cls-1" d="M108.07,117a53.92,53.92,0,0,1-19.39,41.46q-1.91,1.6-4,3a3.29,3.29,0,0,1-.33.23c-1.08.74-2.2,1.45-3.35,2.11A54,54,0,0,1,2.65,133.77,54,54,0,1,1,108.07,117Z"/><circle class="cls-2" cx="54.04" cy="38.6" r="38.6"/><path class="cls-3" d="M78.44,38.59a24.41,24.41,0,0,1-48.82,0,24.86,24.86,0,0,1,.29-3.79A24.41,24.41,0,0,1,77.6,32.28,23.55,23.55,0,0,1,78.44,38.59Z"/><path class="cls-2" d="M108.07,117c0,.73,0,1.46,0,2.18s-.06,1.33-.11,2c0,.15,0,.27,0,.4q-.08.91-.18,1.8a1.1,1.1,0,0,1,0,.18c-.07.68-.17,1.36-.28,2-.22,1.36-.47,2.7-.8,4,0,.07,0,.15,0,.22-.32,1.33-.69,2.63-1.12,3.91-11.5-1.22-25.91-3.8-35.1-9.29C55.8,115.79,54.19,94,54.05,87.11,53.9,94,52.3,115.79,37.78,124.47c-9.19,5.49-23.6,8.07-35.1,9.29A54.05,54.05,0,0,1,54.07,63a54.06,54.06,0,0,1,47.51,28.29c.21.38.41.77.61,1.16s.4.78.58,1.17c.68,1.4,1.29,2.82,1.84,4.28.16.4.3.8.44,1.21l.37,1c.15.45.29.91.43,1.39s.24.82.35,1.23c.23.83.44,1.66.62,2.51.1.41.18.84.27,1.27.15.74.28,1.5.4,2.26.06.45.13.9.18,1.35s.11.9.16,1.35c.1.91.16,1.83.21,2.75,0,.37,0,.73,0,1.1C108.06,115.91,108.07,116.47,108.07,117Z"/><circle class="cls-4" cx="70.53" cy="44.89" r="6.29"/><circle class="cls-4" cx="37.77" cy="44.89" r="6.29"/><path class="cls-2" d="M24.14,140.81s-7.63-5.38-2.72-7.75S24.14,140.81,24.14,140.81Z"/><path class="cls-2" d="M24.14,140.81s1.23-9.25,5.61-6S24.14,140.81,24.14,140.81Z"/><path class="cls-2" d="M24.14,140.81s8.77-3.19,7.92,2.19S24.14,140.81,24.14,140.81Z"/><path class="cls-2" d="M24.14,140.81s6.89,6.3,1.72,8S24.14,140.81,24.14,140.81Z"/><path class="cls-2" d="M24.14,140.81s-2.39,9-6.33,5.25S24.14,140.81,24.14,140.81Z"/><path class="cls-2" d="M24.14,140.81s-9.1,2.05-7.58-3.18S24.14,140.81,24.14,140.81Z"/><circle class="cls-5" cx="24.14" cy="140.81" r="0.68"/><path class="cls-2" d="M50,126.69s-7.63-5.38-2.72-7.75S50,126.69,50,126.69Z"/><path class="cls-2" d="M50,126.69s1.23-9.25,5.61-6S50,126.69,50,126.69Z"/><path class="cls-2" d="M50,126.69s8.77-3.19,7.92,2.19S50,126.69,50,126.69Z"/><path class="cls-2" d="M50,126.69s6.89,6.3,1.72,8S50,126.69,50,126.69Z"/><path class="cls-2" d="M50,126.69s-2.39,9-6.33,5.25S50,126.69,50,126.69Z"/><path class="cls-2" d="M50,126.69s-9.1,2.05-7.58-3.18S50,126.69,50,126.69Z"/><circle class="cls-5" cx="50.03" cy="126.69" r="0.68"/><path class="cls-2" d="M46,155.09s-7.63-5.38-2.72-7.75S46,155.09,46,155.09Z"/><path class="cls-2" d="M46,155.09s1.23-9.25,5.61-6S46,155.09,46,155.09Z"/><path class="cls-2" d="M46,155.09s8.77-3.19,7.92,2.19S46,155.09,46,155.09Z"/><path class="cls-2" d="M46,155.09s6.89,6.3,1.72,8S46,155.09,46,155.09Z"/><path class="cls-2" d="M46,155.09s-2.39,9-6.33,5.25S46,155.09,46,155.09Z"/><path class="cls-2" d="M46,155.09s-9.1,2-7.58-3.18S46,155.09,46,155.09Z"/><circle class="cls-5" cx="46.04" cy="155.09" r="0.68"/><path class="cls-2" d="M66.4,141.43s-7.63-5.38-2.72-7.75S66.4,141.43,66.4,141.43Z"/><path class="cls-2" d="M66.4,141.43s1.23-9.25,5.61-6S66.4,141.43,66.4,141.43Z"/><path class="cls-2" d="M66.4,141.43s8.77-3.19,7.92,2.19S66.4,141.43,66.4,141.43Z"/><path class="cls-2" d="M66.4,141.43s6.89,6.3,1.72,8S66.4,141.43,66.4,141.43Z"/><path class="cls-2" d="M66.4,141.43s-2.39,9-6.33,5.25S66.4,141.43,66.4,141.43Z"/><path class="cls-2" d="M66.4,141.43s-9.1,2-7.58-3.18S66.4,141.43,66.4,141.43Z"/><circle class="cls-5" cx="66.4" cy="141.43" r="0.68"/><path class="cls-2" d="M92.94,128.58v0c0,.15,0,.29-.06.41h0c-.06.41-.12.67-.12.67h0l-.52-.39a13.36,13.36,0,0,1-3.41-3.71,2.31,2.31,0,0,1,.3-3A4.22,4.22,0,0,1,90,122c1.91-.93,2.75,0,3.06,1.58A16.21,16.21,0,0,1,92.94,128.58Z"/><path class="cls-2" d="M92.74,129.71s1.23-9.25,5.61-6S92.74,129.71,92.74,129.71Z"/><path class="cls-2" d="M92.74,129.71s8.77-3.19,7.92,2.19S92.74,129.71,92.74,129.71Z"/><path class="cls-2" d="M92.74,129.71s6.89,6.3,1.72,8S92.74,129.71,92.74,129.71Z"/><path class="cls-2" d="M92.75,129.7a.16.16,0,0,1,0,0,.31.31,0,0,1,0,.12,3.41,3.41,0,0,1-.15.5l-.11.3v0a11.24,11.24,0,0,1-.41,1.11c-1,2.41-3,5.71-5.6,3.15-2-1.86-.41-3.16,1.62-4a20.54,20.54,0,0,1,3.77-1.07h.06l.21-.05.58-.1Z"/><path class="cls-2" d="M92.75,129.7h-.09c-.1,0-.3.07-.58.11l-.21,0,.21-.05a.41.41,0,0,1,0-.11.59.59,0,0,1,.15-.4,13.36,13.36,0,0,1-3.41-3.71,18.36,18.36,0,0,1,3.53,3.58c.23.28.37.47.4.52Z"/><path class="cls-5" d="M93.43,129.7a.67.67,0,0,1-.19.47h0a.73.73,0,0,1-.49.21.41.41,0,0,1-.19,0h0a.67.67,0,0,1-.45-.52h0a.41.41,0,0,1,0-.11.59.59,0,0,1,.15-.4.3.3,0,0,1,.12-.13.61.61,0,0,1,.41-.15h.13a.68.68,0,0,1,.51.46h0A1.36,1.36,0,0,1,93.43,129.7Z"/><path class="cls-2" d="M82.13,159.15s-7.63-5.38-2.72-7.75S82.13,159.15,82.13,159.15Z"/><path class="cls-2" d="M82.13,159.15s1.23-9.25,5.61-6S82.13,159.15,82.13,159.15Z"/><path class="cls-2" d="M88.68,158.49q-1.91,1.6-4,3C84,161,83.42,160.42,83,160l-.19-.21a1.21,1.21,0,0,1-.16-.16l-.22-.22a2.19,2.19,0,0,1-.22-.22l-.05-.05.17,0a4.13,4.13,0,0,1,.47-.16,2.29,2.29,0,0,1,.28-.09l.12,0C84.59,158.42,87.1,157.87,88.68,158.49Z"/><path class="cls-2" d="M84.4,161.73c-1.08.74-2.2,1.45-3.35,2.11a20.79,20.79,0,0,1,.71-3.49c0-.09,0-.16.07-.23s.06-.22.09-.32.13-.38.17-.49a.79.79,0,0,0,0-.12.1.1,0,0,0,0,0l0,0,.33.33a.5.5,0,0,1,.11.1h0l.16.16A2,2,0,0,1,83,160,16.49,16.49,0,0,1,84.4,161.73Z"/><path class="cls-2" d="M82.13,159.15s-2.39,9-6.33,5.25S82.13,159.15,82.13,159.15Z"/><path class="cls-2" d="M82.13,159.15s-9.1,2-7.58-3.18S82.13,159.15,82.13,159.15Z"/><circle class="cls-5" cx="82.13" cy="159.15" r="0.68"/><path class="cls-6" d="M54.84,15.6s2.31,18.21-24.92,19.21a24.41,24.41,0,0,1,47.69-2.52C68.33,30.41,57,26,54.84,15.6Z"/><path class="cls-7" d="M29.69,31.6s-5.33-3.76-1.9-5.42S29.69,31.6,29.69,31.6Z"/><path class="cls-7" d="M29.69,31.6s.86-6.47,3.92-4.2S29.69,31.6,29.69,31.6Z"/><path class="cls-7" d="M29.69,31.6s6.13-2.23,5.54,1.53S29.69,31.6,29.69,31.6Z"/><path class="cls-7" d="M29.69,31.6s4.81,4.4,1.2,5.62S29.69,31.6,29.69,31.6Z"/><path class="cls-7" d="M29.69,31.6S28,37.91,25.27,35.27,29.69,31.6,29.69,31.6Z"/><path class="cls-7" d="M29.69,31.6s-6.36,1.44-5.3-2.22S29.69,31.6,29.69,31.6Z"/><circle class="cls-5" cx="29.69" cy="31.6" r="0.48"/><path class="cls-7" d="M33.87,24s-5.33-3.76-1.9-5.42S33.87,24,33.87,24Z"/><path class="cls-7" d="M33.87,24s.86-6.47,3.92-4.2S33.87,24,33.87,24Z"/><path class="cls-7" d="M33.87,24s6.13-2.23,5.54,1.53S33.87,24,33.87,24Z"/><path class="cls-7" d="M33.87,24s4.81,4.4,1.2,5.62S33.87,24,33.87,24Z"/><path class="cls-7" d="M33.87,24s-1.67,6.31-4.42,3.67S33.87,24,33.87,24Z"/><path class="cls-7" d="M33.87,24s-6.36,1.44-5.3-2.22S33.87,24,33.87,24Z"/><circle class="cls-5" cx="33.87" cy="23.99" r="0.48"/><path class="cls-7" d="M39.34,17.55s-5.33-3.76-1.9-5.42S39.34,17.55,39.34,17.55Z"/><path class="cls-7" d="M39.34,17.55s.86-6.47,3.92-4.2S39.34,17.55,39.34,17.55Z"/><path class="cls-7" d="M39.34,17.55s6.13-2.23,5.54,1.53S39.34,17.55,39.34,17.55Z"/><path class="cls-7" d="M39.34,17.55s4.81,4.4,1.2,5.62S39.34,17.55,39.34,17.55Z"/><path class="cls-7" d="M39.34,17.55s-1.67,6.31-4.42,3.67S39.34,17.55,39.34,17.55Z"/><path class="cls-7" d="M39.34,17.55S33,19,34,15.33,39.34,17.55,39.34,17.55Z"/><circle class="cls-5" cx="39.34" cy="17.55" r="0.48"/><path class="cls-7" d="M46.53,13.16S41.2,9.4,44.63,7.74,46.53,13.16,46.53,13.16Z"/><path class="cls-7" d="M46.53,13.16s.86-6.47,3.92-4.2S46.53,13.16,46.53,13.16Z"/><path class="cls-7" d="M46.53,13.16s6.13-2.23,5.54,1.53S46.53,13.16,46.53,13.16Z"/><path class="cls-7" d="M46.53,13.16s4.81,4.4,1.2,5.62S46.53,13.16,46.53,13.16Z"/><path class="cls-7" d="M46.53,13.16s-1.67,6.31-4.42,3.67S46.53,13.16,46.53,13.16Z"/><path class="cls-7" d="M46.53,13.16s-6.36,1.44-5.3-2.22S46.53,13.16,46.53,13.16Z"/><circle class="cls-5" cx="46.53" cy="13.16" r="0.48"/><path class="cls-7" d="M56.33,12.43S51,8.67,54.43,7,56.33,12.43,56.33,12.43Z"/><path class="cls-7" d="M56.33,12.43s.86-6.47,3.92-4.2S56.33,12.43,56.33,12.43Z"/><path class="cls-7" d="M56.33,12.43S62.46,10.2,61.87,14,56.33,12.43,56.33,12.43Z"/><path class="cls-7" d="M56.33,12.43s4.81,4.4,1.2,5.62S56.33,12.43,56.33,12.43Z"/><path class="cls-7" d="M56.33,12.43s-1.67,6.31-4.42,3.67S56.33,12.43,56.33,12.43Z"/><path class="cls-7" d="M56.33,12.43S50,13.87,51,10.21,56.33,12.43,56.33,12.43Z"/><circle class="cls-5" cx="56.33" cy="12.43" r="0.48"/><path class="cls-7" d="M64.78,13.84s-5.33-3.76-1.9-5.42S64.78,13.84,64.78,13.84Z"/><path class="cls-7" d="M64.78,13.84s.86-6.47,3.92-4.2S64.78,13.84,64.78,13.84Z"/><path class="cls-7" d="M64.78,13.84s6.13-2.23,5.54,1.53S64.78,13.84,64.78,13.84Z"/><path class="cls-7" d="M64.78,13.84s4.81,4.4,1.2,5.62S64.78,13.84,64.78,13.84Z"/><path class="cls-7" d="M64.78,13.84s-1.67,6.31-4.42,3.67S64.78,13.84,64.78,13.84Z"/><path class="cls-7" d="M64.78,13.84s-6.36,1.44-5.3-2.22S64.78,13.84,64.78,13.84Z"/><circle class="cls-5" cx="64.78" cy="13.84" r="0.48"/><path class="cls-7" d="M72.39,19.74s-5.33-3.76-1.9-5.42S72.39,19.74,72.39,19.74Z"/><path class="cls-7" d="M72.39,19.74s.86-6.47,3.92-4.2S72.39,19.74,72.39,19.74Z"/><path class="cls-7" d="M72.39,19.74s6.13-2.23,5.54,1.53S72.39,19.74,72.39,19.74Z"/><path class="cls-7" d="M72.39,19.74s4.81,4.4,1.2,5.62S72.39,19.74,72.39,19.74Z"/><path class="cls-7" d="M72.39,19.74S70.72,26.05,68,23.41,72.39,19.74,72.39,19.74Z"/><path class="cls-7" d="M72.39,19.74s-6.36,1.44-5.3-2.22S72.39,19.74,72.39,19.74Z"/><circle class="cls-5" cx="72.39" cy="19.74" r="0.48"/><path class="cls-7" d="M77.59,26.94s-5.33-3.76-1.9-5.42S77.59,26.94,77.59,26.94Z"/><path class="cls-7" d="M77.59,26.94s.86-6.47,3.92-4.2S77.59,26.94,77.59,26.94Z"/><path class="cls-7" d="M77.59,26.94s6.13-2.23,5.54,1.53S77.59,26.94,77.59,26.94Z"/><path class="cls-7" d="M77.59,26.94s4.81,4.4,1.2,5.62S77.59,26.94,77.59,26.94Z"/><path class="cls-7" d="M77.59,26.94s-1.67,6.31-4.42,3.67S77.59,26.94,77.59,26.94Z"/><path class="cls-7" d="M77.59,26.94s-6.36,1.44-5.3-2.22S77.59,26.94,77.59,26.94Z"/><circle class="cls-5" cx="77.59" cy="26.94" r="0.48"/><path class="cls-5" d="M99.2,124.55c-1.41-.17-2.85-.39-4.31-.67l-1.81-.35c-1.31-.28-2.64-.61-4-1C74.55,118.4,59.78,108.27,55.2,84.86a74,74,0,0,1-1.08-7.66c0,.69,0,1.39,0,2.08,0-.69,0-1.39,0-2.08A74.37,74.37,0,0,1,53,84.86c-6.62,33.86-34.57,40-52.34,40.27a52.76,52.76,0,0,0,2,8.64c11.5-1.22,25.91-3.8,35.1-9.29,11.39-6.82,14.84-21.7,15.86-31.12.1-.52.3-2.74.45-5,.15,2.26.35,4.48.45,5,1,9.42,4.47,24.31,15.86,31.12,4.83,2.88,11.1,5,17.65,6.46,1.31.3,2.65.6,4,.85l.11,0c1,.18,2,.37,2.93.52l.84.15c1.46.23,2.92.45,4.35.65q2.7.36,5.25.63a51.75,51.75,0,0,0,2-8.64A78.47,78.47,0,0,1,99.2,124.55Z"/><path class="cls-8" d="M60.16,52.25S59,52.25,57,50.47c-1.61-1.47-2.77-.67-3.12-.36-.35-.32-1.51-1.12-3.12.36-1.94,1.78-3.15,1.78-3.15,1.78a18.42,18.42,0,0,0,6.27,1.21A18.42,18.42,0,0,0,60.16,52.25Z"/><circle class="cls-9" cx="45.47" cy="37.23" r="1.41"/><path class="cls-9" d="M45.48,34.79A2.75,2.75,0,0,0,42.31,37a1.53,1.53,0,0,0,0,.3.89.89,0,0,1-.89.1.94.94,0,0,1-.52-.86l0,0a1,1,0,0,0,.41,1.4,1,1,0,0,0,1.09-.24h0a.9.9,0,0,1-1.68.1v0a1,1,0,0,0,1,1.06,1,1,0,0,0,.86-.73h0a2.76,2.76,0,0,1,3.15-2.1,3.14,3.14,0,0,1,2.48,1.46.24.24,0,0,1,0-.08A2.76,2.76,0,0,0,45.48,34.79Z"/><circle class="cls-9" cx="62.79" cy="37.23" r="1.41"/><path class="cls-9" d="M62.79,34.79A2.75,2.75,0,0,1,66,37a1.53,1.53,0,0,1,0,.3.89.89,0,0,0,.89.1.94.94,0,0,0,.52-.86l0,0a1,1,0,0,1-.41,1.4,1,1,0,0,1-1.09-.24h0a.9.9,0,0,0,1.68.1v0a1,1,0,0,1-1,1.06,1,1,0,0,1-.86-.73h0a2.76,2.76,0,0,0-3.15-2.1A3.14,3.14,0,0,0,60,37.55a.24.24,0,0,0,0-.08A2.76,2.76,0,0,1,62.79,34.79Z"/></g></g></svg>