<svg xmlns="http://www.w3.org/2000/svg" viewBox="0 0 66.17 104.69"><defs><style>.cls-1{fill:#702056;}.cls-2{fill:#e7c467;}.cls-3{fill:#fff6f3;}.cls-4{fill:#ffcaca;}.cls-5{fill:#d6f96e;}.cls-6{fill:#916235;}.cls-7{fill:#6fd5e7;}.cls-8{fill:#d67099;}.cls-9{fill:#070707;}</style></defs><title>matriochka3_1</title><g id="Calque_2" data-name="Calque 2"><g id="Calque_1-2" data-name="Calque 1"><g id="Calque_2-2" data-name="Calque 2"><g id="Calque_1-2-2" data-name="Calque 1-2"><path class="cls-1" d="M65.77,72A32.65,32.65,0,0,1,54,97.09c-.77.64-1.56,1.25-2.39,1.82l-.2.13c-.65.45-1.33.88-2,1.28A32.78,32.78,0,1,1,64.11,61.57,33,33,0,0,1,65.77,72Z"/><circle class="cls-2" cx="33.14" cy="23.71" r="23.71"/><path class="cls-2" d="M66.17,71.85v1.33a7,7,0,0,1-.07,1.22v.25a10,10,0,0,1-.11,1.1v.11a7.4,7.4,0,0,1-.17,1.24c-.13.83-.29,1.66-.49,2.47v.13c-.19.81-.42,1.6-.69,2.39-7-.75-15.87-2.33-21.5-5.69-8.89-5.32-9.88-18.67-10-22.88-.09,4.2-1.07,17.56-10,22.88-5.63,3.36-14.46,4.94-21.5,5.69a33.07,33.07,0,0,1,60.52-26c.13.23.25.47.37.71s.25.48.36.72c.42.86.79,1.73,1.13,2.62.1.25.19.49.27.74s.15.42.22.64.18.56.26.85.15.5.22.75c.14.51.27,1,.38,1.54.06.25.11.51.16.78.09.45.17.92.25,1.39a7.86,7.86,0,0,0,.11.83c0,.28.07.55.1.83.06.56.1,1.12.13,1.68v.67A9,9,0,0,1,66.17,71.85Z"/><path class="cls-3" d="M48,23.81a15,15,0,0,1-29.9,2.44,14.2,14.2,0,0,1,0-2.44,12.82,12.82,0,0,1,.18-2.32A15,15,0,0,1,48,23.81Z"/><circle class="cls-4" cx="43.18" cy="27.67" r="3.85"/><circle class="cls-4" cx="23.11" cy="27.67" r="3.85"/><path class="cls-2" d="M14.77,86.42s-4.67-3.25-1.67-4.75S14.77,86.42,14.77,86.42Z"/><path class="cls-2" d="M14.77,86.42s.76-5.66,3.44-3.68S14.77,86.42,14.77,86.42Z"/><path class="cls-2" d="M14.77,86.42s5.37-2,4.85,1.34S14.77,86.42,14.77,86.42Z"/><path class="cls-2" d="M14.77,86.42s4.22,3.86,1.05,4.92S14.77,86.42,14.77,86.42Z"/><path class="cls-2" d="M14.77,86.42s-1.47,5.52-3.87,3.21S14.77,86.42,14.77,86.42Z"/><path class="cls-2" d="M14.77,86.42s-5.57,1.26-4.64-2S14.77,86.42,14.77,86.42Z"/><circle class="cls-5" cx="14.77" cy="86.42" r="0.42"/><path class="cls-2" d="M30.62,77.77S26,74.48,29,73,30.62,77.77,30.62,77.77Z"/><path class="cls-2" d="M30.62,77.77s.76-5.66,3.44-3.68S30.62,77.77,30.62,77.77Z"/><path class="cls-2" d="M30.62,77.77s5.37-2,4.85,1.34S30.62,77.77,30.62,77.77Z"/><path class="cls-2" d="M30.62,77.77s4.22,3.86,1.05,4.92S30.62,77.77,30.62,77.77Z"/><path class="cls-2" d="M30.62,77.77S29.15,83.29,26.75,81,30.62,77.77,30.62,77.77Z"/><path class="cls-2" d="M30.62,77.77S25.05,79,26,75.82,30.62,77.77,30.62,77.77Z"/><circle class="cls-5" cx="30.62" cy="77.77" r="0.42"/><path class="cls-2" d="M28.18,95.17s-4.67-3.29-1.67-4.75S28.18,95.17,28.18,95.17Z"/><path class="cls-2" d="M28.18,95.17s.76-5.66,3.44-3.68S28.18,95.17,28.18,95.17Z"/><path class="cls-2" d="M28.18,95.17s5.37-2,4.85,1.34S28.18,95.17,28.18,95.17Z"/><path class="cls-2" d="M28.18,95.17s4.22,3.86,1.05,4.92S28.18,95.17,28.18,95.17Z"/><path class="cls-2" d="M28.18,95.17s-1.47,5.52-3.87,3.21S28.18,95.17,28.18,95.17Z"/><path class="cls-2" d="M28.18,95.17s-5.57,1.25-4.64-2S28.18,95.17,28.18,95.17Z"/><circle class="cls-5" cx="28.18" cy="95.16" r="0.42"/><path class="cls-2" d="M40.65,86.8S36,83.51,39,82.05,40.65,86.8,40.65,86.8Z"/><path class="cls-2" d="M40.65,86.8s.76-5.63,3.44-3.63S40.65,86.8,40.65,86.8Z"/><path class="cls-2" d="M40.65,86.8s5.33-2,4.85,1.37S40.65,86.8,40.65,86.8Z"/><path class="cls-2" d="M40.65,86.8s4.22,3.86,1,4.92S40.65,86.8,40.65,86.8Z"/><path class="cls-2" d="M40.65,86.8S39.18,92.32,36.78,90,40.65,86.8,40.65,86.8Z"/><path class="cls-2" d="M40.65,86.8s-5.57,1.26-4.67-2S40.65,86.8,40.65,86.8Z"/><circle class="cls-5" cx="40.65" cy="86.8" r="0.42"/><path class="cls-2" d="M56.9,78.93h0v.25h0a1.11,1.11,0,0,1-.07.41h0l-.32-.24a8.07,8.07,0,0,1-2.09-2.27,1.4,1.4,0,0,1,.19-1.86,2.37,2.37,0,0,1,.56-.37c1.17-.57,1.68,0,1.87,1A10,10,0,0,1,56.9,78.93Z"/><path class="cls-2" d="M56.78,79.62s.76-5.66,3.44-3.68S56.78,79.62,56.78,79.62Z"/><path class="cls-2" d="M56.78,79.62s5.37-2,4.85,1.34S56.78,79.62,56.78,79.62Z"/><path class="cls-2" d="M56.78,79.62s4.22,3.86,1,4.92S56.78,79.62,56.78,79.62Z"/><path class="cls-2" d="M56.79,79.61h0v.07a1.81,1.81,0,0,1-.09.31.23.23,0,0,1-.07.19h0c-.06.2-.15.43-.25.68-.6,1.48-1.8,3.5-3.43,1.93-1.19-1.14-.25-1.94,1-2.45a13.24,13.24,0,0,1,2.31-.66h.13l.36-.06Z"/><path class="cls-2" d="M56.79,79.61h0l-.36.07h0a.08.08,0,0,1,0-.07.34.34,0,0,1,.09-.25,8.07,8.07,0,0,1-2.09-2.27,11.49,11.49,0,0,1,2.16,2.19l.26.33Z"/><path class="cls-5" d="M57.2,79.61a.4.4,0,0,1-.12.29h0a.58.58,0,0,1-.3.13h-.12a.4.4,0,0,1-.28-.32h0a.08.08,0,0,1,0-.07.34.34,0,0,1,.09-.25.14.14,0,0,1,.07-.08.37.37,0,0,1,.25-.09h.09a.42.42,0,0,1,.31.28h0A.37.37,0,0,1,57.2,79.61Z"/><path class="cls-2" d="M50.28,97.65s-4.67-3.29-1.67-4.75S50.28,97.65,50.28,97.65Z"/><path class="cls-2" d="M50.28,97.65S51,92,53.72,94,50.28,97.65,50.28,97.65Z"/><path class="cls-2" d="M54.3,97.24c-.78.65-1.59,1.27-2.42,1.84a13.49,13.49,0,0,1-1.07-.91L50.69,98l-.1-.1-.13-.13a.53.53,0,0,1-.13-.13h.1l.29-.1H51A6.14,6.14,0,0,1,54.3,97.24Z"/><path class="cls-2" d="M51.67,99.23c-.66.45-1.35.89-2,1.29a11.93,11.93,0,0,1,.43-2.14v-.33a.87.87,0,0,1,.1-.3v-.07h0l.2.2.07.06h0a.32.32,0,0,0,.1.1l.12.13A7.6,7.6,0,0,1,51.67,99.23Z"/><path class="cls-2" d="M50.28,97.65s-1.47,5.52-3.87,3.21S50.28,97.65,50.28,97.65Z"/><path class="cls-2" d="M50.28,97.65s-5.57,1.26-4.64-2S50.28,97.65,50.28,97.65Z"/><circle class="cls-5" cx="50.28" cy="97.65" r="0.42"/><path class="cls-6" d="M33.57,9.73S35,20.88,18.31,21.49A14.95,14.95,0,0,1,47.52,20C41.83,18.8,34.87,16.1,33.57,9.73Z"/><path class="cls-7" d="M18.17,19.53S14.9,17.23,17,16.17,18.17,19.53,18.17,19.53Z"/><path class="cls-7" d="M18.17,19.53s.53-4,2.4-2.57S18.17,19.53,18.17,19.53Z"/><path class="cls-7" d="M18.17,19.53s3.81-1.36,3.39.94S18.17,19.53,18.17,19.53Z"/><path class="cls-7" d="M18.17,19.53s2.95,2.7.74,3.44S18.17,19.53,18.17,19.53Z"/><path class="cls-7" d="M18.17,19.53s-1,3.86-2.71,2.25S18.17,19.53,18.17,19.53Z"/><path class="cls-7" d="M18.17,19.53s-3.9.88-3.25-1.36S18.17,19.53,18.17,19.53Z"/><circle class="cls-5" cx="18.17" cy="19.53" r="0.29"/><path class="cls-7" d="M20.73,14.87s-3.27-2.3-1.17-3.32S20.73,14.87,20.73,14.87Z"/><path class="cls-7" d="M20.73,14.87s.53-4,2.4-2.57S20.73,14.87,20.73,14.87Z"/><path class="cls-7" d="M20.73,14.87s3.76-1.37,3.39.94S20.73,14.87,20.73,14.87Z"/><path class="cls-7" d="M20.73,14.87s2.95,2.7.74,3.44S20.73,14.87,20.73,14.87Z"/><path class="cls-7" d="M20.73,14.87s-1,3.86-2.75,2.3S20.73,14.87,20.73,14.87Z"/><path class="cls-7" d="M20.73,14.87s-3.9.88-3.25-1.36S20.73,14.87,20.73,14.87Z"/><circle class="cls-5" cx="20.73" cy="14.87" r="0.29"/><path class="cls-7" d="M24.08,10.93s-3.27-2.3-1.17-3.32S24.08,10.93,24.08,10.93Z"/><path class="cls-7" d="M24.08,10.93s.53-4,2.4-2.57S24.08,10.93,24.08,10.93Z"/><path class="cls-7" d="M24.08,10.93s3.76-1.37,3.39.94S24.08,10.93,24.08,10.93Z"/><path class="cls-7" d="M24.08,10.93s3,2.7.74,3.44S24.08,10.93,24.08,10.93Z"/><path class="cls-7" d="M24.08,10.93s-1,3.86-2.71,2.25S24.08,10.93,24.08,10.93Z"/><path class="cls-7" d="M24.08,10.93s-3.9.88-3.25-1.36S24.08,10.93,24.08,10.93Z"/><circle class="cls-5" cx="24.08" cy="10.93" r="0.29"/><path class="cls-7" d="M28.48,8.24s-3.27-2.3-1.17-3.32S28.48,8.24,28.48,8.24Z"/><path class="cls-7" d="M28.48,8.24s.53-4,2.4-2.57S28.48,8.24,28.48,8.24Z"/><path class="cls-7" d="M28.48,8.24s3.76-1.37,3.39.93S28.48,8.24,28.48,8.24Z"/><path class="cls-7" d="M28.48,8.24s2.95,2.7.74,3.44S28.48,8.24,28.48,8.24Z"/><path class="cls-7" d="M28.48,8.24s-1,3.86-2.71,2.25S28.48,8.24,28.48,8.24Z"/><path class="cls-7" d="M28.48,8.24s-3.9.93-3.25-1.36S28.48,8.24,28.48,8.24Z"/><circle class="cls-5" cx="28.48" cy="8.24" r="0.29"/><path class="cls-7" d="M34.48,7.79s-3.27-2.3-1.17-3.32S34.48,7.79,34.48,7.79Z"/><path class="cls-7" d="M34.48,7.79s.53-4,2.4-2.57S34.48,7.79,34.48,7.79Z"/><path class="cls-7" d="M34.48,7.79s3.76-1.37,3.39.94S34.48,7.79,34.48,7.79Z"/><path class="cls-7" d="M34.48,7.79s3,2.7.74,3.44S34.48,7.79,34.48,7.79Z"/><path class="cls-7" d="M34.48,7.79s-1,3.86-2.71,2.25S34.48,7.79,34.48,7.79Z"/><path class="cls-7" d="M34.48,7.79s-3.9.88-3.25-1.36S34.48,7.79,34.48,7.79Z"/><circle class="cls-5" cx="34.48" cy="7.79" r="0.29"/><path class="cls-7" d="M39.65,8.65s-3.27-2.3-1.17-3.32S39.65,8.65,39.65,8.65Z"/><path class="cls-7" d="M39.65,8.65s.53-4,2.4-2.57S39.65,8.65,39.65,8.65Z"/><path class="cls-7" d="M39.65,8.65s3.76-1.37,3.39.94S39.65,8.65,39.65,8.65Z"/><path class="cls-7" d="M39.65,8.65s3,2.7.74,3.44S39.65,8.65,39.65,8.65Z"/><path class="cls-7" d="M39.65,8.65s-1,3.86-2.71,2.25S39.65,8.65,39.65,8.65Z"/><path class="cls-7" d="M39.65,8.65s-3.9.88-3.25-1.36S39.65,8.65,39.65,8.65Z"/><circle class="cls-5" cx="39.65" cy="8.65" r="0.29"/><path class="cls-7" d="M44.32,12.27S41.05,10,43.15,9,44.32,12.27,44.32,12.27Z"/><path class="cls-7" d="M44.32,12.27s.53-4,2.4-2.57S44.32,12.27,44.32,12.27Z"/><path class="cls-7" d="M44.32,12.27s3.76-1.37,3.39.94S44.32,12.27,44.32,12.27Z"/><path class="cls-7" d="M44.32,12.27s3,2.7.74,3.44S44.32,12.27,44.32,12.27Z"/><path class="cls-7" d="M44.32,12.27s-1,3.86-2.71,2.25S44.32,12.27,44.32,12.27Z"/><path class="cls-7" d="M44.32,12.27s-3.9.88-3.25-1.36S44.32,12.27,44.32,12.27Z"/><circle class="cls-5" cx="44.32" cy="12.27" r="0.29"/><path class="cls-7" d="M47.5,16.68s-3.27-2.3-1.17-3.32S47.5,16.68,47.5,16.68Z"/><path class="cls-7" d="M47.5,16.68s.53-4,2.4-2.57S47.5,16.68,47.5,16.68Z"/><path class="cls-7" d="M47.5,16.68s3.76-1.37,3.39.94S47.5,16.68,47.5,16.68Z"/><path class="cls-7" d="M47.5,16.68s3,2.7.74,3.44S47.5,16.68,47.5,16.68Z"/><path class="cls-7" d="M47.5,16.68s-1,3.86-2.71,2.25S47.5,16.68,47.5,16.68Z"/><path class="cls-7" d="M47.5,16.68s-3.9.88-3.25-1.36S47.5,16.68,47.5,16.68Z"/><circle class="cls-5" cx="47.5" cy="16.68" r="0.29"/><path class="cls-5" d="M60.74,76.46c-.86-.1-1.74-.24-2.64-.41L57,75.83q-1.21-.26-2.43-.6c-8.92-2.53-18-8.74-20.77-23.08a43.73,43.73,0,0,1-.66-4.69v0a46.88,46.88,0,0,1-.69,4.71C28.37,72.89,11.26,76.62.37,76.81A31.28,31.28,0,0,0,1.62,82.1c7.05-.75,15.87-2.33,21.5-5.69,7-4.17,9.09-13.29,9.71-19.06.06-.32.19-1.68.28-3.06.09,1.39.22,2.74.28,3.06.59,5.82,2.74,14.89,9.71,19.06a38.25,38.25,0,0,0,10.81,4c.81.19,1.63.37,2.44.52h.07l1.8.32.51.09c.89.14,1.79.28,2.66.4,1.1.15,2.18.28,3.21.39a33.33,33.33,0,0,0,1.25-5.29A51.21,51.21,0,0,1,60.74,76.46Z"/><path class="cls-8" d="M36.83,32.17a3.39,3.39,0,0,1-1.93-1.09c-1-.9-1.69-.41-1.91-.22-.22-.2-.93-.68-1.91.22a3.45,3.45,0,0,1-1.93,1.09,11.15,11.15,0,0,0,3.84.74A11.24,11.24,0,0,0,36.83,32.17Z"/><circle class="cls-9" cx="27.83" cy="22.98" r="0.87"/><path class="cls-9" d="M27.83,21.48a1.68,1.68,0,0,0-1.94,1.34.54.54,0,0,0,0,.18.6.6,0,0,1-.55.06.57.57,0,0,1-.32-.53h0a.63.63,0,0,0,.25.86.59.59,0,0,0,.67-.15h0a.6.6,0,0,1-.5.38.58.58,0,0,1-.53-.32h0a.64.64,0,0,0,.62.65.62.62,0,0,0,.53-.45h0A1.7,1.7,0,0,1,28,22.27a1.91,1.91,0,0,1,1.52.89h0A1.69,1.69,0,0,0,27.83,21.48Z"/><circle class="cls-9" cx="38.44" cy="22.98" r="0.87"/><path class="cls-9" d="M38.44,21.48a1.69,1.69,0,0,1,1.94,1.34.54.54,0,0,1,0,.18.59.59,0,0,0,.55.06.61.61,0,0,0,.32-.53h0a.65.65,0,0,1-.25.86.58.58,0,0,1-.67-.15h0a.58.58,0,0,0,.5.38.59.59,0,0,0,.53-.32h0a.64.64,0,0,1-.62.65.6.6,0,0,1-.53-.45h0a1.7,1.7,0,0,0-1.93-1.29,1.9,1.9,0,0,0-1.52.89h0A1.68,1.68,0,0,1,38.44,21.48Z"/></g></g></g></g></svg>