<svg xmlns="http://www.w3.org/2000/svg" viewBox="0 0 80.82 127.9"><defs><style>.cls-1{fill:#463a70;}.cls-2{fill:#a662e7;}.cls-3{fill:#fff2f2;}.cls-4{fill:#ffcaca;}.cls-5{fill:#64dcf9;}.cls-6{fill:#ffcc6d;}.cls-7{fill:#abe758;}.cls-8{fill:#d60528;}.cls-9{fill:#070707;}</style></defs><title>matriochka2</title><g id="Calque_2" data-name="Calque 2"><g id="Calque_1-2" data-name="Calque 1"><path class="cls-1" d="M80.82,87.5a40.29,40.29,0,0,1-14.5,31c-.95.8-1.94,1.55-3,2.25a2.2,2.2,0,0,1-.25.17c-.81.56-1.65,1.08-2.5,1.57a40.39,40.39,0,1,1,20.21-35Z"/><circle class="cls-2" cx="40.42" cy="28.86" r="28.86"/><path class="cls-3" d="M58.67,28.86a18.25,18.25,0,0,1-36.5,0A17.62,17.62,0,0,1,22.39,26a18.25,18.25,0,0,1,35.66-1.89A18,18,0,0,1,58.67,28.86Z"/><path class="cls-2" d="M80.82,87.5c0,.55,0,1.09,0,1.63s0,1-.08,1.48l0,.3c0,.46-.08.9-.14,1.35a.68.68,0,0,1,0,.14c-.05.51-.13,1-.21,1.52-.16,1-.35,2-.6,3l0,.16c-.24,1-.52,2-.84,2.92-8.6-.91-19.38-2.84-26.25-6.94C41.71,86.58,40.51,70.27,40.4,65.14c-.11,5.13-1.31,21.44-12.17,27.93C21.36,97.17,10.58,99.1,2,100A40.4,40.4,0,0,1,75.92,68.25l.46.86c.15.28.3.58.44.87.51,1,1,2.11,1.37,3.2q.18.45.33.9c.09.25.18.52.27.78s.22.68.32,1,.18.61.26.92c.17.62.33,1.24.46,1.87.07.31.14.63.2,1,.11.56.21,1.12.3,1.69,0,.34.1.67.14,1s.08.67.12,1c.07.68.12,1.37.15,2.06,0,.27,0,.55,0,.82C80.81,86.67,80.82,87.08,80.82,87.5Z"/><circle class="cls-4" cx="52.75" cy="33.56" r="4.7"/><circle class="cls-4" cx="28.25" cy="33.56" r="4.7"/><path class="cls-2" d="M18.07,105.28s-5.7-4-2-5.8S18.07,105.28,18.07,105.28Z"/><path class="cls-2" d="M18.07,105.28s.92-6.91,4.2-4.49S18.07,105.28,18.07,105.28Z"/><path class="cls-2" d="M18.07,105.28s6.56-2.38,5.92,1.64S18.07,105.28,18.07,105.28Z"/><path class="cls-2" d="M18.07,105.28s5.15,4.71,1.29,6S18.07,105.28,18.07,105.28Z"/><path class="cls-2" d="M18.07,105.28s-1.79,6.74-4.73,3.92S18.07,105.28,18.07,105.28Z"/><path class="cls-2" d="M18.07,105.28s-6.8,1.54-5.67-2.38S18.07,105.28,18.07,105.28Z"/><circle class="cls-5" cx="18.07" cy="105.28" r="0.51"/><path class="cls-2" d="M37.42,94.72s-5.7-4-2-5.8S37.42,94.72,37.42,94.72Z"/><path class="cls-2" d="M37.42,94.72s.92-6.91,4.2-4.49S37.42,94.72,37.42,94.72Z"/><path class="cls-2" d="M37.42,94.72s6.56-2.38,5.92,1.64S37.42,94.72,37.42,94.72Z"/><path class="cls-2" d="M37.42,94.72s5.15,4.71,1.29,6S37.42,94.72,37.42,94.72Z"/><path class="cls-2" d="M37.42,94.72s-1.79,6.74-4.73,3.92S37.42,94.72,37.42,94.72Z"/><path class="cls-2" d="M37.42,94.72s-6.8,1.54-5.67-2.38S37.42,94.72,37.42,94.72Z"/><circle class="cls-5" cx="37.42" cy="94.72" r="0.51"/><path class="cls-2" d="M34.44,116s-5.7-4-2-5.8S34.44,116,34.44,116Z"/><path class="cls-2" d="M34.44,116s.92-6.91,4.2-4.49S34.44,116,34.44,116Z"/><path class="cls-2" d="M34.44,116s6.56-2.38,5.92,1.64S34.44,116,34.44,116Z"/><path class="cls-2" d="M34.44,116s5.15,4.71,1.29,6S34.44,116,34.44,116Z"/><path class="cls-2" d="M34.44,116s-1.79,6.74-4.73,3.92S34.44,116,34.44,116Z"/><path class="cls-2" d="M34.44,116s-6.8,1.54-5.67-2.38S34.44,116,34.44,116Z"/><circle class="cls-5" cx="34.44" cy="115.96" r="0.51"/><path class="cls-2" d="M49.67,105.74s-5.7-4-2-5.8S49.67,105.74,49.67,105.74Z"/><path class="cls-2" d="M49.67,105.74s.92-6.91,4.2-4.49S49.67,105.74,49.67,105.74Z"/><path class="cls-2" d="M49.67,105.74s6.56-2.38,5.92,1.64S49.67,105.74,49.67,105.74Z"/><path class="cls-2" d="M49.67,105.74s5.15,4.71,1.29,6S49.67,105.74,49.67,105.74Z"/><path class="cls-2" d="M49.67,105.74s-1.79,6.74-4.73,3.92S49.67,105.74,49.67,105.74Z"/><path class="cls-2" d="M49.67,105.74s-6.8,1.54-5.67-2.38S49.67,105.74,49.67,105.74Z"/><circle class="cls-5" cx="49.67" cy="105.74" r="0.51"/><path class="cls-2" d="M69.51,96.14v0c0,.11,0,.22-.05.31h0c0,.31-.09.5-.09.5h0L69,96.68a10,10,0,0,1-2.55-2.78,1.73,1.73,0,0,1,.23-2.28,3.2,3.2,0,0,1,.68-.45c1.43-.69,2.06,0,2.28,1.18A12.18,12.18,0,0,1,69.51,96.14Z"/><path class="cls-2" d="M69.36,97s.92-6.91,4.2-4.49S69.36,97,69.36,97Z"/><path class="cls-2" d="M69.36,97s6.56-2.38,5.92,1.64S69.36,97,69.36,97Z"/><path class="cls-2" d="M69.36,97s5.15,4.71,1.29,6S69.36,97,69.36,97Z"/><path class="cls-2" d="M69.36,97v0a.23.23,0,0,1,0,.09,3.1,3.1,0,0,1-.11.37c0,.07,0,.15-.08.23v0a6.74,6.74,0,0,1-.31.83c-.74,1.8-2.2,4.27-4.19,2.36-1.46-1.39-.31-2.37,1.21-3a16.15,16.15,0,0,1,2.82-.8h0l.15,0,.44-.07Z"/><path class="cls-2" d="M69.36,97H69.3l-.44.08a.8.8,0,0,1-.15,0l.15,0a.22.22,0,0,1,0-.08.46.46,0,0,1,.11-.3,10,10,0,0,1-2.55-2.78,14,14,0,0,1,2.64,2.68c.17.2.27.35.31.4Z"/><path class="cls-5" d="M69.87,97a.45.45,0,0,1-.15.35h0a.55.55,0,0,1-.36.15.4.4,0,0,1-.15,0h0a.5.5,0,0,1-.34-.39h0a.22.22,0,0,1,0-.08.46.46,0,0,1,.11-.3.28.28,0,0,1,.09-.1.47.47,0,0,1,.31-.11h.1a.5.5,0,0,1,.38.35,0,0,0,0,1,0,0A.37.37,0,0,1,69.87,97Z"/><path class="cls-2" d="M61.43,119s-5.7-4-2-5.8S61.43,119,61.43,119Z"/><path class="cls-2" d="M61.43,119s.92-6.91,4.2-4.49S61.43,119,61.43,119Z"/><path class="cls-2" d="M66.32,118.5c-.95.8-1.94,1.55-3,2.25-.51-.39-1-.81-1.31-1.12,0,0-.1-.11-.15-.15l-.12-.12-.15-.17a1.14,1.14,0,0,1-.16-.16l0,0,.13,0a3.38,3.38,0,0,1,.35-.12.73.73,0,0,1,.21-.06l.09,0C63.26,118.44,65.14,118,66.32,118.5Z"/><path class="cls-2" d="M63.12,120.92c-.81.56-1.65,1.08-2.5,1.57a16,16,0,0,1,.53-2.61,1.54,1.54,0,0,0,.05-.17,1.2,1.2,0,0,0,.06-.24c.05-.16.1-.28.13-.36a.29.29,0,0,0,0-.09.08.08,0,0,0,0,0l0,0c.05,0,.13.13.25.25l.08.07h0l.12.12.15.15A15.09,15.09,0,0,1,63.12,120.92Z"/><path class="cls-2" d="M61.43,119s-1.79,6.74-4.73,3.92S61.43,119,61.43,119Z"/><path class="cls-2" d="M61.43,119s-6.8,1.54-5.67-2.38S61.43,119,61.43,119Z"/><circle class="cls-5" cx="61.43" cy="118.99" r="0.51"/><path class="cls-6" d="M41,11.67S42.75,25.28,22.39,26a18.25,18.25,0,0,1,35.66-1.89C51.11,22.74,42.61,19.44,41,11.67Z"/><path class="cls-7" d="M22.22,23.63s-4-2.81-1.42-4.05S22.22,23.63,22.22,23.63Z"/><path class="cls-7" d="M22.22,23.63s.65-4.83,2.93-3.14S22.22,23.63,22.22,23.63Z"/><path class="cls-7" d="M22.22,23.63S26.8,22,26.36,24.78,22.22,23.63,22.22,23.63Z"/><path class="cls-7" d="M22.22,23.63s3.6,3.29.9,4.2S22.22,23.63,22.22,23.63Z"/><path class="cls-7" d="M22.22,23.63S21,28.34,18.91,26.37,22.22,23.63,22.22,23.63Z"/><path class="cls-7" d="M22.22,23.63s-4.76,1.07-4-1.66S22.22,23.63,22.22,23.63Z"/><circle class="cls-5" cx="22.22" cy="23.63" r="0.36"/><path class="cls-7" d="M25.34,17.94s-4-2.81-1.42-4.05S25.34,17.94,25.34,17.94Z"/><path class="cls-7" d="M25.34,17.94s.65-4.83,2.93-3.14S25.34,17.94,25.34,17.94Z"/><path class="cls-7" d="M25.34,17.94s4.58-1.67,4.14,1.15S25.34,17.94,25.34,17.94Z"/><path class="cls-7" d="M25.34,17.94s3.6,3.29.9,4.2S25.34,17.94,25.34,17.94Z"/><path class="cls-7" d="M25.34,17.94S24.09,22.65,22,20.68,25.34,17.94,25.34,17.94Z"/><path class="cls-7" d="M25.34,17.94s-4.76,1.07-4-1.66S25.34,17.94,25.34,17.94Z"/><circle class="cls-5" cx="25.34" cy="17.94" r="0.36"/><path class="cls-7" d="M29.43,13.13s-4-2.81-1.42-4.05S29.43,13.13,29.43,13.13Z"/><path class="cls-7" d="M29.43,13.13S30.08,8.3,32.36,10,29.43,13.13,29.43,13.13Z"/><path class="cls-7" d="M29.43,13.13s4.58-1.67,4.14,1.15S29.43,13.13,29.43,13.13Z"/><path class="cls-7" d="M29.43,13.13s3.6,3.29.9,4.2S29.43,13.13,29.43,13.13Z"/><path class="cls-7" d="M29.43,13.13s-1.25,4.71-3.31,2.74S29.43,13.13,29.43,13.13Z"/><path class="cls-7" d="M29.43,13.13s-4.76,1.07-4-1.66S29.43,13.13,29.43,13.13Z"/><circle class="cls-5" cx="29.43" cy="13.13" r="0.36"/><path class="cls-7" d="M34.81,9.84s-4-2.81-1.42-4S34.81,9.84,34.81,9.84Z"/><path class="cls-7" d="M34.81,9.84S35.46,5,37.74,6.7,34.81,9.84,34.81,9.84Z"/><path class="cls-7" d="M34.81,9.84S39.39,8.17,39,11,34.81,9.84,34.81,9.84Z"/><path class="cls-7" d="M34.81,9.84s3.6,3.29.9,4.2S34.81,9.84,34.81,9.84Z"/><path class="cls-7" d="M34.81,9.84s-1.25,4.71-3.31,2.74S34.81,9.84,34.81,9.84Z"/><path class="cls-7" d="M34.81,9.84s-4.76,1.07-4-1.66S34.81,9.84,34.81,9.84Z"/><circle class="cls-5" cx="34.81" cy="9.84" r="0.36"/><path class="cls-7" d="M42.13,9.3s-4-2.81-1.42-4.05S42.13,9.3,42.13,9.3Z"/><path class="cls-7" d="M42.13,9.3s.65-4.83,2.93-3.14S42.13,9.3,42.13,9.3Z"/><path class="cls-7" d="M42.13,9.3s4.58-1.67,4.14,1.15S42.13,9.3,42.13,9.3Z"/><path class="cls-7" d="M42.13,9.3s3.6,3.29.9,4.2S42.13,9.3,42.13,9.3Z"/><path class="cls-7" d="M42.13,9.3S40.88,14,38.82,12,42.13,9.3,42.13,9.3Z"/><path class="cls-7" d="M42.13,9.3s-4.76,1.07-4-1.66S42.13,9.3,42.13,9.3Z"/><circle class="cls-5" cx="42.13" cy="9.3" r="0.36"/><path class="cls-7" d="M48.45,10.35s-4-2.81-1.42-4S48.45,10.35,48.45,10.35Z"/><path class="cls-7" d="M48.45,10.35s.65-4.83,2.93-3.14S48.45,10.35,48.45,10.35Z"/><path class="cls-7" d="M48.45,10.35S53,8.68,52.59,11.5,48.45,10.35,48.45,10.35Z"/><path class="cls-7" d="M48.45,10.35s3.6,3.29.9,4.2S48.45,10.35,48.45,10.35Z"/><path class="cls-7" d="M48.45,10.35s-1.25,4.71-3.31,2.74S48.45,10.35,48.45,10.35Z"/><path class="cls-7" d="M48.45,10.35s-4.76,1.07-4-1.66S48.45,10.35,48.45,10.35Z"/><circle class="cls-5" cx="48.45" cy="10.35" r="0.36"/><path class="cls-7" d="M54.14,14.77s-4-2.81-1.42-4S54.14,14.77,54.14,14.77Z"/><path class="cls-7" d="M54.14,14.77s.65-4.83,2.93-3.14S54.14,14.77,54.14,14.77Z"/><path class="cls-7" d="M54.14,14.77s4.58-1.67,4.14,1.15S54.14,14.77,54.14,14.77Z"/><path class="cls-7" d="M54.14,14.77s3.6,3.29.9,4.2S54.14,14.77,54.14,14.77Z"/><path class="cls-7" d="M54.14,14.77s-1.25,4.71-3.31,2.74S54.14,14.77,54.14,14.77Z"/><path class="cls-7" d="M54.14,14.77s-4.76,1.07-4-1.66S54.14,14.77,54.14,14.77Z"/><circle class="cls-5" cx="54.14" cy="14.77" r="0.36"/><path class="cls-7" d="M58,20.15s-4-2.81-1.42-4S58,20.15,58,20.15Z"/><path class="cls-7" d="M58,20.15S58.68,15.32,61,17,58,20.15,58,20.15Z"/><path class="cls-7" d="M58,20.15s4.58-1.67,4.14,1.15S58,20.15,58,20.15Z"/><path class="cls-7" d="M58,20.15s3.6,3.29.9,4.2S58,20.15,58,20.15Z"/><path class="cls-7" d="M58,20.15s-1.25,4.71-3.31,2.74S58,20.15,58,20.15Z"/><path class="cls-7" d="M58,20.15s-4.76,1.07-4-1.66S58,20.15,58,20.15Z"/><circle class="cls-5" cx="58.03" cy="20.15" r="0.36"/><path class="cls-5" d="M74.18,93.13c-1.06-.13-2.13-.29-3.22-.5l-1.36-.26c-1-.21-2-.46-3-.74C55.75,88.54,44.7,81,41.28,63.45a55.86,55.86,0,0,1-.81-5.72c0,.52,0,1,0,1.56q0-.78,0-1.56a55.86,55.86,0,0,1-.81,5.72c-5,25.32-25.85,29.87-39.13,30.1A39.47,39.47,0,0,0,2,100c8.6-.91,19.38-2.84,26.25-6.94C36.77,88,39.34,76.84,40.11,69.8c.07-.39.23-2,.34-3.74.11,1.69.26,3.35.34,3.74.76,7,3.34,18.17,11.86,23.27a46.55,46.55,0,0,0,13.2,4.83c1,.23,2,.45,3,.64l.08,0c.73.14,1.47.27,2.19.39l.63.11c1.09.17,2.18.34,3.25.48,1.35.18,2.66.34,3.92.47a39.47,39.47,0,0,0,1.53-6.46A61.47,61.47,0,0,1,74.18,93.13Z"/><path class="cls-8" d="M45,39.07a4.08,4.08,0,0,1-2.36-1.33c-1.2-1.1-2.07-.5-2.33-.27-.26-.24-1.13-.83-2.33.27a4.08,4.08,0,0,1-2.36,1.33,13.69,13.69,0,0,0,4.69.91A13.75,13.75,0,0,0,45,39.07Z"/><circle class="cls-9" cx="34.02" cy="27.84" r="1.06"/><path class="cls-9" d="M34,26a2.05,2.05,0,0,0-2.37,1.63.78.78,0,0,0,0,.22.68.68,0,0,1-.67.07.73.73,0,0,1-.39-.65v0a.78.78,0,0,0,.31,1.05.72.72,0,0,0,.82-.18h0a.71.71,0,0,1-.61.47.7.7,0,0,1-.64-.4v0a.77.77,0,0,0,.75.79.74.74,0,0,0,.65-.55h0A2.06,2.06,0,0,1,34.23,27a2.34,2.34,0,0,1,1.85,1.09s0,0,0-.06A2.06,2.06,0,0,0,34,26Z"/><circle class="cls-9" cx="46.97" cy="27.84" r="1.06"/><path class="cls-9" d="M47,26a2.05,2.05,0,0,1,2.37,1.63.78.78,0,0,1,0,.22.68.68,0,0,0,.67.07.73.73,0,0,0,.39-.65v0a.78.78,0,0,1-.31,1.05.72.72,0,0,1-.82-.18h0a.71.71,0,0,0,.61.47.7.7,0,0,0,.64-.4v0a.77.77,0,0,1-.75.79.74.74,0,0,1-.65-.55h0A2.06,2.06,0,0,0,46.75,27a2.34,2.34,0,0,0-1.85,1.09s0,0,0-.06A2.06,2.06,0,0,1,47,26Z"/></g></g></svg>