<svg xmlns="http://www.w3.org/2000/svg" viewBox="0 0 57.56 327.87"><defs><style>.cls-1{fill:#7798c4;}.cls-2{fill:#ffded7;}.cls-3{fill:#e5b9b0;}.cls-4{fill:#efcc3a;}.cls-5{fill:#fff9f5;}.cls-6{fill:#040b3f;}.cls-7{fill:#c4360a;}.cls-8{fill:#060e33;}.cls-9{fill:#b7300b;}.cls-10{fill:#040919;}</style></defs><title>russia-child</title><g id="Calque_2" data-name="Calque 2"><g id="ANDREI"><path class="cls-1" d="M57.13,288.84a5.55,5.55,0,0,1-.89.05c-.4,1.92-2.23,10.86-2.43,14s-10.25,3.6-12,3.65c-3.81.18-9.25.26-9.25.26v-.05l0,0v1h-.06v1.4h0l0,.41a.19.19,0,0,1-.06.13h0c1.09.05,2.15.12,3.21.19h0c5.88.74,10.43,1.93,12.11,3.36a6.19,6.19,0,0,1,1.61.57,2.89,2.89,0,0,1,.51,2.59c.06,0,.1,0,.1-.06v7.11c0-.35,0-.95,0-1.44,6.54.73,2.94,3.08-1.51,5.05s-18.75-.17-22.29-.82c-2-.37-1.38-1-.38-1.53a4.83,4.83,0,0,1-1.23-.43c-9.16-.06-16-.3-16-.59v-5.59c-.32-1.73.43-4.07,1-4.5a5.13,5.13,0,0,1,1.62-.61c1.9-1.31,6.26-2.42,11.79-3.11h0c.7-.05,1.66-.09,2.63-.13,0-.44-.06-1.34-.08-2h-.4v-1c-1.21,0-5.83-.1-9.25-.25h0s-12-.18-12.2-3.66c-.21-3.1-2-12-2.44-14a5.2,5.2,0,0,1-.85-.05c-.48-.14-.66-.91,0-1,.24-.05,1.53-.06,3.07-.05-.36-.4-1.15-1-1.23-1.9-.11-1.15,5.62-2.25,6.55-2.27.57,0,.87.11.9.21.1-6.81.42-13.47.63-17.23h5v-6.1c-.76-.25-1.21-.54-1.21-.86,0-.87,2.82-.76,6.94-.76s8-.11,8,.76c0,.36-.57.69-1.51.95v6H30.8v-6.1c-.76-.25-1.21-.54-1.21-.86,0-.87,2.82-.76,6.94-.76s8-.11,8,.76c0,.36-.56.69-1.51.95v6h4.18c.24,4.41.67,13.21.67,21.4v.31h0v-.47h.76a2.82,2.82,0,0,1,.59-1.73c.71-.82.2-1.23.2-1.23a1.05,1.05,0,0,1,.63-.24c.35,0-1.4-.62-1.91-.66s-.28-.37.64-.35,6.65,1.12,6.55,2.27c-.08.85-.87,1.5-1.23,1.9,1.54,0,2.83,0,3.07.05C57.79,287.93,57.61,288.7,57.13,288.84Zm-8.62,25.38a1,1,0,0,1,0,.35A1,1,0,0,0,48.51,314.22Zm-.36-.67Zm.23.33,0,.08A.26.26,0,0,0,48.38,313.88ZM50,323.69s0,0-.07,0,.06,0,.06,0Zm-5.37.4h0Zm-34.41-9.92s0,0,0-.07S10.24,314.15,10.24,314.17Zm.18-.4,0,0Zm.33-.4h0Zm-.3-11.24ZM9.46,284c-.51,0-2.26.68-1.91.66a1.05,1.05,0,0,1,.63.24s-.51.41.2,1.23A2.82,2.82,0,0,1,9,287.81h.72q0-2,0-4C9.72,283.88,9.64,283.93,9.46,284Z"/><path class="cls-2" d="M32.51,79.75c0,2.06,3.65,4.75,2.35,4.73L29.07,95,24.82,84.48c-1.3,0,.71-2.78.72-4.84,0,0,.08-11.5.14-11.82.22-1.18.81-.08,1.55-.45a1.38,1.38,0,0,1,.74-.18h.59l1.68,0c1,0,2.27,1.83,2.27,1.83Z"/><path class="cls-3" d="M32.57,69.59l0,1.53c-2.26.4-5,.23-6.84-2.25A5.54,5.54,0,0,1,25,67.52s.93-.1,2.28-.22l1.32-.11h0l1.68,0A2.36,2.36,0,0,1,32.57,69.59Z"/><path class="cls-4" d="M48.53,31.85c-1.81-11-11.61-9.56-19.16-9.47S12.92,27.8,10.2,30.1,8.79,51.71,9.61,54.18a5.8,5.8,0,0,0,1.62,2.32,15.37,15.37,0,0,1-1-6C10.62,38.77,15.35,26.51,27,25.64a50.5,50.5,0,0,1,6.64.24C43.88,27.83,48.13,39.4,48.52,50.46a15.14,15.14,0,0,1-.7,5.12c.6-.75,1.44-1.4,1.61-2.19C50.35,49.05,50.35,42.88,48.53,31.85Z"/><path class="cls-2" d="M48.52,50.46c-.39-11.06-4.64-22.63-14.93-24.58A50.5,50.5,0,0,0,27,25.64c-11.6.87-16.33,13.13-16.74,24.82C9.94,58.08,15.37,64.67,23,68.33h0c2,.47,6.3,1,6.3,1h.1a26.35,26.35,0,0,0,6.29-1h0C43.36,64.67,48.79,58.08,48.52,50.46Z"/><path class="cls-5" d="M24,53.93c-.15.6-3.65,1.47-6.35.91-2.88-.6-4.47-1.91-3.84-4S17.22,47.8,20,48.65,24.54,51.84,24,53.93Z"/><circle cx="18.6" cy="51.62" r="2.57"/><path d="M14.11,51.73c.63-2.07,3.42-3.06,6.23-2.21A6.1,6.1,0,0,1,24,52.29a5.63,5.63,0,0,0-4-3.62c-2.81-.85-5.6.14-6.22,2.21a3.28,3.28,0,0,0,.32,2.51A3.12,3.12,0,0,1,14.11,51.73Z"/><path class="cls-5" d="M32.8,53.73c.17.59,3.68,1.37,6.35.74,2.85-.67,4.4-2,3.72-4.08s-3.49-3-6.27-2S32.21,51.65,32.8,53.73Z"/><ellipse cx="38.12" cy="51.27" rx="2.56" ry="2.57" transform="translate(-14 14.31) rotate(-18.03)"/><path d="M42.58,51.27c-.68-2.05-3.48-3-6.26-2.05a6,6,0,0,0-3.55,2.87,5.6,5.6,0,0,1,3.86-3.73c2.78-.92,5.59,0,6.27,2a3.3,3.3,0,0,1-.25,2.51A3.09,3.09,0,0,0,42.58,51.27Z"/><path class="cls-4" d="M24.1,45.16s-.88-2.29-2.26-2.28a63.24,63.24,0,0,0-7.31.73,6.76,6.76,0,0,0-2.94,2.12C12,45.46,23.77,45.3,24.1,45.16Z"/><path class="cls-4" d="M32.68,45.16s.88-2.29,2.27-2.28a63.69,63.69,0,0,1,7.31.73,6.89,6.89,0,0,1,2.94,2.12C44.81,45.46,33,45.3,32.68,45.16Z"/><path class="cls-3" d="M28.33,59.45a6.54,6.54,0,0,1,2-.05c.5.18-1.11.66-1.11.66S27.53,59.65,28.33,59.45Z"/><path d="M34.86,63.38a7.72,7.72,0,0,1-1.53.59,15.52,15.52,0,0,1-3.92.53,13.27,13.27,0,0,1-3.93-.45,5,5,0,0,1-1.5-.67,6.57,6.57,0,0,0,1.57.33,29.92,29.92,0,0,0,3.85.1c1.51,0,2.88-.07,3.86-.18A12.77,12.77,0,0,0,34.86,63.38Z"/><path class="cls-6" d="M29.34,13.59c-11.43,0-20.7,1-20.7,2.3V43.78c0-1.27,9.27-2.3,20.7-2.3s20.7,1,20.7,2.3V15.89C50,14.62,40.77,13.59,29.34,13.59Z"/><circle class="cls-7" cx="29.26" cy="15.81" r="5.11"/><path class="cls-7" d="M27.79,16.4c-.42-2.62-5.09-7.71-1.55-10.19S44.09-4.4,48.53,3.1s8,16.4,1.51,19.16c0-2.66,0-6.19,0-6.48s-5.42-1.45-5.42-1.45-13,.48-13.76,2.66S28.22,19,27.79,16.4Z"/><path class="cls-2" d="M9,150.52a40.7,40.7,0,0,1-.58,8.1,9.6,9.6,0,0,0-.2,4.67s-.29,1-.63.89,1.4,2.38,1.91,2.54.28,1.39-.64,1.32-6.66-4.25-6.55-8.61,1.5-7.31,1.42-8.44S9,150.52,9,150.52Z"/><path class="cls-2" d="M48.6,150.52a40.7,40.7,0,0,0,.58,8.1,9.6,9.6,0,0,1,.2,4.67s.29,1,.63.89-1.4,2.38-1.91,2.54-.28,1.39.64,1.32,6.65-4.25,6.55-8.61-1.5-7.31-1.42-8.44S48.6,150.52,48.6,150.52Z"/><path class="cls-6" d="M47.16,232.63C47.69,196.94,49,85.36,45.29,82.15c-1.61-1.39-12.69-2-12.69-2s0,.3,0,.73v-4.4h-7.4v3.69c-1.83.12-11.48.76-12.94,2-3.72,3.18-2.42,113.6-1.88,150.48Z"/><rect class="cls-7" x="9.73" y="136.61" width="38.1" height="7.84"/><path class="cls-7" d="M27.67,137.68s5.22-4.65,8.89,0,3,43.65,3,43.65H28.76s0-36.62,0-38.71A17,17,0,0,0,27.67,137.68Z"/><path class="cls-7" d="M39,88.13H19.5c-.9,0-1.64,1-1.64,2.2s.74,2.2,1.64,2.2H39c.91,0,1.64-1,1.64-2.2S39.92,88.13,39,88.13Zm-1.88,3H21.38c-.73,0-1.32-.36-1.32-.81s.59-.81,1.32-.81H37.13c.73,0,1.32.37,1.32.81S37.86,91.14,37.13,91.14Z"/><path class="cls-7" d="M39.12,97.69H19.61c-.9,0-1.64,1-1.64,2.2s.74,2.2,1.64,2.2H39.12c.91,0,1.64-1,1.64-2.2S40,97.69,39.12,97.69Zm-1.88,3H21.49c-.73,0-1.32-.36-1.32-.81s.59-.81,1.32-.81H37.24c.73,0,1.32.37,1.32.81S38,100.7,37.24,100.7Z"/><path class="cls-7" d="M39.18,107.25H19.66c-.9,0-1.63,1-1.63,2.2s.73,2.2,1.63,2.2H39.18c.9,0,1.63-1,1.63-2.2S40.08,107.25,39.18,107.25Zm-1.88,3H21.54c-.73,0-1.32-.36-1.32-.81s.59-.81,1.32-.81H37.3c.73,0,1.32.37,1.32.81S38,110.26,37.3,110.26Z"/><path class="cls-7" d="M39.18,117.72H19.66c-.9,0-1.63,1-1.63,2.2s.73,2.2,1.63,2.2H39.18c.9,0,1.63-1,1.63-2.2S40.08,117.72,39.18,117.72Zm-1.88,3H21.54c-.73,0-1.32-.36-1.32-.8s.59-.81,1.32-.81H37.3c.73,0,1.32.36,1.32.81S38,120.72,37.3,120.72Z"/><path class="cls-7" d="M39.18,126.67H19.66c-.9,0-1.63,1-1.63,2.2s.73,2.19,1.63,2.19H39.18c.9,0,1.63-1,1.63-2.19S40.08,126.67,39.18,126.67Zm-1.88,3H21.54c-.73,0-1.32-.36-1.32-.8s.59-.81,1.32-.81H37.3c.73,0,1.32.36,1.32.81S38,129.67,37.3,129.67Z"/><path class="cls-8" d="M15.92,81.08S4,81.76,3.72,95s-2.51,54.37-2.51,54.37l8.52.91.72-52.56Z"/><path class="cls-8" d="M41.6,81.08s12,.68,12.21,13.89,2.51,54.37,2.51,54.37l-8.52.91-.73-52.56Z"/><path class="cls-9" d="M9.73,152s-8.64.43-9.3,0-.48-3.34,0-3.89,9.3,0,9.3,0Z"/><path class="cls-9" d="M47.83,152s8.64.43,9.3,0,.48-3.34,0-3.89-9.3,0-9.3,0Z"/><rect class="cls-8" x="15.34" y="230.36" width="12.18" height="28.68"/><path class="cls-10" d="M29,259.05c0,3.3-3.85,2.89-8,2.89s-6.94.41-6.94-2.89,3.33-6,7.45-6S29,255.75,29,259.05Z"/><rect class="cls-8" x="30.8" y="230.36" width="12.18" height="28.68"/><path class="cls-10" d="M44.49,259.05c0,3.3-3.85,2.89-8,2.89s-6.94.41-6.94-2.89,3.34-6,7.45-6S44.49,255.75,44.49,259.05Z"/></g></g></svg>