<svg xmlns="http://www.w3.org/2000/svg" viewBox="0 0 151.77 181.78"><defs><style>.cls-1{fill:#7798c4;}.cls-2{fill:#2e4c7c;}.cls-3{fill:#4f78a2;}.cls-4{fill:#ffded7;}.cls-5{fill:#ab754f;}.cls-6{fill:#0c0c0c;}.cls-7{fill:#fefde4;}</style></defs><title>russia-activity</title><g id="Calque_2" data-name="Calque 2"><g id="ACTIVITY"><ellipse class="cls-1" cx="75.88" cy="171.46" rx="75.88" ry="10.32"/><path class="cls-2" d="M139.37,131.58H10v36.36h0s0,.05,0,.08c0,3.55,29,6.43,64.68,6.43s64.68-2.88,64.68-6.43a.22.22,0,0,0,0-.08h0Z"/><ellipse class="cls-3" cx="74.54" cy="131.91" rx="64.68" ry="6.43"/><path class="cls-4" d="M124.41,70c-.9,0-5.42-1.26-6.09-1.19a1.71,1.71,0,0,0-.82,2.45c.67,1,1.26,2.89.75,2.6s-1.64-2.38-2.3-2.53-1.86-2.45-1.86-3.63-8.24-6.16-8.9-7-4.9-5.86-6.91-7a63.44,63.44,0,0,1-6.45-5l-2,3.31,0,.08a1.74,1.74,0,0,1-.11.18L89,53.43,76.64,52.6l-.91-1.41s-.72-1.87-1.57-4.13c-1.08-2.87-2.37-6.34-2.65-7.36-.49-1.82-3.14-7-2.73-8.6S76.31,9.6,76.06,8.85,74.2,5,74.4,4.47,75,.52,75.38.52a6,6,0,0,1,.1,2.59C75.27,4,77.11,0,77.53,0s1.94.05,1.94.49-1.88,3.07-1.87,4,.85,2.58,1.1,2,1.46-3,2.23-2.78c.47.14-.75,2.05-.81,3s-.37,2.77-1,2.89a5.26,5.26,0,0,0-1.46.61L73.59,30.45s3.57,9.83,4.29,9.83h.21c.27,0,.64.09,1,.16.86.13,1.79.24,1.79-.17V34.49l5.35-.66s-.88,7,1.19,7.12l1.18.08.88,0c1.77.12,3.58.29,3.95.76.52.67,11.13,13.28,11.8,13.36s8.15,7.39,9.13,9.35c.3.59,5.79,1.63,5.93,2.23S125,69,125.22,69.3,125.29,70,124.41,70Z"/><ellipse class="cls-5" cx="84.94" cy="23.97" rx="9.09" ry="8.94"/><ellipse class="cls-5" cx="89.74" cy="15.67" rx="3.75" ry="4.81" transform="translate(39.98 91.98) rotate(-66.79)"/><path class="cls-4" d="M94.07,29.24c-.41-.76-1.65-.9-2.79-.3a3.67,3.67,0,0,0-.73.52,9.65,9.65,0,0,0,.2-2c0-4.66-3.26-8.45-7.28-8.45s-7.29,3.79-7.29,8.45S79.44,36,83.47,36a7.25,7.25,0,0,0,6.47-4.59s0,0,0,0c.4.76,1.65.9,2.78.3S94.47,30,94.07,29.24Z"/><path class="cls-6" d="M87.26,27.62c-1.18,0-2.13-.57-2.13-1.26a1.36,1.36,0,0,1,0-.2.9.9,0,0,0-.21.55c0,.69,1,1.26,2.14,1.26s2-.46,2.11-1.07A2.53,2.53,0,0,1,87.26,27.62Z"/><path class="cls-6" d="M79.49,27.34c-1.18,0-2.13-.56-2.13-1.26a1.11,1.11,0,0,1,0-.19.87.87,0,0,0-.21.54c0,.7,1,1.26,2.14,1.26s2-.46,2.11-1.06A2.56,2.56,0,0,1,79.49,27.34Z"/><path class="cls-5" d="M84,18.13c-2.56-.22.72,9.51,5.88,10.06s2-3.41,2-3.41S86.57,18.34,84,18.13Z"/><path class="cls-5" d="M84,18.81s-5.71,8-7,7.9-1.08-.65-1-2.38,4.29-6.51,6-6.48S84,18.81,84,18.81Z"/><path class="cls-2" d="M90,51.79l-.16.27,0,.08a1.74,1.74,0,0,1-.11.18c-1,1.83-4.37,7.75-4.8,8.8-.51,1.24-.68,2.26-2.83,2.83s-5.43-.06-5.94-.62-1-8.75-1.1-9.95c-.29-.17-2.32-3.06-2.29-3.59a20.72,20.72,0,0,1,1.43-2.73c1.31-2.32,3.16-5.46,3.93-6.77.27,0,.64.09,1,.16-.7,1.4-2.41,4.82-2.7,5.45.27.1,2.23,1.53,3,2.06a51.7,51.7,0,0,1,5.88-.63L88.63,41l.88,0c-.76,1.62-2.67,5.67-3.17,6.59-.63,1.16,1.06,3.31,1.44,3.86S89.14,52.06,90,51.79Z"/><path class="cls-7" d="M82.39,102.64s2.24,21.71,2.19,22.55-3,4.38-5.52,5.58-1,1.54,2.29,1.54,7.36-.75,7.22-1.84a20.82,20.82,0,0,1-.65-5.92c.25-2.54,2.74-19.32,2.64-21.06S82.39,102.64,82.39,102.64Z"/><path class="cls-7" d="M80.29,103.13s-11.24,19.65-11.37,21.59,0,1.85-.13,4.65-3.88,6.85-3.88,6.85a7.81,7.81,0,0,1-1.34-3.32c0-1.46.46-5.55,1.4-7s9.14-28.17,9.14-28.17Z"/><path class="cls-3" d="M75.8,62.08A45.16,45.16,0,0,0,71.71,72.9c-1.83,7-5.37,25-5.54,26.33-.06.47,7.49,3.48,12.08,3.77.94.06-.59,1.71,2.3,1.94s13,.77,15.55-.94a92,92,0,0,1,10.25-5.83c.47-.12-11.16-31.81-18.91-35.53-2.21-1-2.68-1.2-2.68-1.2S84.35,64,80.9,64.13c-2.32.11-4-.18-4.74-.77A2.8,2.8,0,0,1,75.8,62.08Z"/><path class="cls-2" d="M63.57,132.12s-.37,7.1.81,7.1,1.84,0,2-.53,3.19-8.49,3.19-9.11-.33-1.87-.7-1.83c-.36,1.06-1.3,5.67-3.3,5.88S63.57,133,63.57,132.12Z"/><path class="cls-2" d="M87.28,133.3s1.77,0,1.74-.72a24.47,24.47,0,0,0-.8-3.82,7.72,7.72,0,0,1-5.47,2.39c-2.79,0-4.1.38-4.16-.17-.65.24-2.15,1.38-2.08,2s3,.5,4.6.39S87.28,133.3,87.28,133.3Z"/></g></g></svg>