<svg xmlns="http://www.w3.org/2000/svg" viewBox="0 0 111.7 57.63"><defs><style>.cls-1{fill:#7798c4;}.cls-2{fill:#2e4c7c;}.cls-3{fill:#4f78a2;}.cls-4{fill:#b5cccb;}.cls-5{fill:#cce5e5;}.cls-6{fill:#e5e189;}.cls-7{fill:#c9c36f;}.cls-8{fill:#773910;}.cls-9{fill:#aa571f;}.cls-10{fill:#7a3b10;}.cls-11{fill:#843e0f;}.cls-12{fill:#1e8e10;}</style></defs><title>russia-food</title><g id="Calque_2" data-name="Calque 2"><g id="FOOD"><ellipse class="cls-1" cx="55.85" cy="47.31" rx="55.85" ry="10.32"/><path class="cls-2" d="M105.26,18.46H8V45.8H8a.43.43,0,0,0,0,.05c0,2.67,21.77,4.83,48.63,4.83s48.62-2.16,48.62-4.83a.43.43,0,0,0,0-.05h0Z"/><ellipse class="cls-3" cx="56.52" cy="18.71" rx="48.62" ry="4.83"/><path class="cls-4" d="M73.77,16.06C71.38,17.17,65.68,18,59,18s-12.35-.78-14.74-1.89c-.77.36-1.2.75-1.2,1.17,0,1.69,7.13,3.07,15.94,3.07S75,18.92,75,17.23C75,16.81,74.54,16.42,73.77,16.06Z"/><path class="cls-5" d="M86.7,8.68c-4.44,2.5-15,4.25-27.38,4.25S36.39,11.18,32,8.68c-1.44.81-2.23,1.7-2.23,2.63,0,3.79,13.25,6.87,29.6,6.87s29.61-3.08,29.61-6.87C88.93,10.38,88.13,9.49,86.7,8.68Z"/><path class="cls-6" d="M70.62,4.83h-.05C67.47,2.58,60.41,1,52.2,1,41.12,1,32.13,3.87,32.13,7.39s9,6.38,20.07,6.38a57.05,57.05,0,0,0,9.25-.72,37.48,37.48,0,0,0,9.17,1c8,0,14.56-2.08,14.56-4.63S78.66,4.83,70.62,4.83Z"/><path class="cls-7" d="M72.63,11.85a11.25,11.25,0,0,0,8.24-.38,2.14,2.14,0,0,1-.36.28c-1.68,1.1-5.4,1.22-8.32.27S68.27,9.41,70,8.32a2.65,2.65,0,0,1,.44-.25C69.24,9.15,68.84,10.68,72.63,11.85Z"/><path class="cls-7" d="M48.09,11.35a11.11,11.11,0,0,0,8-.19,2.09,2.09,0,0,1-.32.25c-1.53,1-5.13,1-8,.09S43.63,9,45.16,8a2.27,2.27,0,0,1,.41-.22C44.56,8.75,44.31,10.18,48.09,11.35Z"/><path class="cls-7" d="M49.71,11c2.44,1.11,5.3.66,7.4-.05l-.47.24a10.08,10.08,0,0,1-7.41-.05c-2-1-1.88-2.49.23-3.41A4.18,4.18,0,0,1,50,7.49C48.35,8.43,47.11,9.78,49.71,11Z"/><path class="cls-7" d="M52,10.86a7.3,7.3,0,0,0,5.23,0l-.33.16a7.13,7.13,0,0,1-5.24,0c-1.4-.68-1.33-1.76.16-2.41a2.39,2.39,0,0,1,.37-.15C51.07,9.06,50.19,10,52,10.86Z"/><path class="cls-7" d="M72.5,10.43A10,10,0,0,0,80,9.82a2.75,2.75,0,0,1-.37.28c-1.68,1.09-5,1.36-7.33.59S69.34,8.4,71,7.31c.14-.09.29-.17.44-.25C70.25,8.12,70.24,9.77,72.5,10.43Z"/><path class="cls-7" d="M59.76,6.72c-2.85,2.53-.47,4.33,2.53,5.41-.32-.05-.62-.12-.92-.19-3.7-.94-4.69-3.39-2.2-5.48s7.5-3,11.2-2.09c.3.08.58.17.84.26C67.64,4,62.81,4,59.76,6.72Z"/><path class="cls-7" d="M64.19,6.41c-2.37,2.24,0,3.83,3.1,4.86-.31-.06-.62-.12-.91-.2-3.7-.93-5.07-3.07-3-4.77S70,4,73.69,4.93c.3.07.58.15.85.24C71,4.54,65.88,4.81,64.19,6.41Z"/><path class="cls-7" d="M34.63,5c-2.85,2.52-.47,4.33,2.53,5.4a8.3,8.3,0,0,1-.92-.19c-3.7-.93-4.69-3.38-2.2-5.47s7.5-3,11.2-2.09a8.33,8.33,0,0,1,.84.26C42.51,2.28,37.68,2.26,34.63,5Z"/><path class="cls-7" d="M39.06,4.64c-2.37,2.25,0,3.84,3.1,4.86-.31-.05-.62-.12-.91-.19-3.71-.94-5.07-3.07-3-4.77s6.66-2.31,10.36-1.38c.3.08.58.16.85.25C45.89,2.78,40.75,3,39.06,4.64Z"/><path class="cls-7" d="M58,5.06C59.77,3.44,57,2.47,53.85,2l.91.07c3.71.4,5.46,1.82,3.9,3.17s-5.83,2.11-9.55,1.71l-.86-.11C51.73,7,56.16,6.8,58,5.06Z"/><path class="cls-7" d="M54.08,5.44c1.4-1.43-1.37-2.28-4.52-2.76l.91.08c3.71.4,5.69,1.61,4.42,2.71s-5.3,1.66-9,1.26c-.3,0-.59-.07-.87-.12C48.46,6.84,53.08,6.46,54.08,5.44Z"/><path class="cls-7" d="M45.88,5.36C45.17,4.8,46,4.33,47,4l-.29.06c-1.17.3-1.61.91-1,1.37a4.52,4.52,0,0,0,3.24.3l.27-.08C48.08,5.87,46.63,6,45.88,5.36Z"/><path class="cls-7" d="M47.19,5.36c-.58-.5.24-.93,1.21-1.23l-.28.06c-1.17.29-1.7.84-1.2,1.21a4.41,4.41,0,0,0,3,.14l.27-.07C49.12,5.68,47.6,5.71,47.19,5.36Z"/><path class="cls-7" d="M73.17,8.81c-.7-.56.12-1,1.08-1.35L74,7.52c-1.16.3-1.6.91-1,1.36a4.45,4.45,0,0,0,3.23.3l.27-.07C75.37,9.31,73.92,9.41,73.17,8.81Z"/><path class="cls-7" d="M74.48,8.81c-.58-.5.24-.93,1.22-1.23-.1,0-.19,0-.29.06-1.16.29-1.7.83-1.19,1.21a4.44,4.44,0,0,0,3,.14l.27-.07C76.42,9.13,74.89,9.16,74.48,8.81Z"/><path class="cls-8" d="M83.29,5.55c0,.18,1,1.93-.1,2-3.5.31-25,.71-34.93.72C35.6,8.31,36.53,4,36.57,3.23S47.09,2.42,60,3.07,83.33,4.82,83.29,5.55Z"/><path class="cls-9" d="M70.91,4.27c0,.09.67,1-.06,1-2.26.13-16.2.17-22.59.1-8.19-.08-7.63-2.25-7.61-2.62s6.81-.33,15.16.09S70.92,3.91,70.91,4.27Z"/><path class="cls-10" d="M50.44,3.29c0,.15-.83,1.59,0,1.74,2.51.47,18,2,25.14,2.61,9.13.74,8.69-3,8.7-3.67S76.71,2.68,67.37,2.49,50.46,2.66,50.44,3.29Z"/><path class="cls-9" d="M59.44,2.9c0,.08-.53.79,0,.87C61.05,4,71.1,4.84,75.71,5.15c5.91.39,5.62-1.5,5.62-1.81s-4.89-.67-10.93-.79S59.45,2.58,59.44,2.9Z"/><path class="cls-11" d="M65,2.05c0,.11.54,1.2,0,1.28-1.84.24-13.16.78-18.36.92-6.65.19-6.19-2.55-6.17-3S45.92.58,52.7.81,65,1.59,65,2.05Z"/><path class="cls-9" d="M58.45,1.42c0,.05.36.6,0,.63-1.19.12-8.52.33-11.89.38-4.3.06-4-1.31-4-1.54s3.58-.3,8-.15S58.45,1.19,58.45,1.42Z"/><path class="cls-11" d="M75.65,7.69c0,.11.54,1.2,0,1.28-1.84.24-13.17.78-18.36.92-6.66.19-6.19-2.55-6.18-3s5.53-.66,12.32-.43S75.67,7.23,75.65,7.69Z"/><path class="cls-9" d="M69.13,7.06c0,.05.36.6,0,.63-1.19.12-8.52.33-11.88.38-4.31.06-4-1.31-4-1.54s3.57-.3,8-.15S69.14,6.83,69.13,7.06Z"/><path class="cls-12" d="M57.05,2.34s-.79.19-.77-.29.8-.8.81-.44,0,.65.54.35.89.49.51.49-.55.22-.32.29-.33.41-1,.22S55.86,2.57,57.05,2.34Z"/><path class="cls-12" d="M59.39,1.34s-1.21.29-1.17-.44S59.43-.31,59.44.23s0,1,.82.53,1.35.74.77.74-.82.34-.48.44-.49.62-1.59.34S57.58,1.69,59.39,1.34Z"/><path class="cls-12" d="M60.71,2.39s-.11-.88.41-.79.76,1,.37.92-.69-.08-.44.54-.64.9-.6.49-.17-.62-.26-.38-.41-.4-.11-1.16S60.61,1.08,60.71,2.39Z"/><path class="cls-12" d="M69.27,4.2s-.79-.39-.48-.75,1.16-.08.95.2-.39.5.25.64.47,1,.14.72-.6-.19-.44,0-.53.1-1-.53S68.12,3.58,69.27,4.2Z"/><path class="cls-12" d="M54.52,1.69s0-.27.12-.24.22.29.11.27-.21,0-.13.16-.19.27-.18.15,0-.18-.08-.11-.12-.12,0-.35S54.49,1.3,54.52,1.69Z"/><path class="cls-12" d="M64.82,3.93s-.22-.14-.1-.24.36,0,.28.1-.15.13,0,.2.08.32,0,.23-.17-.08-.14,0-.17,0-.28-.2S64.51,3.7,64.82,3.93Z"/><path class="cls-12" d="M64.13,5.59s-.22-.15-.1-.25.37,0,.28.1-.15.14,0,.2.07.32,0,.23-.17-.08-.14,0-.17,0-.28-.21S63.82,5.35,64.13,5.59Z"/><path class="cls-12" d="M73.39,6.34s-.22-.15-.1-.25.36,0,.28.1-.16.13,0,.2.08.32,0,.23-.17-.08-.13,0-.17,0-.28-.2S73.08,6.1,73.39,6.34Z"/><path class="cls-12" d="M66.59,3.29s-.55.19-.58,0,.49-.38.53-.28.06.2.42,0,.68,0,.41.07-.36.16-.2.14-.19.18-.72.24S65.77,3.56,66.59,3.29Z"/><path class="cls-12" d="M52.69,1.27s-.55.19-.58,0,.48-.38.53-.27.06.19.42,0,.68,0,.41.07-.37.16-.2.14-.19.18-.72.24S51.87,1.54,52.69,1.27Z"/><path class="cls-12" d="M56.41,5.54s-.54.19-.57,0,.48-.38.52-.27.06.19.42,0,.68,0,.41.07-.36.16-.19.14-.19.18-.73.24S55.59,5.81,56.41,5.54Z"/><path class="cls-12" d="M48.46,4.83s-.54.19-.58,0,.49-.38.53-.27.06.2.42,0,.68,0,.41.06-.36.16-.2.14-.18.19-.72.25S47.64,5.1,48.46,4.83Z"/><path class="cls-12" d="M48.57,2.61s-.54.19-.58,0,.49-.38.53-.27.06.2.42,0,.68,0,.41.06-.36.16-.2.14-.18.18-.72.25S47.75,2.88,48.57,2.61Z"/><path class="cls-12" d="M76.46,5.37s-.55.19-.58,0,.49-.38.53-.27.06.2.42,0,.68,0,.41.06-.36.16-.2.14-.19.18-.72.25S75.64,5.64,76.46,5.37Z"/></g></g></svg>