<svg xmlns="http://www.w3.org/2000/svg" viewBox="0 0 220.81 266.23"><defs><style>.cls-1{fill:#7798c4;}.cls-2{fill:#151f26;}.cls-3{fill:#22323f;}.cls-4{fill:#72705b;}</style></defs><title>russia-animal</title><g id="Calque_2" data-name="Calque 2"><g id="ANIMAL"><ellipse class="cls-1" cx="110.41" cy="243.94" rx="110.41" ry="22.29"/><path class="cls-2" d="M98.93,186c-9.67-28.26-.38-42.42-47.1-44.87-16.89-.88-21.76,29.22-12.1,57.47.49,1.44.92,2.89,1.32,4.36-13.34,3.81-22.61,12.23-22.61,22,0,13.36,17.31,24.19,38.65,24.19,1.72,0,3.4-.08,5-.21,5.8.56,13.71-1,24.68-5.48C101.87,237.29,108.59,214.21,98.93,186Z"/><path class="cls-2" d="M143.07,186c8.89-28.26.35-42.42,43.33-44.87,15.55-.88,20,29.22,11.14,57.47-.45,1.44-.85,2.89-1.22,4.36,12.28,3.81,20.81,12.23,20.81,22,0,13.36-15.93,24.19-35.57,24.19-1.57,0-3.12-.08-4.64-.21-5.34.56-12.62-1-22.71-5.48C140.36,237.29,134.18,214.21,143.07,186Z"/><path class="cls-3" d="M183.59,171.89c0,40.56,0,59.77-18.7,68.86-10,4.91-25.49,6.87-49.25,7.66C98.34,249,85.5,248.32,76,246c-27.86-6.85-27.4-28-27.4-74.08,0-47.16,5-121.53,68.73-119.62C186.85,54.37,183.59,124.73,183.59,171.89Z"/><path class="cls-3" d="M171.86,56.17c0,15.32-16.07,38.51-48.31,38.51s-51-22.28-51-35.77c0-22.12,20.2-56.22,52.45-56.22S171.86,34.05,171.86,56.17Z"/><path class="cls-3" d="M97.17,5.2c4.22,4.29,9.78,15.14,6.58,18.29s-14-2.59-18.18-6.88-5-10.33-1.84-13.48S93,.91,97.17,5.2Z"/><path class="cls-3" d="M162.33,15.29c-4.14,4.36-14.8,10.28-18.06,7.19s2.12-14,6.27-18.4S160.69-1.31,164,1.79,166.48,10.93,162.33,15.29Z"/><path class="cls-4" d="M137.46,83.11c0,4.34-5.9,10.18-13.07,10.18s-12.9-6.35-12.9-10.18c0-6.27,6.05-15.91,13.22-15.91S137.46,76.84,137.46,83.11Z"/><circle class="cls-4" cx="109.7" cy="55.58" r="3.34"/><circle class="cls-4" cx="137.94" cy="55.58" r="3.34"/><circle class="cls-3" cx="109.7" cy="56.3" r="2.63"/><circle class="cls-3" cx="137.94" cy="56.3" r="2.63"/><path class="cls-3" d="M129.35,72.66c0,1.13-2.22,2.64-4.91,2.64s-4.84-1.65-4.84-2.64c0-1.63,2.27-4.14,5-4.14S129.35,71,129.35,72.66Z"/><path class="cls-2" d="M164.89,240.75c-10,4.91-25.49,6.87-49.25,7.66C98.34,249,85.5,248.32,76,246c1.24-16.66,8.21-36.18,8.21-36.18s-.64,28.43,37.25,28.72c37.32.28,32.18-27.86,32-28.69C153.66,210.3,157.51,219.4,164.89,240.75Z"/><ellipse class="cls-3" cx="62.61" cy="239.8" rx="21.57" ry="17.11"/><ellipse class="cls-3" cx="175.03" cy="236.95" rx="21.57" ry="17.11"/><path class="cls-2" d="M156.6,90.71S135.47,108,115.13,105.83C130.93,109.76,152.14,107.08,156.6,90.71Z"/></g></g></svg>