<svg xmlns="http://www.w3.org/2000/svg" viewBox="0 0 552.42 725.78"><defs><style>.cls-1{fill:#3fddfb;}.cls-2{fill:#4f78a2;}.cls-3{fill:#adaef6;}.cls-4{fill:#98b7e5;}.cls-5{fill:#ffb668;}.cls-6{fill:#bce7f2;}.cls-7{fill:#2e4c7c;}.cls-8{fill:#bce5a6;}.cls-9{fill:#faf3e7;}.cls-10{fill:#a777cf;}.cls-11{fill:#a5daef;}.cls-12{fill:#fb9f6f;}.cls-13{fill:#fefde4;}.cls-14{fill:#afccef;}.cls-15{fill:#7798c4;}</style></defs><title>russia-monument</title><g id="Calque_2" data-name="Calque 2"><g id="MONUMENT"><rect class="cls-1" x="84.76" y="304.83" width="79.05" height="58.15"/><rect class="cls-1" x="197.76" y="540.92" width="42.91" height="71.81"/><rect class="cls-2" x="432.01" y="540.23" width="120.41" height="73.14"/><polygon class="cls-2" points="405.02 436 525.9 436 525.9 465.8 418.89 465.8 405.02 436"/><rect class="cls-3" x="17.71" y="533.42" width="534.71" height="7.5"/><rect class="cls-4" x="355.23" y="533.42" width="76.78" height="79.94"/><rect class="cls-2" x="17.71" y="549.97" width="127.58" height="63.4"/><rect class="cls-3" x="262.52" y="495.93" width="141.3" height="37.5"/><rect class="cls-5" x="67.31" y="473.39" width="36.08" height="33.3"/><rect class="cls-6" x="145.29" y="542.66" width="209.93" height="70.7"/><rect class="cls-7" y="540.92" width="355.23" height="11.4"/><rect class="cls-7" x="253.26" y="391.69" width="129.72" height="15.64"/><rect class="cls-7" x="76.73" y="277.49" width="96.81" height="15.64"/><polygon class="cls-7" points="140.67 484.53 10.95 484.53 23.7 473.13 140.67 473.13 140.67 484.53"/><rect class="cls-8" x="253.26" y="407.13" width="91.36" height="53.32"/><polygon class="cls-7" points="413.12 474.56 552.42 474.56 538.73 463.16 413.12 463.16 413.12 474.56"/><rect class="cls-3" x="84.76" y="293.41" width="79.05" height="179.98"/><path class="cls-9" d="M261.5,211.38v-4.75s13.21-20.44,22.3,0c0,0,10.32-18.17,20.43-.21,0,0,9.5-17.34,20.65,0,0,0,12.18-18.37,20.44,0,0,0,12.59-17.54,21.47-.2v5.16Z"/><path class="cls-2" d="M371.75,246.2H259.89c0-9.25.26-17.71.76-25.45v-.05c.07-1,.14-1.93.21-2.87q.66-9.06,1.79-16.8c.26-1.87.55-3.68.85-5.43,8-46.2,28.41-55.43,52.31-55.43,23.37,0,43.46,8.82,51.81,52.31.44,2.32.86,4.74,1.23,7.26.8,5.31,1.44,11.07,1.92,17.33.08,1,.15,2.05.22,3.09C371.5,228.07,371.76,236.72,371.75,246.2Z"/><path class="cls-9" d="M371,220.16c-15.06,1.29-91.78,7.41-110.34.59v-.05l2-19.67.31.25c2,1.67,6.62,6,6.62,11.29,0,0,13.23-30.38,28-.48,0,0,17.51-31.31,33.85.24,0,0,18.87-29.42,29.38-1.17,0,0,4.61-8,8-11.42.8,5.31,1.44,11.07,1.92,17.33C370.85,218.09,370.92,219.12,371,220.16Z"/><path class="cls-9" d="M260.11,247.5V231.18s7.5-2.14,16.9,12.31c0,0,5.08-20.33,22.56.53,0,0,15.6-19.79,28.2,1.07,0,0,19.92-20.86,25-2.14,0,0,14.71-19.79,18.92-7.22V247.5Z"/><rect class="cls-7" x="250.54" y="245.82" width="129.72" height="9.88"/><path class="cls-9" d="M125.24,378.44V374.6c-4.57-1.39-11.93,7.12-11.93,7.12-17.18-18.55-28,5-28,5H131v-8.3Z"/><path class="cls-2" d="M329.22,427.83c0-8.94-3.76-16.18-8.4-16.18s-8.39,7.24-8.39,16.18v32.34h16.78v-32C329.21,428,329.22,427.93,329.22,427.83Z"/><path class="cls-2" d="M302.54,428.17c0-8.94-3.76-16.18-8.4-16.18s-8.39,7.24-8.39,16.18v32.34h16.78v-32C302.53,428.37,302.54,428.27,302.54,428.17Z"/><path class="cls-2" d="M276.18,429c0-8.68-3.76-15.72-8.39-15.72s-8.4,7-8.4,15.72c0,.1,0,.2,0,.3v31.13h16.78V429Z"/><polygon class="cls-2" points="316.82 483.61 428.18 484.53 402.21 429.92 339.09 429.92 316.82 483.61"/><path class="cls-9" d="M330.33,450.9s7.5,4.14,7.72,8.11c0,0,11.92-16.11,21.42,0,0,0,9.49-16.11,20.08,0,0,0,4.4-4.78,5.59-5V464.1H325.29Z"/><path class="cls-9" d="M411,450.9l5.5,13.2h-14S400,454,411,450.9Z"/><circle class="cls-8" cx="393.51" cy="458.54" r="10.17"/><path class="cls-9" d="M316.82,483.61l4.83-11.12s11.66-3.66,15.78,6.87c0,0,11.45-16.94,21.53-.69,0,0,11.67-15.16,21.06-1.05l-3.89,6.91Z"/><path class="cls-9" d="M405,473.45a10,10,0,0,1,11.44,0l4.75,10.48h-11Z"/><rect class="cls-6" x="253.26" y="255.69" width="124.27" height="136.42"/><path class="cls-4" d="M325.07,302.84c0-13.12-3.27-23.75-7.3-23.75s-7.3,10.63-7.3,23.75v47.47h14.6V302.84Z"/><path class="cls-4" d="M347.94,302.14c0-13.12-3.26-23.75-7.3-23.75s-7.3,10.63-7.3,23.75v47.47h14.6V302.14Z"/><path class="cls-4" d="M369.31,301.73C369.31,288.61,366,278,362,278s-7.3,10.63-7.3,23.75V349.2h14.6v-47C369.3,302,369.31,301.88,369.31,301.73Z"/><path class="cls-4" d="M301.86,303.34c0-13.12-3.27-23.75-7.3-23.75s-7.3,10.63-7.3,23.75v47.47h14.6V303.34Z"/><path class="cls-4" d="M278.94,304.55c0-12.74-3.27-23.07-7.31-23.07s-7.3,10.33-7.3,23.07c0,.15,0,.29,0,.44v45.68h14.59V305C278.93,304.84,278.94,304.7,278.94,304.55Z"/><rect class="cls-4" x="338.56" y="385.48" width="64.59" height="43.69"/><path class="cls-8" d="M124.51,145.73s-12,52.1-44,87.2c0,0-21,13.77-2.66,44.1h49Z"/><path class="cls-8" d="M124.06,145.73s12,52.1,44,87.2c0,0,21,13.77,2.66,44.1h-49Z"/><path class="cls-2" d="M124.39,150.06a293.05,293.05,0,0,1-9.46,28.9,294.08,294.08,0,0,1-30.17,57.93A37.9,37.9,0,0,0,80.62,249c-2.15,13.64,4,24.44,6.23,28h14.74a47.13,47.13,0,0,1-3.94-10.35A49.08,49.08,0,0,1,98,242.12c4-9.62,8-20,11.61-31.17A407.76,407.76,0,0,0,124.39,150.06Z"/><path class="cls-2" d="M124.39,150.06A313.24,313.24,0,0,0,134.6,180.4a314.82,314.82,0,0,0,30.18,57.93,37.94,37.94,0,0,1,4.13,12.13c2,12.81-3.3,23-5.42,26.57H148.64a47.2,47.2,0,0,0,3.25-8.91,49,49,0,0,0-.35-24.56c-4-9.68-7.95-20.08-11.6-31.17A435.78,435.78,0,0,1,124.39,150.06Z"/><path class="cls-2" d="M124.39,150.06c-.18,11.69-.72,24-1.76,37-1.4,17.35-3.51,33.55-6,48.49a191.17,191.17,0,0,0,0,41.51l15.9,0c.49-5.62.82-11.66.88-18.06.07-8.24-.3-15.89-.93-22.88Q128.42,193.07,124.39,150.06Z"/><ellipse class="cls-8" cx="65.07" cy="329.99" rx="10.57" ry="19.28"/><polygon class="cls-8" points="107.7 473.39 23.79 473.39 56.38 340.54 74.37 340.54 107.7 473.39"/><polygon class="cls-2" points="65.07 340.54 58.01 473.39 37.4 473.39 59.93 340.54 65.07 340.54"/><polygon class="cls-2" points="65.6 340.54 72.66 473.39 93.27 473.39 70.74 340.54 65.6 340.54"/><rect class="cls-2" x="55.7" y="339.1" width="19.34" height="2.86"/><ellipse class="cls-6" cx="315.39" cy="19.28" rx="10.57" ry="19.28"/><polygon class="cls-6" points="358.02 162.69 274.11 162.69 306.7 29.83 324.69 29.83 358.02 162.69"/><polygon class="cls-10" points="315.39 29.83 308.33 162.69 287.71 162.69 310.25 29.83 315.39 29.83"/><polygon class="cls-10" points="315.92 29.83 322.98 162.69 343.59 162.69 321.06 29.83 315.92 29.83"/><rect class="cls-10" x="306.02" y="28.4" width="19.34" height="2.86"/><rect class="cls-10" x="263.02" y="158.45" width="99.71" height="9.88"/><path class="cls-6" d="M84.86,409.45s-5.38,23.41-19.75,39.18c0,0-9.44,6.19-1.2,19.82h22Z"/><path class="cls-6" d="M84.66,409.45s5.37,23.41,19.75,39.18c0,0,9.43,6.19,1.2,19.82h-22Z"/><path class="cls-10" d="M84.8,411.4a128.52,128.52,0,0,1-4.25,13,132.18,132.18,0,0,1-13.55,26,16.88,16.88,0,0,0-1.86,5.44,18.61,18.61,0,0,0,2.8,12.59h6.62a21.26,21.26,0,0,1-1.77-4.65,22,22,0,0,1,.15-11c1.82-4.33,3.58-9,5.22-14A182.9,182.9,0,0,0,84.8,411.4Z"/><path class="cls-10" d="M84.8,411.4A140.88,140.88,0,0,0,103,451.06a16.84,16.84,0,0,1,1.86,5.45,18.2,18.2,0,0,1-2.44,11.94H95.7a20.76,20.76,0,0,0,1.46-4,22,22,0,0,0-.16-11c-1.81-4.35-3.57-9-5.21-14A197.46,197.46,0,0,1,84.8,411.4Z"/><path class="cls-10" d="M84.8,411.4c-.07,5.25-.32,10.8-.79,16.62-.63,7.79-1.57,15.08-2.71,21.79-.28,2.65-.48,5.57-.5,8.72a86,86,0,0,0,.5,9.93h7.15c.22-2.53.36-5.24.39-8.11a103,103,0,0,0-.42-10.29Q86.62,430.73,84.8,411.4Z"/><rect class="cls-3" x="422.63" y="378.08" width="103.15" height="58.09"/><path class="cls-8" d="M525.78,372.05H424.29a167.66,167.66,0,0,1,.88-17.91,103.42,103.42,0,0,1,2.4-14c7.26-29.17,25.77-35,47.46-35,21.2,0,39.43,5.57,47,33a98.63,98.63,0,0,1,2.86,15.53A168.3,168.3,0,0,1,525.78,372.05Z"/><rect class="cls-3" x="442.44" y="277.32" width="63.87" height="37.51"/><path class="cls-9" d="M524.89,353.66c-1.53.12-82.52,6.13-99.72.48-.36-.12-.7-.24-1-.37l2.55-14.2s.33.19.85.53c1.8,1.21,5.83,4.35,5.83,8.21,0,0,11.64-22.09,24.65-.35,0,0,15.41-22.77,29.79.17,0,0,16.6-21.39,25.85-.85,0,0,5.38-7.75,8.34-9.15A98.63,98.63,0,0,1,524.89,353.66Z"/><path class="cls-9" d="M424.17,372.28V361.83s6.83-1.37,15.39,7.88c0,0,4.62-13,20.54.34,0,0,14.21-12.67,25.68.69,0,0,18.15-13.36,22.77-1.37,0,0,13.39-12.67,17.23-4.63v7.54Z"/><path class="cls-8" d="M474.93,156.14s-10.33,45-38,75.31c0,0-18.14,11.9-2.31,38.09H477Z"/><path class="cls-8" d="M474.54,156.14s10.34,45,38,75.31c0,0,18.13,11.9,2.3,38.09H472.5Z"/><path class="cls-2" d="M474.83,159.88a252.78,252.78,0,0,1-34.23,75A32.56,32.56,0,0,0,437,245.35c-1.86,11.78,3.43,21.1,5.37,24.19h12.73a40.83,40.83,0,0,1-3.4-8.94,42.33,42.33,0,0,1,.3-21.21c3.49-8.31,6.88-17.29,10-26.92A353.36,353.36,0,0,0,474.83,159.88Z"/><path class="cls-2" d="M474.83,159.88a268.7,268.7,0,0,0,8.82,26.21,271.5,271.5,0,0,0,26.06,50,32.76,32.76,0,0,1,3.57,10.47c1.74,11.06-2.85,19.84-4.68,23H495.77a39.48,39.48,0,0,0,2.8-7.69,42.18,42.18,0,0,0-.29-21.21c-3.49-8.37-6.87-17.34-10-26.93A376.31,376.31,0,0,1,474.83,159.88Z"/><path class="cls-2" d="M474.83,159.88c-.15,10.1-.63,20.77-1.53,32-1.2,15-3,29-5.2,41.88a163.19,163.19,0,0,0-1,16.77,165.84,165.84,0,0,0,1,19.08l13.73,0c.43-4.85.71-10.06.76-15.59a196.59,196.59,0,0,0-.8-19.77Q478.3,197,474.83,159.88Z"/><rect class="cls-2" x="435.75" y="268.8" width="80.34" height="13.35"/><rect class="cls-2" x="438.51" y="310.52" width="72.59" height="7.54"/><rect class="cls-2" x="420.47" y="371.15" width="108.62" height="7.54"/><path class="cls-2" d="M151,328.52c0-7.55-3.17-13.67-7.09-13.67s-7.09,6.12-7.09,13.67v27.32H151V328.52Z"/><path class="cls-2" d="M128.44,328.81c0-7.55-3.18-13.67-7.09-13.67s-7.1,6.12-7.1,13.67c0,.08,0,.17,0,.26v27.06h14.17V329.07C128.43,329,128.44,328.89,128.44,328.81Z"/><path class="cls-2" d="M106.17,329.51c0-7.34-3.17-13.28-7.09-13.28S92,322.17,92,329.51v26.54h14.18V329.51Z"/><rect class="cls-6" x="129.71" y="376.24" width="43.62" height="97.59"/><path class="cls-2" d="M151.86,398.14c-26.63,0-48.21,30.27-48.21,67.61h96.42C200.07,428.41,178.48,398.14,151.86,398.14Z"/><path class="cls-9" d="M107.08,440.12s4.16-14.38,5.9-15.47c0,0,2.62,3.49,2.62,9.8,0,0,12-24,21.34-.22,0,0,12.42-24.61,25.92.88,0,0,11.11-24.18,20.26.21v5.89S112.07,442.73,107.08,440.12Z"/><path class="cls-9" d="M183.12,460.18v-3.89s-7.62-10.67-20.31,3.81c0,0-12.34-16.34-24.87.08,0,0-13.83-19-21.61,0,0,0-4.32-9.94-10.38-11.89,0,0,6.06,4.54,5,11.89Z"/><rect class="cls-10" x="123.1" y="374.45" width="56.34" height="4.08"/><path class="cls-11" d="M151.92,302.05s-6.59,28.72-24.23,48.07c0,0-11.58,7.6-1.47,24.32h27Z"/><path class="cls-11" d="M151.68,302.05s6.59,28.72,24.23,48.07c0,0,11.58,7.6,1.47,24.32h-27Z"/><path class="cls-10" d="M151.86,304.43a160,160,0,0,1-5.22,15.94A162.06,162.06,0,0,1,130,352.31a20.93,20.93,0,0,0-2.28,6.69,22.81,22.81,0,0,0,3.43,15.44h8.13a25.48,25.48,0,0,1-2.17-5.71,27,27,0,0,1,.19-13.54c2.22-5.3,4.39-11,6.39-17.18A224.27,224.27,0,0,0,151.86,304.43Z"/><path class="cls-10" d="M151.86,304.43a172.78,172.78,0,0,0,22.27,48.68,21,21,0,0,1,2.28,6.68,22.44,22.44,0,0,1-3,14.65h-8.19a25.75,25.75,0,0,0,1.79-4.91,27,27,0,0,0-.19-13.54c-2.22-5.34-4.38-11.07-6.4-17.19A240.34,240.34,0,0,1,151.86,304.43Z"/><path class="cls-10" d="M151.86,304.43c-.1,6.45-.4,13.26-1,20.4-.77,9.56-1.94,18.5-3.33,26.74-.35,3.24-.59,6.83-.62,10.7a105.31,105.31,0,0,0,.62,12.18h8.77c.27-3.1.45-6.43.48-10,0-4.54-.16-8.76-.51-12.61Z"/><rect class="cls-12" x="184.06" y="298.95" width="67.29" height="52.92"/><rect class="cls-4" x="184.06" y="275.96" width="67.29" height="192.48"/><rect class="cls-10" x="178.52" y="277.03" width="77.79" height="10.44"/><path class="cls-9" d="M184.06,373v-3.74s11.41-16.53,23.08,0c0,0,10.89-15.73,22.56-.26,0,0,9.61-14.67,21.66-.27V373Z"/><path class="cls-9" d="M186.8,464.48V415.83s4.63-5.4,7.34,0v48.65Z"/><path class="cls-9" d="M242.93,464.48V415.83s4.63-5.4,7.33,0v48.65Z"/><path class="cls-9" d="M200.89,464.48v-47s6.22-11.08,13,0v47Z"/><path class="cls-9" d="M223.33,464.93v-47s6.21-11.08,13,0v47Z"/><path class="cls-6" d="M217.52,154.87S206.39,203.34,176.63,236c0,0-19.53,12.82-2.48,41h45.58Z"/><path class="cls-6" d="M217.11,154.87S228.24,203.34,258,236c0,0,19.53,12.82,2.48,41H214.91Z"/><path class="cls-10" d="M217.41,158.9a270.05,270.05,0,0,1-8.8,26.89,273,273,0,0,1-28.07,53.9A35.19,35.19,0,0,0,176.7,251c-2,12.69,3.7,22.74,5.79,26.06H196.2a43.55,43.55,0,0,1-3.66-9.63,45.4,45.4,0,0,1,.32-22.84c3.75-9,7.41-18.64,10.79-29A379,379,0,0,0,217.41,158.9Z"/><path class="cls-10" d="M217.41,158.9A292.15,292.15,0,0,0,255,241a35.38,35.38,0,0,1,3.85,11.28c1.88,11.92-3.07,21.37-5,24.72H240a43.57,43.57,0,0,0,3-8.29,45.6,45.6,0,0,0-.32-22.84c-3.75-9-7.4-18.69-10.8-29A407,407,0,0,1,217.41,158.9Z"/><path class="cls-10" d="M217.41,158.9c-.16,10.88-.66,22.37-1.63,34.42-1.3,16.14-3.27,31.21-5.61,45.11a178.15,178.15,0,0,0,0,38.62L225,277c.46-5.23.76-10.84.82-16.8.07-7.66-.28-14.79-.86-21.29Z"/><path class="cls-2" d="M245,324.52c0-6.8-2.87-12.32-6.39-12.32s-6.4,5.52-6.4,12.32c0,.08,0,.16,0,.23v24.39h12.77V324.75C244.94,324.68,245,324.6,245,324.52Z"/><path class="cls-2" d="M224.63,324.78c0-6.8-2.86-12.32-6.39-12.32s-6.39,5.52-6.39,12.32a1.69,1.69,0,0,0,0,.23V349.4h12.77V324.78Z"/><path class="cls-2" d="M204.57,325.41c0-6.61-2.86-12-6.39-12s-6.39,5.36-6.39,12v23.92h12.78V325.41Z"/><path class="cls-11" d="M370.5,280.19s-9.5,41.35-34.9,69.22c0,0-16.67,10.94-2.12,35h38.89Z"/><path class="cls-11" d="M370.14,280.19s9.5,41.35,34.9,69.22c0,0,16.66,10.94,2.11,35H368.27Z"/><path class="cls-10" d="M370.4,283.62a231,231,0,0,1-7.51,22.95,233.63,233.63,0,0,1-23.95,46,30,30,0,0,0-3.28,9.63c-1.71,10.82,3.15,19.39,4.94,22.23h11.7a37.84,37.84,0,0,1-3.13-8.21,38.94,38.94,0,0,1,.28-19.5c3.2-7.64,6.32-15.9,9.21-24.75A323.45,323.45,0,0,0,370.4,283.62Z"/><path class="cls-10" d="M370.4,283.62a249,249,0,0,0,32.06,70.08,30,30,0,0,1,3.29,9.63,32.33,32.33,0,0,1-4.3,21.09h-11.8a36.1,36.1,0,0,0,2.58-7.07,38.89,38.89,0,0,0-.27-19.5c-3.2-7.68-6.31-15.94-9.21-24.74A346.19,346.19,0,0,1,370.4,283.62Z"/><path class="cls-10" d="M370.4,283.62c-.14,9.28-.57,19.09-1.4,29.37-1.11,13.77-2.78,26.64-4.78,38.5a149.2,149.2,0,0,0-.89,15.41,151.56,151.56,0,0,0,.88,17.54l12.63,0c.39-4.46.64-9.25.69-14.33.06-6.54-.23-12.62-.73-18.17Q373.61,317.77,370.4,283.62Z"/><rect class="cls-10" x="331.76" y="383.61" width="76.51" height="4.43"/><rect class="cls-10" x="338.24" y="424.06" width="65.57" height="5.86"/><rect class="cls-10" x="62.2" y="468.45" width="44.88" height="5.38"/><polygon class="cls-4" points="326.87 460.44 253.25 460.44 253.33 470.28 184.11 470.52 184.06 465.5 106.99 465.5 106.99 506.56 184.06 506.56 183.87 473.02 253.36 472.64 253.41 484.53 316.42 484.53 326.87 460.44"/><polygon class="cls-6" points="262.51 533.42 17.71 533.42 17.71 484.53 183.83 484.45 183.72 469.97 261.76 469.97 262.51 533.42"/><rect class="cls-13" x="62.2" y="506.56" width="200.48" height="26.86"/><rect class="cls-6" x="384.89" y="474.32" width="153.72" height="48.89"/><rect class="cls-13" x="398.74" y="506.56" width="153.68" height="27.62"/><polygon class="cls-7" points="405.02 490.5 552.42 490.5 537.94 482.43 405.02 482.43 405.02 490.5"/><path class="cls-10" d="M284.1,511.57c0-3.92-3.76-7.1-8.4-7.1s-8.39,3.18-8.39,7.1v14.2h16.78V511.71S284.1,511.62,284.1,511.57Z"/><path class="cls-10" d="M310.26,511.42c0-3.92-3.76-7.1-8.4-7.1s-8.39,3.18-8.39,7.1v14.19h16.78V511.55S310.26,511.46,310.26,511.42Z"/><path class="cls-10" d="M336.11,511.73c0-3.93-3.76-7.1-8.4-7.1s-8.39,3.17-8.39,7.1v14.19H336.1V511.86S336.11,511.77,336.11,511.73Z"/><path class="cls-10" d="M364.56,511.57c0-3.92-3.76-7.1-8.39-7.1s-8.4,3.18-8.4,7.1a.66.66,0,0,0,0,.14v14.06h16.78v-14.2Z"/><polygon class="cls-7" points="385.71 496.78 241 496.78 255.22 482.34 385.71 482.34 385.71 496.78"/><polygon class="cls-8" points="434.54 534.17 353.77 534.17 385.14 464.11 402.46 464.11 434.54 534.17"/><polygon class="cls-2" points="393.51 464.11 386.71 534.17 366.87 534.17 388.56 464.11 393.51 464.11"/><polygon class="cls-2" points="394.01 464.11 400.81 534.17 420.65 534.17 398.96 464.11 394.01 464.11"/><rect class="cls-2" x="384.49" y="463.35" width="18.62" height="1.51"/><polygon class="cls-7" points="253.57 467.8 230.34 467.8 206.14 467.8 182.91 467.8 177.74 474.64 206.14 474.64 230.34 474.64 258.73 474.64 253.57 467.8"/><rect class="cls-3" x="67.31" y="473.83" width="36.08" height="32.86"/><path class="cls-14" d="M83.51,518.05c0-1.91-1.83-3.46-4.09-3.46s-4.09,1.55-4.09,3.46V525h8.18v-6.92Z"/><path class="cls-14" d="M100.78,518.24c0-1.91-1.84-3.46-4.1-3.46s-4.09,1.55-4.09,3.46v6.92h8.18v-6.85A.15.15,0,0,0,100.78,518.24Z"/><path class="cls-14" d="M119.37,518.05c0-1.91-1.84-3.46-4.1-3.46s-4.09,1.55-4.09,3.46V525h8.18v-6.85A.15.15,0,0,0,119.37,518.05Z"/><path class="cls-14" d="M136.63,518.24c0-1.91-1.83-3.46-4.09-3.46s-4.1,1.55-4.1,3.46a.15.15,0,0,0,0,.07v6.85h8.18v-6.92Z"/><path class="cls-14" d="M154.65,517.86c0-1.91-1.83-3.46-4.09-3.46s-4.1,1.55-4.1,3.46c0,0,0,0,0,.07v6.85h8.18v-6.92Z"/><path class="cls-14" d="M171.91,518.05c0-1.91-1.83-3.46-4.09-3.46s-4.09,1.55-4.09,3.46V525h8.18v-6.92Z"/><path class="cls-14" d="M187.83,518.22c0-1.91-1.83-3.46-4.09-3.46s-4.09,1.55-4.09,3.46v6.92h8.18v-6.92Z"/><path class="cls-14" d="M205.1,518.41c0-1.91-1.84-3.46-4.1-3.46s-4.09,1.55-4.09,3.46v6.92h8.18v-6.85S205.1,518.43,205.1,518.41Z"/><path class="cls-14" d="M223.58,518c0-1.91-1.84-3.46-4.1-3.46s-4.09,1.55-4.09,3.46V525h8.18v-6.85A.15.15,0,0,0,223.58,518Z"/><path class="cls-14" d="M240.84,518.23c0-1.91-1.83-3.46-4.09-3.46s-4.1,1.55-4.1,3.46a.17.17,0,0,0,0,.07v6.85h8.18v-6.92Z"/><path class="cls-14" d="M257.66,518.54c0-1.91-1.83-3.46-4.09-3.46s-4.1,1.55-4.1,3.46v6.92h8.19v-6.92Z"/><path class="cls-14" d="M440.91,517.88c0-1.92-1.83-3.47-4.09-3.47s-4.09,1.55-4.09,3.47v6.92h8.18v-6.92Z"/><path class="cls-14" d="M458.17,518.07c0-1.92-1.83-3.47-4.09-3.47s-4.09,1.55-4.09,3.47V525h8.18v-6.92Z"/><path class="cls-14" d="M476.77,517.88c0-1.92-1.84-3.47-4.1-3.47s-4.09,1.55-4.09,3.47v6.92h8.18v-6.86S476.77,517.9,476.77,517.88Z"/><path class="cls-14" d="M494,518.07c0-1.92-1.84-3.47-4.1-3.47s-4.09,1.55-4.09,3.47V525H494v-6.92Z"/><path class="cls-14" d="M512.05,517.69c0-1.92-1.83-3.47-4.09-3.47s-4.1,1.55-4.1,3.47v6.92h8.19v-6.92Z"/><path class="cls-14" d="M530.05,517.94c0-1.91-1.83-3.46-4.09-3.46s-4.1,1.55-4.1,3.46v6.92h8.19v-6.92Z"/><path class="cls-14" d="M547.79,517.94c0-1.91-1.83-3.46-4.09-3.46s-4.09,1.55-4.09,3.46v6.92h8.18v-6.92Z"/><path class="cls-7" d="M434.2,450c0-1.84-1.76-3.33-3.93-3.33s-3.94,1.49-3.94,3.33v6.65h7.87V450Z"/><path class="cls-7" d="M450.8,450.17c0-1.84-1.76-3.33-3.93-3.33s-3.94,1.49-3.94,3.33v6.65h7.87v-6.65Z"/><path class="cls-7" d="M468.68,450c0-1.84-1.77-3.33-3.94-3.33s-3.93,1.49-3.93,3.33v6.65h7.86v-6.59A.13.13,0,0,0,468.68,450Z"/><path class="cls-7" d="M485.28,450.17c0-1.84-1.77-3.33-3.94-3.33s-3.94,1.49-3.94,3.33c0,0,0,0,0,.06v6.59h7.86v-6.59S485.28,450.19,485.28,450.17Z"/><path class="cls-7" d="M502.6,449.81c0-1.84-1.76-3.33-3.93-3.33s-3.94,1.49-3.94,3.33v6.65h7.87v-6.65Z"/><path class="cls-7" d="M519.91,450.05c0-1.84-1.76-3.33-3.93-3.33s-3.94,1.49-3.94,3.33v6.65h7.87v-6.65Z"/><path class="cls-14" d="M315,577.66C315,567.89,305.59,560,294,560s-20.9,7.91-20.9,17.68c0,.11,0,.22,0,.33v35h41.79V578C314.94,577.88,315,577.77,315,577.66Z"/><path class="cls-14" d="M408.77,569.45c0-12.48-6.71-22.59-15-22.59s-15,10.11-15,22.59c0,.14,0,.28,0,.43v44.73h29.93V569.88C408.76,569.73,408.77,569.59,408.77,569.45Z"/><path class="cls-7" d="M130.11,568.74c0-5.15-4.93-9.32-11-9.32s-11,4.17-11,9.32c0,0,0,.11,0,.17v18.44h22V568.74Z"/><path class="cls-7" d="M92.57,568.74c0-5.15-4.93-9.32-11-9.32s-11,4.17-11,9.32a1,1,0,0,0,0,.17v18.44h22V568.91A1,1,0,0,0,92.57,568.74Z"/><path class="cls-7" d="M524.06,568.74c0-5.15-4.93-9.32-11-9.32s-11,4.17-11,9.32c0,0,0,.11,0,.17v18.44h22V568.91A1,1,0,0,0,524.06,568.74Z"/><path class="cls-7" d="M486.52,568.74c0-5.15-4.93-9.32-11-9.32s-11,4.17-11,9.32v18.61h22V568.91C486.51,568.85,486.52,568.79,486.52,568.74Z"/><path class="cls-7" d="M54.28,568.74c0-5.15-4.93-9.32-11-9.32s-11,4.17-11,9.32c0,0,0,.11,0,.17v18.44h22V568.74Z"/><rect class="cls-15" x="76.73" y="664.6" width="96.81" height="3.26"/><path class="cls-15" d="M552.42,623.41,538.61,625v1.72h13.81l-13.69,2.38H525.9v5.67h-.12v12h3.31v1.57h-3.31v1.34l-.13,0a7.69,7.69,0,0,1-.76,2.27,9.78,9.78,0,0,1-2.86,3.24c-2.54,1.92-6.28,3.33-10.93,4.35V661h-4.78v5.93h9.77v2.78h-.85c15,5.36-2.73,7.8-2.73,7.8-24.49,5.6-35.39,13.61-37.55,15.37l0,.34-.19-.16-.2.16,0-.34c-2.16-1.76-13.06-9.77-37.54-15.37,0,0-18.14-2.49-2.31-8h1.09V666.9h6.69V661h-3.93v-1.52c-4.73-1.09-8.48-2.59-10.94-4.65l-.85.11-2.55-3,1-.08a8.13,8.13,0,0,1-.61-1.6h-.39v-1.94h-3.7v-1.57h2.16v-12H405.1l-2.89,1.26h1.6v1.23h-.66v7.51h5.13v.93h-.66c13.69,4.91-2.58,7.14-2.58,7.14-13.11,3-22,6.75-27.5,9.68v9.88h2.72v2.06h-8.51c0,.56,0,1.1-.06,1.64v.46l-.05,0a17.16,17.16,0,0,1-.65,3.22c-.07.22-.14.43-.22.65a14.87,14.87,0,0,1-1.92,3.61,16,16,0,0,1-1.23,1.52,22.63,22.63,0,0,1-7.23,5h2.34v2.06H357l-31.91,26.55h.31v.6h-.66a2.46,2.46,0,0,1,1.26,1.9c0,2.22-4.73,4-10.57,4s-10.56-1.8-10.56-4a2.44,2.44,0,0,1,1.25-1.9H306v-.6h.33l-31.21-26.55H263v-2.06h8.28a22,22,0,0,1-7.8-5.69c-.3-.37-.59-.75-.85-1.14a11.52,11.52,0,0,1-.64-1l-.51-.15v-.81a14.55,14.55,0,0,1-.64-1.53l-.21-.6h0a16.51,16.51,0,0,1-.51-2.18h0v-.2c-.06-.37-.1-.76-.14-1.14-1.15.22-2,.34-2,.34-26.38,6-38.12,14.67-40.45,16.55l0,.38-.2-.18-.21.18,0-.38c-2.33-1.88-14.07-10.51-40.45-16.55,0,0-1.36-.19-3-.57a42.53,42.53,0,0,1-5.56,1.21c-28.35,6.49-41,15.77-43.48,17.79l0,.41-.23-.19-.22.19,0-.41c-2.51-2-15.13-11.3-43.48-17.79,0,0-21-2.88-2.66-9.21h92.79c.63.22,1.21.43,1.74.64.54-.21,1.1-.42,1.73-.64h4.37v-2.17h5.54V639.08a99.61,99.61,0,0,1-10.72,2.13v5.57h6.11v.85h-2.07c10.11,3.49-1.47,5.08-1.47,5.08a92.7,92.7,0,0,0-12.1,3.6v8.24h-79V646.07l-10,8.34H75v.6h-.66a2.47,2.47,0,0,1,1.26,1.9c0,2.22-4.73,4-10.57,4s-10.56-1.81-10.56-4a2.46,2.46,0,0,1,1.25-1.9H55.7v-.6H56L23.85,627H23.7L11,624.66h6.76V612.89H0v-2.38H17.71V597.77H378.83v-.26h29.93v.26H552.42v22.29H538.61v3.35ZM262.08,622.1h.44v-2h-.33Zm-10.72,26.73v17h1.9V629.68h0l.06-1.53h-1.95v20.68Z"/></g></g></svg>