<svg xmlns="http://www.w3.org/2000/svg" viewBox="0 0 88.78 140.54"><defs><style>.cls-1{fill:#060e33;}.cls-2{fill:#c4360a;}.cls-3{fill:#ffe3e3;}.cls-4{fill:#f9b7b7;}.cls-5{fill:#070707;}.cls-6{fill:#efcc3a;}</style></defs><title>russia-souvenir</title><g id="Calque_2" data-name="Calque 2"><g id="SOUVENIR"><path class="cls-1" d="M88.78,96.15a44.28,44.28,0,0,1-15.93,34.06c-1,.88-2.13,1.7-3.25,2.47l-.27.19c-.89.61-1.81,1.19-2.75,1.73a44.39,44.39,0,1,1,22.2-38.45Z"/><circle class="cls-2" cx="44.39" cy="31.71" r="31.71"/><path class="cls-3" d="M64.44,31.71a20,20,0,1,1-.68-5.18A19.68,19.68,0,0,1,64.44,31.71Z"/><path class="cls-2" d="M88.78,96.15c0,.6,0,1.2,0,1.79s0,1.09-.09,1.63l0,.33c0,.5-.09,1-.15,1.48a.77.77,0,0,1,0,.15c-.06.56-.14,1.12-.23,1.67-.18,1.12-.39,2.22-.66,3.31,0,.06,0,.12,0,.18-.26,1.09-.57,2.16-.92,3.21-9.45-1-21.29-3.12-28.84-7.63-11.93-7.13-13.25-25-13.37-30.69C44.27,77.22,43,95.14,31,102.27c-7.55,4.51-19.39,6.63-28.84,7.63A44.39,44.39,0,0,1,83.42,75c.17.31.34.63.5,1s.33.64.48,1c.56,1.15,1.06,2.32,1.51,3.52q.2.5.36,1l.3.86c.12.37.24.75.35,1.14s.2.67.29,1c.19.68.36,1.36.51,2.06.08.34.15.69.22,1q.18.91.33,1.86c0,.37.11.74.15,1.11s.09.74.13,1.11c.08.75.13,1.5.17,2.26,0,.3,0,.6,0,.9C88.77,95.23,88.78,95.69,88.78,96.15Z"/><circle class="cls-4" cx="57.94" cy="36.88" r="5.17"/><circle class="cls-5" cx="51.61" cy="29.79" r="1.16"/><circle class="cls-5" cx="37.35" cy="29.79" r="1.16"/><circle class="cls-4" cx="31.02" cy="36.88" r="5.17"/><path class="cls-2" d="M19.83,115.68s-6.27-4.41-2.24-6.37S19.83,115.68,19.83,115.68Z"/><path class="cls-2" d="M19.83,115.68s1-7.59,4.61-4.93S19.83,115.68,19.83,115.68Z"/><path class="cls-2" d="M19.83,115.68s7.2-2.62,6.5,1.81S19.83,115.68,19.83,115.68Z"/><path class="cls-2" d="M19.83,115.68s5.65,5.18,1.41,6.61S19.83,115.68,19.83,115.68Z"/><path class="cls-2" d="M19.83,115.68s-2,7.41-5.2,4.31S19.83,115.68,19.83,115.68Z"/><path class="cls-2" d="M19.83,115.68s-7.48,1.69-6.23-2.61S19.83,115.68,19.83,115.68Z"/><circle class="cls-6" cx="19.83" cy="115.68" r="0.56"/><path class="cls-2" d="M41.09,104.08s-6.26-4.41-2.23-6.37S41.09,104.08,41.09,104.08Z"/><path class="cls-2" d="M41.09,104.08s1-7.6,4.61-4.93S41.09,104.08,41.09,104.08Z"/><path class="cls-2" d="M41.09,104.08s7.21-2.62,6.51,1.81S41.09,104.08,41.09,104.08Z"/><path class="cls-2" d="M41.09,104.08s5.66,5.18,1.42,6.6S41.09,104.08,41.09,104.08Z"/><path class="cls-2" d="M41.09,104.08s-2,7.41-5.19,4.31S41.09,104.08,41.09,104.08Z"/><path class="cls-2" d="M41.09,104.08s-7.47,1.69-6.22-2.61S41.09,104.08,41.09,104.08Z"/><circle class="cls-6" cx="41.09" cy="104.08" r="0.56"/><path class="cls-2" d="M37.82,127.42s-6.27-4.42-2.24-6.37S37.82,127.42,37.82,127.42Z"/><path class="cls-2" d="M37.82,127.42s1-7.6,4.61-4.93S37.82,127.42,37.82,127.42Z"/><path class="cls-2" d="M37.82,127.42s7.2-2.62,6.5,1.8S37.82,127.42,37.82,127.42Z"/><path class="cls-2" d="M37.82,127.42s5.65,5.17,1.41,6.6S37.82,127.42,37.82,127.42Z"/><path class="cls-2" d="M37.82,127.42s-2,7.41-5.2,4.31S37.82,127.42,37.82,127.42Z"/><path class="cls-2" d="M37.82,127.42s-7.48,1.69-6.23-2.61S37.82,127.42,37.82,127.42Z"/><circle class="cls-6" cx="37.82" cy="127.42" r="0.56"/><path class="cls-2" d="M54.55,116.19s-6.27-4.41-2.24-6.37S54.55,116.19,54.55,116.19Z"/><path class="cls-2" d="M54.55,116.19s1-7.6,4.61-4.93S54.55,116.19,54.55,116.19Z"/><path class="cls-2" d="M54.55,116.19s7.2-2.62,6.5,1.81S54.55,116.19,54.55,116.19Z"/><path class="cls-2" d="M54.55,116.19s5.65,5.18,1.41,6.6S54.55,116.19,54.55,116.19Z"/><path class="cls-2" d="M54.55,116.19s-2,7.41-5.2,4.31S54.55,116.19,54.55,116.19Z"/><path class="cls-2" d="M54.55,116.19s-7.48,1.69-6.23-2.61S54.55,116.19,54.55,116.19Z"/><circle class="cls-6" cx="54.55" cy="116.19" r="0.56"/><path class="cls-2" d="M76.35,105.64v0c0,.12,0,.24,0,.34h0c-.05.34-.1.55-.1.55h0l-.43-.32a11,11,0,0,1-2.8-3,1.9,1.9,0,0,1,.25-2.5,3.25,3.25,0,0,1,.75-.49c1.57-.76,2.26,0,2.51,1.3A13.25,13.25,0,0,1,76.35,105.64Z"/><path class="cls-2" d="M76.19,106.56s1-7.59,4.61-4.93S76.19,106.56,76.19,106.56Z"/><path class="cls-2" d="M76.19,106.56s7.2-2.61,6.5,1.81S76.19,106.56,76.19,106.56Z"/><path class="cls-2" d="M76.19,106.56s5.65,5.18,1.41,6.61S76.19,106.56,76.19,106.56Z"/><path class="cls-2" d="M76.19,106.56v0a.33.33,0,0,1,0,.1c0,.09-.06.23-.12.41l-.09.25s0,0,0,0a8.91,8.91,0,0,1-.34.91c-.81,2-2.42,4.69-4.6,2.59-1.6-1.53-.34-2.6,1.33-3.29a17.47,17.47,0,0,1,3.1-.88h0l.17,0,.48-.08Z"/><path class="cls-2" d="M76.19,106.56h-.07a4.23,4.23,0,0,1-.48.09.86.86,0,0,1-.17,0l.17,0a.28.28,0,0,1,0-.09.5.5,0,0,1,.12-.33,11,11,0,0,1-2.8-3,15.24,15.24,0,0,1,2.9,2.94c.19.23.3.39.33.43Z"/><path class="cls-6" d="M76.75,106.56a.55.55,0,0,1-.16.39h0a.6.6,0,0,1-.4.17.41.41,0,0,1-.16,0h0a.55.55,0,0,1-.37-.43h0a.28.28,0,0,1,0-.09.5.5,0,0,1,.12-.33.35.35,0,0,1,.1-.11.5.5,0,0,1,.34-.12h.11a.56.56,0,0,1,.42.38,0,0,0,0,1,0,0A.78.78,0,0,1,76.75,106.56Z"/><path class="cls-2" d="M67.47,130.75s-6.27-4.41-2.24-6.37S67.47,130.75,67.47,130.75Z"/><path class="cls-2" d="M67.47,130.75s1-7.6,4.61-4.93S67.47,130.75,67.47,130.75Z"/><path class="cls-2" d="M72.85,130.21c-1,.88-2.13,1.7-3.25,2.47-.56-.43-1.07-.89-1.44-1.23l-.16-.17-.13-.13-.18-.18a1.46,1.46,0,0,1-.18-.18l0,0,.14,0a3.49,3.49,0,0,1,.39-.13l.23-.07.1,0C69.49,130.15,71.55,129.7,72.85,130.21Z"/><path class="cls-2" d="M69.33,132.87c-.89.61-1.81,1.19-2.75,1.73a17.68,17.68,0,0,1,.58-2.87l.06-.19c0-.1,0-.18.07-.26l.14-.4a.33.33,0,0,0,0-.1v0l0,0,.27.27.09.08h0l.13.13.16.17A13.45,13.45,0,0,1,69.33,132.87Z"/><path class="cls-2" d="M67.47,130.75s-2,7.41-5.2,4.31S67.47,130.75,67.47,130.75Z"/><path class="cls-2" d="M67.47,130.75s-7.48,1.69-6.23-2.61S67.47,130.75,67.47,130.75Z"/><circle class="cls-6" cx="67.47" cy="130.75" r="0.56"/><path class="cls-6" d="M45.05,12.82s1.9,15-20.47,15.78a20.05,20.05,0,0,1,39.18-2.07C56.13,25,46.79,21.36,45.05,12.82Z"/><path class="cls-6" d="M81.49,102.33c-1.16-.14-2.34-.32-3.54-.55l-1.49-.29c-1.08-.23-2.17-.5-3.26-.81-12-3.4-24.1-11.72-27.86-31a60.67,60.67,0,0,1-.89-6.29c0,.57,0,1.14,0,1.71q0-.86,0-1.71a60.67,60.67,0,0,1-.89,6.29C38.06,97.54,15.1,102.54.5,102.8a42.93,42.93,0,0,0,1.68,7.1c9.45-1,21.29-3.12,28.84-7.63,9.36-5.6,12.19-17.83,13-25.57.08-.43.25-2.25.37-4.11.12,1.86.29,3.68.37,4.11.84,7.74,3.67,20,13,25.57a51.29,51.29,0,0,0,14.5,5.31c1.08.25,2.18.49,3.27.7l.09,0c.8.15,1.61.3,2.41.43l.69.12c1.2.19,2.4.37,3.57.53,1.48.2,2.92.37,4.31.52a42.93,42.93,0,0,0,1.68-7.1A68.22,68.22,0,0,1,81.49,102.33Z"/></g></g></svg>